  0
SECTION
  2
HEADER
  9
$ACADVER
  1
AC1014
  9
$HANDSEED
  5
FFFF
  9
$MEASUREMENT
 70
     1
  0
ENDSEC
  0
SECTION
  2
TABLES
  0
TABLE
  2
VPORT
  5
8
330
0
100
AcDbSymbolTable
 70
     4
  0
VPORT
  5
2E
330
8
100
AcDbSymbolTableRecord
100
AcDbViewportTableRecord
  2
*ACTIVE
 70
     0
 10
0.0
 20
0.0
 11
1.0
 21
1.0
 12
210.0
 22
148.5
 13
0.0
 23
0.0
 14
10.0
 24
10.0
 15
10.0
 25
10.0
 16
0.0
 26
0.0
 36
1.0
 17
0.0
 27
0.0
 37
0.0
 40
341.0
 41
1.24
 42
50.0
 43
0.0
 44
0.0
 50
0.0
 51
0.0
 71
     0
 72
   100
 73
     1
 74
     3
 75
     0
 76
     0
 77
     0
 78
     0
  0
ENDTAB
  0
TABLE
  2
LTYPE
  5
5
330
0
100
AcDbSymbolTable
 70
     1
  0
LTYPE
  5
14
330
5
100
AcDbSymbolTableRecord
100
AcDbLinetypeTableRecord
  2
BYBLOCK
 70
     0
  3

 72
    65
 73
     0
 40
0.0
  0
LTYPE
  5
15
330
5
100
AcDbSymbolTableRecord
100
AcDbLinetypeTableRecord
  2
BYLAYER
 70
     0
  3

 72
    65
 73
     0
 40
0.0
  0
LTYPE
  5
16
330
5
100
AcDbSymbolTableRecord
100
AcDbLinetypeTableRecord
  2
CONTINUOUS
 70
     0
  3
Solid line
 72
    65
 73
     0
 40
0.0
  0
ENDTAB
  0
TABLE
  2
LAYER
  5
2
100
AcDbSymbolTable
 70
1
  0
LAYER
  5
50
100
AcDbSymbolTableRecord
100
AcDbLayerTableRecord
  2
0
 70
0
  6
CONTINUOUS
  0
ENDTAB
  0
TABLE
  2
STYLE
  5
3
330
0
100
AcDbSymbolTable
 70
     1
  0
STYLE
  5
11
330
3
100
AcDbSymbolTableRecord
100
AcDbTextStyleTableRecord
  2
STANDARD
 70
     0
 40
0.0
 41
1.0
 50
0.0
 71
     0
 42
2.5
  3
txt
  4

  0
ENDTAB
  0
TABLE
  2
VIEW
  5
6
330
0
100
AcDbSymbolTable
 70
     0
  0
ENDTAB
  0
TABLE
  2
UCS
  5
7
330
0
100
AcDbSymbolTable
 70
     0
  0
ENDTAB
  0
TABLE
  2
APPID
  5
9
330
0
100
AcDbSymbolTable
 70
     2
  0
APPID
  5
12
330
9
100
AcDbSymbolTableRecord
100
AcDbRegAppTableRecord
  2
ACAD
 70
     0
  0
ENDTAB
  0
TABLE
  2
DIMSTYLE
  5
A
330
0
100
AcDbSymbolTable
 70
     1
  0
DIMSTYLE
105
27
330
A
100
AcDbSymbolTableRecord
100
AcDbDimStyleTableRecord
  2
ISO-25
 70
     0
  3

  4

  5

  6

  7

 40
1.0
 41
2.5
 42
0.625
 43
3.75
 44
1.25
 45
0.0
 46
0.0
 47
0.0
 48
0.0
140
2.5
141
2.5
142
0.0
143
0.03937007874016
144
1.0
145
0.0
146
1.0
147
0.625
 71
     0
 72
     0
 73
     0
 74
     0
 75
     0
 76
     0
 77
     1
 78
     8
170
     0
171
     3
172
     1
173
     0
174
     0
175
     0
176
     0
177
     0
178
     0
270
     2
271
     2
272
     2
273
     2
274
     3
340
11
275
     0
280
     0
281
     0
282
     0
283
     0
284
     8
285
     0
286
     0
287
     3
288
     0
  0
ENDTAB
  0
TABLE
  2
BLOCK_RECORD
  5
1
330
0
100
AcDbSymbolTable
 70
     1
  0
BLOCK_RECORD
  5
1F
330
1
100
AcDbSymbolTableRecord
100
AcDbBlockTableRecord
  2
*MODEL_SPACE
  0
BLOCK_RECORD
  5
1B
330
1
100
AcDbSymbolTableRecord
100
AcDbBlockTableRecord
  2
*PAPER_SPACE
  0
ENDTAB
  0
ENDSEC
  0
SECTION
  2
BLOCKS
  0
BLOCK
  5
20
330
1F
100
AcDbEntity
  8
0
100
AcDbBlockBegin
  2
*MODEL_SPACE
 70
     0
 10
0.0
 20
0.0
 30
0.0
  3
*MODEL_SPACE
  1

  0
ENDBLK
  5
21
330
1F
100
AcDbEntity
  8
0
100
AcDbBlockEnd
  0
BLOCK
  5
1C
330
1B
100
AcDbEntity
 67
     1
  8
0
100
AcDbBlockBegin
  2
*PAPER_SPACE
  1

  0
ENDBLK
  5
1D
330
1B
100
AcDbEntity
 67
     1
  8
0
100
AcDbBlockEnd
  0
ENDSEC
  0
SECTION
  2
ENTITIES
  0
SPLINE
  5
100
100
AcDbEntity
  8
0
 62
7
100
AcDbSpline
 70
8
 71
3
 72
8
 73
4
 74
0
 40
0
 40
0
 40
0
 40
0
 40
1
 40
1
 40
1
 40
1
 10
5.127846
 20
0.034758
 30
0.0
 10
4.878517
 20
0.117410
 30
0.0
 10
4.387091
 20
0.375287
 30
0.0
 10
4.274680
 20
0.482460
 30
0.0
  0
SPLINE
  5
101
100
AcDbEntity
  8
0
 62
7
100
AcDbSpline
 70
8
 71
3
 72
8
 73
4
 74
0
 40
0
 40
0
 40
0
 40
0
 40
1
 40
1
 40
1
 40
1
 10
4.274680
 20
0.482460
 30
0.0
 10
2.446721
 20
2.225242
 30
0.0
 10
1.179497
 20
3.358973
 30
0.0
 10
1.059467
 20
3.358973
 30
0.0
  0
SPLINE
  5
102
100
AcDbEntity
  8
0
 62
7
100
AcDbSpline
 70
8
 71
3
 72
8
 73
4
 74
0
 40
0
 40
0
 40
0
 40
0
 40
1
 40
1
 40
1
 40
1
 10
1.059467
 20
3.358973
 30
0.0
 10
0.917971
 20
3.358973
 30
0.0
 10
0.913178
 20
3.392483
 30
0.0
 10
0.913178
 20
4.381765
 30
0.0
  0
SPLINE
  5
103
100
AcDbEntity
  8
0
 62
7
100
AcDbSpline
 70
8
 71
3
 72
8
 73
4
 74
0
 40
0
 40
0
 40
0
 40
0
 40
1
 40
1
 40
1
 40
1
 10
0.913178
 20
11.611854
 30
0.0
 10
0.913178
 20
12.247348
 30
0.0
 10
0.940351
 20
12.669915
 30
0.0
 10
0.981218
 20
12.669915
 30
0.0
  0
SPLINE
  5
104
100
AcDbEntity
  8
0
 62
7
100
AcDbSpline
 70
8
 71
3
 72
8
 73
4
 74
0
 40
0
 40
0
 40
0
 40
0
 40
1
 40
1
 40
1
 40
1
 10
0.981218
 20
12.669915
 30
0.0
 10
1.018639
 20
12.669915
 30
0.0
 10
1.036928
 20
12.709592
 30
0.0
 10
1.021858
 20
12.758087
 30
0.0
  0
SPLINE
  5
105
100
AcDbEntity
  8
0
 62
7
100
AcDbSpline
 70
8
 71
3
 72
8
 73
4
 74
0
 40
0
 40
0
 40
0
 40
0
 40
1
 40
1
 40
1
 40
1
 10
1.021858
 20
12.758087
 30
0.0
 10
1.006788
 20
12.806582
 30
0.0
 10
1.489832
 20
13.284952
 30
0.0
 10
2.095291
 20
13.821132
 30
0.0
  0
SPLINE
  5
106
100
AcDbEntity
  8
0
 62
7
100
AcDbSpline
 70
8
 71
3
 72
8
 73
4
 74
0
 40
0
 40
0
 40
0
 40
0
 40
1
 40
1
 40
1
 40
1
 10
2.095291
 20
13.821132
 30
0.0
 10
2.700749
 20
14.357313
 30
0.0
 10
3.384246
 20
14.967479
 30
0.0
 10
3.614175
 20
15.177055
 30
0.0
  0
SPLINE
  5
107
100
AcDbEntity
  8
0
 62
7
100
AcDbSpline
 70
8
 71
3
 72
8
 73
4
 74
0
 40
0
 40
0
 40
0
 40
0
 40
1
 40
1
 40
1
 40
1
 10
3.614175
 20
15.177055
 30
0.0
 10
3.988886
 20
15.518601
 30
0.0
 10
4.044077
 20
15.547335
 30
0.0
 10
4.146539
 20
15.454221
 30
0.0
  0
SPLINE
  5
108
100
AcDbEntity
  8
0
 62
7
100
AcDbSpline
 70
8
 71
3
 72
8
 73
4
 74
0
 40
0
 40
0
 40
0
 40
0
 40
1
 40
1
 40
1
 40
1
 10
4.146539
 20
15.454221
 30
0.0
 10
4.318392
 20
15.298049
 30
0.0
 10
18.580365
 20
15.297194
 30
0.0
 10
18.752194
 20
15.453347
 30
0.0
  0
SPLINE
  5
109
100
AcDbEntity
  8
0
 62
7
100
AcDbSpline
 70
8
 71
3
 72
8
 73
4
 74
0
 40
0
 40
0
 40
0
 40
0
 40
1
 40
1
 40
1
 40
1
 10
18.752194
 20
15.453347
 30
0.0
 10
18.853829
 20
15.545709
 30
0.0
 10
19.022721
 20
15.416318
 30
0.0
 10
20.386442
 20
14.201308
 30
0.0
  0
SPLINE
  5
10a
100
AcDbEntity
  8
0
 62
7
100
AcDbSpline
 70
8
 71
3
 72
8
 73
4
 74
0
 40
0
 40
0
 40
0
 40
0
 40
1
 40
1
 40
1
 40
1
 10
20.386442
 20
14.201308
 30
0.0
 10
21.222936
 20
13.456031
 30
0.0
 10
21.894538
 20
12.806583
 30
0.0
 10
21.878890
 20
12.758088
 30
0.0
  0
SPLINE
  5
10b
100
AcDbEntity
  8
0
 62
7
100
AcDbSpline
 70
8
 71
3
 72
8
 73
4
 74
0
 40
0
 40
0
 40
0
 40
0
 40
1
 40
1
 40
1
 40
1
 10
21.878890
 20
12.758088
 30
0.0
 10
21.863240
 20
12.709594
 30
0.0
 10
21.881090
 20
12.669916
 30
0.0
 10
21.918480
 20
12.669916
 30
0.0
  0
SPLINE
  5
10c
100
AcDbEntity
  8
0
 62
7
100
AcDbSpline
 70
8
 71
3
 72
8
 73
4
 74
0
 40
0
 40
0
 40
0
 40
0
 40
1
 40
1
 40
1
 40
1
 10
21.918480
 20
12.669916
 30
0.0
 10
21.959350
 20
12.669916
 30
0.0
 10
21.986520
 20
12.247349
 30
0.0
 10
21.986520
 20
11.611855
 30
0.0
  0
LWPOLYLINE
  5
10d
100
AcDbEntity
  8
0
 62
7
100
AcDbPolyline
 90
17
 70
0
 10
0.913178
 20
4.381765
 30
0.0
 10
0.913178
 20
5.404558
 30
0.0
 10
0.456589
 20
5.404558
 30
0.0
 10
0.000000
 20
5.404558
 30
0.0
 10
0.000000
 20
6.427352
 30
0.0
 10
0.000000
 20
7.450145
 30
0.0
 10
0.456589
 20
7.450145
 30
0.0
 10
0.913178
 20
7.450145
 30
0.0
 10
0.913178
 20
7.979175
 30
0.0
 10
0.913178
 20
8.508206
 30
0.0
 10
0.456589
 20
8.508206
 30
0.0
 10
0.000000
 20
8.508206
 30
0.0
 10
0.000000
 20
9.530999
 30
0.0
 10
0.000000
 20
10.553792
 30
0.0
 10
0.456589
 20
10.553792
 30
0.0
 10
0.913178
 20
10.553792
 30
0.0
 10
0.913178
 20
11.611854
 30
0.0
  0
SPLINE
  5
10e
100
AcDbEntity
  8
0
 62
7
100
AcDbSpline
 70
8
 71
3
 72
8
 73
4
 74
0
 40
0
 40
0
 40
0
 40
0
 40
1
 40
1
 40
1
 40
1
 10
22.002199
 20
4.364132
 30
0.0
 10
21.983729
 20
3.411412
 30
0.0
 10
21.975359
 20
3.358974
 30
0.0
 10
21.841763
 20
3.358974
 30
0.0
  0
SPLINE
  5
10f
100
AcDbEntity
  8
0
 62
7
100
AcDbSpline
 70
8
 71
3
 72
8
 73
4
 74
0
 40
0
 40
0
 40
0
 40
0
 40
1
 40
1
 40
1
 40
1
 10
21.841763
 20
3.358974
 30
0.0
 10
21.755863
 20
3.358974
 30
0.0
 10
21.132432
 20
2.827920
 30
0.0
 10
20.245629
 20
1.999359
 30
0.0
  0
SPLINE
  5
110
100
AcDbEntity
  8
0
 62
7
100
AcDbSpline
 70
8
 71
3
 72
8
 73
4
 74
0
 40
0
 40
0
 40
0
 40
0
 40
1
 40
1
 40
1
 40
1
 10
20.245629
 20
1.999359
 30
0.0
 10
19.445277
 20
1.251570
 30
0.0
 10
18.713214
 20
0.568984
 30
0.0
 10
18.618822
 20
0.482499
 30
0.0
  0
SPLINE
  5
111
100
AcDbEntity
  8
0
 62
7
100
AcDbSpline
 70
8
 71
3
 72
8
 73
4
 74
0
 40
0
 40
0
 40
0
 40
0
 40
1
 40
1
 40
1
 40
1
 10
18.618822
 20
0.482499
 30
0.0
 10
18.261506
 20
0.155115
 30
0.0
 10
17.842358
 20
0.008134
 30
0.0
 10
17.280188
 20
0.013085
 30
0.0
  0
SPLINE
  5
112
100
AcDbEntity
  8
0
 62
7
100
AcDbSpline
 70
8
 71
3
 72
8
 73
4
 74
0
 40
0
 40
0
 40
0
 40
0
 40
1
 40
1
 40
1
 40
1
 10
17.280188
 20
0.013085
 30
0.0
 10
16.779763
 20
0.017485
 30
0.0
 10
16.711100
 20
0.039085
 30
0.0
 10
15.910421
 20
0.443850
 30
0.0
  0
SPLINE
  5
113
100
AcDbEntity
  8
0
 62
7
100
AcDbSpline
 70
8
 71
3
 72
8
 73
4
 74
0
 40
0
 40
0
 40
0
 40
0
 40
1
 40
1
 40
1
 40
1
 10
15.910421
 20
0.443850
 30
0.0
 10
14.333940
 20
1.240801
 30
0.0
 10
13.078122
 20
1.553099
 30
0.0
 10
11.449897
 20
1.553099
 30
0.0
  0
SPLINE
  5
114
100
AcDbEntity
  8
0
 62
7
100
AcDbSpline
 70
8
 71
3
 72
8
 73
4
 74
0
 40
0
 40
0
 40
0
 40
0
 40
1
 40
1
 40
1
 40
1
 10
11.449897
 20
1.553099
 30
0.0
 10
9.828441
 20
1.553099
 30
0.0
 10
8.561645
 20
1.239702
 30
0.0
 10
7.010703
 20
0.454873
 30
0.0
  0
SPLINE
  5
115
100
AcDbEntity
  8
0
 62
7
100
AcDbSpline
 70
8
 71
3
 72
8
 73
4
 74
0
 40
0
 40
0
 40
0
 40
0
 40
1
 40
1
 40
1
 40
1
 10
7.010703
 20
0.454873
 30
0.0
 10
6.332239
 20
0.111546
 30
0.0
 10
6.111956
 20
0.033663
 30
0.0
 10
5.746303
 20
0.007829
 30
0.0
  0
SPLINE
  5
116
100
AcDbEntity
  8
0
 62
7
100
AcDbSpline
 70
8
 71
3
 72
8
 73
4
 74
0
 40
0
 40
0
 40
0
 40
0
 40
1
 40
1
 40
1
 40
1
 10
5.746303
 20
0.007829
 30
0.0
 10
5.502765
 20
-0.009381
 30
0.0
 10
5.224480
 20
0.002729
 30
0.0
 10
5.127894
 20
0.034759
 30
0.0
  0
LWPOLYLINE
  5
117
100
AcDbEntity
  8
0
 62
7
100
AcDbPolyline
 90
17
 70
0
 10
21.986520
 20
11.611855
 30
0.0
 10
21.986520
 20
10.553793
 30
0.0
 10
22.443109
 20
10.553793
 30
0.0
 10
22.899698
 20
10.553793
 30
0.0
 10
22.899838
 20
9.513366
 30
0.0
 10
22.899979
 20
8.472938
 30
0.0
 10
22.460822
 20
8.472938
 30
0.0
 10
22.021667
 20
8.472938
 30
0.0
 10
22.001027
 20
7.961542
 30
0.0
 10
21.980387
 20
7.450145
 30
0.0
 10
22.440054
 20
7.450145
 30
0.0
 10
22.899720
 20
7.450145
 30
0.0
 10
22.899861
 20
6.409718
 30
0.0
 10
22.900001
 20
5.369291
 30
0.0
 10
22.460845
 20
5.369291
 30
0.0
 10
22.021689
 20
5.369291
 30
0.0
 10
22.002199
 20
4.364132
 30
0.0
  0
SPLINE
  5
118
100
AcDbEntity
  8
0
 62
7
100
AcDbSpline
 70
8
 71
3
 72
8
 73
4
 74
0
 40
0
 40
0
 40
0
 40
0
 40
1
 40
1
 40
1
 40
1
 10
6.981956
 20
0.531637
 30
0.0
 10
8.596800
 20
1.339660
 30
0.0
 10
9.802818
 20
1.629641
 30
0.0
 10
11.520094
 20
1.622809
 30
0.0
  0
SPLINE
  5
119
100
AcDbEntity
  8
0
 62
7
100
AcDbSpline
 70
8
 71
3
 72
8
 73
4
 74
0
 40
0
 40
0
 40
0
 40
0
 40
1
 40
1
 40
1
 40
1
 10
11.520094
 20
1.622809
 30
0.0
 10
13.204004
 20
1.616109
 30
0.0
 10
14.499067
 20
1.282683
 30
0.0
 10
16.105533
 20
0.442245
 30
0.0
  0
SPLINE
  5
11a
100
AcDbEntity
  8
0
 62
7
100
AcDbSpline
 70
8
 71
3
 72
8
 73
4
 74
0
 40
0
 40
0
 40
0
 40
0
 40
1
 40
1
 40
1
 40
1
 10
16.105533
 20
0.442245
 30
0.0
 10
16.747061
 20
0.106622
 30
0.0
 10
16.826018
 20
0.082901
 30
0.0
 10
17.301620
 20
0.082901
 30
0.0
  0
SPLINE
  5
11b
100
AcDbEntity
  8
0
 62
7
100
AcDbSpline
 70
8
 71
3
 72
8
 73
4
 74
0
 40
0
 40
0
 40
0
 40
0
 40
1
 40
1
 40
1
 40
1
 10
17.301620
 20
0.082901
 30
0.0
 10
17.738207
 20
0.082901
 30
0.0
 10
17.862551
 20
0.112801
 30
0.0
 10
18.173401
 20
0.292554
 30
0.0
  0
SPLINE
  5
11c
100
AcDbEntity
  8
0
 62
7
100
AcDbSpline
 70
8
 71
3
 72
8
 73
4
 74
0
 40
0
 40
0
 40
0
 40
0
 40
1
 40
1
 40
1
 40
1
 10
18.173401
 20
0.292554
 30
0.0
 10
18.470820
 20
0.464536
 30
0.0
 10
20.316318
 20
2.120145
 30
0.0
 10
21.442124
 20
3.224948
 30
0.0
  0
LWPOLYLINE
  5
11d
100
AcDbEntity
  8
0
 62
7
100
AcDbPolyline
 90
1
 70
1
 10
5.127894
 20
0.034759
 30
0.0
  0
SPLINE
  5
11e
100
AcDbEntity
  8
0
 62
7
100
AcDbSpline
 70
8
 71
3
 72
8
 73
4
 74
0
 40
0
 40
0
 40
0
 40
0
 40
1
 40
1
 40
1
 40
1
 10
21.547491
 20
12.692379
 30
0.0
 10
21.460563
 20
12.786653
 30
0.0
 10
20.783395
 20
13.407389
 30
0.0
 10
20.042673
 20
14.071793
 30
0.0
  0
LWPOLYLINE
  5
11f
100
AcDbEntity
  8
0
 62
7
100
AcDbPolyline
 90
5
 70
0
 10
21.442124
 20
3.224948
 30
0.0
 10
21.705541
 20
3.483451
 30
0.0
 10
21.705541
 20
8.002212
 30
0.0
 10
21.705541
 20
12.520973
 30
0.0
 10
21.547491
 20
12.692379
 30
0.0
  0
SPLINE
  5
120
100
AcDbEntity
  8
0
 62
7
100
AcDbSpline
 70
8
 71
3
 72
8
 73
4
 74
0
 40
0
 40
0
 40
0
 40
0
 40
1
 40
1
 40
1
 40
1
 10
2.827938
 20
14.034860
 30
0.0
 10
2.064579
 20
13.350142
 30
0.0
 10
1.400499
 20
12.740980
 30
0.0
 10
1.352206
 20
12.681167
 30
0.0
  0
SPLINE
  5
121
100
AcDbEntity
  8
0
 62
7
100
AcDbSpline
 70
8
 71
3
 72
8
 73
4
 74
0
 40
0
 40
0
 40
0
 40
0
 40
1
 40
1
 40
1
 40
1
 10
1.352206
 20
12.681167
 30
0.0
 10
1.283942
 20
12.596619
 30
0.0
 10
1.264673
 20
11.551068
 30
0.0
 10
1.265623
 20
7.983328
 30
0.0
  0
LWPOLYLINE
  5
122
100
AcDbEntity
  8
0
 62
7
100
AcDbPolyline
 90
5
 70
0
 10
20.042673
 20
14.071793
 30
0.0
 10
18.695904
 20
15.279801
 30
0.0
 10
11.455885
 20
15.279801
 30
0.0
 10
4.215865
 20
15.279801
 30
0.0
 10
2.827938
 20
14.034860
 30
0.0
  0
SPLINE
  5
123
100
AcDbEntity
  8
0
 62
7
100
AcDbSpline
 70
8
 71
3
 72
8
 73
4
 74
0
 40
0
 40
0
 40
0
 40
0
 40
1
 40
1
 40
1
 40
1
 10
2.820689
 20
1.948224
 30
0.0
 10
4.581475
 20
0.309628
 30
0.0
 10
4.547417
 20
0.337192
 30
0.0
 10
5.022477
 20
0.166269
 30
0.0
  0
SPLINE
  5
124
100
AcDbEntity
  8
0
 62
7
100
AcDbSpline
 70
8
 71
3
 72
8
 73
4
 74
0
 40
0
 40
0
 40
0
 40
0
 40
1
 40
1
 40
1
 40
1
 10
5.022477
 20
0.166269
 30
0.0
 10
5.592167
 20
-0.038701
 30
0.0
 10
5.990601
 20
0.035592
 30
0.0
 10
6.981954
 20
0.531637
 30
0.0
  0
LWPOLYLINE
  5
125
100
AcDbEntity
  8
0
 62
7
100
AcDbPolyline
 90
3
 70
0
 10
1.265623
 20
7.983328
 30
0.0
 10
1.266843
 20
3.394241
 30
0.0
 10
2.820689
 20
1.948224
 30
0.0
  0
LWPOLYLINE
  5
126
100
AcDbEntity
  8
0
 62
7
100
AcDbPolyline
 90
1
 70
1
 10
6.981954
 20
0.531637
 30
0.0
  0
SPLINE
  5
127
100
AcDbEntity
  8
0
 62
7
100
AcDbSpline
 70
8
 71
3
 72
8
 73
4
 74
0
 40
0
 40
0
 40
0
 40
0
 40
1
 40
1
 40
1
 40
1
 10
3.843838
 20
8.156841
 30
0.0
 10
3.101742
 20
8.839672
 30
0.0
 10
2.770749
 20
9.650370
 30
0.0
 10
2.823330
 20
10.656356
 30
0.0
  0
SPLINE
  5
128
100
AcDbEntity
  8
0
 62
7
100
AcDbSpline
 70
8
 71
3
 72
8
 73
4
 74
0
 40
0
 40
0
 40
0
 40
0
 40
1
 40
1
 40
1
 40
1
 10
2.823330
 20
10.656356
 30
0.0
 10
2.890746
 20
11.946158
 30
0.0
 10
3.721160
 20
13.015600
 30
0.0
 10
4.991148
 20
13.448161
 30
0.0
  0
SPLINE
  5
129
100
AcDbEntity
  8
0
 62
7
100
AcDbSpline
 70
8
 71
3
 72
8
 73
4
 74
0
 40
0
 40
0
 40
0
 40
0
 40
1
 40
1
 40
1
 40
1
 10
4.991148
 20
13.448161
 30
0.0
 10
5.369226
 20
13.576936
 30
0.0
 10
5.551503
 20
13.596893
 30
0.0
 10
6.095731
 20
13.569098
 30
0.0
  0
SPLINE
  5
12a
100
AcDbEntity
  8
0
 62
7
100
AcDbSpline
 70
8
 71
3
 72
8
 73
4
 74
0
 40
0
 40
0
 40
0
 40
0
 40
1
 40
1
 40
1
 40
1
 10
6.095731
 20
13.569098
 30
0.0
 10
6.669047
 20
13.539818
 30
0.0
 10
6.810672
 20
13.504467
 30
0.0
 10
7.272107
 20
13.275462
 30
0.0
  0
SPLINE
  5
12b
100
AcDbEntity
  8
0
 62
7
100
AcDbSpline
 70
8
 71
3
 72
8
 73
4
 74
0
 40
0
 40
0
 40
0
 40
0
 40
1
 40
1
 40
1
 40
1
 10
7.272107
 20
13.275462
 30
0.0
 10
9.265677
 20
12.286077
 30
0.0
 10
9.649860
 20
9.747142
 30
0.0
 10
8.042032
 20
8.187288
 30
0.0
  0
LWPOLYLINE
  5
12c
100
AcDbEntity
  8
0
 62
7
100
AcDbPolyline
 90
3
 70
0
 10
4.284913
 20
5.519712
 30
0.0
 10
4.284913
 20
7.750989
 30
0.0
 10
3.843838
 20
8.156841
 30
0.0
  0
LWPOLYLINE
  5
12d
100
AcDbEntity
  8
0
 62
7
100
AcDbPolyline
 90
7
 70
0
 10
8.042032
 20
8.187288
 30
0.0
 10
7.586403
 20
7.745254
 30
0.0
 10
7.586403
 20
5.516845
 30
0.0
 10
7.586403
 20
3.288435
 30
0.0
 10
5.935658
 20
3.288435
 30
0.0
 10
4.284913
 20
3.288435
 30
0.0
 10
4.284913
 20
5.519712
 30
0.0
  0
SPLINE
  5
12e
100
AcDbEntity
  8
0
 62
7
100
AcDbSpline
 70
8
 71
3
 72
8
 73
4
 74
0
 40
0
 40
0
 40
0
 40
0
 40
1
 40
1
 40
1
 40
1
 10
4.297296
 20
9.372290
 30
0.0
 10
4.316375
 20
10.570788
 30
0.0
 10
4.339837
 20
10.837039
 30
0.0
 10
4.443074
 20
11.026633
 30
0.0
  0
SPLINE
  5
12f
100
AcDbEntity
  8
0
 62
7
100
AcDbSpline
 70
8
 71
3
 72
8
 73
4
 74
0
 40
0
 40
0
 40
0
 40
0
 40
1
 40
1
 40
1
 40
1
 10
4.443074
 20
11.026633
 30
0.0
 10
5.106043
 20
12.244167
 30
0.0
 10
6.750849
 20
12.236179
 30
0.0
 10
7.397009
 20
11.012286
 30
0.0
  0
SPLINE
  5
130
100
AcDbEntity
  8
0
 62
7
100
AcDbSpline
 70
8
 71
3
 72
8
 73
4
 74
0
 40
0
 40
0
 40
0
 40
0
 40
1
 40
1
 40
1
 40
1
 10
7.397009
 20
11.012286
 30
0.0
 10
7.530931
 20
10.758625
 30
0.0
 10
7.548753
 20
10.589472
 30
0.0
 10
7.573516
 20
9.337021
 30
0.0
  0
SPLINE
  5
131
100
AcDbEntity
  8
0
 62
7
100
AcDbSpline
 70
8
 71
3
 72
8
 73
4
 74
0
 40
0
 40
0
 40
0
 40
0
 40
1
 40
1
 40
1
 40
1
 10
7.573516
 20
9.337021
 30
0.0
 10
7.588668
 20
8.570809
 30
0.0
 10
7.624561
 20
7.943907
 30
0.0
 10
7.653284
 20
7.943907
 30
0.0
  0
SPLINE
  5
132
100
AcDbEntity
  8
0
 62
7
100
AcDbSpline
 70
8
 71
3
 72
8
 73
4
 74
0
 40
0
 40
0
 40
0
 40
0
 40
1
 40
1
 40
1
 40
1
 10
7.653284
 20
7.943907
 30
0.0
 10
7.682006
 20
7.943907
 30
0.0
 10
7.885471
 20
8.133367
 30
0.0
 10
8.105426
 20
8.364929
 30
0.0
  0
SPLINE
  5
133
100
AcDbEntity
  8
0
 62
7
100
AcDbSpline
 70
8
 71
3
 72
8
 73
4
 74
0
 40
0
 40
0
 40
0
 40
0
 40
1
 40
1
 40
1
 40
1
 10
8.105426
 20
8.364929
 30
0.0
 10
9.021825
 20
9.329684
 30
0.0
 10
9.225521
 20
10.658857
 30
0.0
 10
8.636529
 20
11.830510
 30
0.0
  0
SPLINE
  5
134
100
AcDbEntity
  8
0
 62
7
100
AcDbSpline
 70
8
 71
3
 72
8
 73
4
 74
0
 40
0
 40
0
 40
0
 40
0
 40
1
 40
1
 40
1
 40
1
 10
8.636529
 20
11.830510
 30
0.0
 10
7.681084
 20
13.731131
 30
0.0
 10
5.155610
 20
14.097258
 30
0.0
 10
3.709497
 20
12.544798
 30
0.0
  0
SPLINE
  5
135
100
AcDbEntity
  8
0
 62
7
100
AcDbSpline
 70
8
 71
3
 72
8
 73
4
 74
0
 40
0
 40
0
 40
0
 40
0
 40
1
 40
1
 40
1
 40
1
 10
3.709497
 20
12.544798
 30
0.0
 10
2.581159
 20
11.333482
 30
0.0
 10
2.610645
 20
9.491156
 30
0.0
 10
3.777168
 20
8.316728
 30
0.0
  0
SPLINE
  5
136
100
AcDbEntity
  8
0
 62
7
100
AcDbSpline
 70
8
 71
3
 72
8
 73
4
 74
0
 40
0
 40
0
 40
0
 40
0
 40
1
 40
1
 40
1
 40
1
 10
3.777168
 20
8.316728
 30
0.0
 10
3.980839
 20
8.111676
 30
0.0
 10
4.176072
 20
7.943907
 30
0.0
 10
4.211018
 20
7.943907
 30
0.0
  0
SPLINE
  5
137
100
AcDbEntity
  8
0
 62
7
100
AcDbSpline
 70
8
 71
3
 72
8
 73
4
 74
0
 40
0
 40
0
 40
0
 40
0
 40
1
 40
1
 40
1
 40
1
 10
4.211018
 20
7.943907
 30
0.0
 10
4.246068
 20
7.943907
 30
0.0
 10
4.284754
 20
8.584370
 30
0.0
 10
4.297296
 20
9.372290
 30
0.0
  0
LWPOLYLINE
  5
138
100
AcDbEntity
  8
0
 62
7
100
AcDbPolyline
 90
8
 70
1
 10
7.445914
 20
6.251008
 30
0.0
 10
7.445914
 20
9.072506
 30
0.0
 10
5.900536
 20
9.072506
 30
0.0
 10
4.355157
 20
9.072506
 30
0.0
 10
4.355157
 20
6.251008
 30
0.0
 10
4.355157
 20
3.429510
 30
0.0
 10
5.900536
 20
3.429510
 30
0.0
 10
7.445914
 20
3.429510
 30
0.0
  0
SPLINE
  5
139
100
AcDbEntity
  8
0
 62
7
100
AcDbSpline
 70
8
 71
3
 72
8
 73
4
 74
0
 40
0
 40
0
 40
0
 40
0
 40
1
 40
1
 40
1
 40
1
 10
7.434082
 20
10.012620
 30
0.0
 10
7.412415
 20
10.821573
 30
0.0
 10
7.397434
 20
10.902440
 30
0.0
 10
7.219192
 20
11.172588
 30
0.0
  0
SPLINE
  5
13a
100
AcDbEntity
  8
0
 62
7
100
AcDbSpline
 70
8
 71
3
 72
8
 73
4
 74
0
 40
0
 40
0
 40
0
 40
0
 40
1
 40
1
 40
1
 40
1
 10
7.219192
 20
11.172588
 30
0.0
 10
6.650258
 20
12.034878
 30
0.0
 10
5.380591
 20
12.093480
 30
0.0
 10
4.719378
 20
11.287969
 30
0.0
  0
SPLINE
  5
13b
100
AcDbEntity
  8
0
 62
7
100
AcDbSpline
 70
8
 71
3
 72
8
 73
4
 74
0
 40
0
 40
0
 40
0
 40
0
 40
1
 40
1
 40
1
 40
1
 10
4.719378
 20
11.287969
 30
0.0
 10
4.447558
 20
10.956829
 30
0.0
 10
4.355157
 20
10.574750
 30
0.0
 10
4.355157
 20
9.781914
 30
0.0
  0
LWPOLYLINE
  5
13c
100
AcDbEntity
  8
0
 62
7
100
AcDbPolyline
 90
1
 70
1
 10
4.297296
 20
9.372290
 30
0.0
  0
LWPOLYLINE
  5
13d
100
AcDbEntity
  8
0
 62
7
100
AcDbPolyline
 90
5
 70
0
 10
4.355157
 20
9.781914
 30
0.0
 10
4.355157
 20
9.143043
 30
0.0
 10
5.906265
 20
9.143043
 30
0.0
 10
7.457372
 20
9.143043
 30
0.0
 10
7.434082
 20
10.012620
 30
0.0
  0
SPLINE
  5
13e
100
AcDbEntity
  8
0
 62
7
100
AcDbSpline
 70
8
 71
3
 72
8
 73
4
 74
0
 40
0
 40
0
 40
0
 40
0
 40
1
 40
1
 40
1
 40
1
 10
14.896558
 20
8.150968
 30
0.0
 10
13.831578
 20
9.176758
 30
0.0
 10
13.567598
 20
10.579741
 30
0.0
 10
14.197728
 20
11.865055
 30
0.0
  0
SPLINE
  5
13f
100
AcDbEntity
  8
0
 62
7
100
AcDbSpline
 70
8
 71
3
 72
8
 73
4
 74
0
 40
0
 40
0
 40
0
 40
0
 40
1
 40
1
 40
1
 40
1
 10
14.197728
 20
11.865055
 30
0.0
 10
14.588008
 20
12.661132
 30
0.0
 10
15.411080
 20
13.312043
 30
0.0
 10
16.285941
 20
13.516479
 30
0.0
  0
SPLINE
  5
140
100
AcDbEntity
  8
0
 62
7
100
AcDbSpline
 70
8
 71
3
 72
8
 73
4
 74
0
 40
0
 40
0
 40
0
 40
0
 40
1
 40
1
 40
1
 40
1
 10
16.285941
 20
13.516479
 30
0.0
 10
16.787421
 20
13.633663
 30
0.0
 10
17.639779
 20
13.572739
 30
0.0
 10
18.123078
 20
13.385164
 30
0.0
  0
SPLINE
  5
141
100
AcDbEntity
  8
0
 62
7
100
AcDbSpline
 70
8
 71
3
 72
8
 73
4
 74
0
 40
0
 40
0
 40
0
 40
0
 40
1
 40
1
 40
1
 40
1
 10
18.123078
 20
13.385164
 30
0.0
 10
18.896192
 20
13.085110
 30
0.0
 10
19.594946
 20
12.382429
 30
0.0
 10
19.886477
 20
11.611854
 30
0.0
  0
SPLINE
  5
142
100
AcDbEntity
  8
0
 62
7
100
AcDbSpline
 70
8
 71
3
 72
8
 73
4
 74
0
 40
0
 40
0
 40
0
 40
0
 40
1
 40
1
 40
1
 40
1
 10
19.886477
 20
11.611854
 30
0.0
 10
20.074266
 20
11.115488
 30
0.0
 10
20.135945
 20
10.268055
 30
0.0
 10
20.020524
 20
9.770115
 30
0.0
  0
SPLINE
  5
143
100
AcDbEntity
  8
0
 62
7
100
AcDbSpline
 70
8
 71
3
 72
8
 73
4
 74
0
 40
0
 40
0
 40
0
 40
0
 40
1
 40
1
 40
1
 40
1
 10
20.020524
 20
9.770115
 30
0.0
 10
19.882192
 20
9.173338
 30
0.0
 10
19.551143
 20
8.616689
 30
0.0
 10
19.060421
 20
8.155728
 30
0.0
  0
LWPOLYLINE
  5
144
100
AcDbEntity
  8
0
 62
7
100
AcDbPolyline
 90
3
 70
0
 10
15.368883
 20
5.482323
 30
0.0
 10
15.389353
 20
7.676306
 30
0.0
 10
14.896558
 20
8.150968
 30
0.0
  0
LWPOLYLINE
  5
145
100
AcDbEntity
  8
0
 62
7
100
AcDbPolyline
 90
7
 70
0
 10
19.060421
 20
8.155728
 30
0.0
 10
18.614789
 20
7.737123
 30
0.0
 10
18.614789
 20
5.512779
 30
0.0
 10
18.614789
 20
3.288435
 30
0.0
 10
16.981605
 20
3.288388
 30
0.0
 10
15.348422
 20
3.288341
 30
0.0
 10
15.368883
 20
5.482323
 30
0.0
  0
SPLINE
  5
146
100
AcDbEntity
  8
0
 62
7
100
AcDbSpline
 70
8
 71
3
 72
8
 73
4
 74
0
 40
0
 40
0
 40
0
 40
0
 40
1
 40
1
 40
1
 40
1
 10
15.375675
 20
9.307901
 30
0.0
 10
15.372775
 20
10.416574
 30
0.0
 10
15.393585
 20
10.723559
 30
0.0
 10
15.486910
 20
10.947897
 30
0.0
  0
SPLINE
  5
147
100
AcDbEntity
  8
0
 62
7
100
AcDbSpline
 70
8
 71
3
 72
8
 73
4
 74
0
 40
0
 40
0
 40
0
 40
0
 40
1
 40
1
 40
1
 40
1
 10
15.486910
 20
10.947897
 30
0.0
 10
15.789436
 20
11.675131
 30
0.0
 10
16.582748
 20
12.078924
 30
0.0
 10
17.347189
 20
11.894773
 30
0.0
  0
SPLINE
  5
148
100
AcDbEntity
  8
0
 62
7
100
AcDbSpline
 70
8
 71
3
 72
8
 73
4
 74
0
 40
0
 40
0
 40
0
 40
0
 40
1
 40
1
 40
1
 40
1
 10
17.347189
 20
11.894773
 30
0.0
 10
17.839556
 20
11.776164
 30
0.0
 10
18.209304
 20
11.484254
 30
0.0
 10
18.429684
 20
11.040165
 30
0.0
  0
SPLINE
  5
149
100
AcDbEntity
  8
0
 62
7
100
AcDbSpline
 70
8
 71
3
 72
8
 73
4
 74
0
 40
0
 40
0
 40
0
 40
0
 40
1
 40
1
 40
1
 40
1
 10
18.429684
 20
11.040165
 30
0.0
 10
18.610434
 20
10.675934
 30
0.0
 10
18.614785
 20
10.635165
 30
0.0
 10
18.614785
 20
9.305537
 30
0.0
  0
SPLINE
  5
14a
100
AcDbEntity
  8
0
 62
7
100
AcDbSpline
 70
8
 71
3
 72
8
 73
4
 74
0
 40
0
 40
0
 40
0
 40
0
 40
1
 40
1
 40
1
 40
1
 10
18.614785
 20
9.305537
 30
0.0
 10
18.614785
 20
8.556641
 30
0.0
 10
18.633615
 20
7.943907
 30
0.0
 10
18.656625
 20
7.943907
 30
0.0
  0
SPLINE
  5
14b
100
AcDbEntity
  8
0
 62
7
100
AcDbSpline
 70
8
 71
3
 72
8
 73
4
 74
0
 40
0
 40
0
 40
0
 40
0
 40
1
 40
1
 40
1
 40
1
 10
18.656625
 20
7.943907
 30
0.0
 10
18.780681
 20
7.943907
 30
0.0
 10
19.159529
 20
8.298000
 30
0.0
 10
19.429551
 20
8.666330
 30
0.0
  0
SPLINE
  5
14c
100
AcDbEntity
  8
0
 62
7
100
AcDbSpline
 70
8
 71
3
 72
8
 73
4
 74
0
 40
0
 40
0
 40
0
 40
0
 40
1
 40
1
 40
1
 40
1
 10
19.429551
 20
8.666330
 30
0.0
 10
20.833229
 20
10.581044
 30
0.0
 10
19.567089
 20
13.335606
 30
0.0
 10
17.208697
 20
13.497927
 30
0.0
  0
SPLINE
  5
14d
100
AcDbEntity
  8
0
 62
7
100
AcDbSpline
 70
8
 71
3
 72
8
 73
4
 74
0
 40
0
 40
0
 40
0
 40
0
 40
1
 40
1
 40
1
 40
1
 10
17.208697
 20
13.497927
 30
0.0
 10
14.442575
 20
13.688313
 30
0.0
 10
12.888814
 20
10.460517
 30
0.0
 10
14.759668
 20
8.410294
 30
0.0
  0
SPLINE
  5
14e
100
AcDbEntity
  8
0
 62
7
100
AcDbSpline
 70
8
 71
3
 72
8
 73
4
 74
0
 40
0
 40
0
 40
0
 40
0
 40
1
 40
1
 40
1
 40
1
 10
14.759668
 20
8.410294
 30
0.0
 10
14.993739
 20
8.153781
 30
0.0
 10
15.228903
 20
7.943907
 30
0.0
 10
15.282254
 20
7.943907
 30
0.0
  0
SPLINE
  5
14f
100
AcDbEntity
  8
0
 62
7
100
AcDbSpline
 70
8
 71
3
 72
8
 73
4
 74
0
 40
0
 40
0
 40
0
 40
0
 40
1
 40
1
 40
1
 40
1
 10
15.282254
 20
7.943907
 30
0.0
 10
15.361534
 20
7.943907
 30
0.0
 10
15.378604
 20
8.193029
 30
0.0
 10
15.375674
 20
9.307901
 30
0.0
  0
LWPOLYLINE
  5
150
100
AcDbEntity
  8
0
 62
7
100
AcDbPolyline
 90
8
 70
1
 10
18.544540
 20
6.251008
 30
0.0
 10
18.544540
 20
9.072506
 30
0.0
 10
16.999162
 20
9.072506
 30
0.0
 10
15.453784
 20
9.072506
 30
0.0
 10
15.453784
 20
6.251008
 30
0.0
 10
15.453784
 20
3.429510
 30
0.0
 10
16.999162
 20
3.429510
 30
0.0
 10
18.544540
 20
3.429510
 30
0.0
  0
SPLINE
  5
151
100
AcDbEntity
  8
0
 62
7
100
AcDbSpline
 70
8
 71
3
 72
8
 73
4
 74
0
 40
0
 40
0
 40
0
 40
0
 40
1
 40
1
 40
1
 40
1
 10
18.542998
 20
9.866052
 30
0.0
 10
18.540855
 20
10.868401
 30
0.0
 10
18.308043
 20
11.369313
 30
0.0
 10
17.698340
 20
11.683367
 30
0.0
  0
SPLINE
  5
152
100
AcDbEntity
  8
0
 62
7
100
AcDbSpline
 70
8
 71
3
 72
8
 73
4
 74
0
 40
0
 40
0
 40
0
 40
0
 40
1
 40
1
 40
1
 40
1
 10
17.698340
 20
11.683367
 30
0.0
 10
17.299941
 20
11.888578
 30
0.0
 10
16.982041
 20
11.919878
 30
0.0
 10
16.566057
 20
11.794849
 30
0.0
  0
SPLINE
  5
153
100
AcDbEntity
  8
0
 62
7
100
AcDbSpline
 70
8
 71
3
 72
8
 73
4
 74
0
 40
0
 40
0
 40
0
 40
0
 40
1
 40
1
 40
1
 40
1
 10
16.566057
 20
11.794849
 30
0.0
 10
16.123480
 20
11.661826
 30
0.0
 10
15.801384
 20
11.401304
 30
0.0
 10
15.599823
 20
11.013330
 30
0.0
  0
SPLINE
  5
154
100
AcDbEntity
  8
0
 62
7
100
AcDbSpline
 70
8
 71
3
 72
8
 73
4
 74
0
 40
0
 40
0
 40
0
 40
0
 40
1
 40
1
 40
1
 40
1
 10
15.599823
 20
11.013330
 30
0.0
 10
15.477143
 20
10.777189
 30
0.0
 10
15.453784
 20
10.605127
 30
0.0
 10
15.453784
 20
9.937634
 30
0.0
  0
LWPOLYLINE
  5
155
100
AcDbEntity
  8
0
 62
7
100
AcDbPolyline
 90
1
 70
1
 10
15.375674
 20
9.307901
 30
0.0
  0
SPLINE
  5
156
100
AcDbEntity
  8
0
 62
7
100
AcDbSpline
 70
8
 71
3
 72
8
 73
4
 74
0
 40
0
 40
0
 40
0
 40
0
 40
1
 40
1
 40
1
 40
1
 10
16.913933
 20
9.989492
 30
0.0
 10
16.943433
 20
10.191306
 30
0.0
 10
16.933113
 20
10.201105
 30
0.0
 10
16.691034
 20
10.201105
 30
0.0
  0
SPLINE
  5
157
100
AcDbEntity
  8
0
 62
7
100
AcDbSpline
 70
8
 71
3
 72
8
 73
4
 74
0
 40
0
 40
0
 40
0
 40
0
 40
1
 40
1
 40
1
 40
1
 10
16.691034
 20
10.201105
 30
0.0
 10
16.512239
 20
10.201105
 30
0.0
 10
16.437206
 20
10.232382
 30
0.0
 10
16.437206
 20
10.306911
 30
0.0
  0
SPLINE
  5
158
100
AcDbEntity
  8
0
 62
7
100
AcDbSpline
 70
8
 71
3
 72
8
 73
4
 74
0
 40
0
 40
0
 40
0
 40
0
 40
1
 40
1
 40
1
 40
1
 10
16.437206
 20
10.306911
 30
0.0
 10
16.437206
 20
10.381440
 30
0.0
 10
16.512236
 20
10.412717
 30
0.0
 10
16.691034
 20
10.412717
 30
0.0
  0
SPLINE
  5
159
100
AcDbEntity
  8
0
 62
7
100
AcDbSpline
 70
8
 71
3
 72
8
 73
4
 74
0
 40
0
 40
0
 40
0
 40
0
 40
1
 40
1
 40
1
 40
1
 10
16.691034
 20
10.412717
 30
0.0
 10
16.933110
 20
10.412717
 30
0.0
 10
16.943430
 20
10.422517
 30
0.0
 10
16.913933
 20
10.624329
 30
0.0
  0
SPLINE
  5
15a
100
AcDbEntity
  8
0
 62
7
100
AcDbSpline
 70
8
 71
3
 72
8
 73
4
 74
0
 40
0
 40
0
 40
0
 40
0
 40
1
 40
1
 40
1
 40
1
 10
16.913933
 20
10.624329
 30
0.0
 10
16.892823
 20
10.768733
 30
0.0
 10
16.912633
 20
10.835942
 30
0.0
 10
16.976203
 20
10.835942
 30
0.0
  0
SPLINE
  5
15b
100
AcDbEntity
  8
0
 62
7
100
AcDbSpline
 70
8
 71
3
 72
8
 73
4
 74
0
 40
0
 40
0
 40
0
 40
0
 40
1
 40
1
 40
1
 40
1
 10
16.976203
 20
10.835942
 30
0.0
 10
17.032933
 20
10.835942
 30
0.0
 10
17.069403
 20
10.753128
 30
0.0
 10
17.069403
 20
10.624329
 30
0.0
  0
SPLINE
  5
15c
100
AcDbEntity
  8
0
 62
7
100
AcDbSpline
 70
8
 71
3
 72
8
 73
4
 74
0
 40
0
 40
0
 40
0
 40
0
 40
1
 40
1
 40
1
 40
1
 10
17.069403
 20
10.624329
 30
0.0
 10
17.069403
 20
10.436229
 30
0.0
 10
17.092813
 20
10.412717
 30
0.0
 10
17.280137
 20
10.412717
 30
0.0
  0
SPLINE
  5
15d
100
AcDbEntity
  8
0
 62
7
100
AcDbSpline
 70
8
 71
3
 72
8
 73
4
 74
0
 40
0
 40
0
 40
0
 40
0
 40
1
 40
1
 40
1
 40
1
 10
17.280137
 20
10.412717
 30
0.0
 10
17.420626
 20
10.412717
 30
0.0
 10
17.490870
 20
10.377448
 30
0.0
 10
17.490870
 20
10.306911
 30
0.0
  0
SPLINE
  5
15e
100
AcDbEntity
  8
0
 62
7
100
AcDbSpline
 70
8
 71
3
 72
8
 73
4
 74
0
 40
0
 40
0
 40
0
 40
0
 40
1
 40
1
 40
1
 40
1
 10
17.490870
 20
10.306911
 30
0.0
 10
17.490870
 20
10.236374
 30
0.0
 10
17.420630
 20
10.201105
 30
0.0
 10
17.280137
 20
10.201105
 30
0.0
  0
SPLINE
  5
15f
100
AcDbEntity
  8
0
 62
7
100
AcDbSpline
 70
8
 71
3
 72
8
 73
4
 74
0
 40
0
 40
0
 40
0
 40
0
 40
1
 40
1
 40
1
 40
1
 10
17.280137
 20
10.201105
 30
0.0
 10
17.092818
 20
10.201105
 30
0.0
 10
17.069403
 20
10.177594
 30
0.0
 10
17.069403
 20
9.989492
 30
0.0
  0
SPLINE
  5
160
100
AcDbEntity
  8
0
 62
7
100
AcDbSpline
 70
8
 71
3
 72
8
 73
4
 74
0
 40
0
 40
0
 40
0
 40
0
 40
1
 40
1
 40
1
 40
1
 10
17.069403
 20
9.989492
 30
0.0
 10
17.069403
 20
9.860694
 30
0.0
 10
17.032933
 20
9.777880
 30
0.0
 10
16.976203
 20
9.777880
 30
0.0
  0
SPLINE
  5
161
100
AcDbEntity
  8
0
 62
7
100
AcDbSpline
 70
8
 71
3
 72
8
 73
4
 74
0
 40
0
 40
0
 40
0
 40
0
 40
1
 40
1
 40
1
 40
1
 10
16.976203
 20
9.777880
 30
0.0
 10
16.912603
 20
9.777880
 30
0.0
 10
16.892823
 20
9.845089
 30
0.0
 10
16.913933
 20
9.989492
 30
0.0
  0
LWPOLYLINE
  5
162
100
AcDbEntity
  8
0
 62
7
100
AcDbPolyline
 90
6
 70
0
 10
15.453784
 20
9.937634
 30
0.0
 10
15.453784
 20
9.143043
 30
0.0
 10
16.999162
 20
9.143043
 30
0.0
 10
18.544540
 20
9.143043
 30
0.0
 10
18.543040
 20
9.866052
 30
0.0
 10
18.542998
 20
9.866052
 30
0.0
  0
SPLINE
  5
163
100
AcDbEntity
  8
0
 62
7
100
AcDbSpline
 70
8
 71
3
 72
8
 73
4
 74
0
 40
0
 40
0
 40
0
 40
0
 40
1
 40
1
 40
1
 40
1
 10
1.123912
 20
8.014444
 30
0.0
 10
1.123912
 20
11.024042
 30
0.0
 10
1.099777
 20
12.599378
 30
0.0
 10
1.053667
 20
12.599378
 30
0.0
  0
SPLINE
  5
164
100
AcDbEntity
  8
0
 62
7
100
AcDbSpline
 70
8
 71
3
 72
8
 73
4
 74
0
 40
0
 40
0
 40
0
 40
0
 40
1
 40
1
 40
1
 40
1
 10
1.053667
 20
12.599378
 30
0.0
 10
1.007558
 20
12.599378
 30
0.0
 10
0.983423
 20
11.024042
 30
0.0
 10
0.983423
 20
8.014444
 30
0.0
  0
SPLINE
  5
165
100
AcDbEntity
  8
0
 62
7
100
AcDbSpline
 70
8
 71
3
 72
8
 73
4
 74
0
 40
0
 40
0
 40
0
 40
0
 40
1
 40
1
 40
1
 40
1
 10
0.983423
 20
8.014444
 30
0.0
 10
0.983423
 20
5.004846
 30
0.0
 10
1.007558
 20
3.429510
 30
0.0
 10
1.053667
 20
3.429510
 30
0.0
  0
SPLINE
  5
166
100
AcDbEntity
  8
0
 62
7
100
AcDbSpline
 70
8
 71
3
 72
8
 73
4
 74
0
 40
0
 40
0
 40
0
 40
0
 40
1
 40
1
 40
1
 40
1
 10
1.053667
 20
3.429510
 30
0.0
 10
1.099776
 20
3.429510
 30
0.0
 10
1.123912
 20
5.004846
 30
0.0
 10
1.123912
 20
8.014444
 30
0.0
  0
LWPOLYLINE
  5
167
100
AcDbEntity
  8
0
 62
7
100
AcDbPolyline
 90
1
 70
1
 10
16.913933
 20
9.989492
 30
0.0
  0
SPLINE
  5
168
100
AcDbEntity
  8
0
 62
7
100
AcDbSpline
 70
8
 71
3
 72
8
 73
4
 74
0
 40
0
 40
0
 40
0
 40
0
 40
1
 40
1
 40
1
 40
1
 10
21.916275
 20
8.018604
 30
0.0
 10
21.916275
 20
11.060040
 30
0.0
 10
21.892585
 20
12.592998
 30
0.0
 10
21.846035
 20
12.564106
 30
0.0
  0
SPLINE
  5
169
100
AcDbEntity
  8
0
 62
7
100
AcDbSpline
 70
8
 71
3
 72
8
 73
4
 74
0
 40
0
 40
0
 40
0
 40
0
 40
1
 40
1
 40
1
 40
1
 10
21.846035
 20
12.564106
 30
0.0
 10
21.749135
 20
12.503969
 30
0.0
 10
21.749135
 20
3.429507
 30
0.0
 10
21.846035
 20
3.429507
 30
0.0
  0
SPLINE
  5
16a
100
AcDbEntity
  8
0
 62
7
100
AcDbSpline
 70
8
 71
3
 72
8
 73
4
 74
0
 40
0
 40
0
 40
0
 40
0
 40
1
 40
1
 40
1
 40
1
 10
21.846035
 20
3.429507
 30
0.0
 10
21.892145
 20
3.429507
 30
0.0
 10
21.916275
 20
5.006231
 30
0.0
 10
21.916275
 20
8.018604
 30
0.0
  0
LWPOLYLINE
  5
16b
100
AcDbEntity
  8
0
 62
7
100
AcDbPolyline
 90
1
 70
1
 10
1.123912
 20
8.014444
 30
0.0
  0
LWPOLYLINE
  5
16c
100
AcDbEntity
  8
0
 62
7
100
AcDbPolyline
 90
1
 70
1
 10
21.916275
 20
8.018604
 30
0.0
  0
LWPOLYLINE
  5
16d
100
AcDbEntity
  8
0
 62
7
100
AcDbPolyline
 90
8
 70
1
 10
0.913178
 20
6.427352
 30
0.0
 10
0.913178
 20
7.379607
 30
0.0
 10
0.491711
 20
7.379607
 30
0.0
 10
0.070245
 20
7.379607
 30
0.0
 10
0.070245
 20
6.427352
 30
0.0
 10
0.070245
 20
5.475096
 30
0.0
 10
0.491711
 20
5.475096
 30
0.0
 10
0.913178
 20
5.475096
 30
0.0
  0
LWPOLYLINE
  5
16e
100
AcDbEntity
  8
0
 62
7
100
AcDbPolyline
 90
8
 70
1
 10
22.829453
 20
6.427352
 30
0.0
 10
22.829453
 20
7.379607
 30
0.0
 10
22.407986
 20
7.379607
 30
0.0
 10
21.986519
 20
7.379607
 30
0.0
 10
21.986519
 20
6.427352
 30
0.0
 10
21.986519
 20
5.475096
 30
0.0
 10
22.407986
 20
5.475096
 30
0.0
 10
22.829453
 20
5.475096
 30
0.0
  0
LWPOLYLINE
  5
16f
100
AcDbEntity
  8
0
 62
7
100
AcDbPolyline
 90
8
 70
1
 10
0.913178
 20
9.530999
 30
0.0
 10
0.913178
 20
10.483254
 30
0.0
 10
0.491711
 20
10.483254
 30
0.0
 10
0.070245
 20
10.483254
 30
0.0
 10
0.070245
 20
9.530999
 30
0.0
 10
0.070245
 20
8.578744
 30
0.0
 10
0.491711
 20
8.578744
 30
0.0
 10
0.913178
 20
8.578744
 30
0.0
  0
SPLINE
  5
170
100
AcDbEntity
  8
0
 62
7
100
AcDbSpline
 70
8
 71
3
 72
8
 73
4
 74
0
 40
0
 40
0
 40
0
 40
0
 40
1
 40
1
 40
1
 40
1
 10
4.078423
 20
15.374292
 30
0.0
 10
4.039950
 20
15.412925
 30
0.0
 10
3.893339
 20
15.326492
 30
0.0
 10
3.710652
 20
15.157474
 30
0.0
  0
SPLINE
  5
171
100
AcDbEntity
  8
0
 62
7
100
AcDbSpline
 70
8
 71
3
 72
8
 73
4
 74
0
 40
0
 40
0
 40
0
 40
0
 40
1
 40
1
 40
1
 40
1
 10
3.710652
 20
15.157474
 30
0.0
 10
3.543565
 20
15.002890
 30
0.0
 10
2.916902
 20
14.439230
 30
0.0
 10
2.318068
 20
13.904895
 30
0.0
  0
SPLINE
  5
172
100
AcDbEntity
  8
0
 62
7
100
AcDbSpline
 70
8
 71
3
 72
8
 73
4
 74
0
 40
0
 40
0
 40
0
 40
0
 40
1
 40
1
 40
1
 40
1
 10
2.318068
 20
13.904895
 30
0.0
 10
1.719234
 20
13.370561
 30
0.0
 10
1.202003
 20
12.908607
 30
0.0
 10
1.168666
 20
12.878330
 30
0.0
  0
SPLINE
  5
173
100
AcDbEntity
  8
0
 62
7
100
AcDbSpline
 70
8
 71
3
 72
8
 73
4
 74
0
 40
0
 40
0
 40
0
 40
0
 40
1
 40
1
 40
1
 40
1
 10
1.168666
 20
12.878330
 30
0.0
 10
1.135330
 20
12.848054
 30
0.0
 10
1.129106
 20
12.789078
 30
0.0
 10
1.154836
 20
12.747272
 30
0.0
  0
SPLINE
  5
174
100
AcDbEntity
  8
0
 62
7
100
AcDbSpline
 70
8
 71
3
 72
8
 73
4
 74
0
 40
0
 40
0
 40
0
 40
0
 40
1
 40
1
 40
1
 40
1
 10
1.154836
 20
12.747272
 30
0.0
 10
1.182273
 20
12.702694
 30
0.0
 10
1.809664
 20
13.216865
 30
0.0
 10
2.672009
 20
13.990655
 30
0.0
  0
SPLINE
  5
175
100
AcDbEntity
  8
0
 62
7
100
AcDbSpline
 70
8
 71
3
 72
8
 73
4
 74
0
 40
0
 40
0
 40
0
 40
0
 40
1
 40
1
 40
1
 40
1
 10
2.672009
 20
13.990655
 30
0.0
 10
3.556233
 20
14.784076
 30
0.0
 10
4.116895
 20
15.335659
 30
0.0
 10
4.078423
 20
15.374292
 30
0.0
  0
LWPOLYLINE
  5
176
100
AcDbEntity
  8
0
 62
7
100
AcDbPolyline
 90
8
 70
1
 10
22.829453
 20
9.530999
 30
0.0
 10
22.829453
 20
10.483254
 30
0.0
 10
22.407986
 20
10.483254
 30
0.0
 10
21.986519
 20
10.483254
 30
0.0
 10
21.986519
 20
9.530999
 30
0.0
 10
21.986519
 20
8.578744
 30
0.0
 10
22.407986
 20
8.578744
 30
0.0
 10
22.829453
 20
8.578744
 30
0.0
  0
SPLINE
  5
177
100
AcDbEntity
  8
0
 62
7
100
AcDbSpline
 70
8
 71
3
 72
8
 73
4
 74
0
 40
0
 40
0
 40
0
 40
0
 40
1
 40
1
 40
1
 40
1
 10
21.667687
 20
12.941388
 30
0.0
 10
20.513814
 20
14.020488
 30
0.0
 10
18.872942
 20
15.426175
 30
0.0
 10
18.824249
 20
15.377278
 30
0.0
  0
SPLINE
  5
178
100
AcDbEntity
  8
0
 62
7
100
AcDbSpline
 70
8
 71
3
 72
8
 73
4
 74
0
 40
0
 40
0
 40
0
 40
0
 40
1
 40
1
 40
1
 40
1
 10
18.824249
 20
15.377278
 30
0.0
 10
18.739729
 20
15.292405
 30
0.0
 10
21.649180
 20
12.669837
 30
0.0
 10
21.737932
 20
12.750896
 30
0.0
  0
SPLINE
  5
179
100
AcDbEntity
  8
0
 62
7
100
AcDbSpline
 70
8
 71
3
 72
8
 73
4
 74
0
 40
0
 40
0
 40
0
 40
0
 40
1
 40
1
 40
1
 40
1
 10
21.737932
 20
12.750896
 30
0.0
 10
21.779942
 20
12.789268
 30
0.0
 10
21.753412
 20
12.861216
 30
0.0
 10
21.667692
 20
12.941388
 30
0.0
  0
LWPOLYLINE
  5
17a
100
AcDbEntity
  8
0
 62
7
100
AcDbPolyline
 90
1
 70
1
 10
4.078423
 20
15.374292
 30
0.0
  0
LWPOLYLINE
  5
17b
100
AcDbEntity
  8
0
 62
7
100
AcDbPolyline
 90
1
 70
1
 10
21.667692
 20
12.941388
 30
0.0
  0
ENDSEC
  0
SECTION
  2
OBJECTS
  0
DICTIONARY
  5
C
330
0
100
AcDbDictionary
  3
ACAD_GROUP
350
D
  3
ACAD_MLINESTYLE
350
17
  0
DICTIONARY
  5
D
330
C
100
AcDbDictionary
  0
DICTIONARY
  5
1A
330
C
100
AcDbDictionary
  0
DICTIONARY
  5
17
330
C
100
AcDbDictionary
  3
STANDARD
350
18
  0
DICTIONARY
  5
19
330
C
100
AcDbDictionary
  0
ENDSEC
  0
EOF
