<?xml version="1.0" encoding="UTF-8" standalone="no"?>
<!-- Created with Inkscape (http://www.inkscape.org/) -->

<svg
   width="21.1mm"
   height="15.5mm"
   version="1.1"
   viewBox="0 0 21.099999 15.5"
   id="svg6"
   sodipodi:docname="batteryClip.svg"
   inkscape:version="1.1 (c68e22c387, 2021-05-23)"
   xmlns:inkscape="http://www.inkscape.org/namespaces/inkscape"
   xmlns:sodipodi="http://sodipodi.sourceforge.net/DTD/sodipodi-0.dtd"
   xmlns="http://www.w3.org/2000/svg"
   xmlns:svg="http://www.w3.org/2000/svg">
  <defs
     id="defs10" />
  <sodipodi:namedview
     id="namedview8"
     pagecolor="#ffffff"
     bordercolor="#666666"
     borderopacity="1.0"
     inkscape:pageshadow="2"
     inkscape:pageopacity="0.0"
     inkscape:pagecheckerboard="0"
     inkscape:document-units="mm"
     showgrid="false"
     height="15.5mm"
     inkscape:zoom="11.224742"
     inkscape:cx="27.216662"
     inkscape:cy="37.461886"
     inkscape:window-width="2560"
     inkscape:window-height="1359"
     inkscape:window-x="0"
     inkscape:window-y="0"
     inkscape:window-maximized="1"
     inkscape:current-layer="svg6" />
  <g
     transform="matrix(0.99628193,0,0,0.99510839,-30.075998,-94.908547)"
     id="g4"
     inkscape:label="g4">
    <path
       d="m 34.346006,110.89041 c -0.4189,-0.13639 -0.710046,-0.37055 -2.253896,-1.8129 -0.960305,-0.89717 -1.686653,-1.52327 -1.767177,-1.52327 -0.133893,0 -0.136693,-0.0958 -0.136693,-4.67749 0,-3.295754 0.02221,-4.663834 0.07519,-4.630918 0.04347,0.02699 0.06577,-2.14e-4 0.05286,-0.06447 -0.02166,-0.1078 2.904273,-2.806277 3.043055,-2.806277 0.03447,0 0.08227,0.03186 0.106225,0.07081 0.06596,0.107226 14.570118,0.09682 14.676934,-0.01053 0.09188,-0.09231 -0.0073,-0.172857 1.871543,1.519741 0.776453,0.699482 1.24085,1.166776 1.218287,1.225893 -0.02006,0.05254 -0.0062,0.08794 0.03079,0.07867 0.04206,-0.01055 0.07412,1.727014 0.08556,4.635741 l 0.0183,4.6526 -0.156558,0.0207 c -0.08858,0.0118 -0.847895,0.66635 -1.748745,1.50766 -1.839792,1.71822 -2.073028,1.8726 -2.83262,1.87488 -0.469963,0.001 -0.556934,-0.0236 -1.127641,-0.32414 -1.625972,-0.85631 -2.700498,-1.1546 -4.353615,-1.20877 -1.873327,-0.0614 -3.197818,0.23668 -4.847738,1.09088 -0.714388,0.36985 -0.831273,0.40839 -1.281604,0.42269 -0.272527,0.009 -0.575022,-0.0101 -0.672168,-0.0418 z m 1.708522,-0.35179 c 1.823676,-0.95967 3.585659,-1.35048 5.434561,-1.2055 1.408344,0.11043 2.47083,0.42059 3.816604,1.11416 0.753679,0.3884 0.790944,0.39948 1.339089,0.39761 0.440582,-0.002 0.627283,-0.0356 0.85418,-0.15606 0.159699,-0.0848 1.023942,-0.84236 1.920529,-1.68355 l 1.630156,-1.52944 -0.0011,-4.54554 c -5.33e-4,-2.5001 -0.02438,-4.580876 -0.05285,-4.623963 -0.02848,-0.04306 -0.713935,-0.672372 -1.523259,-1.398456 l -1.471447,-1.320176 h -14.42894 l -0.619373,0.548757 c -0.340639,0.301824 -1.022743,0.911385 -1.515774,1.354593 l -0.896402,0.805807 v 9.231858 l 1.596672,1.48202 c 0.878154,0.81511 1.678981,1.53245 1.779591,1.59414 0.317331,0.19449 0.592256,0.26597 1.045197,0.27174 0.394261,0.005 0.50659,-0.0297 1.0924,-0.338 z m -2.483323,-5.11103 v -2.26828 l -0.444259,-0.41752 c -0.907936,-0.85331 -1.228676,-1.96202 -0.905911,-3.131437 0.423214,-1.53339 1.988294,-2.54275 3.506812,-2.261613 1.969276,0.364553 3.124833,2.365344 2.427785,4.20406 -0.185871,0.49039 -0.677282,1.15948 -1.021171,1.39038 l -0.250858,0.16844 v 4.58435 h -3.312358 z m 3.240437,-0.74107 -0.0027,-2.79692 h -3.162658 l -0.0055,5.59383 h 3.173578 l -0.0027,-2.79691 z m -3.047849,-4.82388 c 0.297326,-0.564493 0.818193,-0.876299 1.46383,-0.876299 0.663378,0 1.151855,0.294384 1.468653,0.885104 0.1373,0.256035 0.155296,0.422655 0.187359,1.734795 l 0.03548,1.45159 0.427583,-0.42486 c 1.012141,-1.00566 1.219273,-2.34203 0.56386,-3.638038 -0.397989,-0.787048 -1.273506,-1.409803 -2.215644,-1.575969 -1.244366,-0.219479 -2.60559,0.489346 -3.176242,1.653926 -0.611142,1.247191 -0.394447,2.561221 0.585276,3.549191 l 0.432219,0.43588 0.03692,-1.45158 c 0.03342,-1.31428 0.05145,-1.47919 0.190724,-1.743606 z m 3.024942,1.2549 c 0.0171,-1.06919 -0.213686,-1.571308 -0.878928,-1.912258 -0.825758,-0.423244 -1.936432,0.07132 -2.162636,0.962978 -0.09302,0.36667 -0.140749,1.46478 -0.06876,1.58181 0.02788,0.0453 0.600994,0.0644 1.571767,0.0522 l 1.527893,-0.0191 z m 7.91823,4.34242 v -2.23579 l -0.491487,-0.47834 c -0.588899,-0.57316 -0.887797,-1.14943 -0.980362,-1.89015 -0.214746,-1.71824 0.914648,-3.226982 2.629243,-3.512534 1.142904,-0.190271 2.447416,0.383153 3.062501,1.346162 0.394073,0.616974 0.515407,1.088631 0.486319,1.890182 -0.02283,0.62843 -0.05229,0.76385 -0.262044,1.20374 -0.168044,0.35242 -0.375879,0.63222 -0.719262,0.96827 l -0.482909,0.47262 v 4.47169 h -3.242037 z m 3.171447,-0.77355 v -2.79692 h -3.101125 v 5.59383 h 3.101125 z m -3.17784,-3.05543 -0.0052,-1.39137 0.201588,-0.396559 c 0.159622,-0.314001 0.281212,-0.444466 0.584078,-0.62669 0.324231,-0.19506 0.450625,-0.230127 0.829596,-0.230127 0.498731,0 0.771365,0.108376 1.133287,0.450486 0.447775,0.423271 0.466261,0.501389 0.504965,2.13401 l 0.03524,1.48696 0.342397,-0.31703 c 0.761856,-0.70538 1.062486,-1.42963 1.018587,-2.45408 -0.02456,-0.57362 -0.05737,-0.707163 -0.289735,-1.179515 -0.598249,-1.216125 -1.934487,-1.920718 -3.198884,-1.686656 -1.023141,0.189403 -1.809265,0.778322 -2.259064,1.692383 -0.257972,0.524244 -0.26494,0.558981 -0.26494,1.321138 0,1.04095 0.150725,1.43499 0.80642,2.10827 0.257155,0.26405 0.489889,0.48009 0.517192,0.48009 0.0273,0 0.04728,-0.6261 0.04442,-1.39136 z m 3.17784,-0.52994 c 0,-0.82661 -0.08003,-1.158542 -0.362269,-1.502542 -0.577817,-0.704272 -1.771785,-0.723675 -2.347099,-0.03812 -0.329532,0.392681 -0.39165,0.626932 -0.39165,1.477062 v 0.78115 h 3.101124 z m -1.620991,-0.16755 c 0,-0.23602 -0.01175,-0.24782 -0.246674,-0.24782 -0.172279,0 -0.246673,-0.032 -0.246673,-0.10622 0,-0.0741 0.07439,-0.10621 0.246673,-0.10621 0.227098,0 0.246674,-0.0169 0.246674,-0.21243 0,-0.11683 0.03172,-0.21241 0.07047,-0.21241 0.03876,0 0.07048,0.0935 0.07048,0.20793 0,0.1817 0.02823,0.21074 0.223626,0.23013 0.323085,0.0321 0.347352,0.19921 0.02892,0.19921 -0.241639,0 -0.252546,0.0108 -0.252546,0.24782 0,0.13631 -0.03172,0.24783 -0.07048,0.24783 -0.03877,0 -0.07047,-0.11152 -0.07047,-0.24783 z m -15.80423,1.95905 c 0.01601,-4.009503 0.0057,-4.543408 -0.0881,-4.543408 -0.09356,0 -0.106236,0.545412 -0.106236,4.573118 0,3.62707 0.01823,4.56695 0.0881,4.54341 0.069,-0.0231 0.09203,-1.01422 0.106236,-4.57312 z m 20.808063,0.0236 c 0,-2.997623 -0.02422,-4.567222 -0.07047,-4.567222 -0.04626,0 -0.07047,1.569572 -0.07047,4.567222 0,2.99766 0.02422,4.56723 0.07047,4.56723 0.04626,0 0.07047,-1.56957 0.07047,-4.56723 z M 31.677713,97.170581 c 1.734706,-1.559269 1.770241,-1.593765 1.706257,-1.65588 -0.06217,-0.06033 -2.984187,2.511626 -2.984187,2.626676 0,0.152668 0.181764,0.01462 1.278036,-0.970823 z M 51.1286,98.113678 c -0.0045,-0.111594 -2.927982,-2.683438 -2.955685,-2.600181 -0.03479,0.104834 -0.184075,-0.04238 1.467241,1.446894 1.251371,1.128586 1.495023,1.317393 1.48839,1.153287 z"
       stroke-width="0.0706421"
       id="path2" />
  </g>
</svg>
