G04 #@! TF.GenerationSoftware,KiCad,Pcbnew,5.1.10*
G04 #@! TF.CreationDate,2021-11-09T15:36:01+02:00*
G04 #@! TF.ProjectId,PlantBuddy,506c616e-7442-4756-9464-792e6b696361,rev?*
G04 #@! TF.SameCoordinates,Original*
G04 #@! TF.FileFunction,Paste,Top*
G04 #@! TF.FilePolarity,Positive*
%FSLAX46Y46*%
G04 Gerber Fmt 4.6, Leading zero omitted, Abs format (unit mm)*
G04 Created by KiCad (PCBNEW 5.1.10) date 2021-11-09 15:36:01*
%MOMM*%
%LPD*%
G01*
G04 APERTURE LIST*
%ADD10R,2.400000X0.740000*%
%ADD11R,0.800000X0.900000*%
%ADD12C,0.100000*%
%ADD13R,1.400000X1.200000*%
%ADD14R,1.800000X1.000000*%
G04 APERTURE END LIST*
G36*
G01*
X63200080Y-51052171D02*
X62650080Y-51052171D01*
G75*
G02*
X62450080Y-50852171I0J200000D01*
G01*
X62450080Y-50452171D01*
G75*
G02*
X62650080Y-50252171I200000J0D01*
G01*
X63200080Y-50252171D01*
G75*
G02*
X63400080Y-50452171I0J-200000D01*
G01*
X63400080Y-50852171D01*
G75*
G02*
X63200080Y-51052171I-200000J0D01*
G01*
G37*
G36*
G01*
X63200080Y-52702171D02*
X62650080Y-52702171D01*
G75*
G02*
X62450080Y-52502171I0J200000D01*
G01*
X62450080Y-52102171D01*
G75*
G02*
X62650080Y-51902171I200000J0D01*
G01*
X63200080Y-51902171D01*
G75*
G02*
X63400080Y-52102171I0J-200000D01*
G01*
X63400080Y-52502171D01*
G75*
G02*
X63200080Y-52702171I-200000J0D01*
G01*
G37*
G36*
G01*
X60402680Y-73857771D02*
X60062680Y-73857771D01*
G75*
G02*
X59922680Y-73717771I0J140000D01*
G01*
X59922680Y-73437771D01*
G75*
G02*
X60062680Y-73297771I140000J0D01*
G01*
X60402680Y-73297771D01*
G75*
G02*
X60542680Y-73437771I0J-140000D01*
G01*
X60542680Y-73717771D01*
G75*
G02*
X60402680Y-73857771I-140000J0D01*
G01*
G37*
G36*
G01*
X60402680Y-74817771D02*
X60062680Y-74817771D01*
G75*
G02*
X59922680Y-74677771I0J140000D01*
G01*
X59922680Y-74397771D01*
G75*
G02*
X60062680Y-74257771I140000J0D01*
G01*
X60402680Y-74257771D01*
G75*
G02*
X60542680Y-74397771I0J-140000D01*
G01*
X60542680Y-74677771D01*
G75*
G02*
X60402680Y-74817771I-140000J0D01*
G01*
G37*
G36*
G01*
X62843600Y-54976400D02*
X62843600Y-54476400D01*
G75*
G02*
X63068600Y-54251400I225000J0D01*
G01*
X63518600Y-54251400D01*
G75*
G02*
X63743600Y-54476400I0J-225000D01*
G01*
X63743600Y-54976400D01*
G75*
G02*
X63518600Y-55201400I-225000J0D01*
G01*
X63068600Y-55201400D01*
G75*
G02*
X62843600Y-54976400I0J225000D01*
G01*
G37*
G36*
G01*
X64393600Y-54976400D02*
X64393600Y-54476400D01*
G75*
G02*
X64618600Y-54251400I225000J0D01*
G01*
X65068600Y-54251400D01*
G75*
G02*
X65293600Y-54476400I0J-225000D01*
G01*
X65293600Y-54976400D01*
G75*
G02*
X65068600Y-55201400I-225000J0D01*
G01*
X64618600Y-55201400D01*
G75*
G02*
X64393600Y-54976400I0J225000D01*
G01*
G37*
G36*
G01*
X70754080Y-78049571D02*
X70754080Y-78549571D01*
G75*
G02*
X70529080Y-78774571I-225000J0D01*
G01*
X70079080Y-78774571D01*
G75*
G02*
X69854080Y-78549571I0J225000D01*
G01*
X69854080Y-78049571D01*
G75*
G02*
X70079080Y-77824571I225000J0D01*
G01*
X70529080Y-77824571D01*
G75*
G02*
X70754080Y-78049571I0J-225000D01*
G01*
G37*
G36*
G01*
X69204080Y-78049571D02*
X69204080Y-78549571D01*
G75*
G02*
X68979080Y-78774571I-225000J0D01*
G01*
X68529080Y-78774571D01*
G75*
G02*
X68304080Y-78549571I0J225000D01*
G01*
X68304080Y-78049571D01*
G75*
G02*
X68529080Y-77824571I225000J0D01*
G01*
X68979080Y-77824571D01*
G75*
G02*
X69204080Y-78049571I0J-225000D01*
G01*
G37*
G36*
G01*
X70066480Y-74788571D02*
X70566480Y-74788571D01*
G75*
G02*
X70791480Y-75013571I0J-225000D01*
G01*
X70791480Y-75463571D01*
G75*
G02*
X70566480Y-75688571I-225000J0D01*
G01*
X70066480Y-75688571D01*
G75*
G02*
X69841480Y-75463571I0J225000D01*
G01*
X69841480Y-75013571D01*
G75*
G02*
X70066480Y-74788571I225000J0D01*
G01*
G37*
G36*
G01*
X70066480Y-76338571D02*
X70566480Y-76338571D01*
G75*
G02*
X70791480Y-76563571I0J-225000D01*
G01*
X70791480Y-77013571D01*
G75*
G02*
X70566480Y-77238571I-225000J0D01*
G01*
X70066480Y-77238571D01*
G75*
G02*
X69841480Y-77013571I0J225000D01*
G01*
X69841480Y-76563571D01*
G75*
G02*
X70066480Y-76338571I225000J0D01*
G01*
G37*
G36*
G01*
X76238680Y-71892971D02*
X76738680Y-71892971D01*
G75*
G02*
X76963680Y-72117971I0J-225000D01*
G01*
X76963680Y-72567971D01*
G75*
G02*
X76738680Y-72792971I-225000J0D01*
G01*
X76238680Y-72792971D01*
G75*
G02*
X76013680Y-72567971I0J225000D01*
G01*
X76013680Y-72117971D01*
G75*
G02*
X76238680Y-71892971I225000J0D01*
G01*
G37*
G36*
G01*
X76238680Y-73442971D02*
X76738680Y-73442971D01*
G75*
G02*
X76963680Y-73667971I0J-225000D01*
G01*
X76963680Y-74117971D01*
G75*
G02*
X76738680Y-74342971I-225000J0D01*
G01*
X76238680Y-74342971D01*
G75*
G02*
X76013680Y-74117971I0J225000D01*
G01*
X76013680Y-73667971D01*
G75*
G02*
X76238680Y-73442971I225000J0D01*
G01*
G37*
G36*
G01*
X76713280Y-71218771D02*
X76213280Y-71218771D01*
G75*
G02*
X75988280Y-70993771I0J225000D01*
G01*
X75988280Y-70543771D01*
G75*
G02*
X76213280Y-70318771I225000J0D01*
G01*
X76713280Y-70318771D01*
G75*
G02*
X76938280Y-70543771I0J-225000D01*
G01*
X76938280Y-70993771D01*
G75*
G02*
X76713280Y-71218771I-225000J0D01*
G01*
G37*
G36*
G01*
X76713280Y-69668771D02*
X76213280Y-69668771D01*
G75*
G02*
X75988280Y-69443771I0J225000D01*
G01*
X75988280Y-68993771D01*
G75*
G02*
X76213280Y-68768771I225000J0D01*
G01*
X76713280Y-68768771D01*
G75*
G02*
X76938280Y-68993771I0J-225000D01*
G01*
X76938280Y-69443771D01*
G75*
G02*
X76713280Y-69668771I-225000J0D01*
G01*
G37*
G36*
G01*
X68440880Y-74788571D02*
X68940880Y-74788571D01*
G75*
G02*
X69165880Y-75013571I0J-225000D01*
G01*
X69165880Y-75463571D01*
G75*
G02*
X68940880Y-75688571I-225000J0D01*
G01*
X68440880Y-75688571D01*
G75*
G02*
X68215880Y-75463571I0J225000D01*
G01*
X68215880Y-75013571D01*
G75*
G02*
X68440880Y-74788571I225000J0D01*
G01*
G37*
G36*
G01*
X68440880Y-76338571D02*
X68940880Y-76338571D01*
G75*
G02*
X69165880Y-76563571I0J-225000D01*
G01*
X69165880Y-77013571D01*
G75*
G02*
X68940880Y-77238571I-225000J0D01*
G01*
X68440880Y-77238571D01*
G75*
G02*
X68215880Y-77013571I0J225000D01*
G01*
X68215880Y-76563571D01*
G75*
G02*
X68440880Y-76338571I225000J0D01*
G01*
G37*
G36*
G01*
X57950680Y-75601371D02*
X58450680Y-75601371D01*
G75*
G02*
X58675680Y-75826371I0J-225000D01*
G01*
X58675680Y-76276371D01*
G75*
G02*
X58450680Y-76501371I-225000J0D01*
G01*
X57950680Y-76501371D01*
G75*
G02*
X57725680Y-76276371I0J225000D01*
G01*
X57725680Y-75826371D01*
G75*
G02*
X57950680Y-75601371I225000J0D01*
G01*
G37*
G36*
G01*
X57950680Y-77151371D02*
X58450680Y-77151371D01*
G75*
G02*
X58675680Y-77376371I0J-225000D01*
G01*
X58675680Y-77826371D01*
G75*
G02*
X58450680Y-78051371I-225000J0D01*
G01*
X57950680Y-78051371D01*
G75*
G02*
X57725680Y-77826371I0J225000D01*
G01*
X57725680Y-77376371D01*
G75*
G02*
X57950680Y-77151371I225000J0D01*
G01*
G37*
G36*
G01*
X70193480Y-67498771D02*
X70693480Y-67498771D01*
G75*
G02*
X70918480Y-67723771I0J-225000D01*
G01*
X70918480Y-68173771D01*
G75*
G02*
X70693480Y-68398771I-225000J0D01*
G01*
X70193480Y-68398771D01*
G75*
G02*
X69968480Y-68173771I0J225000D01*
G01*
X69968480Y-67723771D01*
G75*
G02*
X70193480Y-67498771I225000J0D01*
G01*
G37*
G36*
G01*
X70193480Y-69048771D02*
X70693480Y-69048771D01*
G75*
G02*
X70918480Y-69273771I0J-225000D01*
G01*
X70918480Y-69723771D01*
G75*
G02*
X70693480Y-69948771I-225000J0D01*
G01*
X70193480Y-69948771D01*
G75*
G02*
X69968480Y-69723771I0J225000D01*
G01*
X69968480Y-69273771D01*
G75*
G02*
X70193480Y-69048771I225000J0D01*
G01*
G37*
G36*
G01*
X64267280Y-78025971D02*
X63767280Y-78025971D01*
G75*
G02*
X63542280Y-77800971I0J225000D01*
G01*
X63542280Y-77350971D01*
G75*
G02*
X63767280Y-77125971I225000J0D01*
G01*
X64267280Y-77125971D01*
G75*
G02*
X64492280Y-77350971I0J-225000D01*
G01*
X64492280Y-77800971D01*
G75*
G02*
X64267280Y-78025971I-225000J0D01*
G01*
G37*
G36*
G01*
X64267280Y-76475971D02*
X63767280Y-76475971D01*
G75*
G02*
X63542280Y-76250971I0J225000D01*
G01*
X63542280Y-75800971D01*
G75*
G02*
X63767280Y-75575971I225000J0D01*
G01*
X64267280Y-75575971D01*
G75*
G02*
X64492280Y-75800971I0J-225000D01*
G01*
X64492280Y-76250971D01*
G75*
G02*
X64267280Y-76475971I-225000J0D01*
G01*
G37*
G36*
G01*
X75326080Y-74391971D02*
X75326080Y-74891971D01*
G75*
G02*
X75101080Y-75116971I-225000J0D01*
G01*
X74651080Y-75116971D01*
G75*
G02*
X74426080Y-74891971I0J225000D01*
G01*
X74426080Y-74391971D01*
G75*
G02*
X74651080Y-74166971I225000J0D01*
G01*
X75101080Y-74166971D01*
G75*
G02*
X75326080Y-74391971I0J-225000D01*
G01*
G37*
G36*
G01*
X73776080Y-74391971D02*
X73776080Y-74891971D01*
G75*
G02*
X73551080Y-75116971I-225000J0D01*
G01*
X73101080Y-75116971D01*
G75*
G02*
X72876080Y-74891971I0J225000D01*
G01*
X72876080Y-74391971D01*
G75*
G02*
X73101080Y-74166971I225000J0D01*
G01*
X73551080Y-74166971D01*
G75*
G02*
X73776080Y-74391971I0J-225000D01*
G01*
G37*
G36*
G01*
X66209100Y-54978371D02*
X66209100Y-54478371D01*
G75*
G02*
X66434100Y-54253371I225000J0D01*
G01*
X66884100Y-54253371D01*
G75*
G02*
X67109100Y-54478371I0J-225000D01*
G01*
X67109100Y-54978371D01*
G75*
G02*
X66884100Y-55203371I-225000J0D01*
G01*
X66434100Y-55203371D01*
G75*
G02*
X66209100Y-54978371I0J225000D01*
G01*
G37*
G36*
G01*
X67759100Y-54978371D02*
X67759100Y-54478371D01*
G75*
G02*
X67984100Y-54253371I225000J0D01*
G01*
X68434100Y-54253371D01*
G75*
G02*
X68659100Y-54478371I0J-225000D01*
G01*
X68659100Y-54978371D01*
G75*
G02*
X68434100Y-55203371I-225000J0D01*
G01*
X67984100Y-55203371D01*
G75*
G02*
X67759100Y-54978371I0J225000D01*
G01*
G37*
G36*
G01*
X67592880Y-80149371D02*
X67592880Y-79599371D01*
G75*
G02*
X67792880Y-79399371I200000J0D01*
G01*
X68192880Y-79399371D01*
G75*
G02*
X68392880Y-79599371I0J-200000D01*
G01*
X68392880Y-80149371D01*
G75*
G02*
X68192880Y-80349371I-200000J0D01*
G01*
X67792880Y-80349371D01*
G75*
G02*
X67592880Y-80149371I0J200000D01*
G01*
G37*
G36*
G01*
X69242880Y-80149371D02*
X69242880Y-79599371D01*
G75*
G02*
X69442880Y-79399371I200000J0D01*
G01*
X69842880Y-79399371D01*
G75*
G02*
X70042880Y-79599371I0J-200000D01*
G01*
X70042880Y-80149371D01*
G75*
G02*
X69842880Y-80349371I-200000J0D01*
G01*
X69442880Y-80349371D01*
G75*
G02*
X69242880Y-80149371I0J200000D01*
G01*
G37*
G36*
G01*
X68111080Y-49032971D02*
X68661080Y-49032971D01*
G75*
G02*
X68861080Y-49232971I0J-200000D01*
G01*
X68861080Y-49632971D01*
G75*
G02*
X68661080Y-49832971I-200000J0D01*
G01*
X68111080Y-49832971D01*
G75*
G02*
X67911080Y-49632971I0J200000D01*
G01*
X67911080Y-49232971D01*
G75*
G02*
X68111080Y-49032971I200000J0D01*
G01*
G37*
G36*
G01*
X68111080Y-50682971D02*
X68661080Y-50682971D01*
G75*
G02*
X68861080Y-50882971I0J-200000D01*
G01*
X68861080Y-51282971D01*
G75*
G02*
X68661080Y-51482971I-200000J0D01*
G01*
X68111080Y-51482971D01*
G75*
G02*
X67911080Y-51282971I0J200000D01*
G01*
X67911080Y-50882971D01*
G75*
G02*
X68111080Y-50682971I200000J0D01*
G01*
G37*
G36*
G01*
X65088480Y-63790371D02*
X65638480Y-63790371D01*
G75*
G02*
X65838480Y-63990371I0J-200000D01*
G01*
X65838480Y-64390371D01*
G75*
G02*
X65638480Y-64590371I-200000J0D01*
G01*
X65088480Y-64590371D01*
G75*
G02*
X64888480Y-64390371I0J200000D01*
G01*
X64888480Y-63990371D01*
G75*
G02*
X65088480Y-63790371I200000J0D01*
G01*
G37*
G36*
G01*
X65088480Y-65440371D02*
X65638480Y-65440371D01*
G75*
G02*
X65838480Y-65640371I0J-200000D01*
G01*
X65838480Y-66040371D01*
G75*
G02*
X65638480Y-66240371I-200000J0D01*
G01*
X65088480Y-66240371D01*
G75*
G02*
X64888480Y-66040371I0J200000D01*
G01*
X64888480Y-65640371D01*
G75*
G02*
X65088480Y-65440371I200000J0D01*
G01*
G37*
D10*
X58222600Y-60807600D03*
X62122600Y-60807600D03*
X58222600Y-62077600D03*
X62122600Y-62077600D03*
X58222600Y-63347600D03*
X62122600Y-63347600D03*
X58222600Y-64617600D03*
X62122600Y-64617600D03*
X58222600Y-65887600D03*
X62122600Y-65887600D03*
D11*
X66542080Y-49130971D03*
X64642080Y-49130971D03*
X65592080Y-51130971D03*
G36*
G01*
X62818200Y-56234200D02*
X62818200Y-56084200D01*
G75*
G02*
X62893200Y-56009200I75000J0D01*
G01*
X63393200Y-56009200D01*
G75*
G02*
X63468200Y-56084200I0J-75000D01*
G01*
X63468200Y-56234200D01*
G75*
G02*
X63393200Y-56309200I-75000J0D01*
G01*
X62893200Y-56309200D01*
G75*
G02*
X62818200Y-56234200I0J75000D01*
G01*
G37*
G36*
G01*
X62818200Y-56884200D02*
X62818200Y-56734200D01*
G75*
G02*
X62893200Y-56659200I75000J0D01*
G01*
X63393200Y-56659200D01*
G75*
G02*
X63468200Y-56734200I0J-75000D01*
G01*
X63468200Y-56884200D01*
G75*
G02*
X63393200Y-56959200I-75000J0D01*
G01*
X62893200Y-56959200D01*
G75*
G02*
X62818200Y-56884200I0J75000D01*
G01*
G37*
G36*
G01*
X62818200Y-57534200D02*
X62818200Y-57384200D01*
G75*
G02*
X62893200Y-57309200I75000J0D01*
G01*
X63393200Y-57309200D01*
G75*
G02*
X63468200Y-57384200I0J-75000D01*
G01*
X63468200Y-57534200D01*
G75*
G02*
X63393200Y-57609200I-75000J0D01*
G01*
X62893200Y-57609200D01*
G75*
G02*
X62818200Y-57534200I0J75000D01*
G01*
G37*
G36*
G01*
X64618200Y-57534200D02*
X64618200Y-57384200D01*
G75*
G02*
X64693200Y-57309200I75000J0D01*
G01*
X65193200Y-57309200D01*
G75*
G02*
X65268200Y-57384200I0J-75000D01*
G01*
X65268200Y-57534200D01*
G75*
G02*
X65193200Y-57609200I-75000J0D01*
G01*
X64693200Y-57609200D01*
G75*
G02*
X64618200Y-57534200I0J75000D01*
G01*
G37*
G36*
G01*
X64618200Y-56884200D02*
X64618200Y-56734200D01*
G75*
G02*
X64693200Y-56659200I75000J0D01*
G01*
X65193200Y-56659200D01*
G75*
G02*
X65268200Y-56734200I0J-75000D01*
G01*
X65268200Y-56884200D01*
G75*
G02*
X65193200Y-56959200I-75000J0D01*
G01*
X64693200Y-56959200D01*
G75*
G02*
X64618200Y-56884200I0J75000D01*
G01*
G37*
G36*
G01*
X64618200Y-56234200D02*
X64618200Y-56084200D01*
G75*
G02*
X64693200Y-56009200I75000J0D01*
G01*
X65193200Y-56009200D01*
G75*
G02*
X65268200Y-56084200I0J-75000D01*
G01*
X65268200Y-56234200D01*
G75*
G02*
X65193200Y-56309200I-75000J0D01*
G01*
X64693200Y-56309200D01*
G75*
G02*
X64618200Y-56234200I0J75000D01*
G01*
G37*
G36*
G01*
X69000100Y-73075600D02*
X69000100Y-73175600D01*
G75*
G02*
X68950100Y-73225600I-50000J0D01*
G01*
X68250100Y-73225600D01*
G75*
G02*
X68200100Y-73175600I0J50000D01*
G01*
X68200100Y-73075600D01*
G75*
G02*
X68250100Y-73025600I50000J0D01*
G01*
X68950100Y-73025600D01*
G75*
G02*
X69000100Y-73075600I0J-50000D01*
G01*
G37*
G36*
G01*
X69000100Y-72675600D02*
X69000100Y-72775600D01*
G75*
G02*
X68950100Y-72825600I-50000J0D01*
G01*
X68250100Y-72825600D01*
G75*
G02*
X68200100Y-72775600I0J50000D01*
G01*
X68200100Y-72675600D01*
G75*
G02*
X68250100Y-72625600I50000J0D01*
G01*
X68950100Y-72625600D01*
G75*
G02*
X69000100Y-72675600I0J-50000D01*
G01*
G37*
G36*
G01*
X69000100Y-72275600D02*
X69000100Y-72375600D01*
G75*
G02*
X68950100Y-72425600I-50000J0D01*
G01*
X68250100Y-72425600D01*
G75*
G02*
X68200100Y-72375600I0J50000D01*
G01*
X68200100Y-72275600D01*
G75*
G02*
X68250100Y-72225600I50000J0D01*
G01*
X68950100Y-72225600D01*
G75*
G02*
X69000100Y-72275600I0J-50000D01*
G01*
G37*
G36*
G01*
X69000100Y-71875600D02*
X69000100Y-71975600D01*
G75*
G02*
X68950100Y-72025600I-50000J0D01*
G01*
X68250100Y-72025600D01*
G75*
G02*
X68200100Y-71975600I0J50000D01*
G01*
X68200100Y-71875600D01*
G75*
G02*
X68250100Y-71825600I50000J0D01*
G01*
X68950100Y-71825600D01*
G75*
G02*
X69000100Y-71875600I0J-50000D01*
G01*
G37*
G36*
G01*
X69000100Y-71475600D02*
X69000100Y-71575600D01*
G75*
G02*
X68950100Y-71625600I-50000J0D01*
G01*
X68250100Y-71625600D01*
G75*
G02*
X68200100Y-71575600I0J50000D01*
G01*
X68200100Y-71475600D01*
G75*
G02*
X68250100Y-71425600I50000J0D01*
G01*
X68950100Y-71425600D01*
G75*
G02*
X69000100Y-71475600I0J-50000D01*
G01*
G37*
G36*
G01*
X69000100Y-71075600D02*
X69000100Y-71175600D01*
G75*
G02*
X68950100Y-71225600I-50000J0D01*
G01*
X68250100Y-71225600D01*
G75*
G02*
X68200100Y-71175600I0J50000D01*
G01*
X68200100Y-71075600D01*
G75*
G02*
X68250100Y-71025600I50000J0D01*
G01*
X68950100Y-71025600D01*
G75*
G02*
X69000100Y-71075600I0J-50000D01*
G01*
G37*
G36*
G01*
X69000100Y-70675600D02*
X69000100Y-70775600D01*
G75*
G02*
X68950100Y-70825600I-50000J0D01*
G01*
X68250100Y-70825600D01*
G75*
G02*
X68200100Y-70775600I0J50000D01*
G01*
X68200100Y-70675600D01*
G75*
G02*
X68250100Y-70625600I50000J0D01*
G01*
X68950100Y-70625600D01*
G75*
G02*
X69000100Y-70675600I0J-50000D01*
G01*
G37*
G36*
G01*
X69000100Y-70275600D02*
X69000100Y-70375600D01*
G75*
G02*
X68950100Y-70425600I-50000J0D01*
G01*
X68250100Y-70425600D01*
G75*
G02*
X68200100Y-70375600I0J50000D01*
G01*
X68200100Y-70275600D01*
G75*
G02*
X68250100Y-70225600I50000J0D01*
G01*
X68950100Y-70225600D01*
G75*
G02*
X69000100Y-70275600I0J-50000D01*
G01*
G37*
G36*
G01*
X69000100Y-69875600D02*
X69000100Y-69975600D01*
G75*
G02*
X68950100Y-70025600I-50000J0D01*
G01*
X68250100Y-70025600D01*
G75*
G02*
X68200100Y-69975600I0J50000D01*
G01*
X68200100Y-69875600D01*
G75*
G02*
X68250100Y-69825600I50000J0D01*
G01*
X68950100Y-69825600D01*
G75*
G02*
X69000100Y-69875600I0J-50000D01*
G01*
G37*
G36*
G01*
X69000100Y-69475600D02*
X69000100Y-69575600D01*
G75*
G02*
X68950100Y-69625600I-50000J0D01*
G01*
X68250100Y-69625600D01*
G75*
G02*
X68200100Y-69575600I0J50000D01*
G01*
X68200100Y-69475600D01*
G75*
G02*
X68250100Y-69425600I50000J0D01*
G01*
X68950100Y-69425600D01*
G75*
G02*
X69000100Y-69475600I0J-50000D01*
G01*
G37*
G36*
G01*
X69000100Y-69075600D02*
X69000100Y-69175600D01*
G75*
G02*
X68950100Y-69225600I-50000J0D01*
G01*
X68250100Y-69225600D01*
G75*
G02*
X68200100Y-69175600I0J50000D01*
G01*
X68200100Y-69075600D01*
G75*
G02*
X68250100Y-69025600I50000J0D01*
G01*
X68950100Y-69025600D01*
G75*
G02*
X69000100Y-69075600I0J-50000D01*
G01*
G37*
G36*
G01*
X69000100Y-68675600D02*
X69000100Y-68775600D01*
G75*
G02*
X68950100Y-68825600I-50000J0D01*
G01*
X68250100Y-68825600D01*
G75*
G02*
X68200100Y-68775600I0J50000D01*
G01*
X68200100Y-68675600D01*
G75*
G02*
X68250100Y-68625600I50000J0D01*
G01*
X68950100Y-68625600D01*
G75*
G02*
X69000100Y-68675600I0J-50000D01*
G01*
G37*
G36*
G01*
X67950100Y-67625600D02*
X67950100Y-68325600D01*
G75*
G02*
X67900100Y-68375600I-50000J0D01*
G01*
X67800100Y-68375600D01*
G75*
G02*
X67750100Y-68325600I0J50000D01*
G01*
X67750100Y-67625600D01*
G75*
G02*
X67800100Y-67575600I50000J0D01*
G01*
X67900100Y-67575600D01*
G75*
G02*
X67950100Y-67625600I0J-50000D01*
G01*
G37*
G36*
G01*
X67550100Y-67625600D02*
X67550100Y-68325600D01*
G75*
G02*
X67500100Y-68375600I-50000J0D01*
G01*
X67400100Y-68375600D01*
G75*
G02*
X67350100Y-68325600I0J50000D01*
G01*
X67350100Y-67625600D01*
G75*
G02*
X67400100Y-67575600I50000J0D01*
G01*
X67500100Y-67575600D01*
G75*
G02*
X67550100Y-67625600I0J-50000D01*
G01*
G37*
G36*
G01*
X67150100Y-67625600D02*
X67150100Y-68325600D01*
G75*
G02*
X67100100Y-68375600I-50000J0D01*
G01*
X67000100Y-68375600D01*
G75*
G02*
X66950100Y-68325600I0J50000D01*
G01*
X66950100Y-67625600D01*
G75*
G02*
X67000100Y-67575600I50000J0D01*
G01*
X67100100Y-67575600D01*
G75*
G02*
X67150100Y-67625600I0J-50000D01*
G01*
G37*
G36*
G01*
X66750100Y-67625600D02*
X66750100Y-68325600D01*
G75*
G02*
X66700100Y-68375600I-50000J0D01*
G01*
X66600100Y-68375600D01*
G75*
G02*
X66550100Y-68325600I0J50000D01*
G01*
X66550100Y-67625600D01*
G75*
G02*
X66600100Y-67575600I50000J0D01*
G01*
X66700100Y-67575600D01*
G75*
G02*
X66750100Y-67625600I0J-50000D01*
G01*
G37*
G36*
G01*
X66350100Y-67625600D02*
X66350100Y-68325600D01*
G75*
G02*
X66300100Y-68375600I-50000J0D01*
G01*
X66200100Y-68375600D01*
G75*
G02*
X66150100Y-68325600I0J50000D01*
G01*
X66150100Y-67625600D01*
G75*
G02*
X66200100Y-67575600I50000J0D01*
G01*
X66300100Y-67575600D01*
G75*
G02*
X66350100Y-67625600I0J-50000D01*
G01*
G37*
G36*
G01*
X65950100Y-67625600D02*
X65950100Y-68325600D01*
G75*
G02*
X65900100Y-68375600I-50000J0D01*
G01*
X65800100Y-68375600D01*
G75*
G02*
X65750100Y-68325600I0J50000D01*
G01*
X65750100Y-67625600D01*
G75*
G02*
X65800100Y-67575600I50000J0D01*
G01*
X65900100Y-67575600D01*
G75*
G02*
X65950100Y-67625600I0J-50000D01*
G01*
G37*
G36*
G01*
X65550100Y-67625600D02*
X65550100Y-68325600D01*
G75*
G02*
X65500100Y-68375600I-50000J0D01*
G01*
X65400100Y-68375600D01*
G75*
G02*
X65350100Y-68325600I0J50000D01*
G01*
X65350100Y-67625600D01*
G75*
G02*
X65400100Y-67575600I50000J0D01*
G01*
X65500100Y-67575600D01*
G75*
G02*
X65550100Y-67625600I0J-50000D01*
G01*
G37*
G36*
G01*
X65150100Y-67625600D02*
X65150100Y-68325600D01*
G75*
G02*
X65100100Y-68375600I-50000J0D01*
G01*
X65000100Y-68375600D01*
G75*
G02*
X64950100Y-68325600I0J50000D01*
G01*
X64950100Y-67625600D01*
G75*
G02*
X65000100Y-67575600I50000J0D01*
G01*
X65100100Y-67575600D01*
G75*
G02*
X65150100Y-67625600I0J-50000D01*
G01*
G37*
G36*
G01*
X64750100Y-67625600D02*
X64750100Y-68325600D01*
G75*
G02*
X64700100Y-68375600I-50000J0D01*
G01*
X64600100Y-68375600D01*
G75*
G02*
X64550100Y-68325600I0J50000D01*
G01*
X64550100Y-67625600D01*
G75*
G02*
X64600100Y-67575600I50000J0D01*
G01*
X64700100Y-67575600D01*
G75*
G02*
X64750100Y-67625600I0J-50000D01*
G01*
G37*
G36*
G01*
X64350100Y-67625600D02*
X64350100Y-68325600D01*
G75*
G02*
X64300100Y-68375600I-50000J0D01*
G01*
X64200100Y-68375600D01*
G75*
G02*
X64150100Y-68325600I0J50000D01*
G01*
X64150100Y-67625600D01*
G75*
G02*
X64200100Y-67575600I50000J0D01*
G01*
X64300100Y-67575600D01*
G75*
G02*
X64350100Y-67625600I0J-50000D01*
G01*
G37*
G36*
G01*
X63950100Y-67625600D02*
X63950100Y-68325600D01*
G75*
G02*
X63900100Y-68375600I-50000J0D01*
G01*
X63800100Y-68375600D01*
G75*
G02*
X63750100Y-68325600I0J50000D01*
G01*
X63750100Y-67625600D01*
G75*
G02*
X63800100Y-67575600I50000J0D01*
G01*
X63900100Y-67575600D01*
G75*
G02*
X63950100Y-67625600I0J-50000D01*
G01*
G37*
G36*
G01*
X63550100Y-67625600D02*
X63550100Y-68325600D01*
G75*
G02*
X63500100Y-68375600I-50000J0D01*
G01*
X63400100Y-68375600D01*
G75*
G02*
X63350100Y-68325600I0J50000D01*
G01*
X63350100Y-67625600D01*
G75*
G02*
X63400100Y-67575600I50000J0D01*
G01*
X63500100Y-67575600D01*
G75*
G02*
X63550100Y-67625600I0J-50000D01*
G01*
G37*
G36*
G01*
X63100100Y-68675600D02*
X63100100Y-68775600D01*
G75*
G02*
X63050100Y-68825600I-50000J0D01*
G01*
X62350100Y-68825600D01*
G75*
G02*
X62300100Y-68775600I0J50000D01*
G01*
X62300100Y-68675600D01*
G75*
G02*
X62350100Y-68625600I50000J0D01*
G01*
X63050100Y-68625600D01*
G75*
G02*
X63100100Y-68675600I0J-50000D01*
G01*
G37*
G36*
G01*
X63100100Y-69075600D02*
X63100100Y-69175600D01*
G75*
G02*
X63050100Y-69225600I-50000J0D01*
G01*
X62350100Y-69225600D01*
G75*
G02*
X62300100Y-69175600I0J50000D01*
G01*
X62300100Y-69075600D01*
G75*
G02*
X62350100Y-69025600I50000J0D01*
G01*
X63050100Y-69025600D01*
G75*
G02*
X63100100Y-69075600I0J-50000D01*
G01*
G37*
G36*
G01*
X63100100Y-69475600D02*
X63100100Y-69575600D01*
G75*
G02*
X63050100Y-69625600I-50000J0D01*
G01*
X62350100Y-69625600D01*
G75*
G02*
X62300100Y-69575600I0J50000D01*
G01*
X62300100Y-69475600D01*
G75*
G02*
X62350100Y-69425600I50000J0D01*
G01*
X63050100Y-69425600D01*
G75*
G02*
X63100100Y-69475600I0J-50000D01*
G01*
G37*
G36*
G01*
X63100100Y-69875600D02*
X63100100Y-69975600D01*
G75*
G02*
X63050100Y-70025600I-50000J0D01*
G01*
X62350100Y-70025600D01*
G75*
G02*
X62300100Y-69975600I0J50000D01*
G01*
X62300100Y-69875600D01*
G75*
G02*
X62350100Y-69825600I50000J0D01*
G01*
X63050100Y-69825600D01*
G75*
G02*
X63100100Y-69875600I0J-50000D01*
G01*
G37*
G36*
G01*
X63100100Y-70275600D02*
X63100100Y-70375600D01*
G75*
G02*
X63050100Y-70425600I-50000J0D01*
G01*
X62350100Y-70425600D01*
G75*
G02*
X62300100Y-70375600I0J50000D01*
G01*
X62300100Y-70275600D01*
G75*
G02*
X62350100Y-70225600I50000J0D01*
G01*
X63050100Y-70225600D01*
G75*
G02*
X63100100Y-70275600I0J-50000D01*
G01*
G37*
G36*
G01*
X63100100Y-70675600D02*
X63100100Y-70775600D01*
G75*
G02*
X63050100Y-70825600I-50000J0D01*
G01*
X62350100Y-70825600D01*
G75*
G02*
X62300100Y-70775600I0J50000D01*
G01*
X62300100Y-70675600D01*
G75*
G02*
X62350100Y-70625600I50000J0D01*
G01*
X63050100Y-70625600D01*
G75*
G02*
X63100100Y-70675600I0J-50000D01*
G01*
G37*
G36*
G01*
X63100100Y-71075600D02*
X63100100Y-71175600D01*
G75*
G02*
X63050100Y-71225600I-50000J0D01*
G01*
X62350100Y-71225600D01*
G75*
G02*
X62300100Y-71175600I0J50000D01*
G01*
X62300100Y-71075600D01*
G75*
G02*
X62350100Y-71025600I50000J0D01*
G01*
X63050100Y-71025600D01*
G75*
G02*
X63100100Y-71075600I0J-50000D01*
G01*
G37*
G36*
G01*
X63100100Y-71475600D02*
X63100100Y-71575600D01*
G75*
G02*
X63050100Y-71625600I-50000J0D01*
G01*
X62350100Y-71625600D01*
G75*
G02*
X62300100Y-71575600I0J50000D01*
G01*
X62300100Y-71475600D01*
G75*
G02*
X62350100Y-71425600I50000J0D01*
G01*
X63050100Y-71425600D01*
G75*
G02*
X63100100Y-71475600I0J-50000D01*
G01*
G37*
G36*
G01*
X63100100Y-71875600D02*
X63100100Y-71975600D01*
G75*
G02*
X63050100Y-72025600I-50000J0D01*
G01*
X62350100Y-72025600D01*
G75*
G02*
X62300100Y-71975600I0J50000D01*
G01*
X62300100Y-71875600D01*
G75*
G02*
X62350100Y-71825600I50000J0D01*
G01*
X63050100Y-71825600D01*
G75*
G02*
X63100100Y-71875600I0J-50000D01*
G01*
G37*
G36*
G01*
X63100100Y-72275600D02*
X63100100Y-72375600D01*
G75*
G02*
X63050100Y-72425600I-50000J0D01*
G01*
X62350100Y-72425600D01*
G75*
G02*
X62300100Y-72375600I0J50000D01*
G01*
X62300100Y-72275600D01*
G75*
G02*
X62350100Y-72225600I50000J0D01*
G01*
X63050100Y-72225600D01*
G75*
G02*
X63100100Y-72275600I0J-50000D01*
G01*
G37*
G36*
G01*
X63100100Y-72675600D02*
X63100100Y-72775600D01*
G75*
G02*
X63050100Y-72825600I-50000J0D01*
G01*
X62350100Y-72825600D01*
G75*
G02*
X62300100Y-72775600I0J50000D01*
G01*
X62300100Y-72675600D01*
G75*
G02*
X62350100Y-72625600I50000J0D01*
G01*
X63050100Y-72625600D01*
G75*
G02*
X63100100Y-72675600I0J-50000D01*
G01*
G37*
G36*
G01*
X63100100Y-73075600D02*
X63100100Y-73175600D01*
G75*
G02*
X63050100Y-73225600I-50000J0D01*
G01*
X62350100Y-73225600D01*
G75*
G02*
X62300100Y-73175600I0J50000D01*
G01*
X62300100Y-73075600D01*
G75*
G02*
X62350100Y-73025600I50000J0D01*
G01*
X63050100Y-73025600D01*
G75*
G02*
X63100100Y-73075600I0J-50000D01*
G01*
G37*
G36*
G01*
X63550100Y-73525600D02*
X63550100Y-74225600D01*
G75*
G02*
X63500100Y-74275600I-50000J0D01*
G01*
X63400100Y-74275600D01*
G75*
G02*
X63350100Y-74225600I0J50000D01*
G01*
X63350100Y-73525600D01*
G75*
G02*
X63400100Y-73475600I50000J0D01*
G01*
X63500100Y-73475600D01*
G75*
G02*
X63550100Y-73525600I0J-50000D01*
G01*
G37*
G36*
G01*
X63950100Y-73525600D02*
X63950100Y-74225600D01*
G75*
G02*
X63900100Y-74275600I-50000J0D01*
G01*
X63800100Y-74275600D01*
G75*
G02*
X63750100Y-74225600I0J50000D01*
G01*
X63750100Y-73525600D01*
G75*
G02*
X63800100Y-73475600I50000J0D01*
G01*
X63900100Y-73475600D01*
G75*
G02*
X63950100Y-73525600I0J-50000D01*
G01*
G37*
G36*
G01*
X64350100Y-73525600D02*
X64350100Y-74225600D01*
G75*
G02*
X64300100Y-74275600I-50000J0D01*
G01*
X64200100Y-74275600D01*
G75*
G02*
X64150100Y-74225600I0J50000D01*
G01*
X64150100Y-73525600D01*
G75*
G02*
X64200100Y-73475600I50000J0D01*
G01*
X64300100Y-73475600D01*
G75*
G02*
X64350100Y-73525600I0J-50000D01*
G01*
G37*
G36*
G01*
X64750100Y-73525600D02*
X64750100Y-74225600D01*
G75*
G02*
X64700100Y-74275600I-50000J0D01*
G01*
X64600100Y-74275600D01*
G75*
G02*
X64550100Y-74225600I0J50000D01*
G01*
X64550100Y-73525600D01*
G75*
G02*
X64600100Y-73475600I50000J0D01*
G01*
X64700100Y-73475600D01*
G75*
G02*
X64750100Y-73525600I0J-50000D01*
G01*
G37*
G36*
G01*
X65150100Y-73525600D02*
X65150100Y-74225600D01*
G75*
G02*
X65100100Y-74275600I-50000J0D01*
G01*
X65000100Y-74275600D01*
G75*
G02*
X64950100Y-74225600I0J50000D01*
G01*
X64950100Y-73525600D01*
G75*
G02*
X65000100Y-73475600I50000J0D01*
G01*
X65100100Y-73475600D01*
G75*
G02*
X65150100Y-73525600I0J-50000D01*
G01*
G37*
G36*
G01*
X65550100Y-73525600D02*
X65550100Y-74225600D01*
G75*
G02*
X65500100Y-74275600I-50000J0D01*
G01*
X65400100Y-74275600D01*
G75*
G02*
X65350100Y-74225600I0J50000D01*
G01*
X65350100Y-73525600D01*
G75*
G02*
X65400100Y-73475600I50000J0D01*
G01*
X65500100Y-73475600D01*
G75*
G02*
X65550100Y-73525600I0J-50000D01*
G01*
G37*
G36*
G01*
X65950100Y-73525600D02*
X65950100Y-74225600D01*
G75*
G02*
X65900100Y-74275600I-50000J0D01*
G01*
X65800100Y-74275600D01*
G75*
G02*
X65750100Y-74225600I0J50000D01*
G01*
X65750100Y-73525600D01*
G75*
G02*
X65800100Y-73475600I50000J0D01*
G01*
X65900100Y-73475600D01*
G75*
G02*
X65950100Y-73525600I0J-50000D01*
G01*
G37*
G36*
G01*
X66350100Y-73525600D02*
X66350100Y-74225600D01*
G75*
G02*
X66300100Y-74275600I-50000J0D01*
G01*
X66200100Y-74275600D01*
G75*
G02*
X66150100Y-74225600I0J50000D01*
G01*
X66150100Y-73525600D01*
G75*
G02*
X66200100Y-73475600I50000J0D01*
G01*
X66300100Y-73475600D01*
G75*
G02*
X66350100Y-73525600I0J-50000D01*
G01*
G37*
G36*
G01*
X66750100Y-73525600D02*
X66750100Y-74225600D01*
G75*
G02*
X66700100Y-74275600I-50000J0D01*
G01*
X66600100Y-74275600D01*
G75*
G02*
X66550100Y-74225600I0J50000D01*
G01*
X66550100Y-73525600D01*
G75*
G02*
X66600100Y-73475600I50000J0D01*
G01*
X66700100Y-73475600D01*
G75*
G02*
X66750100Y-73525600I0J-50000D01*
G01*
G37*
G36*
G01*
X67150100Y-73525600D02*
X67150100Y-74225600D01*
G75*
G02*
X67100100Y-74275600I-50000J0D01*
G01*
X67000100Y-74275600D01*
G75*
G02*
X66950100Y-74225600I0J50000D01*
G01*
X66950100Y-73525600D01*
G75*
G02*
X67000100Y-73475600I50000J0D01*
G01*
X67100100Y-73475600D01*
G75*
G02*
X67150100Y-73525600I0J-50000D01*
G01*
G37*
G36*
G01*
X67550100Y-73525600D02*
X67550100Y-74225600D01*
G75*
G02*
X67500100Y-74275600I-50000J0D01*
G01*
X67400100Y-74275600D01*
G75*
G02*
X67350100Y-74225600I0J50000D01*
G01*
X67350100Y-73525600D01*
G75*
G02*
X67400100Y-73475600I50000J0D01*
G01*
X67500100Y-73475600D01*
G75*
G02*
X67550100Y-73525600I0J-50000D01*
G01*
G37*
G36*
G01*
X67950100Y-73525600D02*
X67950100Y-74225600D01*
G75*
G02*
X67900100Y-74275600I-50000J0D01*
G01*
X67800100Y-74275600D01*
G75*
G02*
X67750100Y-74225600I0J50000D01*
G01*
X67750100Y-73525600D01*
G75*
G02*
X67800100Y-73475600I50000J0D01*
G01*
X67900100Y-73475600D01*
G75*
G02*
X67950100Y-73525600I0J-50000D01*
G01*
G37*
G36*
G01*
X67333835Y-71883732D02*
X67333835Y-72367468D01*
G75*
G02*
X67091968Y-72609335I-241867J0D01*
G01*
X66608232Y-72609335D01*
G75*
G02*
X66366365Y-72367468I0J241867D01*
G01*
X66366365Y-71883732D01*
G75*
G02*
X66608232Y-71641865I241867J0D01*
G01*
X67091968Y-71641865D01*
G75*
G02*
X67333835Y-71883732I0J-241867D01*
G01*
G37*
G36*
G01*
X67333835Y-70683732D02*
X67333835Y-71167468D01*
G75*
G02*
X67091968Y-71409335I-241867J0D01*
G01*
X66608232Y-71409335D01*
G75*
G02*
X66366365Y-71167468I0J241867D01*
G01*
X66366365Y-70683732D01*
G75*
G02*
X66608232Y-70441865I241867J0D01*
G01*
X67091968Y-70441865D01*
G75*
G02*
X67333835Y-70683732I0J-241867D01*
G01*
G37*
G36*
G01*
X67333835Y-69483732D02*
X67333835Y-69967468D01*
G75*
G02*
X67091968Y-70209335I-241867J0D01*
G01*
X66608232Y-70209335D01*
G75*
G02*
X66366365Y-69967468I0J241867D01*
G01*
X66366365Y-69483732D01*
G75*
G02*
X66608232Y-69241865I241867J0D01*
G01*
X67091968Y-69241865D01*
G75*
G02*
X67333835Y-69483732I0J-241867D01*
G01*
G37*
G36*
G01*
X66133835Y-71883732D02*
X66133835Y-72367468D01*
G75*
G02*
X65891968Y-72609335I-241867J0D01*
G01*
X65408232Y-72609335D01*
G75*
G02*
X65166365Y-72367468I0J241867D01*
G01*
X65166365Y-71883732D01*
G75*
G02*
X65408232Y-71641865I241867J0D01*
G01*
X65891968Y-71641865D01*
G75*
G02*
X66133835Y-71883732I0J-241867D01*
G01*
G37*
G36*
G01*
X66133835Y-70683732D02*
X66133835Y-71167468D01*
G75*
G02*
X65891968Y-71409335I-241867J0D01*
G01*
X65408232Y-71409335D01*
G75*
G02*
X65166365Y-71167468I0J241867D01*
G01*
X65166365Y-70683732D01*
G75*
G02*
X65408232Y-70441865I241867J0D01*
G01*
X65891968Y-70441865D01*
G75*
G02*
X66133835Y-70683732I0J-241867D01*
G01*
G37*
G36*
G01*
X66133835Y-69483732D02*
X66133835Y-69967468D01*
G75*
G02*
X65891968Y-70209335I-241867J0D01*
G01*
X65408232Y-70209335D01*
G75*
G02*
X65166365Y-69967468I0J241867D01*
G01*
X65166365Y-69483732D01*
G75*
G02*
X65408232Y-69241865I241867J0D01*
G01*
X65891968Y-69241865D01*
G75*
G02*
X66133835Y-69483732I0J-241867D01*
G01*
G37*
G36*
G01*
X64933835Y-71883732D02*
X64933835Y-72367468D01*
G75*
G02*
X64691968Y-72609335I-241867J0D01*
G01*
X64208232Y-72609335D01*
G75*
G02*
X63966365Y-72367468I0J241867D01*
G01*
X63966365Y-71883732D01*
G75*
G02*
X64208232Y-71641865I241867J0D01*
G01*
X64691968Y-71641865D01*
G75*
G02*
X64933835Y-71883732I0J-241867D01*
G01*
G37*
G36*
G01*
X64933835Y-70683732D02*
X64933835Y-71167468D01*
G75*
G02*
X64691968Y-71409335I-241867J0D01*
G01*
X64208232Y-71409335D01*
G75*
G02*
X63966365Y-71167468I0J241867D01*
G01*
X63966365Y-70683732D01*
G75*
G02*
X64208232Y-70441865I241867J0D01*
G01*
X64691968Y-70441865D01*
G75*
G02*
X64933835Y-70683732I0J-241867D01*
G01*
G37*
G36*
G01*
X64933835Y-69483732D02*
X64933835Y-69967468D01*
G75*
G02*
X64691968Y-70209335I-241867J0D01*
G01*
X64208232Y-70209335D01*
G75*
G02*
X63966365Y-69967468I0J241867D01*
G01*
X63966365Y-69483732D01*
G75*
G02*
X64208232Y-69241865I241867J0D01*
G01*
X64691968Y-69241865D01*
G75*
G02*
X64933835Y-69483732I0J-241867D01*
G01*
G37*
D12*
G36*
X67634982Y-72607731D02*
G01*
X67619312Y-72602977D01*
X67604870Y-72595258D01*
X67592212Y-72584869D01*
X67523010Y-72515667D01*
X67512621Y-72503009D01*
X67504902Y-72488567D01*
X67500148Y-72472897D01*
X67498543Y-72456600D01*
X67498543Y-71794600D01*
X67500148Y-71778303D01*
X67504902Y-71762633D01*
X67512621Y-71748191D01*
X67523010Y-71735533D01*
X67592212Y-71666331D01*
X67604870Y-71655942D01*
X67619312Y-71648223D01*
X67634982Y-71643469D01*
X67651279Y-71641864D01*
X67818123Y-71641864D01*
X67834420Y-71643469D01*
X67850090Y-71648223D01*
X67864532Y-71655942D01*
X67877190Y-71666331D01*
X67887579Y-71678989D01*
X67895298Y-71693431D01*
X67900052Y-71709101D01*
X67901657Y-71725398D01*
X67901657Y-72525802D01*
X67900052Y-72542099D01*
X67895298Y-72557769D01*
X67887579Y-72572211D01*
X67877190Y-72584869D01*
X67864532Y-72595258D01*
X67850090Y-72602977D01*
X67834420Y-72607731D01*
X67818123Y-72609336D01*
X67651279Y-72609336D01*
X67634982Y-72607731D01*
G37*
G36*
X67634982Y-71407731D02*
G01*
X67619312Y-71402977D01*
X67604870Y-71395258D01*
X67592212Y-71384869D01*
X67523010Y-71315667D01*
X67512621Y-71303009D01*
X67504902Y-71288567D01*
X67500148Y-71272897D01*
X67498543Y-71256600D01*
X67498543Y-70594600D01*
X67500148Y-70578303D01*
X67504902Y-70562633D01*
X67512621Y-70548191D01*
X67523010Y-70535533D01*
X67592212Y-70466331D01*
X67604870Y-70455942D01*
X67619312Y-70448223D01*
X67634982Y-70443469D01*
X67651279Y-70441864D01*
X67818123Y-70441864D01*
X67834420Y-70443469D01*
X67850090Y-70448223D01*
X67864532Y-70455942D01*
X67877190Y-70466331D01*
X67887579Y-70478989D01*
X67895298Y-70493431D01*
X67900052Y-70509101D01*
X67901657Y-70525398D01*
X67901657Y-71325802D01*
X67900052Y-71342099D01*
X67895298Y-71357769D01*
X67887579Y-71372211D01*
X67877190Y-71384869D01*
X67864532Y-71395258D01*
X67850090Y-71402977D01*
X67834420Y-71407731D01*
X67818123Y-71409336D01*
X67651279Y-71409336D01*
X67634982Y-71407731D01*
G37*
G36*
X67634982Y-70207731D02*
G01*
X67619312Y-70202977D01*
X67604870Y-70195258D01*
X67592212Y-70184869D01*
X67523010Y-70115667D01*
X67512621Y-70103009D01*
X67504902Y-70088567D01*
X67500148Y-70072897D01*
X67498543Y-70056600D01*
X67498543Y-69394600D01*
X67500148Y-69378303D01*
X67504902Y-69362633D01*
X67512621Y-69348191D01*
X67523010Y-69335533D01*
X67592212Y-69266331D01*
X67604870Y-69255942D01*
X67619312Y-69248223D01*
X67634982Y-69243469D01*
X67651279Y-69241864D01*
X67818123Y-69241864D01*
X67834420Y-69243469D01*
X67850090Y-69248223D01*
X67864532Y-69255942D01*
X67877190Y-69266331D01*
X67887579Y-69278989D01*
X67895298Y-69293431D01*
X67900052Y-69309101D01*
X67901657Y-69325398D01*
X67901657Y-70125802D01*
X67900052Y-70142099D01*
X67895298Y-70157769D01*
X67887579Y-70172211D01*
X67877190Y-70184869D01*
X67864532Y-70195258D01*
X67850090Y-70202977D01*
X67834420Y-70207731D01*
X67818123Y-70209336D01*
X67651279Y-70209336D01*
X67634982Y-70207731D01*
G37*
G36*
X63465780Y-72607731D02*
G01*
X63450110Y-72602977D01*
X63435668Y-72595258D01*
X63423010Y-72584869D01*
X63412621Y-72572211D01*
X63404902Y-72557769D01*
X63400148Y-72542099D01*
X63398543Y-72525802D01*
X63398543Y-71725398D01*
X63400148Y-71709101D01*
X63404902Y-71693431D01*
X63412621Y-71678989D01*
X63423010Y-71666331D01*
X63435668Y-71655942D01*
X63450110Y-71648223D01*
X63465780Y-71643469D01*
X63482077Y-71641864D01*
X63648921Y-71641864D01*
X63665218Y-71643469D01*
X63680888Y-71648223D01*
X63695330Y-71655942D01*
X63707988Y-71666331D01*
X63777190Y-71735533D01*
X63787579Y-71748191D01*
X63795298Y-71762633D01*
X63800052Y-71778303D01*
X63801657Y-71794600D01*
X63801657Y-72456600D01*
X63800052Y-72472897D01*
X63795298Y-72488567D01*
X63787579Y-72503009D01*
X63777190Y-72515667D01*
X63707988Y-72584869D01*
X63695330Y-72595258D01*
X63680888Y-72602977D01*
X63665218Y-72607731D01*
X63648921Y-72609336D01*
X63482077Y-72609336D01*
X63465780Y-72607731D01*
G37*
G36*
X63465780Y-71407731D02*
G01*
X63450110Y-71402977D01*
X63435668Y-71395258D01*
X63423010Y-71384869D01*
X63412621Y-71372211D01*
X63404902Y-71357769D01*
X63400148Y-71342099D01*
X63398543Y-71325802D01*
X63398543Y-70525398D01*
X63400148Y-70509101D01*
X63404902Y-70493431D01*
X63412621Y-70478989D01*
X63423010Y-70466331D01*
X63435668Y-70455942D01*
X63450110Y-70448223D01*
X63465780Y-70443469D01*
X63482077Y-70441864D01*
X63648921Y-70441864D01*
X63665218Y-70443469D01*
X63680888Y-70448223D01*
X63695330Y-70455942D01*
X63707988Y-70466331D01*
X63777190Y-70535533D01*
X63787579Y-70548191D01*
X63795298Y-70562633D01*
X63800052Y-70578303D01*
X63801657Y-70594600D01*
X63801657Y-71256600D01*
X63800052Y-71272897D01*
X63795298Y-71288567D01*
X63787579Y-71303009D01*
X63777190Y-71315667D01*
X63707988Y-71384869D01*
X63695330Y-71395258D01*
X63680888Y-71402977D01*
X63665218Y-71407731D01*
X63648921Y-71409336D01*
X63482077Y-71409336D01*
X63465780Y-71407731D01*
G37*
G36*
X63465780Y-70207731D02*
G01*
X63450110Y-70202977D01*
X63435668Y-70195258D01*
X63423010Y-70184869D01*
X63412621Y-70172211D01*
X63404902Y-70157769D01*
X63400148Y-70142099D01*
X63398543Y-70125802D01*
X63398543Y-69325398D01*
X63400148Y-69309101D01*
X63404902Y-69293431D01*
X63412621Y-69278989D01*
X63423010Y-69266331D01*
X63435668Y-69255942D01*
X63450110Y-69248223D01*
X63465780Y-69243469D01*
X63482077Y-69241864D01*
X63648921Y-69241864D01*
X63665218Y-69243469D01*
X63680888Y-69248223D01*
X63695330Y-69255942D01*
X63707988Y-69266331D01*
X63777190Y-69335533D01*
X63787579Y-69348191D01*
X63795298Y-69362633D01*
X63800052Y-69378303D01*
X63801657Y-69394600D01*
X63801657Y-70056600D01*
X63800052Y-70072897D01*
X63795298Y-70088567D01*
X63787579Y-70103009D01*
X63777190Y-70115667D01*
X63707988Y-70184869D01*
X63695330Y-70195258D01*
X63680888Y-70202977D01*
X63665218Y-70207731D01*
X63648921Y-70209336D01*
X63482077Y-70209336D01*
X63465780Y-70207731D01*
G37*
G36*
X66433601Y-73175552D02*
G01*
X66417931Y-73170798D01*
X66403489Y-73163079D01*
X66390831Y-73152690D01*
X66380442Y-73140032D01*
X66372723Y-73125590D01*
X66367969Y-73109920D01*
X66366364Y-73093623D01*
X66366364Y-72926779D01*
X66367969Y-72910482D01*
X66372723Y-72894812D01*
X66380442Y-72880370D01*
X66390831Y-72867712D01*
X66460033Y-72798510D01*
X66472691Y-72788121D01*
X66487133Y-72780402D01*
X66502803Y-72775648D01*
X66519100Y-72774043D01*
X67181100Y-72774043D01*
X67197397Y-72775648D01*
X67213067Y-72780402D01*
X67227509Y-72788121D01*
X67240167Y-72798510D01*
X67309369Y-72867712D01*
X67319758Y-72880370D01*
X67327477Y-72894812D01*
X67332231Y-72910482D01*
X67333836Y-72926779D01*
X67333836Y-73093623D01*
X67332231Y-73109920D01*
X67327477Y-73125590D01*
X67319758Y-73140032D01*
X67309369Y-73152690D01*
X67296711Y-73163079D01*
X67282269Y-73170798D01*
X67266599Y-73175552D01*
X67250302Y-73177157D01*
X66449898Y-73177157D01*
X66433601Y-73175552D01*
G37*
G36*
X65233601Y-73175552D02*
G01*
X65217931Y-73170798D01*
X65203489Y-73163079D01*
X65190831Y-73152690D01*
X65180442Y-73140032D01*
X65172723Y-73125590D01*
X65167969Y-73109920D01*
X65166364Y-73093623D01*
X65166364Y-72926779D01*
X65167969Y-72910482D01*
X65172723Y-72894812D01*
X65180442Y-72880370D01*
X65190831Y-72867712D01*
X65260033Y-72798510D01*
X65272691Y-72788121D01*
X65287133Y-72780402D01*
X65302803Y-72775648D01*
X65319100Y-72774043D01*
X65981100Y-72774043D01*
X65997397Y-72775648D01*
X66013067Y-72780402D01*
X66027509Y-72788121D01*
X66040167Y-72798510D01*
X66109369Y-72867712D01*
X66119758Y-72880370D01*
X66127477Y-72894812D01*
X66132231Y-72910482D01*
X66133836Y-72926779D01*
X66133836Y-73093623D01*
X66132231Y-73109920D01*
X66127477Y-73125590D01*
X66119758Y-73140032D01*
X66109369Y-73152690D01*
X66096711Y-73163079D01*
X66082269Y-73170798D01*
X66066599Y-73175552D01*
X66050302Y-73177157D01*
X65249898Y-73177157D01*
X65233601Y-73175552D01*
G37*
G36*
X64033601Y-73175552D02*
G01*
X64017931Y-73170798D01*
X64003489Y-73163079D01*
X63990831Y-73152690D01*
X63980442Y-73140032D01*
X63972723Y-73125590D01*
X63967969Y-73109920D01*
X63966364Y-73093623D01*
X63966364Y-72926779D01*
X63967969Y-72910482D01*
X63972723Y-72894812D01*
X63980442Y-72880370D01*
X63990831Y-72867712D01*
X64060033Y-72798510D01*
X64072691Y-72788121D01*
X64087133Y-72780402D01*
X64102803Y-72775648D01*
X64119100Y-72774043D01*
X64781100Y-72774043D01*
X64797397Y-72775648D01*
X64813067Y-72780402D01*
X64827509Y-72788121D01*
X64840167Y-72798510D01*
X64909369Y-72867712D01*
X64919758Y-72880370D01*
X64927477Y-72894812D01*
X64932231Y-72910482D01*
X64933836Y-72926779D01*
X64933836Y-73093623D01*
X64932231Y-73109920D01*
X64927477Y-73125590D01*
X64919758Y-73140032D01*
X64909369Y-73152690D01*
X64896711Y-73163079D01*
X64882269Y-73170798D01*
X64866599Y-73175552D01*
X64850302Y-73177157D01*
X64049898Y-73177157D01*
X64033601Y-73175552D01*
G37*
G36*
X66502803Y-69075552D02*
G01*
X66487133Y-69070798D01*
X66472691Y-69063079D01*
X66460033Y-69052690D01*
X66390831Y-68983488D01*
X66380442Y-68970830D01*
X66372723Y-68956388D01*
X66367969Y-68940718D01*
X66366364Y-68924421D01*
X66366364Y-68757577D01*
X66367969Y-68741280D01*
X66372723Y-68725610D01*
X66380442Y-68711168D01*
X66390831Y-68698510D01*
X66403489Y-68688121D01*
X66417931Y-68680402D01*
X66433601Y-68675648D01*
X66449898Y-68674043D01*
X67250302Y-68674043D01*
X67266599Y-68675648D01*
X67282269Y-68680402D01*
X67296711Y-68688121D01*
X67309369Y-68698510D01*
X67319758Y-68711168D01*
X67327477Y-68725610D01*
X67332231Y-68741280D01*
X67333836Y-68757577D01*
X67333836Y-68924421D01*
X67332231Y-68940718D01*
X67327477Y-68956388D01*
X67319758Y-68970830D01*
X67309369Y-68983488D01*
X67240167Y-69052690D01*
X67227509Y-69063079D01*
X67213067Y-69070798D01*
X67197397Y-69075552D01*
X67181100Y-69077157D01*
X66519100Y-69077157D01*
X66502803Y-69075552D01*
G37*
G36*
X65302803Y-69075552D02*
G01*
X65287133Y-69070798D01*
X65272691Y-69063079D01*
X65260033Y-69052690D01*
X65190831Y-68983488D01*
X65180442Y-68970830D01*
X65172723Y-68956388D01*
X65167969Y-68940718D01*
X65166364Y-68924421D01*
X65166364Y-68757577D01*
X65167969Y-68741280D01*
X65172723Y-68725610D01*
X65180442Y-68711168D01*
X65190831Y-68698510D01*
X65203489Y-68688121D01*
X65217931Y-68680402D01*
X65233601Y-68675648D01*
X65249898Y-68674043D01*
X66050302Y-68674043D01*
X66066599Y-68675648D01*
X66082269Y-68680402D01*
X66096711Y-68688121D01*
X66109369Y-68698510D01*
X66119758Y-68711168D01*
X66127477Y-68725610D01*
X66132231Y-68741280D01*
X66133836Y-68757577D01*
X66133836Y-68924421D01*
X66132231Y-68940718D01*
X66127477Y-68956388D01*
X66119758Y-68970830D01*
X66109369Y-68983488D01*
X66040167Y-69052690D01*
X66027509Y-69063079D01*
X66013067Y-69070798D01*
X65997397Y-69075552D01*
X65981100Y-69077157D01*
X65319100Y-69077157D01*
X65302803Y-69075552D01*
G37*
G36*
X64102803Y-69075552D02*
G01*
X64087133Y-69070798D01*
X64072691Y-69063079D01*
X64060033Y-69052690D01*
X63990831Y-68983488D01*
X63980442Y-68970830D01*
X63972723Y-68956388D01*
X63967969Y-68940718D01*
X63966364Y-68924421D01*
X63966364Y-68757577D01*
X63967969Y-68741280D01*
X63972723Y-68725610D01*
X63980442Y-68711168D01*
X63990831Y-68698510D01*
X64003489Y-68688121D01*
X64017931Y-68680402D01*
X64033601Y-68675648D01*
X64049898Y-68674043D01*
X64850302Y-68674043D01*
X64866599Y-68675648D01*
X64882269Y-68680402D01*
X64896711Y-68688121D01*
X64909369Y-68698510D01*
X64919758Y-68711168D01*
X64927477Y-68725610D01*
X64932231Y-68741280D01*
X64933836Y-68757577D01*
X64933836Y-68924421D01*
X64932231Y-68940718D01*
X64927477Y-68956388D01*
X64919758Y-68970830D01*
X64909369Y-68983488D01*
X64840167Y-69052690D01*
X64827509Y-69063079D01*
X64813067Y-69070798D01*
X64797397Y-69075552D01*
X64781100Y-69077157D01*
X64119100Y-69077157D01*
X64102803Y-69075552D01*
G37*
G36*
X67579661Y-73175220D02*
G01*
X67560756Y-73169485D01*
X67543333Y-73160172D01*
X67528061Y-73147639D01*
X67515528Y-73132367D01*
X67506215Y-73114944D01*
X67500480Y-73096039D01*
X67498544Y-73076378D01*
X67498544Y-73001743D01*
X67500480Y-72982082D01*
X67506215Y-72963177D01*
X67515528Y-72945754D01*
X67528061Y-72930482D01*
X67654982Y-72803561D01*
X67670254Y-72791028D01*
X67687677Y-72781715D01*
X67706582Y-72775980D01*
X67726243Y-72774044D01*
X67800878Y-72774044D01*
X67820539Y-72775980D01*
X67839444Y-72781715D01*
X67856867Y-72791028D01*
X67872139Y-72803561D01*
X67884672Y-72818833D01*
X67893985Y-72836256D01*
X67899720Y-72855161D01*
X67901656Y-72874822D01*
X67901656Y-73076378D01*
X67899720Y-73096039D01*
X67893985Y-73114944D01*
X67884672Y-73132367D01*
X67872139Y-73147639D01*
X67856867Y-73160172D01*
X67839444Y-73169485D01*
X67820539Y-73175220D01*
X67800878Y-73177156D01*
X67599322Y-73177156D01*
X67579661Y-73175220D01*
G37*
G36*
X67706582Y-69075220D02*
G01*
X67687677Y-69069485D01*
X67670254Y-69060172D01*
X67654982Y-69047639D01*
X67528061Y-68920718D01*
X67515528Y-68905446D01*
X67506215Y-68888023D01*
X67500480Y-68869118D01*
X67498544Y-68849457D01*
X67498544Y-68774822D01*
X67500480Y-68755161D01*
X67506215Y-68736256D01*
X67515528Y-68718833D01*
X67528061Y-68703561D01*
X67543333Y-68691028D01*
X67560756Y-68681715D01*
X67579661Y-68675980D01*
X67599322Y-68674044D01*
X67800878Y-68674044D01*
X67820539Y-68675980D01*
X67839444Y-68681715D01*
X67856867Y-68691028D01*
X67872139Y-68703561D01*
X67884672Y-68718833D01*
X67893985Y-68736256D01*
X67899720Y-68755161D01*
X67901656Y-68774822D01*
X67901656Y-68976378D01*
X67899720Y-68996039D01*
X67893985Y-69014944D01*
X67884672Y-69032367D01*
X67872139Y-69047639D01*
X67856867Y-69060172D01*
X67839444Y-69069485D01*
X67820539Y-69075220D01*
X67800878Y-69077156D01*
X67726243Y-69077156D01*
X67706582Y-69075220D01*
G37*
G36*
X63479661Y-73175220D02*
G01*
X63460756Y-73169485D01*
X63443333Y-73160172D01*
X63428061Y-73147639D01*
X63415528Y-73132367D01*
X63406215Y-73114944D01*
X63400480Y-73096039D01*
X63398544Y-73076378D01*
X63398544Y-72874822D01*
X63400480Y-72855161D01*
X63406215Y-72836256D01*
X63415528Y-72818833D01*
X63428061Y-72803561D01*
X63443333Y-72791028D01*
X63460756Y-72781715D01*
X63479661Y-72775980D01*
X63499322Y-72774044D01*
X63573957Y-72774044D01*
X63593618Y-72775980D01*
X63612523Y-72781715D01*
X63629946Y-72791028D01*
X63645218Y-72803561D01*
X63772139Y-72930482D01*
X63784672Y-72945754D01*
X63793985Y-72963177D01*
X63799720Y-72982082D01*
X63801656Y-73001743D01*
X63801656Y-73076378D01*
X63799720Y-73096039D01*
X63793985Y-73114944D01*
X63784672Y-73132367D01*
X63772139Y-73147639D01*
X63756867Y-73160172D01*
X63739444Y-73169485D01*
X63720539Y-73175220D01*
X63700878Y-73177156D01*
X63499322Y-73177156D01*
X63479661Y-73175220D01*
G37*
G36*
X63479661Y-69075220D02*
G01*
X63460756Y-69069485D01*
X63443333Y-69060172D01*
X63428061Y-69047639D01*
X63415528Y-69032367D01*
X63406215Y-69014944D01*
X63400480Y-68996039D01*
X63398544Y-68976378D01*
X63398544Y-68774822D01*
X63400480Y-68755161D01*
X63406215Y-68736256D01*
X63415528Y-68718833D01*
X63428061Y-68703561D01*
X63443333Y-68691028D01*
X63460756Y-68681715D01*
X63479661Y-68675980D01*
X63499322Y-68674044D01*
X63700878Y-68674044D01*
X63720539Y-68675980D01*
X63739444Y-68681715D01*
X63756867Y-68691028D01*
X63772139Y-68703561D01*
X63784672Y-68718833D01*
X63793985Y-68736256D01*
X63799720Y-68755161D01*
X63801656Y-68774822D01*
X63801656Y-68849457D01*
X63799720Y-68869118D01*
X63793985Y-68888023D01*
X63784672Y-68905446D01*
X63772139Y-68920718D01*
X63645218Y-69047639D01*
X63629946Y-69060172D01*
X63612523Y-69069485D01*
X63593618Y-69075220D01*
X63573957Y-69077156D01*
X63499322Y-69077156D01*
X63479661Y-69075220D01*
G37*
G36*
G01*
X60067600Y-70596100D02*
X60067600Y-70251100D01*
G75*
G02*
X60215100Y-70103600I147500J0D01*
G01*
X60510100Y-70103600D01*
G75*
G02*
X60657600Y-70251100I0J-147500D01*
G01*
X60657600Y-70596100D01*
G75*
G02*
X60510100Y-70743600I-147500J0D01*
G01*
X60215100Y-70743600D01*
G75*
G02*
X60067600Y-70596100I0J147500D01*
G01*
G37*
G36*
G01*
X59097600Y-70596100D02*
X59097600Y-70251100D01*
G75*
G02*
X59245100Y-70103600I147500J0D01*
G01*
X59540100Y-70103600D01*
G75*
G02*
X59687600Y-70251100I0J-147500D01*
G01*
X59687600Y-70596100D01*
G75*
G02*
X59540100Y-70743600I-147500J0D01*
G01*
X59245100Y-70743600D01*
G75*
G02*
X59097600Y-70596100I0J147500D01*
G01*
G37*
G36*
G01*
X61231600Y-71068100D02*
X61571600Y-71068100D01*
G75*
G02*
X61711600Y-71208100I0J-140000D01*
G01*
X61711600Y-71488100D01*
G75*
G02*
X61571600Y-71628100I-140000J0D01*
G01*
X61231600Y-71628100D01*
G75*
G02*
X61091600Y-71488100I0J140000D01*
G01*
X61091600Y-71208100D01*
G75*
G02*
X61231600Y-71068100I140000J0D01*
G01*
G37*
G36*
G01*
X61231600Y-70108100D02*
X61571600Y-70108100D01*
G75*
G02*
X61711600Y-70248100I0J-140000D01*
G01*
X61711600Y-70528100D01*
G75*
G02*
X61571600Y-70668100I-140000J0D01*
G01*
X61231600Y-70668100D01*
G75*
G02*
X61091600Y-70528100I0J140000D01*
G01*
X61091600Y-70248100D01*
G75*
G02*
X61231600Y-70108100I140000J0D01*
G01*
G37*
G36*
G01*
X57771602Y-71626418D02*
X58012018Y-71386002D01*
G75*
G02*
X58210008Y-71386002I98995J-98995D01*
G01*
X58407998Y-71583992D01*
G75*
G02*
X58407998Y-71781982I-98995J-98995D01*
G01*
X58167582Y-72022398D01*
G75*
G02*
X57969592Y-72022398I-98995J98995D01*
G01*
X57771602Y-71824408D01*
G75*
G02*
X57771602Y-71626418I98995J98995D01*
G01*
G37*
G36*
G01*
X57092780Y-70947596D02*
X57333196Y-70707180D01*
G75*
G02*
X57531186Y-70707180I98995J-98995D01*
G01*
X57729176Y-70905170D01*
G75*
G02*
X57729176Y-71103160I-98995J-98995D01*
G01*
X57488760Y-71343576D01*
G75*
G02*
X57290770Y-71343576I-98995J98995D01*
G01*
X57092780Y-71145586D01*
G75*
G02*
X57092780Y-70947596I98995J98995D01*
G01*
G37*
D13*
X62247080Y-77625571D03*
X60047080Y-77625571D03*
X60047080Y-75925571D03*
X62247080Y-75925571D03*
D14*
X74339200Y-72825800D03*
X74339200Y-70325800D03*
G36*
G01*
X67318850Y-76196600D02*
X66406350Y-76196600D01*
G75*
G02*
X66162600Y-75952850I0J243750D01*
G01*
X66162600Y-75465350D01*
G75*
G02*
X66406350Y-75221600I243750J0D01*
G01*
X67318850Y-75221600D01*
G75*
G02*
X67562600Y-75465350I0J-243750D01*
G01*
X67562600Y-75952850D01*
G75*
G02*
X67318850Y-76196600I-243750J0D01*
G01*
G37*
G36*
G01*
X67318850Y-78071600D02*
X66406350Y-78071600D01*
G75*
G02*
X66162600Y-77827850I0J243750D01*
G01*
X66162600Y-77340350D01*
G75*
G02*
X66406350Y-77096600I243750J0D01*
G01*
X67318850Y-77096600D01*
G75*
G02*
X67562600Y-77340350I0J-243750D01*
G01*
X67562600Y-77827850D01*
G75*
G02*
X67318850Y-78071600I-243750J0D01*
G01*
G37*
G36*
G01*
X66211600Y-56399900D02*
X66211600Y-56224900D01*
G75*
G02*
X66299100Y-56137400I87500J0D01*
G01*
X66674100Y-56137400D01*
G75*
G02*
X66761600Y-56224900I0J-87500D01*
G01*
X66761600Y-56399900D01*
G75*
G02*
X66674100Y-56487400I-87500J0D01*
G01*
X66299100Y-56487400D01*
G75*
G02*
X66211600Y-56399900I0J87500D01*
G01*
G37*
G36*
G01*
X66211600Y-57399900D02*
X66211600Y-57224900D01*
G75*
G02*
X66299100Y-57137400I87500J0D01*
G01*
X66674100Y-57137400D01*
G75*
G02*
X66761600Y-57224900I0J-87500D01*
G01*
X66761600Y-57399900D01*
G75*
G02*
X66674100Y-57487400I-87500J0D01*
G01*
X66299100Y-57487400D01*
G75*
G02*
X66211600Y-57399900I0J87500D01*
G01*
G37*
G36*
G01*
X68811600Y-57224900D02*
X68811600Y-57399900D01*
G75*
G02*
X68724100Y-57487400I-87500J0D01*
G01*
X68349100Y-57487400D01*
G75*
G02*
X68261600Y-57399900I0J87500D01*
G01*
X68261600Y-57224900D01*
G75*
G02*
X68349100Y-57137400I87500J0D01*
G01*
X68724100Y-57137400D01*
G75*
G02*
X68811600Y-57224900I0J-87500D01*
G01*
G37*
G36*
G01*
X68811600Y-56224900D02*
X68811600Y-56399900D01*
G75*
G02*
X68724100Y-56487400I-87500J0D01*
G01*
X68349100Y-56487400D01*
G75*
G02*
X68261600Y-56399900I0J87500D01*
G01*
X68261600Y-56224900D01*
G75*
G02*
X68349100Y-56137400I87500J0D01*
G01*
X68724100Y-56137400D01*
G75*
G02*
X68811600Y-56224900I0J-87500D01*
G01*
G37*
G36*
G01*
X67261600Y-57387400D02*
X67261600Y-56237400D01*
G75*
G02*
X67386600Y-56112400I125000J0D01*
G01*
X67636600Y-56112400D01*
G75*
G02*
X67761600Y-56237400I0J-125000D01*
G01*
X67761600Y-57387400D01*
G75*
G02*
X67636600Y-57512400I-125000J0D01*
G01*
X67386600Y-57512400D01*
G75*
G02*
X67261600Y-57387400I0J125000D01*
G01*
G37*
M02*
