G04 #@! TF.GenerationSoftware,KiCad,Pcbnew,5.1.10*
G04 #@! TF.CreationDate,2021-11-09T15:36:01+02:00*
G04 #@! TF.ProjectId,PlantBuddy,506c616e-7442-4756-9464-792e6b696361,rev?*
G04 #@! TF.SameCoordinates,Original*
G04 #@! TF.FileFunction,Copper,L2,Bot*
G04 #@! TF.FilePolarity,Positive*
%FSLAX46Y46*%
G04 Gerber Fmt 4.6, Leading zero omitted, Abs format (unit mm)*
G04 Created by KiCad (PCBNEW 5.1.10) date 2021-11-09 15:36:01*
%MOMM*%
%LPD*%
G01*
G04 APERTURE LIST*
G04 #@! TA.AperFunction,ComponentPad*
%ADD10O,1.700000X1.700000*%
G04 #@! TD*
G04 #@! TA.AperFunction,ComponentPad*
%ADD11R,1.700000X1.700000*%
G04 #@! TD*
G04 #@! TA.AperFunction,SMDPad,CuDef*
%ADD12R,5.100000X2.500000*%
G04 #@! TD*
G04 #@! TA.AperFunction,SMDPad,CuDef*
%ADD13C,17.800000*%
G04 #@! TD*
G04 #@! TA.AperFunction,ComponentPad*
%ADD14C,0.500000*%
G04 #@! TD*
G04 #@! TA.AperFunction,SMDPad,CuDef*
%ADD15R,4.100000X4.100000*%
G04 #@! TD*
G04 #@! TA.AperFunction,ComponentPad*
%ADD16C,0.100000*%
G04 #@! TD*
G04 #@! TA.AperFunction,ViaPad*
%ADD17C,0.550000*%
G04 #@! TD*
G04 #@! TA.AperFunction,Conductor*
%ADD18C,0.152400*%
G04 #@! TD*
G04 #@! TA.AperFunction,Conductor*
%ADD19C,0.254000*%
G04 #@! TD*
G04 #@! TA.AperFunction,Conductor*
%ADD20C,0.100000*%
G04 #@! TD*
G04 APERTURE END LIST*
D10*
X79892280Y-62856371D03*
D11*
X79892280Y-65396371D03*
D12*
X65694200Y-75803000D03*
D13*
X65694200Y-64353000D03*
D12*
X65694200Y-52903000D03*
D14*
X67450100Y-72725600D03*
X66250100Y-72725600D03*
X65050100Y-72725600D03*
X63850100Y-72725600D03*
X67450100Y-71525600D03*
X66250100Y-71525600D03*
X65050100Y-71525600D03*
X63850100Y-71525600D03*
X67450100Y-70325600D03*
X66250100Y-70325600D03*
X65050100Y-70325600D03*
X63850100Y-70325600D03*
X67450100Y-69125600D03*
X66250100Y-69125600D03*
X65050100Y-69125600D03*
X63850100Y-69125600D03*
D15*
X65650100Y-70925600D03*
G04 #@! TA.AperFunction,ComponentPad*
D16*
G36*
X70219241Y-80863496D02*
G01*
X70220179Y-80863781D01*
X70221044Y-80864243D01*
X70221802Y-80864864D01*
X70222423Y-80865622D01*
X70222885Y-80866487D01*
X70223170Y-80867425D01*
X70223266Y-80868400D01*
X70223266Y-129340066D01*
X70223170Y-129341041D01*
X70222885Y-129341979D01*
X70222423Y-129342844D01*
X70221802Y-129343602D01*
X70221044Y-129344223D01*
X70220179Y-129344685D01*
X70219241Y-129344970D01*
X70218266Y-129345066D01*
X69219199Y-129345066D01*
X69218224Y-129344970D01*
X69217286Y-129344685D01*
X69216421Y-129344223D01*
X69215663Y-129343602D01*
X69215042Y-129342844D01*
X69214580Y-129341979D01*
X69214295Y-129341041D01*
X69214199Y-129340066D01*
X69214199Y-127143733D01*
X62623666Y-127143733D01*
X62622691Y-127143637D01*
X62621753Y-127143352D01*
X62620888Y-127142890D01*
X62620130Y-127142269D01*
X62619509Y-127141511D01*
X62619047Y-127140646D01*
X62618762Y-127139708D01*
X62618666Y-127138733D01*
X62618666Y-125132133D01*
X62618762Y-125131158D01*
X62619047Y-125130220D01*
X62619509Y-125129355D01*
X62620130Y-125128597D01*
X62620888Y-125127976D01*
X62621753Y-125127514D01*
X62622691Y-125127229D01*
X62623666Y-125127133D01*
X69214249Y-125127133D01*
X69209975Y-122736830D01*
X65919313Y-122734705D01*
X62623663Y-122732578D01*
X62622687Y-122732481D01*
X62621750Y-122732196D01*
X62620885Y-122731734D01*
X62620128Y-122731111D01*
X62619507Y-122730353D01*
X62619045Y-122729488D01*
X62618761Y-122728550D01*
X62618666Y-122727578D01*
X62618666Y-120729466D01*
X62618762Y-120728491D01*
X62619047Y-120727553D01*
X62619509Y-120726688D01*
X62620130Y-120725930D01*
X62620888Y-120725309D01*
X62621753Y-120724847D01*
X62622691Y-120724562D01*
X62623666Y-120724466D01*
X69214199Y-120724466D01*
X69214199Y-118329933D01*
X62623597Y-118329933D01*
X62622622Y-118329837D01*
X62621684Y-118329552D01*
X62620819Y-118329090D01*
X62620061Y-118328469D01*
X62619440Y-118327711D01*
X62618978Y-118326846D01*
X62618693Y-118325908D01*
X62618597Y-118324922D01*
X62620748Y-117323739D01*
X62622900Y-116322555D01*
X62622998Y-116321580D01*
X62623285Y-116320643D01*
X62623749Y-116319779D01*
X62624372Y-116319023D01*
X62625131Y-116318403D01*
X62625997Y-116317943D01*
X62626935Y-116317660D01*
X62627897Y-116317566D01*
X65923547Y-116315439D01*
X69214199Y-116313314D01*
X69214199Y-113927266D01*
X62623666Y-113927266D01*
X62622691Y-113927170D01*
X62621753Y-113926885D01*
X62620888Y-113926423D01*
X62620130Y-113925802D01*
X62619509Y-113925044D01*
X62619047Y-113924179D01*
X62618762Y-113923241D01*
X62618666Y-113922266D01*
X62618666Y-111915666D01*
X62618762Y-111914691D01*
X62619047Y-111913753D01*
X62619509Y-111912888D01*
X62620130Y-111912130D01*
X62620888Y-111911509D01*
X62621753Y-111911047D01*
X62622691Y-111910762D01*
X62623666Y-111910666D01*
X69214199Y-111910666D01*
X69214199Y-109516133D01*
X62623666Y-109516133D01*
X62622691Y-109516037D01*
X62621753Y-109515752D01*
X62620888Y-109515290D01*
X62620130Y-109514669D01*
X62619509Y-109513911D01*
X62619047Y-109513046D01*
X62618762Y-109512108D01*
X62618666Y-109511133D01*
X62618666Y-107513021D01*
X62618762Y-107512046D01*
X62619047Y-107511108D01*
X62619509Y-107510243D01*
X62620130Y-107509485D01*
X62620888Y-107508864D01*
X62621753Y-107508402D01*
X62622691Y-107508117D01*
X62623663Y-107508021D01*
X65919313Y-107505894D01*
X69209975Y-107503769D01*
X69214249Y-105113466D01*
X62623666Y-105113466D01*
X62622691Y-105113370D01*
X62621753Y-105113085D01*
X62620888Y-105112623D01*
X62620130Y-105112002D01*
X62619509Y-105111244D01*
X62619047Y-105110379D01*
X62618762Y-105109441D01*
X62618666Y-105108466D01*
X62618666Y-103101866D01*
X62618762Y-103100891D01*
X62619047Y-103099953D01*
X62619509Y-103099088D01*
X62620130Y-103098330D01*
X62620888Y-103097709D01*
X62621753Y-103097247D01*
X62622691Y-103096962D01*
X62623666Y-103096866D01*
X69214199Y-103096866D01*
X69214199Y-100702333D01*
X62623666Y-100702333D01*
X62622691Y-100702237D01*
X62621753Y-100701952D01*
X62620888Y-100701490D01*
X62620130Y-100700869D01*
X62619509Y-100700111D01*
X62619047Y-100699246D01*
X62618762Y-100698308D01*
X62618666Y-100697333D01*
X62618666Y-98699200D01*
X62618762Y-98698225D01*
X62619047Y-98697287D01*
X62619509Y-98696422D01*
X62620130Y-98695664D01*
X62620888Y-98695043D01*
X62621753Y-98694581D01*
X62622691Y-98694296D01*
X62623666Y-98694200D01*
X69214199Y-98694200D01*
X69214199Y-96299666D01*
X62623666Y-96299666D01*
X62622691Y-96299570D01*
X62621753Y-96299285D01*
X62620888Y-96298823D01*
X62620130Y-96298202D01*
X62619509Y-96297444D01*
X62619047Y-96296579D01*
X62618762Y-96295641D01*
X62618666Y-96294666D01*
X62618666Y-94288066D01*
X62618762Y-94287091D01*
X62619047Y-94286153D01*
X62619509Y-94285288D01*
X62620130Y-94284530D01*
X62620888Y-94283909D01*
X62621753Y-94283447D01*
X62622691Y-94283162D01*
X62623666Y-94283066D01*
X69214199Y-94283066D01*
X69214199Y-91888533D01*
X62623666Y-91888533D01*
X62622691Y-91888437D01*
X62621753Y-91888152D01*
X62620888Y-91887690D01*
X62620130Y-91887069D01*
X62619509Y-91886311D01*
X62619047Y-91885446D01*
X62618762Y-91884508D01*
X62618666Y-91883533D01*
X62618666Y-89885400D01*
X62618762Y-89884425D01*
X62619047Y-89883487D01*
X62619509Y-89882622D01*
X62620130Y-89881864D01*
X62620888Y-89881243D01*
X62621753Y-89880781D01*
X62622691Y-89880496D01*
X62623666Y-89880400D01*
X69214199Y-89880400D01*
X69214199Y-87485866D01*
X62623666Y-87485866D01*
X62622691Y-87485770D01*
X62621753Y-87485485D01*
X62620888Y-87485023D01*
X62620130Y-87484402D01*
X62619509Y-87483644D01*
X62619047Y-87482779D01*
X62618762Y-87481841D01*
X62618666Y-87480866D01*
X62618666Y-85474266D01*
X62618762Y-85473291D01*
X62619047Y-85472353D01*
X62619509Y-85471488D01*
X62620130Y-85470730D01*
X62620888Y-85470109D01*
X62621753Y-85469647D01*
X62622691Y-85469362D01*
X62623666Y-85469266D01*
X69214199Y-85469266D01*
X69214199Y-83074733D01*
X62623666Y-83074733D01*
X62622691Y-83074637D01*
X62621753Y-83074352D01*
X62620888Y-83073890D01*
X62620130Y-83073269D01*
X62619509Y-83072511D01*
X62619047Y-83071646D01*
X62618762Y-83070708D01*
X62618666Y-83069733D01*
X62618666Y-81071600D01*
X62618762Y-81070625D01*
X62619047Y-81069687D01*
X62619509Y-81068822D01*
X62620130Y-81068064D01*
X62620888Y-81067443D01*
X62621753Y-81066981D01*
X62622691Y-81066696D01*
X62623666Y-81066600D01*
X69214199Y-81066600D01*
X69214199Y-80868400D01*
X69214295Y-80867425D01*
X69214580Y-80866487D01*
X69215042Y-80865622D01*
X69215663Y-80864864D01*
X69216421Y-80864243D01*
X69217286Y-80863781D01*
X69218224Y-80863496D01*
X69219199Y-80863400D01*
X70218266Y-80863400D01*
X70219241Y-80863496D01*
G37*
G04 #@! TD.AperFunction*
G04 #@! TA.AperFunction,ComponentPad*
G36*
X62218241Y-80863496D02*
G01*
X62219179Y-80863781D01*
X62220044Y-80864243D01*
X62220802Y-80864864D01*
X62221423Y-80865622D01*
X62221885Y-80866487D01*
X62222170Y-80867425D01*
X62222266Y-80868400D01*
X62222266Y-83267933D01*
X68812799Y-83267933D01*
X68813774Y-83268029D01*
X68814712Y-83268314D01*
X68815577Y-83268776D01*
X68816335Y-83269397D01*
X68816956Y-83270155D01*
X68817418Y-83271020D01*
X68817703Y-83271958D01*
X68817799Y-83272933D01*
X68817799Y-85279533D01*
X68817703Y-85280508D01*
X68817418Y-85281446D01*
X68816956Y-85282311D01*
X68816335Y-85283069D01*
X68815577Y-85283690D01*
X68814712Y-85284152D01*
X68813774Y-85284437D01*
X68812799Y-85284533D01*
X62222217Y-85284533D01*
X62224354Y-86479674D01*
X62226490Y-87674836D01*
X65517153Y-87676960D01*
X68812803Y-87679088D01*
X68813779Y-87679185D01*
X68814716Y-87679470D01*
X68815581Y-87679932D01*
X68816338Y-87680555D01*
X68816959Y-87681313D01*
X68817421Y-87682178D01*
X68817705Y-87683116D01*
X68817800Y-87684088D01*
X68817799Y-88683144D01*
X68817799Y-89682200D01*
X68817703Y-89683175D01*
X68817418Y-89684113D01*
X68816956Y-89684978D01*
X68816335Y-89685736D01*
X68815577Y-89686357D01*
X68814712Y-89686819D01*
X68813774Y-89687104D01*
X68812799Y-89687200D01*
X62222266Y-89687200D01*
X62222266Y-92081733D01*
X68812869Y-92081733D01*
X68813844Y-92081829D01*
X68814782Y-92082114D01*
X68815647Y-92082576D01*
X68816405Y-92083197D01*
X68817026Y-92083955D01*
X68817488Y-92084820D01*
X68817773Y-92085758D01*
X68817869Y-92086744D01*
X68815718Y-93087927D01*
X68813566Y-94089110D01*
X68813468Y-94090085D01*
X68813181Y-94091022D01*
X68812717Y-94091886D01*
X68812094Y-94092642D01*
X68811335Y-94093262D01*
X68810469Y-94093722D01*
X68809531Y-94094005D01*
X68808569Y-94094099D01*
X65512919Y-94096227D01*
X62222266Y-94098351D01*
X62222266Y-96484399D01*
X68812799Y-96484399D01*
X68813774Y-96484495D01*
X68814712Y-96484780D01*
X68815577Y-96485242D01*
X68816335Y-96485863D01*
X68816956Y-96486621D01*
X68817418Y-96487486D01*
X68817703Y-96488424D01*
X68817799Y-96489399D01*
X68817799Y-98496000D01*
X68817703Y-98496975D01*
X68817418Y-98497913D01*
X68816956Y-98498778D01*
X68816335Y-98499536D01*
X68815577Y-98500157D01*
X68814712Y-98500619D01*
X68813774Y-98500904D01*
X68812799Y-98501000D01*
X62222266Y-98501000D01*
X62222266Y-100895533D01*
X68812799Y-100895533D01*
X68813774Y-100895629D01*
X68814712Y-100895914D01*
X68815577Y-100896376D01*
X68816335Y-100896997D01*
X68816956Y-100897755D01*
X68817418Y-100898620D01*
X68817703Y-100899558D01*
X68817799Y-100900533D01*
X68817799Y-101899589D01*
X68817800Y-102898645D01*
X68817704Y-102899620D01*
X68817419Y-102900558D01*
X68816957Y-102901423D01*
X68816336Y-102902181D01*
X68815578Y-102902802D01*
X68814713Y-102903264D01*
X68813775Y-102903549D01*
X68812803Y-102903645D01*
X65517153Y-102905772D01*
X62226490Y-102907897D01*
X62224354Y-104103059D01*
X62222217Y-105298200D01*
X68812799Y-105298200D01*
X68813774Y-105298296D01*
X68814712Y-105298581D01*
X68815577Y-105299043D01*
X68816335Y-105299664D01*
X68816956Y-105300422D01*
X68817418Y-105301287D01*
X68817703Y-105302225D01*
X68817799Y-105303200D01*
X68817799Y-107309799D01*
X68817703Y-107310774D01*
X68817418Y-107311712D01*
X68816956Y-107312577D01*
X68816335Y-107313335D01*
X68815577Y-107313956D01*
X68814712Y-107314418D01*
X68813774Y-107314703D01*
X68812799Y-107314799D01*
X62222266Y-107314799D01*
X62222266Y-109709333D01*
X68812799Y-109709333D01*
X68813774Y-109709429D01*
X68814712Y-109709714D01*
X68815577Y-109710176D01*
X68816335Y-109710797D01*
X68816956Y-109711555D01*
X68817418Y-109712420D01*
X68817703Y-109713358D01*
X68817799Y-109714333D01*
X68817799Y-111712466D01*
X68817703Y-111713441D01*
X68817418Y-111714379D01*
X68816956Y-111715244D01*
X68816335Y-111716002D01*
X68815577Y-111716623D01*
X68814712Y-111717085D01*
X68813774Y-111717370D01*
X68812799Y-111717466D01*
X62222266Y-111717466D01*
X62222266Y-114111999D01*
X68812799Y-114111999D01*
X68813774Y-114112095D01*
X68814712Y-114112380D01*
X68815577Y-114112842D01*
X68816335Y-114113463D01*
X68816956Y-114114221D01*
X68817418Y-114115086D01*
X68817703Y-114116024D01*
X68817799Y-114116999D01*
X68817799Y-116123600D01*
X68817703Y-116124575D01*
X68817418Y-116125513D01*
X68816956Y-116126378D01*
X68816335Y-116127136D01*
X68815577Y-116127757D01*
X68814712Y-116128219D01*
X68813774Y-116128504D01*
X68812799Y-116128600D01*
X62222266Y-116128600D01*
X62222266Y-118523133D01*
X68812799Y-118523133D01*
X68813774Y-118523229D01*
X68814712Y-118523514D01*
X68815577Y-118523976D01*
X68816335Y-118524597D01*
X68816956Y-118525355D01*
X68817418Y-118526220D01*
X68817703Y-118527158D01*
X68817799Y-118528133D01*
X68817799Y-120526266D01*
X68817703Y-120527241D01*
X68817418Y-120528179D01*
X68816956Y-120529044D01*
X68816335Y-120529802D01*
X68815577Y-120530423D01*
X68814712Y-120530885D01*
X68813774Y-120531170D01*
X68812799Y-120531266D01*
X62222266Y-120531266D01*
X62222266Y-122925800D01*
X68812799Y-122925800D01*
X68813774Y-122925896D01*
X68814712Y-122926181D01*
X68815577Y-122926643D01*
X68816335Y-122927264D01*
X68816956Y-122928022D01*
X68817418Y-122928887D01*
X68817703Y-122929825D01*
X68817799Y-122930800D01*
X68817799Y-124937400D01*
X68817703Y-124938375D01*
X68817418Y-124939313D01*
X68816956Y-124940178D01*
X68816335Y-124940936D01*
X68815577Y-124941557D01*
X68814712Y-124942019D01*
X68813774Y-124942304D01*
X68812799Y-124942400D01*
X62222266Y-124942400D01*
X62222266Y-127336933D01*
X68812799Y-127336933D01*
X68813774Y-127337029D01*
X68814712Y-127337314D01*
X68815577Y-127337776D01*
X68816335Y-127338397D01*
X68816956Y-127339155D01*
X68817418Y-127340020D01*
X68817703Y-127340958D01*
X68817799Y-127341933D01*
X68817799Y-129340066D01*
X68817703Y-129341041D01*
X68817418Y-129341979D01*
X68816956Y-129342844D01*
X68816335Y-129343602D01*
X68815577Y-129344223D01*
X68814712Y-129344685D01*
X68813774Y-129344970D01*
X68812799Y-129345066D01*
X61218200Y-129345066D01*
X61217225Y-129344970D01*
X61216287Y-129344685D01*
X61215422Y-129344223D01*
X61214664Y-129343602D01*
X61214043Y-129342844D01*
X61213581Y-129341979D01*
X61213296Y-129341041D01*
X61213200Y-129340066D01*
X61213200Y-80868400D01*
X61213296Y-80867425D01*
X61213581Y-80866487D01*
X61214043Y-80865622D01*
X61214664Y-80864864D01*
X61215422Y-80864243D01*
X61216287Y-80863781D01*
X61217225Y-80863496D01*
X61218200Y-80863400D01*
X62217266Y-80863400D01*
X62218241Y-80863496D01*
G37*
G04 #@! TD.AperFunction*
D17*
X62575090Y-74108571D03*
X68792480Y-73854571D03*
X70316480Y-70400171D03*
X55016400Y-64414400D03*
X70874780Y-79929033D03*
X72801358Y-79166246D03*
X74617142Y-78168011D03*
X76293496Y-76950069D03*
X77803982Y-75531627D03*
X79124780Y-73935057D03*
X80235060Y-72185536D03*
X81117312Y-70310655D03*
X81757622Y-68339983D03*
X82145893Y-66304598D03*
X82276000Y-64236600D03*
X82145893Y-62168602D03*
X81757622Y-60133217D03*
X81117312Y-58162545D03*
X80235060Y-56287664D03*
X79124780Y-54538143D03*
X77803982Y-52941573D03*
X76293496Y-51523131D03*
X74617142Y-50305189D03*
X72801358Y-49306954D03*
X70874780Y-48544167D03*
X68867792Y-48028860D03*
X66812044Y-47769159D03*
X64739956Y-47769159D03*
X62684208Y-48028860D03*
X60677220Y-48544167D03*
X59140480Y-49089571D03*
X55099196Y-65730399D03*
X55346277Y-67025644D03*
X55753747Y-68279708D03*
X56315180Y-69472814D03*
X58823448Y-72504789D03*
X58823448Y-56324011D03*
X57862229Y-57226655D03*
X57021722Y-58242655D03*
X56315180Y-59355986D03*
X55753747Y-60549092D03*
X55346277Y-61803156D03*
X55099196Y-63098401D03*
X77860280Y-72381371D03*
X77834880Y-70781171D03*
X74863080Y-75886571D03*
X64068080Y-79467971D03*
X59292880Y-55464971D03*
X58302280Y-62729371D03*
X67522480Y-55388771D03*
X65769843Y-55302980D03*
X60677220Y-79929033D03*
X59369080Y-73346571D03*
X59165880Y-50588171D03*
X59191280Y-52061371D03*
X59191280Y-53661571D03*
X59422480Y-74537771D03*
X65706377Y-52891763D03*
X77250680Y-67631571D03*
X78165080Y-65142371D03*
X77657080Y-68469771D03*
X80298680Y-67098171D03*
D18*
X62575090Y-74108571D02*
X68538480Y-74108571D01*
X68538480Y-74108571D02*
X68792480Y-73854571D01*
X77250680Y-67631571D02*
X78165080Y-66717171D01*
X78165080Y-66717171D02*
X78165080Y-65142371D01*
X79028680Y-67098171D02*
X80298680Y-67098171D01*
X77657080Y-68469771D02*
X79028680Y-67098171D01*
D19*
X66891529Y-47657860D02*
X68464836Y-47842638D01*
X70013759Y-48174655D01*
X71524584Y-48650971D01*
X72983860Y-49267348D01*
X74378663Y-50018323D01*
X75696602Y-50897227D01*
X76925977Y-51896258D01*
X78055880Y-53006550D01*
X79076279Y-54218247D01*
X79978124Y-55520602D01*
X80753402Y-56902045D01*
X81395228Y-58350302D01*
X81897920Y-59852554D01*
X82257002Y-61395431D01*
X82469295Y-62965266D01*
X82532911Y-64548093D01*
X82447286Y-66129904D01*
X82213180Y-67696635D01*
X81832675Y-69234362D01*
X81309138Y-70729476D01*
X80647228Y-72168677D01*
X79852815Y-73539197D01*
X78932942Y-74828884D01*
X77895794Y-76026266D01*
X76750550Y-77120744D01*
X75507410Y-78102571D01*
X74177366Y-78963066D01*
X72772259Y-79694566D01*
X71297335Y-80293517D01*
X70727612Y-80478649D01*
X70716002Y-80461252D01*
X70715381Y-80460494D01*
X70626172Y-80371285D01*
X70625414Y-80370664D01*
X70521651Y-80301419D01*
X70520786Y-80300957D01*
X70405676Y-80253268D01*
X70404738Y-80252983D01*
X70281764Y-80228495D01*
X70280789Y-80228399D01*
X70218266Y-80225328D01*
X69219199Y-80225328D01*
X69156676Y-80228399D01*
X69155701Y-80228495D01*
X69032727Y-80252983D01*
X69031789Y-80253268D01*
X68916679Y-80300957D01*
X68915814Y-80301419D01*
X68812051Y-80370664D01*
X68811293Y-80371285D01*
X68754050Y-80428528D01*
X62623666Y-80428528D01*
X62561143Y-80431599D01*
X62560168Y-80431695D01*
X62437194Y-80456183D01*
X62436256Y-80456468D01*
X62321146Y-80504157D01*
X62320281Y-80504619D01*
X62216518Y-80573864D01*
X62215760Y-80574485D01*
X62126551Y-80663694D01*
X62125930Y-80664452D01*
X62056685Y-80768215D01*
X62056223Y-80769080D01*
X62008534Y-80884190D01*
X62008249Y-80885128D01*
X61983761Y-81008102D01*
X61983665Y-81009077D01*
X61980594Y-81071600D01*
X61980594Y-83069733D01*
X61983665Y-83132256D01*
X61983761Y-83133231D01*
X62008249Y-83256205D01*
X62008534Y-83257143D01*
X62056223Y-83372253D01*
X62056685Y-83373118D01*
X62125930Y-83476881D01*
X62126551Y-83477639D01*
X62215760Y-83566848D01*
X62216518Y-83567469D01*
X62320281Y-83636714D01*
X62321146Y-83637176D01*
X62436256Y-83684865D01*
X62437194Y-83685150D01*
X62560168Y-83709638D01*
X62561143Y-83709734D01*
X62623666Y-83712805D01*
X68576127Y-83712805D01*
X68576127Y-84831194D01*
X62623666Y-84831194D01*
X62561143Y-84834265D01*
X62560168Y-84834361D01*
X62437194Y-84858849D01*
X62436256Y-84859134D01*
X62321146Y-84906823D01*
X62320281Y-84907285D01*
X62216518Y-84976530D01*
X62215760Y-84977151D01*
X62126551Y-85066360D01*
X62125930Y-85067118D01*
X62056685Y-85170881D01*
X62056223Y-85171746D01*
X62008534Y-85286856D01*
X62008249Y-85287794D01*
X61983761Y-85410768D01*
X61983665Y-85411743D01*
X61980594Y-85474266D01*
X61980594Y-87403178D01*
X61404080Y-87411363D01*
X61404080Y-81227930D01*
X61404811Y-81217472D01*
X61404080Y-81187604D01*
X61404080Y-81168033D01*
X61403443Y-81161562D01*
X61403232Y-81152956D01*
X61399575Y-81122295D01*
X61394168Y-81067397D01*
X61382943Y-81030394D01*
X61381949Y-81025796D01*
X61372797Y-80996945D01*
X61354999Y-80938274D01*
X61337478Y-80905495D01*
X61337216Y-80904877D01*
X61331297Y-80893931D01*
X61291392Y-80819273D01*
X61205790Y-80714969D01*
X61101486Y-80629368D01*
X60982485Y-80565761D01*
X60932836Y-80550700D01*
X59420775Y-80021229D01*
X59324955Y-79977160D01*
X59250442Y-74018944D01*
X61665090Y-74018944D01*
X61665090Y-74198198D01*
X61700061Y-74374008D01*
X61768659Y-74539618D01*
X61868247Y-74688662D01*
X61994999Y-74815414D01*
X62144043Y-74915002D01*
X62309653Y-74983600D01*
X62485463Y-75018571D01*
X62506128Y-75018571D01*
X62506128Y-77053000D01*
X62518388Y-77177482D01*
X62554698Y-77297180D01*
X62613663Y-77407494D01*
X62693015Y-77504185D01*
X62789706Y-77583537D01*
X62900020Y-77642502D01*
X63019718Y-77678812D01*
X63144200Y-77691072D01*
X68244200Y-77691072D01*
X68368682Y-77678812D01*
X68488380Y-77642502D01*
X68598694Y-77583537D01*
X68695385Y-77504185D01*
X68774737Y-77407494D01*
X68833702Y-77297180D01*
X68870012Y-77177482D01*
X68882272Y-77053000D01*
X68882272Y-74764538D01*
X69057917Y-74729600D01*
X69223527Y-74661002D01*
X69372571Y-74561414D01*
X69499323Y-74434662D01*
X69598911Y-74285618D01*
X69667509Y-74120008D01*
X69702480Y-73944198D01*
X69702480Y-73764944D01*
X69667509Y-73589134D01*
X69598911Y-73423524D01*
X69499323Y-73274480D01*
X69372571Y-73147728D01*
X69223527Y-73048140D01*
X69057917Y-72979542D01*
X68882107Y-72944571D01*
X68702853Y-72944571D01*
X68527043Y-72979542D01*
X68361433Y-73048140D01*
X68328886Y-73069887D01*
X68338172Y-72975600D01*
X68335100Y-71211350D01*
X68237579Y-71113829D01*
X68234927Y-71107426D01*
X68231094Y-71107344D01*
X68176350Y-71052600D01*
X67869513Y-71052600D01*
X67872148Y-70929604D01*
X67872316Y-70929436D01*
X67872234Y-70925600D01*
X67872316Y-70921764D01*
X67872148Y-70921596D01*
X67869513Y-70798600D01*
X68176350Y-70798600D01*
X68231094Y-70743856D01*
X68234927Y-70743774D01*
X68237563Y-70737387D01*
X68335100Y-70639850D01*
X68338172Y-68875600D01*
X68325912Y-68751118D01*
X68289602Y-68631420D01*
X68230637Y-68521106D01*
X68151285Y-68424415D01*
X68054594Y-68345063D01*
X67944280Y-68286098D01*
X67824582Y-68249788D01*
X67700100Y-68237528D01*
X65935850Y-68240600D01*
X65838329Y-68338121D01*
X65831926Y-68340773D01*
X65831844Y-68344606D01*
X65777100Y-68399350D01*
X65777100Y-68706187D01*
X65654104Y-68703552D01*
X65653936Y-68703384D01*
X65650100Y-68703466D01*
X65646264Y-68703384D01*
X65646096Y-68703552D01*
X65523100Y-68706187D01*
X65523100Y-68399350D01*
X65468356Y-68344606D01*
X65468274Y-68340773D01*
X65461887Y-68338137D01*
X65364350Y-68240600D01*
X63600100Y-68237528D01*
X63475618Y-68249788D01*
X63355920Y-68286098D01*
X63245606Y-68345063D01*
X63148915Y-68424415D01*
X63069563Y-68521106D01*
X63010598Y-68631420D01*
X62974288Y-68751118D01*
X62962028Y-68875600D01*
X62965100Y-70639850D01*
X63062621Y-70737371D01*
X63065273Y-70743774D01*
X63069106Y-70743856D01*
X63123850Y-70798600D01*
X63430687Y-70798600D01*
X63428052Y-70921596D01*
X63427884Y-70921764D01*
X63427966Y-70925600D01*
X63427884Y-70929436D01*
X63428052Y-70929604D01*
X63430687Y-71052600D01*
X63123850Y-71052600D01*
X63069106Y-71107344D01*
X63065273Y-71107426D01*
X63062637Y-71113813D01*
X62965100Y-71211350D01*
X62962028Y-72975600D01*
X62974288Y-73100082D01*
X63010598Y-73219780D01*
X63069563Y-73330094D01*
X63095776Y-73362035D01*
X63006137Y-73302140D01*
X62840527Y-73233542D01*
X62664717Y-73198571D01*
X62485463Y-73198571D01*
X62309653Y-73233542D01*
X62144043Y-73302140D01*
X61994999Y-73401728D01*
X61868247Y-73528480D01*
X61768659Y-73677524D01*
X61700061Y-73843134D01*
X61665090Y-74018944D01*
X59250442Y-74018944D01*
X59247339Y-73770864D01*
X59244589Y-73746120D01*
X59237065Y-73722388D01*
X59225055Y-73700580D01*
X59203084Y-73676099D01*
X58566267Y-73129290D01*
X57743211Y-72383315D01*
X57000287Y-71563624D01*
X56341291Y-70675071D01*
X55772555Y-69726193D01*
X55299563Y-68726135D01*
X54926877Y-67684546D01*
X54891158Y-67541944D01*
X76340680Y-67541944D01*
X76340680Y-67721198D01*
X76375651Y-67897008D01*
X76444249Y-68062618D01*
X76543837Y-68211662D01*
X76670589Y-68338414D01*
X76747080Y-68389524D01*
X76747080Y-68559398D01*
X76782051Y-68735208D01*
X76850649Y-68900818D01*
X76950237Y-69049862D01*
X77076989Y-69176614D01*
X77226033Y-69276202D01*
X77391643Y-69344800D01*
X77567453Y-69379771D01*
X77746707Y-69379771D01*
X77922517Y-69344800D01*
X78088127Y-69276202D01*
X78237171Y-69176614D01*
X78363923Y-69049862D01*
X78463511Y-68900818D01*
X78532109Y-68735208D01*
X78565550Y-68567088D01*
X79323269Y-67809371D01*
X79725110Y-67809371D01*
X79867633Y-67904602D01*
X80033243Y-67973200D01*
X80209053Y-68008171D01*
X80388307Y-68008171D01*
X80564117Y-67973200D01*
X80729727Y-67904602D01*
X80878771Y-67805014D01*
X81005523Y-67678262D01*
X81105111Y-67529218D01*
X81173709Y-67363608D01*
X81208680Y-67187798D01*
X81208680Y-67008544D01*
X81173709Y-66832734D01*
X81136933Y-66743950D01*
X81193465Y-66697556D01*
X81272817Y-66600865D01*
X81331782Y-66490551D01*
X81368092Y-66370853D01*
X81380352Y-66246371D01*
X81380352Y-64546371D01*
X81368092Y-64421889D01*
X81331782Y-64302191D01*
X81272817Y-64191877D01*
X81193465Y-64095186D01*
X81096774Y-64015834D01*
X80986460Y-63956869D01*
X80913900Y-63934858D01*
X81045755Y-63803003D01*
X81208270Y-63559782D01*
X81320212Y-63289529D01*
X81377280Y-63002631D01*
X81377280Y-62710111D01*
X81320212Y-62423213D01*
X81208270Y-62152960D01*
X81045755Y-61909739D01*
X80838912Y-61702896D01*
X80595691Y-61540381D01*
X80325438Y-61428439D01*
X80038540Y-61371371D01*
X79746020Y-61371371D01*
X79459122Y-61428439D01*
X79188869Y-61540381D01*
X78945648Y-61702896D01*
X78738805Y-61909739D01*
X78576290Y-62152960D01*
X78464348Y-62423213D01*
X78407280Y-62710111D01*
X78407280Y-63002631D01*
X78464348Y-63289529D01*
X78576290Y-63559782D01*
X78738805Y-63803003D01*
X78870660Y-63934858D01*
X78798100Y-63956869D01*
X78687786Y-64015834D01*
X78591095Y-64095186D01*
X78511743Y-64191877D01*
X78463994Y-64281208D01*
X78430517Y-64267342D01*
X78254707Y-64232371D01*
X78075453Y-64232371D01*
X77899643Y-64267342D01*
X77734033Y-64335940D01*
X77584989Y-64435528D01*
X77458237Y-64562280D01*
X77358649Y-64711324D01*
X77290051Y-64876934D01*
X77255080Y-65052744D01*
X77255080Y-65231998D01*
X77290051Y-65407808D01*
X77358649Y-65573418D01*
X77453881Y-65715942D01*
X77453880Y-66422583D01*
X77153363Y-66723101D01*
X76985243Y-66756542D01*
X76819633Y-66825140D01*
X76670589Y-66924728D01*
X76543837Y-67051480D01*
X76444249Y-67200524D01*
X76375651Y-67366134D01*
X76340680Y-67541944D01*
X54891158Y-67541944D01*
X54658074Y-66611426D01*
X54495753Y-65517145D01*
X54441470Y-64412209D01*
X54495753Y-63307273D01*
X54658074Y-62212992D01*
X54926877Y-61139872D01*
X55299563Y-60098283D01*
X55772555Y-59098225D01*
X56341291Y-58149347D01*
X57000287Y-57260794D01*
X57743211Y-56441103D01*
X58562900Y-55698180D01*
X58755089Y-55555644D01*
X58773537Y-55538924D01*
X58788367Y-55518927D01*
X58799012Y-55496421D01*
X58805061Y-55472271D01*
X58806436Y-55453663D01*
X58807247Y-51653000D01*
X62506128Y-51653000D01*
X62506128Y-54153000D01*
X62518388Y-54277482D01*
X62554698Y-54397180D01*
X62613663Y-54507494D01*
X62693015Y-54604185D01*
X62789706Y-54683537D01*
X62900020Y-54742502D01*
X63019718Y-54778812D01*
X63144200Y-54791072D01*
X68244200Y-54791072D01*
X68368682Y-54778812D01*
X68488380Y-54742502D01*
X68598694Y-54683537D01*
X68695385Y-54604185D01*
X68774737Y-54507494D01*
X68833702Y-54397180D01*
X68870012Y-54277482D01*
X68882272Y-54153000D01*
X68882272Y-51653000D01*
X68870012Y-51528518D01*
X68833702Y-51408820D01*
X68774737Y-51298506D01*
X68695385Y-51201815D01*
X68598694Y-51122463D01*
X68488380Y-51063498D01*
X68368682Y-51027188D01*
X68244200Y-51014928D01*
X63144200Y-51014928D01*
X63019718Y-51027188D01*
X62900020Y-51063498D01*
X62789706Y-51122463D01*
X62693015Y-51201815D01*
X62613663Y-51298506D01*
X62554698Y-51408820D01*
X62518388Y-51528518D01*
X62506128Y-51653000D01*
X58807247Y-51653000D01*
X58807789Y-49117897D01*
X59148822Y-48953758D01*
X60634524Y-48404135D01*
X62165368Y-47996765D01*
X63727757Y-47735267D01*
X65307823Y-47621964D01*
X66891529Y-47657860D01*
G04 #@! TA.AperFunction,Conductor*
D20*
G36*
X66891529Y-47657860D02*
G01*
X68464836Y-47842638D01*
X70013759Y-48174655D01*
X71524584Y-48650971D01*
X72983860Y-49267348D01*
X74378663Y-50018323D01*
X75696602Y-50897227D01*
X76925977Y-51896258D01*
X78055880Y-53006550D01*
X79076279Y-54218247D01*
X79978124Y-55520602D01*
X80753402Y-56902045D01*
X81395228Y-58350302D01*
X81897920Y-59852554D01*
X82257002Y-61395431D01*
X82469295Y-62965266D01*
X82532911Y-64548093D01*
X82447286Y-66129904D01*
X82213180Y-67696635D01*
X81832675Y-69234362D01*
X81309138Y-70729476D01*
X80647228Y-72168677D01*
X79852815Y-73539197D01*
X78932942Y-74828884D01*
X77895794Y-76026266D01*
X76750550Y-77120744D01*
X75507410Y-78102571D01*
X74177366Y-78963066D01*
X72772259Y-79694566D01*
X71297335Y-80293517D01*
X70727612Y-80478649D01*
X70716002Y-80461252D01*
X70715381Y-80460494D01*
X70626172Y-80371285D01*
X70625414Y-80370664D01*
X70521651Y-80301419D01*
X70520786Y-80300957D01*
X70405676Y-80253268D01*
X70404738Y-80252983D01*
X70281764Y-80228495D01*
X70280789Y-80228399D01*
X70218266Y-80225328D01*
X69219199Y-80225328D01*
X69156676Y-80228399D01*
X69155701Y-80228495D01*
X69032727Y-80252983D01*
X69031789Y-80253268D01*
X68916679Y-80300957D01*
X68915814Y-80301419D01*
X68812051Y-80370664D01*
X68811293Y-80371285D01*
X68754050Y-80428528D01*
X62623666Y-80428528D01*
X62561143Y-80431599D01*
X62560168Y-80431695D01*
X62437194Y-80456183D01*
X62436256Y-80456468D01*
X62321146Y-80504157D01*
X62320281Y-80504619D01*
X62216518Y-80573864D01*
X62215760Y-80574485D01*
X62126551Y-80663694D01*
X62125930Y-80664452D01*
X62056685Y-80768215D01*
X62056223Y-80769080D01*
X62008534Y-80884190D01*
X62008249Y-80885128D01*
X61983761Y-81008102D01*
X61983665Y-81009077D01*
X61980594Y-81071600D01*
X61980594Y-83069733D01*
X61983665Y-83132256D01*
X61983761Y-83133231D01*
X62008249Y-83256205D01*
X62008534Y-83257143D01*
X62056223Y-83372253D01*
X62056685Y-83373118D01*
X62125930Y-83476881D01*
X62126551Y-83477639D01*
X62215760Y-83566848D01*
X62216518Y-83567469D01*
X62320281Y-83636714D01*
X62321146Y-83637176D01*
X62436256Y-83684865D01*
X62437194Y-83685150D01*
X62560168Y-83709638D01*
X62561143Y-83709734D01*
X62623666Y-83712805D01*
X68576127Y-83712805D01*
X68576127Y-84831194D01*
X62623666Y-84831194D01*
X62561143Y-84834265D01*
X62560168Y-84834361D01*
X62437194Y-84858849D01*
X62436256Y-84859134D01*
X62321146Y-84906823D01*
X62320281Y-84907285D01*
X62216518Y-84976530D01*
X62215760Y-84977151D01*
X62126551Y-85066360D01*
X62125930Y-85067118D01*
X62056685Y-85170881D01*
X62056223Y-85171746D01*
X62008534Y-85286856D01*
X62008249Y-85287794D01*
X61983761Y-85410768D01*
X61983665Y-85411743D01*
X61980594Y-85474266D01*
X61980594Y-87403178D01*
X61404080Y-87411363D01*
X61404080Y-81227930D01*
X61404811Y-81217472D01*
X61404080Y-81187604D01*
X61404080Y-81168033D01*
X61403443Y-81161562D01*
X61403232Y-81152956D01*
X61399575Y-81122295D01*
X61394168Y-81067397D01*
X61382943Y-81030394D01*
X61381949Y-81025796D01*
X61372797Y-80996945D01*
X61354999Y-80938274D01*
X61337478Y-80905495D01*
X61337216Y-80904877D01*
X61331297Y-80893931D01*
X61291392Y-80819273D01*
X61205790Y-80714969D01*
X61101486Y-80629368D01*
X60982485Y-80565761D01*
X60932836Y-80550700D01*
X59420775Y-80021229D01*
X59324955Y-79977160D01*
X59250442Y-74018944D01*
X61665090Y-74018944D01*
X61665090Y-74198198D01*
X61700061Y-74374008D01*
X61768659Y-74539618D01*
X61868247Y-74688662D01*
X61994999Y-74815414D01*
X62144043Y-74915002D01*
X62309653Y-74983600D01*
X62485463Y-75018571D01*
X62506128Y-75018571D01*
X62506128Y-77053000D01*
X62518388Y-77177482D01*
X62554698Y-77297180D01*
X62613663Y-77407494D01*
X62693015Y-77504185D01*
X62789706Y-77583537D01*
X62900020Y-77642502D01*
X63019718Y-77678812D01*
X63144200Y-77691072D01*
X68244200Y-77691072D01*
X68368682Y-77678812D01*
X68488380Y-77642502D01*
X68598694Y-77583537D01*
X68695385Y-77504185D01*
X68774737Y-77407494D01*
X68833702Y-77297180D01*
X68870012Y-77177482D01*
X68882272Y-77053000D01*
X68882272Y-74764538D01*
X69057917Y-74729600D01*
X69223527Y-74661002D01*
X69372571Y-74561414D01*
X69499323Y-74434662D01*
X69598911Y-74285618D01*
X69667509Y-74120008D01*
X69702480Y-73944198D01*
X69702480Y-73764944D01*
X69667509Y-73589134D01*
X69598911Y-73423524D01*
X69499323Y-73274480D01*
X69372571Y-73147728D01*
X69223527Y-73048140D01*
X69057917Y-72979542D01*
X68882107Y-72944571D01*
X68702853Y-72944571D01*
X68527043Y-72979542D01*
X68361433Y-73048140D01*
X68328886Y-73069887D01*
X68338172Y-72975600D01*
X68335100Y-71211350D01*
X68237579Y-71113829D01*
X68234927Y-71107426D01*
X68231094Y-71107344D01*
X68176350Y-71052600D01*
X67869513Y-71052600D01*
X67872148Y-70929604D01*
X67872316Y-70929436D01*
X67872234Y-70925600D01*
X67872316Y-70921764D01*
X67872148Y-70921596D01*
X67869513Y-70798600D01*
X68176350Y-70798600D01*
X68231094Y-70743856D01*
X68234927Y-70743774D01*
X68237563Y-70737387D01*
X68335100Y-70639850D01*
X68338172Y-68875600D01*
X68325912Y-68751118D01*
X68289602Y-68631420D01*
X68230637Y-68521106D01*
X68151285Y-68424415D01*
X68054594Y-68345063D01*
X67944280Y-68286098D01*
X67824582Y-68249788D01*
X67700100Y-68237528D01*
X65935850Y-68240600D01*
X65838329Y-68338121D01*
X65831926Y-68340773D01*
X65831844Y-68344606D01*
X65777100Y-68399350D01*
X65777100Y-68706187D01*
X65654104Y-68703552D01*
X65653936Y-68703384D01*
X65650100Y-68703466D01*
X65646264Y-68703384D01*
X65646096Y-68703552D01*
X65523100Y-68706187D01*
X65523100Y-68399350D01*
X65468356Y-68344606D01*
X65468274Y-68340773D01*
X65461887Y-68338137D01*
X65364350Y-68240600D01*
X63600100Y-68237528D01*
X63475618Y-68249788D01*
X63355920Y-68286098D01*
X63245606Y-68345063D01*
X63148915Y-68424415D01*
X63069563Y-68521106D01*
X63010598Y-68631420D01*
X62974288Y-68751118D01*
X62962028Y-68875600D01*
X62965100Y-70639850D01*
X63062621Y-70737371D01*
X63065273Y-70743774D01*
X63069106Y-70743856D01*
X63123850Y-70798600D01*
X63430687Y-70798600D01*
X63428052Y-70921596D01*
X63427884Y-70921764D01*
X63427966Y-70925600D01*
X63427884Y-70929436D01*
X63428052Y-70929604D01*
X63430687Y-71052600D01*
X63123850Y-71052600D01*
X63069106Y-71107344D01*
X63065273Y-71107426D01*
X63062637Y-71113813D01*
X62965100Y-71211350D01*
X62962028Y-72975600D01*
X62974288Y-73100082D01*
X63010598Y-73219780D01*
X63069563Y-73330094D01*
X63095776Y-73362035D01*
X63006137Y-73302140D01*
X62840527Y-73233542D01*
X62664717Y-73198571D01*
X62485463Y-73198571D01*
X62309653Y-73233542D01*
X62144043Y-73302140D01*
X61994999Y-73401728D01*
X61868247Y-73528480D01*
X61768659Y-73677524D01*
X61700061Y-73843134D01*
X61665090Y-74018944D01*
X59250442Y-74018944D01*
X59247339Y-73770864D01*
X59244589Y-73746120D01*
X59237065Y-73722388D01*
X59225055Y-73700580D01*
X59203084Y-73676099D01*
X58566267Y-73129290D01*
X57743211Y-72383315D01*
X57000287Y-71563624D01*
X56341291Y-70675071D01*
X55772555Y-69726193D01*
X55299563Y-68726135D01*
X54926877Y-67684546D01*
X54891158Y-67541944D01*
X76340680Y-67541944D01*
X76340680Y-67721198D01*
X76375651Y-67897008D01*
X76444249Y-68062618D01*
X76543837Y-68211662D01*
X76670589Y-68338414D01*
X76747080Y-68389524D01*
X76747080Y-68559398D01*
X76782051Y-68735208D01*
X76850649Y-68900818D01*
X76950237Y-69049862D01*
X77076989Y-69176614D01*
X77226033Y-69276202D01*
X77391643Y-69344800D01*
X77567453Y-69379771D01*
X77746707Y-69379771D01*
X77922517Y-69344800D01*
X78088127Y-69276202D01*
X78237171Y-69176614D01*
X78363923Y-69049862D01*
X78463511Y-68900818D01*
X78532109Y-68735208D01*
X78565550Y-68567088D01*
X79323269Y-67809371D01*
X79725110Y-67809371D01*
X79867633Y-67904602D01*
X80033243Y-67973200D01*
X80209053Y-68008171D01*
X80388307Y-68008171D01*
X80564117Y-67973200D01*
X80729727Y-67904602D01*
X80878771Y-67805014D01*
X81005523Y-67678262D01*
X81105111Y-67529218D01*
X81173709Y-67363608D01*
X81208680Y-67187798D01*
X81208680Y-67008544D01*
X81173709Y-66832734D01*
X81136933Y-66743950D01*
X81193465Y-66697556D01*
X81272817Y-66600865D01*
X81331782Y-66490551D01*
X81368092Y-66370853D01*
X81380352Y-66246371D01*
X81380352Y-64546371D01*
X81368092Y-64421889D01*
X81331782Y-64302191D01*
X81272817Y-64191877D01*
X81193465Y-64095186D01*
X81096774Y-64015834D01*
X80986460Y-63956869D01*
X80913900Y-63934858D01*
X81045755Y-63803003D01*
X81208270Y-63559782D01*
X81320212Y-63289529D01*
X81377280Y-63002631D01*
X81377280Y-62710111D01*
X81320212Y-62423213D01*
X81208270Y-62152960D01*
X81045755Y-61909739D01*
X80838912Y-61702896D01*
X80595691Y-61540381D01*
X80325438Y-61428439D01*
X80038540Y-61371371D01*
X79746020Y-61371371D01*
X79459122Y-61428439D01*
X79188869Y-61540381D01*
X78945648Y-61702896D01*
X78738805Y-61909739D01*
X78576290Y-62152960D01*
X78464348Y-62423213D01*
X78407280Y-62710111D01*
X78407280Y-63002631D01*
X78464348Y-63289529D01*
X78576290Y-63559782D01*
X78738805Y-63803003D01*
X78870660Y-63934858D01*
X78798100Y-63956869D01*
X78687786Y-64015834D01*
X78591095Y-64095186D01*
X78511743Y-64191877D01*
X78463994Y-64281208D01*
X78430517Y-64267342D01*
X78254707Y-64232371D01*
X78075453Y-64232371D01*
X77899643Y-64267342D01*
X77734033Y-64335940D01*
X77584989Y-64435528D01*
X77458237Y-64562280D01*
X77358649Y-64711324D01*
X77290051Y-64876934D01*
X77255080Y-65052744D01*
X77255080Y-65231998D01*
X77290051Y-65407808D01*
X77358649Y-65573418D01*
X77453881Y-65715942D01*
X77453880Y-66422583D01*
X77153363Y-66723101D01*
X76985243Y-66756542D01*
X76819633Y-66825140D01*
X76670589Y-66924728D01*
X76543837Y-67051480D01*
X76444249Y-67200524D01*
X76375651Y-67366134D01*
X76340680Y-67541944D01*
X54891158Y-67541944D01*
X54658074Y-66611426D01*
X54495753Y-65517145D01*
X54441470Y-64412209D01*
X54495753Y-63307273D01*
X54658074Y-62212992D01*
X54926877Y-61139872D01*
X55299563Y-60098283D01*
X55772555Y-59098225D01*
X56341291Y-58149347D01*
X57000287Y-57260794D01*
X57743211Y-56441103D01*
X58562900Y-55698180D01*
X58755089Y-55555644D01*
X58773537Y-55538924D01*
X58788367Y-55518927D01*
X58799012Y-55496421D01*
X58805061Y-55472271D01*
X58806436Y-55453663D01*
X58807247Y-51653000D01*
X62506128Y-51653000D01*
X62506128Y-54153000D01*
X62518388Y-54277482D01*
X62554698Y-54397180D01*
X62613663Y-54507494D01*
X62693015Y-54604185D01*
X62789706Y-54683537D01*
X62900020Y-54742502D01*
X63019718Y-54778812D01*
X63144200Y-54791072D01*
X68244200Y-54791072D01*
X68368682Y-54778812D01*
X68488380Y-54742502D01*
X68598694Y-54683537D01*
X68695385Y-54604185D01*
X68774737Y-54507494D01*
X68833702Y-54397180D01*
X68870012Y-54277482D01*
X68882272Y-54153000D01*
X68882272Y-51653000D01*
X68870012Y-51528518D01*
X68833702Y-51408820D01*
X68774737Y-51298506D01*
X68695385Y-51201815D01*
X68598694Y-51122463D01*
X68488380Y-51063498D01*
X68368682Y-51027188D01*
X68244200Y-51014928D01*
X63144200Y-51014928D01*
X63019718Y-51027188D01*
X62900020Y-51063498D01*
X62789706Y-51122463D01*
X62693015Y-51201815D01*
X62613663Y-51298506D01*
X62554698Y-51408820D01*
X62518388Y-51528518D01*
X62506128Y-51653000D01*
X58807247Y-51653000D01*
X58807789Y-49117897D01*
X59148822Y-48953758D01*
X60634524Y-48404135D01*
X62165368Y-47996765D01*
X63727757Y-47735267D01*
X65307823Y-47621964D01*
X66891529Y-47657860D01*
G37*
G04 #@! TD.AperFunction*
D19*
X65777100Y-70798600D02*
X65830687Y-70798600D01*
X65828052Y-70921596D01*
X65827884Y-70921764D01*
X65827966Y-70925600D01*
X65827884Y-70929436D01*
X65828052Y-70929604D01*
X65830687Y-71052600D01*
X65777100Y-71052600D01*
X65777100Y-71072600D01*
X65523100Y-71072600D01*
X65523100Y-71052600D01*
X65469513Y-71052600D01*
X65472148Y-70929604D01*
X65472316Y-70929436D01*
X65472234Y-70925600D01*
X65472316Y-70921764D01*
X65472148Y-70921596D01*
X65469513Y-70798600D01*
X65523100Y-70798600D01*
X65523100Y-70745013D01*
X65646096Y-70747648D01*
X65646264Y-70747816D01*
X65650100Y-70747734D01*
X65653936Y-70747816D01*
X65654104Y-70747648D01*
X65777100Y-70745013D01*
X65777100Y-70798600D01*
G04 #@! TA.AperFunction,Conductor*
D20*
G36*
X65777100Y-70798600D02*
G01*
X65830687Y-70798600D01*
X65828052Y-70921596D01*
X65827884Y-70921764D01*
X65827966Y-70925600D01*
X65827884Y-70929436D01*
X65828052Y-70929604D01*
X65830687Y-71052600D01*
X65777100Y-71052600D01*
X65777100Y-71072600D01*
X65523100Y-71072600D01*
X65523100Y-71052600D01*
X65469513Y-71052600D01*
X65472148Y-70929604D01*
X65472316Y-70929436D01*
X65472234Y-70925600D01*
X65472316Y-70921764D01*
X65472148Y-70921596D01*
X65469513Y-70798600D01*
X65523100Y-70798600D01*
X65523100Y-70745013D01*
X65646096Y-70747648D01*
X65646264Y-70747816D01*
X65650100Y-70747734D01*
X65653936Y-70747816D01*
X65654104Y-70747648D01*
X65777100Y-70745013D01*
X65777100Y-70798600D01*
G37*
G04 #@! TD.AperFunction*
M02*
