%FSLAX45Y45*%
G04 Gerber Fmt 4.5, Leading zero omitted, Abs format (unit mm)*
G04 Created by KiCad (PCBNEW 5.1.10) date 2021-11-09 15:36:48*
%MOMM*%
%LPD*%
G01*
G04 APERTURE LIST*
%TA.AperFunction,Profile*%
%ADD10C,0.100000*%
%TD*%
%ADD11C,0.200000*%
%ADD12C,0.300000*%
G04 APERTURE END LIST*
D10*
X6130487Y-13025787D02*
G75*
G02*
X6071908Y-12884365I141421J141421D01*
G01*
X6071908Y-8120168D02*
X6071908Y-12884365D01*
X6071999Y-8120195D02*
G75*
G02*
X7071908Y-8120168I499909J1677078D01*
G01*
X7071908Y-12884365D02*
X7071908Y-8120168D01*
X7071908Y-12884365D02*
G75*
G02*
X7013329Y-13025787I-200000J0D01*
G01*
X6642619Y-13396497D02*
X7013329Y-13025787D01*
X6642619Y-13396497D02*
G75*
G02*
X6501197Y-13396497I-70711J70711D01*
G01*
X6130487Y-13025787D02*
X6501197Y-13396497D01*
D11*
X6375010Y-6902560D02*
X6395010Y-6922560D01*
X6395010Y-6902560D02*
X6375010Y-6922560D01*
X6375010Y-7022560D02*
X6395010Y-7042560D01*
X6395010Y-7022560D02*
X6375010Y-7042560D01*
X6375010Y-7142560D02*
X6395010Y-7162560D01*
X6395010Y-7142560D02*
X6375010Y-7162560D01*
X6375010Y-7262560D02*
X6395010Y-7282560D01*
X6395010Y-7262560D02*
X6375010Y-7282560D01*
X6495010Y-6902560D02*
X6515010Y-6922560D01*
X6515010Y-6902560D02*
X6495010Y-6922560D01*
X6495010Y-7022560D02*
X6515010Y-7042560D01*
X6515010Y-7022560D02*
X6495010Y-7042560D01*
X6495010Y-7142560D02*
X6515010Y-7162560D01*
X6515010Y-7142560D02*
X6495010Y-7162560D01*
X6495010Y-7262560D02*
X6515010Y-7282560D01*
X6515010Y-7262560D02*
X6495010Y-7282560D01*
X6615010Y-6902560D02*
X6635010Y-6922560D01*
X6635010Y-6902560D02*
X6615010Y-6922560D01*
X6615010Y-7022560D02*
X6635010Y-7042560D01*
X6635010Y-7022560D02*
X6615010Y-7042560D01*
X6615010Y-7142560D02*
X6635010Y-7162560D01*
X6635010Y-7142560D02*
X6615010Y-7162560D01*
X6615010Y-7262560D02*
X6635010Y-7282560D01*
X6635010Y-7262560D02*
X6615010Y-7282560D01*
X6735010Y-6902560D02*
X6755010Y-6922560D01*
X6755010Y-6902560D02*
X6735010Y-6922560D01*
X6735010Y-7022560D02*
X6755010Y-7042560D01*
X6755010Y-7022560D02*
X6735010Y-7042560D01*
X6735010Y-7142560D02*
X6755010Y-7162560D01*
X6755010Y-7142560D02*
X6735010Y-7162560D01*
X6735010Y-7262560D02*
X6755010Y-7282560D01*
X6755010Y-7262560D02*
X6735010Y-7282560D01*
X5516640Y-6441440D02*
G75*
G03*
X5516640Y-6441440I-15000J0D01*
G01*
X5524920Y-6309840D02*
G75*
G03*
X5524920Y-6309840I-15000J0D01*
G01*
X5524920Y-6573040D02*
G75*
G03*
X5524920Y-6573040I-15000J0D01*
G01*
X5549628Y-6180316D02*
G75*
G03*
X5549628Y-6180316I-15000J0D01*
G01*
X5549628Y-6702564D02*
G75*
G03*
X5549628Y-6702564I-15000J0D01*
G01*
X5590375Y-6054909D02*
G75*
G03*
X5590375Y-6054909I-15000J0D01*
G01*
X5590375Y-6827971D02*
G75*
G03*
X5590375Y-6827971I-15000J0D01*
G01*
X5646518Y-5935599D02*
G75*
G03*
X5646518Y-5935599I-15000J0D01*
G01*
X5646518Y-6947281D02*
G75*
G03*
X5646518Y-6947281I-15000J0D01*
G01*
X5717172Y-5824265D02*
G75*
G03*
X5717172Y-5824265I-15000J0D01*
G01*
X5801223Y-5722665D02*
G75*
G03*
X5801223Y-5722665I-15000J0D01*
G01*
X5845228Y-6272937D02*
G75*
G03*
X5845228Y-6272937I-15000J0D01*
G01*
X5897345Y-5632401D02*
G75*
G03*
X5897345Y-5632401I-15000J0D01*
G01*
X5897345Y-7250479D02*
G75*
G03*
X5897345Y-7250479I-15000J0D01*
G01*
X5929048Y-4908957D02*
G75*
G03*
X5929048Y-4908957I-15000J0D01*
G01*
X5931588Y-5058817D02*
G75*
G03*
X5931588Y-5058817I-15000J0D01*
G01*
X5934128Y-5206137D02*
G75*
G03*
X5934128Y-5206137I-15000J0D01*
G01*
X5934128Y-5366157D02*
G75*
G03*
X5934128Y-5366157I-15000J0D01*
G01*
X5944288Y-5546497D02*
G75*
G03*
X5944288Y-5546497I-15000J0D01*
G01*
X5951908Y-7334657D02*
G75*
G03*
X5951908Y-7334657I-15000J0D01*
G01*
X5957248Y-7453777D02*
G75*
G03*
X5957248Y-7453777I-15000J0D01*
G01*
X6082722Y-4854417D02*
G75*
G03*
X6082722Y-4854417I-15000J0D01*
G01*
X6082722Y-7992903D02*
G75*
G03*
X6082722Y-7992903I-15000J0D01*
G01*
X6272509Y-7410857D02*
G75*
G03*
X6272509Y-7410857I-15000J0D01*
G01*
X6283421Y-4802886D02*
G75*
G03*
X6283421Y-4802886I-15000J0D01*
G01*
X6421808Y-7946797D02*
G75*
G03*
X6421808Y-7946797I-15000J0D01*
G01*
X6488996Y-4776916D02*
G75*
G03*
X6488996Y-4776916I-15000J0D01*
G01*
X6585638Y-5289176D02*
G75*
G03*
X6585638Y-5289176I-15000J0D01*
G01*
X6591984Y-5530298D02*
G75*
G03*
X6591984Y-5530298I-15000J0D01*
G01*
X6696204Y-4776916D02*
G75*
G03*
X6696204Y-4776916I-15000J0D01*
G01*
X6767248Y-5538877D02*
G75*
G03*
X6767248Y-5538877I-15000J0D01*
G01*
X6894248Y-7385457D02*
G75*
G03*
X6894248Y-7385457I-15000J0D01*
G01*
X6901779Y-4802886D02*
G75*
G03*
X6901779Y-4802886I-15000J0D01*
G01*
X7046648Y-7040017D02*
G75*
G03*
X7046648Y-7040017I-15000J0D01*
G01*
X7102478Y-4854417D02*
G75*
G03*
X7102478Y-4854417I-15000J0D01*
G01*
X7102478Y-7992903D02*
G75*
G03*
X7102478Y-7992903I-15000J0D01*
G01*
X7295136Y-4930695D02*
G75*
G03*
X7295136Y-4930695I-15000J0D01*
G01*
X7295136Y-7916625D02*
G75*
G03*
X7295136Y-7916625I-15000J0D01*
G01*
X7476714Y-5030519D02*
G75*
G03*
X7476714Y-5030519I-15000J0D01*
G01*
X7476714Y-7816801D02*
G75*
G03*
X7476714Y-7816801I-15000J0D01*
G01*
X7501308Y-7588657D02*
G75*
G03*
X7501308Y-7588657I-15000J0D01*
G01*
X7644350Y-5152313D02*
G75*
G03*
X7644350Y-5152313I-15000J0D01*
G01*
X7644350Y-7695007D02*
G75*
G03*
X7644350Y-7695007I-15000J0D01*
G01*
X7740068Y-6763157D02*
G75*
G03*
X7740068Y-6763157I-15000J0D01*
G01*
X7780708Y-6846977D02*
G75*
G03*
X7780708Y-6846977I-15000J0D01*
G01*
X7795398Y-5294157D02*
G75*
G03*
X7795398Y-5294157I-15000J0D01*
G01*
X7795398Y-7553163D02*
G75*
G03*
X7795398Y-7553163I-15000J0D01*
G01*
X7798488Y-7078117D02*
G75*
G03*
X7798488Y-7078117I-15000J0D01*
G01*
X7801028Y-7238137D02*
G75*
G03*
X7801028Y-7238137I-15000J0D01*
G01*
X7831508Y-6514237D02*
G75*
G03*
X7831508Y-6514237I-15000J0D01*
G01*
X7927478Y-5453814D02*
G75*
G03*
X7927478Y-5453814I-15000J0D01*
G01*
X7927478Y-7393506D02*
G75*
G03*
X7927478Y-7393506I-15000J0D01*
G01*
X8038506Y-5628766D02*
G75*
G03*
X8038506Y-5628766I-15000J0D01*
G01*
X8038506Y-7218554D02*
G75*
G03*
X8038506Y-7218554I-15000J0D01*
G01*
X8044868Y-6709817D02*
G75*
G03*
X8044868Y-6709817I-15000J0D01*
G01*
X8126731Y-5816254D02*
G75*
G03*
X8126731Y-5816254I-15000J0D01*
G01*
X8126731Y-7031065D02*
G75*
G03*
X8126731Y-7031065I-15000J0D01*
G01*
X8190762Y-6013322D02*
G75*
G03*
X8190762Y-6013322I-15000J0D01*
G01*
X8190762Y-6833998D02*
G75*
G03*
X8190762Y-6833998I-15000J0D01*
G01*
X8229589Y-6216860D02*
G75*
G03*
X8229589Y-6216860I-15000J0D01*
G01*
X8229589Y-6630460D02*
G75*
G03*
X8229589Y-6630460I-15000J0D01*
G01*
X8242600Y-6423660D02*
G75*
G03*
X8242600Y-6423660I-15000J0D01*
G01*
X6172212Y-8111878D02*
X6172212Y-8161878D01*
X6147212Y-8136878D02*
X6197212Y-8136878D01*
X6972212Y-8111878D02*
X6972212Y-8161878D01*
X6947212Y-8136878D02*
X6997212Y-8136878D01*
X8024584Y-6320993D02*
X8024584Y-6250281D01*
X7953872Y-6250281D01*
X7953872Y-6320993D01*
X8024584Y-6320993D01*
X8024584Y-6574993D02*
X8024584Y-6504281D01*
X7953872Y-6504281D01*
X7953872Y-6574993D01*
X8024584Y-6574993D01*
D12*
X5103337Y-13896501D02*
X5103337Y-13596501D01*
X5174765Y-13596501D01*
X5217622Y-13610787D01*
X5246194Y-13639358D01*
X5260479Y-13667929D01*
X5274765Y-13725072D01*
X5274765Y-13767929D01*
X5260479Y-13825072D01*
X5246194Y-13853644D01*
X5217622Y-13882215D01*
X5174765Y-13896501D01*
X5103337Y-13896501D01*
X5403337Y-13896501D02*
X5403337Y-13696501D01*
X5403337Y-13753644D02*
X5417622Y-13725072D01*
X5431908Y-13710787D01*
X5460479Y-13696501D01*
X5489051Y-13696501D01*
X5589051Y-13896501D02*
X5589051Y-13696501D01*
X5589051Y-13596501D02*
X5574765Y-13610787D01*
X5589051Y-13625072D01*
X5603336Y-13610787D01*
X5589051Y-13596501D01*
X5589051Y-13625072D01*
X5774765Y-13896501D02*
X5746194Y-13882215D01*
X5731908Y-13853644D01*
X5731908Y-13596501D01*
X5931908Y-13896501D02*
X5903336Y-13882215D01*
X5889051Y-13853644D01*
X5889051Y-13596501D01*
X6274765Y-13896501D02*
X6274765Y-13596501D01*
X6374765Y-13810787D01*
X6474765Y-13596501D01*
X6474765Y-13896501D01*
X6746194Y-13896501D02*
X6746194Y-13739358D01*
X6731908Y-13710787D01*
X6703336Y-13696501D01*
X6646194Y-13696501D01*
X6617622Y-13710787D01*
X6746194Y-13882215D02*
X6717622Y-13896501D01*
X6646194Y-13896501D01*
X6617622Y-13882215D01*
X6603336Y-13853644D01*
X6603336Y-13825072D01*
X6617622Y-13796501D01*
X6646194Y-13782215D01*
X6717622Y-13782215D01*
X6746194Y-13767929D01*
X6889051Y-13696501D02*
X6889051Y-13996501D01*
X6889051Y-13710787D02*
X6917622Y-13696501D01*
X6974765Y-13696501D01*
X7003336Y-13710787D01*
X7017622Y-13725072D01*
X7031908Y-13753644D01*
X7031908Y-13839358D01*
X7017622Y-13867929D01*
X7003336Y-13882215D01*
X6974765Y-13896501D01*
X6917622Y-13896501D01*
X6889051Y-13882215D01*
X7160479Y-13867929D02*
X7174765Y-13882215D01*
X7160479Y-13896501D01*
X7146194Y-13882215D01*
X7160479Y-13867929D01*
X7160479Y-13896501D01*
X7160479Y-13710787D02*
X7174765Y-13725072D01*
X7160479Y-13739358D01*
X7146194Y-13725072D01*
X7160479Y-13710787D01*
X7160479Y-13739358D01*
X4796908Y-14380787D02*
X4816908Y-14400787D01*
X4816908Y-14380787D02*
X4796908Y-14400787D01*
X5160479Y-14226501D02*
X5189051Y-14226501D01*
X5217622Y-14240787D01*
X5231908Y-14255072D01*
X5246194Y-14283644D01*
X5260479Y-14340787D01*
X5260479Y-14412215D01*
X5246194Y-14469358D01*
X5231908Y-14497929D01*
X5217622Y-14512215D01*
X5189051Y-14526501D01*
X5160479Y-14526501D01*
X5131908Y-14512215D01*
X5117622Y-14497929D01*
X5103337Y-14469358D01*
X5089051Y-14412215D01*
X5089051Y-14340787D01*
X5103337Y-14283644D01*
X5117622Y-14255072D01*
X5131908Y-14240787D01*
X5160479Y-14226501D01*
X5389051Y-14497929D02*
X5403337Y-14512215D01*
X5389051Y-14526501D01*
X5374765Y-14512215D01*
X5389051Y-14497929D01*
X5389051Y-14526501D01*
X5517622Y-14255072D02*
X5531908Y-14240787D01*
X5560479Y-14226501D01*
X5631908Y-14226501D01*
X5660479Y-14240787D01*
X5674765Y-14255072D01*
X5689051Y-14283644D01*
X5689051Y-14312215D01*
X5674765Y-14355072D01*
X5503337Y-14526501D01*
X5689051Y-14526501D01*
X5874765Y-14226501D02*
X5903336Y-14226501D01*
X5931908Y-14240787D01*
X5946194Y-14255072D01*
X5960479Y-14283644D01*
X5974765Y-14340787D01*
X5974765Y-14412215D01*
X5960479Y-14469358D01*
X5946194Y-14497929D01*
X5931908Y-14512215D01*
X5903336Y-14526501D01*
X5874765Y-14526501D01*
X5846194Y-14512215D01*
X5831908Y-14497929D01*
X5817622Y-14469358D01*
X5803336Y-14412215D01*
X5803336Y-14340787D01*
X5817622Y-14283644D01*
X5831908Y-14255072D01*
X5846194Y-14240787D01*
X5874765Y-14226501D01*
X6160479Y-14226501D02*
X6189051Y-14226501D01*
X6217622Y-14240787D01*
X6231908Y-14255072D01*
X6246194Y-14283644D01*
X6260479Y-14340787D01*
X6260479Y-14412215D01*
X6246194Y-14469358D01*
X6231908Y-14497929D01*
X6217622Y-14512215D01*
X6189051Y-14526501D01*
X6160479Y-14526501D01*
X6131908Y-14512215D01*
X6117622Y-14497929D01*
X6103336Y-14469358D01*
X6089051Y-14412215D01*
X6089051Y-14340787D01*
X6103336Y-14283644D01*
X6117622Y-14255072D01*
X6131908Y-14240787D01*
X6160479Y-14226501D01*
X6389051Y-14526501D02*
X6389051Y-14326501D01*
X6389051Y-14355072D02*
X6403336Y-14340787D01*
X6431908Y-14326501D01*
X6474765Y-14326501D01*
X6503336Y-14340787D01*
X6517622Y-14369358D01*
X6517622Y-14526501D01*
X6517622Y-14369358D02*
X6531908Y-14340787D01*
X6560479Y-14326501D01*
X6603336Y-14326501D01*
X6631908Y-14340787D01*
X6646194Y-14369358D01*
X6646194Y-14526501D01*
X6789051Y-14526501D02*
X6789051Y-14326501D01*
X6789051Y-14355072D02*
X6803336Y-14340787D01*
X6831908Y-14326501D01*
X6874765Y-14326501D01*
X6903336Y-14340787D01*
X6917622Y-14369358D01*
X6917622Y-14526501D01*
X6917622Y-14369358D02*
X6931908Y-14340787D01*
X6960479Y-14326501D01*
X7003336Y-14326501D01*
X7031908Y-14340787D01*
X7046194Y-14369358D01*
X7046194Y-14526501D01*
X7631908Y-14212215D02*
X7374765Y-14597929D01*
X8017622Y-14226501D02*
X8046194Y-14226501D01*
X8074765Y-14240787D01*
X8089051Y-14255072D01*
X8103336Y-14283644D01*
X8117622Y-14340787D01*
X8117622Y-14412215D01*
X8103336Y-14469358D01*
X8089051Y-14497929D01*
X8074765Y-14512215D01*
X8046194Y-14526501D01*
X8017622Y-14526501D01*
X7989051Y-14512215D01*
X7974765Y-14497929D01*
X7960479Y-14469358D01*
X7946194Y-14412215D01*
X7946194Y-14340787D01*
X7960479Y-14283644D01*
X7974765Y-14255072D01*
X7989051Y-14240787D01*
X8017622Y-14226501D01*
X8246194Y-14497929D02*
X8260479Y-14512215D01*
X8246194Y-14526501D01*
X8231908Y-14512215D01*
X8246194Y-14497929D01*
X8246194Y-14526501D01*
X8446194Y-14226501D02*
X8474765Y-14226501D01*
X8503337Y-14240787D01*
X8517622Y-14255072D01*
X8531908Y-14283644D01*
X8546194Y-14340787D01*
X8546194Y-14412215D01*
X8531908Y-14469358D01*
X8517622Y-14497929D01*
X8503337Y-14512215D01*
X8474765Y-14526501D01*
X8446194Y-14526501D01*
X8417622Y-14512215D01*
X8403337Y-14497929D01*
X8389051Y-14469358D01*
X8374765Y-14412215D01*
X8374765Y-14340787D01*
X8389051Y-14283644D01*
X8403337Y-14255072D01*
X8417622Y-14240787D01*
X8446194Y-14226501D01*
X8731908Y-14226501D02*
X8760479Y-14226501D01*
X8789051Y-14240787D01*
X8803337Y-14255072D01*
X8817622Y-14283644D01*
X8831908Y-14340787D01*
X8831908Y-14412215D01*
X8817622Y-14469358D01*
X8803337Y-14497929D01*
X8789051Y-14512215D01*
X8760479Y-14526501D01*
X8731908Y-14526501D01*
X8703337Y-14512215D01*
X8689051Y-14497929D01*
X8674765Y-14469358D01*
X8660479Y-14412215D01*
X8660479Y-14340787D01*
X8674765Y-14283644D01*
X8689051Y-14255072D01*
X8703337Y-14240787D01*
X8731908Y-14226501D01*
X8931908Y-14226501D02*
X9131908Y-14226501D01*
X9003337Y-14526501D01*
X9260479Y-14526501D02*
X9317622Y-14526501D01*
X9346194Y-14512215D01*
X9360479Y-14497929D01*
X9389051Y-14455072D01*
X9403337Y-14397929D01*
X9403337Y-14283644D01*
X9389051Y-14255072D01*
X9374765Y-14240787D01*
X9346194Y-14226501D01*
X9289051Y-14226501D01*
X9260479Y-14240787D01*
X9246194Y-14255072D01*
X9231908Y-14283644D01*
X9231908Y-14355072D01*
X9246194Y-14383644D01*
X9260479Y-14397929D01*
X9289051Y-14412215D01*
X9346194Y-14412215D01*
X9374765Y-14397929D01*
X9389051Y-14383644D01*
X9403337Y-14355072D01*
X9517622Y-14226501D02*
X9517622Y-14283644D01*
X9631908Y-14226501D02*
X9631908Y-14283644D01*
X10074765Y-14640787D02*
X10060479Y-14626501D01*
X10031908Y-14583644D01*
X10017622Y-14555072D01*
X10003337Y-14512215D01*
X9989051Y-14440787D01*
X9989051Y-14383644D01*
X10003337Y-14312215D01*
X10017622Y-14269358D01*
X10031908Y-14240787D01*
X10060479Y-14197929D01*
X10074765Y-14183644D01*
X10346194Y-14526501D02*
X10174765Y-14526501D01*
X10260479Y-14526501D02*
X10260479Y-14226501D01*
X10231908Y-14269358D01*
X10203337Y-14297929D01*
X10174765Y-14312215D01*
X10603337Y-14226501D02*
X10546194Y-14226501D01*
X10517622Y-14240787D01*
X10503337Y-14255072D01*
X10474765Y-14297929D01*
X10460479Y-14355072D01*
X10460479Y-14469358D01*
X10474765Y-14497929D01*
X10489051Y-14512215D01*
X10517622Y-14526501D01*
X10574765Y-14526501D01*
X10603337Y-14512215D01*
X10617622Y-14497929D01*
X10631908Y-14469358D01*
X10631908Y-14397929D01*
X10617622Y-14369358D01*
X10603337Y-14355072D01*
X10574765Y-14340787D01*
X10517622Y-14340787D01*
X10489051Y-14355072D01*
X10474765Y-14369358D01*
X10460479Y-14397929D01*
X10989051Y-14526501D02*
X10989051Y-14226501D01*
X11117622Y-14526501D02*
X11117622Y-14369358D01*
X11103337Y-14340787D01*
X11074765Y-14326501D01*
X11031908Y-14326501D01*
X11003337Y-14340787D01*
X10989051Y-14355072D01*
X11303336Y-14526501D02*
X11274765Y-14512215D01*
X11260479Y-14497929D01*
X11246194Y-14469358D01*
X11246194Y-14383644D01*
X11260479Y-14355072D01*
X11274765Y-14340787D01*
X11303336Y-14326501D01*
X11346194Y-14326501D01*
X11374765Y-14340787D01*
X11389051Y-14355072D01*
X11403336Y-14383644D01*
X11403336Y-14469358D01*
X11389051Y-14497929D01*
X11374765Y-14512215D01*
X11346194Y-14526501D01*
X11303336Y-14526501D01*
X11574765Y-14526501D02*
X11546194Y-14512215D01*
X11531908Y-14483644D01*
X11531908Y-14226501D01*
X11803336Y-14512215D02*
X11774765Y-14526501D01*
X11717622Y-14526501D01*
X11689051Y-14512215D01*
X11674765Y-14483644D01*
X11674765Y-14369358D01*
X11689051Y-14340787D01*
X11717622Y-14326501D01*
X11774765Y-14326501D01*
X11803336Y-14340787D01*
X11817622Y-14369358D01*
X11817622Y-14397929D01*
X11674765Y-14426501D01*
X11931908Y-14512215D02*
X11960479Y-14526501D01*
X12017622Y-14526501D01*
X12046194Y-14512215D01*
X12060479Y-14483644D01*
X12060479Y-14469358D01*
X12046194Y-14440787D01*
X12017622Y-14426501D01*
X11974765Y-14426501D01*
X11946194Y-14412215D01*
X11931908Y-14383644D01*
X11931908Y-14369358D01*
X11946194Y-14340787D01*
X11974765Y-14326501D01*
X12017622Y-14326501D01*
X12046194Y-14340787D01*
X12160479Y-14640787D02*
X12174765Y-14626501D01*
X12203336Y-14583644D01*
X12217622Y-14555072D01*
X12231908Y-14512215D01*
X12246194Y-14440787D01*
X12246194Y-14383644D01*
X12231908Y-14312215D01*
X12217622Y-14269358D01*
X12203336Y-14240787D01*
X12174765Y-14197929D01*
X12160479Y-14183644D01*
X4816908Y-14786787D02*
G75*
G03*
X4816908Y-14786787I-15000J0D01*
G01*
X5160479Y-14622501D02*
X5189051Y-14622501D01*
X5217622Y-14636787D01*
X5231908Y-14651072D01*
X5246194Y-14679644D01*
X5260479Y-14736787D01*
X5260479Y-14808215D01*
X5246194Y-14865358D01*
X5231908Y-14893929D01*
X5217622Y-14908215D01*
X5189051Y-14922501D01*
X5160479Y-14922501D01*
X5131908Y-14908215D01*
X5117622Y-14893929D01*
X5103337Y-14865358D01*
X5089051Y-14808215D01*
X5089051Y-14736787D01*
X5103337Y-14679644D01*
X5117622Y-14651072D01*
X5131908Y-14636787D01*
X5160479Y-14622501D01*
X5389051Y-14893929D02*
X5403337Y-14908215D01*
X5389051Y-14922501D01*
X5374765Y-14908215D01*
X5389051Y-14893929D01*
X5389051Y-14922501D01*
X5503337Y-14622501D02*
X5689051Y-14622501D01*
X5589051Y-14736787D01*
X5631908Y-14736787D01*
X5660479Y-14751072D01*
X5674765Y-14765358D01*
X5689051Y-14793929D01*
X5689051Y-14865358D01*
X5674765Y-14893929D01*
X5660479Y-14908215D01*
X5631908Y-14922501D01*
X5546194Y-14922501D01*
X5517622Y-14908215D01*
X5503337Y-14893929D01*
X5874765Y-14622501D02*
X5903336Y-14622501D01*
X5931908Y-14636787D01*
X5946194Y-14651072D01*
X5960479Y-14679644D01*
X5974765Y-14736787D01*
X5974765Y-14808215D01*
X5960479Y-14865358D01*
X5946194Y-14893929D01*
X5931908Y-14908215D01*
X5903336Y-14922501D01*
X5874765Y-14922501D01*
X5846194Y-14908215D01*
X5831908Y-14893929D01*
X5817622Y-14865358D01*
X5803336Y-14808215D01*
X5803336Y-14736787D01*
X5817622Y-14679644D01*
X5831908Y-14651072D01*
X5846194Y-14636787D01*
X5874765Y-14622501D01*
X6160479Y-14622501D02*
X6189051Y-14622501D01*
X6217622Y-14636787D01*
X6231908Y-14651072D01*
X6246194Y-14679644D01*
X6260479Y-14736787D01*
X6260479Y-14808215D01*
X6246194Y-14865358D01*
X6231908Y-14893929D01*
X6217622Y-14908215D01*
X6189051Y-14922501D01*
X6160479Y-14922501D01*
X6131908Y-14908215D01*
X6117622Y-14893929D01*
X6103336Y-14865358D01*
X6089051Y-14808215D01*
X6089051Y-14736787D01*
X6103336Y-14679644D01*
X6117622Y-14651072D01*
X6131908Y-14636787D01*
X6160479Y-14622501D01*
X6389051Y-14922501D02*
X6389051Y-14722501D01*
X6389051Y-14751072D02*
X6403336Y-14736787D01*
X6431908Y-14722501D01*
X6474765Y-14722501D01*
X6503336Y-14736787D01*
X6517622Y-14765358D01*
X6517622Y-14922501D01*
X6517622Y-14765358D02*
X6531908Y-14736787D01*
X6560479Y-14722501D01*
X6603336Y-14722501D01*
X6631908Y-14736787D01*
X6646194Y-14765358D01*
X6646194Y-14922501D01*
X6789051Y-14922501D02*
X6789051Y-14722501D01*
X6789051Y-14751072D02*
X6803336Y-14736787D01*
X6831908Y-14722501D01*
X6874765Y-14722501D01*
X6903336Y-14736787D01*
X6917622Y-14765358D01*
X6917622Y-14922501D01*
X6917622Y-14765358D02*
X6931908Y-14736787D01*
X6960479Y-14722501D01*
X7003336Y-14722501D01*
X7031908Y-14736787D01*
X7046194Y-14765358D01*
X7046194Y-14922501D01*
X7631908Y-14608215D02*
X7374765Y-14993929D01*
X8017622Y-14622501D02*
X8046194Y-14622501D01*
X8074765Y-14636787D01*
X8089051Y-14651072D01*
X8103336Y-14679644D01*
X8117622Y-14736787D01*
X8117622Y-14808215D01*
X8103336Y-14865358D01*
X8089051Y-14893929D01*
X8074765Y-14908215D01*
X8046194Y-14922501D01*
X8017622Y-14922501D01*
X7989051Y-14908215D01*
X7974765Y-14893929D01*
X7960479Y-14865358D01*
X7946194Y-14808215D01*
X7946194Y-14736787D01*
X7960479Y-14679644D01*
X7974765Y-14651072D01*
X7989051Y-14636787D01*
X8017622Y-14622501D01*
X8246194Y-14893929D02*
X8260479Y-14908215D01*
X8246194Y-14922501D01*
X8231908Y-14908215D01*
X8246194Y-14893929D01*
X8246194Y-14922501D01*
X8446194Y-14622501D02*
X8474765Y-14622501D01*
X8503337Y-14636787D01*
X8517622Y-14651072D01*
X8531908Y-14679644D01*
X8546194Y-14736787D01*
X8546194Y-14808215D01*
X8531908Y-14865358D01*
X8517622Y-14893929D01*
X8503337Y-14908215D01*
X8474765Y-14922501D01*
X8446194Y-14922501D01*
X8417622Y-14908215D01*
X8403337Y-14893929D01*
X8389051Y-14865358D01*
X8374765Y-14808215D01*
X8374765Y-14736787D01*
X8389051Y-14679644D01*
X8403337Y-14651072D01*
X8417622Y-14636787D01*
X8446194Y-14622501D01*
X8831908Y-14922501D02*
X8660479Y-14922501D01*
X8746194Y-14922501D02*
X8746194Y-14622501D01*
X8717622Y-14665358D01*
X8689051Y-14693929D01*
X8660479Y-14708215D01*
X9117622Y-14922501D02*
X8946194Y-14922501D01*
X9031908Y-14922501D02*
X9031908Y-14622501D01*
X9003337Y-14665358D01*
X8974765Y-14693929D01*
X8946194Y-14708215D01*
X9289051Y-14751072D02*
X9260479Y-14736787D01*
X9246194Y-14722501D01*
X9231908Y-14693929D01*
X9231908Y-14679644D01*
X9246194Y-14651072D01*
X9260479Y-14636787D01*
X9289051Y-14622501D01*
X9346194Y-14622501D01*
X9374765Y-14636787D01*
X9389051Y-14651072D01*
X9403337Y-14679644D01*
X9403337Y-14693929D01*
X9389051Y-14722501D01*
X9374765Y-14736787D01*
X9346194Y-14751072D01*
X9289051Y-14751072D01*
X9260479Y-14765358D01*
X9246194Y-14779644D01*
X9231908Y-14808215D01*
X9231908Y-14865358D01*
X9246194Y-14893929D01*
X9260479Y-14908215D01*
X9289051Y-14922501D01*
X9346194Y-14922501D01*
X9374765Y-14908215D01*
X9389051Y-14893929D01*
X9403337Y-14865358D01*
X9403337Y-14808215D01*
X9389051Y-14779644D01*
X9374765Y-14765358D01*
X9346194Y-14751072D01*
X9517622Y-14622501D02*
X9517622Y-14679644D01*
X9631908Y-14622501D02*
X9631908Y-14679644D01*
X10074765Y-15036787D02*
X10060479Y-15022501D01*
X10031908Y-14979644D01*
X10017622Y-14951072D01*
X10003337Y-14908215D01*
X9989051Y-14836787D01*
X9989051Y-14779644D01*
X10003337Y-14708215D01*
X10017622Y-14665358D01*
X10031908Y-14636787D01*
X10060479Y-14593929D01*
X10074765Y-14579644D01*
X10317622Y-14622501D02*
X10260479Y-14622501D01*
X10231908Y-14636787D01*
X10217622Y-14651072D01*
X10189051Y-14693929D01*
X10174765Y-14751072D01*
X10174765Y-14865358D01*
X10189051Y-14893929D01*
X10203337Y-14908215D01*
X10231908Y-14922501D01*
X10289051Y-14922501D01*
X10317622Y-14908215D01*
X10331908Y-14893929D01*
X10346194Y-14865358D01*
X10346194Y-14793929D01*
X10331908Y-14765358D01*
X10317622Y-14751072D01*
X10289051Y-14736787D01*
X10231908Y-14736787D01*
X10203337Y-14751072D01*
X10189051Y-14765358D01*
X10174765Y-14793929D01*
X10460479Y-14651072D02*
X10474765Y-14636787D01*
X10503337Y-14622501D01*
X10574765Y-14622501D01*
X10603337Y-14636787D01*
X10617622Y-14651072D01*
X10631908Y-14679644D01*
X10631908Y-14708215D01*
X10617622Y-14751072D01*
X10446194Y-14922501D01*
X10631908Y-14922501D01*
X10989051Y-14922501D02*
X10989051Y-14622501D01*
X11117622Y-14922501D02*
X11117622Y-14765358D01*
X11103337Y-14736787D01*
X11074765Y-14722501D01*
X11031908Y-14722501D01*
X11003337Y-14736787D01*
X10989051Y-14751072D01*
X11303336Y-14922501D02*
X11274765Y-14908215D01*
X11260479Y-14893929D01*
X11246194Y-14865358D01*
X11246194Y-14779644D01*
X11260479Y-14751072D01*
X11274765Y-14736787D01*
X11303336Y-14722501D01*
X11346194Y-14722501D01*
X11374765Y-14736787D01*
X11389051Y-14751072D01*
X11403336Y-14779644D01*
X11403336Y-14865358D01*
X11389051Y-14893929D01*
X11374765Y-14908215D01*
X11346194Y-14922501D01*
X11303336Y-14922501D01*
X11574765Y-14922501D02*
X11546194Y-14908215D01*
X11531908Y-14879644D01*
X11531908Y-14622501D01*
X11803336Y-14908215D02*
X11774765Y-14922501D01*
X11717622Y-14922501D01*
X11689051Y-14908215D01*
X11674765Y-14879644D01*
X11674765Y-14765358D01*
X11689051Y-14736787D01*
X11717622Y-14722501D01*
X11774765Y-14722501D01*
X11803336Y-14736787D01*
X11817622Y-14765358D01*
X11817622Y-14793929D01*
X11674765Y-14822501D01*
X11931908Y-14908215D02*
X11960479Y-14922501D01*
X12017622Y-14922501D01*
X12046194Y-14908215D01*
X12060479Y-14879644D01*
X12060479Y-14865358D01*
X12046194Y-14836787D01*
X12017622Y-14822501D01*
X11974765Y-14822501D01*
X11946194Y-14808215D01*
X11931908Y-14779644D01*
X11931908Y-14765358D01*
X11946194Y-14736787D01*
X11974765Y-14722501D01*
X12017622Y-14722501D01*
X12046194Y-14736787D01*
X12160479Y-15036787D02*
X12174765Y-15022501D01*
X12203336Y-14979644D01*
X12217622Y-14951072D01*
X12231908Y-14908215D01*
X12246194Y-14836787D01*
X12246194Y-14779644D01*
X12231908Y-14708215D01*
X12217622Y-14665358D01*
X12203336Y-14636787D01*
X12174765Y-14593929D01*
X12160479Y-14579644D01*
X4791908Y-15157787D02*
X4791908Y-15207787D01*
X4766908Y-15182787D02*
X4816908Y-15182787D01*
X5160479Y-15018501D02*
X5189051Y-15018501D01*
X5217622Y-15032787D01*
X5231908Y-15047072D01*
X5246194Y-15075644D01*
X5260479Y-15132787D01*
X5260479Y-15204215D01*
X5246194Y-15261358D01*
X5231908Y-15289929D01*
X5217622Y-15304215D01*
X5189051Y-15318501D01*
X5160479Y-15318501D01*
X5131908Y-15304215D01*
X5117622Y-15289929D01*
X5103337Y-15261358D01*
X5089051Y-15204215D01*
X5089051Y-15132787D01*
X5103337Y-15075644D01*
X5117622Y-15047072D01*
X5131908Y-15032787D01*
X5160479Y-15018501D01*
X5389051Y-15289929D02*
X5403337Y-15304215D01*
X5389051Y-15318501D01*
X5374765Y-15304215D01*
X5389051Y-15289929D01*
X5389051Y-15318501D01*
X5674765Y-15018501D02*
X5531908Y-15018501D01*
X5517622Y-15161358D01*
X5531908Y-15147072D01*
X5560479Y-15132787D01*
X5631908Y-15132787D01*
X5660479Y-15147072D01*
X5674765Y-15161358D01*
X5689051Y-15189929D01*
X5689051Y-15261358D01*
X5674765Y-15289929D01*
X5660479Y-15304215D01*
X5631908Y-15318501D01*
X5560479Y-15318501D01*
X5531908Y-15304215D01*
X5517622Y-15289929D01*
X5874765Y-15018501D02*
X5903336Y-15018501D01*
X5931908Y-15032787D01*
X5946194Y-15047072D01*
X5960479Y-15075644D01*
X5974765Y-15132787D01*
X5974765Y-15204215D01*
X5960479Y-15261358D01*
X5946194Y-15289929D01*
X5931908Y-15304215D01*
X5903336Y-15318501D01*
X5874765Y-15318501D01*
X5846194Y-15304215D01*
X5831908Y-15289929D01*
X5817622Y-15261358D01*
X5803336Y-15204215D01*
X5803336Y-15132787D01*
X5817622Y-15075644D01*
X5831908Y-15047072D01*
X5846194Y-15032787D01*
X5874765Y-15018501D01*
X6160479Y-15018501D02*
X6189051Y-15018501D01*
X6217622Y-15032787D01*
X6231908Y-15047072D01*
X6246194Y-15075644D01*
X6260479Y-15132787D01*
X6260479Y-15204215D01*
X6246194Y-15261358D01*
X6231908Y-15289929D01*
X6217622Y-15304215D01*
X6189051Y-15318501D01*
X6160479Y-15318501D01*
X6131908Y-15304215D01*
X6117622Y-15289929D01*
X6103336Y-15261358D01*
X6089051Y-15204215D01*
X6089051Y-15132787D01*
X6103336Y-15075644D01*
X6117622Y-15047072D01*
X6131908Y-15032787D01*
X6160479Y-15018501D01*
X6389051Y-15318501D02*
X6389051Y-15118501D01*
X6389051Y-15147072D02*
X6403336Y-15132787D01*
X6431908Y-15118501D01*
X6474765Y-15118501D01*
X6503336Y-15132787D01*
X6517622Y-15161358D01*
X6517622Y-15318501D01*
X6517622Y-15161358D02*
X6531908Y-15132787D01*
X6560479Y-15118501D01*
X6603336Y-15118501D01*
X6631908Y-15132787D01*
X6646194Y-15161358D01*
X6646194Y-15318501D01*
X6789051Y-15318501D02*
X6789051Y-15118501D01*
X6789051Y-15147072D02*
X6803336Y-15132787D01*
X6831908Y-15118501D01*
X6874765Y-15118501D01*
X6903336Y-15132787D01*
X6917622Y-15161358D01*
X6917622Y-15318501D01*
X6917622Y-15161358D02*
X6931908Y-15132787D01*
X6960479Y-15118501D01*
X7003336Y-15118501D01*
X7031908Y-15132787D01*
X7046194Y-15161358D01*
X7046194Y-15318501D01*
X7631908Y-15004215D02*
X7374765Y-15389929D01*
X8017622Y-15018501D02*
X8046194Y-15018501D01*
X8074765Y-15032787D01*
X8089051Y-15047072D01*
X8103336Y-15075644D01*
X8117622Y-15132787D01*
X8117622Y-15204215D01*
X8103336Y-15261358D01*
X8089051Y-15289929D01*
X8074765Y-15304215D01*
X8046194Y-15318501D01*
X8017622Y-15318501D01*
X7989051Y-15304215D01*
X7974765Y-15289929D01*
X7960479Y-15261358D01*
X7946194Y-15204215D01*
X7946194Y-15132787D01*
X7960479Y-15075644D01*
X7974765Y-15047072D01*
X7989051Y-15032787D01*
X8017622Y-15018501D01*
X8246194Y-15289929D02*
X8260479Y-15304215D01*
X8246194Y-15318501D01*
X8231908Y-15304215D01*
X8246194Y-15289929D01*
X8246194Y-15318501D01*
X8446194Y-15018501D02*
X8474765Y-15018501D01*
X8503337Y-15032787D01*
X8517622Y-15047072D01*
X8531908Y-15075644D01*
X8546194Y-15132787D01*
X8546194Y-15204215D01*
X8531908Y-15261358D01*
X8517622Y-15289929D01*
X8503337Y-15304215D01*
X8474765Y-15318501D01*
X8446194Y-15318501D01*
X8417622Y-15304215D01*
X8403337Y-15289929D01*
X8389051Y-15261358D01*
X8374765Y-15204215D01*
X8374765Y-15132787D01*
X8389051Y-15075644D01*
X8403337Y-15047072D01*
X8417622Y-15032787D01*
X8446194Y-15018501D01*
X8831908Y-15318501D02*
X8660479Y-15318501D01*
X8746194Y-15318501D02*
X8746194Y-15018501D01*
X8717622Y-15061358D01*
X8689051Y-15089929D01*
X8660479Y-15104215D01*
X8974765Y-15318501D02*
X9031908Y-15318501D01*
X9060479Y-15304215D01*
X9074765Y-15289929D01*
X9103337Y-15247072D01*
X9117622Y-15189929D01*
X9117622Y-15075644D01*
X9103337Y-15047072D01*
X9089051Y-15032787D01*
X9060479Y-15018501D01*
X9003337Y-15018501D01*
X8974765Y-15032787D01*
X8960479Y-15047072D01*
X8946194Y-15075644D01*
X8946194Y-15147072D01*
X8960479Y-15175644D01*
X8974765Y-15189929D01*
X9003337Y-15204215D01*
X9060479Y-15204215D01*
X9089051Y-15189929D01*
X9103337Y-15175644D01*
X9117622Y-15147072D01*
X9217622Y-15018501D02*
X9417622Y-15018501D01*
X9289051Y-15318501D01*
X9517622Y-15018501D02*
X9517622Y-15075644D01*
X9631908Y-15018501D02*
X9631908Y-15075644D01*
X10074765Y-15432787D02*
X10060479Y-15418501D01*
X10031908Y-15375644D01*
X10017622Y-15347072D01*
X10003337Y-15304215D01*
X9989051Y-15232787D01*
X9989051Y-15175644D01*
X10003337Y-15104215D01*
X10017622Y-15061358D01*
X10031908Y-15032787D01*
X10060479Y-14989929D01*
X10074765Y-14975644D01*
X10174765Y-15047072D02*
X10189051Y-15032787D01*
X10217622Y-15018501D01*
X10289051Y-15018501D01*
X10317622Y-15032787D01*
X10331908Y-15047072D01*
X10346194Y-15075644D01*
X10346194Y-15104215D01*
X10331908Y-15147072D01*
X10160479Y-15318501D01*
X10346194Y-15318501D01*
X10703337Y-15318501D02*
X10703337Y-15018501D01*
X10831908Y-15318501D02*
X10831908Y-15161358D01*
X10817622Y-15132787D01*
X10789051Y-15118501D01*
X10746194Y-15118501D01*
X10717622Y-15132787D01*
X10703337Y-15147072D01*
X11017622Y-15318501D02*
X10989051Y-15304215D01*
X10974765Y-15289929D01*
X10960479Y-15261358D01*
X10960479Y-15175644D01*
X10974765Y-15147072D01*
X10989051Y-15132787D01*
X11017622Y-15118501D01*
X11060479Y-15118501D01*
X11089051Y-15132787D01*
X11103337Y-15147072D01*
X11117622Y-15175644D01*
X11117622Y-15261358D01*
X11103337Y-15289929D01*
X11089051Y-15304215D01*
X11060479Y-15318501D01*
X11017622Y-15318501D01*
X11289051Y-15318501D02*
X11260479Y-15304215D01*
X11246194Y-15275644D01*
X11246194Y-15018501D01*
X11517622Y-15304215D02*
X11489051Y-15318501D01*
X11431908Y-15318501D01*
X11403336Y-15304215D01*
X11389051Y-15275644D01*
X11389051Y-15161358D01*
X11403336Y-15132787D01*
X11431908Y-15118501D01*
X11489051Y-15118501D01*
X11517622Y-15132787D01*
X11531908Y-15161358D01*
X11531908Y-15189929D01*
X11389051Y-15218501D01*
X11646194Y-15304215D02*
X11674765Y-15318501D01*
X11731908Y-15318501D01*
X11760479Y-15304215D01*
X11774765Y-15275644D01*
X11774765Y-15261358D01*
X11760479Y-15232787D01*
X11731908Y-15218501D01*
X11689051Y-15218501D01*
X11660479Y-15204215D01*
X11646194Y-15175644D01*
X11646194Y-15161358D01*
X11660479Y-15132787D01*
X11689051Y-15118501D01*
X11731908Y-15118501D01*
X11760479Y-15132787D01*
X11874765Y-15432787D02*
X11889051Y-15418501D01*
X11917622Y-15375644D01*
X11931908Y-15347072D01*
X11946194Y-15304215D01*
X11960479Y-15232787D01*
X11960479Y-15175644D01*
X11946194Y-15104215D01*
X11931908Y-15061358D01*
X11917622Y-15032787D01*
X11889051Y-14989929D01*
X11874765Y-14975644D01*
X4802264Y-15614142D02*
X4802264Y-15543431D01*
X4731552Y-15543431D01*
X4731552Y-15614142D01*
X4802264Y-15614142D01*
X5260479Y-15714501D02*
X5089051Y-15714501D01*
X5174765Y-15714501D02*
X5174765Y-15414501D01*
X5146194Y-15457358D01*
X5117622Y-15485929D01*
X5089051Y-15500215D01*
X5389051Y-15685929D02*
X5403337Y-15700215D01*
X5389051Y-15714501D01*
X5374765Y-15700215D01*
X5389051Y-15685929D01*
X5389051Y-15714501D01*
X5589051Y-15414501D02*
X5617622Y-15414501D01*
X5646194Y-15428787D01*
X5660479Y-15443072D01*
X5674765Y-15471644D01*
X5689051Y-15528787D01*
X5689051Y-15600215D01*
X5674765Y-15657358D01*
X5660479Y-15685929D01*
X5646194Y-15700215D01*
X5617622Y-15714501D01*
X5589051Y-15714501D01*
X5560479Y-15700215D01*
X5546194Y-15685929D01*
X5531908Y-15657358D01*
X5517622Y-15600215D01*
X5517622Y-15528787D01*
X5531908Y-15471644D01*
X5546194Y-15443072D01*
X5560479Y-15428787D01*
X5589051Y-15414501D01*
X5874765Y-15414501D02*
X5903336Y-15414501D01*
X5931908Y-15428787D01*
X5946194Y-15443072D01*
X5960479Y-15471644D01*
X5974765Y-15528787D01*
X5974765Y-15600215D01*
X5960479Y-15657358D01*
X5946194Y-15685929D01*
X5931908Y-15700215D01*
X5903336Y-15714501D01*
X5874765Y-15714501D01*
X5846194Y-15700215D01*
X5831908Y-15685929D01*
X5817622Y-15657358D01*
X5803336Y-15600215D01*
X5803336Y-15528787D01*
X5817622Y-15471644D01*
X5831908Y-15443072D01*
X5846194Y-15428787D01*
X5874765Y-15414501D01*
X6160479Y-15414501D02*
X6189051Y-15414501D01*
X6217622Y-15428787D01*
X6231908Y-15443072D01*
X6246194Y-15471644D01*
X6260479Y-15528787D01*
X6260479Y-15600215D01*
X6246194Y-15657358D01*
X6231908Y-15685929D01*
X6217622Y-15700215D01*
X6189051Y-15714501D01*
X6160479Y-15714501D01*
X6131908Y-15700215D01*
X6117622Y-15685929D01*
X6103336Y-15657358D01*
X6089051Y-15600215D01*
X6089051Y-15528787D01*
X6103336Y-15471644D01*
X6117622Y-15443072D01*
X6131908Y-15428787D01*
X6160479Y-15414501D01*
X6389051Y-15714501D02*
X6389051Y-15514501D01*
X6389051Y-15543072D02*
X6403336Y-15528787D01*
X6431908Y-15514501D01*
X6474765Y-15514501D01*
X6503336Y-15528787D01*
X6517622Y-15557358D01*
X6517622Y-15714501D01*
X6517622Y-15557358D02*
X6531908Y-15528787D01*
X6560479Y-15514501D01*
X6603336Y-15514501D01*
X6631908Y-15528787D01*
X6646194Y-15557358D01*
X6646194Y-15714501D01*
X6789051Y-15714501D02*
X6789051Y-15514501D01*
X6789051Y-15543072D02*
X6803336Y-15528787D01*
X6831908Y-15514501D01*
X6874765Y-15514501D01*
X6903336Y-15528787D01*
X6917622Y-15557358D01*
X6917622Y-15714501D01*
X6917622Y-15557358D02*
X6931908Y-15528787D01*
X6960479Y-15514501D01*
X7003336Y-15514501D01*
X7031908Y-15528787D01*
X7046194Y-15557358D01*
X7046194Y-15714501D01*
X7631908Y-15400215D02*
X7374765Y-15785929D01*
X8017622Y-15414501D02*
X8046194Y-15414501D01*
X8074765Y-15428787D01*
X8089051Y-15443072D01*
X8103336Y-15471644D01*
X8117622Y-15528787D01*
X8117622Y-15600215D01*
X8103336Y-15657358D01*
X8089051Y-15685929D01*
X8074765Y-15700215D01*
X8046194Y-15714501D01*
X8017622Y-15714501D01*
X7989051Y-15700215D01*
X7974765Y-15685929D01*
X7960479Y-15657358D01*
X7946194Y-15600215D01*
X7946194Y-15528787D01*
X7960479Y-15471644D01*
X7974765Y-15443072D01*
X7989051Y-15428787D01*
X8017622Y-15414501D01*
X8246194Y-15685929D02*
X8260479Y-15700215D01*
X8246194Y-15714501D01*
X8231908Y-15700215D01*
X8246194Y-15685929D01*
X8246194Y-15714501D01*
X8446194Y-15414501D02*
X8474765Y-15414501D01*
X8503337Y-15428787D01*
X8517622Y-15443072D01*
X8531908Y-15471644D01*
X8546194Y-15528787D01*
X8546194Y-15600215D01*
X8531908Y-15657358D01*
X8517622Y-15685929D01*
X8503337Y-15700215D01*
X8474765Y-15714501D01*
X8446194Y-15714501D01*
X8417622Y-15700215D01*
X8403337Y-15685929D01*
X8389051Y-15657358D01*
X8374765Y-15600215D01*
X8374765Y-15528787D01*
X8389051Y-15471644D01*
X8403337Y-15443072D01*
X8417622Y-15428787D01*
X8446194Y-15414501D01*
X8646194Y-15414501D02*
X8831908Y-15414501D01*
X8731908Y-15528787D01*
X8774765Y-15528787D01*
X8803337Y-15543072D01*
X8817622Y-15557358D01*
X8831908Y-15585929D01*
X8831908Y-15657358D01*
X8817622Y-15685929D01*
X8803337Y-15700215D01*
X8774765Y-15714501D01*
X8689051Y-15714501D01*
X8660479Y-15700215D01*
X8646194Y-15685929D01*
X8974765Y-15714501D02*
X9031908Y-15714501D01*
X9060479Y-15700215D01*
X9074765Y-15685929D01*
X9103337Y-15643072D01*
X9117622Y-15585929D01*
X9117622Y-15471644D01*
X9103337Y-15443072D01*
X9089051Y-15428787D01*
X9060479Y-15414501D01*
X9003337Y-15414501D01*
X8974765Y-15428787D01*
X8960479Y-15443072D01*
X8946194Y-15471644D01*
X8946194Y-15543072D01*
X8960479Y-15571644D01*
X8974765Y-15585929D01*
X9003337Y-15600215D01*
X9060479Y-15600215D01*
X9089051Y-15585929D01*
X9103337Y-15571644D01*
X9117622Y-15543072D01*
X9374765Y-15514501D02*
X9374765Y-15714501D01*
X9303337Y-15400215D02*
X9231908Y-15614501D01*
X9417622Y-15614501D01*
X9517622Y-15414501D02*
X9517622Y-15471644D01*
X9631908Y-15414501D02*
X9631908Y-15471644D01*
X10074765Y-15828787D02*
X10060479Y-15814501D01*
X10031908Y-15771644D01*
X10017622Y-15743072D01*
X10003337Y-15700215D01*
X9989051Y-15628787D01*
X9989051Y-15571644D01*
X10003337Y-15500215D01*
X10017622Y-15457358D01*
X10031908Y-15428787D01*
X10060479Y-15385929D01*
X10074765Y-15371644D01*
X10174765Y-15443072D02*
X10189051Y-15428787D01*
X10217622Y-15414501D01*
X10289051Y-15414501D01*
X10317622Y-15428787D01*
X10331908Y-15443072D01*
X10346194Y-15471644D01*
X10346194Y-15500215D01*
X10331908Y-15543072D01*
X10160479Y-15714501D01*
X10346194Y-15714501D01*
X10703337Y-15714501D02*
X10703337Y-15414501D01*
X10831908Y-15714501D02*
X10831908Y-15557358D01*
X10817622Y-15528787D01*
X10789051Y-15514501D01*
X10746194Y-15514501D01*
X10717622Y-15528787D01*
X10703337Y-15543072D01*
X11017622Y-15714501D02*
X10989051Y-15700215D01*
X10974765Y-15685929D01*
X10960479Y-15657358D01*
X10960479Y-15571644D01*
X10974765Y-15543072D01*
X10989051Y-15528787D01*
X11017622Y-15514501D01*
X11060479Y-15514501D01*
X11089051Y-15528787D01*
X11103337Y-15543072D01*
X11117622Y-15571644D01*
X11117622Y-15657358D01*
X11103337Y-15685929D01*
X11089051Y-15700215D01*
X11060479Y-15714501D01*
X11017622Y-15714501D01*
X11289051Y-15714501D02*
X11260479Y-15700215D01*
X11246194Y-15671644D01*
X11246194Y-15414501D01*
X11517622Y-15700215D02*
X11489051Y-15714501D01*
X11431908Y-15714501D01*
X11403336Y-15700215D01*
X11389051Y-15671644D01*
X11389051Y-15557358D01*
X11403336Y-15528787D01*
X11431908Y-15514501D01*
X11489051Y-15514501D01*
X11517622Y-15528787D01*
X11531908Y-15557358D01*
X11531908Y-15585929D01*
X11389051Y-15614501D01*
X11646194Y-15700215D02*
X11674765Y-15714501D01*
X11731908Y-15714501D01*
X11760479Y-15700215D01*
X11774765Y-15671644D01*
X11774765Y-15657358D01*
X11760479Y-15628787D01*
X11731908Y-15614501D01*
X11689051Y-15614501D01*
X11660479Y-15600215D01*
X11646194Y-15571644D01*
X11646194Y-15557358D01*
X11660479Y-15528787D01*
X11689051Y-15514501D01*
X11731908Y-15514501D01*
X11760479Y-15528787D01*
X11874765Y-15828787D02*
X11889051Y-15814501D01*
X11917622Y-15771644D01*
X11931908Y-15743072D01*
X11946194Y-15700215D01*
X11960479Y-15628787D01*
X11960479Y-15571644D01*
X11946194Y-15500215D01*
X11931908Y-15457358D01*
X11917622Y-15428787D01*
X11889051Y-15385929D01*
X11874765Y-15371644D01*
M02*
