G04 #@! TF.GenerationSoftware,KiCad,Pcbnew,5.1.10*
G04 #@! TF.CreationDate,2021-08-14T17:42:51+03:00*
G04 #@! TF.ProjectId,PlantBuddy,506c616e-7442-4756-9464-792e6b696361,rev?*
G04 #@! TF.SameCoordinates,Original*
G04 #@! TF.FileFunction,Soldermask,Bot*
G04 #@! TF.FilePolarity,Negative*
%FSLAX46Y46*%
G04 Gerber Fmt 4.6, Leading zero omitted, Abs format (unit mm)*
G04 Created by KiCad (PCBNEW 5.1.10) date 2021-08-14 17:42:51*
%MOMM*%
%LPD*%
G01*
G04 APERTURE LIST*
%ADD10O,1.400000X1.400000*%
%ADD11O,2.100000X2.100000*%
G04 APERTURE END LIST*
D10*
X59826800Y-62041600D03*
X58556800Y-62041600D03*
X59826800Y-63311600D03*
X58556800Y-63311600D03*
X59826800Y-64581600D03*
X58556800Y-64581600D03*
X59826800Y-65851600D03*
G36*
G01*
X57856800Y-66351600D02*
X57856800Y-65351600D01*
G75*
G02*
X58056800Y-65151600I200000J0D01*
G01*
X59056800Y-65151600D01*
G75*
G02*
X59256800Y-65351600I0J-200000D01*
G01*
X59256800Y-66351600D01*
G75*
G02*
X59056800Y-66551600I-200000J0D01*
G01*
X58056800Y-66551600D01*
G75*
G02*
X57856800Y-66351600I0J200000D01*
G01*
G37*
G36*
G01*
X79046000Y-66600000D02*
X79046000Y-64900000D01*
G75*
G02*
X79246000Y-64700000I200000J0D01*
G01*
X80946000Y-64700000D01*
G75*
G02*
X81146000Y-64900000I0J-200000D01*
G01*
X81146000Y-66600000D01*
G75*
G02*
X80946000Y-66800000I-200000J0D01*
G01*
X79246000Y-66800000D01*
G75*
G02*
X79046000Y-66600000I0J200000D01*
G01*
G37*
D11*
X80096000Y-63210000D03*
G36*
G01*
X63518000Y-48103000D02*
X67718000Y-48103000D01*
G75*
G02*
X67918000Y-48303000I0J-200000D01*
G01*
X67918000Y-51303000D01*
G75*
G02*
X67718000Y-51503000I-200000J0D01*
G01*
X63518000Y-51503000D01*
G75*
G02*
X63318000Y-51303000I0J200000D01*
G01*
X63318000Y-48303000D01*
G75*
G02*
X63518000Y-48103000I200000J0D01*
G01*
G37*
G36*
G01*
X63518000Y-77203000D02*
X67718000Y-77203000D01*
G75*
G02*
X67918000Y-77403000I0J-200000D01*
G01*
X67918000Y-80403000D01*
G75*
G02*
X67718000Y-80603000I-200000J0D01*
G01*
X63518000Y-80603000D01*
G75*
G02*
X63318000Y-80403000I0J200000D01*
G01*
X63318000Y-77403000D01*
G75*
G02*
X63518000Y-77203000I200000J0D01*
G01*
G37*
M02*
