G04 #@! TF.GenerationSoftware,KiCad,Pcbnew,5.1.10*
G04 #@! TF.CreationDate,2021-11-09T15:36:01+02:00*
G04 #@! TF.ProjectId,PlantBuddy,506c616e-7442-4756-9464-792e6b696361,rev?*
G04 #@! TF.SameCoordinates,Original*
G04 #@! TF.FileFunction,Legend,Bot*
G04 #@! TF.FilePolarity,Positive*
%FSLAX46Y46*%
G04 Gerber Fmt 4.6, Leading zero omitted, Abs format (unit mm)*
G04 Created by KiCad (PCBNEW 5.1.10) date 2021-11-09 15:36:01*
%MOMM*%
%LPD*%
G01*
G04 APERTURE LIST*
%ADD10C,0.150000*%
%ADD11C,0.300000*%
%ADD12C,0.200000*%
%ADD13O,2.100000X2.100000*%
%ADD14C,18.200000*%
G04 APERTURE END LIST*
D10*
X81652594Y-68541151D02*
X81652594Y-67541151D01*
X81271641Y-67541151D01*
X81176403Y-67588771D01*
X81128784Y-67636390D01*
X81081165Y-67731628D01*
X81081165Y-67874485D01*
X81128784Y-67969723D01*
X81176403Y-68017342D01*
X81271641Y-68064961D01*
X81652594Y-68064961D01*
X80652594Y-68541151D02*
X80652594Y-67874485D01*
X80652594Y-67541151D02*
X80700213Y-67588771D01*
X80652594Y-67636390D01*
X80604975Y-67588771D01*
X80652594Y-67541151D01*
X80652594Y-67636390D01*
X79795451Y-68493532D02*
X79890689Y-68541151D01*
X80081165Y-68541151D01*
X80176403Y-68493532D01*
X80224022Y-68398294D01*
X80224022Y-68017342D01*
X80176403Y-67922104D01*
X80081165Y-67874485D01*
X79890689Y-67874485D01*
X79795451Y-67922104D01*
X79747832Y-68017342D01*
X79747832Y-68112580D01*
X80224022Y-68207818D01*
X79414499Y-67874485D02*
X78890689Y-67874485D01*
X79414499Y-68541151D01*
X78890689Y-68541151D01*
X78366880Y-68541151D02*
X78462118Y-68493532D01*
X78509737Y-68445913D01*
X78557356Y-68350675D01*
X78557356Y-68064961D01*
X78509737Y-67969723D01*
X78462118Y-67922104D01*
X78366880Y-67874485D01*
X78224022Y-67874485D01*
X78128784Y-67922104D01*
X78081165Y-67969723D01*
X78033546Y-68064961D01*
X78033546Y-68350675D01*
X78081165Y-68445913D01*
X78128784Y-68493532D01*
X78224022Y-68541151D01*
X78366880Y-68541151D01*
X72241484Y-78460351D02*
X72241484Y-77460351D01*
X72241484Y-77841304D02*
X72146246Y-77793685D01*
X71955770Y-77793685D01*
X71860532Y-77841304D01*
X71812913Y-77888923D01*
X71765294Y-77984161D01*
X71765294Y-78269875D01*
X71812913Y-78365113D01*
X71860532Y-78412732D01*
X71955770Y-78460351D01*
X72146246Y-78460351D01*
X72241484Y-78412732D01*
X71431960Y-77793685D02*
X71193865Y-78460351D01*
X70955770Y-77793685D02*
X71193865Y-78460351D01*
X71289103Y-78698447D01*
X71336722Y-78746066D01*
X71431960Y-78793685D01*
X69860532Y-78174637D02*
X69384341Y-78174637D01*
X69955770Y-78460351D02*
X69622437Y-77460351D01*
X69289103Y-78460351D01*
X68955770Y-78460351D02*
X68955770Y-77793685D01*
X68955770Y-77984161D02*
X68908151Y-77888923D01*
X68860532Y-77841304D01*
X68765294Y-77793685D01*
X68670056Y-77793685D01*
X67908151Y-78460351D02*
X67908151Y-77460351D01*
X67908151Y-78412732D02*
X68003389Y-78460351D01*
X68193865Y-78460351D01*
X68289103Y-78412732D01*
X68336722Y-78365113D01*
X68384341Y-78269875D01*
X68384341Y-77984161D01*
X68336722Y-77888923D01*
X68289103Y-77841304D01*
X68193865Y-77793685D01*
X68003389Y-77793685D01*
X67908151Y-77841304D01*
X67051008Y-78412732D02*
X67146246Y-78460351D01*
X67336722Y-78460351D01*
X67431960Y-78412732D01*
X67479580Y-78317494D01*
X67479580Y-77936542D01*
X67431960Y-77841304D01*
X67336722Y-77793685D01*
X67146246Y-77793685D01*
X67051008Y-77841304D01*
X67003389Y-77936542D01*
X67003389Y-78031780D01*
X67479580Y-78127018D01*
X66431960Y-78460351D02*
X66527199Y-78412732D01*
X66574818Y-78317494D01*
X66574818Y-77460351D01*
X65670056Y-78412732D02*
X65765294Y-78460351D01*
X65955770Y-78460351D01*
X66051008Y-78412732D01*
X66098627Y-78317494D01*
X66098627Y-77936542D01*
X66051008Y-77841304D01*
X65955770Y-77793685D01*
X65765294Y-77793685D01*
X65670056Y-77841304D01*
X65622437Y-77936542D01*
X65622437Y-78031780D01*
X66098627Y-78127018D01*
X64765294Y-78460351D02*
X64765294Y-77936542D01*
X64812913Y-77841304D01*
X64908151Y-77793685D01*
X65098627Y-77793685D01*
X65193865Y-77841304D01*
X64765294Y-78412732D02*
X64860532Y-78460351D01*
X65098627Y-78460351D01*
X65193865Y-78412732D01*
X65241484Y-78317494D01*
X65241484Y-78222256D01*
X65193865Y-78127018D01*
X65098627Y-78079399D01*
X64860532Y-78079399D01*
X64765294Y-78031780D01*
X64289103Y-77793685D02*
X64289103Y-78460351D01*
X64289103Y-77888923D02*
X64241484Y-77841304D01*
X64146246Y-77793685D01*
X64003389Y-77793685D01*
X63908151Y-77841304D01*
X63860532Y-77936542D01*
X63860532Y-78460351D01*
X62051008Y-78365113D02*
X62098627Y-78412732D01*
X62241484Y-78460351D01*
X62336722Y-78460351D01*
X62479580Y-78412732D01*
X62574818Y-78317494D01*
X62622437Y-78222256D01*
X62670056Y-78031780D01*
X62670056Y-77888923D01*
X62622437Y-77698447D01*
X62574818Y-77603209D01*
X62479580Y-77507971D01*
X62336722Y-77460351D01*
X62241484Y-77460351D01*
X62098627Y-77507971D01*
X62051008Y-77555590D01*
X61193865Y-78460351D02*
X61193865Y-77936542D01*
X61241484Y-77841304D01*
X61336722Y-77793685D01*
X61527199Y-77793685D01*
X61622437Y-77841304D01*
X61193865Y-78412732D02*
X61289103Y-78460351D01*
X61527199Y-78460351D01*
X61622437Y-78412732D01*
X61670056Y-78317494D01*
X61670056Y-78222256D01*
X61622437Y-78127018D01*
X61527199Y-78079399D01*
X61289103Y-78079399D01*
X61193865Y-78031780D01*
X60574818Y-78460351D02*
X60670056Y-78412732D01*
X60717675Y-78317494D01*
X60717675Y-77460351D01*
X60193865Y-78460351D02*
X60193865Y-77793685D01*
X60193865Y-77460351D02*
X60241484Y-77507971D01*
X60193865Y-77555590D01*
X60146246Y-77507971D01*
X60193865Y-77460351D01*
X60193865Y-77555590D01*
X59717675Y-77793685D02*
X59717675Y-78460351D01*
X59717675Y-77888923D02*
X59670056Y-77841304D01*
X59574818Y-77793685D01*
X59431960Y-77793685D01*
X59336722Y-77841304D01*
X59289103Y-77936542D01*
X59289103Y-78460351D01*
X57241484Y-78460351D02*
X57289103Y-78460351D01*
X57384341Y-78412732D01*
X57527199Y-78269875D01*
X57765294Y-77984161D01*
X57860532Y-77841304D01*
X57908151Y-77698447D01*
X57908151Y-77603209D01*
X57860532Y-77507971D01*
X57765294Y-77460351D01*
X57717675Y-77460351D01*
X57622437Y-77507971D01*
X57574818Y-77603209D01*
X57574818Y-77650828D01*
X57622437Y-77746066D01*
X57670056Y-77793685D01*
X57955770Y-77984161D01*
X58003389Y-78031780D01*
X58051008Y-78127018D01*
X58051008Y-78269875D01*
X58003389Y-78365113D01*
X57955770Y-78412732D01*
X57860532Y-78460351D01*
X57717675Y-78460351D01*
X57622437Y-78412732D01*
X57574818Y-78365113D01*
X57431960Y-78174637D01*
X57384341Y-78031780D01*
X57384341Y-77936542D01*
X71717675Y-79157971D02*
X71812913Y-79110351D01*
X71955770Y-79110351D01*
X72098627Y-79157971D01*
X72193865Y-79253209D01*
X72241484Y-79348447D01*
X72289103Y-79538923D01*
X72289103Y-79681780D01*
X72241484Y-79872256D01*
X72193865Y-79967494D01*
X72098627Y-80062732D01*
X71955770Y-80110351D01*
X71860532Y-80110351D01*
X71717675Y-80062732D01*
X71670056Y-80015113D01*
X71670056Y-79681780D01*
X71860532Y-79681780D01*
X70860532Y-80062732D02*
X70955770Y-80110351D01*
X71146246Y-80110351D01*
X71241484Y-80062732D01*
X71289103Y-79967494D01*
X71289103Y-79586542D01*
X71241484Y-79491304D01*
X71146246Y-79443685D01*
X70955770Y-79443685D01*
X70860532Y-79491304D01*
X70812913Y-79586542D01*
X70812913Y-79681780D01*
X71289103Y-79777018D01*
X69955770Y-80110351D02*
X69955770Y-79586542D01*
X70003389Y-79491304D01*
X70098627Y-79443685D01*
X70289103Y-79443685D01*
X70384341Y-79491304D01*
X69955770Y-80062732D02*
X70051008Y-80110351D01*
X70289103Y-80110351D01*
X70384341Y-80062732D01*
X70431960Y-79967494D01*
X70431960Y-79872256D01*
X70384341Y-79777018D01*
X70289103Y-79729399D01*
X70051008Y-79729399D01*
X69955770Y-79681780D01*
X69479580Y-79443685D02*
X69479580Y-80110351D01*
X69479580Y-79538923D02*
X69431960Y-79491304D01*
X69336722Y-79443685D01*
X69193865Y-79443685D01*
X69098627Y-79491304D01*
X69051008Y-79586542D01*
X69051008Y-80110351D01*
X68574818Y-80110351D02*
X68574818Y-79443685D01*
X68574818Y-79110351D02*
X68622437Y-79157971D01*
X68574818Y-79205590D01*
X68527199Y-79157971D01*
X68574818Y-79110351D01*
X68574818Y-79205590D01*
X68098627Y-79443685D02*
X68098627Y-80110351D01*
X68098627Y-79538923D02*
X68051008Y-79491304D01*
X67955770Y-79443685D01*
X67812913Y-79443685D01*
X67717675Y-79491304D01*
X67670056Y-79586542D01*
X67670056Y-80110351D01*
X66765294Y-80110351D02*
X66765294Y-79586542D01*
X66812913Y-79491304D01*
X66908151Y-79443685D01*
X67098627Y-79443685D01*
X67193865Y-79491304D01*
X66765294Y-80062732D02*
X66860532Y-80110351D01*
X67098627Y-80110351D01*
X67193865Y-80062732D01*
X67241484Y-79967494D01*
X67241484Y-79872256D01*
X67193865Y-79777018D01*
X67098627Y-79729399D01*
X66860532Y-79729399D01*
X66765294Y-79681780D01*
X65670056Y-79110351D02*
X65098627Y-79110351D01*
X65384341Y-80110351D02*
X65384341Y-79110351D01*
X64622437Y-80110351D02*
X64717675Y-80062732D01*
X64765294Y-80015113D01*
X64812913Y-79919875D01*
X64812913Y-79634161D01*
X64765294Y-79538923D01*
X64717675Y-79491304D01*
X64622437Y-79443685D01*
X64479580Y-79443685D01*
X64384341Y-79491304D01*
X64336722Y-79538923D01*
X64289103Y-79634161D01*
X64289103Y-79919875D01*
X64336722Y-80015113D01*
X64384341Y-80062732D01*
X64479580Y-80110351D01*
X64622437Y-80110351D01*
X63431960Y-80110351D02*
X63431960Y-79586542D01*
X63479580Y-79491304D01*
X63574818Y-79443685D01*
X63765294Y-79443685D01*
X63860532Y-79491304D01*
X63431960Y-80062732D02*
X63527199Y-80110351D01*
X63765294Y-80110351D01*
X63860532Y-80062732D01*
X63908151Y-79967494D01*
X63908151Y-79872256D01*
X63860532Y-79777018D01*
X63765294Y-79729399D01*
X63527199Y-79729399D01*
X63431960Y-79681780D01*
X62527199Y-80110351D02*
X62527199Y-79110351D01*
X62527199Y-80062732D02*
X62622437Y-80110351D01*
X62812913Y-80110351D01*
X62908151Y-80062732D01*
X62955770Y-80015113D01*
X63003389Y-79919875D01*
X63003389Y-79634161D01*
X62955770Y-79538923D01*
X62908151Y-79491304D01*
X62812913Y-79443685D01*
X62622437Y-79443685D01*
X62527199Y-79491304D01*
X61670056Y-80062732D02*
X61765294Y-80110351D01*
X61955770Y-80110351D01*
X62051008Y-80062732D01*
X62098627Y-79967494D01*
X62098627Y-79586542D01*
X62051008Y-79491304D01*
X61955770Y-79443685D01*
X61765294Y-79443685D01*
X61670056Y-79491304D01*
X61622437Y-79586542D01*
X61622437Y-79681780D01*
X62098627Y-79777018D01*
X61193865Y-80110351D02*
X61193865Y-79443685D01*
X61193865Y-79634161D02*
X61146246Y-79538923D01*
X61098627Y-79491304D01*
X61003389Y-79443685D01*
X60908151Y-79443685D01*
D11*
X70267171Y-49945657D02*
X70767171Y-49945657D01*
X70767171Y-50731371D02*
X70767171Y-49231371D01*
X70052885Y-49231371D01*
X69267171Y-50731371D02*
X69410028Y-50659942D01*
X69481457Y-50517085D01*
X69481457Y-49231371D01*
X68695742Y-50731371D02*
X68695742Y-49731371D01*
X68695742Y-49231371D02*
X68767171Y-49302800D01*
X68695742Y-49374228D01*
X68624314Y-49302800D01*
X68695742Y-49231371D01*
X68695742Y-49374228D01*
X68124314Y-49731371D02*
X67767171Y-50731371D01*
X67410028Y-49731371D01*
X66981457Y-49731371D02*
X66195742Y-49731371D01*
X66981457Y-50731371D01*
X66195742Y-50731371D01*
X65624314Y-50731371D02*
X65624314Y-49231371D01*
X64767171Y-50731371D01*
X64767171Y-49231371D01*
X63481457Y-50659942D02*
X63624314Y-50731371D01*
X63910028Y-50731371D01*
X64052885Y-50659942D01*
X64124314Y-50517085D01*
X64124314Y-49945657D01*
X64052885Y-49802800D01*
X63910028Y-49731371D01*
X63624314Y-49731371D01*
X63481457Y-49802800D01*
X63410028Y-49945657D01*
X63410028Y-50088514D01*
X64124314Y-50231371D01*
X62910028Y-50731371D02*
X62124314Y-49731371D01*
X62910028Y-49731371D02*
X62124314Y-50731371D01*
X61695742Y-50731371D02*
X60910028Y-49731371D01*
X61695742Y-49731371D02*
X60910028Y-50731371D01*
X60481457Y-49731371D02*
X60124314Y-50731371D01*
X59767171Y-49731371D02*
X60124314Y-50731371D01*
X60267171Y-51088514D01*
X60338600Y-51159942D01*
X60481457Y-51231371D01*
D12*
X75694200Y-64353000D02*
G75*
G03*
X75694200Y-64353000I-10000000J0D01*
G01*
X69671937Y-51985266D02*
X69671937Y-53509075D01*
X70433841Y-52747171D02*
X68910032Y-52747171D01*
%LPC*%
D13*
X79892280Y-62856371D03*
G36*
G01*
X80942280Y-64546371D02*
X80942280Y-66246371D01*
G75*
G02*
X80742280Y-66446371I-200000J0D01*
G01*
X79042280Y-66446371D01*
G75*
G02*
X78842280Y-66246371I0J200000D01*
G01*
X78842280Y-64546371D01*
G75*
G02*
X79042280Y-64346371I200000J0D01*
G01*
X80742280Y-64346371D01*
G75*
G02*
X80942280Y-64546371I0J-200000D01*
G01*
G37*
G36*
G01*
X68244200Y-77253000D02*
X63144200Y-77253000D01*
G75*
G02*
X62944200Y-77053000I0J200000D01*
G01*
X62944200Y-74553000D01*
G75*
G02*
X63144200Y-74353000I200000J0D01*
G01*
X68244200Y-74353000D01*
G75*
G02*
X68444200Y-74553000I0J-200000D01*
G01*
X68444200Y-77053000D01*
G75*
G02*
X68244200Y-77253000I-200000J0D01*
G01*
G37*
D14*
X65694200Y-64353000D03*
G36*
G01*
X68244200Y-54353000D02*
X63144200Y-54353000D01*
G75*
G02*
X62944200Y-54153000I0J200000D01*
G01*
X62944200Y-51653000D01*
G75*
G02*
X63144200Y-51453000I200000J0D01*
G01*
X68244200Y-51453000D01*
G75*
G02*
X68444200Y-51653000I0J-200000D01*
G01*
X68444200Y-54153000D01*
G75*
G02*
X68244200Y-54353000I-200000J0D01*
G01*
G37*
M02*
