M48
; DRILL file {KiCad 5.1.10} date Sat Aug 14 17:42:53 2021
; FORMAT={-:-/ absolute / metric / decimal}
; #@! TF.CreationDate,2021-08-14T17:42:53+03:00
; #@! TF.GenerationSoftware,Kicad,Pcbnew,5.1.10
; #@! TF.FileFunction,Plated,1,2,PTH
FMAT,2
METRIC
T1C0.200
T2C0.300
T3C0.500
T4C0.650
T5C1.000
%
G90
G05
T1
X63.875Y-67.627
X63.875Y-68.827
X63.875Y-70.027
X63.875Y-71.227
X65.075Y-67.627
X65.075Y-68.827
X65.075Y-70.027
X65.075Y-71.227
X66.275Y-67.627
X66.275Y-68.827
X66.275Y-70.027
X66.275Y-71.227
X67.475Y-67.627
X67.475Y-68.827
X67.475Y-70.027
X67.475Y-71.227
T2
X55.776Y-71.025
X56.068Y-67.122
X56.068Y-72.252
X56.068Y-73.167
X56.88Y-74.945
X56.931Y-67.884
X57.49Y-54.777
X57.744Y-52.085
X57.947Y-70.017
X59.573Y-67.934
X59.725Y-70.017
X59.827Y-59.502
X60.132Y-53.152
X60.182Y-67.122
X62.316Y-74.03
X62.316Y-76.926
X63.738Y-76.57
X64.145Y-78.348
X64.145Y-79.415
X64.551Y-53.507
X65.618Y-49.799
X65.77Y-54.676
X65.974Y-56.352
X66.075Y-59.756
X67.752Y-58.435
X67.802Y-75.046
X67.904Y-53.507
X68.361Y-77.028
X68.717Y-72.913
X69.479Y-56.809
X70.444Y-76.012
X70.647Y-74.691
X70.749Y-73.573
X71.663Y-58.943
X74.102Y-71.084
X74.61Y-58.892
X76.337Y-61.127
X76.438Y-67.579
T3
X61.722Y-81.369
X69.722Y-81.369
T4
X58.557Y-62.042
X58.557Y-63.312
X58.557Y-64.582
X58.557Y-65.852
X59.827Y-62.042
X59.827Y-63.312
X59.827Y-64.582
X59.827Y-65.852
T5
X80.096Y-63.21
X80.096Y-65.75
T0
M30
