M48
; DRILL file {KiCad 5.1.10} date Tue Nov  9 15:36:18 2021
; FORMAT={-:-/ absolute / metric / decimal}
; #@! TF.CreationDate,2021-11-09T15:36:18+02:00
; #@! TF.GenerationSoftware,Kicad,Pcbnew,5.1.10
; #@! TF.FileFunction,Plated,1,2,PTH
FMAT,2
METRIC
T1C0.200
T2C0.300
T3C0.500
T4C1.000
%
G90
G05
T1
X63.85Y-69.126
X63.85Y-70.326
X63.85Y-71.526
X63.85Y-72.726
X65.05Y-69.126
X65.05Y-70.326
X65.05Y-71.526
X65.05Y-72.726
X66.25Y-69.126
X66.25Y-70.326
X66.25Y-71.526
X66.25Y-72.726
X67.45Y-69.126
X67.45Y-70.326
X67.45Y-71.526
X67.45Y-72.726
T2
X55.016Y-64.414
X55.099Y-63.098
X55.099Y-65.73
X55.346Y-61.803
X55.346Y-67.026
X55.754Y-60.549
X55.754Y-68.28
X56.315Y-59.356
X56.315Y-69.473
X57.022Y-58.243
X57.862Y-57.227
X58.302Y-62.729
X58.823Y-56.324
X58.823Y-72.505
X59.14Y-49.09
X59.166Y-50.588
X59.191Y-52.061
X59.191Y-53.662
X59.293Y-55.465
X59.369Y-73.347
X59.422Y-74.538
X60.677Y-48.544
X60.677Y-79.929
X62.575Y-74.109
X62.684Y-48.029
X64.068Y-79.468
X64.74Y-47.769
X65.706Y-52.892
X65.77Y-55.303
X66.812Y-47.769
X67.522Y-55.389
X68.792Y-73.855
X68.868Y-48.029
X70.316Y-70.4
X70.875Y-48.544
X70.875Y-79.929
X72.801Y-49.307
X72.801Y-79.166
X74.617Y-50.305
X74.617Y-78.168
X74.863Y-75.887
X76.293Y-51.523
X76.293Y-76.95
X77.251Y-67.632
X77.657Y-68.47
X77.804Y-52.942
X77.804Y-75.532
X77.835Y-70.781
X77.86Y-72.381
X78.165Y-65.142
X79.125Y-54.538
X79.125Y-73.935
X80.235Y-56.288
X80.235Y-72.186
X80.299Y-67.098
X81.117Y-58.163
X81.117Y-70.311
X81.758Y-60.133
X81.758Y-68.34
X82.146Y-62.169
X82.146Y-66.305
X82.276Y-64.237
T3
X61.722Y-81.369
X69.722Y-81.369
T4
X79.892Y-62.856
X79.892Y-65.396
T0
M30
