G04 #@! TF.GenerationSoftware,KiCad,Pcbnew,5.1.10*
G04 #@! TF.CreationDate,2021-08-14T17:42:51+03:00*
G04 #@! TF.ProjectId,PlantBuddy,506c616e-7442-4756-9464-792e6b696361,rev?*
G04 #@! TF.SameCoordinates,Original*
G04 #@! TF.FileFunction,Soldermask,Top*
G04 #@! TF.FilePolarity,Negative*
%FSLAX46Y46*%
G04 Gerber Fmt 4.6, Leading zero omitted, Abs format (unit mm)*
G04 Created by KiCad (PCBNEW 5.1.10) date 2021-08-14 17:42:51*
%MOMM*%
%LPD*%
G01*
G04 APERTURE LIST*
%ADD10O,1.400000X1.400000*%
%ADD11O,2.100000X2.100000*%
%ADD12C,1.400000*%
G04 APERTURE END LIST*
D10*
X59826800Y-62041600D03*
X58556800Y-62041600D03*
X59826800Y-63311600D03*
X58556800Y-63311600D03*
X59826800Y-64581600D03*
X58556800Y-64581600D03*
X59826800Y-65851600D03*
G36*
G01*
X57856800Y-66351600D02*
X57856800Y-65351600D01*
G75*
G02*
X58056800Y-65151600I200000J0D01*
G01*
X59056800Y-65151600D01*
G75*
G02*
X59256800Y-65351600I0J-200000D01*
G01*
X59256800Y-66351600D01*
G75*
G02*
X59056800Y-66551600I-200000J0D01*
G01*
X58056800Y-66551600D01*
G75*
G02*
X57856800Y-66351600I0J200000D01*
G01*
G37*
G36*
G01*
X69225500Y-71477000D02*
X69225500Y-71777000D01*
G75*
G02*
X69075500Y-71927000I-150000J0D01*
G01*
X68175500Y-71927000D01*
G75*
G02*
X68025500Y-71777000I0J150000D01*
G01*
X68025500Y-71477000D01*
G75*
G02*
X68175500Y-71327000I150000J0D01*
G01*
X69075500Y-71327000D01*
G75*
G02*
X69225500Y-71477000I0J-150000D01*
G01*
G37*
G36*
G01*
X69225500Y-71077000D02*
X69225500Y-71377000D01*
G75*
G02*
X69075500Y-71527000I-150000J0D01*
G01*
X68175500Y-71527000D01*
G75*
G02*
X68025500Y-71377000I0J150000D01*
G01*
X68025500Y-71077000D01*
G75*
G02*
X68175500Y-70927000I150000J0D01*
G01*
X69075500Y-70927000D01*
G75*
G02*
X69225500Y-71077000I0J-150000D01*
G01*
G37*
G36*
G01*
X69225500Y-70677000D02*
X69225500Y-70977000D01*
G75*
G02*
X69075500Y-71127000I-150000J0D01*
G01*
X68175500Y-71127000D01*
G75*
G02*
X68025500Y-70977000I0J150000D01*
G01*
X68025500Y-70677000D01*
G75*
G02*
X68175500Y-70527000I150000J0D01*
G01*
X69075500Y-70527000D01*
G75*
G02*
X69225500Y-70677000I0J-150000D01*
G01*
G37*
G36*
G01*
X69225500Y-70277000D02*
X69225500Y-70577000D01*
G75*
G02*
X69075500Y-70727000I-150000J0D01*
G01*
X68175500Y-70727000D01*
G75*
G02*
X68025500Y-70577000I0J150000D01*
G01*
X68025500Y-70277000D01*
G75*
G02*
X68175500Y-70127000I150000J0D01*
G01*
X69075500Y-70127000D01*
G75*
G02*
X69225500Y-70277000I0J-150000D01*
G01*
G37*
G36*
G01*
X69225500Y-69877000D02*
X69225500Y-70177000D01*
G75*
G02*
X69075500Y-70327000I-150000J0D01*
G01*
X68175500Y-70327000D01*
G75*
G02*
X68025500Y-70177000I0J150000D01*
G01*
X68025500Y-69877000D01*
G75*
G02*
X68175500Y-69727000I150000J0D01*
G01*
X69075500Y-69727000D01*
G75*
G02*
X69225500Y-69877000I0J-150000D01*
G01*
G37*
G36*
G01*
X69225500Y-69477000D02*
X69225500Y-69777000D01*
G75*
G02*
X69075500Y-69927000I-150000J0D01*
G01*
X68175500Y-69927000D01*
G75*
G02*
X68025500Y-69777000I0J150000D01*
G01*
X68025500Y-69477000D01*
G75*
G02*
X68175500Y-69327000I150000J0D01*
G01*
X69075500Y-69327000D01*
G75*
G02*
X69225500Y-69477000I0J-150000D01*
G01*
G37*
G36*
G01*
X69225500Y-69077000D02*
X69225500Y-69377000D01*
G75*
G02*
X69075500Y-69527000I-150000J0D01*
G01*
X68175500Y-69527000D01*
G75*
G02*
X68025500Y-69377000I0J150000D01*
G01*
X68025500Y-69077000D01*
G75*
G02*
X68175500Y-68927000I150000J0D01*
G01*
X69075500Y-68927000D01*
G75*
G02*
X69225500Y-69077000I0J-150000D01*
G01*
G37*
G36*
G01*
X69225500Y-68677000D02*
X69225500Y-68977000D01*
G75*
G02*
X69075500Y-69127000I-150000J0D01*
G01*
X68175500Y-69127000D01*
G75*
G02*
X68025500Y-68977000I0J150000D01*
G01*
X68025500Y-68677000D01*
G75*
G02*
X68175500Y-68527000I150000J0D01*
G01*
X69075500Y-68527000D01*
G75*
G02*
X69225500Y-68677000I0J-150000D01*
G01*
G37*
G36*
G01*
X69225500Y-68277000D02*
X69225500Y-68577000D01*
G75*
G02*
X69075500Y-68727000I-150000J0D01*
G01*
X68175500Y-68727000D01*
G75*
G02*
X68025500Y-68577000I0J150000D01*
G01*
X68025500Y-68277000D01*
G75*
G02*
X68175500Y-68127000I150000J0D01*
G01*
X69075500Y-68127000D01*
G75*
G02*
X69225500Y-68277000I0J-150000D01*
G01*
G37*
G36*
G01*
X69225500Y-67877000D02*
X69225500Y-68177000D01*
G75*
G02*
X69075500Y-68327000I-150000J0D01*
G01*
X68175500Y-68327000D01*
G75*
G02*
X68025500Y-68177000I0J150000D01*
G01*
X68025500Y-67877000D01*
G75*
G02*
X68175500Y-67727000I150000J0D01*
G01*
X69075500Y-67727000D01*
G75*
G02*
X69225500Y-67877000I0J-150000D01*
G01*
G37*
G36*
G01*
X69225500Y-67477000D02*
X69225500Y-67777000D01*
G75*
G02*
X69075500Y-67927000I-150000J0D01*
G01*
X68175500Y-67927000D01*
G75*
G02*
X68025500Y-67777000I0J150000D01*
G01*
X68025500Y-67477000D01*
G75*
G02*
X68175500Y-67327000I150000J0D01*
G01*
X69075500Y-67327000D01*
G75*
G02*
X69225500Y-67477000I0J-150000D01*
G01*
G37*
G36*
G01*
X69225500Y-67077000D02*
X69225500Y-67377000D01*
G75*
G02*
X69075500Y-67527000I-150000J0D01*
G01*
X68175500Y-67527000D01*
G75*
G02*
X68025500Y-67377000I0J150000D01*
G01*
X68025500Y-67077000D01*
G75*
G02*
X68175500Y-66927000I150000J0D01*
G01*
X69075500Y-66927000D01*
G75*
G02*
X69225500Y-67077000I0J-150000D01*
G01*
G37*
G36*
G01*
X68175500Y-66027000D02*
X68175500Y-66927000D01*
G75*
G02*
X68025500Y-67077000I-150000J0D01*
G01*
X67725500Y-67077000D01*
G75*
G02*
X67575500Y-66927000I0J150000D01*
G01*
X67575500Y-66027000D01*
G75*
G02*
X67725500Y-65877000I150000J0D01*
G01*
X68025500Y-65877000D01*
G75*
G02*
X68175500Y-66027000I0J-150000D01*
G01*
G37*
G36*
G01*
X67775500Y-66027000D02*
X67775500Y-66927000D01*
G75*
G02*
X67625500Y-67077000I-150000J0D01*
G01*
X67325500Y-67077000D01*
G75*
G02*
X67175500Y-66927000I0J150000D01*
G01*
X67175500Y-66027000D01*
G75*
G02*
X67325500Y-65877000I150000J0D01*
G01*
X67625500Y-65877000D01*
G75*
G02*
X67775500Y-66027000I0J-150000D01*
G01*
G37*
G36*
G01*
X67375500Y-66027000D02*
X67375500Y-66927000D01*
G75*
G02*
X67225500Y-67077000I-150000J0D01*
G01*
X66925500Y-67077000D01*
G75*
G02*
X66775500Y-66927000I0J150000D01*
G01*
X66775500Y-66027000D01*
G75*
G02*
X66925500Y-65877000I150000J0D01*
G01*
X67225500Y-65877000D01*
G75*
G02*
X67375500Y-66027000I0J-150000D01*
G01*
G37*
G36*
G01*
X66975500Y-66027000D02*
X66975500Y-66927000D01*
G75*
G02*
X66825500Y-67077000I-150000J0D01*
G01*
X66525500Y-67077000D01*
G75*
G02*
X66375500Y-66927000I0J150000D01*
G01*
X66375500Y-66027000D01*
G75*
G02*
X66525500Y-65877000I150000J0D01*
G01*
X66825500Y-65877000D01*
G75*
G02*
X66975500Y-66027000I0J-150000D01*
G01*
G37*
G36*
G01*
X66575500Y-66027000D02*
X66575500Y-66927000D01*
G75*
G02*
X66425500Y-67077000I-150000J0D01*
G01*
X66125500Y-67077000D01*
G75*
G02*
X65975500Y-66927000I0J150000D01*
G01*
X65975500Y-66027000D01*
G75*
G02*
X66125500Y-65877000I150000J0D01*
G01*
X66425500Y-65877000D01*
G75*
G02*
X66575500Y-66027000I0J-150000D01*
G01*
G37*
G36*
G01*
X66175500Y-66027000D02*
X66175500Y-66927000D01*
G75*
G02*
X66025500Y-67077000I-150000J0D01*
G01*
X65725500Y-67077000D01*
G75*
G02*
X65575500Y-66927000I0J150000D01*
G01*
X65575500Y-66027000D01*
G75*
G02*
X65725500Y-65877000I150000J0D01*
G01*
X66025500Y-65877000D01*
G75*
G02*
X66175500Y-66027000I0J-150000D01*
G01*
G37*
G36*
G01*
X65775500Y-66027000D02*
X65775500Y-66927000D01*
G75*
G02*
X65625500Y-67077000I-150000J0D01*
G01*
X65325500Y-67077000D01*
G75*
G02*
X65175500Y-66927000I0J150000D01*
G01*
X65175500Y-66027000D01*
G75*
G02*
X65325500Y-65877000I150000J0D01*
G01*
X65625500Y-65877000D01*
G75*
G02*
X65775500Y-66027000I0J-150000D01*
G01*
G37*
G36*
G01*
X65375500Y-66027000D02*
X65375500Y-66927000D01*
G75*
G02*
X65225500Y-67077000I-150000J0D01*
G01*
X64925500Y-67077000D01*
G75*
G02*
X64775500Y-66927000I0J150000D01*
G01*
X64775500Y-66027000D01*
G75*
G02*
X64925500Y-65877000I150000J0D01*
G01*
X65225500Y-65877000D01*
G75*
G02*
X65375500Y-66027000I0J-150000D01*
G01*
G37*
G36*
G01*
X64975500Y-66027000D02*
X64975500Y-66927000D01*
G75*
G02*
X64825500Y-67077000I-150000J0D01*
G01*
X64525500Y-67077000D01*
G75*
G02*
X64375500Y-66927000I0J150000D01*
G01*
X64375500Y-66027000D01*
G75*
G02*
X64525500Y-65877000I150000J0D01*
G01*
X64825500Y-65877000D01*
G75*
G02*
X64975500Y-66027000I0J-150000D01*
G01*
G37*
G36*
G01*
X64575500Y-66027000D02*
X64575500Y-66927000D01*
G75*
G02*
X64425500Y-67077000I-150000J0D01*
G01*
X64125500Y-67077000D01*
G75*
G02*
X63975500Y-66927000I0J150000D01*
G01*
X63975500Y-66027000D01*
G75*
G02*
X64125500Y-65877000I150000J0D01*
G01*
X64425500Y-65877000D01*
G75*
G02*
X64575500Y-66027000I0J-150000D01*
G01*
G37*
G36*
G01*
X64175500Y-66027000D02*
X64175500Y-66927000D01*
G75*
G02*
X64025500Y-67077000I-150000J0D01*
G01*
X63725500Y-67077000D01*
G75*
G02*
X63575500Y-66927000I0J150000D01*
G01*
X63575500Y-66027000D01*
G75*
G02*
X63725500Y-65877000I150000J0D01*
G01*
X64025500Y-65877000D01*
G75*
G02*
X64175500Y-66027000I0J-150000D01*
G01*
G37*
G36*
G01*
X63775500Y-66027000D02*
X63775500Y-66927000D01*
G75*
G02*
X63625500Y-67077000I-150000J0D01*
G01*
X63325500Y-67077000D01*
G75*
G02*
X63175500Y-66927000I0J150000D01*
G01*
X63175500Y-66027000D01*
G75*
G02*
X63325500Y-65877000I150000J0D01*
G01*
X63625500Y-65877000D01*
G75*
G02*
X63775500Y-66027000I0J-150000D01*
G01*
G37*
G36*
G01*
X63325500Y-67077000D02*
X63325500Y-67377000D01*
G75*
G02*
X63175500Y-67527000I-150000J0D01*
G01*
X62275500Y-67527000D01*
G75*
G02*
X62125500Y-67377000I0J150000D01*
G01*
X62125500Y-67077000D01*
G75*
G02*
X62275500Y-66927000I150000J0D01*
G01*
X63175500Y-66927000D01*
G75*
G02*
X63325500Y-67077000I0J-150000D01*
G01*
G37*
G36*
G01*
X63325500Y-67477000D02*
X63325500Y-67777000D01*
G75*
G02*
X63175500Y-67927000I-150000J0D01*
G01*
X62275500Y-67927000D01*
G75*
G02*
X62125500Y-67777000I0J150000D01*
G01*
X62125500Y-67477000D01*
G75*
G02*
X62275500Y-67327000I150000J0D01*
G01*
X63175500Y-67327000D01*
G75*
G02*
X63325500Y-67477000I0J-150000D01*
G01*
G37*
G36*
G01*
X63325500Y-67877000D02*
X63325500Y-68177000D01*
G75*
G02*
X63175500Y-68327000I-150000J0D01*
G01*
X62275500Y-68327000D01*
G75*
G02*
X62125500Y-68177000I0J150000D01*
G01*
X62125500Y-67877000D01*
G75*
G02*
X62275500Y-67727000I150000J0D01*
G01*
X63175500Y-67727000D01*
G75*
G02*
X63325500Y-67877000I0J-150000D01*
G01*
G37*
G36*
G01*
X63325500Y-68277000D02*
X63325500Y-68577000D01*
G75*
G02*
X63175500Y-68727000I-150000J0D01*
G01*
X62275500Y-68727000D01*
G75*
G02*
X62125500Y-68577000I0J150000D01*
G01*
X62125500Y-68277000D01*
G75*
G02*
X62275500Y-68127000I150000J0D01*
G01*
X63175500Y-68127000D01*
G75*
G02*
X63325500Y-68277000I0J-150000D01*
G01*
G37*
G36*
G01*
X63325500Y-68677000D02*
X63325500Y-68977000D01*
G75*
G02*
X63175500Y-69127000I-150000J0D01*
G01*
X62275500Y-69127000D01*
G75*
G02*
X62125500Y-68977000I0J150000D01*
G01*
X62125500Y-68677000D01*
G75*
G02*
X62275500Y-68527000I150000J0D01*
G01*
X63175500Y-68527000D01*
G75*
G02*
X63325500Y-68677000I0J-150000D01*
G01*
G37*
G36*
G01*
X63325500Y-69077000D02*
X63325500Y-69377000D01*
G75*
G02*
X63175500Y-69527000I-150000J0D01*
G01*
X62275500Y-69527000D01*
G75*
G02*
X62125500Y-69377000I0J150000D01*
G01*
X62125500Y-69077000D01*
G75*
G02*
X62275500Y-68927000I150000J0D01*
G01*
X63175500Y-68927000D01*
G75*
G02*
X63325500Y-69077000I0J-150000D01*
G01*
G37*
G36*
G01*
X63325500Y-69477000D02*
X63325500Y-69777000D01*
G75*
G02*
X63175500Y-69927000I-150000J0D01*
G01*
X62275500Y-69927000D01*
G75*
G02*
X62125500Y-69777000I0J150000D01*
G01*
X62125500Y-69477000D01*
G75*
G02*
X62275500Y-69327000I150000J0D01*
G01*
X63175500Y-69327000D01*
G75*
G02*
X63325500Y-69477000I0J-150000D01*
G01*
G37*
G36*
G01*
X63325500Y-69877000D02*
X63325500Y-70177000D01*
G75*
G02*
X63175500Y-70327000I-150000J0D01*
G01*
X62275500Y-70327000D01*
G75*
G02*
X62125500Y-70177000I0J150000D01*
G01*
X62125500Y-69877000D01*
G75*
G02*
X62275500Y-69727000I150000J0D01*
G01*
X63175500Y-69727000D01*
G75*
G02*
X63325500Y-69877000I0J-150000D01*
G01*
G37*
G36*
G01*
X63325500Y-70277000D02*
X63325500Y-70577000D01*
G75*
G02*
X63175500Y-70727000I-150000J0D01*
G01*
X62275500Y-70727000D01*
G75*
G02*
X62125500Y-70577000I0J150000D01*
G01*
X62125500Y-70277000D01*
G75*
G02*
X62275500Y-70127000I150000J0D01*
G01*
X63175500Y-70127000D01*
G75*
G02*
X63325500Y-70277000I0J-150000D01*
G01*
G37*
G36*
G01*
X63325500Y-70677000D02*
X63325500Y-70977000D01*
G75*
G02*
X63175500Y-71127000I-150000J0D01*
G01*
X62275500Y-71127000D01*
G75*
G02*
X62125500Y-70977000I0J150000D01*
G01*
X62125500Y-70677000D01*
G75*
G02*
X62275500Y-70527000I150000J0D01*
G01*
X63175500Y-70527000D01*
G75*
G02*
X63325500Y-70677000I0J-150000D01*
G01*
G37*
G36*
G01*
X63325500Y-71077000D02*
X63325500Y-71377000D01*
G75*
G02*
X63175500Y-71527000I-150000J0D01*
G01*
X62275500Y-71527000D01*
G75*
G02*
X62125500Y-71377000I0J150000D01*
G01*
X62125500Y-71077000D01*
G75*
G02*
X62275500Y-70927000I150000J0D01*
G01*
X63175500Y-70927000D01*
G75*
G02*
X63325500Y-71077000I0J-150000D01*
G01*
G37*
G36*
G01*
X63325500Y-71477000D02*
X63325500Y-71777000D01*
G75*
G02*
X63175500Y-71927000I-150000J0D01*
G01*
X62275500Y-71927000D01*
G75*
G02*
X62125500Y-71777000I0J150000D01*
G01*
X62125500Y-71477000D01*
G75*
G02*
X62275500Y-71327000I150000J0D01*
G01*
X63175500Y-71327000D01*
G75*
G02*
X63325500Y-71477000I0J-150000D01*
G01*
G37*
G36*
G01*
X63775500Y-71927000D02*
X63775500Y-72827000D01*
G75*
G02*
X63625500Y-72977000I-150000J0D01*
G01*
X63325500Y-72977000D01*
G75*
G02*
X63175500Y-72827000I0J150000D01*
G01*
X63175500Y-71927000D01*
G75*
G02*
X63325500Y-71777000I150000J0D01*
G01*
X63625500Y-71777000D01*
G75*
G02*
X63775500Y-71927000I0J-150000D01*
G01*
G37*
G36*
G01*
X64175500Y-71927000D02*
X64175500Y-72827000D01*
G75*
G02*
X64025500Y-72977000I-150000J0D01*
G01*
X63725500Y-72977000D01*
G75*
G02*
X63575500Y-72827000I0J150000D01*
G01*
X63575500Y-71927000D01*
G75*
G02*
X63725500Y-71777000I150000J0D01*
G01*
X64025500Y-71777000D01*
G75*
G02*
X64175500Y-71927000I0J-150000D01*
G01*
G37*
G36*
G01*
X64575500Y-71927000D02*
X64575500Y-72827000D01*
G75*
G02*
X64425500Y-72977000I-150000J0D01*
G01*
X64125500Y-72977000D01*
G75*
G02*
X63975500Y-72827000I0J150000D01*
G01*
X63975500Y-71927000D01*
G75*
G02*
X64125500Y-71777000I150000J0D01*
G01*
X64425500Y-71777000D01*
G75*
G02*
X64575500Y-71927000I0J-150000D01*
G01*
G37*
G36*
G01*
X64975500Y-71927000D02*
X64975500Y-72827000D01*
G75*
G02*
X64825500Y-72977000I-150000J0D01*
G01*
X64525500Y-72977000D01*
G75*
G02*
X64375500Y-72827000I0J150000D01*
G01*
X64375500Y-71927000D01*
G75*
G02*
X64525500Y-71777000I150000J0D01*
G01*
X64825500Y-71777000D01*
G75*
G02*
X64975500Y-71927000I0J-150000D01*
G01*
G37*
G36*
G01*
X65375500Y-71927000D02*
X65375500Y-72827000D01*
G75*
G02*
X65225500Y-72977000I-150000J0D01*
G01*
X64925500Y-72977000D01*
G75*
G02*
X64775500Y-72827000I0J150000D01*
G01*
X64775500Y-71927000D01*
G75*
G02*
X64925500Y-71777000I150000J0D01*
G01*
X65225500Y-71777000D01*
G75*
G02*
X65375500Y-71927000I0J-150000D01*
G01*
G37*
G36*
G01*
X65775500Y-71927000D02*
X65775500Y-72827000D01*
G75*
G02*
X65625500Y-72977000I-150000J0D01*
G01*
X65325500Y-72977000D01*
G75*
G02*
X65175500Y-72827000I0J150000D01*
G01*
X65175500Y-71927000D01*
G75*
G02*
X65325500Y-71777000I150000J0D01*
G01*
X65625500Y-71777000D01*
G75*
G02*
X65775500Y-71927000I0J-150000D01*
G01*
G37*
G36*
G01*
X66175500Y-71927000D02*
X66175500Y-72827000D01*
G75*
G02*
X66025500Y-72977000I-150000J0D01*
G01*
X65725500Y-72977000D01*
G75*
G02*
X65575500Y-72827000I0J150000D01*
G01*
X65575500Y-71927000D01*
G75*
G02*
X65725500Y-71777000I150000J0D01*
G01*
X66025500Y-71777000D01*
G75*
G02*
X66175500Y-71927000I0J-150000D01*
G01*
G37*
G36*
G01*
X66575500Y-71927000D02*
X66575500Y-72827000D01*
G75*
G02*
X66425500Y-72977000I-150000J0D01*
G01*
X66125500Y-72977000D01*
G75*
G02*
X65975500Y-72827000I0J150000D01*
G01*
X65975500Y-71927000D01*
G75*
G02*
X66125500Y-71777000I150000J0D01*
G01*
X66425500Y-71777000D01*
G75*
G02*
X66575500Y-71927000I0J-150000D01*
G01*
G37*
G36*
G01*
X66975500Y-71927000D02*
X66975500Y-72827000D01*
G75*
G02*
X66825500Y-72977000I-150000J0D01*
G01*
X66525500Y-72977000D01*
G75*
G02*
X66375500Y-72827000I0J150000D01*
G01*
X66375500Y-71927000D01*
G75*
G02*
X66525500Y-71777000I150000J0D01*
G01*
X66825500Y-71777000D01*
G75*
G02*
X66975500Y-71927000I0J-150000D01*
G01*
G37*
G36*
G01*
X67375500Y-71927000D02*
X67375500Y-72827000D01*
G75*
G02*
X67225500Y-72977000I-150000J0D01*
G01*
X66925500Y-72977000D01*
G75*
G02*
X66775500Y-72827000I0J150000D01*
G01*
X66775500Y-71927000D01*
G75*
G02*
X66925500Y-71777000I150000J0D01*
G01*
X67225500Y-71777000D01*
G75*
G02*
X67375500Y-71927000I0J-150000D01*
G01*
G37*
G36*
G01*
X67775500Y-71927000D02*
X67775500Y-72827000D01*
G75*
G02*
X67625500Y-72977000I-150000J0D01*
G01*
X67325500Y-72977000D01*
G75*
G02*
X67175500Y-72827000I0J150000D01*
G01*
X67175500Y-71927000D01*
G75*
G02*
X67325500Y-71777000I150000J0D01*
G01*
X67625500Y-71777000D01*
G75*
G02*
X67775500Y-71927000I0J-150000D01*
G01*
G37*
G36*
G01*
X68175500Y-71927000D02*
X68175500Y-72827000D01*
G75*
G02*
X68025500Y-72977000I-150000J0D01*
G01*
X67725500Y-72977000D01*
G75*
G02*
X67575500Y-72827000I0J150000D01*
G01*
X67575500Y-71927000D01*
G75*
G02*
X67725500Y-71777000I150000J0D01*
G01*
X68025500Y-71777000D01*
G75*
G02*
X68175500Y-71927000I0J-150000D01*
G01*
G37*
G36*
G01*
X68175500Y-67127000D02*
X68175500Y-71727000D01*
G75*
G02*
X67975500Y-71927000I-200000J0D01*
G01*
X63375500Y-71927000D01*
G75*
G02*
X63175500Y-71727000I0J200000D01*
G01*
X63175500Y-67127000D01*
G75*
G02*
X63375500Y-66927000I200000J0D01*
G01*
X67975500Y-66927000D01*
G75*
G02*
X68175500Y-67127000I0J-200000D01*
G01*
G37*
G36*
G01*
X69395000Y-77622400D02*
X69965000Y-77622400D01*
G75*
G02*
X70200000Y-77857400I0J-235000D01*
G01*
X70200000Y-78327400D01*
G75*
G02*
X69965000Y-78562400I-235000J0D01*
G01*
X69395000Y-78562400D01*
G75*
G02*
X69160000Y-78327400I0J235000D01*
G01*
X69160000Y-77857400D01*
G75*
G02*
X69395000Y-77622400I235000J0D01*
G01*
G37*
G36*
G01*
X69395000Y-78642400D02*
X69965000Y-78642400D01*
G75*
G02*
X70200000Y-78877400I0J-235000D01*
G01*
X70200000Y-79347400D01*
G75*
G02*
X69965000Y-79582400I-235000J0D01*
G01*
X69395000Y-79582400D01*
G75*
G02*
X69160000Y-79347400I0J235000D01*
G01*
X69160000Y-78877400D01*
G75*
G02*
X69395000Y-78642400I235000J0D01*
G01*
G37*
G36*
G01*
X79046000Y-66600000D02*
X79046000Y-64900000D01*
G75*
G02*
X79246000Y-64700000I200000J0D01*
G01*
X80946000Y-64700000D01*
G75*
G02*
X81146000Y-64900000I0J-200000D01*
G01*
X81146000Y-66600000D01*
G75*
G02*
X80946000Y-66800000I-200000J0D01*
G01*
X79246000Y-66800000D01*
G75*
G02*
X79046000Y-66600000I0J200000D01*
G01*
G37*
D11*
X80096000Y-63210000D03*
G36*
G01*
X77754000Y-61974800D02*
X77754000Y-62514800D01*
G75*
G02*
X77514000Y-62754800I-240000J0D01*
G01*
X77034000Y-62754800D01*
G75*
G02*
X76794000Y-62514800I0J240000D01*
G01*
X76794000Y-61974800D01*
G75*
G02*
X77034000Y-61734800I240000J0D01*
G01*
X77514000Y-61734800D01*
G75*
G02*
X77754000Y-61974800I0J-240000D01*
G01*
G37*
G36*
G01*
X76794000Y-61974800D02*
X76794000Y-62514800D01*
G75*
G02*
X76554000Y-62754800I-240000J0D01*
G01*
X76074000Y-62754800D01*
G75*
G02*
X75834000Y-62514800I0J240000D01*
G01*
X75834000Y-61974800D01*
G75*
G02*
X76074000Y-61734800I240000J0D01*
G01*
X76554000Y-61734800D01*
G75*
G02*
X76794000Y-61974800I0J-240000D01*
G01*
G37*
G36*
G01*
X75935600Y-66782000D02*
X75935600Y-66242000D01*
G75*
G02*
X76175600Y-66002000I240000J0D01*
G01*
X76655600Y-66002000D01*
G75*
G02*
X76895600Y-66242000I0J-240000D01*
G01*
X76895600Y-66782000D01*
G75*
G02*
X76655600Y-67022000I-240000J0D01*
G01*
X76175600Y-67022000D01*
G75*
G02*
X75935600Y-66782000I0J240000D01*
G01*
G37*
G36*
G01*
X76895600Y-66782000D02*
X76895600Y-66242000D01*
G75*
G02*
X77135600Y-66002000I240000J0D01*
G01*
X77615600Y-66002000D01*
G75*
G02*
X77855600Y-66242000I0J-240000D01*
G01*
X77855600Y-66782000D01*
G75*
G02*
X77615600Y-67022000I-240000J0D01*
G01*
X77135600Y-67022000D01*
G75*
G02*
X76895600Y-66782000I0J240000D01*
G01*
G37*
G36*
G01*
X58923000Y-69197500D02*
X58923000Y-68652500D01*
G75*
G02*
X59170500Y-68405000I247500J0D01*
G01*
X59665500Y-68405000D01*
G75*
G02*
X59913000Y-68652500I0J-247500D01*
G01*
X59913000Y-69197500D01*
G75*
G02*
X59665500Y-69445000I-247500J0D01*
G01*
X59170500Y-69445000D01*
G75*
G02*
X58923000Y-69197500I0J247500D01*
G01*
G37*
G36*
G01*
X59893000Y-69197500D02*
X59893000Y-68652500D01*
G75*
G02*
X60140500Y-68405000I247500J0D01*
G01*
X60635500Y-68405000D01*
G75*
G02*
X60883000Y-68652500I0J-247500D01*
G01*
X60883000Y-69197500D01*
G75*
G02*
X60635500Y-69445000I-247500J0D01*
G01*
X60140500Y-69445000D01*
G75*
G02*
X59893000Y-69197500I0J247500D01*
G01*
G37*
G36*
G01*
X58678496Y-73477741D02*
X58296659Y-73095904D01*
G75*
G02*
X58296659Y-72756492I169706J169706D01*
G01*
X58636070Y-72417081D01*
G75*
G02*
X58975482Y-72417081I169706J-169706D01*
G01*
X59357319Y-72798918D01*
G75*
G02*
X59357319Y-73138330I-169706J-169706D01*
G01*
X59017908Y-73477741D01*
G75*
G02*
X58678496Y-73477741I-169706J169706D01*
G01*
G37*
G36*
G01*
X59357318Y-72798919D02*
X58975481Y-72417082D01*
G75*
G02*
X58975481Y-72077670I169706J169706D01*
G01*
X59314892Y-71738259D01*
G75*
G02*
X59654304Y-71738259I169706J-169706D01*
G01*
X60036141Y-72120096D01*
G75*
G02*
X60036141Y-72459508I-169706J-169706D01*
G01*
X59696730Y-72798919D01*
G75*
G02*
X59357318Y-72798919I-169706J169706D01*
G01*
G37*
G36*
G01*
X58161000Y-54732000D02*
X58161000Y-54162000D01*
G75*
G02*
X58396000Y-53927000I235000J0D01*
G01*
X58866000Y-53927000D01*
G75*
G02*
X59101000Y-54162000I0J-235000D01*
G01*
X59101000Y-54732000D01*
G75*
G02*
X58866000Y-54967000I-235000J0D01*
G01*
X58396000Y-54967000D01*
G75*
G02*
X58161000Y-54732000I0J235000D01*
G01*
G37*
G36*
G01*
X59181000Y-54732000D02*
X59181000Y-54162000D01*
G75*
G02*
X59416000Y-53927000I235000J0D01*
G01*
X59886000Y-53927000D01*
G75*
G02*
X60121000Y-54162000I0J-235000D01*
G01*
X60121000Y-54732000D01*
G75*
G02*
X59886000Y-54967000I-235000J0D01*
G01*
X59416000Y-54967000D01*
G75*
G02*
X59181000Y-54732000I0J235000D01*
G01*
G37*
G36*
G01*
X56949500Y-53141000D02*
X56379500Y-53141000D01*
G75*
G02*
X56144500Y-52906000I0J235000D01*
G01*
X56144500Y-52436000D01*
G75*
G02*
X56379500Y-52201000I235000J0D01*
G01*
X56949500Y-52201000D01*
G75*
G02*
X57184500Y-52436000I0J-235000D01*
G01*
X57184500Y-52906000D01*
G75*
G02*
X56949500Y-53141000I-235000J0D01*
G01*
G37*
G36*
G01*
X56949500Y-52121000D02*
X56379500Y-52121000D01*
G75*
G02*
X56144500Y-51886000I0J235000D01*
G01*
X56144500Y-51416000D01*
G75*
G02*
X56379500Y-51181000I235000J0D01*
G01*
X56949500Y-51181000D01*
G75*
G02*
X57184500Y-51416000I0J-235000D01*
G01*
X57184500Y-51886000D01*
G75*
G02*
X56949500Y-52121000I-235000J0D01*
G01*
G37*
G36*
G01*
X63108600Y-54767800D02*
X63108600Y-54227800D01*
G75*
G02*
X63348600Y-53987800I240000J0D01*
G01*
X63828600Y-53987800D01*
G75*
G02*
X64068600Y-54227800I0J-240000D01*
G01*
X64068600Y-54767800D01*
G75*
G02*
X63828600Y-55007800I-240000J0D01*
G01*
X63348600Y-55007800D01*
G75*
G02*
X63108600Y-54767800I0J240000D01*
G01*
G37*
G36*
G01*
X64068600Y-54767800D02*
X64068600Y-54227800D01*
G75*
G02*
X64308600Y-53987800I240000J0D01*
G01*
X64788600Y-53987800D01*
G75*
G02*
X65028600Y-54227800I0J-240000D01*
G01*
X65028600Y-54767800D01*
G75*
G02*
X64788600Y-55007800I-240000J0D01*
G01*
X64308600Y-55007800D01*
G75*
G02*
X64068600Y-54767800I0J240000D01*
G01*
G37*
D12*
X73002000Y-58447000D03*
X73042000Y-55767000D03*
G36*
G01*
X56085500Y-54018500D02*
X56085500Y-53478500D01*
G75*
G02*
X56325500Y-53238500I240000J0D01*
G01*
X56805500Y-53238500D01*
G75*
G02*
X57045500Y-53478500I0J-240000D01*
G01*
X57045500Y-54018500D01*
G75*
G02*
X56805500Y-54258500I-240000J0D01*
G01*
X56325500Y-54258500D01*
G75*
G02*
X56085500Y-54018500I0J240000D01*
G01*
G37*
G36*
G01*
X57045500Y-54018500D02*
X57045500Y-53478500D01*
G75*
G02*
X57285500Y-53238500I240000J0D01*
G01*
X57765500Y-53238500D01*
G75*
G02*
X58005500Y-53478500I0J-240000D01*
G01*
X58005500Y-54018500D01*
G75*
G02*
X57765500Y-54258500I-240000J0D01*
G01*
X57285500Y-54258500D01*
G75*
G02*
X57045500Y-54018500I0J240000D01*
G01*
G37*
G36*
G01*
X61157000Y-68409500D02*
X61697000Y-68409500D01*
G75*
G02*
X61937000Y-68649500I0J-240000D01*
G01*
X61937000Y-69129500D01*
G75*
G02*
X61697000Y-69369500I-240000J0D01*
G01*
X61157000Y-69369500D01*
G75*
G02*
X60917000Y-69129500I0J240000D01*
G01*
X60917000Y-68649500D01*
G75*
G02*
X61157000Y-68409500I240000J0D01*
G01*
G37*
G36*
G01*
X61157000Y-69369500D02*
X61697000Y-69369500D01*
G75*
G02*
X61937000Y-69609500I0J-240000D01*
G01*
X61937000Y-70089500D01*
G75*
G02*
X61697000Y-70329500I-240000J0D01*
G01*
X61157000Y-70329500D01*
G75*
G02*
X60917000Y-70089500I0J240000D01*
G01*
X60917000Y-69609500D01*
G75*
G02*
X61157000Y-69369500I240000J0D01*
G01*
G37*
G36*
G01*
X56559600Y-68549200D02*
X57099600Y-68549200D01*
G75*
G02*
X57339600Y-68789200I0J-240000D01*
G01*
X57339600Y-69269200D01*
G75*
G02*
X57099600Y-69509200I-240000J0D01*
G01*
X56559600Y-69509200D01*
G75*
G02*
X56319600Y-69269200I0J240000D01*
G01*
X56319600Y-68789200D01*
G75*
G02*
X56559600Y-68549200I240000J0D01*
G01*
G37*
G36*
G01*
X56559600Y-69509200D02*
X57099600Y-69509200D01*
G75*
G02*
X57339600Y-69749200I0J-240000D01*
G01*
X57339600Y-70229200D01*
G75*
G02*
X57099600Y-70469200I-240000J0D01*
G01*
X56559600Y-70469200D01*
G75*
G02*
X56319600Y-70229200I0J240000D01*
G01*
X56319600Y-69749200D01*
G75*
G02*
X56559600Y-69509200I240000J0D01*
G01*
G37*
G36*
G01*
X62588500Y-76483600D02*
X62043500Y-76483600D01*
G75*
G02*
X61796000Y-76236100I0J247500D01*
G01*
X61796000Y-75741100D01*
G75*
G02*
X62043500Y-75493600I247500J0D01*
G01*
X62588500Y-75493600D01*
G75*
G02*
X62836000Y-75741100I0J-247500D01*
G01*
X62836000Y-76236100D01*
G75*
G02*
X62588500Y-76483600I-247500J0D01*
G01*
G37*
G36*
G01*
X62588500Y-75513600D02*
X62043500Y-75513600D01*
G75*
G02*
X61796000Y-75266100I0J247500D01*
G01*
X61796000Y-74771100D01*
G75*
G02*
X62043500Y-74523600I247500J0D01*
G01*
X62588500Y-74523600D01*
G75*
G02*
X62836000Y-74771100I0J-247500D01*
G01*
X62836000Y-75266100D01*
G75*
G02*
X62588500Y-75513600I-247500J0D01*
G01*
G37*
G36*
G01*
X56557100Y-75336400D02*
X57102100Y-75336400D01*
G75*
G02*
X57349600Y-75583900I0J-247500D01*
G01*
X57349600Y-76078900D01*
G75*
G02*
X57102100Y-76326400I-247500J0D01*
G01*
X56557100Y-76326400D01*
G75*
G02*
X56309600Y-76078900I0J247500D01*
G01*
X56309600Y-75583900D01*
G75*
G02*
X56557100Y-75336400I247500J0D01*
G01*
G37*
G36*
G01*
X56557100Y-76306400D02*
X57102100Y-76306400D01*
G75*
G02*
X57349600Y-76553900I0J-247500D01*
G01*
X57349600Y-77048900D01*
G75*
G02*
X57102100Y-77296400I-247500J0D01*
G01*
X56557100Y-77296400D01*
G75*
G02*
X56309600Y-77048900I0J247500D01*
G01*
X56309600Y-76553900D01*
G75*
G02*
X56557100Y-76306400I247500J0D01*
G01*
G37*
G36*
G01*
X73405300Y-70997800D02*
X72860300Y-70997800D01*
G75*
G02*
X72612800Y-70750300I0J247500D01*
G01*
X72612800Y-70255300D01*
G75*
G02*
X72860300Y-70007800I247500J0D01*
G01*
X73405300Y-70007800D01*
G75*
G02*
X73652800Y-70255300I0J-247500D01*
G01*
X73652800Y-70750300D01*
G75*
G02*
X73405300Y-70997800I-247500J0D01*
G01*
G37*
G36*
G01*
X73405300Y-70027800D02*
X72860300Y-70027800D01*
G75*
G02*
X72612800Y-69780300I0J247500D01*
G01*
X72612800Y-69285300D01*
G75*
G02*
X72860300Y-69037800I247500J0D01*
G01*
X73405300Y-69037800D01*
G75*
G02*
X73652800Y-69285300I0J-247500D01*
G01*
X73652800Y-69780300D01*
G75*
G02*
X73405300Y-70027800I-247500J0D01*
G01*
G37*
G36*
G01*
X72870300Y-71137800D02*
X73415300Y-71137800D01*
G75*
G02*
X73662800Y-71385300I0J-247500D01*
G01*
X73662800Y-71880300D01*
G75*
G02*
X73415300Y-72127800I-247500J0D01*
G01*
X72870300Y-72127800D01*
G75*
G02*
X72622800Y-71880300I0J247500D01*
G01*
X72622800Y-71385300D01*
G75*
G02*
X72870300Y-71137800I247500J0D01*
G01*
G37*
G36*
G01*
X72870300Y-72107800D02*
X73415300Y-72107800D01*
G75*
G02*
X73662800Y-72355300I0J-247500D01*
G01*
X73662800Y-72850300D01*
G75*
G02*
X73415300Y-73097800I-247500J0D01*
G01*
X72870300Y-73097800D01*
G75*
G02*
X72622800Y-72850300I0J247500D01*
G01*
X72622800Y-72355300D01*
G75*
G02*
X72870300Y-72107800I247500J0D01*
G01*
G37*
G36*
G01*
X61556000Y-74844600D02*
X61556000Y-76044600D01*
G75*
G02*
X61356000Y-76244600I-200000J0D01*
G01*
X59956000Y-76244600D01*
G75*
G02*
X59756000Y-76044600I0J200000D01*
G01*
X59756000Y-74844600D01*
G75*
G02*
X59956000Y-74644600I200000J0D01*
G01*
X61356000Y-74644600D01*
G75*
G02*
X61556000Y-74844600I0J-200000D01*
G01*
G37*
G36*
G01*
X59356000Y-74844600D02*
X59356000Y-76044600D01*
G75*
G02*
X59156000Y-76244600I-200000J0D01*
G01*
X57756000Y-76244600D01*
G75*
G02*
X57556000Y-76044600I0J200000D01*
G01*
X57556000Y-74844600D01*
G75*
G02*
X57756000Y-74644600I200000J0D01*
G01*
X59156000Y-74644600D01*
G75*
G02*
X59356000Y-74844600I0J-200000D01*
G01*
G37*
G36*
G01*
X59356000Y-76544600D02*
X59356000Y-77744600D01*
G75*
G02*
X59156000Y-77944600I-200000J0D01*
G01*
X57756000Y-77944600D01*
G75*
G02*
X57556000Y-77744600I0J200000D01*
G01*
X57556000Y-76544600D01*
G75*
G02*
X57756000Y-76344600I200000J0D01*
G01*
X59156000Y-76344600D01*
G75*
G02*
X59356000Y-76544600I0J-200000D01*
G01*
G37*
G36*
G01*
X61556000Y-76544600D02*
X61556000Y-77744600D01*
G75*
G02*
X61356000Y-77944600I-200000J0D01*
G01*
X59956000Y-77944600D01*
G75*
G02*
X59756000Y-77744600I0J200000D01*
G01*
X59756000Y-76544600D01*
G75*
G02*
X59956000Y-76344600I200000J0D01*
G01*
X61356000Y-76344600D01*
G75*
G02*
X61556000Y-76544600I0J-200000D01*
G01*
G37*
G36*
G01*
X72292800Y-70517800D02*
X70492800Y-70517800D01*
G75*
G02*
X70292800Y-70317800I0J200000D01*
G01*
X70292800Y-69317800D01*
G75*
G02*
X70492800Y-69117800I200000J0D01*
G01*
X72292800Y-69117800D01*
G75*
G02*
X72492800Y-69317800I0J-200000D01*
G01*
X72492800Y-70317800D01*
G75*
G02*
X72292800Y-70517800I-200000J0D01*
G01*
G37*
G36*
G01*
X72292800Y-73017800D02*
X70492800Y-73017800D01*
G75*
G02*
X70292800Y-72817800I0J200000D01*
G01*
X70292800Y-71817800D01*
G75*
G02*
X70492800Y-71617800I200000J0D01*
G01*
X72292800Y-71617800D01*
G75*
G02*
X72492800Y-71817800I0J-200000D01*
G01*
X72492800Y-72817800D01*
G75*
G02*
X72292800Y-73017800I-200000J0D01*
G01*
G37*
G36*
G01*
X70005300Y-75162800D02*
X69460300Y-75162800D01*
G75*
G02*
X69212800Y-74915300I0J247500D01*
G01*
X69212800Y-74420300D01*
G75*
G02*
X69460300Y-74172800I247500J0D01*
G01*
X70005300Y-74172800D01*
G75*
G02*
X70252800Y-74420300I0J-247500D01*
G01*
X70252800Y-74915300D01*
G75*
G02*
X70005300Y-75162800I-247500J0D01*
G01*
G37*
G36*
G01*
X70005300Y-74192800D02*
X69460300Y-74192800D01*
G75*
G02*
X69212800Y-73945300I0J247500D01*
G01*
X69212800Y-73450300D01*
G75*
G02*
X69460300Y-73202800I247500J0D01*
G01*
X70005300Y-73202800D01*
G75*
G02*
X70252800Y-73450300I0J-247500D01*
G01*
X70252800Y-73945300D01*
G75*
G02*
X70005300Y-74192800I-247500J0D01*
G01*
G37*
G36*
G01*
X70052400Y-75739100D02*
X70052400Y-76284100D01*
G75*
G02*
X69804900Y-76531600I-247500J0D01*
G01*
X69309900Y-76531600D01*
G75*
G02*
X69062400Y-76284100I0J247500D01*
G01*
X69062400Y-75739100D01*
G75*
G02*
X69309900Y-75491600I247500J0D01*
G01*
X69804900Y-75491600D01*
G75*
G02*
X70052400Y-75739100I0J-247500D01*
G01*
G37*
G36*
G01*
X69082400Y-75739100D02*
X69082400Y-76284100D01*
G75*
G02*
X68834900Y-76531600I-247500J0D01*
G01*
X68339900Y-76531600D01*
G75*
G02*
X68092400Y-76284100I0J247500D01*
G01*
X68092400Y-75739100D01*
G75*
G02*
X68339900Y-75491600I247500J0D01*
G01*
X68834900Y-75491600D01*
G75*
G02*
X69082400Y-75739100I0J-247500D01*
G01*
G37*
G36*
G01*
X67444250Y-76773000D02*
X66331750Y-76773000D01*
G75*
G02*
X65988000Y-76429250I0J343750D01*
G01*
X65988000Y-75741750D01*
G75*
G02*
X66331750Y-75398000I343750J0D01*
G01*
X67444250Y-75398000D01*
G75*
G02*
X67788000Y-75741750I0J-343750D01*
G01*
X67788000Y-76429250D01*
G75*
G02*
X67444250Y-76773000I-343750J0D01*
G01*
G37*
G36*
G01*
X67444250Y-74898000D02*
X66331750Y-74898000D01*
G75*
G02*
X65988000Y-74554250I0J343750D01*
G01*
X65988000Y-73866750D01*
G75*
G02*
X66331750Y-73523000I343750J0D01*
G01*
X67444250Y-73523000D01*
G75*
G02*
X67788000Y-73866750I0J-343750D01*
G01*
X67788000Y-74554250D01*
G75*
G02*
X67444250Y-74898000I-343750J0D01*
G01*
G37*
G36*
G01*
X58189500Y-51357000D02*
X58189500Y-50557000D01*
G75*
G02*
X58389500Y-50357000I200000J0D01*
G01*
X59289500Y-50357000D01*
G75*
G02*
X59489500Y-50557000I0J-200000D01*
G01*
X59489500Y-51357000D01*
G75*
G02*
X59289500Y-51557000I-200000J0D01*
G01*
X58389500Y-51557000D01*
G75*
G02*
X58189500Y-51357000I0J200000D01*
G01*
G37*
G36*
G01*
X58189500Y-53257000D02*
X58189500Y-52457000D01*
G75*
G02*
X58389500Y-52257000I200000J0D01*
G01*
X59289500Y-52257000D01*
G75*
G02*
X59489500Y-52457000I0J-200000D01*
G01*
X59489500Y-53257000D01*
G75*
G02*
X59289500Y-53457000I-200000J0D01*
G01*
X58389500Y-53457000D01*
G75*
G02*
X58189500Y-53257000I0J200000D01*
G01*
G37*
G36*
G01*
X60189500Y-52307000D02*
X60189500Y-51507000D01*
G75*
G02*
X60389500Y-51307000I200000J0D01*
G01*
X61289500Y-51307000D01*
G75*
G02*
X61489500Y-51507000I0J-200000D01*
G01*
X61489500Y-52307000D01*
G75*
G02*
X61289500Y-52507000I-200000J0D01*
G01*
X60389500Y-52507000D01*
G75*
G02*
X60189500Y-52307000I0J200000D01*
G01*
G37*
G36*
G01*
X71546800Y-60332900D02*
X71546800Y-59787900D01*
G75*
G02*
X71794300Y-59540400I247500J0D01*
G01*
X72289300Y-59540400D01*
G75*
G02*
X72536800Y-59787900I0J-247500D01*
G01*
X72536800Y-60332900D01*
G75*
G02*
X72289300Y-60580400I-247500J0D01*
G01*
X71794300Y-60580400D01*
G75*
G02*
X71546800Y-60332900I0J247500D01*
G01*
G37*
G36*
G01*
X72516800Y-60332900D02*
X72516800Y-59787900D01*
G75*
G02*
X72764300Y-59540400I247500J0D01*
G01*
X73259300Y-59540400D01*
G75*
G02*
X73506800Y-59787900I0J-247500D01*
G01*
X73506800Y-60332900D01*
G75*
G02*
X73259300Y-60580400I-247500J0D01*
G01*
X72764300Y-60580400D01*
G75*
G02*
X72516800Y-60332900I0J247500D01*
G01*
G37*
G36*
G01*
X71597600Y-54287700D02*
X71597600Y-53742700D01*
G75*
G02*
X71845100Y-53495200I247500J0D01*
G01*
X72340100Y-53495200D01*
G75*
G02*
X72587600Y-53742700I0J-247500D01*
G01*
X72587600Y-54287700D01*
G75*
G02*
X72340100Y-54535200I-247500J0D01*
G01*
X71845100Y-54535200D01*
G75*
G02*
X71597600Y-54287700I0J247500D01*
G01*
G37*
G36*
G01*
X72567600Y-54287700D02*
X72567600Y-53742700D01*
G75*
G02*
X72815100Y-53495200I247500J0D01*
G01*
X73310100Y-53495200D01*
G75*
G02*
X73557600Y-53742700I0J-247500D01*
G01*
X73557600Y-54287700D01*
G75*
G02*
X73310100Y-54535200I-247500J0D01*
G01*
X72815100Y-54535200D01*
G75*
G02*
X72567600Y-54287700I0J247500D01*
G01*
G37*
G36*
G01*
X66111600Y-56017300D02*
X66111600Y-55642300D01*
G75*
G02*
X66299100Y-55454800I187500J0D01*
G01*
X66874100Y-55454800D01*
G75*
G02*
X67061600Y-55642300I0J-187500D01*
G01*
X67061600Y-56017300D01*
G75*
G02*
X66874100Y-56204800I-187500J0D01*
G01*
X66299100Y-56204800D01*
G75*
G02*
X66111600Y-56017300I0J187500D01*
G01*
G37*
G36*
G01*
X66111600Y-57017300D02*
X66111600Y-56642300D01*
G75*
G02*
X66299100Y-56454800I187500J0D01*
G01*
X66874100Y-56454800D01*
G75*
G02*
X67061600Y-56642300I0J-187500D01*
G01*
X67061600Y-57017300D01*
G75*
G02*
X66874100Y-57204800I-187500J0D01*
G01*
X66299100Y-57204800D01*
G75*
G02*
X66111600Y-57017300I0J187500D01*
G01*
G37*
G36*
G01*
X67961600Y-57017300D02*
X67961600Y-56642300D01*
G75*
G02*
X68149100Y-56454800I187500J0D01*
G01*
X68724100Y-56454800D01*
G75*
G02*
X68911600Y-56642300I0J-187500D01*
G01*
X68911600Y-57017300D01*
G75*
G02*
X68724100Y-57204800I-187500J0D01*
G01*
X68149100Y-57204800D01*
G75*
G02*
X67961600Y-57017300I0J187500D01*
G01*
G37*
G36*
G01*
X67961600Y-56017300D02*
X67961600Y-55642300D01*
G75*
G02*
X68149100Y-55454800I187500J0D01*
G01*
X68724100Y-55454800D01*
G75*
G02*
X68911600Y-55642300I0J-187500D01*
G01*
X68911600Y-56017300D01*
G75*
G02*
X68724100Y-56204800I-187500J0D01*
G01*
X68149100Y-56204800D01*
G75*
G02*
X67961600Y-56017300I0J187500D01*
G01*
G37*
G36*
G01*
X66961600Y-57054800D02*
X66961600Y-55604800D01*
G75*
G02*
X67236600Y-55329800I275000J0D01*
G01*
X67786600Y-55329800D01*
G75*
G02*
X68061600Y-55604800I0J-275000D01*
G01*
X68061600Y-57054800D01*
G75*
G02*
X67786600Y-57329800I-275000J0D01*
G01*
X67236600Y-57329800D01*
G75*
G02*
X66961600Y-57054800I0J275000D01*
G01*
G37*
G36*
G01*
X67271600Y-58078550D02*
X67271600Y-58791050D01*
G75*
G02*
X66952850Y-59109800I-318750J0D01*
G01*
X66315350Y-59109800D01*
G75*
G02*
X65996600Y-58791050I0J318750D01*
G01*
X65996600Y-58078550D01*
G75*
G02*
X66315350Y-57759800I318750J0D01*
G01*
X66952850Y-57759800D01*
G75*
G02*
X67271600Y-58078550I0J-318750D01*
G01*
G37*
G36*
G01*
X65696600Y-58078550D02*
X65696600Y-58791050D01*
G75*
G02*
X65377850Y-59109800I-318750J0D01*
G01*
X64740350Y-59109800D01*
G75*
G02*
X64421600Y-58791050I0J318750D01*
G01*
X64421600Y-58078550D01*
G75*
G02*
X64740350Y-57759800I318750J0D01*
G01*
X65377850Y-57759800D01*
G75*
G02*
X65696600Y-58078550I0J-318750D01*
G01*
G37*
G36*
G01*
X65447100Y-61823600D02*
X65992100Y-61823600D01*
G75*
G02*
X66239600Y-62071100I0J-247500D01*
G01*
X66239600Y-62566100D01*
G75*
G02*
X65992100Y-62813600I-247500J0D01*
G01*
X65447100Y-62813600D01*
G75*
G02*
X65199600Y-62566100I0J247500D01*
G01*
X65199600Y-62071100D01*
G75*
G02*
X65447100Y-61823600I247500J0D01*
G01*
G37*
G36*
G01*
X65447100Y-62793600D02*
X65992100Y-62793600D01*
G75*
G02*
X66239600Y-63041100I0J-247500D01*
G01*
X66239600Y-63536100D01*
G75*
G02*
X65992100Y-63783600I-247500J0D01*
G01*
X65447100Y-63783600D01*
G75*
G02*
X65199600Y-63536100I0J247500D01*
G01*
X65199600Y-63041100D01*
G75*
G02*
X65447100Y-62793600I247500J0D01*
G01*
G37*
G36*
G01*
X66454100Y-54706800D02*
X66454100Y-54161800D01*
G75*
G02*
X66701600Y-53914300I247500J0D01*
G01*
X67196600Y-53914300D01*
G75*
G02*
X67444100Y-54161800I0J-247500D01*
G01*
X67444100Y-54706800D01*
G75*
G02*
X67196600Y-54954300I-247500J0D01*
G01*
X66701600Y-54954300D01*
G75*
G02*
X66454100Y-54706800I0J247500D01*
G01*
G37*
G36*
G01*
X67424100Y-54706800D02*
X67424100Y-54161800D01*
G75*
G02*
X67671600Y-53914300I247500J0D01*
G01*
X68166600Y-53914300D01*
G75*
G02*
X68414100Y-54161800I0J-247500D01*
G01*
X68414100Y-54706800D01*
G75*
G02*
X68166600Y-54954300I-247500J0D01*
G01*
X67671600Y-54954300D01*
G75*
G02*
X67424100Y-54706800I0J247500D01*
G01*
G37*
G36*
G01*
X61230700Y-72440800D02*
X61775700Y-72440800D01*
G75*
G02*
X62023200Y-72688300I0J-247500D01*
G01*
X62023200Y-73183300D01*
G75*
G02*
X61775700Y-73430800I-247500J0D01*
G01*
X61230700Y-73430800D01*
G75*
G02*
X60983200Y-73183300I0J247500D01*
G01*
X60983200Y-72688300D01*
G75*
G02*
X61230700Y-72440800I247500J0D01*
G01*
G37*
G36*
G01*
X61230700Y-73410800D02*
X61775700Y-73410800D01*
G75*
G02*
X62023200Y-73658300I0J-247500D01*
G01*
X62023200Y-74153300D01*
G75*
G02*
X61775700Y-74400800I-247500J0D01*
G01*
X61230700Y-74400800D01*
G75*
G02*
X60983200Y-74153300I0J247500D01*
G01*
X60983200Y-73658300D01*
G75*
G02*
X61230700Y-73410800I247500J0D01*
G01*
G37*
G36*
G01*
X68342700Y-74223600D02*
X68887700Y-74223600D01*
G75*
G02*
X69135200Y-74471100I0J-247500D01*
G01*
X69135200Y-74966100D01*
G75*
G02*
X68887700Y-75213600I-247500J0D01*
G01*
X68342700Y-75213600D01*
G75*
G02*
X68095200Y-74966100I0J247500D01*
G01*
X68095200Y-74471100D01*
G75*
G02*
X68342700Y-74223600I247500J0D01*
G01*
G37*
G36*
G01*
X68342700Y-73253600D02*
X68887700Y-73253600D01*
G75*
G02*
X69135200Y-73501100I0J-247500D01*
G01*
X69135200Y-73996100D01*
G75*
G02*
X68887700Y-74243600I-247500J0D01*
G01*
X68342700Y-74243600D01*
G75*
G02*
X68095200Y-73996100I0J247500D01*
G01*
X68095200Y-73501100D01*
G75*
G02*
X68342700Y-73253600I247500J0D01*
G01*
G37*
G36*
G01*
X62616600Y-55854800D02*
X62616600Y-55504800D01*
G75*
G02*
X62816600Y-55304800I200000J0D01*
G01*
X63466600Y-55304800D01*
G75*
G02*
X63666600Y-55504800I0J-200000D01*
G01*
X63666600Y-55854800D01*
G75*
G02*
X63466600Y-56054800I-200000J0D01*
G01*
X62816600Y-56054800D01*
G75*
G02*
X62616600Y-55854800I0J200000D01*
G01*
G37*
G36*
G01*
X62616600Y-56504800D02*
X62616600Y-56154800D01*
G75*
G02*
X62816600Y-55954800I200000J0D01*
G01*
X63466600Y-55954800D01*
G75*
G02*
X63666600Y-56154800I0J-200000D01*
G01*
X63666600Y-56504800D01*
G75*
G02*
X63466600Y-56704800I-200000J0D01*
G01*
X62816600Y-56704800D01*
G75*
G02*
X62616600Y-56504800I0J200000D01*
G01*
G37*
G36*
G01*
X62616600Y-57154800D02*
X62616600Y-56804800D01*
G75*
G02*
X62816600Y-56604800I200000J0D01*
G01*
X63466600Y-56604800D01*
G75*
G02*
X63666600Y-56804800I0J-200000D01*
G01*
X63666600Y-57154800D01*
G75*
G02*
X63466600Y-57354800I-200000J0D01*
G01*
X62816600Y-57354800D01*
G75*
G02*
X62616600Y-57154800I0J200000D01*
G01*
G37*
G36*
G01*
X64716600Y-57154800D02*
X64716600Y-56804800D01*
G75*
G02*
X64916600Y-56604800I200000J0D01*
G01*
X65566600Y-56604800D01*
G75*
G02*
X65766600Y-56804800I0J-200000D01*
G01*
X65766600Y-57154800D01*
G75*
G02*
X65566600Y-57354800I-200000J0D01*
G01*
X64916600Y-57354800D01*
G75*
G02*
X64716600Y-57154800I0J200000D01*
G01*
G37*
G36*
G01*
X64716600Y-56504800D02*
X64716600Y-56154800D01*
G75*
G02*
X64916600Y-55954800I200000J0D01*
G01*
X65566600Y-55954800D01*
G75*
G02*
X65766600Y-56154800I0J-200000D01*
G01*
X65766600Y-56504800D01*
G75*
G02*
X65566600Y-56704800I-200000J0D01*
G01*
X64916600Y-56704800D01*
G75*
G02*
X64716600Y-56504800I0J200000D01*
G01*
G37*
G36*
G01*
X64716600Y-55854800D02*
X64716600Y-55504800D01*
G75*
G02*
X64916600Y-55304800I200000J0D01*
G01*
X65566600Y-55304800D01*
G75*
G02*
X65766600Y-55504800I0J-200000D01*
G01*
X65766600Y-55854800D01*
G75*
G02*
X65566600Y-56054800I-200000J0D01*
G01*
X64916600Y-56054800D01*
G75*
G02*
X64716600Y-55854800I0J200000D01*
G01*
G37*
G36*
G01*
X63491600Y-57129800D02*
X63491600Y-55529800D01*
G75*
G02*
X63691600Y-55329800I200000J0D01*
G01*
X64691600Y-55329800D01*
G75*
G02*
X64891600Y-55529800I0J-200000D01*
G01*
X64891600Y-57129800D01*
G75*
G02*
X64691600Y-57329800I-200000J0D01*
G01*
X63691600Y-57329800D01*
G75*
G02*
X63491600Y-57129800I0J200000D01*
G01*
G37*
M02*
