%FSLAX45Y45*%
G04 Gerber Fmt 4.5, Leading zero omitted, Abs format (unit mm)*
G04 Created by KiCad (PCBNEW 5.1.10) date 2021-11-09 15:36:48*
%MOMM*%
%LPD*%
G01*
G04 APERTURE LIST*
%TA.AperFunction,Profile*%
%ADD10C,0.100000*%
%TD*%
%ADD11C,0.200000*%
%ADD12C,0.300000*%
G04 APERTURE END LIST*
D10*
X6130487Y-13025787D02*
G75*
G02*
X6071908Y-12884365I141421J141421D01*
G01*
X6071908Y-8120168D02*
X6071908Y-12884365D01*
X6071999Y-8120195D02*
G75*
G02*
X7071908Y-8120168I499909J1677078D01*
G01*
X7071908Y-12884365D02*
X7071908Y-8120168D01*
X7071908Y-12884365D02*
G75*
G02*
X7013329Y-13025787I-200000J0D01*
G01*
X6642619Y-13396497D02*
X7013329Y-13025787D01*
X6642619Y-13396497D02*
G75*
G02*
X6501197Y-13396497I-70711J70711D01*
G01*
X6130487Y-13025787D02*
X6501197Y-13396497D01*
D11*
D12*
X5103337Y-13896501D02*
X5103337Y-13596501D01*
X5174765Y-13596501D01*
X5217622Y-13610787D01*
X5246194Y-13639358D01*
X5260479Y-13667929D01*
X5274765Y-13725072D01*
X5274765Y-13767929D01*
X5260479Y-13825072D01*
X5246194Y-13853644D01*
X5217622Y-13882215D01*
X5174765Y-13896501D01*
X5103337Y-13896501D01*
X5403337Y-13896501D02*
X5403337Y-13696501D01*
X5403337Y-13753644D02*
X5417622Y-13725072D01*
X5431908Y-13710787D01*
X5460479Y-13696501D01*
X5489051Y-13696501D01*
X5589051Y-13896501D02*
X5589051Y-13696501D01*
X5589051Y-13596501D02*
X5574765Y-13610787D01*
X5589051Y-13625072D01*
X5603336Y-13610787D01*
X5589051Y-13596501D01*
X5589051Y-13625072D01*
X5774765Y-13896501D02*
X5746194Y-13882215D01*
X5731908Y-13853644D01*
X5731908Y-13596501D01*
X5931908Y-13896501D02*
X5903336Y-13882215D01*
X5889051Y-13853644D01*
X5889051Y-13596501D01*
X6274765Y-13896501D02*
X6274765Y-13596501D01*
X6374765Y-13810787D01*
X6474765Y-13596501D01*
X6474765Y-13896501D01*
X6746194Y-13896501D02*
X6746194Y-13739358D01*
X6731908Y-13710787D01*
X6703336Y-13696501D01*
X6646194Y-13696501D01*
X6617622Y-13710787D01*
X6746194Y-13882215D02*
X6717622Y-13896501D01*
X6646194Y-13896501D01*
X6617622Y-13882215D01*
X6603336Y-13853644D01*
X6603336Y-13825072D01*
X6617622Y-13796501D01*
X6646194Y-13782215D01*
X6717622Y-13782215D01*
X6746194Y-13767929D01*
X6889051Y-13696501D02*
X6889051Y-13996501D01*
X6889051Y-13710787D02*
X6917622Y-13696501D01*
X6974765Y-13696501D01*
X7003336Y-13710787D01*
X7017622Y-13725072D01*
X7031908Y-13753644D01*
X7031908Y-13839358D01*
X7017622Y-13867929D01*
X7003336Y-13882215D01*
X6974765Y-13896501D01*
X6917622Y-13896501D01*
X6889051Y-13882215D01*
X7160479Y-13867929D02*
X7174765Y-13882215D01*
X7160479Y-13896501D01*
X7146194Y-13882215D01*
X7160479Y-13867929D01*
X7160479Y-13896501D01*
X7160479Y-13710787D02*
X7174765Y-13725072D01*
X7160479Y-13739358D01*
X7146194Y-13725072D01*
X7160479Y-13710787D01*
X7160479Y-13739358D01*
M02*
