M48
INCH,TZ
T1C0.0079
T2C0.0118
T3C0.0197
%
G90
G05
T1
X25496Y-24934
X25496Y-25328
X25496Y-25722
X25890Y-24934
X25890Y-25328
X25890Y-25722
X26283Y-24934
X26283Y-25328
X26283Y-25722
T2
X19272Y-25366
X19307Y-24791
X19323Y-26106
X19462Y-24110
X19505Y-26825
X19629Y-23447
X19693Y-27482
X19863Y-22805
X19948Y-28116
X20126Y-25335
X20134Y-24986
X20134Y-25686
X20134Y-26886
X20164Y-22192
X20268Y-28720
X20634Y-23386
X20634Y-23886
X20634Y-26386
X20649Y-29288
X20669Y-21693
X20823Y-21465
X20862Y-28894
X20945Y-21693
X21079Y-21465
X21088Y-29812
X21134Y-23386
X21134Y-23886
X21134Y-24386
X21201Y-21693
X21335Y-21465
X21457Y-21693
X21504Y-25547
X21578Y-30288
X21591Y-21465
X21634Y-23386
X21634Y-23886
X21689Y-28181
X21713Y-21693
X21846Y-21465
X21969Y-21693
X22102Y-21465
X22116Y-30709
X22118Y-26457
X22201Y-22705
X22224Y-21693
X22358Y-21465
X22480Y-21693
X22614Y-21465
X22695Y-31072
X22736Y-21693
X22756Y-24228
X22870Y-21465
X22890Y-26283
X22937Y-26685
X22992Y-21693
X23061Y-25510
X23066Y-25215
X23248Y-21693
X23256Y-21417
X23272Y-27870
X23309Y-31373
X23453Y-25083
X23701Y-21732
X23705Y-21461
X23951Y-31608
X24134Y-29386
X24134Y-29886
X24134Y-30386
X24283Y-23727
X24409Y-21732
X24421Y-21465
X24634Y-29386
X24634Y-29886
X24661Y-21465
X24684Y-27736
X24734Y-26942
X24783Y-21693
X24917Y-21465
X24961Y-23303
X25034Y-27080
X25039Y-21693
X25134Y-29886
X25173Y-21465
X25232Y-28295
X25295Y-21693
X25429Y-21465
X25551Y-21693
X25634Y-29886
X25661Y-27736
X25685Y-21465
X25734Y-22086
X25734Y-22586
X25807Y-21693
X25941Y-21465
X26063Y-21693
X26134Y-29886
X26197Y-21465
X26234Y-22086
X26234Y-22586
X26319Y-21693
X26337Y-27239
X26453Y-21465
X26575Y-21693
X26634Y-29886
X26709Y-21465
X26734Y-22086
X26734Y-22586
X26811Y-28744
X26831Y-21693
X26884Y-29236
X26965Y-21465
X27087Y-21693
X27184Y-27761
X27220Y-21465
X27343Y-21693
X27434Y-22086
X27434Y-22586
X27434Y-22986
X27476Y-21465
X27598Y-21693
X27634Y-30386
X27634Y-30886
X27652Y-26118
X27732Y-21465
X27759Y-30061
X27790Y-26571
X27854Y-21693
X27859Y-26986
X27934Y-22086
X27934Y-22586
X27934Y-22986
X27986Y-31543
X27988Y-21465
X28110Y-21693
X28134Y-29386
X28134Y-29886
X28134Y-30386
X28134Y-30886
X28184Y-24486
X28244Y-21465
X28334Y-23286
X28366Y-21693
X28434Y-22086
X28434Y-22586
X28500Y-21465
X28620Y-31288
X28622Y-21693
X28634Y-29886
X28634Y-30386
X28756Y-21465
X28878Y-21693
X29012Y-21465
X29134Y-21693
X29134Y-27986
X29134Y-29036
X29224Y-30969
X29268Y-21465
X29390Y-21693
X29524Y-21465
X29562Y-23107
X29634Y-28561
X29634Y-29036
X29646Y-21693
X29684Y-30686
X29780Y-21465
X29902Y-21693
X29934Y-27286
X30035Y-21465
X30084Y-25336
X30084Y-30336
X30157Y-21693
X30291Y-21465
X30334Y-26886
X30413Y-21693
X30534Y-29936
X30547Y-21465
X30634Y-25386
X30669Y-21693
X30734Y-24386
X30734Y-24886
X30784Y-23386
X30784Y-23886
X30803Y-21465
X30925Y-21693
X30934Y-29486
X31059Y-21465
X31181Y-21693
X31280Y-29051
X31284Y-23386
X31284Y-23886
X31472Y-22012
X31571Y-25343
X31576Y-28541
X31792Y-22616
X31877Y-27927
X32047Y-23250
X32112Y-27285
X32235Y-23907
X32278Y-26622
X32382Y-24579
X32386Y-25945
X32399Y-25262
T3
X24300Y-32035
X27450Y-32035
T0
M30
