G04 #@! TF.GenerationSoftware,KiCad,Pcbnew,5.1.10*
G04 #@! TF.CreationDate,2021-08-14T17:42:51+03:00*
G04 #@! TF.ProjectId,PlantBuddy,506c616e-7442-4756-9464-792e6b696361,rev?*
G04 #@! TF.SameCoordinates,Original*
G04 #@! TF.FileFunction,Copper,L1,Top*
G04 #@! TF.FilePolarity,Positive*
%FSLAX46Y46*%
G04 Gerber Fmt 4.6, Leading zero omitted, Abs format (unit mm)*
G04 Created by KiCad (PCBNEW 5.1.10) date 2021-08-14 17:42:51*
%MOMM*%
%LPD*%
G01*
G04 APERTURE LIST*
G04 #@! TA.AperFunction,EtchedComponent*
%ADD10C,0.100000*%
G04 #@! TD*
G04 #@! TA.AperFunction,ComponentPad*
%ADD11O,1.000000X1.000000*%
G04 #@! TD*
G04 #@! TA.AperFunction,ComponentPad*
%ADD12R,1.000000X1.000000*%
G04 #@! TD*
G04 #@! TA.AperFunction,SMDPad,CuDef*
%ADD13R,4.600000X4.600000*%
G04 #@! TD*
G04 #@! TA.AperFunction,ComponentPad*
%ADD14C,0.500000*%
G04 #@! TD*
G04 #@! TA.AperFunction,ComponentPad*
%ADD15R,1.700000X1.700000*%
G04 #@! TD*
G04 #@! TA.AperFunction,ComponentPad*
%ADD16O,1.700000X1.700000*%
G04 #@! TD*
G04 #@! TA.AperFunction,SMDPad,CuDef*
%ADD17C,1.000000*%
G04 #@! TD*
G04 #@! TA.AperFunction,ComponentPad*
%ADD18R,0.500000X0.900000*%
G04 #@! TD*
G04 #@! TA.AperFunction,ConnectorPad*
%ADD19R,0.500000X0.500000*%
G04 #@! TD*
G04 #@! TA.AperFunction,SMDPad,CuDef*
%ADD20R,1.400000X1.200000*%
G04 #@! TD*
G04 #@! TA.AperFunction,SMDPad,CuDef*
%ADD21R,1.800000X1.000000*%
G04 #@! TD*
G04 #@! TA.AperFunction,ComponentPad*
%ADD22C,0.100000*%
G04 #@! TD*
G04 #@! TA.AperFunction,SMDPad,CuDef*
%ADD23R,0.900000X0.800000*%
G04 #@! TD*
G04 #@! TA.AperFunction,SMDPad,CuDef*
%ADD24R,0.650000X0.350000*%
G04 #@! TD*
G04 #@! TA.AperFunction,SMDPad,CuDef*
%ADD25R,1.000000X1.600000*%
G04 #@! TD*
G04 #@! TA.AperFunction,ViaPad*
%ADD26C,0.550000*%
G04 #@! TD*
G04 #@! TA.AperFunction,Conductor*
%ADD27C,0.300000*%
G04 #@! TD*
G04 #@! TA.AperFunction,Conductor*
%ADD28C,1.050000*%
G04 #@! TD*
G04 #@! TA.AperFunction,Conductor*
%ADD29C,0.500000*%
G04 #@! TD*
G04 #@! TA.AperFunction,Conductor*
%ADD30C,0.152400*%
G04 #@! TD*
G04 #@! TA.AperFunction,Conductor*
%ADD31C,0.250000*%
G04 #@! TD*
G04 #@! TA.AperFunction,Conductor*
%ADD32C,0.620000*%
G04 #@! TD*
G04 #@! TA.AperFunction,Conductor*
%ADD33C,0.254000*%
G04 #@! TD*
G04 #@! TA.AperFunction,Conductor*
%ADD34C,0.100000*%
G04 #@! TD*
G04 APERTURE END LIST*
D10*
G36*
X53265500Y-66475000D02*
G01*
X53265500Y-64475000D01*
X50625500Y-64475000D01*
X50625500Y-61775000D01*
X53265500Y-61775000D01*
X53265500Y-59775000D01*
X50625500Y-59775000D01*
X50625500Y-57075000D01*
X55065500Y-57075000D01*
X55065500Y-57575000D01*
X51125500Y-57575000D01*
X51125500Y-59275000D01*
X53765500Y-59275000D01*
X53765500Y-62275000D01*
X51125500Y-62275000D01*
X51125500Y-63975000D01*
X53765500Y-63975000D01*
X53765500Y-66975000D01*
X51125500Y-66975000D01*
X51125500Y-68675000D01*
X56025500Y-68675000D01*
X56025500Y-69175000D01*
X51125500Y-69175000D01*
X51125500Y-70575000D01*
X56025500Y-70575000D01*
X56025500Y-71475000D01*
X55782285Y-71475000D01*
X55782285Y-71172583D01*
X55829895Y-71162742D01*
X55872297Y-71138674D01*
X55905081Y-71100731D01*
X55909435Y-71092819D01*
X55921543Y-71050156D01*
X55920800Y-71001637D01*
X55907900Y-70956122D01*
X55897287Y-70937511D01*
X55862053Y-70903868D01*
X55816868Y-70883309D01*
X55767342Y-70876778D01*
X55719083Y-70885218D01*
X55686857Y-70902112D01*
X55654187Y-70937372D01*
X55634092Y-70982682D01*
X55627518Y-71032267D01*
X55635408Y-71080353D01*
X55652314Y-71113245D01*
X55689084Y-71148185D01*
X55733878Y-71167847D01*
X55782285Y-71172583D01*
X55782285Y-71475000D01*
X50625500Y-71475000D01*
X50625500Y-66475000D01*
X53265500Y-66475000D01*
G37*
D11*
X59826800Y-62041600D03*
X58556800Y-62041600D03*
X59826800Y-63311600D03*
X58556800Y-63311600D03*
X59826800Y-64581600D03*
X58556800Y-64581600D03*
X59826800Y-65851600D03*
D12*
X58556800Y-65851600D03*
G04 #@! TA.AperFunction,SMDPad,CuDef*
G36*
G01*
X69025500Y-71577000D02*
X69025500Y-71677000D01*
G75*
G02*
X68975500Y-71727000I-50000J0D01*
G01*
X68275500Y-71727000D01*
G75*
G02*
X68225500Y-71677000I0J50000D01*
G01*
X68225500Y-71577000D01*
G75*
G02*
X68275500Y-71527000I50000J0D01*
G01*
X68975500Y-71527000D01*
G75*
G02*
X69025500Y-71577000I0J-50000D01*
G01*
G37*
G04 #@! TD.AperFunction*
G04 #@! TA.AperFunction,SMDPad,CuDef*
G36*
G01*
X69025500Y-71177000D02*
X69025500Y-71277000D01*
G75*
G02*
X68975500Y-71327000I-50000J0D01*
G01*
X68275500Y-71327000D01*
G75*
G02*
X68225500Y-71277000I0J50000D01*
G01*
X68225500Y-71177000D01*
G75*
G02*
X68275500Y-71127000I50000J0D01*
G01*
X68975500Y-71127000D01*
G75*
G02*
X69025500Y-71177000I0J-50000D01*
G01*
G37*
G04 #@! TD.AperFunction*
G04 #@! TA.AperFunction,SMDPad,CuDef*
G36*
G01*
X69025500Y-70777000D02*
X69025500Y-70877000D01*
G75*
G02*
X68975500Y-70927000I-50000J0D01*
G01*
X68275500Y-70927000D01*
G75*
G02*
X68225500Y-70877000I0J50000D01*
G01*
X68225500Y-70777000D01*
G75*
G02*
X68275500Y-70727000I50000J0D01*
G01*
X68975500Y-70727000D01*
G75*
G02*
X69025500Y-70777000I0J-50000D01*
G01*
G37*
G04 #@! TD.AperFunction*
G04 #@! TA.AperFunction,SMDPad,CuDef*
G36*
G01*
X69025500Y-70377000D02*
X69025500Y-70477000D01*
G75*
G02*
X68975500Y-70527000I-50000J0D01*
G01*
X68275500Y-70527000D01*
G75*
G02*
X68225500Y-70477000I0J50000D01*
G01*
X68225500Y-70377000D01*
G75*
G02*
X68275500Y-70327000I50000J0D01*
G01*
X68975500Y-70327000D01*
G75*
G02*
X69025500Y-70377000I0J-50000D01*
G01*
G37*
G04 #@! TD.AperFunction*
G04 #@! TA.AperFunction,SMDPad,CuDef*
G36*
G01*
X69025500Y-69977000D02*
X69025500Y-70077000D01*
G75*
G02*
X68975500Y-70127000I-50000J0D01*
G01*
X68275500Y-70127000D01*
G75*
G02*
X68225500Y-70077000I0J50000D01*
G01*
X68225500Y-69977000D01*
G75*
G02*
X68275500Y-69927000I50000J0D01*
G01*
X68975500Y-69927000D01*
G75*
G02*
X69025500Y-69977000I0J-50000D01*
G01*
G37*
G04 #@! TD.AperFunction*
G04 #@! TA.AperFunction,SMDPad,CuDef*
G36*
G01*
X69025500Y-69577000D02*
X69025500Y-69677000D01*
G75*
G02*
X68975500Y-69727000I-50000J0D01*
G01*
X68275500Y-69727000D01*
G75*
G02*
X68225500Y-69677000I0J50000D01*
G01*
X68225500Y-69577000D01*
G75*
G02*
X68275500Y-69527000I50000J0D01*
G01*
X68975500Y-69527000D01*
G75*
G02*
X69025500Y-69577000I0J-50000D01*
G01*
G37*
G04 #@! TD.AperFunction*
G04 #@! TA.AperFunction,SMDPad,CuDef*
G36*
G01*
X69025500Y-69177000D02*
X69025500Y-69277000D01*
G75*
G02*
X68975500Y-69327000I-50000J0D01*
G01*
X68275500Y-69327000D01*
G75*
G02*
X68225500Y-69277000I0J50000D01*
G01*
X68225500Y-69177000D01*
G75*
G02*
X68275500Y-69127000I50000J0D01*
G01*
X68975500Y-69127000D01*
G75*
G02*
X69025500Y-69177000I0J-50000D01*
G01*
G37*
G04 #@! TD.AperFunction*
G04 #@! TA.AperFunction,SMDPad,CuDef*
G36*
G01*
X69025500Y-68777000D02*
X69025500Y-68877000D01*
G75*
G02*
X68975500Y-68927000I-50000J0D01*
G01*
X68275500Y-68927000D01*
G75*
G02*
X68225500Y-68877000I0J50000D01*
G01*
X68225500Y-68777000D01*
G75*
G02*
X68275500Y-68727000I50000J0D01*
G01*
X68975500Y-68727000D01*
G75*
G02*
X69025500Y-68777000I0J-50000D01*
G01*
G37*
G04 #@! TD.AperFunction*
G04 #@! TA.AperFunction,SMDPad,CuDef*
G36*
G01*
X69025500Y-68377000D02*
X69025500Y-68477000D01*
G75*
G02*
X68975500Y-68527000I-50000J0D01*
G01*
X68275500Y-68527000D01*
G75*
G02*
X68225500Y-68477000I0J50000D01*
G01*
X68225500Y-68377000D01*
G75*
G02*
X68275500Y-68327000I50000J0D01*
G01*
X68975500Y-68327000D01*
G75*
G02*
X69025500Y-68377000I0J-50000D01*
G01*
G37*
G04 #@! TD.AperFunction*
G04 #@! TA.AperFunction,SMDPad,CuDef*
G36*
G01*
X69025500Y-67977000D02*
X69025500Y-68077000D01*
G75*
G02*
X68975500Y-68127000I-50000J0D01*
G01*
X68275500Y-68127000D01*
G75*
G02*
X68225500Y-68077000I0J50000D01*
G01*
X68225500Y-67977000D01*
G75*
G02*
X68275500Y-67927000I50000J0D01*
G01*
X68975500Y-67927000D01*
G75*
G02*
X69025500Y-67977000I0J-50000D01*
G01*
G37*
G04 #@! TD.AperFunction*
G04 #@! TA.AperFunction,SMDPad,CuDef*
G36*
G01*
X69025500Y-67577000D02*
X69025500Y-67677000D01*
G75*
G02*
X68975500Y-67727000I-50000J0D01*
G01*
X68275500Y-67727000D01*
G75*
G02*
X68225500Y-67677000I0J50000D01*
G01*
X68225500Y-67577000D01*
G75*
G02*
X68275500Y-67527000I50000J0D01*
G01*
X68975500Y-67527000D01*
G75*
G02*
X69025500Y-67577000I0J-50000D01*
G01*
G37*
G04 #@! TD.AperFunction*
G04 #@! TA.AperFunction,SMDPad,CuDef*
G36*
G01*
X69025500Y-67177000D02*
X69025500Y-67277000D01*
G75*
G02*
X68975500Y-67327000I-50000J0D01*
G01*
X68275500Y-67327000D01*
G75*
G02*
X68225500Y-67277000I0J50000D01*
G01*
X68225500Y-67177000D01*
G75*
G02*
X68275500Y-67127000I50000J0D01*
G01*
X68975500Y-67127000D01*
G75*
G02*
X69025500Y-67177000I0J-50000D01*
G01*
G37*
G04 #@! TD.AperFunction*
G04 #@! TA.AperFunction,SMDPad,CuDef*
G36*
G01*
X67975500Y-66127000D02*
X67975500Y-66827000D01*
G75*
G02*
X67925500Y-66877000I-50000J0D01*
G01*
X67825500Y-66877000D01*
G75*
G02*
X67775500Y-66827000I0J50000D01*
G01*
X67775500Y-66127000D01*
G75*
G02*
X67825500Y-66077000I50000J0D01*
G01*
X67925500Y-66077000D01*
G75*
G02*
X67975500Y-66127000I0J-50000D01*
G01*
G37*
G04 #@! TD.AperFunction*
G04 #@! TA.AperFunction,SMDPad,CuDef*
G36*
G01*
X67575500Y-66127000D02*
X67575500Y-66827000D01*
G75*
G02*
X67525500Y-66877000I-50000J0D01*
G01*
X67425500Y-66877000D01*
G75*
G02*
X67375500Y-66827000I0J50000D01*
G01*
X67375500Y-66127000D01*
G75*
G02*
X67425500Y-66077000I50000J0D01*
G01*
X67525500Y-66077000D01*
G75*
G02*
X67575500Y-66127000I0J-50000D01*
G01*
G37*
G04 #@! TD.AperFunction*
G04 #@! TA.AperFunction,SMDPad,CuDef*
G36*
G01*
X67175500Y-66127000D02*
X67175500Y-66827000D01*
G75*
G02*
X67125500Y-66877000I-50000J0D01*
G01*
X67025500Y-66877000D01*
G75*
G02*
X66975500Y-66827000I0J50000D01*
G01*
X66975500Y-66127000D01*
G75*
G02*
X67025500Y-66077000I50000J0D01*
G01*
X67125500Y-66077000D01*
G75*
G02*
X67175500Y-66127000I0J-50000D01*
G01*
G37*
G04 #@! TD.AperFunction*
G04 #@! TA.AperFunction,SMDPad,CuDef*
G36*
G01*
X66775500Y-66127000D02*
X66775500Y-66827000D01*
G75*
G02*
X66725500Y-66877000I-50000J0D01*
G01*
X66625500Y-66877000D01*
G75*
G02*
X66575500Y-66827000I0J50000D01*
G01*
X66575500Y-66127000D01*
G75*
G02*
X66625500Y-66077000I50000J0D01*
G01*
X66725500Y-66077000D01*
G75*
G02*
X66775500Y-66127000I0J-50000D01*
G01*
G37*
G04 #@! TD.AperFunction*
G04 #@! TA.AperFunction,SMDPad,CuDef*
G36*
G01*
X66375500Y-66127000D02*
X66375500Y-66827000D01*
G75*
G02*
X66325500Y-66877000I-50000J0D01*
G01*
X66225500Y-66877000D01*
G75*
G02*
X66175500Y-66827000I0J50000D01*
G01*
X66175500Y-66127000D01*
G75*
G02*
X66225500Y-66077000I50000J0D01*
G01*
X66325500Y-66077000D01*
G75*
G02*
X66375500Y-66127000I0J-50000D01*
G01*
G37*
G04 #@! TD.AperFunction*
G04 #@! TA.AperFunction,SMDPad,CuDef*
G36*
G01*
X65975500Y-66127000D02*
X65975500Y-66827000D01*
G75*
G02*
X65925500Y-66877000I-50000J0D01*
G01*
X65825500Y-66877000D01*
G75*
G02*
X65775500Y-66827000I0J50000D01*
G01*
X65775500Y-66127000D01*
G75*
G02*
X65825500Y-66077000I50000J0D01*
G01*
X65925500Y-66077000D01*
G75*
G02*
X65975500Y-66127000I0J-50000D01*
G01*
G37*
G04 #@! TD.AperFunction*
G04 #@! TA.AperFunction,SMDPad,CuDef*
G36*
G01*
X65575500Y-66127000D02*
X65575500Y-66827000D01*
G75*
G02*
X65525500Y-66877000I-50000J0D01*
G01*
X65425500Y-66877000D01*
G75*
G02*
X65375500Y-66827000I0J50000D01*
G01*
X65375500Y-66127000D01*
G75*
G02*
X65425500Y-66077000I50000J0D01*
G01*
X65525500Y-66077000D01*
G75*
G02*
X65575500Y-66127000I0J-50000D01*
G01*
G37*
G04 #@! TD.AperFunction*
G04 #@! TA.AperFunction,SMDPad,CuDef*
G36*
G01*
X65175500Y-66127000D02*
X65175500Y-66827000D01*
G75*
G02*
X65125500Y-66877000I-50000J0D01*
G01*
X65025500Y-66877000D01*
G75*
G02*
X64975500Y-66827000I0J50000D01*
G01*
X64975500Y-66127000D01*
G75*
G02*
X65025500Y-66077000I50000J0D01*
G01*
X65125500Y-66077000D01*
G75*
G02*
X65175500Y-66127000I0J-50000D01*
G01*
G37*
G04 #@! TD.AperFunction*
G04 #@! TA.AperFunction,SMDPad,CuDef*
G36*
G01*
X64775500Y-66127000D02*
X64775500Y-66827000D01*
G75*
G02*
X64725500Y-66877000I-50000J0D01*
G01*
X64625500Y-66877000D01*
G75*
G02*
X64575500Y-66827000I0J50000D01*
G01*
X64575500Y-66127000D01*
G75*
G02*
X64625500Y-66077000I50000J0D01*
G01*
X64725500Y-66077000D01*
G75*
G02*
X64775500Y-66127000I0J-50000D01*
G01*
G37*
G04 #@! TD.AperFunction*
G04 #@! TA.AperFunction,SMDPad,CuDef*
G36*
G01*
X64375500Y-66127000D02*
X64375500Y-66827000D01*
G75*
G02*
X64325500Y-66877000I-50000J0D01*
G01*
X64225500Y-66877000D01*
G75*
G02*
X64175500Y-66827000I0J50000D01*
G01*
X64175500Y-66127000D01*
G75*
G02*
X64225500Y-66077000I50000J0D01*
G01*
X64325500Y-66077000D01*
G75*
G02*
X64375500Y-66127000I0J-50000D01*
G01*
G37*
G04 #@! TD.AperFunction*
G04 #@! TA.AperFunction,SMDPad,CuDef*
G36*
G01*
X63975500Y-66127000D02*
X63975500Y-66827000D01*
G75*
G02*
X63925500Y-66877000I-50000J0D01*
G01*
X63825500Y-66877000D01*
G75*
G02*
X63775500Y-66827000I0J50000D01*
G01*
X63775500Y-66127000D01*
G75*
G02*
X63825500Y-66077000I50000J0D01*
G01*
X63925500Y-66077000D01*
G75*
G02*
X63975500Y-66127000I0J-50000D01*
G01*
G37*
G04 #@! TD.AperFunction*
G04 #@! TA.AperFunction,SMDPad,CuDef*
G36*
G01*
X63575500Y-66127000D02*
X63575500Y-66827000D01*
G75*
G02*
X63525500Y-66877000I-50000J0D01*
G01*
X63425500Y-66877000D01*
G75*
G02*
X63375500Y-66827000I0J50000D01*
G01*
X63375500Y-66127000D01*
G75*
G02*
X63425500Y-66077000I50000J0D01*
G01*
X63525500Y-66077000D01*
G75*
G02*
X63575500Y-66127000I0J-50000D01*
G01*
G37*
G04 #@! TD.AperFunction*
G04 #@! TA.AperFunction,SMDPad,CuDef*
G36*
G01*
X63125500Y-67177000D02*
X63125500Y-67277000D01*
G75*
G02*
X63075500Y-67327000I-50000J0D01*
G01*
X62375500Y-67327000D01*
G75*
G02*
X62325500Y-67277000I0J50000D01*
G01*
X62325500Y-67177000D01*
G75*
G02*
X62375500Y-67127000I50000J0D01*
G01*
X63075500Y-67127000D01*
G75*
G02*
X63125500Y-67177000I0J-50000D01*
G01*
G37*
G04 #@! TD.AperFunction*
G04 #@! TA.AperFunction,SMDPad,CuDef*
G36*
G01*
X63125500Y-67577000D02*
X63125500Y-67677000D01*
G75*
G02*
X63075500Y-67727000I-50000J0D01*
G01*
X62375500Y-67727000D01*
G75*
G02*
X62325500Y-67677000I0J50000D01*
G01*
X62325500Y-67577000D01*
G75*
G02*
X62375500Y-67527000I50000J0D01*
G01*
X63075500Y-67527000D01*
G75*
G02*
X63125500Y-67577000I0J-50000D01*
G01*
G37*
G04 #@! TD.AperFunction*
G04 #@! TA.AperFunction,SMDPad,CuDef*
G36*
G01*
X63125500Y-67977000D02*
X63125500Y-68077000D01*
G75*
G02*
X63075500Y-68127000I-50000J0D01*
G01*
X62375500Y-68127000D01*
G75*
G02*
X62325500Y-68077000I0J50000D01*
G01*
X62325500Y-67977000D01*
G75*
G02*
X62375500Y-67927000I50000J0D01*
G01*
X63075500Y-67927000D01*
G75*
G02*
X63125500Y-67977000I0J-50000D01*
G01*
G37*
G04 #@! TD.AperFunction*
G04 #@! TA.AperFunction,SMDPad,CuDef*
G36*
G01*
X63125500Y-68377000D02*
X63125500Y-68477000D01*
G75*
G02*
X63075500Y-68527000I-50000J0D01*
G01*
X62375500Y-68527000D01*
G75*
G02*
X62325500Y-68477000I0J50000D01*
G01*
X62325500Y-68377000D01*
G75*
G02*
X62375500Y-68327000I50000J0D01*
G01*
X63075500Y-68327000D01*
G75*
G02*
X63125500Y-68377000I0J-50000D01*
G01*
G37*
G04 #@! TD.AperFunction*
G04 #@! TA.AperFunction,SMDPad,CuDef*
G36*
G01*
X63125500Y-68777000D02*
X63125500Y-68877000D01*
G75*
G02*
X63075500Y-68927000I-50000J0D01*
G01*
X62375500Y-68927000D01*
G75*
G02*
X62325500Y-68877000I0J50000D01*
G01*
X62325500Y-68777000D01*
G75*
G02*
X62375500Y-68727000I50000J0D01*
G01*
X63075500Y-68727000D01*
G75*
G02*
X63125500Y-68777000I0J-50000D01*
G01*
G37*
G04 #@! TD.AperFunction*
G04 #@! TA.AperFunction,SMDPad,CuDef*
G36*
G01*
X63125500Y-69177000D02*
X63125500Y-69277000D01*
G75*
G02*
X63075500Y-69327000I-50000J0D01*
G01*
X62375500Y-69327000D01*
G75*
G02*
X62325500Y-69277000I0J50000D01*
G01*
X62325500Y-69177000D01*
G75*
G02*
X62375500Y-69127000I50000J0D01*
G01*
X63075500Y-69127000D01*
G75*
G02*
X63125500Y-69177000I0J-50000D01*
G01*
G37*
G04 #@! TD.AperFunction*
G04 #@! TA.AperFunction,SMDPad,CuDef*
G36*
G01*
X63125500Y-69577000D02*
X63125500Y-69677000D01*
G75*
G02*
X63075500Y-69727000I-50000J0D01*
G01*
X62375500Y-69727000D01*
G75*
G02*
X62325500Y-69677000I0J50000D01*
G01*
X62325500Y-69577000D01*
G75*
G02*
X62375500Y-69527000I50000J0D01*
G01*
X63075500Y-69527000D01*
G75*
G02*
X63125500Y-69577000I0J-50000D01*
G01*
G37*
G04 #@! TD.AperFunction*
G04 #@! TA.AperFunction,SMDPad,CuDef*
G36*
G01*
X63125500Y-69977000D02*
X63125500Y-70077000D01*
G75*
G02*
X63075500Y-70127000I-50000J0D01*
G01*
X62375500Y-70127000D01*
G75*
G02*
X62325500Y-70077000I0J50000D01*
G01*
X62325500Y-69977000D01*
G75*
G02*
X62375500Y-69927000I50000J0D01*
G01*
X63075500Y-69927000D01*
G75*
G02*
X63125500Y-69977000I0J-50000D01*
G01*
G37*
G04 #@! TD.AperFunction*
G04 #@! TA.AperFunction,SMDPad,CuDef*
G36*
G01*
X63125500Y-70377000D02*
X63125500Y-70477000D01*
G75*
G02*
X63075500Y-70527000I-50000J0D01*
G01*
X62375500Y-70527000D01*
G75*
G02*
X62325500Y-70477000I0J50000D01*
G01*
X62325500Y-70377000D01*
G75*
G02*
X62375500Y-70327000I50000J0D01*
G01*
X63075500Y-70327000D01*
G75*
G02*
X63125500Y-70377000I0J-50000D01*
G01*
G37*
G04 #@! TD.AperFunction*
G04 #@! TA.AperFunction,SMDPad,CuDef*
G36*
G01*
X63125500Y-70777000D02*
X63125500Y-70877000D01*
G75*
G02*
X63075500Y-70927000I-50000J0D01*
G01*
X62375500Y-70927000D01*
G75*
G02*
X62325500Y-70877000I0J50000D01*
G01*
X62325500Y-70777000D01*
G75*
G02*
X62375500Y-70727000I50000J0D01*
G01*
X63075500Y-70727000D01*
G75*
G02*
X63125500Y-70777000I0J-50000D01*
G01*
G37*
G04 #@! TD.AperFunction*
G04 #@! TA.AperFunction,SMDPad,CuDef*
G36*
G01*
X63125500Y-71177000D02*
X63125500Y-71277000D01*
G75*
G02*
X63075500Y-71327000I-50000J0D01*
G01*
X62375500Y-71327000D01*
G75*
G02*
X62325500Y-71277000I0J50000D01*
G01*
X62325500Y-71177000D01*
G75*
G02*
X62375500Y-71127000I50000J0D01*
G01*
X63075500Y-71127000D01*
G75*
G02*
X63125500Y-71177000I0J-50000D01*
G01*
G37*
G04 #@! TD.AperFunction*
G04 #@! TA.AperFunction,SMDPad,CuDef*
G36*
G01*
X63125500Y-71577000D02*
X63125500Y-71677000D01*
G75*
G02*
X63075500Y-71727000I-50000J0D01*
G01*
X62375500Y-71727000D01*
G75*
G02*
X62325500Y-71677000I0J50000D01*
G01*
X62325500Y-71577000D01*
G75*
G02*
X62375500Y-71527000I50000J0D01*
G01*
X63075500Y-71527000D01*
G75*
G02*
X63125500Y-71577000I0J-50000D01*
G01*
G37*
G04 #@! TD.AperFunction*
G04 #@! TA.AperFunction,SMDPad,CuDef*
G36*
G01*
X63575500Y-72027000D02*
X63575500Y-72727000D01*
G75*
G02*
X63525500Y-72777000I-50000J0D01*
G01*
X63425500Y-72777000D01*
G75*
G02*
X63375500Y-72727000I0J50000D01*
G01*
X63375500Y-72027000D01*
G75*
G02*
X63425500Y-71977000I50000J0D01*
G01*
X63525500Y-71977000D01*
G75*
G02*
X63575500Y-72027000I0J-50000D01*
G01*
G37*
G04 #@! TD.AperFunction*
G04 #@! TA.AperFunction,SMDPad,CuDef*
G36*
G01*
X63975500Y-72027000D02*
X63975500Y-72727000D01*
G75*
G02*
X63925500Y-72777000I-50000J0D01*
G01*
X63825500Y-72777000D01*
G75*
G02*
X63775500Y-72727000I0J50000D01*
G01*
X63775500Y-72027000D01*
G75*
G02*
X63825500Y-71977000I50000J0D01*
G01*
X63925500Y-71977000D01*
G75*
G02*
X63975500Y-72027000I0J-50000D01*
G01*
G37*
G04 #@! TD.AperFunction*
G04 #@! TA.AperFunction,SMDPad,CuDef*
G36*
G01*
X64375500Y-72027000D02*
X64375500Y-72727000D01*
G75*
G02*
X64325500Y-72777000I-50000J0D01*
G01*
X64225500Y-72777000D01*
G75*
G02*
X64175500Y-72727000I0J50000D01*
G01*
X64175500Y-72027000D01*
G75*
G02*
X64225500Y-71977000I50000J0D01*
G01*
X64325500Y-71977000D01*
G75*
G02*
X64375500Y-72027000I0J-50000D01*
G01*
G37*
G04 #@! TD.AperFunction*
G04 #@! TA.AperFunction,SMDPad,CuDef*
G36*
G01*
X64775500Y-72027000D02*
X64775500Y-72727000D01*
G75*
G02*
X64725500Y-72777000I-50000J0D01*
G01*
X64625500Y-72777000D01*
G75*
G02*
X64575500Y-72727000I0J50000D01*
G01*
X64575500Y-72027000D01*
G75*
G02*
X64625500Y-71977000I50000J0D01*
G01*
X64725500Y-71977000D01*
G75*
G02*
X64775500Y-72027000I0J-50000D01*
G01*
G37*
G04 #@! TD.AperFunction*
G04 #@! TA.AperFunction,SMDPad,CuDef*
G36*
G01*
X65175500Y-72027000D02*
X65175500Y-72727000D01*
G75*
G02*
X65125500Y-72777000I-50000J0D01*
G01*
X65025500Y-72777000D01*
G75*
G02*
X64975500Y-72727000I0J50000D01*
G01*
X64975500Y-72027000D01*
G75*
G02*
X65025500Y-71977000I50000J0D01*
G01*
X65125500Y-71977000D01*
G75*
G02*
X65175500Y-72027000I0J-50000D01*
G01*
G37*
G04 #@! TD.AperFunction*
G04 #@! TA.AperFunction,SMDPad,CuDef*
G36*
G01*
X65575500Y-72027000D02*
X65575500Y-72727000D01*
G75*
G02*
X65525500Y-72777000I-50000J0D01*
G01*
X65425500Y-72777000D01*
G75*
G02*
X65375500Y-72727000I0J50000D01*
G01*
X65375500Y-72027000D01*
G75*
G02*
X65425500Y-71977000I50000J0D01*
G01*
X65525500Y-71977000D01*
G75*
G02*
X65575500Y-72027000I0J-50000D01*
G01*
G37*
G04 #@! TD.AperFunction*
G04 #@! TA.AperFunction,SMDPad,CuDef*
G36*
G01*
X65975500Y-72027000D02*
X65975500Y-72727000D01*
G75*
G02*
X65925500Y-72777000I-50000J0D01*
G01*
X65825500Y-72777000D01*
G75*
G02*
X65775500Y-72727000I0J50000D01*
G01*
X65775500Y-72027000D01*
G75*
G02*
X65825500Y-71977000I50000J0D01*
G01*
X65925500Y-71977000D01*
G75*
G02*
X65975500Y-72027000I0J-50000D01*
G01*
G37*
G04 #@! TD.AperFunction*
G04 #@! TA.AperFunction,SMDPad,CuDef*
G36*
G01*
X66375500Y-72027000D02*
X66375500Y-72727000D01*
G75*
G02*
X66325500Y-72777000I-50000J0D01*
G01*
X66225500Y-72777000D01*
G75*
G02*
X66175500Y-72727000I0J50000D01*
G01*
X66175500Y-72027000D01*
G75*
G02*
X66225500Y-71977000I50000J0D01*
G01*
X66325500Y-71977000D01*
G75*
G02*
X66375500Y-72027000I0J-50000D01*
G01*
G37*
G04 #@! TD.AperFunction*
G04 #@! TA.AperFunction,SMDPad,CuDef*
G36*
G01*
X66775500Y-72027000D02*
X66775500Y-72727000D01*
G75*
G02*
X66725500Y-72777000I-50000J0D01*
G01*
X66625500Y-72777000D01*
G75*
G02*
X66575500Y-72727000I0J50000D01*
G01*
X66575500Y-72027000D01*
G75*
G02*
X66625500Y-71977000I50000J0D01*
G01*
X66725500Y-71977000D01*
G75*
G02*
X66775500Y-72027000I0J-50000D01*
G01*
G37*
G04 #@! TD.AperFunction*
G04 #@! TA.AperFunction,SMDPad,CuDef*
G36*
G01*
X67175500Y-72027000D02*
X67175500Y-72727000D01*
G75*
G02*
X67125500Y-72777000I-50000J0D01*
G01*
X67025500Y-72777000D01*
G75*
G02*
X66975500Y-72727000I0J50000D01*
G01*
X66975500Y-72027000D01*
G75*
G02*
X67025500Y-71977000I50000J0D01*
G01*
X67125500Y-71977000D01*
G75*
G02*
X67175500Y-72027000I0J-50000D01*
G01*
G37*
G04 #@! TD.AperFunction*
G04 #@! TA.AperFunction,SMDPad,CuDef*
G36*
G01*
X67575500Y-72027000D02*
X67575500Y-72727000D01*
G75*
G02*
X67525500Y-72777000I-50000J0D01*
G01*
X67425500Y-72777000D01*
G75*
G02*
X67375500Y-72727000I0J50000D01*
G01*
X67375500Y-72027000D01*
G75*
G02*
X67425500Y-71977000I50000J0D01*
G01*
X67525500Y-71977000D01*
G75*
G02*
X67575500Y-72027000I0J-50000D01*
G01*
G37*
G04 #@! TD.AperFunction*
G04 #@! TA.AperFunction,SMDPad,CuDef*
G36*
G01*
X67975500Y-72027000D02*
X67975500Y-72727000D01*
G75*
G02*
X67925500Y-72777000I-50000J0D01*
G01*
X67825500Y-72777000D01*
G75*
G02*
X67775500Y-72727000I0J50000D01*
G01*
X67775500Y-72027000D01*
G75*
G02*
X67825500Y-71977000I50000J0D01*
G01*
X67925500Y-71977000D01*
G75*
G02*
X67975500Y-72027000I0J-50000D01*
G01*
G37*
G04 #@! TD.AperFunction*
D13*
X65675500Y-69427000D03*
D14*
X67475500Y-71227000D03*
X66275500Y-71227000D03*
X65075500Y-71227000D03*
X63875500Y-71227000D03*
X67475500Y-70027000D03*
X66275500Y-70027000D03*
X65075500Y-70027000D03*
X63875500Y-70027000D03*
X67475500Y-68827000D03*
X66275500Y-68827000D03*
X65075500Y-68827000D03*
X63875500Y-68827000D03*
X67475500Y-67627000D03*
X66275500Y-67627000D03*
X65075500Y-67627000D03*
X63875500Y-67627000D03*
G04 #@! TA.AperFunction,SMDPad,CuDef*
G36*
G01*
X69495000Y-77822400D02*
X69865000Y-77822400D01*
G75*
G02*
X70000000Y-77957400I0J-135000D01*
G01*
X70000000Y-78227400D01*
G75*
G02*
X69865000Y-78362400I-135000J0D01*
G01*
X69495000Y-78362400D01*
G75*
G02*
X69360000Y-78227400I0J135000D01*
G01*
X69360000Y-77957400D01*
G75*
G02*
X69495000Y-77822400I135000J0D01*
G01*
G37*
G04 #@! TD.AperFunction*
G04 #@! TA.AperFunction,SMDPad,CuDef*
G36*
G01*
X69495000Y-78842400D02*
X69865000Y-78842400D01*
G75*
G02*
X70000000Y-78977400I0J-135000D01*
G01*
X70000000Y-79247400D01*
G75*
G02*
X69865000Y-79382400I-135000J0D01*
G01*
X69495000Y-79382400D01*
G75*
G02*
X69360000Y-79247400I0J135000D01*
G01*
X69360000Y-78977400D01*
G75*
G02*
X69495000Y-78842400I135000J0D01*
G01*
G37*
G04 #@! TD.AperFunction*
D15*
X80096000Y-65750000D03*
D16*
X80096000Y-63210000D03*
G04 #@! TA.AperFunction,SMDPad,CuDef*
G36*
G01*
X77554000Y-62074800D02*
X77554000Y-62414800D01*
G75*
G02*
X77414000Y-62554800I-140000J0D01*
G01*
X77134000Y-62554800D01*
G75*
G02*
X76994000Y-62414800I0J140000D01*
G01*
X76994000Y-62074800D01*
G75*
G02*
X77134000Y-61934800I140000J0D01*
G01*
X77414000Y-61934800D01*
G75*
G02*
X77554000Y-62074800I0J-140000D01*
G01*
G37*
G04 #@! TD.AperFunction*
G04 #@! TA.AperFunction,SMDPad,CuDef*
G36*
G01*
X76594000Y-62074800D02*
X76594000Y-62414800D01*
G75*
G02*
X76454000Y-62554800I-140000J0D01*
G01*
X76174000Y-62554800D01*
G75*
G02*
X76034000Y-62414800I0J140000D01*
G01*
X76034000Y-62074800D01*
G75*
G02*
X76174000Y-61934800I140000J0D01*
G01*
X76454000Y-61934800D01*
G75*
G02*
X76594000Y-62074800I0J-140000D01*
G01*
G37*
G04 #@! TD.AperFunction*
G04 #@! TA.AperFunction,SMDPad,CuDef*
G36*
G01*
X76135600Y-66682000D02*
X76135600Y-66342000D01*
G75*
G02*
X76275600Y-66202000I140000J0D01*
G01*
X76555600Y-66202000D01*
G75*
G02*
X76695600Y-66342000I0J-140000D01*
G01*
X76695600Y-66682000D01*
G75*
G02*
X76555600Y-66822000I-140000J0D01*
G01*
X76275600Y-66822000D01*
G75*
G02*
X76135600Y-66682000I0J140000D01*
G01*
G37*
G04 #@! TD.AperFunction*
G04 #@! TA.AperFunction,SMDPad,CuDef*
G36*
G01*
X77095600Y-66682000D02*
X77095600Y-66342000D01*
G75*
G02*
X77235600Y-66202000I140000J0D01*
G01*
X77515600Y-66202000D01*
G75*
G02*
X77655600Y-66342000I0J-140000D01*
G01*
X77655600Y-66682000D01*
G75*
G02*
X77515600Y-66822000I-140000J0D01*
G01*
X77235600Y-66822000D01*
G75*
G02*
X77095600Y-66682000I0J140000D01*
G01*
G37*
G04 #@! TD.AperFunction*
G04 #@! TA.AperFunction,SMDPad,CuDef*
G36*
G01*
X59123000Y-69097500D02*
X59123000Y-68752500D01*
G75*
G02*
X59270500Y-68605000I147500J0D01*
G01*
X59565500Y-68605000D01*
G75*
G02*
X59713000Y-68752500I0J-147500D01*
G01*
X59713000Y-69097500D01*
G75*
G02*
X59565500Y-69245000I-147500J0D01*
G01*
X59270500Y-69245000D01*
G75*
G02*
X59123000Y-69097500I0J147500D01*
G01*
G37*
G04 #@! TD.AperFunction*
G04 #@! TA.AperFunction,SMDPad,CuDef*
G36*
G01*
X60093000Y-69097500D02*
X60093000Y-68752500D01*
G75*
G02*
X60240500Y-68605000I147500J0D01*
G01*
X60535500Y-68605000D01*
G75*
G02*
X60683000Y-68752500I0J-147500D01*
G01*
X60683000Y-69097500D01*
G75*
G02*
X60535500Y-69245000I-147500J0D01*
G01*
X60240500Y-69245000D01*
G75*
G02*
X60093000Y-69097500I0J147500D01*
G01*
G37*
G04 #@! TD.AperFunction*
G04 #@! TA.AperFunction,SMDPad,CuDef*
G36*
G01*
X58749207Y-73265609D02*
X58508791Y-73025193D01*
G75*
G02*
X58508791Y-72827203I98995J98995D01*
G01*
X58706781Y-72629213D01*
G75*
G02*
X58904771Y-72629213I98995J-98995D01*
G01*
X59145187Y-72869629D01*
G75*
G02*
X59145187Y-73067619I-98995J-98995D01*
G01*
X58947197Y-73265609D01*
G75*
G02*
X58749207Y-73265609I-98995J98995D01*
G01*
G37*
G04 #@! TD.AperFunction*
G04 #@! TA.AperFunction,SMDPad,CuDef*
G36*
G01*
X59428029Y-72586787D02*
X59187613Y-72346371D01*
G75*
G02*
X59187613Y-72148381I98995J98995D01*
G01*
X59385603Y-71950391D01*
G75*
G02*
X59583593Y-71950391I98995J-98995D01*
G01*
X59824009Y-72190807D01*
G75*
G02*
X59824009Y-72388797I-98995J-98995D01*
G01*
X59626019Y-72586787D01*
G75*
G02*
X59428029Y-72586787I-98995J98995D01*
G01*
G37*
G04 #@! TD.AperFunction*
G04 #@! TA.AperFunction,SMDPad,CuDef*
G36*
G01*
X58361000Y-54632000D02*
X58361000Y-54262000D01*
G75*
G02*
X58496000Y-54127000I135000J0D01*
G01*
X58766000Y-54127000D01*
G75*
G02*
X58901000Y-54262000I0J-135000D01*
G01*
X58901000Y-54632000D01*
G75*
G02*
X58766000Y-54767000I-135000J0D01*
G01*
X58496000Y-54767000D01*
G75*
G02*
X58361000Y-54632000I0J135000D01*
G01*
G37*
G04 #@! TD.AperFunction*
G04 #@! TA.AperFunction,SMDPad,CuDef*
G36*
G01*
X59381000Y-54632000D02*
X59381000Y-54262000D01*
G75*
G02*
X59516000Y-54127000I135000J0D01*
G01*
X59786000Y-54127000D01*
G75*
G02*
X59921000Y-54262000I0J-135000D01*
G01*
X59921000Y-54632000D01*
G75*
G02*
X59786000Y-54767000I-135000J0D01*
G01*
X59516000Y-54767000D01*
G75*
G02*
X59381000Y-54632000I0J135000D01*
G01*
G37*
G04 #@! TD.AperFunction*
G04 #@! TA.AperFunction,SMDPad,CuDef*
G36*
G01*
X56849500Y-52941000D02*
X56479500Y-52941000D01*
G75*
G02*
X56344500Y-52806000I0J135000D01*
G01*
X56344500Y-52536000D01*
G75*
G02*
X56479500Y-52401000I135000J0D01*
G01*
X56849500Y-52401000D01*
G75*
G02*
X56984500Y-52536000I0J-135000D01*
G01*
X56984500Y-52806000D01*
G75*
G02*
X56849500Y-52941000I-135000J0D01*
G01*
G37*
G04 #@! TD.AperFunction*
G04 #@! TA.AperFunction,SMDPad,CuDef*
G36*
G01*
X56849500Y-51921000D02*
X56479500Y-51921000D01*
G75*
G02*
X56344500Y-51786000I0J135000D01*
G01*
X56344500Y-51516000D01*
G75*
G02*
X56479500Y-51381000I135000J0D01*
G01*
X56849500Y-51381000D01*
G75*
G02*
X56984500Y-51516000I0J-135000D01*
G01*
X56984500Y-51786000D01*
G75*
G02*
X56849500Y-51921000I-135000J0D01*
G01*
G37*
G04 #@! TD.AperFunction*
G04 #@! TA.AperFunction,SMDPad,CuDef*
G36*
G01*
X63308600Y-54667800D02*
X63308600Y-54327800D01*
G75*
G02*
X63448600Y-54187800I140000J0D01*
G01*
X63728600Y-54187800D01*
G75*
G02*
X63868600Y-54327800I0J-140000D01*
G01*
X63868600Y-54667800D01*
G75*
G02*
X63728600Y-54807800I-140000J0D01*
G01*
X63448600Y-54807800D01*
G75*
G02*
X63308600Y-54667800I0J140000D01*
G01*
G37*
G04 #@! TD.AperFunction*
G04 #@! TA.AperFunction,SMDPad,CuDef*
G36*
G01*
X64268600Y-54667800D02*
X64268600Y-54327800D01*
G75*
G02*
X64408600Y-54187800I140000J0D01*
G01*
X64688600Y-54187800D01*
G75*
G02*
X64828600Y-54327800I0J-140000D01*
G01*
X64828600Y-54667800D01*
G75*
G02*
X64688600Y-54807800I-140000J0D01*
G01*
X64408600Y-54807800D01*
G75*
G02*
X64268600Y-54667800I0J140000D01*
G01*
G37*
G04 #@! TD.AperFunction*
D17*
X73002000Y-58447000D03*
X73042000Y-55767000D03*
G04 #@! TA.AperFunction,SMDPad,CuDef*
G36*
G01*
X56285500Y-53918500D02*
X56285500Y-53578500D01*
G75*
G02*
X56425500Y-53438500I140000J0D01*
G01*
X56705500Y-53438500D01*
G75*
G02*
X56845500Y-53578500I0J-140000D01*
G01*
X56845500Y-53918500D01*
G75*
G02*
X56705500Y-54058500I-140000J0D01*
G01*
X56425500Y-54058500D01*
G75*
G02*
X56285500Y-53918500I0J140000D01*
G01*
G37*
G04 #@! TD.AperFunction*
G04 #@! TA.AperFunction,SMDPad,CuDef*
G36*
G01*
X57245500Y-53918500D02*
X57245500Y-53578500D01*
G75*
G02*
X57385500Y-53438500I140000J0D01*
G01*
X57665500Y-53438500D01*
G75*
G02*
X57805500Y-53578500I0J-140000D01*
G01*
X57805500Y-53918500D01*
G75*
G02*
X57665500Y-54058500I-140000J0D01*
G01*
X57385500Y-54058500D01*
G75*
G02*
X57245500Y-53918500I0J140000D01*
G01*
G37*
G04 #@! TD.AperFunction*
G04 #@! TA.AperFunction,SMDPad,CuDef*
G36*
G01*
X61257000Y-68609500D02*
X61597000Y-68609500D01*
G75*
G02*
X61737000Y-68749500I0J-140000D01*
G01*
X61737000Y-69029500D01*
G75*
G02*
X61597000Y-69169500I-140000J0D01*
G01*
X61257000Y-69169500D01*
G75*
G02*
X61117000Y-69029500I0J140000D01*
G01*
X61117000Y-68749500D01*
G75*
G02*
X61257000Y-68609500I140000J0D01*
G01*
G37*
G04 #@! TD.AperFunction*
G04 #@! TA.AperFunction,SMDPad,CuDef*
G36*
G01*
X61257000Y-69569500D02*
X61597000Y-69569500D01*
G75*
G02*
X61737000Y-69709500I0J-140000D01*
G01*
X61737000Y-69989500D01*
G75*
G02*
X61597000Y-70129500I-140000J0D01*
G01*
X61257000Y-70129500D01*
G75*
G02*
X61117000Y-69989500I0J140000D01*
G01*
X61117000Y-69709500D01*
G75*
G02*
X61257000Y-69569500I140000J0D01*
G01*
G37*
G04 #@! TD.AperFunction*
G04 #@! TA.AperFunction,SMDPad,CuDef*
G36*
G01*
X56659600Y-68749200D02*
X56999600Y-68749200D01*
G75*
G02*
X57139600Y-68889200I0J-140000D01*
G01*
X57139600Y-69169200D01*
G75*
G02*
X56999600Y-69309200I-140000J0D01*
G01*
X56659600Y-69309200D01*
G75*
G02*
X56519600Y-69169200I0J140000D01*
G01*
X56519600Y-68889200D01*
G75*
G02*
X56659600Y-68749200I140000J0D01*
G01*
G37*
G04 #@! TD.AperFunction*
G04 #@! TA.AperFunction,SMDPad,CuDef*
G36*
G01*
X56659600Y-69709200D02*
X56999600Y-69709200D01*
G75*
G02*
X57139600Y-69849200I0J-140000D01*
G01*
X57139600Y-70129200D01*
G75*
G02*
X56999600Y-70269200I-140000J0D01*
G01*
X56659600Y-70269200D01*
G75*
G02*
X56519600Y-70129200I0J140000D01*
G01*
X56519600Y-69849200D01*
G75*
G02*
X56659600Y-69709200I140000J0D01*
G01*
G37*
G04 #@! TD.AperFunction*
D18*
X55775500Y-71025000D03*
D19*
X55775500Y-68925000D03*
G04 #@! TA.AperFunction,SMDPad,CuDef*
G36*
G01*
X62488500Y-76283600D02*
X62143500Y-76283600D01*
G75*
G02*
X61996000Y-76136100I0J147500D01*
G01*
X61996000Y-75841100D01*
G75*
G02*
X62143500Y-75693600I147500J0D01*
G01*
X62488500Y-75693600D01*
G75*
G02*
X62636000Y-75841100I0J-147500D01*
G01*
X62636000Y-76136100D01*
G75*
G02*
X62488500Y-76283600I-147500J0D01*
G01*
G37*
G04 #@! TD.AperFunction*
G04 #@! TA.AperFunction,SMDPad,CuDef*
G36*
G01*
X62488500Y-75313600D02*
X62143500Y-75313600D01*
G75*
G02*
X61996000Y-75166100I0J147500D01*
G01*
X61996000Y-74871100D01*
G75*
G02*
X62143500Y-74723600I147500J0D01*
G01*
X62488500Y-74723600D01*
G75*
G02*
X62636000Y-74871100I0J-147500D01*
G01*
X62636000Y-75166100D01*
G75*
G02*
X62488500Y-75313600I-147500J0D01*
G01*
G37*
G04 #@! TD.AperFunction*
G04 #@! TA.AperFunction,SMDPad,CuDef*
G36*
G01*
X56657100Y-75536400D02*
X57002100Y-75536400D01*
G75*
G02*
X57149600Y-75683900I0J-147500D01*
G01*
X57149600Y-75978900D01*
G75*
G02*
X57002100Y-76126400I-147500J0D01*
G01*
X56657100Y-76126400D01*
G75*
G02*
X56509600Y-75978900I0J147500D01*
G01*
X56509600Y-75683900D01*
G75*
G02*
X56657100Y-75536400I147500J0D01*
G01*
G37*
G04 #@! TD.AperFunction*
G04 #@! TA.AperFunction,SMDPad,CuDef*
G36*
G01*
X56657100Y-76506400D02*
X57002100Y-76506400D01*
G75*
G02*
X57149600Y-76653900I0J-147500D01*
G01*
X57149600Y-76948900D01*
G75*
G02*
X57002100Y-77096400I-147500J0D01*
G01*
X56657100Y-77096400D01*
G75*
G02*
X56509600Y-76948900I0J147500D01*
G01*
X56509600Y-76653900D01*
G75*
G02*
X56657100Y-76506400I147500J0D01*
G01*
G37*
G04 #@! TD.AperFunction*
G04 #@! TA.AperFunction,SMDPad,CuDef*
G36*
G01*
X73305300Y-70797800D02*
X72960300Y-70797800D01*
G75*
G02*
X72812800Y-70650300I0J147500D01*
G01*
X72812800Y-70355300D01*
G75*
G02*
X72960300Y-70207800I147500J0D01*
G01*
X73305300Y-70207800D01*
G75*
G02*
X73452800Y-70355300I0J-147500D01*
G01*
X73452800Y-70650300D01*
G75*
G02*
X73305300Y-70797800I-147500J0D01*
G01*
G37*
G04 #@! TD.AperFunction*
G04 #@! TA.AperFunction,SMDPad,CuDef*
G36*
G01*
X73305300Y-69827800D02*
X72960300Y-69827800D01*
G75*
G02*
X72812800Y-69680300I0J147500D01*
G01*
X72812800Y-69385300D01*
G75*
G02*
X72960300Y-69237800I147500J0D01*
G01*
X73305300Y-69237800D01*
G75*
G02*
X73452800Y-69385300I0J-147500D01*
G01*
X73452800Y-69680300D01*
G75*
G02*
X73305300Y-69827800I-147500J0D01*
G01*
G37*
G04 #@! TD.AperFunction*
G04 #@! TA.AperFunction,SMDPad,CuDef*
G36*
G01*
X72970300Y-71337800D02*
X73315300Y-71337800D01*
G75*
G02*
X73462800Y-71485300I0J-147500D01*
G01*
X73462800Y-71780300D01*
G75*
G02*
X73315300Y-71927800I-147500J0D01*
G01*
X72970300Y-71927800D01*
G75*
G02*
X72822800Y-71780300I0J147500D01*
G01*
X72822800Y-71485300D01*
G75*
G02*
X72970300Y-71337800I147500J0D01*
G01*
G37*
G04 #@! TD.AperFunction*
G04 #@! TA.AperFunction,SMDPad,CuDef*
G36*
G01*
X72970300Y-72307800D02*
X73315300Y-72307800D01*
G75*
G02*
X73462800Y-72455300I0J-147500D01*
G01*
X73462800Y-72750300D01*
G75*
G02*
X73315300Y-72897800I-147500J0D01*
G01*
X72970300Y-72897800D01*
G75*
G02*
X72822800Y-72750300I0J147500D01*
G01*
X72822800Y-72455300D01*
G75*
G02*
X72970300Y-72307800I147500J0D01*
G01*
G37*
G04 #@! TD.AperFunction*
D20*
X60656000Y-75444600D03*
X58456000Y-75444600D03*
X58456000Y-77144600D03*
X60656000Y-77144600D03*
D21*
X71392800Y-69817800D03*
X71392800Y-72317800D03*
G04 #@! TA.AperFunction,ComponentPad*
D22*
G36*
X62218241Y-80863496D02*
G01*
X62219179Y-80863781D01*
X62220044Y-80864243D01*
X62220802Y-80864864D01*
X62221423Y-80865622D01*
X62221885Y-80866487D01*
X62222170Y-80867425D01*
X62222266Y-80868400D01*
X62222266Y-83267933D01*
X68812799Y-83267933D01*
X68813774Y-83268029D01*
X68814712Y-83268314D01*
X68815577Y-83268776D01*
X68816335Y-83269397D01*
X68816956Y-83270155D01*
X68817418Y-83271020D01*
X68817703Y-83271958D01*
X68817799Y-83272933D01*
X68817799Y-85279533D01*
X68817703Y-85280508D01*
X68817418Y-85281446D01*
X68816956Y-85282311D01*
X68816335Y-85283069D01*
X68815577Y-85283690D01*
X68814712Y-85284152D01*
X68813774Y-85284437D01*
X68812799Y-85284533D01*
X62222217Y-85284533D01*
X62224354Y-86479674D01*
X62226490Y-87674836D01*
X65517153Y-87676960D01*
X68812803Y-87679088D01*
X68813779Y-87679185D01*
X68814716Y-87679470D01*
X68815581Y-87679932D01*
X68816338Y-87680555D01*
X68816959Y-87681313D01*
X68817421Y-87682178D01*
X68817705Y-87683116D01*
X68817800Y-87684088D01*
X68817799Y-88683144D01*
X68817799Y-89682200D01*
X68817703Y-89683175D01*
X68817418Y-89684113D01*
X68816956Y-89684978D01*
X68816335Y-89685736D01*
X68815577Y-89686357D01*
X68814712Y-89686819D01*
X68813774Y-89687104D01*
X68812799Y-89687200D01*
X62222266Y-89687200D01*
X62222266Y-92081733D01*
X68812869Y-92081733D01*
X68813844Y-92081829D01*
X68814782Y-92082114D01*
X68815647Y-92082576D01*
X68816405Y-92083197D01*
X68817026Y-92083955D01*
X68817488Y-92084820D01*
X68817773Y-92085758D01*
X68817869Y-92086744D01*
X68815718Y-93087927D01*
X68813566Y-94089110D01*
X68813468Y-94090085D01*
X68813181Y-94091022D01*
X68812717Y-94091886D01*
X68812094Y-94092642D01*
X68811335Y-94093262D01*
X68810469Y-94093722D01*
X68809531Y-94094005D01*
X68808569Y-94094099D01*
X65512919Y-94096227D01*
X62222266Y-94098351D01*
X62222266Y-96484399D01*
X68812799Y-96484399D01*
X68813774Y-96484495D01*
X68814712Y-96484780D01*
X68815577Y-96485242D01*
X68816335Y-96485863D01*
X68816956Y-96486621D01*
X68817418Y-96487486D01*
X68817703Y-96488424D01*
X68817799Y-96489399D01*
X68817799Y-98496000D01*
X68817703Y-98496975D01*
X68817418Y-98497913D01*
X68816956Y-98498778D01*
X68816335Y-98499536D01*
X68815577Y-98500157D01*
X68814712Y-98500619D01*
X68813774Y-98500904D01*
X68812799Y-98501000D01*
X62222266Y-98501000D01*
X62222266Y-100895533D01*
X68812799Y-100895533D01*
X68813774Y-100895629D01*
X68814712Y-100895914D01*
X68815577Y-100896376D01*
X68816335Y-100896997D01*
X68816956Y-100897755D01*
X68817418Y-100898620D01*
X68817703Y-100899558D01*
X68817799Y-100900533D01*
X68817799Y-101899589D01*
X68817800Y-102898645D01*
X68817704Y-102899620D01*
X68817419Y-102900558D01*
X68816957Y-102901423D01*
X68816336Y-102902181D01*
X68815578Y-102902802D01*
X68814713Y-102903264D01*
X68813775Y-102903549D01*
X68812803Y-102903645D01*
X65517153Y-102905772D01*
X62226490Y-102907897D01*
X62224354Y-104103059D01*
X62222217Y-105298200D01*
X68812799Y-105298200D01*
X68813774Y-105298296D01*
X68814712Y-105298581D01*
X68815577Y-105299043D01*
X68816335Y-105299664D01*
X68816956Y-105300422D01*
X68817418Y-105301287D01*
X68817703Y-105302225D01*
X68817799Y-105303200D01*
X68817799Y-107309799D01*
X68817703Y-107310774D01*
X68817418Y-107311712D01*
X68816956Y-107312577D01*
X68816335Y-107313335D01*
X68815577Y-107313956D01*
X68814712Y-107314418D01*
X68813774Y-107314703D01*
X68812799Y-107314799D01*
X62222266Y-107314799D01*
X62222266Y-109709333D01*
X68812799Y-109709333D01*
X68813774Y-109709429D01*
X68814712Y-109709714D01*
X68815577Y-109710176D01*
X68816335Y-109710797D01*
X68816956Y-109711555D01*
X68817418Y-109712420D01*
X68817703Y-109713358D01*
X68817799Y-109714333D01*
X68817799Y-111712466D01*
X68817703Y-111713441D01*
X68817418Y-111714379D01*
X68816956Y-111715244D01*
X68816335Y-111716002D01*
X68815577Y-111716623D01*
X68814712Y-111717085D01*
X68813774Y-111717370D01*
X68812799Y-111717466D01*
X62222266Y-111717466D01*
X62222266Y-114111999D01*
X68812799Y-114111999D01*
X68813774Y-114112095D01*
X68814712Y-114112380D01*
X68815577Y-114112842D01*
X68816335Y-114113463D01*
X68816956Y-114114221D01*
X68817418Y-114115086D01*
X68817703Y-114116024D01*
X68817799Y-114116999D01*
X68817799Y-116123600D01*
X68817703Y-116124575D01*
X68817418Y-116125513D01*
X68816956Y-116126378D01*
X68816335Y-116127136D01*
X68815577Y-116127757D01*
X68814712Y-116128219D01*
X68813774Y-116128504D01*
X68812799Y-116128600D01*
X62222266Y-116128600D01*
X62222266Y-118523133D01*
X68812799Y-118523133D01*
X68813774Y-118523229D01*
X68814712Y-118523514D01*
X68815577Y-118523976D01*
X68816335Y-118524597D01*
X68816956Y-118525355D01*
X68817418Y-118526220D01*
X68817703Y-118527158D01*
X68817799Y-118528133D01*
X68817799Y-120526266D01*
X68817703Y-120527241D01*
X68817418Y-120528179D01*
X68816956Y-120529044D01*
X68816335Y-120529802D01*
X68815577Y-120530423D01*
X68814712Y-120530885D01*
X68813774Y-120531170D01*
X68812799Y-120531266D01*
X62222266Y-120531266D01*
X62222266Y-122925800D01*
X68812799Y-122925800D01*
X68813774Y-122925896D01*
X68814712Y-122926181D01*
X68815577Y-122926643D01*
X68816335Y-122927264D01*
X68816956Y-122928022D01*
X68817418Y-122928887D01*
X68817703Y-122929825D01*
X68817799Y-122930800D01*
X68817799Y-124937400D01*
X68817703Y-124938375D01*
X68817418Y-124939313D01*
X68816956Y-124940178D01*
X68816335Y-124940936D01*
X68815577Y-124941557D01*
X68814712Y-124942019D01*
X68813774Y-124942304D01*
X68812799Y-124942400D01*
X62222266Y-124942400D01*
X62222266Y-127336933D01*
X68812799Y-127336933D01*
X68813774Y-127337029D01*
X68814712Y-127337314D01*
X68815577Y-127337776D01*
X68816335Y-127338397D01*
X68816956Y-127339155D01*
X68817418Y-127340020D01*
X68817703Y-127340958D01*
X68817799Y-127341933D01*
X68817799Y-129340066D01*
X68817703Y-129341041D01*
X68817418Y-129341979D01*
X68816956Y-129342844D01*
X68816335Y-129343602D01*
X68815577Y-129344223D01*
X68814712Y-129344685D01*
X68813774Y-129344970D01*
X68812799Y-129345066D01*
X61218200Y-129345066D01*
X61217225Y-129344970D01*
X61216287Y-129344685D01*
X61215422Y-129344223D01*
X61214664Y-129343602D01*
X61214043Y-129342844D01*
X61213581Y-129341979D01*
X61213296Y-129341041D01*
X61213200Y-129340066D01*
X61213200Y-80868400D01*
X61213296Y-80867425D01*
X61213581Y-80866487D01*
X61214043Y-80865622D01*
X61214664Y-80864864D01*
X61215422Y-80864243D01*
X61216287Y-80863781D01*
X61217225Y-80863496D01*
X61218200Y-80863400D01*
X62217266Y-80863400D01*
X62218241Y-80863496D01*
G37*
G04 #@! TD.AperFunction*
G04 #@! TA.AperFunction,ComponentPad*
G36*
X70219241Y-80863496D02*
G01*
X70220179Y-80863781D01*
X70221044Y-80864243D01*
X70221802Y-80864864D01*
X70222423Y-80865622D01*
X70222885Y-80866487D01*
X70223170Y-80867425D01*
X70223266Y-80868400D01*
X70223266Y-129340066D01*
X70223170Y-129341041D01*
X70222885Y-129341979D01*
X70222423Y-129342844D01*
X70221802Y-129343602D01*
X70221044Y-129344223D01*
X70220179Y-129344685D01*
X70219241Y-129344970D01*
X70218266Y-129345066D01*
X69219199Y-129345066D01*
X69218224Y-129344970D01*
X69217286Y-129344685D01*
X69216421Y-129344223D01*
X69215663Y-129343602D01*
X69215042Y-129342844D01*
X69214580Y-129341979D01*
X69214295Y-129341041D01*
X69214199Y-129340066D01*
X69214199Y-127143733D01*
X62623666Y-127143733D01*
X62622691Y-127143637D01*
X62621753Y-127143352D01*
X62620888Y-127142890D01*
X62620130Y-127142269D01*
X62619509Y-127141511D01*
X62619047Y-127140646D01*
X62618762Y-127139708D01*
X62618666Y-127138733D01*
X62618666Y-125132133D01*
X62618762Y-125131158D01*
X62619047Y-125130220D01*
X62619509Y-125129355D01*
X62620130Y-125128597D01*
X62620888Y-125127976D01*
X62621753Y-125127514D01*
X62622691Y-125127229D01*
X62623666Y-125127133D01*
X69214249Y-125127133D01*
X69209975Y-122736830D01*
X65919313Y-122734705D01*
X62623663Y-122732578D01*
X62622687Y-122732481D01*
X62621750Y-122732196D01*
X62620885Y-122731734D01*
X62620128Y-122731111D01*
X62619507Y-122730353D01*
X62619045Y-122729488D01*
X62618761Y-122728550D01*
X62618666Y-122727578D01*
X62618666Y-120729466D01*
X62618762Y-120728491D01*
X62619047Y-120727553D01*
X62619509Y-120726688D01*
X62620130Y-120725930D01*
X62620888Y-120725309D01*
X62621753Y-120724847D01*
X62622691Y-120724562D01*
X62623666Y-120724466D01*
X69214199Y-120724466D01*
X69214199Y-118329933D01*
X62623597Y-118329933D01*
X62622622Y-118329837D01*
X62621684Y-118329552D01*
X62620819Y-118329090D01*
X62620061Y-118328469D01*
X62619440Y-118327711D01*
X62618978Y-118326846D01*
X62618693Y-118325908D01*
X62618597Y-118324922D01*
X62620748Y-117323739D01*
X62622900Y-116322555D01*
X62622998Y-116321580D01*
X62623285Y-116320643D01*
X62623749Y-116319779D01*
X62624372Y-116319023D01*
X62625131Y-116318403D01*
X62625997Y-116317943D01*
X62626935Y-116317660D01*
X62627897Y-116317566D01*
X65923547Y-116315439D01*
X69214199Y-116313314D01*
X69214199Y-113927266D01*
X62623666Y-113927266D01*
X62622691Y-113927170D01*
X62621753Y-113926885D01*
X62620888Y-113926423D01*
X62620130Y-113925802D01*
X62619509Y-113925044D01*
X62619047Y-113924179D01*
X62618762Y-113923241D01*
X62618666Y-113922266D01*
X62618666Y-111915666D01*
X62618762Y-111914691D01*
X62619047Y-111913753D01*
X62619509Y-111912888D01*
X62620130Y-111912130D01*
X62620888Y-111911509D01*
X62621753Y-111911047D01*
X62622691Y-111910762D01*
X62623666Y-111910666D01*
X69214199Y-111910666D01*
X69214199Y-109516133D01*
X62623666Y-109516133D01*
X62622691Y-109516037D01*
X62621753Y-109515752D01*
X62620888Y-109515290D01*
X62620130Y-109514669D01*
X62619509Y-109513911D01*
X62619047Y-109513046D01*
X62618762Y-109512108D01*
X62618666Y-109511133D01*
X62618666Y-107513021D01*
X62618762Y-107512046D01*
X62619047Y-107511108D01*
X62619509Y-107510243D01*
X62620130Y-107509485D01*
X62620888Y-107508864D01*
X62621753Y-107508402D01*
X62622691Y-107508117D01*
X62623663Y-107508021D01*
X65919313Y-107505894D01*
X69209975Y-107503769D01*
X69214249Y-105113466D01*
X62623666Y-105113466D01*
X62622691Y-105113370D01*
X62621753Y-105113085D01*
X62620888Y-105112623D01*
X62620130Y-105112002D01*
X62619509Y-105111244D01*
X62619047Y-105110379D01*
X62618762Y-105109441D01*
X62618666Y-105108466D01*
X62618666Y-103101866D01*
X62618762Y-103100891D01*
X62619047Y-103099953D01*
X62619509Y-103099088D01*
X62620130Y-103098330D01*
X62620888Y-103097709D01*
X62621753Y-103097247D01*
X62622691Y-103096962D01*
X62623666Y-103096866D01*
X69214199Y-103096866D01*
X69214199Y-100702333D01*
X62623666Y-100702333D01*
X62622691Y-100702237D01*
X62621753Y-100701952D01*
X62620888Y-100701490D01*
X62620130Y-100700869D01*
X62619509Y-100700111D01*
X62619047Y-100699246D01*
X62618762Y-100698308D01*
X62618666Y-100697333D01*
X62618666Y-98699200D01*
X62618762Y-98698225D01*
X62619047Y-98697287D01*
X62619509Y-98696422D01*
X62620130Y-98695664D01*
X62620888Y-98695043D01*
X62621753Y-98694581D01*
X62622691Y-98694296D01*
X62623666Y-98694200D01*
X69214199Y-98694200D01*
X69214199Y-96299666D01*
X62623666Y-96299666D01*
X62622691Y-96299570D01*
X62621753Y-96299285D01*
X62620888Y-96298823D01*
X62620130Y-96298202D01*
X62619509Y-96297444D01*
X62619047Y-96296579D01*
X62618762Y-96295641D01*
X62618666Y-96294666D01*
X62618666Y-94288066D01*
X62618762Y-94287091D01*
X62619047Y-94286153D01*
X62619509Y-94285288D01*
X62620130Y-94284530D01*
X62620888Y-94283909D01*
X62621753Y-94283447D01*
X62622691Y-94283162D01*
X62623666Y-94283066D01*
X69214199Y-94283066D01*
X69214199Y-91888533D01*
X62623666Y-91888533D01*
X62622691Y-91888437D01*
X62621753Y-91888152D01*
X62620888Y-91887690D01*
X62620130Y-91887069D01*
X62619509Y-91886311D01*
X62619047Y-91885446D01*
X62618762Y-91884508D01*
X62618666Y-91883533D01*
X62618666Y-89885400D01*
X62618762Y-89884425D01*
X62619047Y-89883487D01*
X62619509Y-89882622D01*
X62620130Y-89881864D01*
X62620888Y-89881243D01*
X62621753Y-89880781D01*
X62622691Y-89880496D01*
X62623666Y-89880400D01*
X69214199Y-89880400D01*
X69214199Y-87485866D01*
X62623666Y-87485866D01*
X62622691Y-87485770D01*
X62621753Y-87485485D01*
X62620888Y-87485023D01*
X62620130Y-87484402D01*
X62619509Y-87483644D01*
X62619047Y-87482779D01*
X62618762Y-87481841D01*
X62618666Y-87480866D01*
X62618666Y-85474266D01*
X62618762Y-85473291D01*
X62619047Y-85472353D01*
X62619509Y-85471488D01*
X62620130Y-85470730D01*
X62620888Y-85470109D01*
X62621753Y-85469647D01*
X62622691Y-85469362D01*
X62623666Y-85469266D01*
X69214199Y-85469266D01*
X69214199Y-83074733D01*
X62623666Y-83074733D01*
X62622691Y-83074637D01*
X62621753Y-83074352D01*
X62620888Y-83073890D01*
X62620130Y-83073269D01*
X62619509Y-83072511D01*
X62619047Y-83071646D01*
X62618762Y-83070708D01*
X62618666Y-83069733D01*
X62618666Y-81071600D01*
X62618762Y-81070625D01*
X62619047Y-81069687D01*
X62619509Y-81068822D01*
X62620130Y-81068064D01*
X62620888Y-81067443D01*
X62621753Y-81066981D01*
X62622691Y-81066696D01*
X62623666Y-81066600D01*
X69214199Y-81066600D01*
X69214199Y-80868400D01*
X69214295Y-80867425D01*
X69214580Y-80866487D01*
X69215042Y-80865622D01*
X69215663Y-80864864D01*
X69216421Y-80864243D01*
X69217286Y-80863781D01*
X69218224Y-80863496D01*
X69219199Y-80863400D01*
X70218266Y-80863400D01*
X70219241Y-80863496D01*
G37*
G04 #@! TD.AperFunction*
G04 #@! TA.AperFunction,SMDPad,CuDef*
G36*
G01*
X69905300Y-74962800D02*
X69560300Y-74962800D01*
G75*
G02*
X69412800Y-74815300I0J147500D01*
G01*
X69412800Y-74520300D01*
G75*
G02*
X69560300Y-74372800I147500J0D01*
G01*
X69905300Y-74372800D01*
G75*
G02*
X70052800Y-74520300I0J-147500D01*
G01*
X70052800Y-74815300D01*
G75*
G02*
X69905300Y-74962800I-147500J0D01*
G01*
G37*
G04 #@! TD.AperFunction*
G04 #@! TA.AperFunction,SMDPad,CuDef*
G36*
G01*
X69905300Y-73992800D02*
X69560300Y-73992800D01*
G75*
G02*
X69412800Y-73845300I0J147500D01*
G01*
X69412800Y-73550300D01*
G75*
G02*
X69560300Y-73402800I147500J0D01*
G01*
X69905300Y-73402800D01*
G75*
G02*
X70052800Y-73550300I0J-147500D01*
G01*
X70052800Y-73845300D01*
G75*
G02*
X69905300Y-73992800I-147500J0D01*
G01*
G37*
G04 #@! TD.AperFunction*
G04 #@! TA.AperFunction,SMDPad,CuDef*
G36*
G01*
X69852400Y-75839100D02*
X69852400Y-76184100D01*
G75*
G02*
X69704900Y-76331600I-147500J0D01*
G01*
X69409900Y-76331600D01*
G75*
G02*
X69262400Y-76184100I0J147500D01*
G01*
X69262400Y-75839100D01*
G75*
G02*
X69409900Y-75691600I147500J0D01*
G01*
X69704900Y-75691600D01*
G75*
G02*
X69852400Y-75839100I0J-147500D01*
G01*
G37*
G04 #@! TD.AperFunction*
G04 #@! TA.AperFunction,SMDPad,CuDef*
G36*
G01*
X68882400Y-75839100D02*
X68882400Y-76184100D01*
G75*
G02*
X68734900Y-76331600I-147500J0D01*
G01*
X68439900Y-76331600D01*
G75*
G02*
X68292400Y-76184100I0J147500D01*
G01*
X68292400Y-75839100D01*
G75*
G02*
X68439900Y-75691600I147500J0D01*
G01*
X68734900Y-75691600D01*
G75*
G02*
X68882400Y-75839100I0J-147500D01*
G01*
G37*
G04 #@! TD.AperFunction*
G04 #@! TA.AperFunction,SMDPad,CuDef*
G36*
G01*
X67344250Y-76573000D02*
X66431750Y-76573000D01*
G75*
G02*
X66188000Y-76329250I0J243750D01*
G01*
X66188000Y-75841750D01*
G75*
G02*
X66431750Y-75598000I243750J0D01*
G01*
X67344250Y-75598000D01*
G75*
G02*
X67588000Y-75841750I0J-243750D01*
G01*
X67588000Y-76329250D01*
G75*
G02*
X67344250Y-76573000I-243750J0D01*
G01*
G37*
G04 #@! TD.AperFunction*
G04 #@! TA.AperFunction,SMDPad,CuDef*
G36*
G01*
X67344250Y-74698000D02*
X66431750Y-74698000D01*
G75*
G02*
X66188000Y-74454250I0J243750D01*
G01*
X66188000Y-73966750D01*
G75*
G02*
X66431750Y-73723000I243750J0D01*
G01*
X67344250Y-73723000D01*
G75*
G02*
X67588000Y-73966750I0J-243750D01*
G01*
X67588000Y-74454250D01*
G75*
G02*
X67344250Y-74698000I-243750J0D01*
G01*
G37*
G04 #@! TD.AperFunction*
D23*
X58839500Y-50957000D03*
X58839500Y-52857000D03*
X60839500Y-51907000D03*
G04 #@! TA.AperFunction,SMDPad,CuDef*
G36*
G01*
X71746800Y-60232900D02*
X71746800Y-59887900D01*
G75*
G02*
X71894300Y-59740400I147500J0D01*
G01*
X72189300Y-59740400D01*
G75*
G02*
X72336800Y-59887900I0J-147500D01*
G01*
X72336800Y-60232900D01*
G75*
G02*
X72189300Y-60380400I-147500J0D01*
G01*
X71894300Y-60380400D01*
G75*
G02*
X71746800Y-60232900I0J147500D01*
G01*
G37*
G04 #@! TD.AperFunction*
G04 #@! TA.AperFunction,SMDPad,CuDef*
G36*
G01*
X72716800Y-60232900D02*
X72716800Y-59887900D01*
G75*
G02*
X72864300Y-59740400I147500J0D01*
G01*
X73159300Y-59740400D01*
G75*
G02*
X73306800Y-59887900I0J-147500D01*
G01*
X73306800Y-60232900D01*
G75*
G02*
X73159300Y-60380400I-147500J0D01*
G01*
X72864300Y-60380400D01*
G75*
G02*
X72716800Y-60232900I0J147500D01*
G01*
G37*
G04 #@! TD.AperFunction*
G04 #@! TA.AperFunction,SMDPad,CuDef*
G36*
G01*
X71797600Y-54187700D02*
X71797600Y-53842700D01*
G75*
G02*
X71945100Y-53695200I147500J0D01*
G01*
X72240100Y-53695200D01*
G75*
G02*
X72387600Y-53842700I0J-147500D01*
G01*
X72387600Y-54187700D01*
G75*
G02*
X72240100Y-54335200I-147500J0D01*
G01*
X71945100Y-54335200D01*
G75*
G02*
X71797600Y-54187700I0J147500D01*
G01*
G37*
G04 #@! TD.AperFunction*
G04 #@! TA.AperFunction,SMDPad,CuDef*
G36*
G01*
X72767600Y-54187700D02*
X72767600Y-53842700D01*
G75*
G02*
X72915100Y-53695200I147500J0D01*
G01*
X73210100Y-53695200D01*
G75*
G02*
X73357600Y-53842700I0J-147500D01*
G01*
X73357600Y-54187700D01*
G75*
G02*
X73210100Y-54335200I-147500J0D01*
G01*
X72915100Y-54335200D01*
G75*
G02*
X72767600Y-54187700I0J147500D01*
G01*
G37*
G04 #@! TD.AperFunction*
G04 #@! TA.AperFunction,SMDPad,CuDef*
G36*
G01*
X66311600Y-55917300D02*
X66311600Y-55742300D01*
G75*
G02*
X66399100Y-55654800I87500J0D01*
G01*
X66774100Y-55654800D01*
G75*
G02*
X66861600Y-55742300I0J-87500D01*
G01*
X66861600Y-55917300D01*
G75*
G02*
X66774100Y-56004800I-87500J0D01*
G01*
X66399100Y-56004800D01*
G75*
G02*
X66311600Y-55917300I0J87500D01*
G01*
G37*
G04 #@! TD.AperFunction*
G04 #@! TA.AperFunction,SMDPad,CuDef*
G36*
G01*
X66311600Y-56917300D02*
X66311600Y-56742300D01*
G75*
G02*
X66399100Y-56654800I87500J0D01*
G01*
X66774100Y-56654800D01*
G75*
G02*
X66861600Y-56742300I0J-87500D01*
G01*
X66861600Y-56917300D01*
G75*
G02*
X66774100Y-57004800I-87500J0D01*
G01*
X66399100Y-57004800D01*
G75*
G02*
X66311600Y-56917300I0J87500D01*
G01*
G37*
G04 #@! TD.AperFunction*
G04 #@! TA.AperFunction,SMDPad,CuDef*
G36*
G01*
X68161600Y-56917300D02*
X68161600Y-56742300D01*
G75*
G02*
X68249100Y-56654800I87500J0D01*
G01*
X68624100Y-56654800D01*
G75*
G02*
X68711600Y-56742300I0J-87500D01*
G01*
X68711600Y-56917300D01*
G75*
G02*
X68624100Y-57004800I-87500J0D01*
G01*
X68249100Y-57004800D01*
G75*
G02*
X68161600Y-56917300I0J87500D01*
G01*
G37*
G04 #@! TD.AperFunction*
G04 #@! TA.AperFunction,SMDPad,CuDef*
G36*
G01*
X68161600Y-55917300D02*
X68161600Y-55742300D01*
G75*
G02*
X68249100Y-55654800I87500J0D01*
G01*
X68624100Y-55654800D01*
G75*
G02*
X68711600Y-55742300I0J-87500D01*
G01*
X68711600Y-55917300D01*
G75*
G02*
X68624100Y-56004800I-87500J0D01*
G01*
X68249100Y-56004800D01*
G75*
G02*
X68161600Y-55917300I0J87500D01*
G01*
G37*
G04 #@! TD.AperFunction*
G04 #@! TA.AperFunction,SMDPad,CuDef*
G36*
G01*
X67161600Y-56954800D02*
X67161600Y-55704800D01*
G75*
G02*
X67336600Y-55529800I175000J0D01*
G01*
X67686600Y-55529800D01*
G75*
G02*
X67861600Y-55704800I0J-175000D01*
G01*
X67861600Y-56954800D01*
G75*
G02*
X67686600Y-57129800I-175000J0D01*
G01*
X67336600Y-57129800D01*
G75*
G02*
X67161600Y-56954800I0J175000D01*
G01*
G37*
G04 #@! TD.AperFunction*
G04 #@! TA.AperFunction,SMDPad,CuDef*
G36*
G01*
X67071600Y-58178550D02*
X67071600Y-58691050D01*
G75*
G02*
X66852850Y-58909800I-218750J0D01*
G01*
X66415350Y-58909800D01*
G75*
G02*
X66196600Y-58691050I0J218750D01*
G01*
X66196600Y-58178550D01*
G75*
G02*
X66415350Y-57959800I218750J0D01*
G01*
X66852850Y-57959800D01*
G75*
G02*
X67071600Y-58178550I0J-218750D01*
G01*
G37*
G04 #@! TD.AperFunction*
G04 #@! TA.AperFunction,SMDPad,CuDef*
G36*
G01*
X65496600Y-58178550D02*
X65496600Y-58691050D01*
G75*
G02*
X65277850Y-58909800I-218750J0D01*
G01*
X64840350Y-58909800D01*
G75*
G02*
X64621600Y-58691050I0J218750D01*
G01*
X64621600Y-58178550D01*
G75*
G02*
X64840350Y-57959800I218750J0D01*
G01*
X65277850Y-57959800D01*
G75*
G02*
X65496600Y-58178550I0J-218750D01*
G01*
G37*
G04 #@! TD.AperFunction*
G04 #@! TA.AperFunction,SMDPad,CuDef*
G36*
G01*
X65547100Y-62023600D02*
X65892100Y-62023600D01*
G75*
G02*
X66039600Y-62171100I0J-147500D01*
G01*
X66039600Y-62466100D01*
G75*
G02*
X65892100Y-62613600I-147500J0D01*
G01*
X65547100Y-62613600D01*
G75*
G02*
X65399600Y-62466100I0J147500D01*
G01*
X65399600Y-62171100D01*
G75*
G02*
X65547100Y-62023600I147500J0D01*
G01*
G37*
G04 #@! TD.AperFunction*
G04 #@! TA.AperFunction,SMDPad,CuDef*
G36*
G01*
X65547100Y-62993600D02*
X65892100Y-62993600D01*
G75*
G02*
X66039600Y-63141100I0J-147500D01*
G01*
X66039600Y-63436100D01*
G75*
G02*
X65892100Y-63583600I-147500J0D01*
G01*
X65547100Y-63583600D01*
G75*
G02*
X65399600Y-63436100I0J147500D01*
G01*
X65399600Y-63141100D01*
G75*
G02*
X65547100Y-62993600I147500J0D01*
G01*
G37*
G04 #@! TD.AperFunction*
G04 #@! TA.AperFunction,SMDPad,CuDef*
G36*
G01*
X66654100Y-54606800D02*
X66654100Y-54261800D01*
G75*
G02*
X66801600Y-54114300I147500J0D01*
G01*
X67096600Y-54114300D01*
G75*
G02*
X67244100Y-54261800I0J-147500D01*
G01*
X67244100Y-54606800D01*
G75*
G02*
X67096600Y-54754300I-147500J0D01*
G01*
X66801600Y-54754300D01*
G75*
G02*
X66654100Y-54606800I0J147500D01*
G01*
G37*
G04 #@! TD.AperFunction*
G04 #@! TA.AperFunction,SMDPad,CuDef*
G36*
G01*
X67624100Y-54606800D02*
X67624100Y-54261800D01*
G75*
G02*
X67771600Y-54114300I147500J0D01*
G01*
X68066600Y-54114300D01*
G75*
G02*
X68214100Y-54261800I0J-147500D01*
G01*
X68214100Y-54606800D01*
G75*
G02*
X68066600Y-54754300I-147500J0D01*
G01*
X67771600Y-54754300D01*
G75*
G02*
X67624100Y-54606800I0J147500D01*
G01*
G37*
G04 #@! TD.AperFunction*
G04 #@! TA.AperFunction,SMDPad,CuDef*
G36*
G01*
X61330700Y-72640800D02*
X61675700Y-72640800D01*
G75*
G02*
X61823200Y-72788300I0J-147500D01*
G01*
X61823200Y-73083300D01*
G75*
G02*
X61675700Y-73230800I-147500J0D01*
G01*
X61330700Y-73230800D01*
G75*
G02*
X61183200Y-73083300I0J147500D01*
G01*
X61183200Y-72788300D01*
G75*
G02*
X61330700Y-72640800I147500J0D01*
G01*
G37*
G04 #@! TD.AperFunction*
G04 #@! TA.AperFunction,SMDPad,CuDef*
G36*
G01*
X61330700Y-73610800D02*
X61675700Y-73610800D01*
G75*
G02*
X61823200Y-73758300I0J-147500D01*
G01*
X61823200Y-74053300D01*
G75*
G02*
X61675700Y-74200800I-147500J0D01*
G01*
X61330700Y-74200800D01*
G75*
G02*
X61183200Y-74053300I0J147500D01*
G01*
X61183200Y-73758300D01*
G75*
G02*
X61330700Y-73610800I147500J0D01*
G01*
G37*
G04 #@! TD.AperFunction*
G04 #@! TA.AperFunction,SMDPad,CuDef*
G36*
G01*
X68442700Y-74423600D02*
X68787700Y-74423600D01*
G75*
G02*
X68935200Y-74571100I0J-147500D01*
G01*
X68935200Y-74866100D01*
G75*
G02*
X68787700Y-75013600I-147500J0D01*
G01*
X68442700Y-75013600D01*
G75*
G02*
X68295200Y-74866100I0J147500D01*
G01*
X68295200Y-74571100D01*
G75*
G02*
X68442700Y-74423600I147500J0D01*
G01*
G37*
G04 #@! TD.AperFunction*
G04 #@! TA.AperFunction,SMDPad,CuDef*
G36*
G01*
X68442700Y-73453600D02*
X68787700Y-73453600D01*
G75*
G02*
X68935200Y-73601100I0J-147500D01*
G01*
X68935200Y-73896100D01*
G75*
G02*
X68787700Y-74043600I-147500J0D01*
G01*
X68442700Y-74043600D01*
G75*
G02*
X68295200Y-73896100I0J147500D01*
G01*
X68295200Y-73601100D01*
G75*
G02*
X68442700Y-73453600I147500J0D01*
G01*
G37*
G04 #@! TD.AperFunction*
D24*
X63141600Y-55679800D03*
X63141600Y-56329800D03*
X63141600Y-56979800D03*
X65241600Y-56979800D03*
X65241600Y-56329800D03*
X65241600Y-55679800D03*
D25*
X64191600Y-56329800D03*
D26*
X64144800Y-79415200D03*
X64144800Y-78348400D03*
X63738400Y-76570400D03*
X68716800Y-72912800D03*
X70748800Y-73573200D03*
X68361200Y-77027600D03*
X71663200Y-58942800D03*
X74609600Y-58892000D03*
X65618000Y-49798800D03*
X65770400Y-54675600D03*
X69478800Y-56809200D03*
X60131600Y-53151600D03*
X57744000Y-52084800D03*
X57490000Y-54777200D03*
X56931200Y-67883600D03*
X59572800Y-67934400D03*
X56067600Y-67121600D03*
X60182400Y-67121600D03*
X59725200Y-70017200D03*
X57947200Y-70017200D03*
X56067600Y-72252400D03*
X56067600Y-73166800D03*
X56880400Y-74944800D03*
X62316000Y-76926000D03*
X76336800Y-61127200D03*
X76438400Y-67578800D03*
X64551200Y-53507200D03*
X67904000Y-53507200D03*
X67751600Y-58434800D03*
X70647200Y-74690800D03*
X67802400Y-75046400D03*
X70444000Y-76011600D03*
X74101600Y-71084000D03*
X62316000Y-74030400D03*
X65973600Y-56352000D03*
X66075200Y-59755600D03*
X59826800Y-59501602D03*
D27*
X56933800Y-68925000D02*
X56829600Y-69029200D01*
D28*
X59268000Y-68925000D02*
X56783800Y-68925000D01*
D29*
X56725400Y-68925000D02*
X55988210Y-68925000D01*
D30*
X56829600Y-69029200D02*
X56725400Y-68925000D01*
D27*
X63738400Y-74070598D02*
X63738400Y-76570400D01*
D30*
X63141600Y-54944800D02*
X63588600Y-54497800D01*
X63141600Y-55679800D02*
X63141600Y-54944800D01*
X63588600Y-54497800D02*
X63588600Y-52849400D01*
X66586600Y-54796800D02*
X66949100Y-54434300D01*
X66586600Y-55829800D02*
X66586600Y-54796800D01*
X66949100Y-54434300D02*
X66949100Y-52755500D01*
X67875500Y-73008900D02*
X68615200Y-73748600D01*
X67875500Y-72377000D02*
X67875500Y-73008900D01*
D31*
X68615200Y-73014400D02*
X68716800Y-72912800D01*
X68615200Y-73748600D02*
X68615200Y-73014400D01*
D30*
X68987000Y-69627000D02*
X69003200Y-69610800D01*
X68625500Y-69627000D02*
X68987000Y-69627000D01*
X68625500Y-69627000D02*
X69444200Y-69627000D01*
D27*
X72041800Y-59321400D02*
X71663200Y-58942800D01*
X72041800Y-60060400D02*
X72041800Y-59321400D01*
X63738400Y-76570400D02*
X63738400Y-74132000D01*
X62542200Y-72935800D02*
X61503200Y-72935800D01*
X63738400Y-74132000D02*
X62542200Y-72935800D01*
X62586590Y-71677010D02*
X62725500Y-71677010D01*
X61503200Y-72760400D02*
X62586590Y-71677010D01*
X61503200Y-72935800D02*
X61503200Y-72760400D01*
D31*
X62947700Y-49798800D02*
X60839500Y-51907000D01*
X65618000Y-49798800D02*
X62947700Y-49798800D01*
D30*
X61602200Y-67627000D02*
X59826800Y-65851600D01*
X62725500Y-67627000D02*
X61602200Y-67627000D01*
X60436400Y-64581600D02*
X59826800Y-64581600D01*
X61249200Y-65394400D02*
X60436400Y-64581600D01*
X61249200Y-66775618D02*
X61249200Y-65394400D01*
X62714800Y-67223200D02*
X61696782Y-67223200D01*
X62718600Y-67227000D02*
X62714800Y-67223200D01*
X61696782Y-67223200D02*
X61249200Y-66775618D01*
X62725500Y-67227000D02*
X62718600Y-67227000D01*
X65241600Y-55204400D02*
X65770400Y-54675600D01*
X65241600Y-55679800D02*
X65241600Y-55204400D01*
X68457200Y-56809200D02*
X68436600Y-56829800D01*
X69478800Y-56809200D02*
X68457200Y-56809200D01*
X71999800Y-56809200D02*
X73042000Y-55767000D01*
X69478800Y-56809200D02*
X71999800Y-56809200D01*
X73042000Y-54035800D02*
X73062600Y-54015200D01*
X73042000Y-55767000D02*
X73042000Y-54035800D01*
X73778201Y-56503201D02*
X73042000Y-55767000D01*
X73778201Y-60213217D02*
X73778201Y-56503201D01*
X68800218Y-65191200D02*
X73778201Y-60213217D01*
X67853200Y-65191200D02*
X68800218Y-65191200D01*
X67499290Y-65545110D02*
X67853200Y-65191200D01*
X67499290Y-66459510D02*
X67499290Y-65545110D01*
X67481800Y-66477000D02*
X67499290Y-66459510D01*
X67475500Y-66477000D02*
X67481800Y-66477000D01*
X66436600Y-56979800D02*
X66586600Y-56829800D01*
X65241600Y-56979800D02*
X66436600Y-56979800D01*
X72024600Y-57469600D02*
X73002000Y-58447000D01*
X67051400Y-57469600D02*
X72024600Y-57469600D01*
X66586600Y-57004800D02*
X67051400Y-57469600D01*
X66586600Y-56829800D02*
X66586600Y-57004800D01*
X73011800Y-58456800D02*
X73002000Y-58447000D01*
X73011800Y-60060400D02*
X73011800Y-58456800D01*
X67075500Y-66477000D02*
X67075500Y-65308500D01*
X67075500Y-65308500D02*
X69123200Y-63260800D01*
X69811400Y-63260800D02*
X73011800Y-60060400D01*
X69123200Y-63260800D02*
X69811400Y-63260800D01*
D31*
X57948000Y-53748500D02*
X58839500Y-52857000D01*
X57525500Y-53748500D02*
X57948000Y-53748500D01*
X59837000Y-52857000D02*
X60131600Y-53151600D01*
X58839500Y-52857000D02*
X59837000Y-52857000D01*
X58516200Y-52857000D02*
X57744000Y-52084800D01*
X58839500Y-52857000D02*
X58516200Y-52857000D01*
X57525500Y-54741700D02*
X57490000Y-54777200D01*
X57525500Y-53748500D02*
X57525500Y-54741700D01*
D30*
X65475500Y-69627000D02*
X65675500Y-69427000D01*
X62725500Y-69627000D02*
X65475500Y-69627000D01*
X66675500Y-70427000D02*
X65675500Y-69427000D01*
X66675500Y-72377000D02*
X66675500Y-70427000D01*
X61649500Y-69627000D02*
X62725500Y-69627000D01*
X61427000Y-69849500D02*
X61649500Y-69627000D01*
X56829600Y-74995600D02*
X56880400Y-74944800D01*
X56829600Y-75831400D02*
X56829600Y-74995600D01*
X62316000Y-75988600D02*
X62316000Y-76926000D01*
D27*
X76314000Y-61150000D02*
X76336800Y-61127200D01*
X76314000Y-62244800D02*
X76314000Y-61150000D01*
X76415600Y-67556000D02*
X76438400Y-67578800D01*
X76415600Y-66512000D02*
X76415600Y-67556000D01*
D30*
X64548600Y-55972800D02*
X64191600Y-56329800D01*
X64548600Y-54497800D02*
X64548600Y-55972800D01*
X64548600Y-53509800D02*
X64551200Y-53507200D01*
X64548600Y-54497800D02*
X64548600Y-53509800D01*
X63141600Y-56329800D02*
X63141600Y-56979800D01*
X63141600Y-56329800D02*
X64191600Y-56329800D01*
X63541600Y-56979800D02*
X64191600Y-56329800D01*
X63141600Y-56979800D02*
X63541600Y-56979800D01*
X68436600Y-54951800D02*
X68436600Y-55829800D01*
X67919100Y-54434300D02*
X68436600Y-54951800D01*
X67919100Y-53522300D02*
X67904000Y-53507200D01*
X67919100Y-54434300D02*
X67919100Y-53522300D01*
X66634100Y-58434800D02*
X67751600Y-58434800D01*
X69682000Y-74718600D02*
X69732800Y-74667800D01*
X68615200Y-74718600D02*
X69682000Y-74718600D01*
X70624200Y-74667800D02*
X70647200Y-74690800D01*
X69732800Y-74667800D02*
X70624200Y-74667800D01*
X68130200Y-74718600D02*
X67802400Y-75046400D01*
X68615200Y-74718600D02*
X68130200Y-74718600D01*
X69557400Y-76011600D02*
X70444000Y-76011600D01*
X73142800Y-70512800D02*
X73132800Y-70502800D01*
X74057200Y-71039600D02*
X74101600Y-71084000D01*
X73142800Y-71039600D02*
X74057200Y-71039600D01*
X73142800Y-71632800D02*
X73142800Y-71039600D01*
X73142800Y-71039600D02*
X73142800Y-70512800D01*
X62191400Y-73905800D02*
X62316000Y-74030400D01*
X61503200Y-73905800D02*
X62191400Y-73905800D01*
X65951400Y-56329800D02*
X65973600Y-56352000D01*
X65241600Y-56329800D02*
X65951400Y-56329800D01*
X66275500Y-66477000D02*
X66275500Y-65143300D01*
X66275500Y-65143300D02*
X66634000Y-64784800D01*
X66634000Y-60314400D02*
X66075200Y-59755600D01*
X66634000Y-64784800D02*
X66634000Y-60314400D01*
X65059100Y-61658100D02*
X65719600Y-62318600D01*
X65059100Y-58434800D02*
X65059100Y-61658100D01*
X65875500Y-63444500D02*
X65719600Y-63288600D01*
X65875500Y-66477000D02*
X65875500Y-63444500D01*
X69732800Y-72734300D02*
X68625500Y-71627000D01*
X69732800Y-73697800D02*
X69732800Y-72734300D01*
X62223800Y-71227000D02*
X62725500Y-71227000D01*
X60656000Y-72794800D02*
X62223800Y-71227000D01*
X60656000Y-75444600D02*
X60656000Y-72794800D01*
X61082000Y-75018600D02*
X60656000Y-75444600D01*
X62316000Y-75018600D02*
X61082000Y-75018600D01*
X61764500Y-69227000D02*
X61427000Y-68889500D01*
X62725500Y-69227000D02*
X61764500Y-69227000D01*
D27*
X60423500Y-68889500D02*
X60388000Y-68925000D01*
D32*
X61427000Y-68889500D02*
X60423500Y-68889500D01*
D30*
X61550600Y-70427000D02*
X62725500Y-70427000D01*
X59709011Y-72268589D02*
X61550600Y-70427000D01*
X59505811Y-72268589D02*
X59709011Y-72268589D01*
X62125418Y-70827000D02*
X62725500Y-70827000D01*
X59572800Y-73379618D02*
X62125418Y-70827000D01*
X59572800Y-76880200D02*
X59572800Y-73379618D01*
X59308400Y-77144600D02*
X59572800Y-76880200D01*
X58456000Y-77144600D02*
X59308400Y-77144600D01*
X58112800Y-76801400D02*
X58456000Y-77144600D01*
X56829600Y-76801400D02*
X58112800Y-76801400D01*
X70383600Y-70827000D02*
X71392800Y-69817800D01*
X68625500Y-70827000D02*
X70383600Y-70827000D01*
X71677800Y-69532800D02*
X71392800Y-69817800D01*
X73132800Y-69532800D02*
X71677800Y-69532800D01*
X71392800Y-72185200D02*
X71392800Y-72317800D01*
X70444000Y-71236400D02*
X71392800Y-72185200D01*
X69096232Y-71236400D02*
X70444000Y-71236400D01*
X69086832Y-71227000D02*
X69096232Y-71236400D01*
X68625500Y-71227000D02*
X69086832Y-71227000D01*
X71677800Y-72602800D02*
X71392800Y-72317800D01*
X73142800Y-72602800D02*
X71677800Y-72602800D01*
X65618000Y-74815500D02*
X66888000Y-76085500D01*
X65618000Y-73827200D02*
X65618000Y-74815500D01*
X66176800Y-73268400D02*
X65618000Y-73827200D01*
X66735600Y-73268400D02*
X66176800Y-73268400D01*
X67075500Y-72928500D02*
X66735600Y-73268400D01*
X67075500Y-72377000D02*
X67075500Y-72928500D01*
X66961900Y-76011600D02*
X66888000Y-76085500D01*
X68587400Y-76011600D02*
X66961900Y-76011600D01*
X67475500Y-73623000D02*
X67475500Y-72377000D01*
X66888000Y-74210500D02*
X67475500Y-73623000D01*
X58556800Y-61584400D02*
X58556800Y-62041600D01*
X59115600Y-61025600D02*
X58556800Y-61584400D01*
X64275500Y-65067900D02*
X60233200Y-61025600D01*
X60233200Y-61025600D02*
X59115600Y-61025600D01*
X64275500Y-66477000D02*
X64275500Y-65067900D01*
X59901432Y-62041600D02*
X59826800Y-62041600D01*
X63875500Y-66015668D02*
X59901432Y-62041600D01*
X63875500Y-66477000D02*
X63875500Y-66015668D01*
D31*
X57358500Y-50957000D02*
X56664500Y-51651000D01*
X58839500Y-50957000D02*
X57358500Y-50957000D01*
D30*
X62992200Y-66477000D02*
X59826800Y-63311600D01*
X63475500Y-66477000D02*
X62992200Y-66477000D01*
X59651000Y-54447000D02*
X59651000Y-59325802D01*
X59651000Y-59325802D02*
X59826800Y-59501602D01*
X64675500Y-76322160D02*
X64675500Y-72377000D01*
X69722120Y-81368780D02*
X64675500Y-76322160D01*
X69680000Y-81326660D02*
X69722120Y-81368780D01*
X69680000Y-79112400D02*
X69680000Y-81326660D01*
D27*
X79334000Y-66512000D02*
X80096000Y-65750000D01*
X77375600Y-66512000D02*
X79334000Y-66512000D01*
D30*
X76789390Y-65925790D02*
X77375600Y-66512000D01*
X70788042Y-65925790D02*
X76789390Y-65925790D01*
X69086832Y-67627000D02*
X70788042Y-65925790D01*
X68625500Y-67627000D02*
X69086832Y-67627000D01*
D27*
X79130800Y-62244800D02*
X80096000Y-63210000D01*
X77274000Y-62244800D02*
X79130800Y-62244800D01*
D30*
X76687790Y-62831010D02*
X77274000Y-62244800D01*
X68625500Y-67227000D02*
X73021490Y-62831010D01*
X73021490Y-62831010D02*
X76687790Y-62831010D01*
X65075500Y-72377000D02*
X65075500Y-76223778D01*
X66944122Y-78092400D02*
X69680000Y-78092400D01*
X65075500Y-76223778D02*
X66944122Y-78092400D01*
D33*
X66913022Y-47350268D02*
X68515195Y-47538436D01*
X70092523Y-47876542D01*
X71631037Y-48361588D01*
X73117089Y-48989274D01*
X74537466Y-49754019D01*
X75879573Y-50649041D01*
X77131492Y-51666392D01*
X78282115Y-52797044D01*
X79321226Y-54030962D01*
X80239605Y-55357193D01*
X81029097Y-56763961D01*
X81682701Y-58238796D01*
X82194608Y-59768583D01*
X82560279Y-61339770D01*
X82776463Y-62938375D01*
X82841246Y-64550246D01*
X82754051Y-66161052D01*
X82515655Y-67756501D01*
X82128164Y-69322458D01*
X81595034Y-70844971D01*
X80920981Y-72310571D01*
X80111999Y-73706226D01*
X79175265Y-75019553D01*
X78119092Y-76238899D01*
X76952849Y-77353446D01*
X75686902Y-78353286D01*
X74332486Y-79229548D01*
X72901602Y-79974469D01*
X71403005Y-80583033D01*
X70606060Y-80842001D01*
X70574109Y-80851693D01*
X70551618Y-80863715D01*
X70550267Y-80836203D01*
X70550171Y-80835228D01*
X70537560Y-80771901D01*
X70537275Y-80770963D01*
X70512717Y-80711686D01*
X70512255Y-80710821D01*
X70476597Y-80657387D01*
X70475976Y-80656629D01*
X70430037Y-80610690D01*
X70429279Y-80610069D01*
X70375845Y-80574411D01*
X70374980Y-80573949D01*
X70315703Y-80549391D01*
X70314765Y-80549106D01*
X70251438Y-80536495D01*
X70250463Y-80536399D01*
X70218266Y-80534818D01*
X70083200Y-80534818D01*
X70083200Y-79653888D01*
X70122552Y-79632854D01*
X70192802Y-79575202D01*
X70250454Y-79504952D01*
X70293294Y-79424805D01*
X70319674Y-79337840D01*
X70328582Y-79247400D01*
X70328582Y-78977400D01*
X70319674Y-78886960D01*
X70293294Y-78799995D01*
X70250454Y-78719848D01*
X70192802Y-78649598D01*
X70135290Y-78602400D01*
X70192802Y-78555202D01*
X70250454Y-78484952D01*
X70293294Y-78404805D01*
X70319674Y-78317840D01*
X70328582Y-78227400D01*
X70328582Y-77957400D01*
X70319674Y-77866960D01*
X70293294Y-77779995D01*
X70250454Y-77699848D01*
X70192802Y-77629598D01*
X70122552Y-77571946D01*
X70042405Y-77529106D01*
X69955440Y-77502726D01*
X69865000Y-77493818D01*
X69495000Y-77493818D01*
X69404560Y-77502726D01*
X69317595Y-77529106D01*
X69237448Y-77571946D01*
X69167198Y-77629598D01*
X69118284Y-77689200D01*
X67111133Y-77689200D01*
X66309218Y-76887286D01*
X66320094Y-76890585D01*
X66431750Y-76901582D01*
X67344250Y-76901582D01*
X67455906Y-76890585D01*
X67563272Y-76858016D01*
X67662221Y-76805127D01*
X67748950Y-76733950D01*
X67820127Y-76647221D01*
X67873016Y-76548272D01*
X67905585Y-76440906D01*
X67908156Y-76414800D01*
X68025987Y-76414800D01*
X68044052Y-76448597D01*
X68103259Y-76520741D01*
X68175403Y-76579948D01*
X68257711Y-76623942D01*
X68347021Y-76651034D01*
X68439900Y-76660182D01*
X68734900Y-76660182D01*
X68827779Y-76651034D01*
X68917089Y-76623942D01*
X68999397Y-76579948D01*
X69071541Y-76520741D01*
X69072400Y-76519694D01*
X69073259Y-76520741D01*
X69145403Y-76579948D01*
X69227711Y-76623942D01*
X69317021Y-76651034D01*
X69409900Y-76660182D01*
X69704900Y-76660182D01*
X69797779Y-76651034D01*
X69887089Y-76623942D01*
X69969397Y-76579948D01*
X70041541Y-76520741D01*
X70070182Y-76485842D01*
X70158846Y-76545086D01*
X70268403Y-76590466D01*
X70384708Y-76613600D01*
X70503292Y-76613600D01*
X70619597Y-76590466D01*
X70729154Y-76545086D01*
X70827753Y-76479204D01*
X70911604Y-76395353D01*
X70977486Y-76296754D01*
X71022866Y-76187197D01*
X71046000Y-76070892D01*
X71046000Y-75952308D01*
X71022866Y-75836003D01*
X70977486Y-75726446D01*
X70911604Y-75627847D01*
X70827753Y-75543996D01*
X70729154Y-75478114D01*
X70619597Y-75432734D01*
X70503292Y-75409600D01*
X70384708Y-75409600D01*
X70268403Y-75432734D01*
X70158846Y-75478114D01*
X70070182Y-75537358D01*
X70041541Y-75502459D01*
X69969397Y-75443252D01*
X69887089Y-75399258D01*
X69797779Y-75372166D01*
X69704900Y-75363018D01*
X69409900Y-75363018D01*
X69317021Y-75372166D01*
X69227711Y-75399258D01*
X69145403Y-75443252D01*
X69073259Y-75502459D01*
X69072400Y-75503506D01*
X69071541Y-75502459D01*
X68999397Y-75443252D01*
X68917089Y-75399258D01*
X68827779Y-75372166D01*
X68734900Y-75363018D01*
X68439900Y-75363018D01*
X68347021Y-75372166D01*
X68299021Y-75386727D01*
X68335886Y-75331554D01*
X68336897Y-75329113D01*
X68349821Y-75333034D01*
X68442700Y-75342182D01*
X68787700Y-75342182D01*
X68880579Y-75333034D01*
X68969889Y-75305942D01*
X69052197Y-75261948D01*
X69124341Y-75202741D01*
X69183548Y-75130597D01*
X69188250Y-75121800D01*
X69198923Y-75121800D01*
X69223659Y-75151941D01*
X69295803Y-75211148D01*
X69378111Y-75255142D01*
X69467421Y-75282234D01*
X69560300Y-75291382D01*
X69905300Y-75291382D01*
X69998179Y-75282234D01*
X70087489Y-75255142D01*
X70169797Y-75211148D01*
X70241941Y-75151941D01*
X70248722Y-75143679D01*
X70263447Y-75158404D01*
X70362046Y-75224286D01*
X70471603Y-75269666D01*
X70587908Y-75292800D01*
X70706492Y-75292800D01*
X70822797Y-75269666D01*
X70932354Y-75224286D01*
X71030953Y-75158404D01*
X71114804Y-75074553D01*
X71180686Y-74975954D01*
X71226066Y-74866397D01*
X71249200Y-74750092D01*
X71249200Y-74631508D01*
X71226066Y-74515203D01*
X71180686Y-74405646D01*
X71114804Y-74307047D01*
X71030953Y-74223196D01*
X70932354Y-74157314D01*
X70822797Y-74111934D01*
X70706492Y-74088800D01*
X70587908Y-74088800D01*
X70471603Y-74111934D01*
X70367800Y-74154931D01*
X70367800Y-73952796D01*
X70372234Y-73938179D01*
X70381382Y-73845300D01*
X70381382Y-73550300D01*
X70372234Y-73457421D01*
X70367800Y-73442804D01*
X70367800Y-73121595D01*
X70428697Y-73140068D01*
X70492800Y-73146382D01*
X72292800Y-73146382D01*
X72356903Y-73140068D01*
X72418543Y-73121370D01*
X72475350Y-73091006D01*
X72525143Y-73050143D01*
X72561369Y-73006000D01*
X72569750Y-73006000D01*
X72574452Y-73014797D01*
X72633659Y-73086941D01*
X72705803Y-73146148D01*
X72788111Y-73190142D01*
X72877421Y-73217234D01*
X72970300Y-73226382D01*
X73315300Y-73226382D01*
X73408179Y-73217234D01*
X73497489Y-73190142D01*
X73579797Y-73146148D01*
X73651941Y-73086941D01*
X73711148Y-73014797D01*
X73755142Y-72932489D01*
X73782234Y-72843179D01*
X73791382Y-72750300D01*
X73791382Y-72455300D01*
X73782234Y-72362421D01*
X73755142Y-72273111D01*
X73711148Y-72190803D01*
X73651941Y-72118659D01*
X73650894Y-72117800D01*
X73651941Y-72116941D01*
X73711148Y-72044797D01*
X73755142Y-71962489D01*
X73782234Y-71873179D01*
X73791382Y-71780300D01*
X73791382Y-71600739D01*
X73816446Y-71617486D01*
X73926003Y-71662866D01*
X74042308Y-71686000D01*
X74160892Y-71686000D01*
X74277197Y-71662866D01*
X74386754Y-71617486D01*
X74485353Y-71551604D01*
X74569204Y-71467753D01*
X74635086Y-71369154D01*
X74680466Y-71259597D01*
X74703600Y-71143292D01*
X74703600Y-71024708D01*
X74680466Y-70908403D01*
X74635086Y-70798846D01*
X74569204Y-70700247D01*
X74485353Y-70616396D01*
X74386754Y-70550514D01*
X74277197Y-70505134D01*
X74160892Y-70482000D01*
X74042308Y-70482000D01*
X73926003Y-70505134D01*
X73816446Y-70550514D01*
X73781382Y-70573943D01*
X73781382Y-70355300D01*
X73772234Y-70262421D01*
X73745142Y-70173111D01*
X73701148Y-70090803D01*
X73641941Y-70018659D01*
X73640894Y-70017800D01*
X73641941Y-70016941D01*
X73701148Y-69944797D01*
X73745142Y-69862489D01*
X73772234Y-69773179D01*
X73781382Y-69680300D01*
X73781382Y-69385300D01*
X73772234Y-69292421D01*
X73745142Y-69203111D01*
X73701148Y-69120803D01*
X73641941Y-69048659D01*
X73569797Y-68989452D01*
X73487489Y-68945458D01*
X73398179Y-68918366D01*
X73305300Y-68909218D01*
X72960300Y-68909218D01*
X72867421Y-68918366D01*
X72778111Y-68945458D01*
X72695803Y-68989452D01*
X72623659Y-69048659D01*
X72564452Y-69120803D01*
X72560389Y-69128405D01*
X72525143Y-69085457D01*
X72475350Y-69044594D01*
X72418543Y-69014230D01*
X72356903Y-68995532D01*
X72292800Y-68989218D01*
X70492800Y-68989218D01*
X70428697Y-68995532D01*
X70367057Y-69014230D01*
X70310250Y-69044594D01*
X70260457Y-69085457D01*
X70219594Y-69135250D01*
X70189230Y-69192057D01*
X70170532Y-69253697D01*
X70164218Y-69317800D01*
X70164218Y-70317800D01*
X70170532Y-70381903D01*
X70183241Y-70423800D01*
X69354082Y-70423800D01*
X69354082Y-70377000D01*
X69346808Y-70303142D01*
X69325264Y-70232123D01*
X69322526Y-70227000D01*
X69325264Y-70221877D01*
X69346808Y-70150858D01*
X69354082Y-70077000D01*
X69354082Y-69977000D01*
X69349560Y-69931084D01*
X69380129Y-69873892D01*
X69401972Y-69801885D01*
X69409348Y-69727000D01*
X69407500Y-69722500D01*
X69312000Y-69627000D01*
X69407500Y-69531500D01*
X69409348Y-69527000D01*
X69401972Y-69452115D01*
X69380129Y-69380108D01*
X69349560Y-69322916D01*
X69354082Y-69277000D01*
X69354082Y-69177000D01*
X69346808Y-69103142D01*
X69325264Y-69032123D01*
X69322526Y-69027000D01*
X69325264Y-69021877D01*
X69346808Y-68950858D01*
X69354082Y-68877000D01*
X69354082Y-68777000D01*
X69346808Y-68703142D01*
X69325264Y-68632123D01*
X69322526Y-68627000D01*
X69325264Y-68621877D01*
X69346808Y-68550858D01*
X69354082Y-68477000D01*
X69354082Y-68377000D01*
X69346808Y-68303142D01*
X69325264Y-68232123D01*
X69322526Y-68227000D01*
X69325264Y-68221877D01*
X69346808Y-68150858D01*
X69354082Y-68077000D01*
X69354082Y-67977000D01*
X69349733Y-67932838D01*
X69373316Y-67913484D01*
X69385939Y-67898103D01*
X70955053Y-66328990D01*
X75808299Y-66328990D01*
X75807018Y-66342000D01*
X75807018Y-66682000D01*
X75816022Y-66773416D01*
X75842687Y-66861319D01*
X75885988Y-66942330D01*
X75938600Y-67006439D01*
X75938601Y-67243230D01*
X75904914Y-67293646D01*
X75859534Y-67403203D01*
X75836400Y-67519508D01*
X75836400Y-67638092D01*
X75859534Y-67754397D01*
X75904914Y-67863954D01*
X75970796Y-67962553D01*
X76054647Y-68046404D01*
X76153246Y-68112286D01*
X76262803Y-68157666D01*
X76379108Y-68180800D01*
X76497692Y-68180800D01*
X76613997Y-68157666D01*
X76723554Y-68112286D01*
X76822153Y-68046404D01*
X76906004Y-67962553D01*
X76971886Y-67863954D01*
X77017266Y-67754397D01*
X77040400Y-67638092D01*
X77040400Y-67519508D01*
X77017266Y-67403203D01*
X76971886Y-67293646D01*
X76906004Y-67195047D01*
X76892600Y-67181643D01*
X76892600Y-67006439D01*
X76895600Y-67002783D01*
X76904262Y-67013338D01*
X76975270Y-67071612D01*
X77056281Y-67114913D01*
X77144184Y-67141578D01*
X77235600Y-67150582D01*
X77515600Y-67150582D01*
X77607016Y-67141578D01*
X77694919Y-67114913D01*
X77775930Y-67071612D01*
X77846938Y-67013338D01*
X77866911Y-66989000D01*
X79310585Y-66989000D01*
X79334000Y-66991306D01*
X79357415Y-66989000D01*
X79357423Y-66989000D01*
X79427508Y-66982097D01*
X79517423Y-66954822D01*
X79566514Y-66928582D01*
X80946000Y-66928582D01*
X81010103Y-66922268D01*
X81071743Y-66903570D01*
X81128550Y-66873206D01*
X81178343Y-66832343D01*
X81219206Y-66782550D01*
X81249570Y-66725743D01*
X81268268Y-66664103D01*
X81274582Y-66600000D01*
X81274582Y-64900000D01*
X81268268Y-64835897D01*
X81249570Y-64774257D01*
X81219206Y-64717450D01*
X81178343Y-64667657D01*
X81128550Y-64626794D01*
X81071743Y-64596430D01*
X81010103Y-64577732D01*
X80946000Y-64571418D01*
X79246000Y-64571418D01*
X79181897Y-64577732D01*
X79120257Y-64596430D01*
X79063450Y-64626794D01*
X79013657Y-64667657D01*
X78972794Y-64717450D01*
X78942430Y-64774257D01*
X78923732Y-64835897D01*
X78917418Y-64900000D01*
X78917418Y-66035000D01*
X77866911Y-66035000D01*
X77846938Y-66010662D01*
X77775930Y-65952388D01*
X77694919Y-65909087D01*
X77607016Y-65882422D01*
X77515600Y-65873418D01*
X77307228Y-65873418D01*
X77088497Y-65654687D01*
X77075874Y-65639306D01*
X77014479Y-65588920D01*
X76944434Y-65551480D01*
X76868431Y-65528425D01*
X76809188Y-65522590D01*
X76809181Y-65522590D01*
X76789390Y-65520641D01*
X76769599Y-65522590D01*
X70900120Y-65522590D01*
X73188500Y-63234210D01*
X76667999Y-63234210D01*
X76687790Y-63236159D01*
X76707581Y-63234210D01*
X76707588Y-63234210D01*
X76766831Y-63228375D01*
X76842834Y-63205320D01*
X76912879Y-63167880D01*
X76974274Y-63117494D01*
X76986897Y-63102113D01*
X77205628Y-62883382D01*
X77414000Y-62883382D01*
X77505416Y-62874378D01*
X77593319Y-62847713D01*
X77674330Y-62804412D01*
X77745338Y-62746138D01*
X77765311Y-62721800D01*
X78933221Y-62721800D01*
X78997583Y-62786163D01*
X78964231Y-62866682D01*
X78919000Y-63094076D01*
X78919000Y-63325924D01*
X78964231Y-63553318D01*
X79052956Y-63767519D01*
X79181764Y-63960294D01*
X79345706Y-64124236D01*
X79538481Y-64253044D01*
X79752682Y-64341769D01*
X79980076Y-64387000D01*
X80211924Y-64387000D01*
X80439318Y-64341769D01*
X80653519Y-64253044D01*
X80846294Y-64124236D01*
X81010236Y-63960294D01*
X81139044Y-63767519D01*
X81227769Y-63553318D01*
X81273000Y-63325924D01*
X81273000Y-63094076D01*
X81227769Y-62866682D01*
X81139044Y-62652481D01*
X81010236Y-62459706D01*
X80846294Y-62295764D01*
X80653519Y-62166956D01*
X80439318Y-62078231D01*
X80211924Y-62033000D01*
X79980076Y-62033000D01*
X79752682Y-62078231D01*
X79672163Y-62111583D01*
X79484655Y-61924076D01*
X79469721Y-61905879D01*
X79397089Y-61846271D01*
X79314223Y-61801978D01*
X79224308Y-61774703D01*
X79154223Y-61767800D01*
X79154215Y-61767800D01*
X79130800Y-61765494D01*
X79107385Y-61767800D01*
X77765311Y-61767800D01*
X77745338Y-61743462D01*
X77674330Y-61685188D01*
X77593319Y-61641887D01*
X77505416Y-61615222D01*
X77414000Y-61606218D01*
X77134000Y-61606218D01*
X77042584Y-61615222D01*
X76954681Y-61641887D01*
X76873670Y-61685188D01*
X76802662Y-61743462D01*
X76794000Y-61754017D01*
X76791000Y-61750361D01*
X76791000Y-61524357D01*
X76804404Y-61510953D01*
X76870286Y-61412354D01*
X76915666Y-61302797D01*
X76938800Y-61186492D01*
X76938800Y-61067908D01*
X76915666Y-60951603D01*
X76870286Y-60842046D01*
X76804404Y-60743447D01*
X76720553Y-60659596D01*
X76621954Y-60593714D01*
X76512397Y-60548334D01*
X76396092Y-60525200D01*
X76277508Y-60525200D01*
X76161203Y-60548334D01*
X76051646Y-60593714D01*
X75953047Y-60659596D01*
X75869196Y-60743447D01*
X75803314Y-60842046D01*
X75757934Y-60951603D01*
X75734800Y-61067908D01*
X75734800Y-61186492D01*
X75757934Y-61302797D01*
X75803314Y-61412354D01*
X75837001Y-61462770D01*
X75837000Y-61750361D01*
X75784388Y-61814470D01*
X75741087Y-61895481D01*
X75714422Y-61983384D01*
X75705418Y-62074800D01*
X75705418Y-62414800D01*
X75706699Y-62427810D01*
X73041281Y-62427810D01*
X73021490Y-62425861D01*
X73001699Y-62427810D01*
X73001692Y-62427810D01*
X72945637Y-62433331D01*
X72942449Y-62433645D01*
X72866445Y-62456700D01*
X72841769Y-62469890D01*
X72796401Y-62494140D01*
X72735006Y-62544526D01*
X72722383Y-62559907D01*
X68483872Y-66798418D01*
X68358870Y-66798418D01*
X68357500Y-66573000D01*
X68262000Y-66477500D01*
X67904082Y-66477500D01*
X67904082Y-66476500D01*
X68262000Y-66476500D01*
X68357500Y-66381000D01*
X68359348Y-66077000D01*
X68351972Y-66002115D01*
X68330129Y-65930108D01*
X68294658Y-65863745D01*
X68246922Y-65805578D01*
X68188755Y-65757842D01*
X68122392Y-65722371D01*
X68050385Y-65700528D01*
X67975500Y-65693152D01*
X67971000Y-65695000D01*
X67902490Y-65763510D01*
X67902490Y-65712120D01*
X68020211Y-65594400D01*
X68780427Y-65594400D01*
X68800218Y-65596349D01*
X68820009Y-65594400D01*
X68820016Y-65594400D01*
X68879259Y-65588565D01*
X68955262Y-65565510D01*
X69025307Y-65528070D01*
X69086702Y-65477684D01*
X69099325Y-65462303D01*
X74049311Y-60512318D01*
X74064685Y-60499701D01*
X74089517Y-60469444D01*
X74115070Y-60438307D01*
X74115071Y-60438306D01*
X74152511Y-60368261D01*
X74175566Y-60292258D01*
X74181401Y-60233015D01*
X74181401Y-60233006D01*
X74183350Y-60213218D01*
X74181401Y-60193430D01*
X74181401Y-56522988D01*
X74183350Y-56503200D01*
X74181401Y-56483412D01*
X74181401Y-56483403D01*
X74175566Y-56424160D01*
X74152511Y-56348157D01*
X74115071Y-56278112D01*
X74090091Y-56247674D01*
X74077305Y-56232094D01*
X74077303Y-56232092D01*
X74064685Y-56216717D01*
X74049310Y-56204099D01*
X73839909Y-55994698D01*
X73869000Y-55848452D01*
X73869000Y-55685548D01*
X73837218Y-55525773D01*
X73774877Y-55375269D01*
X73684372Y-55239819D01*
X73569181Y-55124628D01*
X73445200Y-55041786D01*
X73445200Y-54599261D01*
X73474597Y-54583548D01*
X73546741Y-54524341D01*
X73605948Y-54452197D01*
X73649942Y-54369889D01*
X73677034Y-54280579D01*
X73686182Y-54187700D01*
X73686182Y-53842700D01*
X73677034Y-53749821D01*
X73649942Y-53660511D01*
X73605948Y-53578203D01*
X73546741Y-53506059D01*
X73474597Y-53446852D01*
X73392289Y-53402858D01*
X73302979Y-53375766D01*
X73210100Y-53366618D01*
X72915100Y-53366618D01*
X72822221Y-53375766D01*
X72732911Y-53402858D01*
X72669617Y-53436689D01*
X72659022Y-53423778D01*
X72600855Y-53376042D01*
X72534492Y-53340571D01*
X72462485Y-53318728D01*
X72387600Y-53311352D01*
X72188600Y-53313200D01*
X72093100Y-53408700D01*
X72093100Y-54014700D01*
X72113100Y-54014700D01*
X72113100Y-54015700D01*
X72093100Y-54015700D01*
X72093100Y-54621700D01*
X72188600Y-54717200D01*
X72387600Y-54719048D01*
X72462485Y-54711672D01*
X72534492Y-54689829D01*
X72600855Y-54654358D01*
X72638801Y-54623217D01*
X72638800Y-55041786D01*
X72514819Y-55124628D01*
X72399628Y-55239819D01*
X72309123Y-55375269D01*
X72246782Y-55525773D01*
X72215000Y-55685548D01*
X72215000Y-55848452D01*
X72244091Y-55994699D01*
X71832790Y-56406000D01*
X69926957Y-56406000D01*
X69862553Y-56341596D01*
X69763954Y-56275714D01*
X69654397Y-56230334D01*
X69538092Y-56207200D01*
X69419508Y-56207200D01*
X69303203Y-56230334D01*
X69193646Y-56275714D01*
X69095047Y-56341596D01*
X69030643Y-56406000D01*
X68945400Y-56406000D01*
X68945400Y-56178510D01*
X68970060Y-56148463D01*
X69008510Y-56076528D01*
X69032187Y-55998474D01*
X69040182Y-55917300D01*
X69040182Y-55742300D01*
X69032187Y-55661126D01*
X69008510Y-55583072D01*
X68970060Y-55511137D01*
X68945400Y-55481090D01*
X68945400Y-54335200D01*
X71413752Y-54335200D01*
X71421128Y-54410085D01*
X71442971Y-54482092D01*
X71478442Y-54548455D01*
X71526178Y-54606622D01*
X71584345Y-54654358D01*
X71650708Y-54689829D01*
X71722715Y-54711672D01*
X71797600Y-54719048D01*
X71996600Y-54717200D01*
X72092100Y-54621700D01*
X72092100Y-54015700D01*
X71511100Y-54015700D01*
X71415600Y-54111200D01*
X71413752Y-54335200D01*
X68945400Y-54335200D01*
X68945400Y-53695200D01*
X71413752Y-53695200D01*
X71415600Y-53919200D01*
X71511100Y-54014700D01*
X72092100Y-54014700D01*
X72092100Y-53408700D01*
X71996600Y-53313200D01*
X71797600Y-53311352D01*
X71722715Y-53318728D01*
X71650708Y-53340571D01*
X71584345Y-53376042D01*
X71526178Y-53423778D01*
X71478442Y-53481945D01*
X71442971Y-53548308D01*
X71421128Y-53620315D01*
X71413752Y-53695200D01*
X68945400Y-53695200D01*
X68945400Y-53050000D01*
X68942960Y-53025224D01*
X68935733Y-53001399D01*
X68923997Y-52979443D01*
X68908203Y-52960197D01*
X68888957Y-52944403D01*
X68867001Y-52932667D01*
X68843176Y-52925440D01*
X68818400Y-52923000D01*
X68052781Y-52923000D01*
X67963292Y-52905200D01*
X67844708Y-52905200D01*
X67755219Y-52923000D01*
X64699981Y-52923000D01*
X64610492Y-52905200D01*
X64491908Y-52905200D01*
X64402419Y-52923000D01*
X62214400Y-52923000D01*
X62189624Y-52925440D01*
X62165799Y-52932667D01*
X62143843Y-52944403D01*
X62124597Y-52960197D01*
X62108803Y-52979443D01*
X62097067Y-53001399D01*
X62089840Y-53025224D01*
X62087400Y-53050000D01*
X62087400Y-57774400D01*
X62089840Y-57799176D01*
X62097067Y-57823001D01*
X62108803Y-57844957D01*
X62124597Y-57864203D01*
X62143843Y-57879997D01*
X62165799Y-57891733D01*
X62189624Y-57898960D01*
X62214400Y-57901400D01*
X64370865Y-57901400D01*
X64334681Y-57969095D01*
X64303535Y-58071771D01*
X64293018Y-58178550D01*
X64293018Y-58691050D01*
X64303535Y-58797829D01*
X64334681Y-58900505D01*
X64385260Y-58995131D01*
X64453328Y-59078072D01*
X64536269Y-59146140D01*
X64630895Y-59196719D01*
X64655900Y-59204304D01*
X64655901Y-61638299D01*
X64653951Y-61658100D01*
X64661735Y-61737141D01*
X64684791Y-61813144D01*
X64722231Y-61883189D01*
X64753483Y-61921269D01*
X64772617Y-61944584D01*
X64787992Y-61957202D01*
X65071018Y-62240228D01*
X65071018Y-62466100D01*
X65080166Y-62558979D01*
X65107258Y-62648289D01*
X65151252Y-62730597D01*
X65210459Y-62802741D01*
X65211506Y-62803600D01*
X65210459Y-62804459D01*
X65151252Y-62876603D01*
X65107258Y-62958911D01*
X65080166Y-63048221D01*
X65071018Y-63141100D01*
X65071018Y-63436100D01*
X65080166Y-63528979D01*
X65107258Y-63618289D01*
X65151252Y-63700597D01*
X65210459Y-63772741D01*
X65282603Y-63831948D01*
X65364911Y-63875942D01*
X65454221Y-63903034D01*
X65472301Y-63904815D01*
X65472300Y-65748418D01*
X65425500Y-65748418D01*
X65351642Y-65755692D01*
X65280623Y-65777236D01*
X65275500Y-65779974D01*
X65270377Y-65777236D01*
X65199358Y-65755692D01*
X65125500Y-65748418D01*
X65025500Y-65748418D01*
X64951642Y-65755692D01*
X64880623Y-65777236D01*
X64875500Y-65779974D01*
X64870377Y-65777236D01*
X64799358Y-65755692D01*
X64725500Y-65748418D01*
X64678700Y-65748418D01*
X64678700Y-65087687D01*
X64680649Y-65067899D01*
X64678700Y-65048111D01*
X64678700Y-65048102D01*
X64672865Y-64988859D01*
X64649810Y-64912856D01*
X64612370Y-64842811D01*
X64591097Y-64816890D01*
X64574604Y-64796793D01*
X64574602Y-64796791D01*
X64561984Y-64781416D01*
X64546609Y-64768798D01*
X60532307Y-60754497D01*
X60519684Y-60739116D01*
X60458289Y-60688730D01*
X60388244Y-60651290D01*
X60312241Y-60628235D01*
X60252998Y-60622400D01*
X60252991Y-60622400D01*
X60233200Y-60620451D01*
X60213409Y-60622400D01*
X59135391Y-60622400D01*
X59115600Y-60620451D01*
X59095809Y-60622400D01*
X59095802Y-60622400D01*
X59036559Y-60628235D01*
X58960555Y-60651290D01*
X58890511Y-60688730D01*
X58844494Y-60726495D01*
X58844493Y-60726496D01*
X58829116Y-60739116D01*
X58816498Y-60754492D01*
X58326851Y-61244139D01*
X58315573Y-61246382D01*
X58165069Y-61308723D01*
X58029619Y-61399228D01*
X57914428Y-61514419D01*
X57823923Y-61649869D01*
X57761582Y-61800373D01*
X57729800Y-61960148D01*
X57729800Y-62123052D01*
X57761582Y-62282827D01*
X57823923Y-62433331D01*
X57914428Y-62568781D01*
X58022247Y-62676600D01*
X57914428Y-62784419D01*
X57823923Y-62919869D01*
X57761582Y-63070373D01*
X57729800Y-63230148D01*
X57729800Y-63393052D01*
X57761582Y-63552827D01*
X57823923Y-63703331D01*
X57914428Y-63838781D01*
X58022247Y-63946600D01*
X57914428Y-64054419D01*
X57823923Y-64189869D01*
X57761582Y-64340373D01*
X57729800Y-64500148D01*
X57729800Y-64663052D01*
X57761582Y-64822827D01*
X57823923Y-64973331D01*
X57858190Y-65024614D01*
X57843545Y-65032442D01*
X57785378Y-65080178D01*
X57737642Y-65138345D01*
X57702171Y-65204708D01*
X57680328Y-65276715D01*
X57672952Y-65351600D01*
X57674800Y-65755600D01*
X57770300Y-65851100D01*
X58556300Y-65851100D01*
X58556300Y-65831100D01*
X58557300Y-65831100D01*
X58557300Y-65851100D01*
X58577300Y-65851100D01*
X58577300Y-65852100D01*
X58557300Y-65852100D01*
X58557300Y-65872100D01*
X58556300Y-65872100D01*
X58556300Y-65852100D01*
X57770300Y-65852100D01*
X57674800Y-65947600D01*
X57672952Y-66351600D01*
X57680328Y-66426485D01*
X57699534Y-66489800D01*
X55839000Y-66489800D01*
X55839000Y-54058500D01*
X55901652Y-54058500D01*
X55909028Y-54133385D01*
X55930871Y-54205392D01*
X55966342Y-54271755D01*
X56014078Y-54329922D01*
X56072245Y-54377658D01*
X56138608Y-54413129D01*
X56210615Y-54434972D01*
X56285500Y-54442348D01*
X56469500Y-54440500D01*
X56565000Y-54345000D01*
X56565000Y-53749000D01*
X55999000Y-53749000D01*
X55903500Y-53844500D01*
X55901652Y-54058500D01*
X55839000Y-54058500D01*
X55839000Y-53438500D01*
X55901652Y-53438500D01*
X55903500Y-53652500D01*
X55999000Y-53748000D01*
X56565000Y-53748000D01*
X56565000Y-53728000D01*
X56566000Y-53728000D01*
X56566000Y-53748000D01*
X56586000Y-53748000D01*
X56586000Y-53749000D01*
X56566000Y-53749000D01*
X56566000Y-54345000D01*
X56661500Y-54440500D01*
X56845500Y-54442348D01*
X56920385Y-54434972D01*
X56992392Y-54413129D01*
X57018608Y-54399117D01*
X56956514Y-54492046D01*
X56911134Y-54601603D01*
X56888000Y-54717908D01*
X56888000Y-54836492D01*
X56911134Y-54952797D01*
X56956514Y-55062354D01*
X57022396Y-55160953D01*
X57106247Y-55244804D01*
X57204846Y-55310686D01*
X57314403Y-55356066D01*
X57430708Y-55379200D01*
X57549292Y-55379200D01*
X57665597Y-55356066D01*
X57775154Y-55310686D01*
X57873753Y-55244804D01*
X57957604Y-55160953D01*
X58023486Y-55062354D01*
X58052243Y-54992929D01*
X58089578Y-55038422D01*
X58147745Y-55086158D01*
X58214108Y-55121629D01*
X58286115Y-55143472D01*
X58361000Y-55150848D01*
X58535000Y-55149000D01*
X58630500Y-55053500D01*
X58630500Y-54447500D01*
X58610500Y-54447500D01*
X58610500Y-54446500D01*
X58630500Y-54446500D01*
X58630500Y-53840500D01*
X58631500Y-53840500D01*
X58631500Y-54446500D01*
X58651500Y-54446500D01*
X58651500Y-54447500D01*
X58631500Y-54447500D01*
X58631500Y-55053500D01*
X58727000Y-55149000D01*
X58901000Y-55150848D01*
X58975885Y-55143472D01*
X59047892Y-55121629D01*
X59114255Y-55086158D01*
X59172422Y-55038422D01*
X59217326Y-54983706D01*
X59247800Y-55008716D01*
X59247801Y-59306001D01*
X59245851Y-59325802D01*
X59246554Y-59332942D01*
X59224800Y-59442310D01*
X59224800Y-59560894D01*
X59247934Y-59677199D01*
X59293314Y-59786756D01*
X59359196Y-59885355D01*
X59443047Y-59969206D01*
X59541646Y-60035088D01*
X59651203Y-60080468D01*
X59767508Y-60103602D01*
X59886092Y-60103602D01*
X60002397Y-60080468D01*
X60111954Y-60035088D01*
X60210553Y-59969206D01*
X60294404Y-59885355D01*
X60360286Y-59786756D01*
X60405666Y-59677199D01*
X60428800Y-59560894D01*
X60428800Y-59442310D01*
X60405666Y-59326005D01*
X60360286Y-59216448D01*
X60294404Y-59117849D01*
X60210553Y-59033998D01*
X60111954Y-58968116D01*
X60054200Y-58944194D01*
X60054200Y-55008716D01*
X60113802Y-54959802D01*
X60171454Y-54889552D01*
X60214294Y-54809405D01*
X60240674Y-54722440D01*
X60249582Y-54632000D01*
X60249582Y-54262000D01*
X60240674Y-54171560D01*
X60214294Y-54084595D01*
X60171454Y-54004448D01*
X60113802Y-53934198D01*
X60043552Y-53876546D01*
X59963405Y-53833706D01*
X59876440Y-53807326D01*
X59786000Y-53798418D01*
X59516000Y-53798418D01*
X59425560Y-53807326D01*
X59338595Y-53833706D01*
X59258448Y-53876546D01*
X59217326Y-53910294D01*
X59172422Y-53855578D01*
X59114255Y-53807842D01*
X59047892Y-53772371D01*
X58975885Y-53750528D01*
X58901000Y-53743152D01*
X58727000Y-53745000D01*
X58631500Y-53840500D01*
X58630500Y-53840500D01*
X58562862Y-53772862D01*
X58750142Y-53585582D01*
X59289500Y-53585582D01*
X59353603Y-53579268D01*
X59415243Y-53560570D01*
X59472050Y-53530206D01*
X59521843Y-53489343D01*
X59562706Y-53439550D01*
X59583307Y-53401008D01*
X59598114Y-53436754D01*
X59663996Y-53535353D01*
X59747847Y-53619204D01*
X59846446Y-53685086D01*
X59956003Y-53730466D01*
X60072308Y-53753600D01*
X60190892Y-53753600D01*
X60307197Y-53730466D01*
X60416754Y-53685086D01*
X60515353Y-53619204D01*
X60599204Y-53535353D01*
X60665086Y-53436754D01*
X60710466Y-53327197D01*
X60733600Y-53210892D01*
X60733600Y-53092308D01*
X60710466Y-52976003D01*
X60665086Y-52866446D01*
X60599204Y-52767847D01*
X60515353Y-52683996D01*
X60442897Y-52635582D01*
X61289500Y-52635582D01*
X61353603Y-52629268D01*
X61415243Y-52610570D01*
X61472050Y-52580206D01*
X61521843Y-52539343D01*
X61562706Y-52489550D01*
X61593070Y-52432743D01*
X61611768Y-52371103D01*
X61618082Y-52307000D01*
X61618082Y-51767641D01*
X63134924Y-50250800D01*
X65218643Y-50250800D01*
X65234247Y-50266404D01*
X65332846Y-50332286D01*
X65442403Y-50377666D01*
X65558708Y-50400800D01*
X65677292Y-50400800D01*
X65793597Y-50377666D01*
X65903154Y-50332286D01*
X66001753Y-50266404D01*
X66085604Y-50182553D01*
X66151486Y-50083954D01*
X66196866Y-49974397D01*
X66220000Y-49858092D01*
X66220000Y-49739508D01*
X66196866Y-49623203D01*
X66151486Y-49513646D01*
X66085604Y-49415047D01*
X66001753Y-49331196D01*
X65903154Y-49265314D01*
X65793597Y-49219934D01*
X65677292Y-49196800D01*
X65558708Y-49196800D01*
X65442403Y-49219934D01*
X65332846Y-49265314D01*
X65234247Y-49331196D01*
X65218643Y-49346800D01*
X62969904Y-49346800D01*
X62947699Y-49344613D01*
X62859092Y-49353340D01*
X62824894Y-49363714D01*
X62773890Y-49379186D01*
X62695367Y-49421157D01*
X62626541Y-49477641D01*
X62612381Y-49494895D01*
X60928859Y-51178418D01*
X60389500Y-51178418D01*
X60325397Y-51184732D01*
X60263757Y-51203430D01*
X60206950Y-51233794D01*
X60157157Y-51274657D01*
X60116294Y-51324450D01*
X60085930Y-51381257D01*
X60067232Y-51442897D01*
X60060918Y-51507000D01*
X60060918Y-52307000D01*
X60067232Y-52371103D01*
X60085930Y-52432743D01*
X60116294Y-52489550D01*
X60146288Y-52526099D01*
X60089333Y-52479357D01*
X60010810Y-52437386D01*
X59925607Y-52411540D01*
X59859205Y-52405000D01*
X59837000Y-52402813D01*
X59814795Y-52405000D01*
X59612960Y-52405000D01*
X59611768Y-52392897D01*
X59593070Y-52331257D01*
X59562706Y-52274450D01*
X59521843Y-52224657D01*
X59472050Y-52183794D01*
X59415243Y-52153430D01*
X59353603Y-52134732D01*
X59289500Y-52128418D01*
X58426841Y-52128418D01*
X58346000Y-52047577D01*
X58346000Y-52025508D01*
X58322866Y-51909203D01*
X58277486Y-51799646D01*
X58211604Y-51701047D01*
X58127753Y-51617196D01*
X58029154Y-51551314D01*
X57919597Y-51505934D01*
X57803292Y-51482800D01*
X57684708Y-51482800D01*
X57568403Y-51505934D01*
X57458846Y-51551314D01*
X57360247Y-51617196D01*
X57313082Y-51664361D01*
X57313082Y-51641642D01*
X57545725Y-51409000D01*
X58066040Y-51409000D01*
X58067232Y-51421103D01*
X58085930Y-51482743D01*
X58116294Y-51539550D01*
X58157157Y-51589343D01*
X58206950Y-51630206D01*
X58263757Y-51660570D01*
X58325397Y-51679268D01*
X58389500Y-51685582D01*
X59289500Y-51685582D01*
X59353603Y-51679268D01*
X59415243Y-51660570D01*
X59472050Y-51630206D01*
X59521843Y-51589343D01*
X59562706Y-51539550D01*
X59593070Y-51482743D01*
X59611768Y-51421103D01*
X59618082Y-51357000D01*
X59618082Y-50557000D01*
X59611768Y-50492897D01*
X59593070Y-50431257D01*
X59562706Y-50374450D01*
X59521843Y-50324657D01*
X59472050Y-50283794D01*
X59415243Y-50253430D01*
X59353603Y-50234732D01*
X59289500Y-50228418D01*
X58389500Y-50228418D01*
X58325397Y-50234732D01*
X58263757Y-50253430D01*
X58206950Y-50283794D01*
X58157157Y-50324657D01*
X58116294Y-50374450D01*
X58085930Y-50431257D01*
X58067232Y-50492897D01*
X58066040Y-50505000D01*
X57380704Y-50505000D01*
X57358499Y-50502813D01*
X57269892Y-50511540D01*
X57263573Y-50513457D01*
X57184690Y-50537386D01*
X57106167Y-50579357D01*
X57037341Y-50635841D01*
X57023185Y-50653090D01*
X56623858Y-51052418D01*
X56479500Y-51052418D01*
X56389060Y-51061326D01*
X56302095Y-51087706D01*
X56221948Y-51130546D01*
X56151698Y-51188198D01*
X56094046Y-51258448D01*
X56051206Y-51338595D01*
X56024826Y-51425560D01*
X56015918Y-51516000D01*
X56015918Y-51786000D01*
X56024826Y-51876440D01*
X56051206Y-51963405D01*
X56094046Y-52043552D01*
X56127794Y-52084674D01*
X56073078Y-52129578D01*
X56025342Y-52187745D01*
X55989871Y-52254108D01*
X55968028Y-52326115D01*
X55960652Y-52401000D01*
X55962500Y-52575000D01*
X56058000Y-52670500D01*
X56664000Y-52670500D01*
X56664000Y-52650500D01*
X56665000Y-52650500D01*
X56665000Y-52670500D01*
X57271000Y-52670500D01*
X57366500Y-52575000D01*
X57366694Y-52556712D01*
X57458846Y-52618286D01*
X57568403Y-52663666D01*
X57684708Y-52686800D01*
X57706777Y-52686800D01*
X58038626Y-53018650D01*
X57888397Y-53168880D01*
X57844819Y-53145587D01*
X57756916Y-53118922D01*
X57665500Y-53109918D01*
X57385500Y-53109918D01*
X57324125Y-53115963D01*
X57339129Y-53087892D01*
X57360972Y-53015885D01*
X57368348Y-52941000D01*
X57366500Y-52767000D01*
X57271000Y-52671500D01*
X56665000Y-52671500D01*
X56665000Y-52691500D01*
X56664000Y-52691500D01*
X56664000Y-52671500D01*
X56058000Y-52671500D01*
X55962500Y-52767000D01*
X55960652Y-52941000D01*
X55968028Y-53015885D01*
X55989871Y-53087892D01*
X56025342Y-53154255D01*
X56027097Y-53156394D01*
X56014078Y-53167078D01*
X55966342Y-53225245D01*
X55930871Y-53291608D01*
X55909028Y-53363615D01*
X55901652Y-53438500D01*
X55839000Y-53438500D01*
X55839000Y-50465146D01*
X56193485Y-50202827D01*
X57574761Y-49369538D01*
X59028327Y-48669935D01*
X60541285Y-48110228D01*
X62100200Y-47695387D01*
X63691244Y-47429094D01*
X65300273Y-47313714D01*
X66913022Y-47350268D01*
G04 #@! TA.AperFunction,Conductor*
D34*
G36*
X66913022Y-47350268D02*
G01*
X68515195Y-47538436D01*
X70092523Y-47876542D01*
X71631037Y-48361588D01*
X73117089Y-48989274D01*
X74537466Y-49754019D01*
X75879573Y-50649041D01*
X77131492Y-51666392D01*
X78282115Y-52797044D01*
X79321226Y-54030962D01*
X80239605Y-55357193D01*
X81029097Y-56763961D01*
X81682701Y-58238796D01*
X82194608Y-59768583D01*
X82560279Y-61339770D01*
X82776463Y-62938375D01*
X82841246Y-64550246D01*
X82754051Y-66161052D01*
X82515655Y-67756501D01*
X82128164Y-69322458D01*
X81595034Y-70844971D01*
X80920981Y-72310571D01*
X80111999Y-73706226D01*
X79175265Y-75019553D01*
X78119092Y-76238899D01*
X76952849Y-77353446D01*
X75686902Y-78353286D01*
X74332486Y-79229548D01*
X72901602Y-79974469D01*
X71403005Y-80583033D01*
X70606060Y-80842001D01*
X70574109Y-80851693D01*
X70551618Y-80863715D01*
X70550267Y-80836203D01*
X70550171Y-80835228D01*
X70537560Y-80771901D01*
X70537275Y-80770963D01*
X70512717Y-80711686D01*
X70512255Y-80710821D01*
X70476597Y-80657387D01*
X70475976Y-80656629D01*
X70430037Y-80610690D01*
X70429279Y-80610069D01*
X70375845Y-80574411D01*
X70374980Y-80573949D01*
X70315703Y-80549391D01*
X70314765Y-80549106D01*
X70251438Y-80536495D01*
X70250463Y-80536399D01*
X70218266Y-80534818D01*
X70083200Y-80534818D01*
X70083200Y-79653888D01*
X70122552Y-79632854D01*
X70192802Y-79575202D01*
X70250454Y-79504952D01*
X70293294Y-79424805D01*
X70319674Y-79337840D01*
X70328582Y-79247400D01*
X70328582Y-78977400D01*
X70319674Y-78886960D01*
X70293294Y-78799995D01*
X70250454Y-78719848D01*
X70192802Y-78649598D01*
X70135290Y-78602400D01*
X70192802Y-78555202D01*
X70250454Y-78484952D01*
X70293294Y-78404805D01*
X70319674Y-78317840D01*
X70328582Y-78227400D01*
X70328582Y-77957400D01*
X70319674Y-77866960D01*
X70293294Y-77779995D01*
X70250454Y-77699848D01*
X70192802Y-77629598D01*
X70122552Y-77571946D01*
X70042405Y-77529106D01*
X69955440Y-77502726D01*
X69865000Y-77493818D01*
X69495000Y-77493818D01*
X69404560Y-77502726D01*
X69317595Y-77529106D01*
X69237448Y-77571946D01*
X69167198Y-77629598D01*
X69118284Y-77689200D01*
X67111133Y-77689200D01*
X66309218Y-76887286D01*
X66320094Y-76890585D01*
X66431750Y-76901582D01*
X67344250Y-76901582D01*
X67455906Y-76890585D01*
X67563272Y-76858016D01*
X67662221Y-76805127D01*
X67748950Y-76733950D01*
X67820127Y-76647221D01*
X67873016Y-76548272D01*
X67905585Y-76440906D01*
X67908156Y-76414800D01*
X68025987Y-76414800D01*
X68044052Y-76448597D01*
X68103259Y-76520741D01*
X68175403Y-76579948D01*
X68257711Y-76623942D01*
X68347021Y-76651034D01*
X68439900Y-76660182D01*
X68734900Y-76660182D01*
X68827779Y-76651034D01*
X68917089Y-76623942D01*
X68999397Y-76579948D01*
X69071541Y-76520741D01*
X69072400Y-76519694D01*
X69073259Y-76520741D01*
X69145403Y-76579948D01*
X69227711Y-76623942D01*
X69317021Y-76651034D01*
X69409900Y-76660182D01*
X69704900Y-76660182D01*
X69797779Y-76651034D01*
X69887089Y-76623942D01*
X69969397Y-76579948D01*
X70041541Y-76520741D01*
X70070182Y-76485842D01*
X70158846Y-76545086D01*
X70268403Y-76590466D01*
X70384708Y-76613600D01*
X70503292Y-76613600D01*
X70619597Y-76590466D01*
X70729154Y-76545086D01*
X70827753Y-76479204D01*
X70911604Y-76395353D01*
X70977486Y-76296754D01*
X71022866Y-76187197D01*
X71046000Y-76070892D01*
X71046000Y-75952308D01*
X71022866Y-75836003D01*
X70977486Y-75726446D01*
X70911604Y-75627847D01*
X70827753Y-75543996D01*
X70729154Y-75478114D01*
X70619597Y-75432734D01*
X70503292Y-75409600D01*
X70384708Y-75409600D01*
X70268403Y-75432734D01*
X70158846Y-75478114D01*
X70070182Y-75537358D01*
X70041541Y-75502459D01*
X69969397Y-75443252D01*
X69887089Y-75399258D01*
X69797779Y-75372166D01*
X69704900Y-75363018D01*
X69409900Y-75363018D01*
X69317021Y-75372166D01*
X69227711Y-75399258D01*
X69145403Y-75443252D01*
X69073259Y-75502459D01*
X69072400Y-75503506D01*
X69071541Y-75502459D01*
X68999397Y-75443252D01*
X68917089Y-75399258D01*
X68827779Y-75372166D01*
X68734900Y-75363018D01*
X68439900Y-75363018D01*
X68347021Y-75372166D01*
X68299021Y-75386727D01*
X68335886Y-75331554D01*
X68336897Y-75329113D01*
X68349821Y-75333034D01*
X68442700Y-75342182D01*
X68787700Y-75342182D01*
X68880579Y-75333034D01*
X68969889Y-75305942D01*
X69052197Y-75261948D01*
X69124341Y-75202741D01*
X69183548Y-75130597D01*
X69188250Y-75121800D01*
X69198923Y-75121800D01*
X69223659Y-75151941D01*
X69295803Y-75211148D01*
X69378111Y-75255142D01*
X69467421Y-75282234D01*
X69560300Y-75291382D01*
X69905300Y-75291382D01*
X69998179Y-75282234D01*
X70087489Y-75255142D01*
X70169797Y-75211148D01*
X70241941Y-75151941D01*
X70248722Y-75143679D01*
X70263447Y-75158404D01*
X70362046Y-75224286D01*
X70471603Y-75269666D01*
X70587908Y-75292800D01*
X70706492Y-75292800D01*
X70822797Y-75269666D01*
X70932354Y-75224286D01*
X71030953Y-75158404D01*
X71114804Y-75074553D01*
X71180686Y-74975954D01*
X71226066Y-74866397D01*
X71249200Y-74750092D01*
X71249200Y-74631508D01*
X71226066Y-74515203D01*
X71180686Y-74405646D01*
X71114804Y-74307047D01*
X71030953Y-74223196D01*
X70932354Y-74157314D01*
X70822797Y-74111934D01*
X70706492Y-74088800D01*
X70587908Y-74088800D01*
X70471603Y-74111934D01*
X70367800Y-74154931D01*
X70367800Y-73952796D01*
X70372234Y-73938179D01*
X70381382Y-73845300D01*
X70381382Y-73550300D01*
X70372234Y-73457421D01*
X70367800Y-73442804D01*
X70367800Y-73121595D01*
X70428697Y-73140068D01*
X70492800Y-73146382D01*
X72292800Y-73146382D01*
X72356903Y-73140068D01*
X72418543Y-73121370D01*
X72475350Y-73091006D01*
X72525143Y-73050143D01*
X72561369Y-73006000D01*
X72569750Y-73006000D01*
X72574452Y-73014797D01*
X72633659Y-73086941D01*
X72705803Y-73146148D01*
X72788111Y-73190142D01*
X72877421Y-73217234D01*
X72970300Y-73226382D01*
X73315300Y-73226382D01*
X73408179Y-73217234D01*
X73497489Y-73190142D01*
X73579797Y-73146148D01*
X73651941Y-73086941D01*
X73711148Y-73014797D01*
X73755142Y-72932489D01*
X73782234Y-72843179D01*
X73791382Y-72750300D01*
X73791382Y-72455300D01*
X73782234Y-72362421D01*
X73755142Y-72273111D01*
X73711148Y-72190803D01*
X73651941Y-72118659D01*
X73650894Y-72117800D01*
X73651941Y-72116941D01*
X73711148Y-72044797D01*
X73755142Y-71962489D01*
X73782234Y-71873179D01*
X73791382Y-71780300D01*
X73791382Y-71600739D01*
X73816446Y-71617486D01*
X73926003Y-71662866D01*
X74042308Y-71686000D01*
X74160892Y-71686000D01*
X74277197Y-71662866D01*
X74386754Y-71617486D01*
X74485353Y-71551604D01*
X74569204Y-71467753D01*
X74635086Y-71369154D01*
X74680466Y-71259597D01*
X74703600Y-71143292D01*
X74703600Y-71024708D01*
X74680466Y-70908403D01*
X74635086Y-70798846D01*
X74569204Y-70700247D01*
X74485353Y-70616396D01*
X74386754Y-70550514D01*
X74277197Y-70505134D01*
X74160892Y-70482000D01*
X74042308Y-70482000D01*
X73926003Y-70505134D01*
X73816446Y-70550514D01*
X73781382Y-70573943D01*
X73781382Y-70355300D01*
X73772234Y-70262421D01*
X73745142Y-70173111D01*
X73701148Y-70090803D01*
X73641941Y-70018659D01*
X73640894Y-70017800D01*
X73641941Y-70016941D01*
X73701148Y-69944797D01*
X73745142Y-69862489D01*
X73772234Y-69773179D01*
X73781382Y-69680300D01*
X73781382Y-69385300D01*
X73772234Y-69292421D01*
X73745142Y-69203111D01*
X73701148Y-69120803D01*
X73641941Y-69048659D01*
X73569797Y-68989452D01*
X73487489Y-68945458D01*
X73398179Y-68918366D01*
X73305300Y-68909218D01*
X72960300Y-68909218D01*
X72867421Y-68918366D01*
X72778111Y-68945458D01*
X72695803Y-68989452D01*
X72623659Y-69048659D01*
X72564452Y-69120803D01*
X72560389Y-69128405D01*
X72525143Y-69085457D01*
X72475350Y-69044594D01*
X72418543Y-69014230D01*
X72356903Y-68995532D01*
X72292800Y-68989218D01*
X70492800Y-68989218D01*
X70428697Y-68995532D01*
X70367057Y-69014230D01*
X70310250Y-69044594D01*
X70260457Y-69085457D01*
X70219594Y-69135250D01*
X70189230Y-69192057D01*
X70170532Y-69253697D01*
X70164218Y-69317800D01*
X70164218Y-70317800D01*
X70170532Y-70381903D01*
X70183241Y-70423800D01*
X69354082Y-70423800D01*
X69354082Y-70377000D01*
X69346808Y-70303142D01*
X69325264Y-70232123D01*
X69322526Y-70227000D01*
X69325264Y-70221877D01*
X69346808Y-70150858D01*
X69354082Y-70077000D01*
X69354082Y-69977000D01*
X69349560Y-69931084D01*
X69380129Y-69873892D01*
X69401972Y-69801885D01*
X69409348Y-69727000D01*
X69407500Y-69722500D01*
X69312000Y-69627000D01*
X69407500Y-69531500D01*
X69409348Y-69527000D01*
X69401972Y-69452115D01*
X69380129Y-69380108D01*
X69349560Y-69322916D01*
X69354082Y-69277000D01*
X69354082Y-69177000D01*
X69346808Y-69103142D01*
X69325264Y-69032123D01*
X69322526Y-69027000D01*
X69325264Y-69021877D01*
X69346808Y-68950858D01*
X69354082Y-68877000D01*
X69354082Y-68777000D01*
X69346808Y-68703142D01*
X69325264Y-68632123D01*
X69322526Y-68627000D01*
X69325264Y-68621877D01*
X69346808Y-68550858D01*
X69354082Y-68477000D01*
X69354082Y-68377000D01*
X69346808Y-68303142D01*
X69325264Y-68232123D01*
X69322526Y-68227000D01*
X69325264Y-68221877D01*
X69346808Y-68150858D01*
X69354082Y-68077000D01*
X69354082Y-67977000D01*
X69349733Y-67932838D01*
X69373316Y-67913484D01*
X69385939Y-67898103D01*
X70955053Y-66328990D01*
X75808299Y-66328990D01*
X75807018Y-66342000D01*
X75807018Y-66682000D01*
X75816022Y-66773416D01*
X75842687Y-66861319D01*
X75885988Y-66942330D01*
X75938600Y-67006439D01*
X75938601Y-67243230D01*
X75904914Y-67293646D01*
X75859534Y-67403203D01*
X75836400Y-67519508D01*
X75836400Y-67638092D01*
X75859534Y-67754397D01*
X75904914Y-67863954D01*
X75970796Y-67962553D01*
X76054647Y-68046404D01*
X76153246Y-68112286D01*
X76262803Y-68157666D01*
X76379108Y-68180800D01*
X76497692Y-68180800D01*
X76613997Y-68157666D01*
X76723554Y-68112286D01*
X76822153Y-68046404D01*
X76906004Y-67962553D01*
X76971886Y-67863954D01*
X77017266Y-67754397D01*
X77040400Y-67638092D01*
X77040400Y-67519508D01*
X77017266Y-67403203D01*
X76971886Y-67293646D01*
X76906004Y-67195047D01*
X76892600Y-67181643D01*
X76892600Y-67006439D01*
X76895600Y-67002783D01*
X76904262Y-67013338D01*
X76975270Y-67071612D01*
X77056281Y-67114913D01*
X77144184Y-67141578D01*
X77235600Y-67150582D01*
X77515600Y-67150582D01*
X77607016Y-67141578D01*
X77694919Y-67114913D01*
X77775930Y-67071612D01*
X77846938Y-67013338D01*
X77866911Y-66989000D01*
X79310585Y-66989000D01*
X79334000Y-66991306D01*
X79357415Y-66989000D01*
X79357423Y-66989000D01*
X79427508Y-66982097D01*
X79517423Y-66954822D01*
X79566514Y-66928582D01*
X80946000Y-66928582D01*
X81010103Y-66922268D01*
X81071743Y-66903570D01*
X81128550Y-66873206D01*
X81178343Y-66832343D01*
X81219206Y-66782550D01*
X81249570Y-66725743D01*
X81268268Y-66664103D01*
X81274582Y-66600000D01*
X81274582Y-64900000D01*
X81268268Y-64835897D01*
X81249570Y-64774257D01*
X81219206Y-64717450D01*
X81178343Y-64667657D01*
X81128550Y-64626794D01*
X81071743Y-64596430D01*
X81010103Y-64577732D01*
X80946000Y-64571418D01*
X79246000Y-64571418D01*
X79181897Y-64577732D01*
X79120257Y-64596430D01*
X79063450Y-64626794D01*
X79013657Y-64667657D01*
X78972794Y-64717450D01*
X78942430Y-64774257D01*
X78923732Y-64835897D01*
X78917418Y-64900000D01*
X78917418Y-66035000D01*
X77866911Y-66035000D01*
X77846938Y-66010662D01*
X77775930Y-65952388D01*
X77694919Y-65909087D01*
X77607016Y-65882422D01*
X77515600Y-65873418D01*
X77307228Y-65873418D01*
X77088497Y-65654687D01*
X77075874Y-65639306D01*
X77014479Y-65588920D01*
X76944434Y-65551480D01*
X76868431Y-65528425D01*
X76809188Y-65522590D01*
X76809181Y-65522590D01*
X76789390Y-65520641D01*
X76769599Y-65522590D01*
X70900120Y-65522590D01*
X73188500Y-63234210D01*
X76667999Y-63234210D01*
X76687790Y-63236159D01*
X76707581Y-63234210D01*
X76707588Y-63234210D01*
X76766831Y-63228375D01*
X76842834Y-63205320D01*
X76912879Y-63167880D01*
X76974274Y-63117494D01*
X76986897Y-63102113D01*
X77205628Y-62883382D01*
X77414000Y-62883382D01*
X77505416Y-62874378D01*
X77593319Y-62847713D01*
X77674330Y-62804412D01*
X77745338Y-62746138D01*
X77765311Y-62721800D01*
X78933221Y-62721800D01*
X78997583Y-62786163D01*
X78964231Y-62866682D01*
X78919000Y-63094076D01*
X78919000Y-63325924D01*
X78964231Y-63553318D01*
X79052956Y-63767519D01*
X79181764Y-63960294D01*
X79345706Y-64124236D01*
X79538481Y-64253044D01*
X79752682Y-64341769D01*
X79980076Y-64387000D01*
X80211924Y-64387000D01*
X80439318Y-64341769D01*
X80653519Y-64253044D01*
X80846294Y-64124236D01*
X81010236Y-63960294D01*
X81139044Y-63767519D01*
X81227769Y-63553318D01*
X81273000Y-63325924D01*
X81273000Y-63094076D01*
X81227769Y-62866682D01*
X81139044Y-62652481D01*
X81010236Y-62459706D01*
X80846294Y-62295764D01*
X80653519Y-62166956D01*
X80439318Y-62078231D01*
X80211924Y-62033000D01*
X79980076Y-62033000D01*
X79752682Y-62078231D01*
X79672163Y-62111583D01*
X79484655Y-61924076D01*
X79469721Y-61905879D01*
X79397089Y-61846271D01*
X79314223Y-61801978D01*
X79224308Y-61774703D01*
X79154223Y-61767800D01*
X79154215Y-61767800D01*
X79130800Y-61765494D01*
X79107385Y-61767800D01*
X77765311Y-61767800D01*
X77745338Y-61743462D01*
X77674330Y-61685188D01*
X77593319Y-61641887D01*
X77505416Y-61615222D01*
X77414000Y-61606218D01*
X77134000Y-61606218D01*
X77042584Y-61615222D01*
X76954681Y-61641887D01*
X76873670Y-61685188D01*
X76802662Y-61743462D01*
X76794000Y-61754017D01*
X76791000Y-61750361D01*
X76791000Y-61524357D01*
X76804404Y-61510953D01*
X76870286Y-61412354D01*
X76915666Y-61302797D01*
X76938800Y-61186492D01*
X76938800Y-61067908D01*
X76915666Y-60951603D01*
X76870286Y-60842046D01*
X76804404Y-60743447D01*
X76720553Y-60659596D01*
X76621954Y-60593714D01*
X76512397Y-60548334D01*
X76396092Y-60525200D01*
X76277508Y-60525200D01*
X76161203Y-60548334D01*
X76051646Y-60593714D01*
X75953047Y-60659596D01*
X75869196Y-60743447D01*
X75803314Y-60842046D01*
X75757934Y-60951603D01*
X75734800Y-61067908D01*
X75734800Y-61186492D01*
X75757934Y-61302797D01*
X75803314Y-61412354D01*
X75837001Y-61462770D01*
X75837000Y-61750361D01*
X75784388Y-61814470D01*
X75741087Y-61895481D01*
X75714422Y-61983384D01*
X75705418Y-62074800D01*
X75705418Y-62414800D01*
X75706699Y-62427810D01*
X73041281Y-62427810D01*
X73021490Y-62425861D01*
X73001699Y-62427810D01*
X73001692Y-62427810D01*
X72945637Y-62433331D01*
X72942449Y-62433645D01*
X72866445Y-62456700D01*
X72841769Y-62469890D01*
X72796401Y-62494140D01*
X72735006Y-62544526D01*
X72722383Y-62559907D01*
X68483872Y-66798418D01*
X68358870Y-66798418D01*
X68357500Y-66573000D01*
X68262000Y-66477500D01*
X67904082Y-66477500D01*
X67904082Y-66476500D01*
X68262000Y-66476500D01*
X68357500Y-66381000D01*
X68359348Y-66077000D01*
X68351972Y-66002115D01*
X68330129Y-65930108D01*
X68294658Y-65863745D01*
X68246922Y-65805578D01*
X68188755Y-65757842D01*
X68122392Y-65722371D01*
X68050385Y-65700528D01*
X67975500Y-65693152D01*
X67971000Y-65695000D01*
X67902490Y-65763510D01*
X67902490Y-65712120D01*
X68020211Y-65594400D01*
X68780427Y-65594400D01*
X68800218Y-65596349D01*
X68820009Y-65594400D01*
X68820016Y-65594400D01*
X68879259Y-65588565D01*
X68955262Y-65565510D01*
X69025307Y-65528070D01*
X69086702Y-65477684D01*
X69099325Y-65462303D01*
X74049311Y-60512318D01*
X74064685Y-60499701D01*
X74089517Y-60469444D01*
X74115070Y-60438307D01*
X74115071Y-60438306D01*
X74152511Y-60368261D01*
X74175566Y-60292258D01*
X74181401Y-60233015D01*
X74181401Y-60233006D01*
X74183350Y-60213218D01*
X74181401Y-60193430D01*
X74181401Y-56522988D01*
X74183350Y-56503200D01*
X74181401Y-56483412D01*
X74181401Y-56483403D01*
X74175566Y-56424160D01*
X74152511Y-56348157D01*
X74115071Y-56278112D01*
X74090091Y-56247674D01*
X74077305Y-56232094D01*
X74077303Y-56232092D01*
X74064685Y-56216717D01*
X74049310Y-56204099D01*
X73839909Y-55994698D01*
X73869000Y-55848452D01*
X73869000Y-55685548D01*
X73837218Y-55525773D01*
X73774877Y-55375269D01*
X73684372Y-55239819D01*
X73569181Y-55124628D01*
X73445200Y-55041786D01*
X73445200Y-54599261D01*
X73474597Y-54583548D01*
X73546741Y-54524341D01*
X73605948Y-54452197D01*
X73649942Y-54369889D01*
X73677034Y-54280579D01*
X73686182Y-54187700D01*
X73686182Y-53842700D01*
X73677034Y-53749821D01*
X73649942Y-53660511D01*
X73605948Y-53578203D01*
X73546741Y-53506059D01*
X73474597Y-53446852D01*
X73392289Y-53402858D01*
X73302979Y-53375766D01*
X73210100Y-53366618D01*
X72915100Y-53366618D01*
X72822221Y-53375766D01*
X72732911Y-53402858D01*
X72669617Y-53436689D01*
X72659022Y-53423778D01*
X72600855Y-53376042D01*
X72534492Y-53340571D01*
X72462485Y-53318728D01*
X72387600Y-53311352D01*
X72188600Y-53313200D01*
X72093100Y-53408700D01*
X72093100Y-54014700D01*
X72113100Y-54014700D01*
X72113100Y-54015700D01*
X72093100Y-54015700D01*
X72093100Y-54621700D01*
X72188600Y-54717200D01*
X72387600Y-54719048D01*
X72462485Y-54711672D01*
X72534492Y-54689829D01*
X72600855Y-54654358D01*
X72638801Y-54623217D01*
X72638800Y-55041786D01*
X72514819Y-55124628D01*
X72399628Y-55239819D01*
X72309123Y-55375269D01*
X72246782Y-55525773D01*
X72215000Y-55685548D01*
X72215000Y-55848452D01*
X72244091Y-55994699D01*
X71832790Y-56406000D01*
X69926957Y-56406000D01*
X69862553Y-56341596D01*
X69763954Y-56275714D01*
X69654397Y-56230334D01*
X69538092Y-56207200D01*
X69419508Y-56207200D01*
X69303203Y-56230334D01*
X69193646Y-56275714D01*
X69095047Y-56341596D01*
X69030643Y-56406000D01*
X68945400Y-56406000D01*
X68945400Y-56178510D01*
X68970060Y-56148463D01*
X69008510Y-56076528D01*
X69032187Y-55998474D01*
X69040182Y-55917300D01*
X69040182Y-55742300D01*
X69032187Y-55661126D01*
X69008510Y-55583072D01*
X68970060Y-55511137D01*
X68945400Y-55481090D01*
X68945400Y-54335200D01*
X71413752Y-54335200D01*
X71421128Y-54410085D01*
X71442971Y-54482092D01*
X71478442Y-54548455D01*
X71526178Y-54606622D01*
X71584345Y-54654358D01*
X71650708Y-54689829D01*
X71722715Y-54711672D01*
X71797600Y-54719048D01*
X71996600Y-54717200D01*
X72092100Y-54621700D01*
X72092100Y-54015700D01*
X71511100Y-54015700D01*
X71415600Y-54111200D01*
X71413752Y-54335200D01*
X68945400Y-54335200D01*
X68945400Y-53695200D01*
X71413752Y-53695200D01*
X71415600Y-53919200D01*
X71511100Y-54014700D01*
X72092100Y-54014700D01*
X72092100Y-53408700D01*
X71996600Y-53313200D01*
X71797600Y-53311352D01*
X71722715Y-53318728D01*
X71650708Y-53340571D01*
X71584345Y-53376042D01*
X71526178Y-53423778D01*
X71478442Y-53481945D01*
X71442971Y-53548308D01*
X71421128Y-53620315D01*
X71413752Y-53695200D01*
X68945400Y-53695200D01*
X68945400Y-53050000D01*
X68942960Y-53025224D01*
X68935733Y-53001399D01*
X68923997Y-52979443D01*
X68908203Y-52960197D01*
X68888957Y-52944403D01*
X68867001Y-52932667D01*
X68843176Y-52925440D01*
X68818400Y-52923000D01*
X68052781Y-52923000D01*
X67963292Y-52905200D01*
X67844708Y-52905200D01*
X67755219Y-52923000D01*
X64699981Y-52923000D01*
X64610492Y-52905200D01*
X64491908Y-52905200D01*
X64402419Y-52923000D01*
X62214400Y-52923000D01*
X62189624Y-52925440D01*
X62165799Y-52932667D01*
X62143843Y-52944403D01*
X62124597Y-52960197D01*
X62108803Y-52979443D01*
X62097067Y-53001399D01*
X62089840Y-53025224D01*
X62087400Y-53050000D01*
X62087400Y-57774400D01*
X62089840Y-57799176D01*
X62097067Y-57823001D01*
X62108803Y-57844957D01*
X62124597Y-57864203D01*
X62143843Y-57879997D01*
X62165799Y-57891733D01*
X62189624Y-57898960D01*
X62214400Y-57901400D01*
X64370865Y-57901400D01*
X64334681Y-57969095D01*
X64303535Y-58071771D01*
X64293018Y-58178550D01*
X64293018Y-58691050D01*
X64303535Y-58797829D01*
X64334681Y-58900505D01*
X64385260Y-58995131D01*
X64453328Y-59078072D01*
X64536269Y-59146140D01*
X64630895Y-59196719D01*
X64655900Y-59204304D01*
X64655901Y-61638299D01*
X64653951Y-61658100D01*
X64661735Y-61737141D01*
X64684791Y-61813144D01*
X64722231Y-61883189D01*
X64753483Y-61921269D01*
X64772617Y-61944584D01*
X64787992Y-61957202D01*
X65071018Y-62240228D01*
X65071018Y-62466100D01*
X65080166Y-62558979D01*
X65107258Y-62648289D01*
X65151252Y-62730597D01*
X65210459Y-62802741D01*
X65211506Y-62803600D01*
X65210459Y-62804459D01*
X65151252Y-62876603D01*
X65107258Y-62958911D01*
X65080166Y-63048221D01*
X65071018Y-63141100D01*
X65071018Y-63436100D01*
X65080166Y-63528979D01*
X65107258Y-63618289D01*
X65151252Y-63700597D01*
X65210459Y-63772741D01*
X65282603Y-63831948D01*
X65364911Y-63875942D01*
X65454221Y-63903034D01*
X65472301Y-63904815D01*
X65472300Y-65748418D01*
X65425500Y-65748418D01*
X65351642Y-65755692D01*
X65280623Y-65777236D01*
X65275500Y-65779974D01*
X65270377Y-65777236D01*
X65199358Y-65755692D01*
X65125500Y-65748418D01*
X65025500Y-65748418D01*
X64951642Y-65755692D01*
X64880623Y-65777236D01*
X64875500Y-65779974D01*
X64870377Y-65777236D01*
X64799358Y-65755692D01*
X64725500Y-65748418D01*
X64678700Y-65748418D01*
X64678700Y-65087687D01*
X64680649Y-65067899D01*
X64678700Y-65048111D01*
X64678700Y-65048102D01*
X64672865Y-64988859D01*
X64649810Y-64912856D01*
X64612370Y-64842811D01*
X64591097Y-64816890D01*
X64574604Y-64796793D01*
X64574602Y-64796791D01*
X64561984Y-64781416D01*
X64546609Y-64768798D01*
X60532307Y-60754497D01*
X60519684Y-60739116D01*
X60458289Y-60688730D01*
X60388244Y-60651290D01*
X60312241Y-60628235D01*
X60252998Y-60622400D01*
X60252991Y-60622400D01*
X60233200Y-60620451D01*
X60213409Y-60622400D01*
X59135391Y-60622400D01*
X59115600Y-60620451D01*
X59095809Y-60622400D01*
X59095802Y-60622400D01*
X59036559Y-60628235D01*
X58960555Y-60651290D01*
X58890511Y-60688730D01*
X58844494Y-60726495D01*
X58844493Y-60726496D01*
X58829116Y-60739116D01*
X58816498Y-60754492D01*
X58326851Y-61244139D01*
X58315573Y-61246382D01*
X58165069Y-61308723D01*
X58029619Y-61399228D01*
X57914428Y-61514419D01*
X57823923Y-61649869D01*
X57761582Y-61800373D01*
X57729800Y-61960148D01*
X57729800Y-62123052D01*
X57761582Y-62282827D01*
X57823923Y-62433331D01*
X57914428Y-62568781D01*
X58022247Y-62676600D01*
X57914428Y-62784419D01*
X57823923Y-62919869D01*
X57761582Y-63070373D01*
X57729800Y-63230148D01*
X57729800Y-63393052D01*
X57761582Y-63552827D01*
X57823923Y-63703331D01*
X57914428Y-63838781D01*
X58022247Y-63946600D01*
X57914428Y-64054419D01*
X57823923Y-64189869D01*
X57761582Y-64340373D01*
X57729800Y-64500148D01*
X57729800Y-64663052D01*
X57761582Y-64822827D01*
X57823923Y-64973331D01*
X57858190Y-65024614D01*
X57843545Y-65032442D01*
X57785378Y-65080178D01*
X57737642Y-65138345D01*
X57702171Y-65204708D01*
X57680328Y-65276715D01*
X57672952Y-65351600D01*
X57674800Y-65755600D01*
X57770300Y-65851100D01*
X58556300Y-65851100D01*
X58556300Y-65831100D01*
X58557300Y-65831100D01*
X58557300Y-65851100D01*
X58577300Y-65851100D01*
X58577300Y-65852100D01*
X58557300Y-65852100D01*
X58557300Y-65872100D01*
X58556300Y-65872100D01*
X58556300Y-65852100D01*
X57770300Y-65852100D01*
X57674800Y-65947600D01*
X57672952Y-66351600D01*
X57680328Y-66426485D01*
X57699534Y-66489800D01*
X55839000Y-66489800D01*
X55839000Y-54058500D01*
X55901652Y-54058500D01*
X55909028Y-54133385D01*
X55930871Y-54205392D01*
X55966342Y-54271755D01*
X56014078Y-54329922D01*
X56072245Y-54377658D01*
X56138608Y-54413129D01*
X56210615Y-54434972D01*
X56285500Y-54442348D01*
X56469500Y-54440500D01*
X56565000Y-54345000D01*
X56565000Y-53749000D01*
X55999000Y-53749000D01*
X55903500Y-53844500D01*
X55901652Y-54058500D01*
X55839000Y-54058500D01*
X55839000Y-53438500D01*
X55901652Y-53438500D01*
X55903500Y-53652500D01*
X55999000Y-53748000D01*
X56565000Y-53748000D01*
X56565000Y-53728000D01*
X56566000Y-53728000D01*
X56566000Y-53748000D01*
X56586000Y-53748000D01*
X56586000Y-53749000D01*
X56566000Y-53749000D01*
X56566000Y-54345000D01*
X56661500Y-54440500D01*
X56845500Y-54442348D01*
X56920385Y-54434972D01*
X56992392Y-54413129D01*
X57018608Y-54399117D01*
X56956514Y-54492046D01*
X56911134Y-54601603D01*
X56888000Y-54717908D01*
X56888000Y-54836492D01*
X56911134Y-54952797D01*
X56956514Y-55062354D01*
X57022396Y-55160953D01*
X57106247Y-55244804D01*
X57204846Y-55310686D01*
X57314403Y-55356066D01*
X57430708Y-55379200D01*
X57549292Y-55379200D01*
X57665597Y-55356066D01*
X57775154Y-55310686D01*
X57873753Y-55244804D01*
X57957604Y-55160953D01*
X58023486Y-55062354D01*
X58052243Y-54992929D01*
X58089578Y-55038422D01*
X58147745Y-55086158D01*
X58214108Y-55121629D01*
X58286115Y-55143472D01*
X58361000Y-55150848D01*
X58535000Y-55149000D01*
X58630500Y-55053500D01*
X58630500Y-54447500D01*
X58610500Y-54447500D01*
X58610500Y-54446500D01*
X58630500Y-54446500D01*
X58630500Y-53840500D01*
X58631500Y-53840500D01*
X58631500Y-54446500D01*
X58651500Y-54446500D01*
X58651500Y-54447500D01*
X58631500Y-54447500D01*
X58631500Y-55053500D01*
X58727000Y-55149000D01*
X58901000Y-55150848D01*
X58975885Y-55143472D01*
X59047892Y-55121629D01*
X59114255Y-55086158D01*
X59172422Y-55038422D01*
X59217326Y-54983706D01*
X59247800Y-55008716D01*
X59247801Y-59306001D01*
X59245851Y-59325802D01*
X59246554Y-59332942D01*
X59224800Y-59442310D01*
X59224800Y-59560894D01*
X59247934Y-59677199D01*
X59293314Y-59786756D01*
X59359196Y-59885355D01*
X59443047Y-59969206D01*
X59541646Y-60035088D01*
X59651203Y-60080468D01*
X59767508Y-60103602D01*
X59886092Y-60103602D01*
X60002397Y-60080468D01*
X60111954Y-60035088D01*
X60210553Y-59969206D01*
X60294404Y-59885355D01*
X60360286Y-59786756D01*
X60405666Y-59677199D01*
X60428800Y-59560894D01*
X60428800Y-59442310D01*
X60405666Y-59326005D01*
X60360286Y-59216448D01*
X60294404Y-59117849D01*
X60210553Y-59033998D01*
X60111954Y-58968116D01*
X60054200Y-58944194D01*
X60054200Y-55008716D01*
X60113802Y-54959802D01*
X60171454Y-54889552D01*
X60214294Y-54809405D01*
X60240674Y-54722440D01*
X60249582Y-54632000D01*
X60249582Y-54262000D01*
X60240674Y-54171560D01*
X60214294Y-54084595D01*
X60171454Y-54004448D01*
X60113802Y-53934198D01*
X60043552Y-53876546D01*
X59963405Y-53833706D01*
X59876440Y-53807326D01*
X59786000Y-53798418D01*
X59516000Y-53798418D01*
X59425560Y-53807326D01*
X59338595Y-53833706D01*
X59258448Y-53876546D01*
X59217326Y-53910294D01*
X59172422Y-53855578D01*
X59114255Y-53807842D01*
X59047892Y-53772371D01*
X58975885Y-53750528D01*
X58901000Y-53743152D01*
X58727000Y-53745000D01*
X58631500Y-53840500D01*
X58630500Y-53840500D01*
X58562862Y-53772862D01*
X58750142Y-53585582D01*
X59289500Y-53585582D01*
X59353603Y-53579268D01*
X59415243Y-53560570D01*
X59472050Y-53530206D01*
X59521843Y-53489343D01*
X59562706Y-53439550D01*
X59583307Y-53401008D01*
X59598114Y-53436754D01*
X59663996Y-53535353D01*
X59747847Y-53619204D01*
X59846446Y-53685086D01*
X59956003Y-53730466D01*
X60072308Y-53753600D01*
X60190892Y-53753600D01*
X60307197Y-53730466D01*
X60416754Y-53685086D01*
X60515353Y-53619204D01*
X60599204Y-53535353D01*
X60665086Y-53436754D01*
X60710466Y-53327197D01*
X60733600Y-53210892D01*
X60733600Y-53092308D01*
X60710466Y-52976003D01*
X60665086Y-52866446D01*
X60599204Y-52767847D01*
X60515353Y-52683996D01*
X60442897Y-52635582D01*
X61289500Y-52635582D01*
X61353603Y-52629268D01*
X61415243Y-52610570D01*
X61472050Y-52580206D01*
X61521843Y-52539343D01*
X61562706Y-52489550D01*
X61593070Y-52432743D01*
X61611768Y-52371103D01*
X61618082Y-52307000D01*
X61618082Y-51767641D01*
X63134924Y-50250800D01*
X65218643Y-50250800D01*
X65234247Y-50266404D01*
X65332846Y-50332286D01*
X65442403Y-50377666D01*
X65558708Y-50400800D01*
X65677292Y-50400800D01*
X65793597Y-50377666D01*
X65903154Y-50332286D01*
X66001753Y-50266404D01*
X66085604Y-50182553D01*
X66151486Y-50083954D01*
X66196866Y-49974397D01*
X66220000Y-49858092D01*
X66220000Y-49739508D01*
X66196866Y-49623203D01*
X66151486Y-49513646D01*
X66085604Y-49415047D01*
X66001753Y-49331196D01*
X65903154Y-49265314D01*
X65793597Y-49219934D01*
X65677292Y-49196800D01*
X65558708Y-49196800D01*
X65442403Y-49219934D01*
X65332846Y-49265314D01*
X65234247Y-49331196D01*
X65218643Y-49346800D01*
X62969904Y-49346800D01*
X62947699Y-49344613D01*
X62859092Y-49353340D01*
X62824894Y-49363714D01*
X62773890Y-49379186D01*
X62695367Y-49421157D01*
X62626541Y-49477641D01*
X62612381Y-49494895D01*
X60928859Y-51178418D01*
X60389500Y-51178418D01*
X60325397Y-51184732D01*
X60263757Y-51203430D01*
X60206950Y-51233794D01*
X60157157Y-51274657D01*
X60116294Y-51324450D01*
X60085930Y-51381257D01*
X60067232Y-51442897D01*
X60060918Y-51507000D01*
X60060918Y-52307000D01*
X60067232Y-52371103D01*
X60085930Y-52432743D01*
X60116294Y-52489550D01*
X60146288Y-52526099D01*
X60089333Y-52479357D01*
X60010810Y-52437386D01*
X59925607Y-52411540D01*
X59859205Y-52405000D01*
X59837000Y-52402813D01*
X59814795Y-52405000D01*
X59612960Y-52405000D01*
X59611768Y-52392897D01*
X59593070Y-52331257D01*
X59562706Y-52274450D01*
X59521843Y-52224657D01*
X59472050Y-52183794D01*
X59415243Y-52153430D01*
X59353603Y-52134732D01*
X59289500Y-52128418D01*
X58426841Y-52128418D01*
X58346000Y-52047577D01*
X58346000Y-52025508D01*
X58322866Y-51909203D01*
X58277486Y-51799646D01*
X58211604Y-51701047D01*
X58127753Y-51617196D01*
X58029154Y-51551314D01*
X57919597Y-51505934D01*
X57803292Y-51482800D01*
X57684708Y-51482800D01*
X57568403Y-51505934D01*
X57458846Y-51551314D01*
X57360247Y-51617196D01*
X57313082Y-51664361D01*
X57313082Y-51641642D01*
X57545725Y-51409000D01*
X58066040Y-51409000D01*
X58067232Y-51421103D01*
X58085930Y-51482743D01*
X58116294Y-51539550D01*
X58157157Y-51589343D01*
X58206950Y-51630206D01*
X58263757Y-51660570D01*
X58325397Y-51679268D01*
X58389500Y-51685582D01*
X59289500Y-51685582D01*
X59353603Y-51679268D01*
X59415243Y-51660570D01*
X59472050Y-51630206D01*
X59521843Y-51589343D01*
X59562706Y-51539550D01*
X59593070Y-51482743D01*
X59611768Y-51421103D01*
X59618082Y-51357000D01*
X59618082Y-50557000D01*
X59611768Y-50492897D01*
X59593070Y-50431257D01*
X59562706Y-50374450D01*
X59521843Y-50324657D01*
X59472050Y-50283794D01*
X59415243Y-50253430D01*
X59353603Y-50234732D01*
X59289500Y-50228418D01*
X58389500Y-50228418D01*
X58325397Y-50234732D01*
X58263757Y-50253430D01*
X58206950Y-50283794D01*
X58157157Y-50324657D01*
X58116294Y-50374450D01*
X58085930Y-50431257D01*
X58067232Y-50492897D01*
X58066040Y-50505000D01*
X57380704Y-50505000D01*
X57358499Y-50502813D01*
X57269892Y-50511540D01*
X57263573Y-50513457D01*
X57184690Y-50537386D01*
X57106167Y-50579357D01*
X57037341Y-50635841D01*
X57023185Y-50653090D01*
X56623858Y-51052418D01*
X56479500Y-51052418D01*
X56389060Y-51061326D01*
X56302095Y-51087706D01*
X56221948Y-51130546D01*
X56151698Y-51188198D01*
X56094046Y-51258448D01*
X56051206Y-51338595D01*
X56024826Y-51425560D01*
X56015918Y-51516000D01*
X56015918Y-51786000D01*
X56024826Y-51876440D01*
X56051206Y-51963405D01*
X56094046Y-52043552D01*
X56127794Y-52084674D01*
X56073078Y-52129578D01*
X56025342Y-52187745D01*
X55989871Y-52254108D01*
X55968028Y-52326115D01*
X55960652Y-52401000D01*
X55962500Y-52575000D01*
X56058000Y-52670500D01*
X56664000Y-52670500D01*
X56664000Y-52650500D01*
X56665000Y-52650500D01*
X56665000Y-52670500D01*
X57271000Y-52670500D01*
X57366500Y-52575000D01*
X57366694Y-52556712D01*
X57458846Y-52618286D01*
X57568403Y-52663666D01*
X57684708Y-52686800D01*
X57706777Y-52686800D01*
X58038626Y-53018650D01*
X57888397Y-53168880D01*
X57844819Y-53145587D01*
X57756916Y-53118922D01*
X57665500Y-53109918D01*
X57385500Y-53109918D01*
X57324125Y-53115963D01*
X57339129Y-53087892D01*
X57360972Y-53015885D01*
X57368348Y-52941000D01*
X57366500Y-52767000D01*
X57271000Y-52671500D01*
X56665000Y-52671500D01*
X56665000Y-52691500D01*
X56664000Y-52691500D01*
X56664000Y-52671500D01*
X56058000Y-52671500D01*
X55962500Y-52767000D01*
X55960652Y-52941000D01*
X55968028Y-53015885D01*
X55989871Y-53087892D01*
X56025342Y-53154255D01*
X56027097Y-53156394D01*
X56014078Y-53167078D01*
X55966342Y-53225245D01*
X55930871Y-53291608D01*
X55909028Y-53363615D01*
X55901652Y-53438500D01*
X55839000Y-53438500D01*
X55839000Y-50465146D01*
X56193485Y-50202827D01*
X57574761Y-49369538D01*
X59028327Y-48669935D01*
X60541285Y-48110228D01*
X62100200Y-47695387D01*
X63691244Y-47429094D01*
X65300273Y-47313714D01*
X66913022Y-47350268D01*
G37*
G04 #@! TD.AperFunction*
D33*
X64080623Y-73076764D02*
X64151642Y-73098308D01*
X64225500Y-73105582D01*
X64272301Y-73105582D01*
X64272300Y-76302369D01*
X64270351Y-76322160D01*
X64272300Y-76341951D01*
X64272300Y-76341957D01*
X64276629Y-76385910D01*
X64277840Y-76398200D01*
X64278135Y-76401200D01*
X64301190Y-76477203D01*
X64338630Y-76547248D01*
X64389016Y-76608644D01*
X64404397Y-76621267D01*
X68521147Y-80738018D01*
X62623666Y-80738018D01*
X62591469Y-80739599D01*
X62590494Y-80739695D01*
X62528440Y-80752052D01*
X62511717Y-80711686D01*
X62511255Y-80710821D01*
X62475597Y-80657387D01*
X62474976Y-80656629D01*
X62429037Y-80610690D01*
X62428279Y-80610069D01*
X62374845Y-80574411D01*
X62373980Y-80573949D01*
X62314703Y-80549391D01*
X62313765Y-80549106D01*
X62250438Y-80536495D01*
X62249463Y-80536399D01*
X62217266Y-80534818D01*
X61218200Y-80534818D01*
X61186003Y-80536399D01*
X61185028Y-80536495D01*
X61121701Y-80549106D01*
X61120763Y-80549391D01*
X61061486Y-80573949D01*
X61060621Y-80574411D01*
X61007187Y-80610069D01*
X61006429Y-80610690D01*
X60960490Y-80656629D01*
X60959869Y-80657387D01*
X60924211Y-80710821D01*
X60923749Y-80711686D01*
X60899191Y-80770963D01*
X60898906Y-80771901D01*
X60886295Y-80835228D01*
X60886199Y-80836203D01*
X60884891Y-80862833D01*
X60864049Y-80851692D01*
X60837160Y-80843536D01*
X59305280Y-80307125D01*
X57839680Y-79633072D01*
X56444025Y-78824090D01*
X55839000Y-78392554D01*
X55839000Y-73900200D01*
X59169601Y-73900200D01*
X59169601Y-74517358D01*
X59156000Y-74516018D01*
X57756000Y-74516018D01*
X57691897Y-74522332D01*
X57630257Y-74541030D01*
X57573450Y-74571394D01*
X57523657Y-74612257D01*
X57482794Y-74662050D01*
X57452430Y-74718857D01*
X57446504Y-74738393D01*
X57413886Y-74659646D01*
X57348004Y-74561047D01*
X57264153Y-74477196D01*
X57165554Y-74411314D01*
X57055997Y-74365934D01*
X56939692Y-74342800D01*
X56821108Y-74342800D01*
X56704803Y-74365934D01*
X56595246Y-74411314D01*
X56496647Y-74477196D01*
X56412796Y-74561047D01*
X56346914Y-74659646D01*
X56301534Y-74769203D01*
X56278400Y-74885508D01*
X56278400Y-75004092D01*
X56301534Y-75120397D01*
X56346914Y-75229954D01*
X56388167Y-75291693D01*
X56320459Y-75347259D01*
X56261252Y-75419403D01*
X56217258Y-75501711D01*
X56190166Y-75591021D01*
X56181018Y-75683900D01*
X56181018Y-75978900D01*
X56190166Y-76071779D01*
X56217258Y-76161089D01*
X56261252Y-76243397D01*
X56320459Y-76315541D01*
X56321506Y-76316400D01*
X56320459Y-76317259D01*
X56261252Y-76389403D01*
X56217258Y-76471711D01*
X56190166Y-76561021D01*
X56181018Y-76653900D01*
X56181018Y-76948900D01*
X56190166Y-77041779D01*
X56217258Y-77131089D01*
X56261252Y-77213397D01*
X56320459Y-77285541D01*
X56392603Y-77344748D01*
X56474911Y-77388742D01*
X56564221Y-77415834D01*
X56657100Y-77424982D01*
X57002100Y-77424982D01*
X57094979Y-77415834D01*
X57184289Y-77388742D01*
X57266597Y-77344748D01*
X57338741Y-77285541D01*
X57397948Y-77213397D01*
X57402650Y-77204600D01*
X57427418Y-77204600D01*
X57427418Y-77744600D01*
X57433732Y-77808703D01*
X57452430Y-77870343D01*
X57482794Y-77927150D01*
X57523657Y-77976943D01*
X57573450Y-78017806D01*
X57630257Y-78048170D01*
X57691897Y-78066868D01*
X57756000Y-78073182D01*
X59156000Y-78073182D01*
X59220103Y-78066868D01*
X59281743Y-78048170D01*
X59338550Y-78017806D01*
X59388343Y-77976943D01*
X59429206Y-77927150D01*
X59459570Y-77870343D01*
X59478268Y-77808703D01*
X59484582Y-77744600D01*
X59484582Y-77507611D01*
X59533489Y-77481470D01*
X59594884Y-77431084D01*
X59607507Y-77415703D01*
X59627418Y-77395792D01*
X59627418Y-77744600D01*
X59633732Y-77808703D01*
X59652430Y-77870343D01*
X59682794Y-77927150D01*
X59723657Y-77976943D01*
X59773450Y-78017806D01*
X59830257Y-78048170D01*
X59891897Y-78066868D01*
X59956000Y-78073182D01*
X61356000Y-78073182D01*
X61420103Y-78066868D01*
X61481743Y-78048170D01*
X61538550Y-78017806D01*
X61588343Y-77976943D01*
X61629206Y-77927150D01*
X61659570Y-77870343D01*
X61678268Y-77808703D01*
X61684582Y-77744600D01*
X61684582Y-76544600D01*
X61678268Y-76480497D01*
X61659570Y-76418857D01*
X61629206Y-76362050D01*
X61588343Y-76312257D01*
X61566827Y-76294600D01*
X61588343Y-76276943D01*
X61629206Y-76227150D01*
X61659570Y-76170343D01*
X61668040Y-76142419D01*
X61676566Y-76228979D01*
X61703658Y-76318289D01*
X61747652Y-76400597D01*
X61806859Y-76472741D01*
X61867849Y-76522794D01*
X61848396Y-76542247D01*
X61782514Y-76640846D01*
X61737134Y-76750403D01*
X61714000Y-76866708D01*
X61714000Y-76985292D01*
X61737134Y-77101597D01*
X61782514Y-77211154D01*
X61848396Y-77309753D01*
X61932247Y-77393604D01*
X62030846Y-77459486D01*
X62140403Y-77504866D01*
X62256708Y-77528000D01*
X62375292Y-77528000D01*
X62491597Y-77504866D01*
X62601154Y-77459486D01*
X62699753Y-77393604D01*
X62783604Y-77309753D01*
X62849486Y-77211154D01*
X62894866Y-77101597D01*
X62918000Y-76985292D01*
X62918000Y-76866708D01*
X62894866Y-76750403D01*
X62849486Y-76640846D01*
X62783604Y-76542247D01*
X62764151Y-76522794D01*
X62825141Y-76472741D01*
X62884348Y-76400597D01*
X62928342Y-76318289D01*
X62955434Y-76228979D01*
X62964582Y-76136100D01*
X62964582Y-75841100D01*
X62955434Y-75748221D01*
X62928342Y-75658911D01*
X62884348Y-75576603D01*
X62825141Y-75504459D01*
X62824094Y-75503600D01*
X62825141Y-75502741D01*
X62884348Y-75430597D01*
X62928342Y-75348289D01*
X62955434Y-75258979D01*
X62964582Y-75166100D01*
X62964582Y-74871100D01*
X62955434Y-74778221D01*
X62928342Y-74688911D01*
X62884348Y-74606603D01*
X62825141Y-74534459D01*
X62752997Y-74475252D01*
X62733126Y-74464631D01*
X62783604Y-74414153D01*
X62849486Y-74315554D01*
X62894866Y-74205997D01*
X62918000Y-74089692D01*
X62918000Y-73971108D01*
X62894866Y-73854803D01*
X62849486Y-73745246D01*
X62783604Y-73646647D01*
X62699753Y-73562796D01*
X62601154Y-73496914D01*
X62491597Y-73451534D01*
X62464781Y-73446200D01*
X63179600Y-73446200D01*
X63204376Y-73443760D01*
X63228201Y-73436533D01*
X63250157Y-73424797D01*
X63269403Y-73409003D01*
X63285197Y-73389757D01*
X63296933Y-73367801D01*
X63304160Y-73343976D01*
X63306600Y-73319200D01*
X63306600Y-73084644D01*
X63351642Y-73098308D01*
X63425500Y-73105582D01*
X63525500Y-73105582D01*
X63599358Y-73098308D01*
X63670377Y-73076764D01*
X63675500Y-73074026D01*
X63680623Y-73076764D01*
X63751642Y-73098308D01*
X63825500Y-73105582D01*
X63925500Y-73105582D01*
X63999358Y-73098308D01*
X64070377Y-73076764D01*
X64075500Y-73074026D01*
X64080623Y-73076764D01*
G04 #@! TA.AperFunction,Conductor*
D34*
G36*
X64080623Y-73076764D02*
G01*
X64151642Y-73098308D01*
X64225500Y-73105582D01*
X64272301Y-73105582D01*
X64272300Y-76302369D01*
X64270351Y-76322160D01*
X64272300Y-76341951D01*
X64272300Y-76341957D01*
X64276629Y-76385910D01*
X64277840Y-76398200D01*
X64278135Y-76401200D01*
X64301190Y-76477203D01*
X64338630Y-76547248D01*
X64389016Y-76608644D01*
X64404397Y-76621267D01*
X68521147Y-80738018D01*
X62623666Y-80738018D01*
X62591469Y-80739599D01*
X62590494Y-80739695D01*
X62528440Y-80752052D01*
X62511717Y-80711686D01*
X62511255Y-80710821D01*
X62475597Y-80657387D01*
X62474976Y-80656629D01*
X62429037Y-80610690D01*
X62428279Y-80610069D01*
X62374845Y-80574411D01*
X62373980Y-80573949D01*
X62314703Y-80549391D01*
X62313765Y-80549106D01*
X62250438Y-80536495D01*
X62249463Y-80536399D01*
X62217266Y-80534818D01*
X61218200Y-80534818D01*
X61186003Y-80536399D01*
X61185028Y-80536495D01*
X61121701Y-80549106D01*
X61120763Y-80549391D01*
X61061486Y-80573949D01*
X61060621Y-80574411D01*
X61007187Y-80610069D01*
X61006429Y-80610690D01*
X60960490Y-80656629D01*
X60959869Y-80657387D01*
X60924211Y-80710821D01*
X60923749Y-80711686D01*
X60899191Y-80770963D01*
X60898906Y-80771901D01*
X60886295Y-80835228D01*
X60886199Y-80836203D01*
X60884891Y-80862833D01*
X60864049Y-80851692D01*
X60837160Y-80843536D01*
X59305280Y-80307125D01*
X57839680Y-79633072D01*
X56444025Y-78824090D01*
X55839000Y-78392554D01*
X55839000Y-73900200D01*
X59169601Y-73900200D01*
X59169601Y-74517358D01*
X59156000Y-74516018D01*
X57756000Y-74516018D01*
X57691897Y-74522332D01*
X57630257Y-74541030D01*
X57573450Y-74571394D01*
X57523657Y-74612257D01*
X57482794Y-74662050D01*
X57452430Y-74718857D01*
X57446504Y-74738393D01*
X57413886Y-74659646D01*
X57348004Y-74561047D01*
X57264153Y-74477196D01*
X57165554Y-74411314D01*
X57055997Y-74365934D01*
X56939692Y-74342800D01*
X56821108Y-74342800D01*
X56704803Y-74365934D01*
X56595246Y-74411314D01*
X56496647Y-74477196D01*
X56412796Y-74561047D01*
X56346914Y-74659646D01*
X56301534Y-74769203D01*
X56278400Y-74885508D01*
X56278400Y-75004092D01*
X56301534Y-75120397D01*
X56346914Y-75229954D01*
X56388167Y-75291693D01*
X56320459Y-75347259D01*
X56261252Y-75419403D01*
X56217258Y-75501711D01*
X56190166Y-75591021D01*
X56181018Y-75683900D01*
X56181018Y-75978900D01*
X56190166Y-76071779D01*
X56217258Y-76161089D01*
X56261252Y-76243397D01*
X56320459Y-76315541D01*
X56321506Y-76316400D01*
X56320459Y-76317259D01*
X56261252Y-76389403D01*
X56217258Y-76471711D01*
X56190166Y-76561021D01*
X56181018Y-76653900D01*
X56181018Y-76948900D01*
X56190166Y-77041779D01*
X56217258Y-77131089D01*
X56261252Y-77213397D01*
X56320459Y-77285541D01*
X56392603Y-77344748D01*
X56474911Y-77388742D01*
X56564221Y-77415834D01*
X56657100Y-77424982D01*
X57002100Y-77424982D01*
X57094979Y-77415834D01*
X57184289Y-77388742D01*
X57266597Y-77344748D01*
X57338741Y-77285541D01*
X57397948Y-77213397D01*
X57402650Y-77204600D01*
X57427418Y-77204600D01*
X57427418Y-77744600D01*
X57433732Y-77808703D01*
X57452430Y-77870343D01*
X57482794Y-77927150D01*
X57523657Y-77976943D01*
X57573450Y-78017806D01*
X57630257Y-78048170D01*
X57691897Y-78066868D01*
X57756000Y-78073182D01*
X59156000Y-78073182D01*
X59220103Y-78066868D01*
X59281743Y-78048170D01*
X59338550Y-78017806D01*
X59388343Y-77976943D01*
X59429206Y-77927150D01*
X59459570Y-77870343D01*
X59478268Y-77808703D01*
X59484582Y-77744600D01*
X59484582Y-77507611D01*
X59533489Y-77481470D01*
X59594884Y-77431084D01*
X59607507Y-77415703D01*
X59627418Y-77395792D01*
X59627418Y-77744600D01*
X59633732Y-77808703D01*
X59652430Y-77870343D01*
X59682794Y-77927150D01*
X59723657Y-77976943D01*
X59773450Y-78017806D01*
X59830257Y-78048170D01*
X59891897Y-78066868D01*
X59956000Y-78073182D01*
X61356000Y-78073182D01*
X61420103Y-78066868D01*
X61481743Y-78048170D01*
X61538550Y-78017806D01*
X61588343Y-77976943D01*
X61629206Y-77927150D01*
X61659570Y-77870343D01*
X61678268Y-77808703D01*
X61684582Y-77744600D01*
X61684582Y-76544600D01*
X61678268Y-76480497D01*
X61659570Y-76418857D01*
X61629206Y-76362050D01*
X61588343Y-76312257D01*
X61566827Y-76294600D01*
X61588343Y-76276943D01*
X61629206Y-76227150D01*
X61659570Y-76170343D01*
X61668040Y-76142419D01*
X61676566Y-76228979D01*
X61703658Y-76318289D01*
X61747652Y-76400597D01*
X61806859Y-76472741D01*
X61867849Y-76522794D01*
X61848396Y-76542247D01*
X61782514Y-76640846D01*
X61737134Y-76750403D01*
X61714000Y-76866708D01*
X61714000Y-76985292D01*
X61737134Y-77101597D01*
X61782514Y-77211154D01*
X61848396Y-77309753D01*
X61932247Y-77393604D01*
X62030846Y-77459486D01*
X62140403Y-77504866D01*
X62256708Y-77528000D01*
X62375292Y-77528000D01*
X62491597Y-77504866D01*
X62601154Y-77459486D01*
X62699753Y-77393604D01*
X62783604Y-77309753D01*
X62849486Y-77211154D01*
X62894866Y-77101597D01*
X62918000Y-76985292D01*
X62918000Y-76866708D01*
X62894866Y-76750403D01*
X62849486Y-76640846D01*
X62783604Y-76542247D01*
X62764151Y-76522794D01*
X62825141Y-76472741D01*
X62884348Y-76400597D01*
X62928342Y-76318289D01*
X62955434Y-76228979D01*
X62964582Y-76136100D01*
X62964582Y-75841100D01*
X62955434Y-75748221D01*
X62928342Y-75658911D01*
X62884348Y-75576603D01*
X62825141Y-75504459D01*
X62824094Y-75503600D01*
X62825141Y-75502741D01*
X62884348Y-75430597D01*
X62928342Y-75348289D01*
X62955434Y-75258979D01*
X62964582Y-75166100D01*
X62964582Y-74871100D01*
X62955434Y-74778221D01*
X62928342Y-74688911D01*
X62884348Y-74606603D01*
X62825141Y-74534459D01*
X62752997Y-74475252D01*
X62733126Y-74464631D01*
X62783604Y-74414153D01*
X62849486Y-74315554D01*
X62894866Y-74205997D01*
X62918000Y-74089692D01*
X62918000Y-73971108D01*
X62894866Y-73854803D01*
X62849486Y-73745246D01*
X62783604Y-73646647D01*
X62699753Y-73562796D01*
X62601154Y-73496914D01*
X62491597Y-73451534D01*
X62464781Y-73446200D01*
X63179600Y-73446200D01*
X63204376Y-73443760D01*
X63228201Y-73436533D01*
X63250157Y-73424797D01*
X63269403Y-73409003D01*
X63285197Y-73389757D01*
X63296933Y-73367801D01*
X63304160Y-73343976D01*
X63306600Y-73319200D01*
X63306600Y-73084644D01*
X63351642Y-73098308D01*
X63425500Y-73105582D01*
X63525500Y-73105582D01*
X63599358Y-73098308D01*
X63670377Y-73076764D01*
X63675500Y-73074026D01*
X63680623Y-73076764D01*
X63751642Y-73098308D01*
X63825500Y-73105582D01*
X63925500Y-73105582D01*
X63999358Y-73098308D01*
X64070377Y-73076764D01*
X64075500Y-73074026D01*
X64080623Y-73076764D01*
G37*
G04 #@! TD.AperFunction*
D33*
X72204091Y-58219301D02*
X72175000Y-58365548D01*
X72175000Y-58528452D01*
X72206782Y-58688227D01*
X72269123Y-58838731D01*
X72359628Y-58974181D01*
X72474819Y-59089372D01*
X72608601Y-59178762D01*
X72608600Y-59469439D01*
X72608222Y-59468978D01*
X72550055Y-59421242D01*
X72483692Y-59385771D01*
X72411685Y-59363928D01*
X72336800Y-59356552D01*
X72137800Y-59358400D01*
X72042300Y-59453900D01*
X72042300Y-60059900D01*
X72062300Y-60059900D01*
X72062300Y-60060900D01*
X72042300Y-60060900D01*
X72042300Y-60080900D01*
X72041300Y-60080900D01*
X72041300Y-60060900D01*
X71460300Y-60060900D01*
X71364800Y-60156400D01*
X71362952Y-60380400D01*
X71370328Y-60455285D01*
X71392171Y-60527292D01*
X71427642Y-60593655D01*
X71475378Y-60651822D01*
X71533545Y-60699558D01*
X71599908Y-60735029D01*
X71671915Y-60756872D01*
X71738554Y-60763436D01*
X69644390Y-62857600D01*
X69142987Y-62857600D01*
X69123199Y-62855651D01*
X69103411Y-62857600D01*
X69103402Y-62857600D01*
X69044159Y-62863435D01*
X68968156Y-62886490D01*
X68898111Y-62923930D01*
X68898109Y-62923931D01*
X68898110Y-62923931D01*
X68864236Y-62951731D01*
X68836716Y-62974316D01*
X68824098Y-62989691D01*
X67038238Y-64775552D01*
X67037200Y-64765009D01*
X67037200Y-60334191D01*
X67039149Y-60314400D01*
X67037200Y-60294609D01*
X67037200Y-60294602D01*
X67031365Y-60235359D01*
X67022647Y-60206619D01*
X67008310Y-60159355D01*
X66970870Y-60089311D01*
X66933105Y-60043294D01*
X66933102Y-60043291D01*
X66920484Y-60027916D01*
X66905108Y-60015298D01*
X66677200Y-59787389D01*
X66677200Y-59740400D01*
X71362952Y-59740400D01*
X71364800Y-59964400D01*
X71460300Y-60059900D01*
X72041300Y-60059900D01*
X72041300Y-59453900D01*
X71945800Y-59358400D01*
X71746800Y-59356552D01*
X71671915Y-59363928D01*
X71599908Y-59385771D01*
X71533545Y-59421242D01*
X71475378Y-59468978D01*
X71427642Y-59527145D01*
X71392171Y-59593508D01*
X71370328Y-59665515D01*
X71362952Y-59740400D01*
X66677200Y-59740400D01*
X66677200Y-59696308D01*
X66654066Y-59580003D01*
X66608686Y-59470446D01*
X66542804Y-59371847D01*
X66458953Y-59287996D01*
X66379402Y-59234841D01*
X66415350Y-59238382D01*
X66852850Y-59238382D01*
X66959629Y-59227865D01*
X67062305Y-59196719D01*
X67156931Y-59146140D01*
X67239872Y-59078072D01*
X67307940Y-58995131D01*
X67358519Y-58900505D01*
X67360248Y-58894805D01*
X67367847Y-58902404D01*
X67466446Y-58968286D01*
X67576003Y-59013666D01*
X67692308Y-59036800D01*
X67810892Y-59036800D01*
X67927197Y-59013666D01*
X68036754Y-58968286D01*
X68135353Y-58902404D01*
X68219204Y-58818553D01*
X68285086Y-58719954D01*
X68330466Y-58610397D01*
X68353600Y-58494092D01*
X68353600Y-58375508D01*
X68330466Y-58259203D01*
X68285086Y-58149646D01*
X68219204Y-58051047D01*
X68135353Y-57967196D01*
X68036883Y-57901400D01*
X68818400Y-57901400D01*
X68843176Y-57898960D01*
X68867001Y-57891733D01*
X68888957Y-57879997D01*
X68897727Y-57872800D01*
X71857590Y-57872800D01*
X72204091Y-58219301D01*
G04 #@! TA.AperFunction,Conductor*
D34*
G36*
X72204091Y-58219301D02*
G01*
X72175000Y-58365548D01*
X72175000Y-58528452D01*
X72206782Y-58688227D01*
X72269123Y-58838731D01*
X72359628Y-58974181D01*
X72474819Y-59089372D01*
X72608601Y-59178762D01*
X72608600Y-59469439D01*
X72608222Y-59468978D01*
X72550055Y-59421242D01*
X72483692Y-59385771D01*
X72411685Y-59363928D01*
X72336800Y-59356552D01*
X72137800Y-59358400D01*
X72042300Y-59453900D01*
X72042300Y-60059900D01*
X72062300Y-60059900D01*
X72062300Y-60060900D01*
X72042300Y-60060900D01*
X72042300Y-60080900D01*
X72041300Y-60080900D01*
X72041300Y-60060900D01*
X71460300Y-60060900D01*
X71364800Y-60156400D01*
X71362952Y-60380400D01*
X71370328Y-60455285D01*
X71392171Y-60527292D01*
X71427642Y-60593655D01*
X71475378Y-60651822D01*
X71533545Y-60699558D01*
X71599908Y-60735029D01*
X71671915Y-60756872D01*
X71738554Y-60763436D01*
X69644390Y-62857600D01*
X69142987Y-62857600D01*
X69123199Y-62855651D01*
X69103411Y-62857600D01*
X69103402Y-62857600D01*
X69044159Y-62863435D01*
X68968156Y-62886490D01*
X68898111Y-62923930D01*
X68898109Y-62923931D01*
X68898110Y-62923931D01*
X68864236Y-62951731D01*
X68836716Y-62974316D01*
X68824098Y-62989691D01*
X67038238Y-64775552D01*
X67037200Y-64765009D01*
X67037200Y-60334191D01*
X67039149Y-60314400D01*
X67037200Y-60294609D01*
X67037200Y-60294602D01*
X67031365Y-60235359D01*
X67022647Y-60206619D01*
X67008310Y-60159355D01*
X66970870Y-60089311D01*
X66933105Y-60043294D01*
X66933102Y-60043291D01*
X66920484Y-60027916D01*
X66905108Y-60015298D01*
X66677200Y-59787389D01*
X66677200Y-59740400D01*
X71362952Y-59740400D01*
X71364800Y-59964400D01*
X71460300Y-60059900D01*
X72041300Y-60059900D01*
X72041300Y-59453900D01*
X71945800Y-59358400D01*
X71746800Y-59356552D01*
X71671915Y-59363928D01*
X71599908Y-59385771D01*
X71533545Y-59421242D01*
X71475378Y-59468978D01*
X71427642Y-59527145D01*
X71392171Y-59593508D01*
X71370328Y-59665515D01*
X71362952Y-59740400D01*
X66677200Y-59740400D01*
X66677200Y-59696308D01*
X66654066Y-59580003D01*
X66608686Y-59470446D01*
X66542804Y-59371847D01*
X66458953Y-59287996D01*
X66379402Y-59234841D01*
X66415350Y-59238382D01*
X66852850Y-59238382D01*
X66959629Y-59227865D01*
X67062305Y-59196719D01*
X67156931Y-59146140D01*
X67239872Y-59078072D01*
X67307940Y-58995131D01*
X67358519Y-58900505D01*
X67360248Y-58894805D01*
X67367847Y-58902404D01*
X67466446Y-58968286D01*
X67576003Y-59013666D01*
X67692308Y-59036800D01*
X67810892Y-59036800D01*
X67927197Y-59013666D01*
X68036754Y-58968286D01*
X68135353Y-58902404D01*
X68219204Y-58818553D01*
X68285086Y-58719954D01*
X68330466Y-58610397D01*
X68353600Y-58494092D01*
X68353600Y-58375508D01*
X68330466Y-58259203D01*
X68285086Y-58149646D01*
X68219204Y-58051047D01*
X68135353Y-57967196D01*
X68036883Y-57901400D01*
X68818400Y-57901400D01*
X68843176Y-57898960D01*
X68867001Y-57891733D01*
X68888957Y-57879997D01*
X68897727Y-57872800D01*
X71857590Y-57872800D01*
X72204091Y-58219301D01*
G37*
G04 #@! TD.AperFunction*
D33*
X59903000Y-70982400D02*
X59905440Y-71007176D01*
X59912667Y-71031001D01*
X59924403Y-71052957D01*
X59940197Y-71072203D01*
X59959443Y-71087997D01*
X59981399Y-71099733D01*
X60005224Y-71106960D01*
X60030000Y-71109400D01*
X60297990Y-71109400D01*
X59746404Y-71660986D01*
X59744928Y-71659774D01*
X59663917Y-71616473D01*
X59576014Y-71589808D01*
X59484598Y-71580804D01*
X59393182Y-71589808D01*
X59305279Y-71616473D01*
X59224268Y-71659774D01*
X59153260Y-71718048D01*
X58958499Y-71912809D01*
X58933124Y-71904984D01*
X58808699Y-71892153D01*
X58684163Y-71903842D01*
X58564300Y-71939604D01*
X58453717Y-71998061D01*
X58360829Y-72077139D01*
X58360829Y-72301646D01*
X58826989Y-72767806D01*
X58841132Y-72753664D01*
X59020737Y-72933269D01*
X59006594Y-72947411D01*
X59020737Y-72961554D01*
X58841132Y-73141159D01*
X58826989Y-73127016D01*
X58812847Y-73141159D01*
X58633242Y-72961554D01*
X58647384Y-72947411D01*
X58181224Y-72481251D01*
X57956717Y-72481251D01*
X57877639Y-72574139D01*
X57819182Y-72684722D01*
X57783420Y-72804585D01*
X57771731Y-72929121D01*
X57784562Y-73053546D01*
X57821420Y-73173076D01*
X57880889Y-73283118D01*
X57960683Y-73379445D01*
X57977931Y-73392358D01*
X58202434Y-73392358D01*
X58148592Y-73446200D01*
X55839000Y-73446200D01*
X55839000Y-71802000D01*
X56025500Y-71802000D01*
X56056102Y-71798999D01*
X56086774Y-71796208D01*
X56087876Y-71795884D01*
X56089015Y-71795772D01*
X56118493Y-71786872D01*
X56147996Y-71778189D01*
X56149009Y-71777659D01*
X56150110Y-71777327D01*
X56177310Y-71762864D01*
X56204553Y-71748622D01*
X56205447Y-71747903D01*
X56206459Y-71747365D01*
X56230277Y-71727940D01*
X56254290Y-71708633D01*
X56255028Y-71707753D01*
X56255915Y-71707030D01*
X56275511Y-71683342D01*
X56295312Y-71659744D01*
X56295864Y-71658739D01*
X56296595Y-71657856D01*
X56311235Y-71630780D01*
X56326057Y-71603819D01*
X56326403Y-71602727D01*
X56326949Y-71601718D01*
X56336053Y-71572308D01*
X56345354Y-71542987D01*
X56345482Y-71541848D01*
X56345821Y-71540752D01*
X56349039Y-71510135D01*
X56352468Y-71479566D01*
X56352483Y-71477365D01*
X56352492Y-71477283D01*
X56352485Y-71477201D01*
X56352500Y-71475000D01*
X56352500Y-70882004D01*
X56397987Y-70895575D01*
X56522523Y-70907265D01*
X56543850Y-70904200D01*
X56702600Y-70745450D01*
X56702600Y-70116200D01*
X56956600Y-70116200D01*
X56956600Y-70745450D01*
X57115350Y-70904200D01*
X57136677Y-70907265D01*
X57261213Y-70895575D01*
X57381076Y-70859814D01*
X57491659Y-70801356D01*
X57588713Y-70722447D01*
X57668508Y-70626121D01*
X57727977Y-70516078D01*
X57764835Y-70396548D01*
X57774600Y-70274950D01*
X57615850Y-70116200D01*
X56956600Y-70116200D01*
X56702600Y-70116200D01*
X56043350Y-70116200D01*
X55911550Y-70248000D01*
X55839000Y-70248000D01*
X55839000Y-69503582D01*
X55918500Y-69503582D01*
X55894365Y-69581852D01*
X55884600Y-69703450D01*
X56043350Y-69862200D01*
X56702600Y-69862200D01*
X56702600Y-69842200D01*
X56956600Y-69842200D01*
X56956600Y-69862200D01*
X57615850Y-69862200D01*
X57701050Y-69777000D01*
X59309852Y-69777000D01*
X59435021Y-69764672D01*
X59595624Y-69715954D01*
X59743636Y-69636839D01*
X59873370Y-69530370D01*
X59903000Y-69494265D01*
X59903000Y-70982400D01*
G04 #@! TA.AperFunction,Conductor*
D34*
G36*
X59903000Y-70982400D02*
G01*
X59905440Y-71007176D01*
X59912667Y-71031001D01*
X59924403Y-71052957D01*
X59940197Y-71072203D01*
X59959443Y-71087997D01*
X59981399Y-71099733D01*
X60005224Y-71106960D01*
X60030000Y-71109400D01*
X60297990Y-71109400D01*
X59746404Y-71660986D01*
X59744928Y-71659774D01*
X59663917Y-71616473D01*
X59576014Y-71589808D01*
X59484598Y-71580804D01*
X59393182Y-71589808D01*
X59305279Y-71616473D01*
X59224268Y-71659774D01*
X59153260Y-71718048D01*
X58958499Y-71912809D01*
X58933124Y-71904984D01*
X58808699Y-71892153D01*
X58684163Y-71903842D01*
X58564300Y-71939604D01*
X58453717Y-71998061D01*
X58360829Y-72077139D01*
X58360829Y-72301646D01*
X58826989Y-72767806D01*
X58841132Y-72753664D01*
X59020737Y-72933269D01*
X59006594Y-72947411D01*
X59020737Y-72961554D01*
X58841132Y-73141159D01*
X58826989Y-73127016D01*
X58812847Y-73141159D01*
X58633242Y-72961554D01*
X58647384Y-72947411D01*
X58181224Y-72481251D01*
X57956717Y-72481251D01*
X57877639Y-72574139D01*
X57819182Y-72684722D01*
X57783420Y-72804585D01*
X57771731Y-72929121D01*
X57784562Y-73053546D01*
X57821420Y-73173076D01*
X57880889Y-73283118D01*
X57960683Y-73379445D01*
X57977931Y-73392358D01*
X58202434Y-73392358D01*
X58148592Y-73446200D01*
X55839000Y-73446200D01*
X55839000Y-71802000D01*
X56025500Y-71802000D01*
X56056102Y-71798999D01*
X56086774Y-71796208D01*
X56087876Y-71795884D01*
X56089015Y-71795772D01*
X56118493Y-71786872D01*
X56147996Y-71778189D01*
X56149009Y-71777659D01*
X56150110Y-71777327D01*
X56177310Y-71762864D01*
X56204553Y-71748622D01*
X56205447Y-71747903D01*
X56206459Y-71747365D01*
X56230277Y-71727940D01*
X56254290Y-71708633D01*
X56255028Y-71707753D01*
X56255915Y-71707030D01*
X56275511Y-71683342D01*
X56295312Y-71659744D01*
X56295864Y-71658739D01*
X56296595Y-71657856D01*
X56311235Y-71630780D01*
X56326057Y-71603819D01*
X56326403Y-71602727D01*
X56326949Y-71601718D01*
X56336053Y-71572308D01*
X56345354Y-71542987D01*
X56345482Y-71541848D01*
X56345821Y-71540752D01*
X56349039Y-71510135D01*
X56352468Y-71479566D01*
X56352483Y-71477365D01*
X56352492Y-71477283D01*
X56352485Y-71477201D01*
X56352500Y-71475000D01*
X56352500Y-70882004D01*
X56397987Y-70895575D01*
X56522523Y-70907265D01*
X56543850Y-70904200D01*
X56702600Y-70745450D01*
X56702600Y-70116200D01*
X56956600Y-70116200D01*
X56956600Y-70745450D01*
X57115350Y-70904200D01*
X57136677Y-70907265D01*
X57261213Y-70895575D01*
X57381076Y-70859814D01*
X57491659Y-70801356D01*
X57588713Y-70722447D01*
X57668508Y-70626121D01*
X57727977Y-70516078D01*
X57764835Y-70396548D01*
X57774600Y-70274950D01*
X57615850Y-70116200D01*
X56956600Y-70116200D01*
X56702600Y-70116200D01*
X56043350Y-70116200D01*
X55911550Y-70248000D01*
X55839000Y-70248000D01*
X55839000Y-69503582D01*
X55918500Y-69503582D01*
X55894365Y-69581852D01*
X55884600Y-69703450D01*
X56043350Y-69862200D01*
X56702600Y-69862200D01*
X56702600Y-69842200D01*
X56956600Y-69842200D01*
X56956600Y-69862200D01*
X57615850Y-69862200D01*
X57701050Y-69777000D01*
X59309852Y-69777000D01*
X59435021Y-69764672D01*
X59595624Y-69715954D01*
X59743636Y-69636839D01*
X59873370Y-69530370D01*
X59903000Y-69494265D01*
X59903000Y-70982400D01*
G37*
G04 #@! TD.AperFunction*
D33*
X60563400Y-67158410D02*
X60563400Y-67858200D01*
X60030000Y-67858200D01*
X60005224Y-67860640D01*
X59981399Y-67867867D01*
X59959443Y-67879603D01*
X59940197Y-67895397D01*
X59924403Y-67914643D01*
X59912667Y-67936599D01*
X59905440Y-67960424D01*
X59903000Y-67985200D01*
X59903000Y-68355735D01*
X59873370Y-68319630D01*
X59743636Y-68213161D01*
X59595624Y-68134046D01*
X59435021Y-68085328D01*
X59309852Y-68073000D01*
X56741948Y-68073000D01*
X56616779Y-68085328D01*
X56456176Y-68134046D01*
X56308164Y-68213161D01*
X56178430Y-68319630D01*
X56155148Y-68348000D01*
X56041561Y-68348000D01*
X56025500Y-68346418D01*
X55839000Y-68346418D01*
X55839000Y-66943800D01*
X60348790Y-66943800D01*
X60563400Y-67158410D01*
G04 #@! TA.AperFunction,Conductor*
D34*
G36*
X60563400Y-67158410D02*
G01*
X60563400Y-67858200D01*
X60030000Y-67858200D01*
X60005224Y-67860640D01*
X59981399Y-67867867D01*
X59959443Y-67879603D01*
X59940197Y-67895397D01*
X59924403Y-67914643D01*
X59912667Y-67936599D01*
X59905440Y-67960424D01*
X59903000Y-67985200D01*
X59903000Y-68355735D01*
X59873370Y-68319630D01*
X59743636Y-68213161D01*
X59595624Y-68134046D01*
X59435021Y-68085328D01*
X59309852Y-68073000D01*
X56741948Y-68073000D01*
X56616779Y-68085328D01*
X56456176Y-68134046D01*
X56308164Y-68213161D01*
X56178430Y-68319630D01*
X56155148Y-68348000D01*
X56041561Y-68348000D01*
X56025500Y-68346418D01*
X55839000Y-68346418D01*
X55839000Y-66943800D01*
X60348790Y-66943800D01*
X60563400Y-67158410D01*
G37*
G04 #@! TD.AperFunction*
M02*
