M48
INCH,TZ
T1C0.0118
T2C0.0197
%
G90
G05
T1
X19284Y-25336
X20134Y-24136
X20134Y-26536
X20614Y-27426
X21084Y-25336
X21374Y-26326
X21434Y-28861
X21534Y-22936
X21909Y-26461
X22034Y-27806
X22154Y-28446
X22371Y-27986
X22404Y-25836
X22734Y-26186
X22859Y-21761
X22859Y-22061
X22859Y-22361
X22870Y-21465
X22909Y-26636
X23014Y-27726
X23034Y-30636
X23234Y-25236
X23234Y-30836
X23248Y-21761
X23256Y-21417
X23434Y-31036
X23534Y-30186
X23554Y-28043
X23634Y-21486
X23634Y-31236
X23734Y-22336
X23734Y-30386
X23934Y-30586
X23984Y-22586
X24034Y-23786
X24134Y-25736
X24134Y-30786
X24534Y-21436
X24534Y-21786
X24634Y-24386
X24734Y-23286
X24759Y-22036
X24917Y-21465
X24984Y-28986
X25009Y-22286
X25039Y-21693
X25173Y-21465
X25234Y-23386
X25284Y-22511
X25295Y-21693
X25414Y-24846
X25414Y-25346
X25414Y-25846
X25429Y-21465
X25534Y-27236
X25551Y-21693
X25559Y-23386
X25659Y-22511
X25685Y-21465
X25780Y-26644
X25807Y-21693
X25914Y-24846
X25914Y-25346
X25914Y-25846
X25941Y-21465
X25965Y-27216
X26034Y-22511
X26063Y-21693
X26184Y-29586
X26197Y-21465
X26319Y-21693
X26414Y-24846
X26414Y-25346
X26414Y-25846
X26453Y-21465
X26509Y-22561
X26575Y-21693
X26709Y-21465
X26709Y-22836
X26709Y-23161
X26709Y-23486
X26709Y-23811
X26734Y-27086
X26831Y-21693
X26884Y-30036
X26965Y-21465
X27014Y-27306
X27034Y-27686
X27075Y-26844
X27084Y-23811
X27087Y-21693
X27220Y-21465
X27343Y-21693
X27476Y-21465
X27509Y-23811
X27598Y-21693
X27732Y-21465
X27834Y-26886
X27854Y-21693
X27884Y-25236
X27909Y-23811
X27988Y-21465
X28034Y-30186
X28110Y-21693
X28159Y-23511
X28244Y-21465
X28366Y-21693
X28409Y-22461
X28409Y-22861
X28409Y-23261
X28500Y-21465
X28622Y-21693
X28634Y-25986
X28659Y-22161
X28759Y-21461
X28884Y-21686
X29034Y-21461
X29109Y-22061
X29259Y-21736
X30959Y-27336
X31284Y-27036
X31571Y-25343
T2
X24300Y-32035
X27450Y-32035
T0
M30
