G04 #@! TF.GenerationSoftware,KiCad,Pcbnew,5.1.10*
G04 #@! TF.CreationDate,2021-08-14T17:42:51+03:00*
G04 #@! TF.ProjectId,PlantBuddy,506c616e-7442-4756-9464-792e6b696361,rev?*
G04 #@! TF.SameCoordinates,Original*
G04 #@! TF.FileFunction,Legend,Bot*
G04 #@! TF.FilePolarity,Positive*
%FSLAX46Y46*%
G04 Gerber Fmt 4.6, Leading zero omitted, Abs format (unit mm)*
G04 Created by KiCad (PCBNEW 5.1.10) date 2021-08-14 17:42:51*
%MOMM*%
%LPD*%
G01*
G04 APERTURE LIST*
%ADD10C,0.150000*%
%ADD11C,0.300000*%
%ADD12C,0.120000*%
%ADD13C,0.010000*%
G04 APERTURE END LIST*
D10*
X71073604Y-71562780D02*
X71073604Y-70562780D01*
X71073604Y-70943733D02*
X70978366Y-70896114D01*
X70787890Y-70896114D01*
X70692652Y-70943733D01*
X70645033Y-70991352D01*
X70597414Y-71086590D01*
X70597414Y-71372304D01*
X70645033Y-71467542D01*
X70692652Y-71515161D01*
X70787890Y-71562780D01*
X70978366Y-71562780D01*
X71073604Y-71515161D01*
X70264080Y-70896114D02*
X70025985Y-71562780D01*
X69787890Y-70896114D02*
X70025985Y-71562780D01*
X70121223Y-71800876D01*
X70168842Y-71848495D01*
X70264080Y-71896114D01*
X71121223Y-72927066D02*
X70645033Y-72927066D01*
X71216461Y-73212780D02*
X70883128Y-72212780D01*
X70549795Y-73212780D01*
X70216461Y-73212780D02*
X70216461Y-72546114D01*
X70216461Y-72736590D02*
X70168842Y-72641352D01*
X70121223Y-72593733D01*
X70025985Y-72546114D01*
X69930747Y-72546114D01*
X69168842Y-73212780D02*
X69168842Y-72212780D01*
X69168842Y-73165161D02*
X69264080Y-73212780D01*
X69454557Y-73212780D01*
X69549795Y-73165161D01*
X69597414Y-73117542D01*
X69645033Y-73022304D01*
X69645033Y-72736590D01*
X69597414Y-72641352D01*
X69549795Y-72593733D01*
X69454557Y-72546114D01*
X69264080Y-72546114D01*
X69168842Y-72593733D01*
X68311700Y-73165161D02*
X68406938Y-73212780D01*
X68597414Y-73212780D01*
X68692652Y-73165161D01*
X68740271Y-73069923D01*
X68740271Y-72688971D01*
X68692652Y-72593733D01*
X68597414Y-72546114D01*
X68406938Y-72546114D01*
X68311700Y-72593733D01*
X68264080Y-72688971D01*
X68264080Y-72784209D01*
X68740271Y-72879447D01*
X67692652Y-73212780D02*
X67787890Y-73165161D01*
X67835509Y-73069923D01*
X67835509Y-72212780D01*
X66930747Y-73165161D02*
X67025985Y-73212780D01*
X67216461Y-73212780D01*
X67311700Y-73165161D01*
X67359319Y-73069923D01*
X67359319Y-72688971D01*
X67311700Y-72593733D01*
X67216461Y-72546114D01*
X67025985Y-72546114D01*
X66930747Y-72593733D01*
X66883128Y-72688971D01*
X66883128Y-72784209D01*
X67359319Y-72879447D01*
X66025985Y-73212780D02*
X66025985Y-72688971D01*
X66073604Y-72593733D01*
X66168842Y-72546114D01*
X66359319Y-72546114D01*
X66454557Y-72593733D01*
X66025985Y-73165161D02*
X66121223Y-73212780D01*
X66359319Y-73212780D01*
X66454557Y-73165161D01*
X66502176Y-73069923D01*
X66502176Y-72974685D01*
X66454557Y-72879447D01*
X66359319Y-72831828D01*
X66121223Y-72831828D01*
X66025985Y-72784209D01*
X65549795Y-72546114D02*
X65549795Y-73212780D01*
X65549795Y-72641352D02*
X65502176Y-72593733D01*
X65406938Y-72546114D01*
X65264080Y-72546114D01*
X65168842Y-72593733D01*
X65121223Y-72688971D01*
X65121223Y-73212780D01*
X63311700Y-73117542D02*
X63359319Y-73165161D01*
X63502176Y-73212780D01*
X63597414Y-73212780D01*
X63740271Y-73165161D01*
X63835509Y-73069923D01*
X63883128Y-72974685D01*
X63930747Y-72784209D01*
X63930747Y-72641352D01*
X63883128Y-72450876D01*
X63835509Y-72355638D01*
X63740271Y-72260400D01*
X63597414Y-72212780D01*
X63502176Y-72212780D01*
X63359319Y-72260400D01*
X63311700Y-72308019D01*
X62454557Y-73212780D02*
X62454557Y-72688971D01*
X62502176Y-72593733D01*
X62597414Y-72546114D01*
X62787890Y-72546114D01*
X62883128Y-72593733D01*
X62454557Y-73165161D02*
X62549795Y-73212780D01*
X62787890Y-73212780D01*
X62883128Y-73165161D01*
X62930747Y-73069923D01*
X62930747Y-72974685D01*
X62883128Y-72879447D01*
X62787890Y-72831828D01*
X62549795Y-72831828D01*
X62454557Y-72784209D01*
X61835509Y-73212780D02*
X61930747Y-73165161D01*
X61978366Y-73069923D01*
X61978366Y-72212780D01*
X61454557Y-73212780D02*
X61454557Y-72546114D01*
X61454557Y-72212780D02*
X61502176Y-72260400D01*
X61454557Y-72308019D01*
X61406938Y-72260400D01*
X61454557Y-72212780D01*
X61454557Y-72308019D01*
X60978366Y-72546114D02*
X60978366Y-73212780D01*
X60978366Y-72641352D02*
X60930747Y-72593733D01*
X60835509Y-72546114D01*
X60692652Y-72546114D01*
X60597414Y-72593733D01*
X60549795Y-72688971D01*
X60549795Y-73212780D01*
X58502176Y-73212780D02*
X58549795Y-73212780D01*
X58645033Y-73165161D01*
X58787890Y-73022304D01*
X59025985Y-72736590D01*
X59121223Y-72593733D01*
X59168842Y-72450876D01*
X59168842Y-72355638D01*
X59121223Y-72260400D01*
X59025985Y-72212780D01*
X58978366Y-72212780D01*
X58883128Y-72260400D01*
X58835509Y-72355638D01*
X58835509Y-72403257D01*
X58883128Y-72498495D01*
X58930747Y-72546114D01*
X59216461Y-72736590D01*
X59264080Y-72784209D01*
X59311700Y-72879447D01*
X59311700Y-73022304D01*
X59264080Y-73117542D01*
X59216461Y-73165161D01*
X59121223Y-73212780D01*
X58978366Y-73212780D01*
X58883128Y-73165161D01*
X58835509Y-73117542D01*
X58692652Y-72927066D01*
X58645033Y-72784209D01*
X58645033Y-72688971D01*
X70549795Y-73910400D02*
X70645033Y-73862780D01*
X70787890Y-73862780D01*
X70930747Y-73910400D01*
X71025985Y-74005638D01*
X71073604Y-74100876D01*
X71121223Y-74291352D01*
X71121223Y-74434209D01*
X71073604Y-74624685D01*
X71025985Y-74719923D01*
X70930747Y-74815161D01*
X70787890Y-74862780D01*
X70692652Y-74862780D01*
X70549795Y-74815161D01*
X70502176Y-74767542D01*
X70502176Y-74434209D01*
X70692652Y-74434209D01*
X69692652Y-74815161D02*
X69787890Y-74862780D01*
X69978366Y-74862780D01*
X70073604Y-74815161D01*
X70121223Y-74719923D01*
X70121223Y-74338971D01*
X70073604Y-74243733D01*
X69978366Y-74196114D01*
X69787890Y-74196114D01*
X69692652Y-74243733D01*
X69645033Y-74338971D01*
X69645033Y-74434209D01*
X70121223Y-74529447D01*
X68787890Y-74862780D02*
X68787890Y-74338971D01*
X68835509Y-74243733D01*
X68930747Y-74196114D01*
X69121223Y-74196114D01*
X69216461Y-74243733D01*
X68787890Y-74815161D02*
X68883128Y-74862780D01*
X69121223Y-74862780D01*
X69216461Y-74815161D01*
X69264080Y-74719923D01*
X69264080Y-74624685D01*
X69216461Y-74529447D01*
X69121223Y-74481828D01*
X68883128Y-74481828D01*
X68787890Y-74434209D01*
X68311700Y-74196114D02*
X68311700Y-74862780D01*
X68311700Y-74291352D02*
X68264080Y-74243733D01*
X68168842Y-74196114D01*
X68025985Y-74196114D01*
X67930747Y-74243733D01*
X67883128Y-74338971D01*
X67883128Y-74862780D01*
X67406938Y-74862780D02*
X67406938Y-74196114D01*
X67406938Y-73862780D02*
X67454557Y-73910400D01*
X67406938Y-73958019D01*
X67359319Y-73910400D01*
X67406938Y-73862780D01*
X67406938Y-73958019D01*
X66930747Y-74196114D02*
X66930747Y-74862780D01*
X66930747Y-74291352D02*
X66883128Y-74243733D01*
X66787890Y-74196114D01*
X66645033Y-74196114D01*
X66549795Y-74243733D01*
X66502176Y-74338971D01*
X66502176Y-74862780D01*
X65597414Y-74862780D02*
X65597414Y-74338971D01*
X65645033Y-74243733D01*
X65740271Y-74196114D01*
X65930747Y-74196114D01*
X66025985Y-74243733D01*
X65597414Y-74815161D02*
X65692652Y-74862780D01*
X65930747Y-74862780D01*
X66025985Y-74815161D01*
X66073604Y-74719923D01*
X66073604Y-74624685D01*
X66025985Y-74529447D01*
X65930747Y-74481828D01*
X65692652Y-74481828D01*
X65597414Y-74434209D01*
X64502176Y-73862780D02*
X63930747Y-73862780D01*
X64216461Y-74862780D02*
X64216461Y-73862780D01*
X63454557Y-74862780D02*
X63549795Y-74815161D01*
X63597414Y-74767542D01*
X63645033Y-74672304D01*
X63645033Y-74386590D01*
X63597414Y-74291352D01*
X63549795Y-74243733D01*
X63454557Y-74196114D01*
X63311700Y-74196114D01*
X63216461Y-74243733D01*
X63168842Y-74291352D01*
X63121223Y-74386590D01*
X63121223Y-74672304D01*
X63168842Y-74767542D01*
X63216461Y-74815161D01*
X63311700Y-74862780D01*
X63454557Y-74862780D01*
X62264080Y-74862780D02*
X62264080Y-74338971D01*
X62311700Y-74243733D01*
X62406938Y-74196114D01*
X62597414Y-74196114D01*
X62692652Y-74243733D01*
X62264080Y-74815161D02*
X62359319Y-74862780D01*
X62597414Y-74862780D01*
X62692652Y-74815161D01*
X62740271Y-74719923D01*
X62740271Y-74624685D01*
X62692652Y-74529447D01*
X62597414Y-74481828D01*
X62359319Y-74481828D01*
X62264080Y-74434209D01*
X61359319Y-74862780D02*
X61359319Y-73862780D01*
X61359319Y-74815161D02*
X61454557Y-74862780D01*
X61645033Y-74862780D01*
X61740271Y-74815161D01*
X61787890Y-74767542D01*
X61835509Y-74672304D01*
X61835509Y-74386590D01*
X61787890Y-74291352D01*
X61740271Y-74243733D01*
X61645033Y-74196114D01*
X61454557Y-74196114D01*
X61359319Y-74243733D01*
X60502176Y-74815161D02*
X60597414Y-74862780D01*
X60787890Y-74862780D01*
X60883128Y-74815161D01*
X60930747Y-74719923D01*
X60930747Y-74338971D01*
X60883128Y-74243733D01*
X60787890Y-74196114D01*
X60597414Y-74196114D01*
X60502176Y-74243733D01*
X60454557Y-74338971D01*
X60454557Y-74434209D01*
X60930747Y-74529447D01*
X60025985Y-74862780D02*
X60025985Y-74196114D01*
X60025985Y-74386590D02*
X59978366Y-74291352D01*
X59930747Y-74243733D01*
X59835509Y-74196114D01*
X59740271Y-74196114D01*
X81462685Y-68945580D02*
X81462685Y-67945580D01*
X80891257Y-68945580D01*
X80891257Y-67945580D01*
X80081733Y-68421771D02*
X80415066Y-68421771D01*
X80415066Y-68945580D02*
X80415066Y-67945580D01*
X79938876Y-67945580D01*
X78986495Y-68850342D02*
X79034114Y-68897961D01*
X79176971Y-68945580D01*
X79272209Y-68945580D01*
X79415066Y-68897961D01*
X79510304Y-68802723D01*
X79557923Y-68707485D01*
X79605542Y-68517009D01*
X79605542Y-68374152D01*
X79557923Y-68183676D01*
X79510304Y-68088438D01*
X79415066Y-67993200D01*
X79272209Y-67945580D01*
X79176971Y-67945580D01*
X79034114Y-67993200D01*
X78986495Y-68040819D01*
D11*
X71648171Y-56827371D02*
X71648171Y-55327371D01*
X71076742Y-55327371D01*
X70933885Y-55398800D01*
X70862457Y-55470228D01*
X70791028Y-55613085D01*
X70791028Y-55827371D01*
X70862457Y-55970228D01*
X70933885Y-56041657D01*
X71076742Y-56113085D01*
X71648171Y-56113085D01*
X69933885Y-56827371D02*
X70076742Y-56755942D01*
X70148171Y-56613085D01*
X70148171Y-55327371D01*
X68719600Y-56827371D02*
X68719600Y-56041657D01*
X68791028Y-55898800D01*
X68933885Y-55827371D01*
X69219600Y-55827371D01*
X69362457Y-55898800D01*
X68719600Y-56755942D02*
X68862457Y-56827371D01*
X69219600Y-56827371D01*
X69362457Y-56755942D01*
X69433885Y-56613085D01*
X69433885Y-56470228D01*
X69362457Y-56327371D01*
X69219600Y-56255942D01*
X68862457Y-56255942D01*
X68719600Y-56184514D01*
X68005314Y-55827371D02*
X68005314Y-56827371D01*
X68005314Y-55970228D02*
X67933885Y-55898800D01*
X67791028Y-55827371D01*
X67576742Y-55827371D01*
X67433885Y-55898800D01*
X67362457Y-56041657D01*
X67362457Y-56827371D01*
X66862457Y-55827371D02*
X66291028Y-55827371D01*
X66648171Y-55327371D02*
X66648171Y-56613085D01*
X66576742Y-56755942D01*
X66433885Y-56827371D01*
X66291028Y-56827371D01*
X65291028Y-56041657D02*
X65076742Y-56113085D01*
X65005314Y-56184514D01*
X64933885Y-56327371D01*
X64933885Y-56541657D01*
X65005314Y-56684514D01*
X65076742Y-56755942D01*
X65219600Y-56827371D01*
X65791028Y-56827371D01*
X65791028Y-55327371D01*
X65291028Y-55327371D01*
X65148171Y-55398800D01*
X65076742Y-55470228D01*
X65005314Y-55613085D01*
X65005314Y-55755942D01*
X65076742Y-55898800D01*
X65148171Y-55970228D01*
X65291028Y-56041657D01*
X65791028Y-56041657D01*
X63648171Y-55827371D02*
X63648171Y-56827371D01*
X64291028Y-55827371D02*
X64291028Y-56613085D01*
X64219600Y-56755942D01*
X64076742Y-56827371D01*
X63862457Y-56827371D01*
X63719600Y-56755942D01*
X63648171Y-56684514D01*
X62291028Y-56827371D02*
X62291028Y-55327371D01*
X62291028Y-56755942D02*
X62433885Y-56827371D01*
X62719600Y-56827371D01*
X62862457Y-56755942D01*
X62933885Y-56684514D01*
X63005314Y-56541657D01*
X63005314Y-56113085D01*
X62933885Y-55970228D01*
X62862457Y-55898800D01*
X62719600Y-55827371D01*
X62433885Y-55827371D01*
X62291028Y-55898800D01*
X60933885Y-56827371D02*
X60933885Y-55327371D01*
X60933885Y-56755942D02*
X61076742Y-56827371D01*
X61362457Y-56827371D01*
X61505314Y-56755942D01*
X61576742Y-56684514D01*
X61648171Y-56541657D01*
X61648171Y-56113085D01*
X61576742Y-55970228D01*
X61505314Y-55898800D01*
X61362457Y-55827371D01*
X61076742Y-55827371D01*
X60933885Y-55898800D01*
X60362457Y-55827371D02*
X60005314Y-56827371D01*
X59648171Y-55827371D02*
X60005314Y-56827371D01*
X60148171Y-57184514D01*
X60219600Y-57255942D01*
X60362457Y-57327371D01*
D12*
X78766000Y-67080000D02*
X80096000Y-67080000D01*
X78766000Y-65750000D02*
X78766000Y-67080000D01*
X78766000Y-64480000D02*
X81426000Y-64480000D01*
X81426000Y-64480000D02*
X81426000Y-61880000D01*
X78766000Y-64480000D02*
X78766000Y-61880000D01*
X78766000Y-61880000D02*
X81426000Y-61880000D01*
X61768000Y-53003000D02*
X61768000Y-49803000D01*
X61768000Y-49803000D02*
X63318000Y-49803000D01*
X57268000Y-53003000D02*
X61768000Y-53003000D01*
X57268000Y-53003000D02*
X57268000Y-73903000D01*
X59068000Y-75703000D02*
X61768000Y-75703000D01*
X57268000Y-73903000D02*
X59068000Y-75703000D01*
X61768000Y-75703000D02*
X61768000Y-78903000D01*
X61768000Y-78903000D02*
X63318000Y-78903000D01*
X69468000Y-75703000D02*
X69468000Y-78903000D01*
X69468000Y-78903000D02*
X67918000Y-78903000D01*
X69468000Y-53003000D02*
X69468000Y-49803000D01*
X69468000Y-49803000D02*
X67918000Y-49803000D01*
X73968000Y-75703000D02*
X73968000Y-53003000D01*
X73968000Y-75703000D02*
X69468000Y-75703000D01*
X73968000Y-53003000D02*
X69468000Y-53003000D01*
X60618000Y-77353000D02*
X58618000Y-77353000D01*
X59618000Y-76353000D02*
X59618000Y-78353000D01*
D13*
G36*
X70380500Y-67718500D02*
G01*
X69047000Y-67718500D01*
X69047000Y-69052000D01*
X70380500Y-69052000D01*
X70380500Y-67718500D01*
G37*
X70380500Y-67718500D02*
X69047000Y-67718500D01*
X69047000Y-69052000D01*
X70380500Y-69052000D01*
X70380500Y-67718500D01*
G36*
X62379500Y-67718500D02*
G01*
X61046000Y-67718500D01*
X61046000Y-69052000D01*
X62379500Y-69052000D01*
X62379500Y-67718500D01*
G37*
X62379500Y-67718500D02*
X61046000Y-67718500D01*
X61046000Y-69052000D01*
X62379500Y-69052000D01*
X62379500Y-67718500D01*
G36*
X68529208Y-61930171D02*
G01*
X68590298Y-61874711D01*
X68602472Y-61734667D01*
X68602500Y-61717750D01*
X68592670Y-61568792D01*
X68537210Y-61507702D01*
X68397166Y-61495528D01*
X68380250Y-61495500D01*
X68231291Y-61505330D01*
X68170201Y-61560790D01*
X68158027Y-61700834D01*
X68158000Y-61717750D01*
X68167829Y-61866709D01*
X68223289Y-61927799D01*
X68363333Y-61939973D01*
X68380250Y-61940000D01*
X68529208Y-61930171D01*
G37*
X68529208Y-61930171D02*
X68590298Y-61874711D01*
X68602472Y-61734667D01*
X68602500Y-61717750D01*
X68592670Y-61568792D01*
X68537210Y-61507702D01*
X68397166Y-61495528D01*
X68380250Y-61495500D01*
X68231291Y-61505330D01*
X68170201Y-61560790D01*
X68158027Y-61700834D01*
X68158000Y-61717750D01*
X68167829Y-61866709D01*
X68223289Y-61927799D01*
X68363333Y-61939973D01*
X68380250Y-61940000D01*
X68529208Y-61930171D01*
G36*
X65935500Y-65940500D02*
G01*
X65491000Y-65940500D01*
X65491000Y-67274000D01*
X65935500Y-67274000D01*
X65935500Y-65940500D01*
G37*
X65935500Y-65940500D02*
X65491000Y-65940500D01*
X65491000Y-67274000D01*
X65935500Y-67274000D01*
X65935500Y-65940500D01*
G36*
X66380000Y-63718000D02*
G01*
X65491000Y-63718000D01*
X65491000Y-63940250D01*
X65500829Y-64089209D01*
X65556289Y-64150299D01*
X65696333Y-64162473D01*
X65713250Y-64162500D01*
X65862208Y-64172330D01*
X65923298Y-64227790D01*
X65935472Y-64367834D01*
X65935500Y-64384750D01*
X65945329Y-64533709D01*
X66000789Y-64594799D01*
X66140833Y-64606973D01*
X66157750Y-64607000D01*
X66380000Y-64607000D01*
X66380000Y-63718000D01*
G37*
X66380000Y-63718000D02*
X65491000Y-63718000D01*
X65491000Y-63940250D01*
X65500829Y-64089209D01*
X65556289Y-64150299D01*
X65696333Y-64162473D01*
X65713250Y-64162500D01*
X65862208Y-64172330D01*
X65923298Y-64227790D01*
X65935472Y-64367834D01*
X65935500Y-64384750D01*
X65945329Y-64533709D01*
X66000789Y-64594799D01*
X66140833Y-64606973D01*
X66157750Y-64607000D01*
X66380000Y-64607000D01*
X66380000Y-63718000D01*
G36*
X65862208Y-63263671D02*
G01*
X65923298Y-63208211D01*
X65935472Y-63068167D01*
X65935500Y-63051250D01*
X65935500Y-62829000D01*
X66824500Y-62829000D01*
X66824500Y-62384500D01*
X65491000Y-62384500D01*
X65491000Y-63273500D01*
X65713250Y-63273500D01*
X65862208Y-63263671D01*
G37*
X65862208Y-63263671D02*
X65923298Y-63208211D01*
X65935472Y-63068167D01*
X65935500Y-63051250D01*
X65935500Y-62829000D01*
X66824500Y-62829000D01*
X66824500Y-62384500D01*
X65491000Y-62384500D01*
X65491000Y-63273500D01*
X65713250Y-63273500D01*
X65862208Y-63263671D01*
G36*
X62379500Y-59717500D02*
G01*
X61046000Y-59717500D01*
X61046000Y-61051000D01*
X62379500Y-61051000D01*
X62379500Y-59717500D01*
G37*
X62379500Y-59717500D02*
X61046000Y-59717500D01*
X61046000Y-61051000D01*
X62379500Y-61051000D01*
X62379500Y-59717500D01*
G36*
X67640208Y-69931171D02*
G01*
X67701298Y-69875711D01*
X67713472Y-69735667D01*
X67713500Y-69718750D01*
X67703670Y-69569792D01*
X67648210Y-69508702D01*
X67508166Y-69496528D01*
X67491250Y-69496500D01*
X67342291Y-69506330D01*
X67281201Y-69561790D01*
X67269027Y-69701834D01*
X67269000Y-69718750D01*
X67278829Y-69867709D01*
X67334289Y-69928799D01*
X67474333Y-69940973D01*
X67491250Y-69941000D01*
X67640208Y-69931171D01*
G37*
X67640208Y-69931171D02*
X67701298Y-69875711D01*
X67713472Y-69735667D01*
X67713500Y-69718750D01*
X67703670Y-69569792D01*
X67648210Y-69508702D01*
X67508166Y-69496528D01*
X67491250Y-69496500D01*
X67342291Y-69506330D01*
X67281201Y-69561790D01*
X67269027Y-69701834D01*
X67269000Y-69718750D01*
X67278829Y-69867709D01*
X67334289Y-69928799D01*
X67474333Y-69940973D01*
X67491250Y-69941000D01*
X67640208Y-69931171D01*
G36*
X71269500Y-66829500D02*
G01*
X68158000Y-66829500D01*
X68158000Y-69496500D01*
X68602500Y-69496500D01*
X68602500Y-67274000D01*
X70825000Y-67274000D01*
X70825000Y-69496500D01*
X68602500Y-69496500D01*
X68158000Y-69496500D01*
X68158000Y-69941000D01*
X71269500Y-69941000D01*
X71269500Y-66829500D01*
G37*
X71269500Y-66829500D02*
X68158000Y-66829500D01*
X68158000Y-69496500D01*
X68602500Y-69496500D01*
X68602500Y-67274000D01*
X70825000Y-67274000D01*
X70825000Y-69496500D01*
X68602500Y-69496500D01*
X68158000Y-69496500D01*
X68158000Y-69941000D01*
X71269500Y-69941000D01*
X71269500Y-66829500D01*
G36*
X63268500Y-66829500D02*
G01*
X60157000Y-66829500D01*
X60157000Y-69496500D01*
X60601500Y-69496500D01*
X60601500Y-67274000D01*
X62824000Y-67274000D01*
X62824000Y-69496500D01*
X60601500Y-69496500D01*
X60157000Y-69496500D01*
X60157000Y-69941000D01*
X63268500Y-69941000D01*
X63268500Y-66829500D01*
G37*
X63268500Y-66829500D02*
X60157000Y-66829500D01*
X60157000Y-69496500D01*
X60601500Y-69496500D01*
X60601500Y-67274000D01*
X62824000Y-67274000D01*
X62824000Y-69496500D01*
X60601500Y-69496500D01*
X60157000Y-69496500D01*
X60157000Y-69941000D01*
X63268500Y-69941000D01*
X63268500Y-66829500D01*
G36*
X71196208Y-61930171D02*
G01*
X71257298Y-61874711D01*
X71269472Y-61734667D01*
X71269500Y-61717750D01*
X71259670Y-61568792D01*
X71204210Y-61507702D01*
X71064166Y-61495528D01*
X71047250Y-61495500D01*
X70898291Y-61505330D01*
X70837201Y-61560790D01*
X70825027Y-61700834D01*
X70825000Y-61717750D01*
X70834829Y-61866709D01*
X70890289Y-61927799D01*
X71030333Y-61939973D01*
X71047250Y-61940000D01*
X71196208Y-61930171D01*
G37*
X71196208Y-61930171D02*
X71257298Y-61874711D01*
X71269472Y-61734667D01*
X71269500Y-61717750D01*
X71259670Y-61568792D01*
X71204210Y-61507702D01*
X71064166Y-61495528D01*
X71047250Y-61495500D01*
X70898291Y-61505330D01*
X70837201Y-61560790D01*
X70825027Y-61700834D01*
X70825000Y-61717750D01*
X70834829Y-61866709D01*
X70890289Y-61927799D01*
X71030333Y-61939973D01*
X71047250Y-61940000D01*
X71196208Y-61930171D01*
G36*
X69491500Y-60162000D02*
G01*
X70380500Y-60162000D01*
X70380500Y-60384250D01*
X70370670Y-60533209D01*
X70315210Y-60594299D01*
X70175166Y-60606473D01*
X70158250Y-60606500D01*
X70009291Y-60616330D01*
X69948201Y-60671790D01*
X69936027Y-60811834D01*
X69936000Y-60828750D01*
X69936000Y-61051000D01*
X71269500Y-61051000D01*
X71269500Y-58828500D01*
X70825000Y-58828500D01*
X70825000Y-60162000D01*
X70602750Y-60162000D01*
X70453791Y-60152171D01*
X70392701Y-60096711D01*
X70380527Y-59956667D01*
X70380500Y-59939750D01*
X70380500Y-59717500D01*
X69491500Y-59717500D01*
X69491500Y-60162000D01*
G37*
X69491500Y-60162000D02*
X70380500Y-60162000D01*
X70380500Y-60384250D01*
X70370670Y-60533209D01*
X70315210Y-60594299D01*
X70175166Y-60606473D01*
X70158250Y-60606500D01*
X70009291Y-60616330D01*
X69948201Y-60671790D01*
X69936027Y-60811834D01*
X69936000Y-60828750D01*
X69936000Y-61051000D01*
X71269500Y-61051000D01*
X71269500Y-58828500D01*
X70825000Y-58828500D01*
X70825000Y-60162000D01*
X70602750Y-60162000D01*
X70453791Y-60152171D01*
X70392701Y-60096711D01*
X70380527Y-59956667D01*
X70380500Y-59939750D01*
X70380500Y-59717500D01*
X69491500Y-59717500D01*
X69491500Y-60162000D01*
G36*
X69491500Y-59495250D02*
G01*
X69501329Y-59346292D01*
X69556789Y-59285202D01*
X69696833Y-59273028D01*
X69713750Y-59273000D01*
X69862708Y-59263171D01*
X69923798Y-59207711D01*
X69935972Y-59067667D01*
X69936000Y-59050750D01*
X69926170Y-58901792D01*
X69870710Y-58840702D01*
X69730666Y-58828528D01*
X69713750Y-58828500D01*
X69564791Y-58838330D01*
X69503701Y-58893790D01*
X69491527Y-59033834D01*
X69491500Y-59050750D01*
X69491500Y-59273000D01*
X68602500Y-59273000D01*
X68602500Y-59717500D01*
X69491500Y-59717500D01*
X69491500Y-59495250D01*
G37*
X69491500Y-59495250D02*
X69501329Y-59346292D01*
X69556789Y-59285202D01*
X69696833Y-59273028D01*
X69713750Y-59273000D01*
X69862708Y-59263171D01*
X69923798Y-59207711D01*
X69935972Y-59067667D01*
X69936000Y-59050750D01*
X69926170Y-58901792D01*
X69870710Y-58840702D01*
X69730666Y-58828528D01*
X69713750Y-58828500D01*
X69564791Y-58838330D01*
X69503701Y-58893790D01*
X69491527Y-59033834D01*
X69491500Y-59050750D01*
X69491500Y-59273000D01*
X68602500Y-59273000D01*
X68602500Y-59717500D01*
X69491500Y-59717500D01*
X69491500Y-59495250D01*
G36*
X66824500Y-66829500D02*
G01*
X67046750Y-66829500D01*
X67195708Y-66839330D01*
X67256798Y-66894790D01*
X67268972Y-67034834D01*
X67269000Y-67051750D01*
X67278829Y-67200709D01*
X67334289Y-67261799D01*
X67474333Y-67273973D01*
X67491250Y-67274000D01*
X67640208Y-67264171D01*
X67701298Y-67208711D01*
X67713472Y-67068667D01*
X67713500Y-67051750D01*
X67703670Y-66902792D01*
X67648210Y-66841702D01*
X67508166Y-66829528D01*
X67491250Y-66829500D01*
X67342291Y-66819671D01*
X67281201Y-66764211D01*
X67269027Y-66624167D01*
X67269000Y-66607250D01*
X67278829Y-66458292D01*
X67334289Y-66397202D01*
X67474333Y-66385028D01*
X67491250Y-66385000D01*
X67713500Y-66385000D01*
X67713500Y-65051500D01*
X68602500Y-65051500D01*
X68602500Y-64829250D01*
X68612329Y-64680292D01*
X68667789Y-64619202D01*
X68807833Y-64607028D01*
X68824750Y-64607000D01*
X69047000Y-64607000D01*
X69047000Y-63718000D01*
X69936000Y-63718000D01*
X69936000Y-63495750D01*
X69945829Y-63346792D01*
X70001289Y-63285702D01*
X70141333Y-63273528D01*
X70158250Y-63273500D01*
X70380500Y-63273500D01*
X70380500Y-62384500D01*
X70158250Y-62384500D01*
X70009291Y-62394330D01*
X69948201Y-62449790D01*
X69936027Y-62589834D01*
X69936000Y-62606750D01*
X69926170Y-62755709D01*
X69870710Y-62816799D01*
X69730666Y-62828973D01*
X69713750Y-62829000D01*
X69491500Y-62829000D01*
X69491500Y-60606500D01*
X68602500Y-60606500D01*
X68602500Y-60384250D01*
X68592670Y-60235292D01*
X68537210Y-60174202D01*
X68397166Y-60162028D01*
X68380250Y-60162000D01*
X68231291Y-60171830D01*
X68170201Y-60227290D01*
X68158027Y-60367334D01*
X68158000Y-60384250D01*
X68148170Y-60533209D01*
X68092710Y-60594299D01*
X67952666Y-60606473D01*
X67935750Y-60606500D01*
X67713500Y-60606500D01*
X67713500Y-59717500D01*
X68158000Y-59717500D01*
X68158000Y-58828500D01*
X67269000Y-58828500D01*
X67269000Y-60606500D01*
X66824500Y-60606500D01*
X66824500Y-59717500D01*
X66380000Y-59717500D01*
X66380000Y-58828500D01*
X65046500Y-58828500D01*
X65046500Y-59050750D01*
X65036670Y-59199709D01*
X64981210Y-59260799D01*
X64841166Y-59272973D01*
X64824250Y-59273000D01*
X64675291Y-59282830D01*
X64614201Y-59338290D01*
X64602027Y-59478334D01*
X64602000Y-59495250D01*
X64592170Y-59644209D01*
X64536710Y-59705299D01*
X64396666Y-59717473D01*
X64379750Y-59717500D01*
X64157500Y-59717500D01*
X64157500Y-60606500D01*
X64602000Y-60606500D01*
X64602000Y-59717500D01*
X64824250Y-59717500D01*
X64973208Y-59707671D01*
X65034298Y-59652211D01*
X65046472Y-59512167D01*
X65046500Y-59495250D01*
X65056329Y-59346292D01*
X65111789Y-59285202D01*
X65251833Y-59273028D01*
X65268750Y-59273000D01*
X65417708Y-59282830D01*
X65478798Y-59338290D01*
X65490972Y-59478334D01*
X65491000Y-59495250D01*
X65500829Y-59644209D01*
X65556289Y-59705299D01*
X65696333Y-59717473D01*
X65713250Y-59717500D01*
X65862208Y-59727330D01*
X65923298Y-59782790D01*
X65935472Y-59922834D01*
X65935500Y-59939750D01*
X65925670Y-60088709D01*
X65870210Y-60149799D01*
X65730166Y-60161973D01*
X65713250Y-60162000D01*
X65564291Y-60171830D01*
X65503201Y-60227290D01*
X65491027Y-60367334D01*
X65491000Y-60384250D01*
X65491000Y-60606500D01*
X64602000Y-60606500D01*
X64157500Y-60606500D01*
X64157500Y-61051000D01*
X63713000Y-61051000D01*
X63713000Y-62384500D01*
X63935250Y-62384500D01*
X64084208Y-62394330D01*
X64145298Y-62449790D01*
X64157472Y-62589834D01*
X64157500Y-62606750D01*
X64147670Y-62755709D01*
X64092210Y-62816799D01*
X63952166Y-62828973D01*
X63935250Y-62829000D01*
X63713000Y-62829000D01*
X63713000Y-63051250D01*
X64157500Y-63051250D01*
X64157500Y-62829000D01*
X65046500Y-62829000D01*
X65046500Y-62606750D01*
X65036670Y-62457792D01*
X64981210Y-62396702D01*
X64841166Y-62384528D01*
X64824250Y-62384500D01*
X64675291Y-62374671D01*
X64614201Y-62319211D01*
X64602027Y-62179167D01*
X64602000Y-62162250D01*
X64592170Y-62013292D01*
X64536710Y-61952202D01*
X64396666Y-61940028D01*
X64379750Y-61940000D01*
X64157500Y-61940000D01*
X64157500Y-61051000D01*
X64379750Y-61051000D01*
X64528708Y-61060830D01*
X64589798Y-61116290D01*
X64601972Y-61256334D01*
X64602000Y-61273250D01*
X64602000Y-61495500D01*
X65491000Y-61495500D01*
X65491000Y-60606500D01*
X66824500Y-60606500D01*
X66824500Y-60828750D01*
X66814670Y-60977709D01*
X66759210Y-61038799D01*
X66619166Y-61050973D01*
X66602250Y-61051000D01*
X66453291Y-61060830D01*
X66392201Y-61116290D01*
X66380027Y-61256334D01*
X66380000Y-61273250D01*
X66380000Y-61495500D01*
X65491000Y-61495500D01*
X65491000Y-61940000D01*
X66824500Y-61940000D01*
X66824500Y-61717750D01*
X66834329Y-61568792D01*
X66889789Y-61507702D01*
X67029833Y-61495528D01*
X67046750Y-61495500D01*
X67195708Y-61505330D01*
X67256798Y-61560790D01*
X67268972Y-61700834D01*
X67269000Y-61717750D01*
X67259170Y-61866709D01*
X67203710Y-61927799D01*
X67063666Y-61939973D01*
X67046750Y-61940000D01*
X66897791Y-61949830D01*
X66836701Y-62005290D01*
X66824527Y-62145334D01*
X66824500Y-62162250D01*
X66834329Y-62311209D01*
X66889789Y-62372299D01*
X67029833Y-62384473D01*
X67046750Y-62384500D01*
X67269000Y-62384500D01*
X67713500Y-62384500D01*
X67713500Y-61051000D01*
X69047000Y-61051000D01*
X69047000Y-62384500D01*
X67713500Y-62384500D01*
X67269000Y-62384500D01*
X67269000Y-63051250D01*
X67713500Y-63051250D01*
X67723329Y-62902292D01*
X67778789Y-62841202D01*
X67918833Y-62829028D01*
X67935750Y-62829000D01*
X68084708Y-62838830D01*
X68145798Y-62894290D01*
X68157972Y-63034334D01*
X68158000Y-63051250D01*
X69047000Y-63051250D01*
X69056829Y-62902292D01*
X69112289Y-62841202D01*
X69252333Y-62829028D01*
X69269250Y-62829000D01*
X69418208Y-62838830D01*
X69479298Y-62894290D01*
X69491472Y-63034334D01*
X69491500Y-63051250D01*
X69481670Y-63200209D01*
X69426210Y-63261299D01*
X69286166Y-63273473D01*
X69269250Y-63273500D01*
X69120291Y-63263671D01*
X69059201Y-63208211D01*
X69047027Y-63068167D01*
X69047000Y-63051250D01*
X68158000Y-63051250D01*
X68148170Y-63200209D01*
X68092710Y-63261299D01*
X67952666Y-63273473D01*
X67935750Y-63273500D01*
X67786791Y-63263671D01*
X67725701Y-63208211D01*
X67713527Y-63068167D01*
X67713500Y-63051250D01*
X67269000Y-63051250D01*
X67269000Y-63273500D01*
X66824500Y-63273500D01*
X66824500Y-64162500D01*
X67046750Y-64162500D01*
X67195708Y-64152671D01*
X67256798Y-64097211D01*
X67268972Y-63957167D01*
X67269000Y-63940250D01*
X67278829Y-63791292D01*
X67334289Y-63730202D01*
X67474333Y-63718028D01*
X67491250Y-63718000D01*
X67640208Y-63727830D01*
X67701298Y-63783290D01*
X67713472Y-63923334D01*
X67713500Y-63940250D01*
X67723329Y-64089209D01*
X67778789Y-64150299D01*
X67918833Y-64162473D01*
X67935750Y-64162500D01*
X68084708Y-64152671D01*
X68145798Y-64097211D01*
X68157972Y-63957167D01*
X68158000Y-63940250D01*
X68167829Y-63791292D01*
X68223289Y-63730202D01*
X68363333Y-63718028D01*
X68380250Y-63718000D01*
X68529208Y-63727830D01*
X68590298Y-63783290D01*
X68602472Y-63923334D01*
X68602500Y-63940250D01*
X68592670Y-64089209D01*
X68537210Y-64150299D01*
X68397166Y-64162473D01*
X68380250Y-64162500D01*
X68231291Y-64172330D01*
X68170201Y-64227790D01*
X68158027Y-64367834D01*
X68158000Y-64384750D01*
X68148170Y-64533709D01*
X68092710Y-64594799D01*
X67952666Y-64606973D01*
X67935750Y-64607000D01*
X67786791Y-64597171D01*
X67725701Y-64541711D01*
X67713527Y-64401667D01*
X67713500Y-64384750D01*
X67703670Y-64235792D01*
X67648210Y-64174702D01*
X67508166Y-64162528D01*
X67491250Y-64162500D01*
X67342291Y-64172330D01*
X67281201Y-64227790D01*
X67269027Y-64367834D01*
X67269000Y-64384750D01*
X67259170Y-64533709D01*
X67203710Y-64594799D01*
X67063666Y-64606973D01*
X67046750Y-64607000D01*
X66824500Y-64607000D01*
X66824500Y-65496000D01*
X66380000Y-65496000D01*
X66380000Y-65051500D01*
X65491000Y-65051500D01*
X65491000Y-64829250D01*
X65481170Y-64680292D01*
X65425710Y-64619202D01*
X65285666Y-64607028D01*
X65268750Y-64607000D01*
X65046500Y-64607000D01*
X65046500Y-63718000D01*
X64824250Y-63718000D01*
X64675291Y-63708171D01*
X64614201Y-63652711D01*
X64602027Y-63512667D01*
X64602000Y-63495750D01*
X64592170Y-63346792D01*
X64536710Y-63285702D01*
X64396666Y-63273528D01*
X64379750Y-63273500D01*
X64230791Y-63263671D01*
X64169701Y-63208211D01*
X64157527Y-63068167D01*
X64157500Y-63051250D01*
X63713000Y-63051250D01*
X63713000Y-63718000D01*
X63935250Y-63718000D01*
X64084208Y-63727830D01*
X64145298Y-63783290D01*
X64157472Y-63923334D01*
X64157500Y-63940250D01*
X64147670Y-64089209D01*
X64092210Y-64150299D01*
X63952166Y-64162473D01*
X63935250Y-64162500D01*
X63786291Y-64172330D01*
X63725201Y-64227790D01*
X63713027Y-64367834D01*
X63713000Y-64384750D01*
X63713000Y-64607000D01*
X64602000Y-64607000D01*
X64602000Y-64829250D01*
X64592170Y-64978209D01*
X64536710Y-65039299D01*
X64396666Y-65051473D01*
X64379750Y-65051500D01*
X64230791Y-65061330D01*
X64169701Y-65116790D01*
X64157527Y-65256834D01*
X64157500Y-65273750D01*
X64157500Y-65496000D01*
X63268500Y-65496000D01*
X63268500Y-65273750D01*
X63258670Y-65124792D01*
X63203210Y-65063702D01*
X63063166Y-65051528D01*
X63046250Y-65051500D01*
X62897291Y-65061330D01*
X62836201Y-65116790D01*
X62824027Y-65256834D01*
X62824000Y-65273750D01*
X62814170Y-65422709D01*
X62758710Y-65483799D01*
X62618666Y-65495973D01*
X62601750Y-65496000D01*
X62379500Y-65496000D01*
X62379500Y-65718250D01*
X62824000Y-65718250D01*
X62833829Y-65569292D01*
X62889289Y-65508202D01*
X63029333Y-65496028D01*
X63046250Y-65496000D01*
X63195208Y-65505830D01*
X63256298Y-65561290D01*
X63268472Y-65701334D01*
X63268500Y-65718250D01*
X64157500Y-65718250D01*
X64167329Y-65569292D01*
X64222789Y-65508202D01*
X64362833Y-65496028D01*
X64379750Y-65496000D01*
X64528708Y-65486171D01*
X64589798Y-65430711D01*
X64601972Y-65290667D01*
X64602000Y-65273750D01*
X64611829Y-65124792D01*
X64667289Y-65063702D01*
X64807333Y-65051528D01*
X64824250Y-65051500D01*
X64973208Y-65061330D01*
X65034298Y-65116790D01*
X65046472Y-65256834D01*
X65046500Y-65273750D01*
X65046500Y-65496000D01*
X64824250Y-65496000D01*
X64675291Y-65505830D01*
X64614201Y-65561290D01*
X64602027Y-65701334D01*
X64602000Y-65718250D01*
X64592170Y-65867209D01*
X64536710Y-65928299D01*
X64396666Y-65940473D01*
X64379750Y-65940500D01*
X64230791Y-65930671D01*
X64169701Y-65875211D01*
X64157527Y-65735167D01*
X64157500Y-65718250D01*
X63268500Y-65718250D01*
X63258670Y-65867209D01*
X63203210Y-65928299D01*
X63063166Y-65940473D01*
X63046250Y-65940500D01*
X62897291Y-65930671D01*
X62836201Y-65875211D01*
X62824027Y-65735167D01*
X62824000Y-65718250D01*
X62379500Y-65718250D01*
X62379500Y-66385000D01*
X63713000Y-66385000D01*
X63713000Y-66162750D01*
X63722829Y-66013792D01*
X63778289Y-65952702D01*
X63918333Y-65940528D01*
X63935250Y-65940500D01*
X64157500Y-65940500D01*
X64157500Y-66829500D01*
X63935250Y-66829500D01*
X63786291Y-66839330D01*
X63725201Y-66894790D01*
X63713027Y-67034834D01*
X63713000Y-67051750D01*
X64157500Y-67051750D01*
X64167329Y-66902792D01*
X64222789Y-66841702D01*
X64362833Y-66829528D01*
X64379750Y-66829500D01*
X64528708Y-66819671D01*
X64589798Y-66764211D01*
X64601972Y-66624167D01*
X64602000Y-66607250D01*
X64611829Y-66458292D01*
X64667289Y-66397202D01*
X64807333Y-66385028D01*
X64824250Y-66385000D01*
X65046500Y-66385000D01*
X65046500Y-65496000D01*
X66380000Y-65496000D01*
X66380000Y-66385000D01*
X66602250Y-66385000D01*
X66751208Y-66394830D01*
X66812298Y-66450290D01*
X66824472Y-66590334D01*
X66824500Y-66607250D01*
X66814670Y-66756209D01*
X66759210Y-66817299D01*
X66619166Y-66829473D01*
X66602250Y-66829500D01*
X66453291Y-66839330D01*
X66392201Y-66894790D01*
X66380027Y-67034834D01*
X66380000Y-67051750D01*
X66370170Y-67200709D01*
X66314710Y-67261799D01*
X66174666Y-67273973D01*
X66157750Y-67274000D01*
X66008791Y-67283830D01*
X65947701Y-67339290D01*
X65935527Y-67479334D01*
X65935500Y-67496250D01*
X65925670Y-67645209D01*
X65870210Y-67706299D01*
X65730166Y-67718473D01*
X65713250Y-67718500D01*
X65564291Y-67728330D01*
X65503201Y-67783790D01*
X65491027Y-67923834D01*
X65491000Y-67940750D01*
X65481170Y-68089709D01*
X65425710Y-68150799D01*
X65285666Y-68162973D01*
X65268750Y-68163000D01*
X65046500Y-68163000D01*
X65046500Y-66829500D01*
X64824250Y-66829500D01*
X64675291Y-66839330D01*
X64614201Y-66894790D01*
X64602027Y-67034834D01*
X64602000Y-67051750D01*
X64592170Y-67200709D01*
X64536710Y-67261799D01*
X64396666Y-67273973D01*
X64379750Y-67274000D01*
X64230791Y-67264171D01*
X64169701Y-67208711D01*
X64157527Y-67068667D01*
X64157500Y-67051750D01*
X63713000Y-67051750D01*
X63722829Y-67200709D01*
X63778289Y-67261799D01*
X63918333Y-67273973D01*
X63935250Y-67274000D01*
X64084208Y-67283830D01*
X64145298Y-67339290D01*
X64157472Y-67479334D01*
X64157500Y-67496250D01*
X64147670Y-67645209D01*
X64092210Y-67706299D01*
X63952166Y-67718473D01*
X63935250Y-67718500D01*
X63713000Y-67718500D01*
X63713000Y-68607500D01*
X63935250Y-68607500D01*
X64157500Y-68607500D01*
X64157500Y-67718500D01*
X64602000Y-67718500D01*
X64602000Y-68607500D01*
X64157500Y-68607500D01*
X63935250Y-68607500D01*
X64084208Y-68617330D01*
X64145298Y-68672790D01*
X64157472Y-68812834D01*
X64157500Y-68829750D01*
X64157500Y-69052000D01*
X65046500Y-69052000D01*
X65046500Y-69496500D01*
X64157500Y-69496500D01*
X64157500Y-69941000D01*
X65491000Y-69941000D01*
X65491000Y-69718750D01*
X65500829Y-69569792D01*
X65556289Y-69508702D01*
X65696333Y-69496528D01*
X65713250Y-69496500D01*
X65862208Y-69486671D01*
X65923298Y-69431211D01*
X65935472Y-69291167D01*
X65935500Y-69274250D01*
X65925670Y-69125292D01*
X65870210Y-69064202D01*
X65730166Y-69052028D01*
X65713250Y-69052000D01*
X65491000Y-69052000D01*
X65491000Y-68163000D01*
X65713250Y-68163000D01*
X65862208Y-68153171D01*
X65923298Y-68097711D01*
X65935472Y-67957667D01*
X65935500Y-67940750D01*
X65935500Y-67718500D01*
X66824500Y-67718500D01*
X66824500Y-66829500D01*
G37*
X66824500Y-66829500D02*
X67046750Y-66829500D01*
X67195708Y-66839330D01*
X67256798Y-66894790D01*
X67268972Y-67034834D01*
X67269000Y-67051750D01*
X67278829Y-67200709D01*
X67334289Y-67261799D01*
X67474333Y-67273973D01*
X67491250Y-67274000D01*
X67640208Y-67264171D01*
X67701298Y-67208711D01*
X67713472Y-67068667D01*
X67713500Y-67051750D01*
X67703670Y-66902792D01*
X67648210Y-66841702D01*
X67508166Y-66829528D01*
X67491250Y-66829500D01*
X67342291Y-66819671D01*
X67281201Y-66764211D01*
X67269027Y-66624167D01*
X67269000Y-66607250D01*
X67278829Y-66458292D01*
X67334289Y-66397202D01*
X67474333Y-66385028D01*
X67491250Y-66385000D01*
X67713500Y-66385000D01*
X67713500Y-65051500D01*
X68602500Y-65051500D01*
X68602500Y-64829250D01*
X68612329Y-64680292D01*
X68667789Y-64619202D01*
X68807833Y-64607028D01*
X68824750Y-64607000D01*
X69047000Y-64607000D01*
X69047000Y-63718000D01*
X69936000Y-63718000D01*
X69936000Y-63495750D01*
X69945829Y-63346792D01*
X70001289Y-63285702D01*
X70141333Y-63273528D01*
X70158250Y-63273500D01*
X70380500Y-63273500D01*
X70380500Y-62384500D01*
X70158250Y-62384500D01*
X70009291Y-62394330D01*
X69948201Y-62449790D01*
X69936027Y-62589834D01*
X69936000Y-62606750D01*
X69926170Y-62755709D01*
X69870710Y-62816799D01*
X69730666Y-62828973D01*
X69713750Y-62829000D01*
X69491500Y-62829000D01*
X69491500Y-60606500D01*
X68602500Y-60606500D01*
X68602500Y-60384250D01*
X68592670Y-60235292D01*
X68537210Y-60174202D01*
X68397166Y-60162028D01*
X68380250Y-60162000D01*
X68231291Y-60171830D01*
X68170201Y-60227290D01*
X68158027Y-60367334D01*
X68158000Y-60384250D01*
X68148170Y-60533209D01*
X68092710Y-60594299D01*
X67952666Y-60606473D01*
X67935750Y-60606500D01*
X67713500Y-60606500D01*
X67713500Y-59717500D01*
X68158000Y-59717500D01*
X68158000Y-58828500D01*
X67269000Y-58828500D01*
X67269000Y-60606500D01*
X66824500Y-60606500D01*
X66824500Y-59717500D01*
X66380000Y-59717500D01*
X66380000Y-58828500D01*
X65046500Y-58828500D01*
X65046500Y-59050750D01*
X65036670Y-59199709D01*
X64981210Y-59260799D01*
X64841166Y-59272973D01*
X64824250Y-59273000D01*
X64675291Y-59282830D01*
X64614201Y-59338290D01*
X64602027Y-59478334D01*
X64602000Y-59495250D01*
X64592170Y-59644209D01*
X64536710Y-59705299D01*
X64396666Y-59717473D01*
X64379750Y-59717500D01*
X64157500Y-59717500D01*
X64157500Y-60606500D01*
X64602000Y-60606500D01*
X64602000Y-59717500D01*
X64824250Y-59717500D01*
X64973208Y-59707671D01*
X65034298Y-59652211D01*
X65046472Y-59512167D01*
X65046500Y-59495250D01*
X65056329Y-59346292D01*
X65111789Y-59285202D01*
X65251833Y-59273028D01*
X65268750Y-59273000D01*
X65417708Y-59282830D01*
X65478798Y-59338290D01*
X65490972Y-59478334D01*
X65491000Y-59495250D01*
X65500829Y-59644209D01*
X65556289Y-59705299D01*
X65696333Y-59717473D01*
X65713250Y-59717500D01*
X65862208Y-59727330D01*
X65923298Y-59782790D01*
X65935472Y-59922834D01*
X65935500Y-59939750D01*
X65925670Y-60088709D01*
X65870210Y-60149799D01*
X65730166Y-60161973D01*
X65713250Y-60162000D01*
X65564291Y-60171830D01*
X65503201Y-60227290D01*
X65491027Y-60367334D01*
X65491000Y-60384250D01*
X65491000Y-60606500D01*
X64602000Y-60606500D01*
X64157500Y-60606500D01*
X64157500Y-61051000D01*
X63713000Y-61051000D01*
X63713000Y-62384500D01*
X63935250Y-62384500D01*
X64084208Y-62394330D01*
X64145298Y-62449790D01*
X64157472Y-62589834D01*
X64157500Y-62606750D01*
X64147670Y-62755709D01*
X64092210Y-62816799D01*
X63952166Y-62828973D01*
X63935250Y-62829000D01*
X63713000Y-62829000D01*
X63713000Y-63051250D01*
X64157500Y-63051250D01*
X64157500Y-62829000D01*
X65046500Y-62829000D01*
X65046500Y-62606750D01*
X65036670Y-62457792D01*
X64981210Y-62396702D01*
X64841166Y-62384528D01*
X64824250Y-62384500D01*
X64675291Y-62374671D01*
X64614201Y-62319211D01*
X64602027Y-62179167D01*
X64602000Y-62162250D01*
X64592170Y-62013292D01*
X64536710Y-61952202D01*
X64396666Y-61940028D01*
X64379750Y-61940000D01*
X64157500Y-61940000D01*
X64157500Y-61051000D01*
X64379750Y-61051000D01*
X64528708Y-61060830D01*
X64589798Y-61116290D01*
X64601972Y-61256334D01*
X64602000Y-61273250D01*
X64602000Y-61495500D01*
X65491000Y-61495500D01*
X65491000Y-60606500D01*
X66824500Y-60606500D01*
X66824500Y-60828750D01*
X66814670Y-60977709D01*
X66759210Y-61038799D01*
X66619166Y-61050973D01*
X66602250Y-61051000D01*
X66453291Y-61060830D01*
X66392201Y-61116290D01*
X66380027Y-61256334D01*
X66380000Y-61273250D01*
X66380000Y-61495500D01*
X65491000Y-61495500D01*
X65491000Y-61940000D01*
X66824500Y-61940000D01*
X66824500Y-61717750D01*
X66834329Y-61568792D01*
X66889789Y-61507702D01*
X67029833Y-61495528D01*
X67046750Y-61495500D01*
X67195708Y-61505330D01*
X67256798Y-61560790D01*
X67268972Y-61700834D01*
X67269000Y-61717750D01*
X67259170Y-61866709D01*
X67203710Y-61927799D01*
X67063666Y-61939973D01*
X67046750Y-61940000D01*
X66897791Y-61949830D01*
X66836701Y-62005290D01*
X66824527Y-62145334D01*
X66824500Y-62162250D01*
X66834329Y-62311209D01*
X66889789Y-62372299D01*
X67029833Y-62384473D01*
X67046750Y-62384500D01*
X67269000Y-62384500D01*
X67713500Y-62384500D01*
X67713500Y-61051000D01*
X69047000Y-61051000D01*
X69047000Y-62384500D01*
X67713500Y-62384500D01*
X67269000Y-62384500D01*
X67269000Y-63051250D01*
X67713500Y-63051250D01*
X67723329Y-62902292D01*
X67778789Y-62841202D01*
X67918833Y-62829028D01*
X67935750Y-62829000D01*
X68084708Y-62838830D01*
X68145798Y-62894290D01*
X68157972Y-63034334D01*
X68158000Y-63051250D01*
X69047000Y-63051250D01*
X69056829Y-62902292D01*
X69112289Y-62841202D01*
X69252333Y-62829028D01*
X69269250Y-62829000D01*
X69418208Y-62838830D01*
X69479298Y-62894290D01*
X69491472Y-63034334D01*
X69491500Y-63051250D01*
X69481670Y-63200209D01*
X69426210Y-63261299D01*
X69286166Y-63273473D01*
X69269250Y-63273500D01*
X69120291Y-63263671D01*
X69059201Y-63208211D01*
X69047027Y-63068167D01*
X69047000Y-63051250D01*
X68158000Y-63051250D01*
X68148170Y-63200209D01*
X68092710Y-63261299D01*
X67952666Y-63273473D01*
X67935750Y-63273500D01*
X67786791Y-63263671D01*
X67725701Y-63208211D01*
X67713527Y-63068167D01*
X67713500Y-63051250D01*
X67269000Y-63051250D01*
X67269000Y-63273500D01*
X66824500Y-63273500D01*
X66824500Y-64162500D01*
X67046750Y-64162500D01*
X67195708Y-64152671D01*
X67256798Y-64097211D01*
X67268972Y-63957167D01*
X67269000Y-63940250D01*
X67278829Y-63791292D01*
X67334289Y-63730202D01*
X67474333Y-63718028D01*
X67491250Y-63718000D01*
X67640208Y-63727830D01*
X67701298Y-63783290D01*
X67713472Y-63923334D01*
X67713500Y-63940250D01*
X67723329Y-64089209D01*
X67778789Y-64150299D01*
X67918833Y-64162473D01*
X67935750Y-64162500D01*
X68084708Y-64152671D01*
X68145798Y-64097211D01*
X68157972Y-63957167D01*
X68158000Y-63940250D01*
X68167829Y-63791292D01*
X68223289Y-63730202D01*
X68363333Y-63718028D01*
X68380250Y-63718000D01*
X68529208Y-63727830D01*
X68590298Y-63783290D01*
X68602472Y-63923334D01*
X68602500Y-63940250D01*
X68592670Y-64089209D01*
X68537210Y-64150299D01*
X68397166Y-64162473D01*
X68380250Y-64162500D01*
X68231291Y-64172330D01*
X68170201Y-64227790D01*
X68158027Y-64367834D01*
X68158000Y-64384750D01*
X68148170Y-64533709D01*
X68092710Y-64594799D01*
X67952666Y-64606973D01*
X67935750Y-64607000D01*
X67786791Y-64597171D01*
X67725701Y-64541711D01*
X67713527Y-64401667D01*
X67713500Y-64384750D01*
X67703670Y-64235792D01*
X67648210Y-64174702D01*
X67508166Y-64162528D01*
X67491250Y-64162500D01*
X67342291Y-64172330D01*
X67281201Y-64227790D01*
X67269027Y-64367834D01*
X67269000Y-64384750D01*
X67259170Y-64533709D01*
X67203710Y-64594799D01*
X67063666Y-64606973D01*
X67046750Y-64607000D01*
X66824500Y-64607000D01*
X66824500Y-65496000D01*
X66380000Y-65496000D01*
X66380000Y-65051500D01*
X65491000Y-65051500D01*
X65491000Y-64829250D01*
X65481170Y-64680292D01*
X65425710Y-64619202D01*
X65285666Y-64607028D01*
X65268750Y-64607000D01*
X65046500Y-64607000D01*
X65046500Y-63718000D01*
X64824250Y-63718000D01*
X64675291Y-63708171D01*
X64614201Y-63652711D01*
X64602027Y-63512667D01*
X64602000Y-63495750D01*
X64592170Y-63346792D01*
X64536710Y-63285702D01*
X64396666Y-63273528D01*
X64379750Y-63273500D01*
X64230791Y-63263671D01*
X64169701Y-63208211D01*
X64157527Y-63068167D01*
X64157500Y-63051250D01*
X63713000Y-63051250D01*
X63713000Y-63718000D01*
X63935250Y-63718000D01*
X64084208Y-63727830D01*
X64145298Y-63783290D01*
X64157472Y-63923334D01*
X64157500Y-63940250D01*
X64147670Y-64089209D01*
X64092210Y-64150299D01*
X63952166Y-64162473D01*
X63935250Y-64162500D01*
X63786291Y-64172330D01*
X63725201Y-64227790D01*
X63713027Y-64367834D01*
X63713000Y-64384750D01*
X63713000Y-64607000D01*
X64602000Y-64607000D01*
X64602000Y-64829250D01*
X64592170Y-64978209D01*
X64536710Y-65039299D01*
X64396666Y-65051473D01*
X64379750Y-65051500D01*
X64230791Y-65061330D01*
X64169701Y-65116790D01*
X64157527Y-65256834D01*
X64157500Y-65273750D01*
X64157500Y-65496000D01*
X63268500Y-65496000D01*
X63268500Y-65273750D01*
X63258670Y-65124792D01*
X63203210Y-65063702D01*
X63063166Y-65051528D01*
X63046250Y-65051500D01*
X62897291Y-65061330D01*
X62836201Y-65116790D01*
X62824027Y-65256834D01*
X62824000Y-65273750D01*
X62814170Y-65422709D01*
X62758710Y-65483799D01*
X62618666Y-65495973D01*
X62601750Y-65496000D01*
X62379500Y-65496000D01*
X62379500Y-65718250D01*
X62824000Y-65718250D01*
X62833829Y-65569292D01*
X62889289Y-65508202D01*
X63029333Y-65496028D01*
X63046250Y-65496000D01*
X63195208Y-65505830D01*
X63256298Y-65561290D01*
X63268472Y-65701334D01*
X63268500Y-65718250D01*
X64157500Y-65718250D01*
X64167329Y-65569292D01*
X64222789Y-65508202D01*
X64362833Y-65496028D01*
X64379750Y-65496000D01*
X64528708Y-65486171D01*
X64589798Y-65430711D01*
X64601972Y-65290667D01*
X64602000Y-65273750D01*
X64611829Y-65124792D01*
X64667289Y-65063702D01*
X64807333Y-65051528D01*
X64824250Y-65051500D01*
X64973208Y-65061330D01*
X65034298Y-65116790D01*
X65046472Y-65256834D01*
X65046500Y-65273750D01*
X65046500Y-65496000D01*
X64824250Y-65496000D01*
X64675291Y-65505830D01*
X64614201Y-65561290D01*
X64602027Y-65701334D01*
X64602000Y-65718250D01*
X64592170Y-65867209D01*
X64536710Y-65928299D01*
X64396666Y-65940473D01*
X64379750Y-65940500D01*
X64230791Y-65930671D01*
X64169701Y-65875211D01*
X64157527Y-65735167D01*
X64157500Y-65718250D01*
X63268500Y-65718250D01*
X63258670Y-65867209D01*
X63203210Y-65928299D01*
X63063166Y-65940473D01*
X63046250Y-65940500D01*
X62897291Y-65930671D01*
X62836201Y-65875211D01*
X62824027Y-65735167D01*
X62824000Y-65718250D01*
X62379500Y-65718250D01*
X62379500Y-66385000D01*
X63713000Y-66385000D01*
X63713000Y-66162750D01*
X63722829Y-66013792D01*
X63778289Y-65952702D01*
X63918333Y-65940528D01*
X63935250Y-65940500D01*
X64157500Y-65940500D01*
X64157500Y-66829500D01*
X63935250Y-66829500D01*
X63786291Y-66839330D01*
X63725201Y-66894790D01*
X63713027Y-67034834D01*
X63713000Y-67051750D01*
X64157500Y-67051750D01*
X64167329Y-66902792D01*
X64222789Y-66841702D01*
X64362833Y-66829528D01*
X64379750Y-66829500D01*
X64528708Y-66819671D01*
X64589798Y-66764211D01*
X64601972Y-66624167D01*
X64602000Y-66607250D01*
X64611829Y-66458292D01*
X64667289Y-66397202D01*
X64807333Y-66385028D01*
X64824250Y-66385000D01*
X65046500Y-66385000D01*
X65046500Y-65496000D01*
X66380000Y-65496000D01*
X66380000Y-66385000D01*
X66602250Y-66385000D01*
X66751208Y-66394830D01*
X66812298Y-66450290D01*
X66824472Y-66590334D01*
X66824500Y-66607250D01*
X66814670Y-66756209D01*
X66759210Y-66817299D01*
X66619166Y-66829473D01*
X66602250Y-66829500D01*
X66453291Y-66839330D01*
X66392201Y-66894790D01*
X66380027Y-67034834D01*
X66380000Y-67051750D01*
X66370170Y-67200709D01*
X66314710Y-67261799D01*
X66174666Y-67273973D01*
X66157750Y-67274000D01*
X66008791Y-67283830D01*
X65947701Y-67339290D01*
X65935527Y-67479334D01*
X65935500Y-67496250D01*
X65925670Y-67645209D01*
X65870210Y-67706299D01*
X65730166Y-67718473D01*
X65713250Y-67718500D01*
X65564291Y-67728330D01*
X65503201Y-67783790D01*
X65491027Y-67923834D01*
X65491000Y-67940750D01*
X65481170Y-68089709D01*
X65425710Y-68150799D01*
X65285666Y-68162973D01*
X65268750Y-68163000D01*
X65046500Y-68163000D01*
X65046500Y-66829500D01*
X64824250Y-66829500D01*
X64675291Y-66839330D01*
X64614201Y-66894790D01*
X64602027Y-67034834D01*
X64602000Y-67051750D01*
X64592170Y-67200709D01*
X64536710Y-67261799D01*
X64396666Y-67273973D01*
X64379750Y-67274000D01*
X64230791Y-67264171D01*
X64169701Y-67208711D01*
X64157527Y-67068667D01*
X64157500Y-67051750D01*
X63713000Y-67051750D01*
X63722829Y-67200709D01*
X63778289Y-67261799D01*
X63918333Y-67273973D01*
X63935250Y-67274000D01*
X64084208Y-67283830D01*
X64145298Y-67339290D01*
X64157472Y-67479334D01*
X64157500Y-67496250D01*
X64147670Y-67645209D01*
X64092210Y-67706299D01*
X63952166Y-67718473D01*
X63935250Y-67718500D01*
X63713000Y-67718500D01*
X63713000Y-68607500D01*
X63935250Y-68607500D01*
X64157500Y-68607500D01*
X64157500Y-67718500D01*
X64602000Y-67718500D01*
X64602000Y-68607500D01*
X64157500Y-68607500D01*
X63935250Y-68607500D01*
X64084208Y-68617330D01*
X64145298Y-68672790D01*
X64157472Y-68812834D01*
X64157500Y-68829750D01*
X64157500Y-69052000D01*
X65046500Y-69052000D01*
X65046500Y-69496500D01*
X64157500Y-69496500D01*
X64157500Y-69941000D01*
X65491000Y-69941000D01*
X65491000Y-69718750D01*
X65500829Y-69569792D01*
X65556289Y-69508702D01*
X65696333Y-69496528D01*
X65713250Y-69496500D01*
X65862208Y-69486671D01*
X65923298Y-69431211D01*
X65935472Y-69291167D01*
X65935500Y-69274250D01*
X65925670Y-69125292D01*
X65870210Y-69064202D01*
X65730166Y-69052028D01*
X65713250Y-69052000D01*
X65491000Y-69052000D01*
X65491000Y-68163000D01*
X65713250Y-68163000D01*
X65862208Y-68153171D01*
X65923298Y-68097711D01*
X65935472Y-67957667D01*
X65935500Y-67940750D01*
X65935500Y-67718500D01*
X66824500Y-67718500D01*
X66824500Y-66829500D01*
G36*
X66824500Y-69052000D02*
G01*
X67046750Y-69052000D01*
X67195708Y-69042171D01*
X67256798Y-68986711D01*
X67268972Y-68846667D01*
X67269000Y-68829750D01*
X67278829Y-68680792D01*
X67334289Y-68619702D01*
X67474333Y-68607528D01*
X67491250Y-68607500D01*
X67713500Y-68607500D01*
X67713500Y-67718500D01*
X66824500Y-67718500D01*
X66824500Y-69052000D01*
G37*
X66824500Y-69052000D02*
X67046750Y-69052000D01*
X67195708Y-69042171D01*
X67256798Y-68986711D01*
X67268972Y-68846667D01*
X67269000Y-68829750D01*
X67278829Y-68680792D01*
X67334289Y-68619702D01*
X67474333Y-68607528D01*
X67491250Y-68607500D01*
X67713500Y-68607500D01*
X67713500Y-67718500D01*
X66824500Y-67718500D01*
X66824500Y-69052000D01*
G36*
X70380500Y-64162500D02*
G01*
X70825000Y-64162500D01*
X70825000Y-65051500D01*
X70602750Y-65051500D01*
X70453791Y-65061330D01*
X70392701Y-65116790D01*
X70380527Y-65256834D01*
X70380500Y-65273750D01*
X70370670Y-65422709D01*
X70315210Y-65483799D01*
X70175166Y-65495973D01*
X70158250Y-65496000D01*
X69936000Y-65496000D01*
X69936000Y-64607000D01*
X69713750Y-64607000D01*
X69564791Y-64616830D01*
X69503701Y-64672290D01*
X69491527Y-64812334D01*
X69491500Y-64829250D01*
X69481670Y-64978209D01*
X69426210Y-65039299D01*
X69286166Y-65051473D01*
X69269250Y-65051500D01*
X69120291Y-65061330D01*
X69059201Y-65116790D01*
X69047027Y-65256834D01*
X69047000Y-65273750D01*
X69037170Y-65422709D01*
X68981710Y-65483799D01*
X68841666Y-65495973D01*
X68824750Y-65496000D01*
X68675791Y-65505830D01*
X68614701Y-65561290D01*
X68602527Y-65701334D01*
X68602500Y-65718250D01*
X68612329Y-65867209D01*
X68667789Y-65928299D01*
X68807833Y-65940473D01*
X68824750Y-65940500D01*
X68973708Y-65950330D01*
X69034798Y-66005790D01*
X69046972Y-66145834D01*
X69047000Y-66162750D01*
X69047000Y-66385000D01*
X69936000Y-66385000D01*
X69936000Y-65940500D01*
X70825000Y-65940500D01*
X70825000Y-65718250D01*
X70834829Y-65569292D01*
X70890289Y-65508202D01*
X71030333Y-65496028D01*
X71047250Y-65496000D01*
X71269500Y-65496000D01*
X71269500Y-64162500D01*
X71047250Y-64162500D01*
X70898291Y-64152671D01*
X70837201Y-64097211D01*
X70825027Y-63957167D01*
X70825000Y-63940250D01*
X70834829Y-63791292D01*
X70890289Y-63730202D01*
X71030333Y-63718028D01*
X71047250Y-63718000D01*
X71269500Y-63718000D01*
X71269500Y-62829000D01*
X71047250Y-62829000D01*
X70898291Y-62838830D01*
X70837201Y-62894290D01*
X70825027Y-63034334D01*
X70825000Y-63051250D01*
X70815170Y-63200209D01*
X70759710Y-63261299D01*
X70619666Y-63273473D01*
X70602750Y-63273500D01*
X70380500Y-63273500D01*
X70380500Y-64162500D01*
G37*
X70380500Y-64162500D02*
X70825000Y-64162500D01*
X70825000Y-65051500D01*
X70602750Y-65051500D01*
X70453791Y-65061330D01*
X70392701Y-65116790D01*
X70380527Y-65256834D01*
X70380500Y-65273750D01*
X70370670Y-65422709D01*
X70315210Y-65483799D01*
X70175166Y-65495973D01*
X70158250Y-65496000D01*
X69936000Y-65496000D01*
X69936000Y-64607000D01*
X69713750Y-64607000D01*
X69564791Y-64616830D01*
X69503701Y-64672290D01*
X69491527Y-64812334D01*
X69491500Y-64829250D01*
X69481670Y-64978209D01*
X69426210Y-65039299D01*
X69286166Y-65051473D01*
X69269250Y-65051500D01*
X69120291Y-65061330D01*
X69059201Y-65116790D01*
X69047027Y-65256834D01*
X69047000Y-65273750D01*
X69037170Y-65422709D01*
X68981710Y-65483799D01*
X68841666Y-65495973D01*
X68824750Y-65496000D01*
X68675791Y-65505830D01*
X68614701Y-65561290D01*
X68602527Y-65701334D01*
X68602500Y-65718250D01*
X68612329Y-65867209D01*
X68667789Y-65928299D01*
X68807833Y-65940473D01*
X68824750Y-65940500D01*
X68973708Y-65950330D01*
X69034798Y-66005790D01*
X69046972Y-66145834D01*
X69047000Y-66162750D01*
X69047000Y-66385000D01*
X69936000Y-66385000D01*
X69936000Y-65940500D01*
X70825000Y-65940500D01*
X70825000Y-65718250D01*
X70834829Y-65569292D01*
X70890289Y-65508202D01*
X71030333Y-65496028D01*
X71047250Y-65496000D01*
X71269500Y-65496000D01*
X71269500Y-64162500D01*
X71047250Y-64162500D01*
X70898291Y-64152671D01*
X70837201Y-64097211D01*
X70825027Y-63957167D01*
X70825000Y-63940250D01*
X70834829Y-63791292D01*
X70890289Y-63730202D01*
X71030333Y-63718028D01*
X71047250Y-63718000D01*
X71269500Y-63718000D01*
X71269500Y-62829000D01*
X71047250Y-62829000D01*
X70898291Y-62838830D01*
X70837201Y-62894290D01*
X70825027Y-63034334D01*
X70825000Y-63051250D01*
X70815170Y-63200209D01*
X70759710Y-63261299D01*
X70619666Y-63273473D01*
X70602750Y-63273500D01*
X70380500Y-63273500D01*
X70380500Y-64162500D01*
G36*
X61935000Y-64607000D02*
G01*
X61935000Y-65496000D01*
X61046000Y-65496000D01*
X61046000Y-65273750D01*
X61055829Y-65124792D01*
X61111289Y-65063702D01*
X61251333Y-65051528D01*
X61268250Y-65051500D01*
X61417208Y-65041671D01*
X61478298Y-64986211D01*
X61490472Y-64846167D01*
X61490500Y-64829250D01*
X61480670Y-64680292D01*
X61425210Y-64619202D01*
X61285166Y-64607028D01*
X61268250Y-64607000D01*
X61119291Y-64597171D01*
X61058201Y-64541711D01*
X61046027Y-64401667D01*
X61046000Y-64384750D01*
X61036170Y-64235792D01*
X60980710Y-64174702D01*
X60840666Y-64162528D01*
X60823750Y-64162500D01*
X60601500Y-64162500D01*
X60601500Y-62384500D01*
X60157000Y-62384500D01*
X60157000Y-64607000D01*
X60379250Y-64607000D01*
X60528208Y-64616830D01*
X60589298Y-64672290D01*
X60601472Y-64812334D01*
X60601500Y-64829250D01*
X60591670Y-64978209D01*
X60536210Y-65039299D01*
X60396166Y-65051473D01*
X60379250Y-65051500D01*
X60157000Y-65051500D01*
X60157000Y-66385000D01*
X61046000Y-66385000D01*
X61046000Y-65940500D01*
X61935000Y-65940500D01*
X61935000Y-65718250D01*
X61944829Y-65569292D01*
X62000289Y-65508202D01*
X62140333Y-65496028D01*
X62157250Y-65496000D01*
X62379500Y-65496000D01*
X62379500Y-64607000D01*
X61935000Y-64607000D01*
G37*
X61935000Y-64607000D02*
X61935000Y-65496000D01*
X61046000Y-65496000D01*
X61046000Y-65273750D01*
X61055829Y-65124792D01*
X61111289Y-65063702D01*
X61251333Y-65051528D01*
X61268250Y-65051500D01*
X61417208Y-65041671D01*
X61478298Y-64986211D01*
X61490472Y-64846167D01*
X61490500Y-64829250D01*
X61480670Y-64680292D01*
X61425210Y-64619202D01*
X61285166Y-64607028D01*
X61268250Y-64607000D01*
X61119291Y-64597171D01*
X61058201Y-64541711D01*
X61046027Y-64401667D01*
X61046000Y-64384750D01*
X61036170Y-64235792D01*
X60980710Y-64174702D01*
X60840666Y-64162528D01*
X60823750Y-64162500D01*
X60601500Y-64162500D01*
X60601500Y-62384500D01*
X60157000Y-62384500D01*
X60157000Y-64607000D01*
X60379250Y-64607000D01*
X60528208Y-64616830D01*
X60589298Y-64672290D01*
X60601472Y-64812334D01*
X60601500Y-64829250D01*
X60591670Y-64978209D01*
X60536210Y-65039299D01*
X60396166Y-65051473D01*
X60379250Y-65051500D01*
X60157000Y-65051500D01*
X60157000Y-66385000D01*
X61046000Y-66385000D01*
X61046000Y-65940500D01*
X61935000Y-65940500D01*
X61935000Y-65718250D01*
X61944829Y-65569292D01*
X62000289Y-65508202D01*
X62140333Y-65496028D01*
X62157250Y-65496000D01*
X62379500Y-65496000D01*
X62379500Y-64607000D01*
X61935000Y-64607000D01*
G36*
X64157500Y-58828500D02*
G01*
X63713000Y-58828500D01*
X63713000Y-59717500D01*
X64157500Y-59717500D01*
X64157500Y-58828500D01*
G37*
X64157500Y-58828500D02*
X63713000Y-58828500D01*
X63713000Y-59717500D01*
X64157500Y-59717500D01*
X64157500Y-58828500D01*
G36*
X63268500Y-64607000D02*
G01*
X63268500Y-64384750D01*
X63258670Y-64235792D01*
X63203210Y-64174702D01*
X63063166Y-64162528D01*
X63046250Y-64162500D01*
X62897291Y-64152671D01*
X62836201Y-64097211D01*
X62824027Y-63957167D01*
X62824000Y-63940250D01*
X62833829Y-63791292D01*
X62889289Y-63730202D01*
X63029333Y-63718028D01*
X63046250Y-63718000D01*
X63195208Y-63708171D01*
X63256298Y-63652711D01*
X63268472Y-63512667D01*
X63268500Y-63495750D01*
X63268500Y-63273500D01*
X62379500Y-63273500D01*
X62379500Y-62829000D01*
X63268500Y-62829000D01*
X63268500Y-62384500D01*
X61046000Y-62384500D01*
X61046000Y-63495750D01*
X61490500Y-63495750D01*
X61500329Y-63346792D01*
X61555789Y-63285702D01*
X61695833Y-63273528D01*
X61712750Y-63273500D01*
X61861708Y-63283330D01*
X61922798Y-63338790D01*
X61934972Y-63478834D01*
X61935000Y-63495750D01*
X61925170Y-63644709D01*
X61869710Y-63705799D01*
X61729666Y-63717973D01*
X61712750Y-63718000D01*
X61563791Y-63708171D01*
X61502701Y-63652711D01*
X61490527Y-63512667D01*
X61490500Y-63495750D01*
X61046000Y-63495750D01*
X61046000Y-63718000D01*
X61268250Y-63718000D01*
X61417208Y-63727830D01*
X61478298Y-63783290D01*
X61490472Y-63923334D01*
X61490500Y-63940250D01*
X61500329Y-64089209D01*
X61555789Y-64150299D01*
X61695833Y-64162473D01*
X61712750Y-64162500D01*
X61861708Y-64152671D01*
X61922798Y-64097211D01*
X61934972Y-63957167D01*
X61935000Y-63940250D01*
X61944829Y-63791292D01*
X62000289Y-63730202D01*
X62140333Y-63718028D01*
X62157250Y-63718000D01*
X62379500Y-63718000D01*
X62379500Y-64607000D01*
X63268500Y-64607000D01*
G37*
X63268500Y-64607000D02*
X63268500Y-64384750D01*
X63258670Y-64235792D01*
X63203210Y-64174702D01*
X63063166Y-64162528D01*
X63046250Y-64162500D01*
X62897291Y-64152671D01*
X62836201Y-64097211D01*
X62824027Y-63957167D01*
X62824000Y-63940250D01*
X62833829Y-63791292D01*
X62889289Y-63730202D01*
X63029333Y-63718028D01*
X63046250Y-63718000D01*
X63195208Y-63708171D01*
X63256298Y-63652711D01*
X63268472Y-63512667D01*
X63268500Y-63495750D01*
X63268500Y-63273500D01*
X62379500Y-63273500D01*
X62379500Y-62829000D01*
X63268500Y-62829000D01*
X63268500Y-62384500D01*
X61046000Y-62384500D01*
X61046000Y-63495750D01*
X61490500Y-63495750D01*
X61500329Y-63346792D01*
X61555789Y-63285702D01*
X61695833Y-63273528D01*
X61712750Y-63273500D01*
X61861708Y-63283330D01*
X61922798Y-63338790D01*
X61934972Y-63478834D01*
X61935000Y-63495750D01*
X61925170Y-63644709D01*
X61869710Y-63705799D01*
X61729666Y-63717973D01*
X61712750Y-63718000D01*
X61563791Y-63708171D01*
X61502701Y-63652711D01*
X61490527Y-63512667D01*
X61490500Y-63495750D01*
X61046000Y-63495750D01*
X61046000Y-63718000D01*
X61268250Y-63718000D01*
X61417208Y-63727830D01*
X61478298Y-63783290D01*
X61490472Y-63923334D01*
X61490500Y-63940250D01*
X61500329Y-64089209D01*
X61555789Y-64150299D01*
X61695833Y-64162473D01*
X61712750Y-64162500D01*
X61861708Y-64152671D01*
X61922798Y-64097211D01*
X61934972Y-63957167D01*
X61935000Y-63940250D01*
X61944829Y-63791292D01*
X62000289Y-63730202D01*
X62140333Y-63718028D01*
X62157250Y-63718000D01*
X62379500Y-63718000D01*
X62379500Y-64607000D01*
X63268500Y-64607000D01*
G36*
X63268500Y-58828500D02*
G01*
X60157000Y-58828500D01*
X60157000Y-61495500D01*
X60601500Y-61495500D01*
X60601500Y-59273000D01*
X62824000Y-59273000D01*
X62824000Y-61495500D01*
X60601500Y-61495500D01*
X60157000Y-61495500D01*
X60157000Y-61940000D01*
X63268500Y-61940000D01*
X63268500Y-58828500D01*
G37*
X63268500Y-58828500D02*
X60157000Y-58828500D01*
X60157000Y-61495500D01*
X60601500Y-61495500D01*
X60601500Y-59273000D01*
X62824000Y-59273000D01*
X62824000Y-61495500D01*
X60601500Y-61495500D01*
X60157000Y-61495500D01*
X60157000Y-61940000D01*
X63268500Y-61940000D01*
X63268500Y-58828500D01*
M02*
