%TF.GenerationSoftware,KiCad,Pcbnew,5.1.9*%
%TF.CreationDate,2021-01-29T19:11:39+02:00*%
%TF.ProjectId,PlantBuddy,506c616e-7442-4756-9464-792e6b696361,rev?*%
%TF.SameCoordinates,Original*%
%TF.FileFunction,Legend,Bot*%
%TF.FilePolarity,Positive*%
%FSLAX46Y46*%
G04 Gerber Fmt 4.6, Leading zero omitted, Abs format (unit mm)*
G04 Created by KiCad (PCBNEW 5.1.9) date 2021-01-29 19:11:39*
%MOMM*%
%LPD*%
G01*
G04 APERTURE LIST*
%ADD10C,0.120000*%
%ADD11C,0.010000*%
G04 APERTURE END LIST*
D10*
%TO.C,BT1*%
X53640000Y-58370000D02*
X51640000Y-58370000D01*
X52640000Y-59370000D02*
X52640000Y-57370000D01*
X76990000Y-72720000D02*
X76990000Y-68220000D01*
X54290000Y-72720000D02*
X54290000Y-68220000D01*
X54290000Y-72720000D02*
X76990000Y-72720000D01*
X80190000Y-68220000D02*
X80190000Y-66670000D01*
X76990000Y-68220000D02*
X80190000Y-68220000D01*
X51090000Y-68220000D02*
X51090000Y-66670000D01*
X54290000Y-68220000D02*
X51090000Y-68220000D01*
X51090000Y-60520000D02*
X51090000Y-62070000D01*
X54290000Y-60520000D02*
X51090000Y-60520000D01*
X56090000Y-56020000D02*
X54290000Y-57820000D01*
X54290000Y-57820000D02*
X54290000Y-60520000D01*
X76990000Y-56020000D02*
X56090000Y-56020000D01*
X76990000Y-56020000D02*
X76990000Y-60520000D01*
X80190000Y-60520000D02*
X80190000Y-62070000D01*
X76990000Y-60520000D02*
X80190000Y-60520000D01*
D11*
%TO.C,G\u002A\u002A\u002A*%
G36*
X63268500Y-58828500D02*
G01*
X60157000Y-58828500D01*
X60157000Y-61495500D01*
X60601500Y-61495500D01*
X60601500Y-59273000D01*
X62824000Y-59273000D01*
X62824000Y-61495500D01*
X60601500Y-61495500D01*
X60157000Y-61495500D01*
X60157000Y-61940000D01*
X63268500Y-61940000D01*
X63268500Y-58828500D01*
G37*
X63268500Y-58828500D02*
X60157000Y-58828500D01*
X60157000Y-61495500D01*
X60601500Y-61495500D01*
X60601500Y-59273000D01*
X62824000Y-59273000D01*
X62824000Y-61495500D01*
X60601500Y-61495500D01*
X60157000Y-61495500D01*
X60157000Y-61940000D01*
X63268500Y-61940000D01*
X63268500Y-58828500D01*
G36*
X63268500Y-64607000D02*
G01*
X63268500Y-64384750D01*
X63258670Y-64235792D01*
X63203210Y-64174702D01*
X63063166Y-64162528D01*
X63046250Y-64162500D01*
X62897291Y-64152671D01*
X62836201Y-64097211D01*
X62824027Y-63957167D01*
X62824000Y-63940250D01*
X62833829Y-63791292D01*
X62889289Y-63730202D01*
X63029333Y-63718028D01*
X63046250Y-63718000D01*
X63195208Y-63708171D01*
X63256298Y-63652711D01*
X63268472Y-63512667D01*
X63268500Y-63495750D01*
X63268500Y-63273500D01*
X62379500Y-63273500D01*
X62379500Y-62829000D01*
X63268500Y-62829000D01*
X63268500Y-62384500D01*
X61046000Y-62384500D01*
X61046000Y-63495750D01*
X61490500Y-63495750D01*
X61500329Y-63346792D01*
X61555789Y-63285702D01*
X61695833Y-63273528D01*
X61712750Y-63273500D01*
X61861708Y-63283330D01*
X61922798Y-63338790D01*
X61934972Y-63478834D01*
X61935000Y-63495750D01*
X61925170Y-63644709D01*
X61869710Y-63705799D01*
X61729666Y-63717973D01*
X61712750Y-63718000D01*
X61563791Y-63708171D01*
X61502701Y-63652711D01*
X61490527Y-63512667D01*
X61490500Y-63495750D01*
X61046000Y-63495750D01*
X61046000Y-63718000D01*
X61268250Y-63718000D01*
X61417208Y-63727830D01*
X61478298Y-63783290D01*
X61490472Y-63923334D01*
X61490500Y-63940250D01*
X61500329Y-64089209D01*
X61555789Y-64150299D01*
X61695833Y-64162473D01*
X61712750Y-64162500D01*
X61861708Y-64152671D01*
X61922798Y-64097211D01*
X61934972Y-63957167D01*
X61935000Y-63940250D01*
X61944829Y-63791292D01*
X62000289Y-63730202D01*
X62140333Y-63718028D01*
X62157250Y-63718000D01*
X62379500Y-63718000D01*
X62379500Y-64607000D01*
X63268500Y-64607000D01*
G37*
X63268500Y-64607000D02*
X63268500Y-64384750D01*
X63258670Y-64235792D01*
X63203210Y-64174702D01*
X63063166Y-64162528D01*
X63046250Y-64162500D01*
X62897291Y-64152671D01*
X62836201Y-64097211D01*
X62824027Y-63957167D01*
X62824000Y-63940250D01*
X62833829Y-63791292D01*
X62889289Y-63730202D01*
X63029333Y-63718028D01*
X63046250Y-63718000D01*
X63195208Y-63708171D01*
X63256298Y-63652711D01*
X63268472Y-63512667D01*
X63268500Y-63495750D01*
X63268500Y-63273500D01*
X62379500Y-63273500D01*
X62379500Y-62829000D01*
X63268500Y-62829000D01*
X63268500Y-62384500D01*
X61046000Y-62384500D01*
X61046000Y-63495750D01*
X61490500Y-63495750D01*
X61500329Y-63346792D01*
X61555789Y-63285702D01*
X61695833Y-63273528D01*
X61712750Y-63273500D01*
X61861708Y-63283330D01*
X61922798Y-63338790D01*
X61934972Y-63478834D01*
X61935000Y-63495750D01*
X61925170Y-63644709D01*
X61869710Y-63705799D01*
X61729666Y-63717973D01*
X61712750Y-63718000D01*
X61563791Y-63708171D01*
X61502701Y-63652711D01*
X61490527Y-63512667D01*
X61490500Y-63495750D01*
X61046000Y-63495750D01*
X61046000Y-63718000D01*
X61268250Y-63718000D01*
X61417208Y-63727830D01*
X61478298Y-63783290D01*
X61490472Y-63923334D01*
X61490500Y-63940250D01*
X61500329Y-64089209D01*
X61555789Y-64150299D01*
X61695833Y-64162473D01*
X61712750Y-64162500D01*
X61861708Y-64152671D01*
X61922798Y-64097211D01*
X61934972Y-63957167D01*
X61935000Y-63940250D01*
X61944829Y-63791292D01*
X62000289Y-63730202D01*
X62140333Y-63718028D01*
X62157250Y-63718000D01*
X62379500Y-63718000D01*
X62379500Y-64607000D01*
X63268500Y-64607000D01*
G36*
X64157500Y-58828500D02*
G01*
X63713000Y-58828500D01*
X63713000Y-59717500D01*
X64157500Y-59717500D01*
X64157500Y-58828500D01*
G37*
X64157500Y-58828500D02*
X63713000Y-58828500D01*
X63713000Y-59717500D01*
X64157500Y-59717500D01*
X64157500Y-58828500D01*
G36*
X61935000Y-64607000D02*
G01*
X61935000Y-65496000D01*
X61046000Y-65496000D01*
X61046000Y-65273750D01*
X61055829Y-65124792D01*
X61111289Y-65063702D01*
X61251333Y-65051528D01*
X61268250Y-65051500D01*
X61417208Y-65041671D01*
X61478298Y-64986211D01*
X61490472Y-64846167D01*
X61490500Y-64829250D01*
X61480670Y-64680292D01*
X61425210Y-64619202D01*
X61285166Y-64607028D01*
X61268250Y-64607000D01*
X61119291Y-64597171D01*
X61058201Y-64541711D01*
X61046027Y-64401667D01*
X61046000Y-64384750D01*
X61036170Y-64235792D01*
X60980710Y-64174702D01*
X60840666Y-64162528D01*
X60823750Y-64162500D01*
X60601500Y-64162500D01*
X60601500Y-62384500D01*
X60157000Y-62384500D01*
X60157000Y-64607000D01*
X60379250Y-64607000D01*
X60528208Y-64616830D01*
X60589298Y-64672290D01*
X60601472Y-64812334D01*
X60601500Y-64829250D01*
X60591670Y-64978209D01*
X60536210Y-65039299D01*
X60396166Y-65051473D01*
X60379250Y-65051500D01*
X60157000Y-65051500D01*
X60157000Y-66385000D01*
X61046000Y-66385000D01*
X61046000Y-65940500D01*
X61935000Y-65940500D01*
X61935000Y-65718250D01*
X61944829Y-65569292D01*
X62000289Y-65508202D01*
X62140333Y-65496028D01*
X62157250Y-65496000D01*
X62379500Y-65496000D01*
X62379500Y-64607000D01*
X61935000Y-64607000D01*
G37*
X61935000Y-64607000D02*
X61935000Y-65496000D01*
X61046000Y-65496000D01*
X61046000Y-65273750D01*
X61055829Y-65124792D01*
X61111289Y-65063702D01*
X61251333Y-65051528D01*
X61268250Y-65051500D01*
X61417208Y-65041671D01*
X61478298Y-64986211D01*
X61490472Y-64846167D01*
X61490500Y-64829250D01*
X61480670Y-64680292D01*
X61425210Y-64619202D01*
X61285166Y-64607028D01*
X61268250Y-64607000D01*
X61119291Y-64597171D01*
X61058201Y-64541711D01*
X61046027Y-64401667D01*
X61046000Y-64384750D01*
X61036170Y-64235792D01*
X60980710Y-64174702D01*
X60840666Y-64162528D01*
X60823750Y-64162500D01*
X60601500Y-64162500D01*
X60601500Y-62384500D01*
X60157000Y-62384500D01*
X60157000Y-64607000D01*
X60379250Y-64607000D01*
X60528208Y-64616830D01*
X60589298Y-64672290D01*
X60601472Y-64812334D01*
X60601500Y-64829250D01*
X60591670Y-64978209D01*
X60536210Y-65039299D01*
X60396166Y-65051473D01*
X60379250Y-65051500D01*
X60157000Y-65051500D01*
X60157000Y-66385000D01*
X61046000Y-66385000D01*
X61046000Y-65940500D01*
X61935000Y-65940500D01*
X61935000Y-65718250D01*
X61944829Y-65569292D01*
X62000289Y-65508202D01*
X62140333Y-65496028D01*
X62157250Y-65496000D01*
X62379500Y-65496000D01*
X62379500Y-64607000D01*
X61935000Y-64607000D01*
G36*
X70380500Y-64162500D02*
G01*
X70825000Y-64162500D01*
X70825000Y-65051500D01*
X70602750Y-65051500D01*
X70453791Y-65061330D01*
X70392701Y-65116790D01*
X70380527Y-65256834D01*
X70380500Y-65273750D01*
X70370670Y-65422709D01*
X70315210Y-65483799D01*
X70175166Y-65495973D01*
X70158250Y-65496000D01*
X69936000Y-65496000D01*
X69936000Y-64607000D01*
X69713750Y-64607000D01*
X69564791Y-64616830D01*
X69503701Y-64672290D01*
X69491527Y-64812334D01*
X69491500Y-64829250D01*
X69481670Y-64978209D01*
X69426210Y-65039299D01*
X69286166Y-65051473D01*
X69269250Y-65051500D01*
X69120291Y-65061330D01*
X69059201Y-65116790D01*
X69047027Y-65256834D01*
X69047000Y-65273750D01*
X69037170Y-65422709D01*
X68981710Y-65483799D01*
X68841666Y-65495973D01*
X68824750Y-65496000D01*
X68675791Y-65505830D01*
X68614701Y-65561290D01*
X68602527Y-65701334D01*
X68602500Y-65718250D01*
X68612329Y-65867209D01*
X68667789Y-65928299D01*
X68807833Y-65940473D01*
X68824750Y-65940500D01*
X68973708Y-65950330D01*
X69034798Y-66005790D01*
X69046972Y-66145834D01*
X69047000Y-66162750D01*
X69047000Y-66385000D01*
X69936000Y-66385000D01*
X69936000Y-65940500D01*
X70825000Y-65940500D01*
X70825000Y-65718250D01*
X70834829Y-65569292D01*
X70890289Y-65508202D01*
X71030333Y-65496028D01*
X71047250Y-65496000D01*
X71269500Y-65496000D01*
X71269500Y-64162500D01*
X71047250Y-64162500D01*
X70898291Y-64152671D01*
X70837201Y-64097211D01*
X70825027Y-63957167D01*
X70825000Y-63940250D01*
X70834829Y-63791292D01*
X70890289Y-63730202D01*
X71030333Y-63718028D01*
X71047250Y-63718000D01*
X71269500Y-63718000D01*
X71269500Y-62829000D01*
X71047250Y-62829000D01*
X70898291Y-62838830D01*
X70837201Y-62894290D01*
X70825027Y-63034334D01*
X70825000Y-63051250D01*
X70815170Y-63200209D01*
X70759710Y-63261299D01*
X70619666Y-63273473D01*
X70602750Y-63273500D01*
X70380500Y-63273500D01*
X70380500Y-64162500D01*
G37*
X70380500Y-64162500D02*
X70825000Y-64162500D01*
X70825000Y-65051500D01*
X70602750Y-65051500D01*
X70453791Y-65061330D01*
X70392701Y-65116790D01*
X70380527Y-65256834D01*
X70380500Y-65273750D01*
X70370670Y-65422709D01*
X70315210Y-65483799D01*
X70175166Y-65495973D01*
X70158250Y-65496000D01*
X69936000Y-65496000D01*
X69936000Y-64607000D01*
X69713750Y-64607000D01*
X69564791Y-64616830D01*
X69503701Y-64672290D01*
X69491527Y-64812334D01*
X69491500Y-64829250D01*
X69481670Y-64978209D01*
X69426210Y-65039299D01*
X69286166Y-65051473D01*
X69269250Y-65051500D01*
X69120291Y-65061330D01*
X69059201Y-65116790D01*
X69047027Y-65256834D01*
X69047000Y-65273750D01*
X69037170Y-65422709D01*
X68981710Y-65483799D01*
X68841666Y-65495973D01*
X68824750Y-65496000D01*
X68675791Y-65505830D01*
X68614701Y-65561290D01*
X68602527Y-65701334D01*
X68602500Y-65718250D01*
X68612329Y-65867209D01*
X68667789Y-65928299D01*
X68807833Y-65940473D01*
X68824750Y-65940500D01*
X68973708Y-65950330D01*
X69034798Y-66005790D01*
X69046972Y-66145834D01*
X69047000Y-66162750D01*
X69047000Y-66385000D01*
X69936000Y-66385000D01*
X69936000Y-65940500D01*
X70825000Y-65940500D01*
X70825000Y-65718250D01*
X70834829Y-65569292D01*
X70890289Y-65508202D01*
X71030333Y-65496028D01*
X71047250Y-65496000D01*
X71269500Y-65496000D01*
X71269500Y-64162500D01*
X71047250Y-64162500D01*
X70898291Y-64152671D01*
X70837201Y-64097211D01*
X70825027Y-63957167D01*
X70825000Y-63940250D01*
X70834829Y-63791292D01*
X70890289Y-63730202D01*
X71030333Y-63718028D01*
X71047250Y-63718000D01*
X71269500Y-63718000D01*
X71269500Y-62829000D01*
X71047250Y-62829000D01*
X70898291Y-62838830D01*
X70837201Y-62894290D01*
X70825027Y-63034334D01*
X70825000Y-63051250D01*
X70815170Y-63200209D01*
X70759710Y-63261299D01*
X70619666Y-63273473D01*
X70602750Y-63273500D01*
X70380500Y-63273500D01*
X70380500Y-64162500D01*
G36*
X66824500Y-69052000D02*
G01*
X67046750Y-69052000D01*
X67195708Y-69042171D01*
X67256798Y-68986711D01*
X67268972Y-68846667D01*
X67269000Y-68829750D01*
X67278829Y-68680792D01*
X67334289Y-68619702D01*
X67474333Y-68607528D01*
X67491250Y-68607500D01*
X67713500Y-68607500D01*
X67713500Y-67718500D01*
X66824500Y-67718500D01*
X66824500Y-69052000D01*
G37*
X66824500Y-69052000D02*
X67046750Y-69052000D01*
X67195708Y-69042171D01*
X67256798Y-68986711D01*
X67268972Y-68846667D01*
X67269000Y-68829750D01*
X67278829Y-68680792D01*
X67334289Y-68619702D01*
X67474333Y-68607528D01*
X67491250Y-68607500D01*
X67713500Y-68607500D01*
X67713500Y-67718500D01*
X66824500Y-67718500D01*
X66824500Y-69052000D01*
G36*
X66824500Y-66829500D02*
G01*
X67046750Y-66829500D01*
X67195708Y-66839330D01*
X67256798Y-66894790D01*
X67268972Y-67034834D01*
X67269000Y-67051750D01*
X67278829Y-67200709D01*
X67334289Y-67261799D01*
X67474333Y-67273973D01*
X67491250Y-67274000D01*
X67640208Y-67264171D01*
X67701298Y-67208711D01*
X67713472Y-67068667D01*
X67713500Y-67051750D01*
X67703670Y-66902792D01*
X67648210Y-66841702D01*
X67508166Y-66829528D01*
X67491250Y-66829500D01*
X67342291Y-66819671D01*
X67281201Y-66764211D01*
X67269027Y-66624167D01*
X67269000Y-66607250D01*
X67278829Y-66458292D01*
X67334289Y-66397202D01*
X67474333Y-66385028D01*
X67491250Y-66385000D01*
X67713500Y-66385000D01*
X67713500Y-65051500D01*
X68602500Y-65051500D01*
X68602500Y-64829250D01*
X68612329Y-64680292D01*
X68667789Y-64619202D01*
X68807833Y-64607028D01*
X68824750Y-64607000D01*
X69047000Y-64607000D01*
X69047000Y-63718000D01*
X69936000Y-63718000D01*
X69936000Y-63495750D01*
X69945829Y-63346792D01*
X70001289Y-63285702D01*
X70141333Y-63273528D01*
X70158250Y-63273500D01*
X70380500Y-63273500D01*
X70380500Y-62384500D01*
X70158250Y-62384500D01*
X70009291Y-62394330D01*
X69948201Y-62449790D01*
X69936027Y-62589834D01*
X69936000Y-62606750D01*
X69926170Y-62755709D01*
X69870710Y-62816799D01*
X69730666Y-62828973D01*
X69713750Y-62829000D01*
X69491500Y-62829000D01*
X69491500Y-60606500D01*
X68602500Y-60606500D01*
X68602500Y-60384250D01*
X68592670Y-60235292D01*
X68537210Y-60174202D01*
X68397166Y-60162028D01*
X68380250Y-60162000D01*
X68231291Y-60171830D01*
X68170201Y-60227290D01*
X68158027Y-60367334D01*
X68158000Y-60384250D01*
X68148170Y-60533209D01*
X68092710Y-60594299D01*
X67952666Y-60606473D01*
X67935750Y-60606500D01*
X67713500Y-60606500D01*
X67713500Y-59717500D01*
X68158000Y-59717500D01*
X68158000Y-58828500D01*
X67269000Y-58828500D01*
X67269000Y-60606500D01*
X66824500Y-60606500D01*
X66824500Y-59717500D01*
X66380000Y-59717500D01*
X66380000Y-58828500D01*
X65046500Y-58828500D01*
X65046500Y-59050750D01*
X65036670Y-59199709D01*
X64981210Y-59260799D01*
X64841166Y-59272973D01*
X64824250Y-59273000D01*
X64675291Y-59282830D01*
X64614201Y-59338290D01*
X64602027Y-59478334D01*
X64602000Y-59495250D01*
X64592170Y-59644209D01*
X64536710Y-59705299D01*
X64396666Y-59717473D01*
X64379750Y-59717500D01*
X64157500Y-59717500D01*
X64157500Y-60606500D01*
X64602000Y-60606500D01*
X64602000Y-59717500D01*
X64824250Y-59717500D01*
X64973208Y-59707671D01*
X65034298Y-59652211D01*
X65046472Y-59512167D01*
X65046500Y-59495250D01*
X65056329Y-59346292D01*
X65111789Y-59285202D01*
X65251833Y-59273028D01*
X65268750Y-59273000D01*
X65417708Y-59282830D01*
X65478798Y-59338290D01*
X65490972Y-59478334D01*
X65491000Y-59495250D01*
X65500829Y-59644209D01*
X65556289Y-59705299D01*
X65696333Y-59717473D01*
X65713250Y-59717500D01*
X65862208Y-59727330D01*
X65923298Y-59782790D01*
X65935472Y-59922834D01*
X65935500Y-59939750D01*
X65925670Y-60088709D01*
X65870210Y-60149799D01*
X65730166Y-60161973D01*
X65713250Y-60162000D01*
X65564291Y-60171830D01*
X65503201Y-60227290D01*
X65491027Y-60367334D01*
X65491000Y-60384250D01*
X65491000Y-60606500D01*
X64602000Y-60606500D01*
X64157500Y-60606500D01*
X64157500Y-61051000D01*
X63713000Y-61051000D01*
X63713000Y-62384500D01*
X63935250Y-62384500D01*
X64084208Y-62394330D01*
X64145298Y-62449790D01*
X64157472Y-62589834D01*
X64157500Y-62606750D01*
X64147670Y-62755709D01*
X64092210Y-62816799D01*
X63952166Y-62828973D01*
X63935250Y-62829000D01*
X63713000Y-62829000D01*
X63713000Y-63051250D01*
X64157500Y-63051250D01*
X64157500Y-62829000D01*
X65046500Y-62829000D01*
X65046500Y-62606750D01*
X65036670Y-62457792D01*
X64981210Y-62396702D01*
X64841166Y-62384528D01*
X64824250Y-62384500D01*
X64675291Y-62374671D01*
X64614201Y-62319211D01*
X64602027Y-62179167D01*
X64602000Y-62162250D01*
X64592170Y-62013292D01*
X64536710Y-61952202D01*
X64396666Y-61940028D01*
X64379750Y-61940000D01*
X64157500Y-61940000D01*
X64157500Y-61051000D01*
X64379750Y-61051000D01*
X64528708Y-61060830D01*
X64589798Y-61116290D01*
X64601972Y-61256334D01*
X64602000Y-61273250D01*
X64602000Y-61495500D01*
X65491000Y-61495500D01*
X65491000Y-60606500D01*
X66824500Y-60606500D01*
X66824500Y-60828750D01*
X66814670Y-60977709D01*
X66759210Y-61038799D01*
X66619166Y-61050973D01*
X66602250Y-61051000D01*
X66453291Y-61060830D01*
X66392201Y-61116290D01*
X66380027Y-61256334D01*
X66380000Y-61273250D01*
X66380000Y-61495500D01*
X65491000Y-61495500D01*
X65491000Y-61940000D01*
X66824500Y-61940000D01*
X66824500Y-61717750D01*
X66834329Y-61568792D01*
X66889789Y-61507702D01*
X67029833Y-61495528D01*
X67046750Y-61495500D01*
X67195708Y-61505330D01*
X67256798Y-61560790D01*
X67268972Y-61700834D01*
X67269000Y-61717750D01*
X67259170Y-61866709D01*
X67203710Y-61927799D01*
X67063666Y-61939973D01*
X67046750Y-61940000D01*
X66897791Y-61949830D01*
X66836701Y-62005290D01*
X66824527Y-62145334D01*
X66824500Y-62162250D01*
X66834329Y-62311209D01*
X66889789Y-62372299D01*
X67029833Y-62384473D01*
X67046750Y-62384500D01*
X67269000Y-62384500D01*
X67713500Y-62384500D01*
X67713500Y-61051000D01*
X69047000Y-61051000D01*
X69047000Y-62384500D01*
X67713500Y-62384500D01*
X67269000Y-62384500D01*
X67269000Y-63051250D01*
X67713500Y-63051250D01*
X67723329Y-62902292D01*
X67778789Y-62841202D01*
X67918833Y-62829028D01*
X67935750Y-62829000D01*
X68084708Y-62838830D01*
X68145798Y-62894290D01*
X68157972Y-63034334D01*
X68158000Y-63051250D01*
X69047000Y-63051250D01*
X69056829Y-62902292D01*
X69112289Y-62841202D01*
X69252333Y-62829028D01*
X69269250Y-62829000D01*
X69418208Y-62838830D01*
X69479298Y-62894290D01*
X69491472Y-63034334D01*
X69491500Y-63051250D01*
X69481670Y-63200209D01*
X69426210Y-63261299D01*
X69286166Y-63273473D01*
X69269250Y-63273500D01*
X69120291Y-63263671D01*
X69059201Y-63208211D01*
X69047027Y-63068167D01*
X69047000Y-63051250D01*
X68158000Y-63051250D01*
X68148170Y-63200209D01*
X68092710Y-63261299D01*
X67952666Y-63273473D01*
X67935750Y-63273500D01*
X67786791Y-63263671D01*
X67725701Y-63208211D01*
X67713527Y-63068167D01*
X67713500Y-63051250D01*
X67269000Y-63051250D01*
X67269000Y-63273500D01*
X66824500Y-63273500D01*
X66824500Y-64162500D01*
X67046750Y-64162500D01*
X67195708Y-64152671D01*
X67256798Y-64097211D01*
X67268972Y-63957167D01*
X67269000Y-63940250D01*
X67278829Y-63791292D01*
X67334289Y-63730202D01*
X67474333Y-63718028D01*
X67491250Y-63718000D01*
X67640208Y-63727830D01*
X67701298Y-63783290D01*
X67713472Y-63923334D01*
X67713500Y-63940250D01*
X67723329Y-64089209D01*
X67778789Y-64150299D01*
X67918833Y-64162473D01*
X67935750Y-64162500D01*
X68084708Y-64152671D01*
X68145798Y-64097211D01*
X68157972Y-63957167D01*
X68158000Y-63940250D01*
X68167829Y-63791292D01*
X68223289Y-63730202D01*
X68363333Y-63718028D01*
X68380250Y-63718000D01*
X68529208Y-63727830D01*
X68590298Y-63783290D01*
X68602472Y-63923334D01*
X68602500Y-63940250D01*
X68592670Y-64089209D01*
X68537210Y-64150299D01*
X68397166Y-64162473D01*
X68380250Y-64162500D01*
X68231291Y-64172330D01*
X68170201Y-64227790D01*
X68158027Y-64367834D01*
X68158000Y-64384750D01*
X68148170Y-64533709D01*
X68092710Y-64594799D01*
X67952666Y-64606973D01*
X67935750Y-64607000D01*
X67786791Y-64597171D01*
X67725701Y-64541711D01*
X67713527Y-64401667D01*
X67713500Y-64384750D01*
X67703670Y-64235792D01*
X67648210Y-64174702D01*
X67508166Y-64162528D01*
X67491250Y-64162500D01*
X67342291Y-64172330D01*
X67281201Y-64227790D01*
X67269027Y-64367834D01*
X67269000Y-64384750D01*
X67259170Y-64533709D01*
X67203710Y-64594799D01*
X67063666Y-64606973D01*
X67046750Y-64607000D01*
X66824500Y-64607000D01*
X66824500Y-65496000D01*
X66380000Y-65496000D01*
X66380000Y-65051500D01*
X65491000Y-65051500D01*
X65491000Y-64829250D01*
X65481170Y-64680292D01*
X65425710Y-64619202D01*
X65285666Y-64607028D01*
X65268750Y-64607000D01*
X65046500Y-64607000D01*
X65046500Y-63718000D01*
X64824250Y-63718000D01*
X64675291Y-63708171D01*
X64614201Y-63652711D01*
X64602027Y-63512667D01*
X64602000Y-63495750D01*
X64592170Y-63346792D01*
X64536710Y-63285702D01*
X64396666Y-63273528D01*
X64379750Y-63273500D01*
X64230791Y-63263671D01*
X64169701Y-63208211D01*
X64157527Y-63068167D01*
X64157500Y-63051250D01*
X63713000Y-63051250D01*
X63713000Y-63718000D01*
X63935250Y-63718000D01*
X64084208Y-63727830D01*
X64145298Y-63783290D01*
X64157472Y-63923334D01*
X64157500Y-63940250D01*
X64147670Y-64089209D01*
X64092210Y-64150299D01*
X63952166Y-64162473D01*
X63935250Y-64162500D01*
X63786291Y-64172330D01*
X63725201Y-64227790D01*
X63713027Y-64367834D01*
X63713000Y-64384750D01*
X63713000Y-64607000D01*
X64602000Y-64607000D01*
X64602000Y-64829250D01*
X64592170Y-64978209D01*
X64536710Y-65039299D01*
X64396666Y-65051473D01*
X64379750Y-65051500D01*
X64230791Y-65061330D01*
X64169701Y-65116790D01*
X64157527Y-65256834D01*
X64157500Y-65273750D01*
X64157500Y-65496000D01*
X63268500Y-65496000D01*
X63268500Y-65273750D01*
X63258670Y-65124792D01*
X63203210Y-65063702D01*
X63063166Y-65051528D01*
X63046250Y-65051500D01*
X62897291Y-65061330D01*
X62836201Y-65116790D01*
X62824027Y-65256834D01*
X62824000Y-65273750D01*
X62814170Y-65422709D01*
X62758710Y-65483799D01*
X62618666Y-65495973D01*
X62601750Y-65496000D01*
X62379500Y-65496000D01*
X62379500Y-65718250D01*
X62824000Y-65718250D01*
X62833829Y-65569292D01*
X62889289Y-65508202D01*
X63029333Y-65496028D01*
X63046250Y-65496000D01*
X63195208Y-65505830D01*
X63256298Y-65561290D01*
X63268472Y-65701334D01*
X63268500Y-65718250D01*
X64157500Y-65718250D01*
X64167329Y-65569292D01*
X64222789Y-65508202D01*
X64362833Y-65496028D01*
X64379750Y-65496000D01*
X64528708Y-65486171D01*
X64589798Y-65430711D01*
X64601972Y-65290667D01*
X64602000Y-65273750D01*
X64611829Y-65124792D01*
X64667289Y-65063702D01*
X64807333Y-65051528D01*
X64824250Y-65051500D01*
X64973208Y-65061330D01*
X65034298Y-65116790D01*
X65046472Y-65256834D01*
X65046500Y-65273750D01*
X65046500Y-65496000D01*
X64824250Y-65496000D01*
X64675291Y-65505830D01*
X64614201Y-65561290D01*
X64602027Y-65701334D01*
X64602000Y-65718250D01*
X64592170Y-65867209D01*
X64536710Y-65928299D01*
X64396666Y-65940473D01*
X64379750Y-65940500D01*
X64230791Y-65930671D01*
X64169701Y-65875211D01*
X64157527Y-65735167D01*
X64157500Y-65718250D01*
X63268500Y-65718250D01*
X63258670Y-65867209D01*
X63203210Y-65928299D01*
X63063166Y-65940473D01*
X63046250Y-65940500D01*
X62897291Y-65930671D01*
X62836201Y-65875211D01*
X62824027Y-65735167D01*
X62824000Y-65718250D01*
X62379500Y-65718250D01*
X62379500Y-66385000D01*
X63713000Y-66385000D01*
X63713000Y-66162750D01*
X63722829Y-66013792D01*
X63778289Y-65952702D01*
X63918333Y-65940528D01*
X63935250Y-65940500D01*
X64157500Y-65940500D01*
X64157500Y-66829500D01*
X63935250Y-66829500D01*
X63786291Y-66839330D01*
X63725201Y-66894790D01*
X63713027Y-67034834D01*
X63713000Y-67051750D01*
X64157500Y-67051750D01*
X64167329Y-66902792D01*
X64222789Y-66841702D01*
X64362833Y-66829528D01*
X64379750Y-66829500D01*
X64528708Y-66819671D01*
X64589798Y-66764211D01*
X64601972Y-66624167D01*
X64602000Y-66607250D01*
X64611829Y-66458292D01*
X64667289Y-66397202D01*
X64807333Y-66385028D01*
X64824250Y-66385000D01*
X65046500Y-66385000D01*
X65046500Y-65496000D01*
X66380000Y-65496000D01*
X66380000Y-66385000D01*
X66602250Y-66385000D01*
X66751208Y-66394830D01*
X66812298Y-66450290D01*
X66824472Y-66590334D01*
X66824500Y-66607250D01*
X66814670Y-66756209D01*
X66759210Y-66817299D01*
X66619166Y-66829473D01*
X66602250Y-66829500D01*
X66453291Y-66839330D01*
X66392201Y-66894790D01*
X66380027Y-67034834D01*
X66380000Y-67051750D01*
X66370170Y-67200709D01*
X66314710Y-67261799D01*
X66174666Y-67273973D01*
X66157750Y-67274000D01*
X66008791Y-67283830D01*
X65947701Y-67339290D01*
X65935527Y-67479334D01*
X65935500Y-67496250D01*
X65925670Y-67645209D01*
X65870210Y-67706299D01*
X65730166Y-67718473D01*
X65713250Y-67718500D01*
X65564291Y-67728330D01*
X65503201Y-67783790D01*
X65491027Y-67923834D01*
X65491000Y-67940750D01*
X65481170Y-68089709D01*
X65425710Y-68150799D01*
X65285666Y-68162973D01*
X65268750Y-68163000D01*
X65046500Y-68163000D01*
X65046500Y-66829500D01*
X64824250Y-66829500D01*
X64675291Y-66839330D01*
X64614201Y-66894790D01*
X64602027Y-67034834D01*
X64602000Y-67051750D01*
X64592170Y-67200709D01*
X64536710Y-67261799D01*
X64396666Y-67273973D01*
X64379750Y-67274000D01*
X64230791Y-67264171D01*
X64169701Y-67208711D01*
X64157527Y-67068667D01*
X64157500Y-67051750D01*
X63713000Y-67051750D01*
X63722829Y-67200709D01*
X63778289Y-67261799D01*
X63918333Y-67273973D01*
X63935250Y-67274000D01*
X64084208Y-67283830D01*
X64145298Y-67339290D01*
X64157472Y-67479334D01*
X64157500Y-67496250D01*
X64147670Y-67645209D01*
X64092210Y-67706299D01*
X63952166Y-67718473D01*
X63935250Y-67718500D01*
X63713000Y-67718500D01*
X63713000Y-68607500D01*
X63935250Y-68607500D01*
X64157500Y-68607500D01*
X64157500Y-67718500D01*
X64602000Y-67718500D01*
X64602000Y-68607500D01*
X64157500Y-68607500D01*
X63935250Y-68607500D01*
X64084208Y-68617330D01*
X64145298Y-68672790D01*
X64157472Y-68812834D01*
X64157500Y-68829750D01*
X64157500Y-69052000D01*
X65046500Y-69052000D01*
X65046500Y-69496500D01*
X64157500Y-69496500D01*
X64157500Y-69941000D01*
X65491000Y-69941000D01*
X65491000Y-69718750D01*
X65500829Y-69569792D01*
X65556289Y-69508702D01*
X65696333Y-69496528D01*
X65713250Y-69496500D01*
X65862208Y-69486671D01*
X65923298Y-69431211D01*
X65935472Y-69291167D01*
X65935500Y-69274250D01*
X65925670Y-69125292D01*
X65870210Y-69064202D01*
X65730166Y-69052028D01*
X65713250Y-69052000D01*
X65491000Y-69052000D01*
X65491000Y-68163000D01*
X65713250Y-68163000D01*
X65862208Y-68153171D01*
X65923298Y-68097711D01*
X65935472Y-67957667D01*
X65935500Y-67940750D01*
X65935500Y-67718500D01*
X66824500Y-67718500D01*
X66824500Y-66829500D01*
G37*
X66824500Y-66829500D02*
X67046750Y-66829500D01*
X67195708Y-66839330D01*
X67256798Y-66894790D01*
X67268972Y-67034834D01*
X67269000Y-67051750D01*
X67278829Y-67200709D01*
X67334289Y-67261799D01*
X67474333Y-67273973D01*
X67491250Y-67274000D01*
X67640208Y-67264171D01*
X67701298Y-67208711D01*
X67713472Y-67068667D01*
X67713500Y-67051750D01*
X67703670Y-66902792D01*
X67648210Y-66841702D01*
X67508166Y-66829528D01*
X67491250Y-66829500D01*
X67342291Y-66819671D01*
X67281201Y-66764211D01*
X67269027Y-66624167D01*
X67269000Y-66607250D01*
X67278829Y-66458292D01*
X67334289Y-66397202D01*
X67474333Y-66385028D01*
X67491250Y-66385000D01*
X67713500Y-66385000D01*
X67713500Y-65051500D01*
X68602500Y-65051500D01*
X68602500Y-64829250D01*
X68612329Y-64680292D01*
X68667789Y-64619202D01*
X68807833Y-64607028D01*
X68824750Y-64607000D01*
X69047000Y-64607000D01*
X69047000Y-63718000D01*
X69936000Y-63718000D01*
X69936000Y-63495750D01*
X69945829Y-63346792D01*
X70001289Y-63285702D01*
X70141333Y-63273528D01*
X70158250Y-63273500D01*
X70380500Y-63273500D01*
X70380500Y-62384500D01*
X70158250Y-62384500D01*
X70009291Y-62394330D01*
X69948201Y-62449790D01*
X69936027Y-62589834D01*
X69936000Y-62606750D01*
X69926170Y-62755709D01*
X69870710Y-62816799D01*
X69730666Y-62828973D01*
X69713750Y-62829000D01*
X69491500Y-62829000D01*
X69491500Y-60606500D01*
X68602500Y-60606500D01*
X68602500Y-60384250D01*
X68592670Y-60235292D01*
X68537210Y-60174202D01*
X68397166Y-60162028D01*
X68380250Y-60162000D01*
X68231291Y-60171830D01*
X68170201Y-60227290D01*
X68158027Y-60367334D01*
X68158000Y-60384250D01*
X68148170Y-60533209D01*
X68092710Y-60594299D01*
X67952666Y-60606473D01*
X67935750Y-60606500D01*
X67713500Y-60606500D01*
X67713500Y-59717500D01*
X68158000Y-59717500D01*
X68158000Y-58828500D01*
X67269000Y-58828500D01*
X67269000Y-60606500D01*
X66824500Y-60606500D01*
X66824500Y-59717500D01*
X66380000Y-59717500D01*
X66380000Y-58828500D01*
X65046500Y-58828500D01*
X65046500Y-59050750D01*
X65036670Y-59199709D01*
X64981210Y-59260799D01*
X64841166Y-59272973D01*
X64824250Y-59273000D01*
X64675291Y-59282830D01*
X64614201Y-59338290D01*
X64602027Y-59478334D01*
X64602000Y-59495250D01*
X64592170Y-59644209D01*
X64536710Y-59705299D01*
X64396666Y-59717473D01*
X64379750Y-59717500D01*
X64157500Y-59717500D01*
X64157500Y-60606500D01*
X64602000Y-60606500D01*
X64602000Y-59717500D01*
X64824250Y-59717500D01*
X64973208Y-59707671D01*
X65034298Y-59652211D01*
X65046472Y-59512167D01*
X65046500Y-59495250D01*
X65056329Y-59346292D01*
X65111789Y-59285202D01*
X65251833Y-59273028D01*
X65268750Y-59273000D01*
X65417708Y-59282830D01*
X65478798Y-59338290D01*
X65490972Y-59478334D01*
X65491000Y-59495250D01*
X65500829Y-59644209D01*
X65556289Y-59705299D01*
X65696333Y-59717473D01*
X65713250Y-59717500D01*
X65862208Y-59727330D01*
X65923298Y-59782790D01*
X65935472Y-59922834D01*
X65935500Y-59939750D01*
X65925670Y-60088709D01*
X65870210Y-60149799D01*
X65730166Y-60161973D01*
X65713250Y-60162000D01*
X65564291Y-60171830D01*
X65503201Y-60227290D01*
X65491027Y-60367334D01*
X65491000Y-60384250D01*
X65491000Y-60606500D01*
X64602000Y-60606500D01*
X64157500Y-60606500D01*
X64157500Y-61051000D01*
X63713000Y-61051000D01*
X63713000Y-62384500D01*
X63935250Y-62384500D01*
X64084208Y-62394330D01*
X64145298Y-62449790D01*
X64157472Y-62589834D01*
X64157500Y-62606750D01*
X64147670Y-62755709D01*
X64092210Y-62816799D01*
X63952166Y-62828973D01*
X63935250Y-62829000D01*
X63713000Y-62829000D01*
X63713000Y-63051250D01*
X64157500Y-63051250D01*
X64157500Y-62829000D01*
X65046500Y-62829000D01*
X65046500Y-62606750D01*
X65036670Y-62457792D01*
X64981210Y-62396702D01*
X64841166Y-62384528D01*
X64824250Y-62384500D01*
X64675291Y-62374671D01*
X64614201Y-62319211D01*
X64602027Y-62179167D01*
X64602000Y-62162250D01*
X64592170Y-62013292D01*
X64536710Y-61952202D01*
X64396666Y-61940028D01*
X64379750Y-61940000D01*
X64157500Y-61940000D01*
X64157500Y-61051000D01*
X64379750Y-61051000D01*
X64528708Y-61060830D01*
X64589798Y-61116290D01*
X64601972Y-61256334D01*
X64602000Y-61273250D01*
X64602000Y-61495500D01*
X65491000Y-61495500D01*
X65491000Y-60606500D01*
X66824500Y-60606500D01*
X66824500Y-60828750D01*
X66814670Y-60977709D01*
X66759210Y-61038799D01*
X66619166Y-61050973D01*
X66602250Y-61051000D01*
X66453291Y-61060830D01*
X66392201Y-61116290D01*
X66380027Y-61256334D01*
X66380000Y-61273250D01*
X66380000Y-61495500D01*
X65491000Y-61495500D01*
X65491000Y-61940000D01*
X66824500Y-61940000D01*
X66824500Y-61717750D01*
X66834329Y-61568792D01*
X66889789Y-61507702D01*
X67029833Y-61495528D01*
X67046750Y-61495500D01*
X67195708Y-61505330D01*
X67256798Y-61560790D01*
X67268972Y-61700834D01*
X67269000Y-61717750D01*
X67259170Y-61866709D01*
X67203710Y-61927799D01*
X67063666Y-61939973D01*
X67046750Y-61940000D01*
X66897791Y-61949830D01*
X66836701Y-62005290D01*
X66824527Y-62145334D01*
X66824500Y-62162250D01*
X66834329Y-62311209D01*
X66889789Y-62372299D01*
X67029833Y-62384473D01*
X67046750Y-62384500D01*
X67269000Y-62384500D01*
X67713500Y-62384500D01*
X67713500Y-61051000D01*
X69047000Y-61051000D01*
X69047000Y-62384500D01*
X67713500Y-62384500D01*
X67269000Y-62384500D01*
X67269000Y-63051250D01*
X67713500Y-63051250D01*
X67723329Y-62902292D01*
X67778789Y-62841202D01*
X67918833Y-62829028D01*
X67935750Y-62829000D01*
X68084708Y-62838830D01*
X68145798Y-62894290D01*
X68157972Y-63034334D01*
X68158000Y-63051250D01*
X69047000Y-63051250D01*
X69056829Y-62902292D01*
X69112289Y-62841202D01*
X69252333Y-62829028D01*
X69269250Y-62829000D01*
X69418208Y-62838830D01*
X69479298Y-62894290D01*
X69491472Y-63034334D01*
X69491500Y-63051250D01*
X69481670Y-63200209D01*
X69426210Y-63261299D01*
X69286166Y-63273473D01*
X69269250Y-63273500D01*
X69120291Y-63263671D01*
X69059201Y-63208211D01*
X69047027Y-63068167D01*
X69047000Y-63051250D01*
X68158000Y-63051250D01*
X68148170Y-63200209D01*
X68092710Y-63261299D01*
X67952666Y-63273473D01*
X67935750Y-63273500D01*
X67786791Y-63263671D01*
X67725701Y-63208211D01*
X67713527Y-63068167D01*
X67713500Y-63051250D01*
X67269000Y-63051250D01*
X67269000Y-63273500D01*
X66824500Y-63273500D01*
X66824500Y-64162500D01*
X67046750Y-64162500D01*
X67195708Y-64152671D01*
X67256798Y-64097211D01*
X67268972Y-63957167D01*
X67269000Y-63940250D01*
X67278829Y-63791292D01*
X67334289Y-63730202D01*
X67474333Y-63718028D01*
X67491250Y-63718000D01*
X67640208Y-63727830D01*
X67701298Y-63783290D01*
X67713472Y-63923334D01*
X67713500Y-63940250D01*
X67723329Y-64089209D01*
X67778789Y-64150299D01*
X67918833Y-64162473D01*
X67935750Y-64162500D01*
X68084708Y-64152671D01*
X68145798Y-64097211D01*
X68157972Y-63957167D01*
X68158000Y-63940250D01*
X68167829Y-63791292D01*
X68223289Y-63730202D01*
X68363333Y-63718028D01*
X68380250Y-63718000D01*
X68529208Y-63727830D01*
X68590298Y-63783290D01*
X68602472Y-63923334D01*
X68602500Y-63940250D01*
X68592670Y-64089209D01*
X68537210Y-64150299D01*
X68397166Y-64162473D01*
X68380250Y-64162500D01*
X68231291Y-64172330D01*
X68170201Y-64227790D01*
X68158027Y-64367834D01*
X68158000Y-64384750D01*
X68148170Y-64533709D01*
X68092710Y-64594799D01*
X67952666Y-64606973D01*
X67935750Y-64607000D01*
X67786791Y-64597171D01*
X67725701Y-64541711D01*
X67713527Y-64401667D01*
X67713500Y-64384750D01*
X67703670Y-64235792D01*
X67648210Y-64174702D01*
X67508166Y-64162528D01*
X67491250Y-64162500D01*
X67342291Y-64172330D01*
X67281201Y-64227790D01*
X67269027Y-64367834D01*
X67269000Y-64384750D01*
X67259170Y-64533709D01*
X67203710Y-64594799D01*
X67063666Y-64606973D01*
X67046750Y-64607000D01*
X66824500Y-64607000D01*
X66824500Y-65496000D01*
X66380000Y-65496000D01*
X66380000Y-65051500D01*
X65491000Y-65051500D01*
X65491000Y-64829250D01*
X65481170Y-64680292D01*
X65425710Y-64619202D01*
X65285666Y-64607028D01*
X65268750Y-64607000D01*
X65046500Y-64607000D01*
X65046500Y-63718000D01*
X64824250Y-63718000D01*
X64675291Y-63708171D01*
X64614201Y-63652711D01*
X64602027Y-63512667D01*
X64602000Y-63495750D01*
X64592170Y-63346792D01*
X64536710Y-63285702D01*
X64396666Y-63273528D01*
X64379750Y-63273500D01*
X64230791Y-63263671D01*
X64169701Y-63208211D01*
X64157527Y-63068167D01*
X64157500Y-63051250D01*
X63713000Y-63051250D01*
X63713000Y-63718000D01*
X63935250Y-63718000D01*
X64084208Y-63727830D01*
X64145298Y-63783290D01*
X64157472Y-63923334D01*
X64157500Y-63940250D01*
X64147670Y-64089209D01*
X64092210Y-64150299D01*
X63952166Y-64162473D01*
X63935250Y-64162500D01*
X63786291Y-64172330D01*
X63725201Y-64227790D01*
X63713027Y-64367834D01*
X63713000Y-64384750D01*
X63713000Y-64607000D01*
X64602000Y-64607000D01*
X64602000Y-64829250D01*
X64592170Y-64978209D01*
X64536710Y-65039299D01*
X64396666Y-65051473D01*
X64379750Y-65051500D01*
X64230791Y-65061330D01*
X64169701Y-65116790D01*
X64157527Y-65256834D01*
X64157500Y-65273750D01*
X64157500Y-65496000D01*
X63268500Y-65496000D01*
X63268500Y-65273750D01*
X63258670Y-65124792D01*
X63203210Y-65063702D01*
X63063166Y-65051528D01*
X63046250Y-65051500D01*
X62897291Y-65061330D01*
X62836201Y-65116790D01*
X62824027Y-65256834D01*
X62824000Y-65273750D01*
X62814170Y-65422709D01*
X62758710Y-65483799D01*
X62618666Y-65495973D01*
X62601750Y-65496000D01*
X62379500Y-65496000D01*
X62379500Y-65718250D01*
X62824000Y-65718250D01*
X62833829Y-65569292D01*
X62889289Y-65508202D01*
X63029333Y-65496028D01*
X63046250Y-65496000D01*
X63195208Y-65505830D01*
X63256298Y-65561290D01*
X63268472Y-65701334D01*
X63268500Y-65718250D01*
X64157500Y-65718250D01*
X64167329Y-65569292D01*
X64222789Y-65508202D01*
X64362833Y-65496028D01*
X64379750Y-65496000D01*
X64528708Y-65486171D01*
X64589798Y-65430711D01*
X64601972Y-65290667D01*
X64602000Y-65273750D01*
X64611829Y-65124792D01*
X64667289Y-65063702D01*
X64807333Y-65051528D01*
X64824250Y-65051500D01*
X64973208Y-65061330D01*
X65034298Y-65116790D01*
X65046472Y-65256834D01*
X65046500Y-65273750D01*
X65046500Y-65496000D01*
X64824250Y-65496000D01*
X64675291Y-65505830D01*
X64614201Y-65561290D01*
X64602027Y-65701334D01*
X64602000Y-65718250D01*
X64592170Y-65867209D01*
X64536710Y-65928299D01*
X64396666Y-65940473D01*
X64379750Y-65940500D01*
X64230791Y-65930671D01*
X64169701Y-65875211D01*
X64157527Y-65735167D01*
X64157500Y-65718250D01*
X63268500Y-65718250D01*
X63258670Y-65867209D01*
X63203210Y-65928299D01*
X63063166Y-65940473D01*
X63046250Y-65940500D01*
X62897291Y-65930671D01*
X62836201Y-65875211D01*
X62824027Y-65735167D01*
X62824000Y-65718250D01*
X62379500Y-65718250D01*
X62379500Y-66385000D01*
X63713000Y-66385000D01*
X63713000Y-66162750D01*
X63722829Y-66013792D01*
X63778289Y-65952702D01*
X63918333Y-65940528D01*
X63935250Y-65940500D01*
X64157500Y-65940500D01*
X64157500Y-66829500D01*
X63935250Y-66829500D01*
X63786291Y-66839330D01*
X63725201Y-66894790D01*
X63713027Y-67034834D01*
X63713000Y-67051750D01*
X64157500Y-67051750D01*
X64167329Y-66902792D01*
X64222789Y-66841702D01*
X64362833Y-66829528D01*
X64379750Y-66829500D01*
X64528708Y-66819671D01*
X64589798Y-66764211D01*
X64601972Y-66624167D01*
X64602000Y-66607250D01*
X64611829Y-66458292D01*
X64667289Y-66397202D01*
X64807333Y-66385028D01*
X64824250Y-66385000D01*
X65046500Y-66385000D01*
X65046500Y-65496000D01*
X66380000Y-65496000D01*
X66380000Y-66385000D01*
X66602250Y-66385000D01*
X66751208Y-66394830D01*
X66812298Y-66450290D01*
X66824472Y-66590334D01*
X66824500Y-66607250D01*
X66814670Y-66756209D01*
X66759210Y-66817299D01*
X66619166Y-66829473D01*
X66602250Y-66829500D01*
X66453291Y-66839330D01*
X66392201Y-66894790D01*
X66380027Y-67034834D01*
X66380000Y-67051750D01*
X66370170Y-67200709D01*
X66314710Y-67261799D01*
X66174666Y-67273973D01*
X66157750Y-67274000D01*
X66008791Y-67283830D01*
X65947701Y-67339290D01*
X65935527Y-67479334D01*
X65935500Y-67496250D01*
X65925670Y-67645209D01*
X65870210Y-67706299D01*
X65730166Y-67718473D01*
X65713250Y-67718500D01*
X65564291Y-67728330D01*
X65503201Y-67783790D01*
X65491027Y-67923834D01*
X65491000Y-67940750D01*
X65481170Y-68089709D01*
X65425710Y-68150799D01*
X65285666Y-68162973D01*
X65268750Y-68163000D01*
X65046500Y-68163000D01*
X65046500Y-66829500D01*
X64824250Y-66829500D01*
X64675291Y-66839330D01*
X64614201Y-66894790D01*
X64602027Y-67034834D01*
X64602000Y-67051750D01*
X64592170Y-67200709D01*
X64536710Y-67261799D01*
X64396666Y-67273973D01*
X64379750Y-67274000D01*
X64230791Y-67264171D01*
X64169701Y-67208711D01*
X64157527Y-67068667D01*
X64157500Y-67051750D01*
X63713000Y-67051750D01*
X63722829Y-67200709D01*
X63778289Y-67261799D01*
X63918333Y-67273973D01*
X63935250Y-67274000D01*
X64084208Y-67283830D01*
X64145298Y-67339290D01*
X64157472Y-67479334D01*
X64157500Y-67496250D01*
X64147670Y-67645209D01*
X64092210Y-67706299D01*
X63952166Y-67718473D01*
X63935250Y-67718500D01*
X63713000Y-67718500D01*
X63713000Y-68607500D01*
X63935250Y-68607500D01*
X64157500Y-68607500D01*
X64157500Y-67718500D01*
X64602000Y-67718500D01*
X64602000Y-68607500D01*
X64157500Y-68607500D01*
X63935250Y-68607500D01*
X64084208Y-68617330D01*
X64145298Y-68672790D01*
X64157472Y-68812834D01*
X64157500Y-68829750D01*
X64157500Y-69052000D01*
X65046500Y-69052000D01*
X65046500Y-69496500D01*
X64157500Y-69496500D01*
X64157500Y-69941000D01*
X65491000Y-69941000D01*
X65491000Y-69718750D01*
X65500829Y-69569792D01*
X65556289Y-69508702D01*
X65696333Y-69496528D01*
X65713250Y-69496500D01*
X65862208Y-69486671D01*
X65923298Y-69431211D01*
X65935472Y-69291167D01*
X65935500Y-69274250D01*
X65925670Y-69125292D01*
X65870210Y-69064202D01*
X65730166Y-69052028D01*
X65713250Y-69052000D01*
X65491000Y-69052000D01*
X65491000Y-68163000D01*
X65713250Y-68163000D01*
X65862208Y-68153171D01*
X65923298Y-68097711D01*
X65935472Y-67957667D01*
X65935500Y-67940750D01*
X65935500Y-67718500D01*
X66824500Y-67718500D01*
X66824500Y-66829500D01*
G36*
X69491500Y-59495250D02*
G01*
X69501329Y-59346292D01*
X69556789Y-59285202D01*
X69696833Y-59273028D01*
X69713750Y-59273000D01*
X69862708Y-59263171D01*
X69923798Y-59207711D01*
X69935972Y-59067667D01*
X69936000Y-59050750D01*
X69926170Y-58901792D01*
X69870710Y-58840702D01*
X69730666Y-58828528D01*
X69713750Y-58828500D01*
X69564791Y-58838330D01*
X69503701Y-58893790D01*
X69491527Y-59033834D01*
X69491500Y-59050750D01*
X69491500Y-59273000D01*
X68602500Y-59273000D01*
X68602500Y-59717500D01*
X69491500Y-59717500D01*
X69491500Y-59495250D01*
G37*
X69491500Y-59495250D02*
X69501329Y-59346292D01*
X69556789Y-59285202D01*
X69696833Y-59273028D01*
X69713750Y-59273000D01*
X69862708Y-59263171D01*
X69923798Y-59207711D01*
X69935972Y-59067667D01*
X69936000Y-59050750D01*
X69926170Y-58901792D01*
X69870710Y-58840702D01*
X69730666Y-58828528D01*
X69713750Y-58828500D01*
X69564791Y-58838330D01*
X69503701Y-58893790D01*
X69491527Y-59033834D01*
X69491500Y-59050750D01*
X69491500Y-59273000D01*
X68602500Y-59273000D01*
X68602500Y-59717500D01*
X69491500Y-59717500D01*
X69491500Y-59495250D01*
G36*
X69491500Y-60162000D02*
G01*
X70380500Y-60162000D01*
X70380500Y-60384250D01*
X70370670Y-60533209D01*
X70315210Y-60594299D01*
X70175166Y-60606473D01*
X70158250Y-60606500D01*
X70009291Y-60616330D01*
X69948201Y-60671790D01*
X69936027Y-60811834D01*
X69936000Y-60828750D01*
X69936000Y-61051000D01*
X71269500Y-61051000D01*
X71269500Y-58828500D01*
X70825000Y-58828500D01*
X70825000Y-60162000D01*
X70602750Y-60162000D01*
X70453791Y-60152171D01*
X70392701Y-60096711D01*
X70380527Y-59956667D01*
X70380500Y-59939750D01*
X70380500Y-59717500D01*
X69491500Y-59717500D01*
X69491500Y-60162000D01*
G37*
X69491500Y-60162000D02*
X70380500Y-60162000D01*
X70380500Y-60384250D01*
X70370670Y-60533209D01*
X70315210Y-60594299D01*
X70175166Y-60606473D01*
X70158250Y-60606500D01*
X70009291Y-60616330D01*
X69948201Y-60671790D01*
X69936027Y-60811834D01*
X69936000Y-60828750D01*
X69936000Y-61051000D01*
X71269500Y-61051000D01*
X71269500Y-58828500D01*
X70825000Y-58828500D01*
X70825000Y-60162000D01*
X70602750Y-60162000D01*
X70453791Y-60152171D01*
X70392701Y-60096711D01*
X70380527Y-59956667D01*
X70380500Y-59939750D01*
X70380500Y-59717500D01*
X69491500Y-59717500D01*
X69491500Y-60162000D01*
G36*
X71196208Y-61930171D02*
G01*
X71257298Y-61874711D01*
X71269472Y-61734667D01*
X71269500Y-61717750D01*
X71259670Y-61568792D01*
X71204210Y-61507702D01*
X71064166Y-61495528D01*
X71047250Y-61495500D01*
X70898291Y-61505330D01*
X70837201Y-61560790D01*
X70825027Y-61700834D01*
X70825000Y-61717750D01*
X70834829Y-61866709D01*
X70890289Y-61927799D01*
X71030333Y-61939973D01*
X71047250Y-61940000D01*
X71196208Y-61930171D01*
G37*
X71196208Y-61930171D02*
X71257298Y-61874711D01*
X71269472Y-61734667D01*
X71269500Y-61717750D01*
X71259670Y-61568792D01*
X71204210Y-61507702D01*
X71064166Y-61495528D01*
X71047250Y-61495500D01*
X70898291Y-61505330D01*
X70837201Y-61560790D01*
X70825027Y-61700834D01*
X70825000Y-61717750D01*
X70834829Y-61866709D01*
X70890289Y-61927799D01*
X71030333Y-61939973D01*
X71047250Y-61940000D01*
X71196208Y-61930171D01*
G36*
X63268500Y-66829500D02*
G01*
X60157000Y-66829500D01*
X60157000Y-69496500D01*
X60601500Y-69496500D01*
X60601500Y-67274000D01*
X62824000Y-67274000D01*
X62824000Y-69496500D01*
X60601500Y-69496500D01*
X60157000Y-69496500D01*
X60157000Y-69941000D01*
X63268500Y-69941000D01*
X63268500Y-66829500D01*
G37*
X63268500Y-66829500D02*
X60157000Y-66829500D01*
X60157000Y-69496500D01*
X60601500Y-69496500D01*
X60601500Y-67274000D01*
X62824000Y-67274000D01*
X62824000Y-69496500D01*
X60601500Y-69496500D01*
X60157000Y-69496500D01*
X60157000Y-69941000D01*
X63268500Y-69941000D01*
X63268500Y-66829500D01*
G36*
X71269500Y-66829500D02*
G01*
X68158000Y-66829500D01*
X68158000Y-69496500D01*
X68602500Y-69496500D01*
X68602500Y-67274000D01*
X70825000Y-67274000D01*
X70825000Y-69496500D01*
X68602500Y-69496500D01*
X68158000Y-69496500D01*
X68158000Y-69941000D01*
X71269500Y-69941000D01*
X71269500Y-66829500D01*
G37*
X71269500Y-66829500D02*
X68158000Y-66829500D01*
X68158000Y-69496500D01*
X68602500Y-69496500D01*
X68602500Y-67274000D01*
X70825000Y-67274000D01*
X70825000Y-69496500D01*
X68602500Y-69496500D01*
X68158000Y-69496500D01*
X68158000Y-69941000D01*
X71269500Y-69941000D01*
X71269500Y-66829500D01*
G36*
X67640208Y-69931171D02*
G01*
X67701298Y-69875711D01*
X67713472Y-69735667D01*
X67713500Y-69718750D01*
X67703670Y-69569792D01*
X67648210Y-69508702D01*
X67508166Y-69496528D01*
X67491250Y-69496500D01*
X67342291Y-69506330D01*
X67281201Y-69561790D01*
X67269027Y-69701834D01*
X67269000Y-69718750D01*
X67278829Y-69867709D01*
X67334289Y-69928799D01*
X67474333Y-69940973D01*
X67491250Y-69941000D01*
X67640208Y-69931171D01*
G37*
X67640208Y-69931171D02*
X67701298Y-69875711D01*
X67713472Y-69735667D01*
X67713500Y-69718750D01*
X67703670Y-69569792D01*
X67648210Y-69508702D01*
X67508166Y-69496528D01*
X67491250Y-69496500D01*
X67342291Y-69506330D01*
X67281201Y-69561790D01*
X67269027Y-69701834D01*
X67269000Y-69718750D01*
X67278829Y-69867709D01*
X67334289Y-69928799D01*
X67474333Y-69940973D01*
X67491250Y-69941000D01*
X67640208Y-69931171D01*
G36*
X62379500Y-59717500D02*
G01*
X61046000Y-59717500D01*
X61046000Y-61051000D01*
X62379500Y-61051000D01*
X62379500Y-59717500D01*
G37*
X62379500Y-59717500D02*
X61046000Y-59717500D01*
X61046000Y-61051000D01*
X62379500Y-61051000D01*
X62379500Y-59717500D01*
G36*
X65862208Y-63263671D02*
G01*
X65923298Y-63208211D01*
X65935472Y-63068167D01*
X65935500Y-63051250D01*
X65935500Y-62829000D01*
X66824500Y-62829000D01*
X66824500Y-62384500D01*
X65491000Y-62384500D01*
X65491000Y-63273500D01*
X65713250Y-63273500D01*
X65862208Y-63263671D01*
G37*
X65862208Y-63263671D02*
X65923298Y-63208211D01*
X65935472Y-63068167D01*
X65935500Y-63051250D01*
X65935500Y-62829000D01*
X66824500Y-62829000D01*
X66824500Y-62384500D01*
X65491000Y-62384500D01*
X65491000Y-63273500D01*
X65713250Y-63273500D01*
X65862208Y-63263671D01*
G36*
X66380000Y-63718000D02*
G01*
X65491000Y-63718000D01*
X65491000Y-63940250D01*
X65500829Y-64089209D01*
X65556289Y-64150299D01*
X65696333Y-64162473D01*
X65713250Y-64162500D01*
X65862208Y-64172330D01*
X65923298Y-64227790D01*
X65935472Y-64367834D01*
X65935500Y-64384750D01*
X65945329Y-64533709D01*
X66000789Y-64594799D01*
X66140833Y-64606973D01*
X66157750Y-64607000D01*
X66380000Y-64607000D01*
X66380000Y-63718000D01*
G37*
X66380000Y-63718000D02*
X65491000Y-63718000D01*
X65491000Y-63940250D01*
X65500829Y-64089209D01*
X65556289Y-64150299D01*
X65696333Y-64162473D01*
X65713250Y-64162500D01*
X65862208Y-64172330D01*
X65923298Y-64227790D01*
X65935472Y-64367834D01*
X65935500Y-64384750D01*
X65945329Y-64533709D01*
X66000789Y-64594799D01*
X66140833Y-64606973D01*
X66157750Y-64607000D01*
X66380000Y-64607000D01*
X66380000Y-63718000D01*
G36*
X65935500Y-65940500D02*
G01*
X65491000Y-65940500D01*
X65491000Y-67274000D01*
X65935500Y-67274000D01*
X65935500Y-65940500D01*
G37*
X65935500Y-65940500D02*
X65491000Y-65940500D01*
X65491000Y-67274000D01*
X65935500Y-67274000D01*
X65935500Y-65940500D01*
G36*
X68529208Y-61930171D02*
G01*
X68590298Y-61874711D01*
X68602472Y-61734667D01*
X68602500Y-61717750D01*
X68592670Y-61568792D01*
X68537210Y-61507702D01*
X68397166Y-61495528D01*
X68380250Y-61495500D01*
X68231291Y-61505330D01*
X68170201Y-61560790D01*
X68158027Y-61700834D01*
X68158000Y-61717750D01*
X68167829Y-61866709D01*
X68223289Y-61927799D01*
X68363333Y-61939973D01*
X68380250Y-61940000D01*
X68529208Y-61930171D01*
G37*
X68529208Y-61930171D02*
X68590298Y-61874711D01*
X68602472Y-61734667D01*
X68602500Y-61717750D01*
X68592670Y-61568792D01*
X68537210Y-61507702D01*
X68397166Y-61495528D01*
X68380250Y-61495500D01*
X68231291Y-61505330D01*
X68170201Y-61560790D01*
X68158027Y-61700834D01*
X68158000Y-61717750D01*
X68167829Y-61866709D01*
X68223289Y-61927799D01*
X68363333Y-61939973D01*
X68380250Y-61940000D01*
X68529208Y-61930171D01*
G36*
X62379500Y-67718500D02*
G01*
X61046000Y-67718500D01*
X61046000Y-69052000D01*
X62379500Y-69052000D01*
X62379500Y-67718500D01*
G37*
X62379500Y-67718500D02*
X61046000Y-67718500D01*
X61046000Y-69052000D01*
X62379500Y-69052000D01*
X62379500Y-67718500D01*
G36*
X70380500Y-67718500D02*
G01*
X69047000Y-67718500D01*
X69047000Y-69052000D01*
X70380500Y-69052000D01*
X70380500Y-67718500D01*
G37*
X70380500Y-67718500D02*
X69047000Y-67718500D01*
X69047000Y-69052000D01*
X70380500Y-69052000D01*
X70380500Y-67718500D01*
%TD*%
M02*
