M48
; DRILL file {KiCad 5.1.9} date Fri Jan 29 19:11:42 2021
; FORMAT={-:-/ absolute / inch / decimal}
; #@! TF.CreationDate,2021-01-29T19:11:42+02:00
; #@! TF.GenerationSoftware,Kicad,Pcbnew,5.1.9
FMAT,2
INCH
T1C0.0079
T2C0.0118
T3C0.0197
T4C0.0394
T5C0.0276
%
G90
G05
T1
X2.5496Y-2.4934
X2.5496Y-2.5328
X2.5496Y-2.5722
X2.589Y-2.4934
X2.589Y-2.5328
X2.589Y-2.5722
X2.6283Y-2.4934
X2.6283Y-2.5328
X2.6283Y-2.5722
T2
X1.9272Y-2.5366
X1.9307Y-2.4791
X1.9323Y-2.6106
X1.9462Y-2.411
X1.9505Y-2.6825
X1.9629Y-2.3447
X1.9693Y-2.7482
X1.9863Y-2.2805
X1.9948Y-2.8116
X2.0126Y-2.5335
X2.0134Y-2.4986
X2.0134Y-2.5686
X2.0134Y-2.6886
X2.0164Y-2.2192
X2.0268Y-2.872
X2.0634Y-2.3386
X2.0634Y-2.3886
X2.0634Y-2.6386
X2.0649Y-2.9288
X2.0669Y-2.1693
X2.0823Y-2.1465
X2.0862Y-2.8894
X2.0945Y-2.1693
X2.1079Y-2.1465
X2.1088Y-2.9812
X2.1134Y-2.3386
X2.1134Y-2.3886
X2.1134Y-2.4386
X2.1201Y-2.1693
X2.1335Y-2.1465
X2.1457Y-2.1693
X2.1504Y-2.5547
X2.1578Y-3.0288
X2.1591Y-2.1465
X2.1634Y-2.3386
X2.1634Y-2.3886
X2.1689Y-2.8181
X2.1713Y-2.1693
X2.1846Y-2.1465
X2.1969Y-2.1693
X2.2102Y-2.1465
X2.2116Y-3.0709
X2.2118Y-2.6457
X2.2201Y-2.2705
X2.2224Y-2.1693
X2.2358Y-2.1465
X2.248Y-2.1693
X2.2614Y-2.1465
X2.2695Y-3.1072
X2.2736Y-2.1693
X2.2756Y-2.4228
X2.287Y-2.1465
X2.289Y-2.6283
X2.2937Y-2.6685
X2.2992Y-2.1693
X2.3061Y-2.551
X2.3066Y-2.5215
X2.3248Y-2.1693
X2.3256Y-2.1417
X2.3272Y-2.787
X2.3309Y-3.1373
X2.3453Y-2.5083
X2.3701Y-2.1732
X2.3705Y-2.1461
X2.3951Y-3.1608
X2.4134Y-2.9386
X2.4134Y-2.9886
X2.4134Y-3.0386
X2.4283Y-2.3727
X2.4409Y-2.1732
X2.4421Y-2.1465
X2.4584Y-3.0386
X2.4634Y-2.9386
X2.4634Y-2.9886
X2.4661Y-2.1465
X2.4783Y-2.1693
X2.4878Y-2.7559
X2.4917Y-2.1465
X2.4961Y-2.3303
X2.5039Y-2.1693
X2.5084Y-2.9411
X2.5134Y-2.9886
X2.5173Y-2.1465
X2.5232Y-2.8295
X2.5248Y-2.7028
X2.5295Y-2.1693
X2.5429Y-2.1465
X2.5551Y-2.1693
X2.5634Y-2.2386
X2.5634Y-2.9386
X2.5634Y-2.9886
X2.5661Y-2.7736
X2.5685Y-2.1465
X2.5807Y-2.1693
X2.5941Y-2.1465
X2.6063Y-2.1693
X2.6134Y-2.2386
X2.6134Y-2.9386
X2.6134Y-2.9886
X2.6197Y-2.1465
X2.6309Y-2.7211
X2.6319Y-2.1693
X2.6453Y-2.1465
X2.6575Y-2.1693
X2.6634Y-2.2386
X2.6634Y-2.9886
X2.6709Y-2.1465
X2.6811Y-2.8744
X2.6831Y-2.1693
X2.6898Y-2.3102
X2.6934Y-2.9236
X2.6965Y-2.1465
X2.6976Y-2.3508
X2.7087Y-2.1693
X2.7134Y-2.2386
X2.7184Y-2.7761
X2.722Y-2.1465
X2.7307Y-2.6079
X2.7343Y-2.1693
X2.7476Y-2.1465
X2.7598Y-2.1693
X2.7634Y-2.2386
X2.7634Y-2.2886
X2.7634Y-3.0386
X2.7634Y-3.0886
X2.7732Y-2.1465
X2.7759Y-3.0061
X2.7783Y-2.6551
X2.7854Y-2.1693
X2.7859Y-2.6986
X2.7986Y-3.1543
X2.7988Y-2.1465
X2.811Y-2.1693
X2.8134Y-2.2386
X2.8134Y-2.2886
X2.8134Y-2.3386
X2.8134Y-2.9386
X2.8134Y-2.9886
X2.8134Y-3.0386
X2.8134Y-3.0886
X2.8244Y-2.1465
X2.8248Y-2.5094
X2.8366Y-2.1693
X2.8379Y-2.629
X2.85Y-2.1465
X2.8534Y-2.7136
X2.862Y-3.1288
X2.8622Y-2.1693
X2.8634Y-2.9886
X2.8634Y-3.0386
X2.8634Y-3.0886
X2.8756Y-2.1465
X2.8878Y-2.1693
X2.8934Y-2.6636
X2.9012Y-2.1465
X2.9134Y-2.1693
X2.9224Y-3.0969
X2.9236Y-2.8362
X2.9268Y-2.1465
X2.939Y-2.1693
X2.9524Y-2.1465
X2.9539Y-3.0736
X2.9646Y-2.1693
X2.978Y-2.1465
X2.9902Y-2.1693
X3.0035Y-2.1465
X3.0134Y-2.2886
X3.0134Y-2.3386
X3.0134Y-2.3886
X3.0134Y-2.4386
X3.0134Y-2.4886
X3.0134Y-2.5386
X3.0134Y-2.5886
X3.0157Y-2.1693
X3.0291Y-2.1465
X3.0413Y-2.1693
X3.0547Y-2.1465
X3.0634Y-2.3386
X3.0634Y-2.3886
X3.0634Y-2.4386
X3.0634Y-2.4886
X3.0634Y-2.5386
X3.0669Y-2.1693
X3.0803Y-2.1465
X3.0925Y-2.1693
X3.1059Y-2.1465
X3.1134Y-2.4886
X3.1177Y-2.7898
X3.1181Y-2.1693
X3.128Y-2.9051
X3.1472Y-2.2012
X3.1571Y-2.5343
X3.1576Y-2.8541
X3.1792Y-2.2616
X3.1877Y-2.7927
X3.2047Y-2.325
X3.2112Y-2.7285
X3.2235Y-2.3907
X3.2278Y-2.6622
X3.2382Y-2.4579
X3.2386Y-2.5945
X3.2399Y-2.5262
T3
X2.43Y-3.2035
X2.745Y-3.2035
T4
X2.948Y-2.2807
X2.948Y-2.3807
X2.948Y-2.4807
X2.948Y-2.5807
T5
X2.9911Y-2.9411
X3.0412Y-2.9912
T0
M30
