%TF.GenerationSoftware,KiCad,Pcbnew,(5.1.6)-1*%
%TF.CreationDate,2020-11-28T14:47:11+02:00*%
%TF.ProjectId,PlantBuddy,506c616e-7442-4756-9464-792e6b696361,rev?*%
%TF.SameCoordinates,Original*%
%TF.FileFunction,Legend,Top*%
%TF.FilePolarity,Positive*%
%FSLAX46Y46*%
G04 Gerber Fmt 4.6, Leading zero omitted, Abs format (unit mm)*
G04 Created by KiCad (PCBNEW (5.1.6)-1) date 2020-11-28 14:47:11*
%MOMM*%
%LPD*%
G01*
G04 APERTURE LIST*
%ADD10C,0.150000*%
%ADD11C,0.120000*%
G04 APERTURE END LIST*
D10*
X72626827Y-77975338D02*
X72721108Y-77928198D01*
X72838959Y-77810346D01*
X72862529Y-77739636D01*
X72862529Y-77692495D01*
X72838959Y-77621785D01*
X72791818Y-77574644D01*
X72721108Y-77551074D01*
X72673967Y-77551074D01*
X72603257Y-77574644D01*
X72485405Y-77645355D01*
X72414695Y-77668925D01*
X72367554Y-77668925D01*
X72296844Y-77645355D01*
X72249703Y-77598214D01*
X72226133Y-77527504D01*
X72226133Y-77480363D01*
X72249703Y-77409653D01*
X72367554Y-77291802D01*
X72461835Y-77244661D01*
X73003950Y-77173950D02*
X73239653Y-77409653D01*
X72579686Y-77079669D02*
X73003950Y-77173950D01*
X72909669Y-76749686D01*
X73522495Y-77079669D02*
X73616776Y-77032529D01*
X73734627Y-76914678D01*
X73758198Y-76843967D01*
X73758198Y-76796827D01*
X73734627Y-76726116D01*
X73687487Y-76678976D01*
X73616776Y-76655405D01*
X73569636Y-76655405D01*
X73498925Y-76678976D01*
X73381074Y-76749686D01*
X73310363Y-76773257D01*
X73263223Y-76773257D01*
X73192512Y-76749686D01*
X73145372Y-76702546D01*
X73121802Y-76631835D01*
X73121802Y-76584695D01*
X73145372Y-76513984D01*
X73263223Y-76396133D01*
X73357504Y-76348992D01*
X73817123Y-78529238D02*
X73416429Y-78458528D01*
X73534280Y-78812081D02*
X73039306Y-78317106D01*
X73227867Y-78128544D01*
X73298578Y-78104974D01*
X73345719Y-78104974D01*
X73416429Y-78128544D01*
X73487140Y-78199255D01*
X73510710Y-78269966D01*
X73510710Y-78317106D01*
X73487140Y-78387817D01*
X73298578Y-78576379D01*
X73982115Y-78317106D02*
X74076396Y-78269966D01*
X74194247Y-78152115D01*
X74217817Y-78081404D01*
X74217817Y-78034264D01*
X74194247Y-77963553D01*
X74147106Y-77916412D01*
X74076396Y-77892842D01*
X74029255Y-77892842D01*
X73958544Y-77916412D01*
X73840693Y-77987123D01*
X73769983Y-78010693D01*
X73722842Y-78010693D01*
X73652131Y-77987123D01*
X73604991Y-77939983D01*
X73581421Y-77869272D01*
X73581421Y-77822131D01*
X73604991Y-77751421D01*
X73722842Y-77633570D01*
X73817123Y-77586429D01*
X73934974Y-77421438D02*
X74217817Y-77138595D01*
X74571370Y-77774991D02*
X74076396Y-77280016D01*
X79166666Y-58506666D02*
X79300000Y-58506666D01*
X79366666Y-58540000D01*
X79433333Y-58606666D01*
X79466666Y-58740000D01*
X79466666Y-58973333D01*
X79433333Y-59106666D01*
X79366666Y-59173333D01*
X79300000Y-59206666D01*
X79166666Y-59206666D01*
X79100000Y-59173333D01*
X79033333Y-59106666D01*
X79000000Y-58973333D01*
X79000000Y-58740000D01*
X79033333Y-58606666D01*
X79100000Y-58540000D01*
X79166666Y-58506666D01*
X79766666Y-59206666D02*
X79766666Y-58506666D01*
X80166666Y-59206666D01*
X80166666Y-58506666D01*
X78963333Y-69656666D02*
X79096666Y-69656666D01*
X79163333Y-69690000D01*
X79230000Y-69756666D01*
X79263333Y-69890000D01*
X79263333Y-70123333D01*
X79230000Y-70256666D01*
X79163333Y-70323333D01*
X79096666Y-70356666D01*
X78963333Y-70356666D01*
X78896666Y-70323333D01*
X78830000Y-70256666D01*
X78796666Y-70123333D01*
X78796666Y-69890000D01*
X78830000Y-69756666D01*
X78896666Y-69690000D01*
X78963333Y-69656666D01*
X79796666Y-69990000D02*
X79563333Y-69990000D01*
X79563333Y-70356666D02*
X79563333Y-69656666D01*
X79896666Y-69656666D01*
X80396666Y-69990000D02*
X80163333Y-69990000D01*
X80163333Y-70356666D02*
X80163333Y-69656666D01*
X80496666Y-69656666D01*
X72536666Y-72786666D02*
X72503333Y-72886666D01*
X72503333Y-73053333D01*
X72536666Y-73120000D01*
X72570000Y-73153333D01*
X72636666Y-73186666D01*
X72703333Y-73186666D01*
X72770000Y-73153333D01*
X72803333Y-73120000D01*
X72836666Y-73053333D01*
X72870000Y-72920000D01*
X72903333Y-72853333D01*
X72936666Y-72820000D01*
X73003333Y-72786666D01*
X73070000Y-72786666D01*
X73136666Y-72820000D01*
X73170000Y-72853333D01*
X73203333Y-72920000D01*
X73203333Y-73086666D01*
X73170000Y-73186666D01*
X72570000Y-73886666D02*
X72536666Y-73853333D01*
X72503333Y-73753333D01*
X72503333Y-73686666D01*
X72536666Y-73586666D01*
X72603333Y-73520000D01*
X72670000Y-73486666D01*
X72803333Y-73453333D01*
X72903333Y-73453333D01*
X73036666Y-73486666D01*
X73103333Y-73520000D01*
X73170000Y-73586666D01*
X73203333Y-73686666D01*
X73203333Y-73753333D01*
X73170000Y-73853333D01*
X73136666Y-73886666D01*
X72503333Y-74520000D02*
X72503333Y-74186666D01*
X73203333Y-74186666D01*
X72546666Y-70080000D02*
X72513333Y-70180000D01*
X72513333Y-70346666D01*
X72546666Y-70413333D01*
X72580000Y-70446666D01*
X72646666Y-70480000D01*
X72713333Y-70480000D01*
X72780000Y-70446666D01*
X72813333Y-70413333D01*
X72846666Y-70346666D01*
X72880000Y-70213333D01*
X72913333Y-70146666D01*
X72946666Y-70113333D01*
X73013333Y-70080000D01*
X73080000Y-70080000D01*
X73146666Y-70113333D01*
X73180000Y-70146666D01*
X73213333Y-70213333D01*
X73213333Y-70380000D01*
X73180000Y-70480000D01*
X72513333Y-70780000D02*
X73213333Y-70780000D01*
X73213333Y-70946666D01*
X73180000Y-71046666D01*
X73113333Y-71113333D01*
X73046666Y-71146666D01*
X72913333Y-71180000D01*
X72813333Y-71180000D01*
X72680000Y-71146666D01*
X72613333Y-71113333D01*
X72546666Y-71046666D01*
X72513333Y-70946666D01*
X72513333Y-70780000D01*
X72713333Y-71446666D02*
X72713333Y-71780000D01*
X72513333Y-71380000D02*
X73213333Y-71613333D01*
X72513333Y-71846666D01*
D11*
%TO.C,C8*%
X58600000Y-59097221D02*
X58600000Y-59422779D01*
X59620000Y-59097221D02*
X59620000Y-59422779D01*
%TO.C,D2*%
X65605000Y-76982500D02*
X65605000Y-74697500D01*
X64135000Y-76982500D02*
X65605000Y-76982500D01*
X64135000Y-74697500D02*
X64135000Y-76982500D01*
%TO.C,Q1*%
X56880000Y-74760000D02*
X58340000Y-74760000D01*
X56880000Y-77920000D02*
X59040000Y-77920000D01*
X56880000Y-77920000D02*
X56880000Y-76990000D01*
X56880000Y-74760000D02*
X56880000Y-75690000D01*
%TO.C,U3*%
X55990000Y-72740000D02*
X57940000Y-72740000D01*
X55990000Y-72740000D02*
X54040000Y-72740000D01*
X55990000Y-67620000D02*
X57940000Y-67620000D01*
X55990000Y-67620000D02*
X52540000Y-67620000D01*
%TO.C,Y1*%
X73350000Y-63500000D02*
X73350000Y-59500000D01*
X70050000Y-63500000D02*
X73350000Y-63500000D01*
%TO.C,Y2*%
X57365000Y-63675000D02*
X57365000Y-62325000D01*
X59115000Y-63675000D02*
X59115000Y-62325000D01*
%TO.C,U5*%
X63175000Y-66700000D02*
X63175000Y-67175000D01*
X68395000Y-61955000D02*
X67920000Y-61955000D01*
X68395000Y-62430000D02*
X68395000Y-61955000D01*
X68395000Y-67175000D02*
X67920000Y-67175000D01*
X68395000Y-66700000D02*
X68395000Y-67175000D01*
X63175000Y-61955000D02*
X63650000Y-61955000D01*
X63175000Y-62430000D02*
X63175000Y-61955000D01*
%TO.C,J2*%
X71960000Y-70880000D02*
G75*
G03*
X71960000Y-70880000I-950000J0D01*
G01*
%TO.C,J3*%
X71920000Y-73560000D02*
G75*
G03*
X71920000Y-73560000I-950000J0D01*
G01*
%TO.C,L4*%
X58531422Y-65410000D02*
X59048578Y-65410000D01*
X58531422Y-66830000D02*
X59048578Y-66830000D01*
%TO.C,Q2*%
X76010000Y-71550000D02*
X76010000Y-70620000D01*
X76010000Y-68390000D02*
X76010000Y-69320000D01*
X76010000Y-68390000D02*
X73850000Y-68390000D01*
X76010000Y-71550000D02*
X74550000Y-71550000D01*
%TO.C,SW1*%
X77580000Y-61220000D02*
X77580000Y-59820000D01*
X77580000Y-59820000D02*
X81380000Y-59820000D01*
X81380000Y-69020000D02*
X77580000Y-69020000D01*
X77580000Y-69020000D02*
X77580000Y-67620000D01*
X77580000Y-62620000D02*
X77580000Y-63720000D01*
X77580000Y-63720000D02*
X77580000Y-63720000D01*
X77580000Y-65120000D02*
X77580000Y-66220000D01*
X77580000Y-66220000D02*
X77580000Y-66220000D01*
X81380000Y-59820000D02*
X81380000Y-61520000D01*
X81380000Y-61520000D02*
X81680000Y-61520000D01*
X81680000Y-61520000D02*
X81680000Y-62320000D01*
X81680000Y-62320000D02*
X81380000Y-62320000D01*
X81380000Y-62320000D02*
X81380000Y-64020000D01*
X81380000Y-64020000D02*
X81680000Y-64020000D01*
X81680000Y-64020000D02*
X81680000Y-64820000D01*
X81680000Y-64820000D02*
X81380000Y-64820000D01*
X81380000Y-64820000D02*
X81380000Y-66520000D01*
X81380000Y-66520000D02*
X81680000Y-66520000D01*
X81680000Y-66520000D02*
X81680000Y-67320000D01*
X81680000Y-67320000D02*
X81380000Y-67320000D01*
X81380000Y-67320000D02*
X81380000Y-69020000D01*
X81380000Y-69020000D02*
X81380000Y-69020000D01*
X83280000Y-66420000D02*
X82780000Y-66420000D01*
X82780000Y-66420000D02*
X82780000Y-66420000D01*
X83280000Y-66420000D02*
X83280000Y-65920000D01*
X83280000Y-65920000D02*
X83280000Y-65920000D01*
X83280000Y-62420000D02*
X83280000Y-62920000D01*
X83280000Y-62920000D02*
X83280000Y-62920000D01*
X83280000Y-62420000D02*
X82780000Y-62420000D01*
X82780000Y-62420000D02*
X82780000Y-62420000D01*
X82480000Y-62420000D02*
X81980000Y-62420000D01*
X81980000Y-62420000D02*
X81980000Y-62420000D01*
X82480000Y-66420000D02*
X81980000Y-66420000D01*
X81980000Y-66420000D02*
X81980000Y-66420000D01*
X83280000Y-65620000D02*
X83280000Y-65120000D01*
X83280000Y-65120000D02*
X83280000Y-65120000D01*
X83280000Y-63220000D02*
X83280000Y-63720000D01*
X83280000Y-63720000D02*
X83280000Y-63720000D01*
X83280000Y-64020000D02*
X83280000Y-64820000D01*
X83280000Y-64820000D02*
X83280000Y-64820000D01*
%TO.C,SW2*%
X78177767Y-75574264D02*
X78637386Y-76033883D01*
X78637386Y-76033883D02*
X77293883Y-77377386D01*
X77293883Y-77377386D02*
X76834264Y-76917767D01*
X74076548Y-75291421D02*
X76551421Y-72816548D01*
X78743452Y-75008579D02*
X76268579Y-77483452D01*
%TO.C,U6*%
X67440000Y-69260000D02*
X68440000Y-69260000D01*
X66440000Y-71480000D02*
X68440000Y-71480000D01*
%TO.C,D1*%
X67295000Y-76992500D02*
X67295000Y-74707500D01*
X65825000Y-76992500D02*
X67295000Y-76992500D01*
X65825000Y-74707500D02*
X65825000Y-76992500D01*
D10*
%TO.C,U1*%
X63120000Y-71470000D02*
X65120000Y-71470000D01*
X64120000Y-69270000D02*
X65120000Y-69270000D01*
%TD*%
M02*
