%TF.GenerationSoftware,KiCad,Pcbnew,(5.1.6)-1*%
%TF.CreationDate,2020-10-15T17:09:17+03:00*%
%TF.ProjectId,PlantBuddy,506c616e-7442-4756-9464-792e6b696361,rev?*%
%TF.SameCoordinates,Original*%
%TF.FileFunction,Soldermask,Top*%
%TF.FilePolarity,Negative*%
%FSLAX46Y46*%
G04 Gerber Fmt 4.6, Leading zero omitted, Abs format (unit mm)*
G04 Created by KiCad (PCBNEW (5.1.6)-1) date 2020-10-15 17:09:17*
%MOMM*%
%LPD*%
G01*
G04 APERTURE LIST*
%ADD10R,3.400000X3.400000*%
%ADD11R,1.160000X0.750000*%
%ADD12R,1.900000X1.100000*%
%ADD13R,1.300000X1.500000*%
%ADD14R,1.600000X2.500000*%
%ADD15R,1.000000X0.900000*%
%ADD16R,1.000000X1.300000*%
%ADD17R,1.300000X1.000000*%
G04 APERTURE END LIST*
D10*
%TO.C,U5*%
X65785000Y-64565000D03*
G36*
G01*
X63747500Y-66490000D02*
X62947500Y-66490000D01*
G75*
G02*
X62860000Y-66402500I0J87500D01*
G01*
X62860000Y-66227500D01*
G75*
G02*
X62947500Y-66140000I87500J0D01*
G01*
X63747500Y-66140000D01*
G75*
G02*
X63835000Y-66227500I0J-87500D01*
G01*
X63835000Y-66402500D01*
G75*
G02*
X63747500Y-66490000I-87500J0D01*
G01*
G37*
G36*
G01*
X63747500Y-65990000D02*
X62947500Y-65990000D01*
G75*
G02*
X62860000Y-65902500I0J87500D01*
G01*
X62860000Y-65727500D01*
G75*
G02*
X62947500Y-65640000I87500J0D01*
G01*
X63747500Y-65640000D01*
G75*
G02*
X63835000Y-65727500I0J-87500D01*
G01*
X63835000Y-65902500D01*
G75*
G02*
X63747500Y-65990000I-87500J0D01*
G01*
G37*
G36*
G01*
X63747500Y-65490000D02*
X62947500Y-65490000D01*
G75*
G02*
X62860000Y-65402500I0J87500D01*
G01*
X62860000Y-65227500D01*
G75*
G02*
X62947500Y-65140000I87500J0D01*
G01*
X63747500Y-65140000D01*
G75*
G02*
X63835000Y-65227500I0J-87500D01*
G01*
X63835000Y-65402500D01*
G75*
G02*
X63747500Y-65490000I-87500J0D01*
G01*
G37*
G36*
G01*
X63747500Y-64990000D02*
X62947500Y-64990000D01*
G75*
G02*
X62860000Y-64902500I0J87500D01*
G01*
X62860000Y-64727500D01*
G75*
G02*
X62947500Y-64640000I87500J0D01*
G01*
X63747500Y-64640000D01*
G75*
G02*
X63835000Y-64727500I0J-87500D01*
G01*
X63835000Y-64902500D01*
G75*
G02*
X63747500Y-64990000I-87500J0D01*
G01*
G37*
G36*
G01*
X63747500Y-64490000D02*
X62947500Y-64490000D01*
G75*
G02*
X62860000Y-64402500I0J87500D01*
G01*
X62860000Y-64227500D01*
G75*
G02*
X62947500Y-64140000I87500J0D01*
G01*
X63747500Y-64140000D01*
G75*
G02*
X63835000Y-64227500I0J-87500D01*
G01*
X63835000Y-64402500D01*
G75*
G02*
X63747500Y-64490000I-87500J0D01*
G01*
G37*
G36*
G01*
X63747500Y-63990000D02*
X62947500Y-63990000D01*
G75*
G02*
X62860000Y-63902500I0J87500D01*
G01*
X62860000Y-63727500D01*
G75*
G02*
X62947500Y-63640000I87500J0D01*
G01*
X63747500Y-63640000D01*
G75*
G02*
X63835000Y-63727500I0J-87500D01*
G01*
X63835000Y-63902500D01*
G75*
G02*
X63747500Y-63990000I-87500J0D01*
G01*
G37*
G36*
G01*
X63747500Y-63490000D02*
X62947500Y-63490000D01*
G75*
G02*
X62860000Y-63402500I0J87500D01*
G01*
X62860000Y-63227500D01*
G75*
G02*
X62947500Y-63140000I87500J0D01*
G01*
X63747500Y-63140000D01*
G75*
G02*
X63835000Y-63227500I0J-87500D01*
G01*
X63835000Y-63402500D01*
G75*
G02*
X63747500Y-63490000I-87500J0D01*
G01*
G37*
G36*
G01*
X63747500Y-62990000D02*
X62947500Y-62990000D01*
G75*
G02*
X62860000Y-62902500I0J87500D01*
G01*
X62860000Y-62727500D01*
G75*
G02*
X62947500Y-62640000I87500J0D01*
G01*
X63747500Y-62640000D01*
G75*
G02*
X63835000Y-62727500I0J-87500D01*
G01*
X63835000Y-62902500D01*
G75*
G02*
X63747500Y-62990000I-87500J0D01*
G01*
G37*
G36*
G01*
X64122500Y-62615000D02*
X63947500Y-62615000D01*
G75*
G02*
X63860000Y-62527500I0J87500D01*
G01*
X63860000Y-61727500D01*
G75*
G02*
X63947500Y-61640000I87500J0D01*
G01*
X64122500Y-61640000D01*
G75*
G02*
X64210000Y-61727500I0J-87500D01*
G01*
X64210000Y-62527500D01*
G75*
G02*
X64122500Y-62615000I-87500J0D01*
G01*
G37*
G36*
G01*
X64622500Y-62615000D02*
X64447500Y-62615000D01*
G75*
G02*
X64360000Y-62527500I0J87500D01*
G01*
X64360000Y-61727500D01*
G75*
G02*
X64447500Y-61640000I87500J0D01*
G01*
X64622500Y-61640000D01*
G75*
G02*
X64710000Y-61727500I0J-87500D01*
G01*
X64710000Y-62527500D01*
G75*
G02*
X64622500Y-62615000I-87500J0D01*
G01*
G37*
G36*
G01*
X65122500Y-62615000D02*
X64947500Y-62615000D01*
G75*
G02*
X64860000Y-62527500I0J87500D01*
G01*
X64860000Y-61727500D01*
G75*
G02*
X64947500Y-61640000I87500J0D01*
G01*
X65122500Y-61640000D01*
G75*
G02*
X65210000Y-61727500I0J-87500D01*
G01*
X65210000Y-62527500D01*
G75*
G02*
X65122500Y-62615000I-87500J0D01*
G01*
G37*
G36*
G01*
X65622500Y-62615000D02*
X65447500Y-62615000D01*
G75*
G02*
X65360000Y-62527500I0J87500D01*
G01*
X65360000Y-61727500D01*
G75*
G02*
X65447500Y-61640000I87500J0D01*
G01*
X65622500Y-61640000D01*
G75*
G02*
X65710000Y-61727500I0J-87500D01*
G01*
X65710000Y-62527500D01*
G75*
G02*
X65622500Y-62615000I-87500J0D01*
G01*
G37*
G36*
G01*
X66122500Y-62615000D02*
X65947500Y-62615000D01*
G75*
G02*
X65860000Y-62527500I0J87500D01*
G01*
X65860000Y-61727500D01*
G75*
G02*
X65947500Y-61640000I87500J0D01*
G01*
X66122500Y-61640000D01*
G75*
G02*
X66210000Y-61727500I0J-87500D01*
G01*
X66210000Y-62527500D01*
G75*
G02*
X66122500Y-62615000I-87500J0D01*
G01*
G37*
G36*
G01*
X66622500Y-62615000D02*
X66447500Y-62615000D01*
G75*
G02*
X66360000Y-62527500I0J87500D01*
G01*
X66360000Y-61727500D01*
G75*
G02*
X66447500Y-61640000I87500J0D01*
G01*
X66622500Y-61640000D01*
G75*
G02*
X66710000Y-61727500I0J-87500D01*
G01*
X66710000Y-62527500D01*
G75*
G02*
X66622500Y-62615000I-87500J0D01*
G01*
G37*
G36*
G01*
X67122500Y-62615000D02*
X66947500Y-62615000D01*
G75*
G02*
X66860000Y-62527500I0J87500D01*
G01*
X66860000Y-61727500D01*
G75*
G02*
X66947500Y-61640000I87500J0D01*
G01*
X67122500Y-61640000D01*
G75*
G02*
X67210000Y-61727500I0J-87500D01*
G01*
X67210000Y-62527500D01*
G75*
G02*
X67122500Y-62615000I-87500J0D01*
G01*
G37*
G36*
G01*
X67622500Y-62615000D02*
X67447500Y-62615000D01*
G75*
G02*
X67360000Y-62527500I0J87500D01*
G01*
X67360000Y-61727500D01*
G75*
G02*
X67447500Y-61640000I87500J0D01*
G01*
X67622500Y-61640000D01*
G75*
G02*
X67710000Y-61727500I0J-87500D01*
G01*
X67710000Y-62527500D01*
G75*
G02*
X67622500Y-62615000I-87500J0D01*
G01*
G37*
G36*
G01*
X68622500Y-62990000D02*
X67822500Y-62990000D01*
G75*
G02*
X67735000Y-62902500I0J87500D01*
G01*
X67735000Y-62727500D01*
G75*
G02*
X67822500Y-62640000I87500J0D01*
G01*
X68622500Y-62640000D01*
G75*
G02*
X68710000Y-62727500I0J-87500D01*
G01*
X68710000Y-62902500D01*
G75*
G02*
X68622500Y-62990000I-87500J0D01*
G01*
G37*
G36*
G01*
X68622500Y-63490000D02*
X67822500Y-63490000D01*
G75*
G02*
X67735000Y-63402500I0J87500D01*
G01*
X67735000Y-63227500D01*
G75*
G02*
X67822500Y-63140000I87500J0D01*
G01*
X68622500Y-63140000D01*
G75*
G02*
X68710000Y-63227500I0J-87500D01*
G01*
X68710000Y-63402500D01*
G75*
G02*
X68622500Y-63490000I-87500J0D01*
G01*
G37*
G36*
G01*
X68622500Y-63990000D02*
X67822500Y-63990000D01*
G75*
G02*
X67735000Y-63902500I0J87500D01*
G01*
X67735000Y-63727500D01*
G75*
G02*
X67822500Y-63640000I87500J0D01*
G01*
X68622500Y-63640000D01*
G75*
G02*
X68710000Y-63727500I0J-87500D01*
G01*
X68710000Y-63902500D01*
G75*
G02*
X68622500Y-63990000I-87500J0D01*
G01*
G37*
G36*
G01*
X68622500Y-64490000D02*
X67822500Y-64490000D01*
G75*
G02*
X67735000Y-64402500I0J87500D01*
G01*
X67735000Y-64227500D01*
G75*
G02*
X67822500Y-64140000I87500J0D01*
G01*
X68622500Y-64140000D01*
G75*
G02*
X68710000Y-64227500I0J-87500D01*
G01*
X68710000Y-64402500D01*
G75*
G02*
X68622500Y-64490000I-87500J0D01*
G01*
G37*
G36*
G01*
X68622500Y-64990000D02*
X67822500Y-64990000D01*
G75*
G02*
X67735000Y-64902500I0J87500D01*
G01*
X67735000Y-64727500D01*
G75*
G02*
X67822500Y-64640000I87500J0D01*
G01*
X68622500Y-64640000D01*
G75*
G02*
X68710000Y-64727500I0J-87500D01*
G01*
X68710000Y-64902500D01*
G75*
G02*
X68622500Y-64990000I-87500J0D01*
G01*
G37*
G36*
G01*
X68622500Y-65490000D02*
X67822500Y-65490000D01*
G75*
G02*
X67735000Y-65402500I0J87500D01*
G01*
X67735000Y-65227500D01*
G75*
G02*
X67822500Y-65140000I87500J0D01*
G01*
X68622500Y-65140000D01*
G75*
G02*
X68710000Y-65227500I0J-87500D01*
G01*
X68710000Y-65402500D01*
G75*
G02*
X68622500Y-65490000I-87500J0D01*
G01*
G37*
G36*
G01*
X68622500Y-65990000D02*
X67822500Y-65990000D01*
G75*
G02*
X67735000Y-65902500I0J87500D01*
G01*
X67735000Y-65727500D01*
G75*
G02*
X67822500Y-65640000I87500J0D01*
G01*
X68622500Y-65640000D01*
G75*
G02*
X68710000Y-65727500I0J-87500D01*
G01*
X68710000Y-65902500D01*
G75*
G02*
X68622500Y-65990000I-87500J0D01*
G01*
G37*
G36*
G01*
X68622500Y-66490000D02*
X67822500Y-66490000D01*
G75*
G02*
X67735000Y-66402500I0J87500D01*
G01*
X67735000Y-66227500D01*
G75*
G02*
X67822500Y-66140000I87500J0D01*
G01*
X68622500Y-66140000D01*
G75*
G02*
X68710000Y-66227500I0J-87500D01*
G01*
X68710000Y-66402500D01*
G75*
G02*
X68622500Y-66490000I-87500J0D01*
G01*
G37*
G36*
G01*
X67622500Y-67490000D02*
X67447500Y-67490000D01*
G75*
G02*
X67360000Y-67402500I0J87500D01*
G01*
X67360000Y-66602500D01*
G75*
G02*
X67447500Y-66515000I87500J0D01*
G01*
X67622500Y-66515000D01*
G75*
G02*
X67710000Y-66602500I0J-87500D01*
G01*
X67710000Y-67402500D01*
G75*
G02*
X67622500Y-67490000I-87500J0D01*
G01*
G37*
G36*
G01*
X67122500Y-67490000D02*
X66947500Y-67490000D01*
G75*
G02*
X66860000Y-67402500I0J87500D01*
G01*
X66860000Y-66602500D01*
G75*
G02*
X66947500Y-66515000I87500J0D01*
G01*
X67122500Y-66515000D01*
G75*
G02*
X67210000Y-66602500I0J-87500D01*
G01*
X67210000Y-67402500D01*
G75*
G02*
X67122500Y-67490000I-87500J0D01*
G01*
G37*
G36*
G01*
X66622500Y-67490000D02*
X66447500Y-67490000D01*
G75*
G02*
X66360000Y-67402500I0J87500D01*
G01*
X66360000Y-66602500D01*
G75*
G02*
X66447500Y-66515000I87500J0D01*
G01*
X66622500Y-66515000D01*
G75*
G02*
X66710000Y-66602500I0J-87500D01*
G01*
X66710000Y-67402500D01*
G75*
G02*
X66622500Y-67490000I-87500J0D01*
G01*
G37*
G36*
G01*
X66122500Y-67490000D02*
X65947500Y-67490000D01*
G75*
G02*
X65860000Y-67402500I0J87500D01*
G01*
X65860000Y-66602500D01*
G75*
G02*
X65947500Y-66515000I87500J0D01*
G01*
X66122500Y-66515000D01*
G75*
G02*
X66210000Y-66602500I0J-87500D01*
G01*
X66210000Y-67402500D01*
G75*
G02*
X66122500Y-67490000I-87500J0D01*
G01*
G37*
G36*
G01*
X65622500Y-67490000D02*
X65447500Y-67490000D01*
G75*
G02*
X65360000Y-67402500I0J87500D01*
G01*
X65360000Y-66602500D01*
G75*
G02*
X65447500Y-66515000I87500J0D01*
G01*
X65622500Y-66515000D01*
G75*
G02*
X65710000Y-66602500I0J-87500D01*
G01*
X65710000Y-67402500D01*
G75*
G02*
X65622500Y-67490000I-87500J0D01*
G01*
G37*
G36*
G01*
X65122500Y-67490000D02*
X64947500Y-67490000D01*
G75*
G02*
X64860000Y-67402500I0J87500D01*
G01*
X64860000Y-66602500D01*
G75*
G02*
X64947500Y-66515000I87500J0D01*
G01*
X65122500Y-66515000D01*
G75*
G02*
X65210000Y-66602500I0J-87500D01*
G01*
X65210000Y-67402500D01*
G75*
G02*
X65122500Y-67490000I-87500J0D01*
G01*
G37*
G36*
G01*
X64622500Y-67490000D02*
X64447500Y-67490000D01*
G75*
G02*
X64360000Y-67402500I0J87500D01*
G01*
X64360000Y-66602500D01*
G75*
G02*
X64447500Y-66515000I87500J0D01*
G01*
X64622500Y-66515000D01*
G75*
G02*
X64710000Y-66602500I0J-87500D01*
G01*
X64710000Y-67402500D01*
G75*
G02*
X64622500Y-67490000I-87500J0D01*
G01*
G37*
G36*
G01*
X64122500Y-67490000D02*
X63947500Y-67490000D01*
G75*
G02*
X63860000Y-67402500I0J87500D01*
G01*
X63860000Y-66602500D01*
G75*
G02*
X63947500Y-66515000I87500J0D01*
G01*
X64122500Y-66515000D01*
G75*
G02*
X64210000Y-66602500I0J-87500D01*
G01*
X64210000Y-67402500D01*
G75*
G02*
X64122500Y-67490000I-87500J0D01*
G01*
G37*
%TD*%
D11*
%TO.C,Q2*%
X76970000Y-74370000D03*
X76970000Y-73420000D03*
X76970000Y-75320000D03*
X74770000Y-75320000D03*
X74770000Y-74370000D03*
X74770000Y-73420000D03*
%TD*%
%TO.C,C18*%
G36*
G01*
X65660000Y-60002500D02*
X65660000Y-60397500D01*
G75*
G02*
X65487500Y-60570000I-172500J0D01*
G01*
X65142500Y-60570000D01*
G75*
G02*
X64970000Y-60397500I0J172500D01*
G01*
X64970000Y-60002500D01*
G75*
G02*
X65142500Y-59830000I172500J0D01*
G01*
X65487500Y-59830000D01*
G75*
G02*
X65660000Y-60002500I0J-172500D01*
G01*
G37*
G36*
G01*
X66630000Y-60002500D02*
X66630000Y-60397500D01*
G75*
G02*
X66457500Y-60570000I-172500J0D01*
G01*
X66112500Y-60570000D01*
G75*
G02*
X65940000Y-60397500I0J172500D01*
G01*
X65940000Y-60002500D01*
G75*
G02*
X66112500Y-59830000I172500J0D01*
G01*
X66457500Y-59830000D01*
G75*
G02*
X66630000Y-60002500I0J-172500D01*
G01*
G37*
%TD*%
%TO.C,C26*%
G36*
G01*
X60962500Y-56790000D02*
X61357500Y-56790000D01*
G75*
G02*
X61530000Y-56962500I0J-172500D01*
G01*
X61530000Y-57307500D01*
G75*
G02*
X61357500Y-57480000I-172500J0D01*
G01*
X60962500Y-57480000D01*
G75*
G02*
X60790000Y-57307500I0J172500D01*
G01*
X60790000Y-56962500D01*
G75*
G02*
X60962500Y-56790000I172500J0D01*
G01*
G37*
G36*
G01*
X60962500Y-55820000D02*
X61357500Y-55820000D01*
G75*
G02*
X61530000Y-55992500I0J-172500D01*
G01*
X61530000Y-56337500D01*
G75*
G02*
X61357500Y-56510000I-172500J0D01*
G01*
X60962500Y-56510000D01*
G75*
G02*
X60790000Y-56337500I0J172500D01*
G01*
X60790000Y-55992500D01*
G75*
G02*
X60962500Y-55820000I172500J0D01*
G01*
G37*
%TD*%
D12*
%TO.C,Y2*%
X58240000Y-64250000D03*
X58240000Y-61750000D03*
%TD*%
D13*
%TO.C,Y1*%
X70850000Y-62600000D03*
X70850000Y-60400000D03*
X72550000Y-60400000D03*
X72550000Y-62600000D03*
%TD*%
D11*
%TO.C,U8*%
X78570000Y-61740000D03*
X78570000Y-60790000D03*
X78570000Y-62690000D03*
X76370000Y-62690000D03*
X76370000Y-61740000D03*
X76370000Y-60790000D03*
%TD*%
%TO.C,U7*%
G36*
G01*
X77440000Y-68010000D02*
X77440000Y-67660000D01*
G75*
G02*
X77615000Y-67485000I175000J0D01*
G01*
X79015000Y-67485000D01*
G75*
G02*
X79190000Y-67660000I0J-175000D01*
G01*
X79190000Y-68010000D01*
G75*
G02*
X79015000Y-68185000I-175000J0D01*
G01*
X77615000Y-68185000D01*
G75*
G02*
X77440000Y-68010000I0J175000D01*
G01*
G37*
G36*
G01*
X77440000Y-69280000D02*
X77440000Y-68930000D01*
G75*
G02*
X77615000Y-68755000I175000J0D01*
G01*
X79015000Y-68755000D01*
G75*
G02*
X79190000Y-68930000I0J-175000D01*
G01*
X79190000Y-69280000D01*
G75*
G02*
X79015000Y-69455000I-175000J0D01*
G01*
X77615000Y-69455000D01*
G75*
G02*
X77440000Y-69280000I0J175000D01*
G01*
G37*
G36*
G01*
X77440000Y-70550000D02*
X77440000Y-70200000D01*
G75*
G02*
X77615000Y-70025000I175000J0D01*
G01*
X79015000Y-70025000D01*
G75*
G02*
X79190000Y-70200000I0J-175000D01*
G01*
X79190000Y-70550000D01*
G75*
G02*
X79015000Y-70725000I-175000J0D01*
G01*
X77615000Y-70725000D01*
G75*
G02*
X77440000Y-70550000I0J175000D01*
G01*
G37*
G36*
G01*
X77440000Y-71820000D02*
X77440000Y-71470000D01*
G75*
G02*
X77615000Y-71295000I175000J0D01*
G01*
X79015000Y-71295000D01*
G75*
G02*
X79190000Y-71470000I0J-175000D01*
G01*
X79190000Y-71820000D01*
G75*
G02*
X79015000Y-71995000I-175000J0D01*
G01*
X77615000Y-71995000D01*
G75*
G02*
X77440000Y-71820000I0J175000D01*
G01*
G37*
G36*
G01*
X72190000Y-71820000D02*
X72190000Y-71470000D01*
G75*
G02*
X72365000Y-71295000I175000J0D01*
G01*
X73765000Y-71295000D01*
G75*
G02*
X73940000Y-71470000I0J-175000D01*
G01*
X73940000Y-71820000D01*
G75*
G02*
X73765000Y-71995000I-175000J0D01*
G01*
X72365000Y-71995000D01*
G75*
G02*
X72190000Y-71820000I0J175000D01*
G01*
G37*
G36*
G01*
X72190000Y-70550000D02*
X72190000Y-70200000D01*
G75*
G02*
X72365000Y-70025000I175000J0D01*
G01*
X73765000Y-70025000D01*
G75*
G02*
X73940000Y-70200000I0J-175000D01*
G01*
X73940000Y-70550000D01*
G75*
G02*
X73765000Y-70725000I-175000J0D01*
G01*
X72365000Y-70725000D01*
G75*
G02*
X72190000Y-70550000I0J175000D01*
G01*
G37*
G36*
G01*
X72190000Y-69280000D02*
X72190000Y-68930000D01*
G75*
G02*
X72365000Y-68755000I175000J0D01*
G01*
X73765000Y-68755000D01*
G75*
G02*
X73940000Y-68930000I0J-175000D01*
G01*
X73940000Y-69280000D01*
G75*
G02*
X73765000Y-69455000I-175000J0D01*
G01*
X72365000Y-69455000D01*
G75*
G02*
X72190000Y-69280000I0J175000D01*
G01*
G37*
G36*
G01*
X72190000Y-68010000D02*
X72190000Y-67660000D01*
G75*
G02*
X72365000Y-67485000I175000J0D01*
G01*
X73765000Y-67485000D01*
G75*
G02*
X73940000Y-67660000I0J-175000D01*
G01*
X73940000Y-68010000D01*
G75*
G02*
X73765000Y-68185000I-175000J0D01*
G01*
X72365000Y-68185000D01*
G75*
G02*
X72190000Y-68010000I0J175000D01*
G01*
G37*
%TD*%
D14*
%TO.C,U6*%
X65715000Y-73190000D03*
G36*
G01*
X66715000Y-72315000D02*
X66715000Y-72065000D01*
G75*
G02*
X66840000Y-71940000I125000J0D01*
G01*
X67490000Y-71940000D01*
G75*
G02*
X67615000Y-72065000I0J-125000D01*
G01*
X67615000Y-72315000D01*
G75*
G02*
X67490000Y-72440000I-125000J0D01*
G01*
X66840000Y-72440000D01*
G75*
G02*
X66715000Y-72315000I0J125000D01*
G01*
G37*
G36*
G01*
X66715000Y-73315000D02*
X66715000Y-73065000D01*
G75*
G02*
X66840000Y-72940000I125000J0D01*
G01*
X67490000Y-72940000D01*
G75*
G02*
X67615000Y-73065000I0J-125000D01*
G01*
X67615000Y-73315000D01*
G75*
G02*
X67490000Y-73440000I-125000J0D01*
G01*
X66840000Y-73440000D01*
G75*
G02*
X66715000Y-73315000I0J125000D01*
G01*
G37*
G36*
G01*
X66715000Y-74315000D02*
X66715000Y-74065000D01*
G75*
G02*
X66840000Y-73940000I125000J0D01*
G01*
X67490000Y-73940000D01*
G75*
G02*
X67615000Y-74065000I0J-125000D01*
G01*
X67615000Y-74315000D01*
G75*
G02*
X67490000Y-74440000I-125000J0D01*
G01*
X66840000Y-74440000D01*
G75*
G02*
X66715000Y-74315000I0J125000D01*
G01*
G37*
G36*
G01*
X63815000Y-74315000D02*
X63815000Y-74065000D01*
G75*
G02*
X63940000Y-73940000I125000J0D01*
G01*
X64590000Y-73940000D01*
G75*
G02*
X64715000Y-74065000I0J-125000D01*
G01*
X64715000Y-74315000D01*
G75*
G02*
X64590000Y-74440000I-125000J0D01*
G01*
X63940000Y-74440000D01*
G75*
G02*
X63815000Y-74315000I0J125000D01*
G01*
G37*
G36*
G01*
X63815000Y-73315000D02*
X63815000Y-73065000D01*
G75*
G02*
X63940000Y-72940000I125000J0D01*
G01*
X64590000Y-72940000D01*
G75*
G02*
X64715000Y-73065000I0J-125000D01*
G01*
X64715000Y-73315000D01*
G75*
G02*
X64590000Y-73440000I-125000J0D01*
G01*
X63940000Y-73440000D01*
G75*
G02*
X63815000Y-73315000I0J125000D01*
G01*
G37*
G36*
G01*
X63815000Y-72315000D02*
X63815000Y-72065000D01*
G75*
G02*
X63940000Y-71940000I125000J0D01*
G01*
X64590000Y-71940000D01*
G75*
G02*
X64715000Y-72065000I0J-125000D01*
G01*
X64715000Y-72315000D01*
G75*
G02*
X64590000Y-72440000I-125000J0D01*
G01*
X63940000Y-72440000D01*
G75*
G02*
X63815000Y-72315000I0J125000D01*
G01*
G37*
%TD*%
D15*
%TO.C,U4*%
X55130000Y-59010000D03*
X53130000Y-59960000D03*
X53130000Y-58060000D03*
%TD*%
%TO.C,U3*%
G36*
G01*
X52490000Y-68450000D02*
X52490000Y-68100000D01*
G75*
G02*
X52665000Y-67925000I175000J0D01*
G01*
X54365000Y-67925000D01*
G75*
G02*
X54540000Y-68100000I0J-175000D01*
G01*
X54540000Y-68450000D01*
G75*
G02*
X54365000Y-68625000I-175000J0D01*
G01*
X52665000Y-68625000D01*
G75*
G02*
X52490000Y-68450000I0J175000D01*
G01*
G37*
G36*
G01*
X52490000Y-69720000D02*
X52490000Y-69370000D01*
G75*
G02*
X52665000Y-69195000I175000J0D01*
G01*
X54365000Y-69195000D01*
G75*
G02*
X54540000Y-69370000I0J-175000D01*
G01*
X54540000Y-69720000D01*
G75*
G02*
X54365000Y-69895000I-175000J0D01*
G01*
X52665000Y-69895000D01*
G75*
G02*
X52490000Y-69720000I0J175000D01*
G01*
G37*
G36*
G01*
X52490000Y-70990000D02*
X52490000Y-70640000D01*
G75*
G02*
X52665000Y-70465000I175000J0D01*
G01*
X54365000Y-70465000D01*
G75*
G02*
X54540000Y-70640000I0J-175000D01*
G01*
X54540000Y-70990000D01*
G75*
G02*
X54365000Y-71165000I-175000J0D01*
G01*
X52665000Y-71165000D01*
G75*
G02*
X52490000Y-70990000I0J175000D01*
G01*
G37*
G36*
G01*
X52490000Y-72260000D02*
X52490000Y-71910000D01*
G75*
G02*
X52665000Y-71735000I175000J0D01*
G01*
X54365000Y-71735000D01*
G75*
G02*
X54540000Y-71910000I0J-175000D01*
G01*
X54540000Y-72260000D01*
G75*
G02*
X54365000Y-72435000I-175000J0D01*
G01*
X52665000Y-72435000D01*
G75*
G02*
X52490000Y-72260000I0J175000D01*
G01*
G37*
G36*
G01*
X57440000Y-72260000D02*
X57440000Y-71910000D01*
G75*
G02*
X57615000Y-71735000I175000J0D01*
G01*
X59315000Y-71735000D01*
G75*
G02*
X59490000Y-71910000I0J-175000D01*
G01*
X59490000Y-72260000D01*
G75*
G02*
X59315000Y-72435000I-175000J0D01*
G01*
X57615000Y-72435000D01*
G75*
G02*
X57440000Y-72260000I0J175000D01*
G01*
G37*
G36*
G01*
X57440000Y-70990000D02*
X57440000Y-70640000D01*
G75*
G02*
X57615000Y-70465000I175000J0D01*
G01*
X59315000Y-70465000D01*
G75*
G02*
X59490000Y-70640000I0J-175000D01*
G01*
X59490000Y-70990000D01*
G75*
G02*
X59315000Y-71165000I-175000J0D01*
G01*
X57615000Y-71165000D01*
G75*
G02*
X57440000Y-70990000I0J175000D01*
G01*
G37*
G36*
G01*
X57440000Y-69720000D02*
X57440000Y-69370000D01*
G75*
G02*
X57615000Y-69195000I175000J0D01*
G01*
X59315000Y-69195000D01*
G75*
G02*
X59490000Y-69370000I0J-175000D01*
G01*
X59490000Y-69720000D01*
G75*
G02*
X59315000Y-69895000I-175000J0D01*
G01*
X57615000Y-69895000D01*
G75*
G02*
X57440000Y-69720000I0J175000D01*
G01*
G37*
G36*
G01*
X57440000Y-68450000D02*
X57440000Y-68100000D01*
G75*
G02*
X57615000Y-67925000I175000J0D01*
G01*
X59315000Y-67925000D01*
G75*
G02*
X59490000Y-68100000I0J-175000D01*
G01*
X59490000Y-68450000D01*
G75*
G02*
X59315000Y-68625000I-175000J0D01*
G01*
X57615000Y-68625000D01*
G75*
G02*
X57440000Y-68450000I0J175000D01*
G01*
G37*
%TD*%
D11*
%TO.C,U2*%
X72990000Y-73440000D03*
X72990000Y-75340000D03*
X70790000Y-75340000D03*
X70790000Y-74390000D03*
X70790000Y-73440000D03*
%TD*%
%TO.C,U1*%
X52570000Y-63230000D03*
X52570000Y-65130000D03*
X50370000Y-65130000D03*
X50370000Y-64180000D03*
X50370000Y-63230000D03*
%TD*%
%TO.C,R19*%
G36*
G01*
X75031250Y-61750000D02*
X74468750Y-61750000D01*
G75*
G02*
X74225000Y-61506250I0J243750D01*
G01*
X74225000Y-61018750D01*
G75*
G02*
X74468750Y-60775000I243750J0D01*
G01*
X75031250Y-60775000D01*
G75*
G02*
X75275000Y-61018750I0J-243750D01*
G01*
X75275000Y-61506250D01*
G75*
G02*
X75031250Y-61750000I-243750J0D01*
G01*
G37*
G36*
G01*
X75031250Y-63325000D02*
X74468750Y-63325000D01*
G75*
G02*
X74225000Y-63081250I0J243750D01*
G01*
X74225000Y-62593750D01*
G75*
G02*
X74468750Y-62350000I243750J0D01*
G01*
X75031250Y-62350000D01*
G75*
G02*
X75275000Y-62593750I0J-243750D01*
G01*
X75275000Y-63081250D01*
G75*
G02*
X75031250Y-63325000I-243750J0D01*
G01*
G37*
%TD*%
%TO.C,R18*%
G36*
G01*
X77850000Y-64078750D02*
X77850000Y-64641250D01*
G75*
G02*
X77606250Y-64885000I-243750J0D01*
G01*
X77118750Y-64885000D01*
G75*
G02*
X76875000Y-64641250I0J243750D01*
G01*
X76875000Y-64078750D01*
G75*
G02*
X77118750Y-63835000I243750J0D01*
G01*
X77606250Y-63835000D01*
G75*
G02*
X77850000Y-64078750I0J-243750D01*
G01*
G37*
G36*
G01*
X79425000Y-64078750D02*
X79425000Y-64641250D01*
G75*
G02*
X79181250Y-64885000I-243750J0D01*
G01*
X78693750Y-64885000D01*
G75*
G02*
X78450000Y-64641250I0J243750D01*
G01*
X78450000Y-64078750D01*
G75*
G02*
X78693750Y-63835000I243750J0D01*
G01*
X79181250Y-63835000D01*
G75*
G02*
X79425000Y-64078750I0J-243750D01*
G01*
G37*
%TD*%
%TO.C,R17*%
G36*
G01*
X73120000Y-65808750D02*
X73120000Y-66371250D01*
G75*
G02*
X72876250Y-66615000I-243750J0D01*
G01*
X72388750Y-66615000D01*
G75*
G02*
X72145000Y-66371250I0J243750D01*
G01*
X72145000Y-65808750D01*
G75*
G02*
X72388750Y-65565000I243750J0D01*
G01*
X72876250Y-65565000D01*
G75*
G02*
X73120000Y-65808750I0J-243750D01*
G01*
G37*
G36*
G01*
X74695000Y-65808750D02*
X74695000Y-66371250D01*
G75*
G02*
X74451250Y-66615000I-243750J0D01*
G01*
X73963750Y-66615000D01*
G75*
G02*
X73720000Y-66371250I0J243750D01*
G01*
X73720000Y-65808750D01*
G75*
G02*
X73963750Y-65565000I243750J0D01*
G01*
X74451250Y-65565000D01*
G75*
G02*
X74695000Y-65808750I0J-243750D01*
G01*
G37*
%TD*%
%TO.C,R16*%
G36*
G01*
X69421250Y-69340000D02*
X68858750Y-69340000D01*
G75*
G02*
X68615000Y-69096250I0J243750D01*
G01*
X68615000Y-68608750D01*
G75*
G02*
X68858750Y-68365000I243750J0D01*
G01*
X69421250Y-68365000D01*
G75*
G02*
X69665000Y-68608750I0J-243750D01*
G01*
X69665000Y-69096250D01*
G75*
G02*
X69421250Y-69340000I-243750J0D01*
G01*
G37*
G36*
G01*
X69421250Y-70915000D02*
X68858750Y-70915000D01*
G75*
G02*
X68615000Y-70671250I0J243750D01*
G01*
X68615000Y-70183750D01*
G75*
G02*
X68858750Y-69940000I243750J0D01*
G01*
X69421250Y-69940000D01*
G75*
G02*
X69665000Y-70183750I0J-243750D01*
G01*
X69665000Y-70671250D01*
G75*
G02*
X69421250Y-70915000I-243750J0D01*
G01*
G37*
%TD*%
%TO.C,R15*%
G36*
G01*
X69061250Y-72840000D02*
X68498750Y-72840000D01*
G75*
G02*
X68255000Y-72596250I0J243750D01*
G01*
X68255000Y-72108750D01*
G75*
G02*
X68498750Y-71865000I243750J0D01*
G01*
X69061250Y-71865000D01*
G75*
G02*
X69305000Y-72108750I0J-243750D01*
G01*
X69305000Y-72596250D01*
G75*
G02*
X69061250Y-72840000I-243750J0D01*
G01*
G37*
G36*
G01*
X69061250Y-74415000D02*
X68498750Y-74415000D01*
G75*
G02*
X68255000Y-74171250I0J243750D01*
G01*
X68255000Y-73683750D01*
G75*
G02*
X68498750Y-73440000I243750J0D01*
G01*
X69061250Y-73440000D01*
G75*
G02*
X69305000Y-73683750I0J-243750D01*
G01*
X69305000Y-74171250D01*
G75*
G02*
X69061250Y-74415000I-243750J0D01*
G01*
G37*
%TD*%
%TO.C,R14*%
G36*
G01*
X62921250Y-72760000D02*
X62358750Y-72760000D01*
G75*
G02*
X62115000Y-72516250I0J243750D01*
G01*
X62115000Y-72028750D01*
G75*
G02*
X62358750Y-71785000I243750J0D01*
G01*
X62921250Y-71785000D01*
G75*
G02*
X63165000Y-72028750I0J-243750D01*
G01*
X63165000Y-72516250D01*
G75*
G02*
X62921250Y-72760000I-243750J0D01*
G01*
G37*
G36*
G01*
X62921250Y-74335000D02*
X62358750Y-74335000D01*
G75*
G02*
X62115000Y-74091250I0J243750D01*
G01*
X62115000Y-73603750D01*
G75*
G02*
X62358750Y-73360000I243750J0D01*
G01*
X62921250Y-73360000D01*
G75*
G02*
X63165000Y-73603750I0J-243750D01*
G01*
X63165000Y-74091250D01*
G75*
G02*
X62921250Y-74335000I-243750J0D01*
G01*
G37*
%TD*%
%TO.C,R13*%
G36*
G01*
X63608750Y-70190000D02*
X64171250Y-70190000D01*
G75*
G02*
X64415000Y-70433750I0J-243750D01*
G01*
X64415000Y-70921250D01*
G75*
G02*
X64171250Y-71165000I-243750J0D01*
G01*
X63608750Y-71165000D01*
G75*
G02*
X63365000Y-70921250I0J243750D01*
G01*
X63365000Y-70433750D01*
G75*
G02*
X63608750Y-70190000I243750J0D01*
G01*
G37*
G36*
G01*
X63608750Y-68615000D02*
X64171250Y-68615000D01*
G75*
G02*
X64415000Y-68858750I0J-243750D01*
G01*
X64415000Y-69346250D01*
G75*
G02*
X64171250Y-69590000I-243750J0D01*
G01*
X63608750Y-69590000D01*
G75*
G02*
X63365000Y-69346250I0J243750D01*
G01*
X63365000Y-68858750D01*
G75*
G02*
X63608750Y-68615000I243750J0D01*
G01*
G37*
%TD*%
%TO.C,R12*%
G36*
G01*
X62141250Y-63180000D02*
X61578750Y-63180000D01*
G75*
G02*
X61335000Y-62936250I0J243750D01*
G01*
X61335000Y-62448750D01*
G75*
G02*
X61578750Y-62205000I243750J0D01*
G01*
X62141250Y-62205000D01*
G75*
G02*
X62385000Y-62448750I0J-243750D01*
G01*
X62385000Y-62936250D01*
G75*
G02*
X62141250Y-63180000I-243750J0D01*
G01*
G37*
G36*
G01*
X62141250Y-64755000D02*
X61578750Y-64755000D01*
G75*
G02*
X61335000Y-64511250I0J243750D01*
G01*
X61335000Y-64023750D01*
G75*
G02*
X61578750Y-63780000I243750J0D01*
G01*
X62141250Y-63780000D01*
G75*
G02*
X62385000Y-64023750I0J-243750D01*
G01*
X62385000Y-64511250D01*
G75*
G02*
X62141250Y-64755000I-243750J0D01*
G01*
G37*
%TD*%
%TO.C,R11*%
G36*
G01*
X74418750Y-59320000D02*
X74981250Y-59320000D01*
G75*
G02*
X75225000Y-59563750I0J-243750D01*
G01*
X75225000Y-60051250D01*
G75*
G02*
X74981250Y-60295000I-243750J0D01*
G01*
X74418750Y-60295000D01*
G75*
G02*
X74175000Y-60051250I0J243750D01*
G01*
X74175000Y-59563750D01*
G75*
G02*
X74418750Y-59320000I243750J0D01*
G01*
G37*
G36*
G01*
X74418750Y-57745000D02*
X74981250Y-57745000D01*
G75*
G02*
X75225000Y-57988750I0J-243750D01*
G01*
X75225000Y-58476250D01*
G75*
G02*
X74981250Y-58720000I-243750J0D01*
G01*
X74418750Y-58720000D01*
G75*
G02*
X74175000Y-58476250I0J243750D01*
G01*
X74175000Y-57988750D01*
G75*
G02*
X74418750Y-57745000I243750J0D01*
G01*
G37*
%TD*%
%TO.C,R10*%
G36*
G01*
X72590000Y-57711250D02*
X72590000Y-57148750D01*
G75*
G02*
X72833750Y-56905000I243750J0D01*
G01*
X73321250Y-56905000D01*
G75*
G02*
X73565000Y-57148750I0J-243750D01*
G01*
X73565000Y-57711250D01*
G75*
G02*
X73321250Y-57955000I-243750J0D01*
G01*
X72833750Y-57955000D01*
G75*
G02*
X72590000Y-57711250I0J243750D01*
G01*
G37*
G36*
G01*
X71015000Y-57711250D02*
X71015000Y-57148750D01*
G75*
G02*
X71258750Y-56905000I243750J0D01*
G01*
X71746250Y-56905000D01*
G75*
G02*
X71990000Y-57148750I0J-243750D01*
G01*
X71990000Y-57711250D01*
G75*
G02*
X71746250Y-57955000I-243750J0D01*
G01*
X71258750Y-57955000D01*
G75*
G02*
X71015000Y-57711250I0J243750D01*
G01*
G37*
%TD*%
%TO.C,R9*%
G36*
G01*
X60328750Y-69405000D02*
X61291250Y-69405000D01*
G75*
G02*
X61560000Y-69673750I0J-268750D01*
G01*
X61560000Y-70211250D01*
G75*
G02*
X61291250Y-70480000I-268750J0D01*
G01*
X60328750Y-70480000D01*
G75*
G02*
X60060000Y-70211250I0J268750D01*
G01*
X60060000Y-69673750D01*
G75*
G02*
X60328750Y-69405000I268750J0D01*
G01*
G37*
G36*
G01*
X60328750Y-71280000D02*
X61291250Y-71280000D01*
G75*
G02*
X61560000Y-71548750I0J-268750D01*
G01*
X61560000Y-72086250D01*
G75*
G02*
X61291250Y-72355000I-268750J0D01*
G01*
X60328750Y-72355000D01*
G75*
G02*
X60060000Y-72086250I0J268750D01*
G01*
X60060000Y-71548750D01*
G75*
G02*
X60328750Y-71280000I268750J0D01*
G01*
G37*
%TD*%
%TO.C,R8*%
G36*
G01*
X60328750Y-65945000D02*
X61291250Y-65945000D01*
G75*
G02*
X61560000Y-66213750I0J-268750D01*
G01*
X61560000Y-66751250D01*
G75*
G02*
X61291250Y-67020000I-268750J0D01*
G01*
X60328750Y-67020000D01*
G75*
G02*
X60060000Y-66751250I0J268750D01*
G01*
X60060000Y-66213750D01*
G75*
G02*
X60328750Y-65945000I268750J0D01*
G01*
G37*
G36*
G01*
X60328750Y-67820000D02*
X61291250Y-67820000D01*
G75*
G02*
X61560000Y-68088750I0J-268750D01*
G01*
X61560000Y-68626250D01*
G75*
G02*
X61291250Y-68895000I-268750J0D01*
G01*
X60328750Y-68895000D01*
G75*
G02*
X60060000Y-68626250I0J268750D01*
G01*
X60060000Y-68088750D01*
G75*
G02*
X60328750Y-67820000I268750J0D01*
G01*
G37*
%TD*%
%TO.C,R7*%
G36*
G01*
X73790000Y-76738750D02*
X73790000Y-77301250D01*
G75*
G02*
X73546250Y-77545000I-243750J0D01*
G01*
X73058750Y-77545000D01*
G75*
G02*
X72815000Y-77301250I0J243750D01*
G01*
X72815000Y-76738750D01*
G75*
G02*
X73058750Y-76495000I243750J0D01*
G01*
X73546250Y-76495000D01*
G75*
G02*
X73790000Y-76738750I0J-243750D01*
G01*
G37*
G36*
G01*
X75365000Y-76738750D02*
X75365000Y-77301250D01*
G75*
G02*
X75121250Y-77545000I-243750J0D01*
G01*
X74633750Y-77545000D01*
G75*
G02*
X74390000Y-77301250I0J243750D01*
G01*
X74390000Y-76738750D01*
G75*
G02*
X74633750Y-76495000I243750J0D01*
G01*
X75121250Y-76495000D01*
G75*
G02*
X75365000Y-76738750I0J-243750D01*
G01*
G37*
%TD*%
%TO.C,R6*%
G36*
G01*
X71281250Y-70500000D02*
X70718750Y-70500000D01*
G75*
G02*
X70475000Y-70256250I0J243750D01*
G01*
X70475000Y-69768750D01*
G75*
G02*
X70718750Y-69525000I243750J0D01*
G01*
X71281250Y-69525000D01*
G75*
G02*
X71525000Y-69768750I0J-243750D01*
G01*
X71525000Y-70256250D01*
G75*
G02*
X71281250Y-70500000I-243750J0D01*
G01*
G37*
G36*
G01*
X71281250Y-72075000D02*
X70718750Y-72075000D01*
G75*
G02*
X70475000Y-71831250I0J243750D01*
G01*
X70475000Y-71343750D01*
G75*
G02*
X70718750Y-71100000I243750J0D01*
G01*
X71281250Y-71100000D01*
G75*
G02*
X71525000Y-71343750I0J-243750D01*
G01*
X71525000Y-71831250D01*
G75*
G02*
X71281250Y-72075000I-243750J0D01*
G01*
G37*
%TD*%
%TO.C,R5*%
G36*
G01*
X70760000Y-76738750D02*
X70760000Y-77301250D01*
G75*
G02*
X70516250Y-77545000I-243750J0D01*
G01*
X70028750Y-77545000D01*
G75*
G02*
X69785000Y-77301250I0J243750D01*
G01*
X69785000Y-76738750D01*
G75*
G02*
X70028750Y-76495000I243750J0D01*
G01*
X70516250Y-76495000D01*
G75*
G02*
X70760000Y-76738750I0J-243750D01*
G01*
G37*
G36*
G01*
X72335000Y-76738750D02*
X72335000Y-77301250D01*
G75*
G02*
X72091250Y-77545000I-243750J0D01*
G01*
X71603750Y-77545000D01*
G75*
G02*
X71360000Y-77301250I0J243750D01*
G01*
X71360000Y-76738750D01*
G75*
G02*
X71603750Y-76495000I243750J0D01*
G01*
X72091250Y-76495000D01*
G75*
G02*
X72335000Y-76738750I0J-243750D01*
G01*
G37*
%TD*%
%TO.C,R4*%
G36*
G01*
X53948750Y-64170000D02*
X54511250Y-64170000D01*
G75*
G02*
X54755000Y-64413750I0J-243750D01*
G01*
X54755000Y-64901250D01*
G75*
G02*
X54511250Y-65145000I-243750J0D01*
G01*
X53948750Y-65145000D01*
G75*
G02*
X53705000Y-64901250I0J243750D01*
G01*
X53705000Y-64413750D01*
G75*
G02*
X53948750Y-64170000I243750J0D01*
G01*
G37*
G36*
G01*
X53948750Y-62595000D02*
X54511250Y-62595000D01*
G75*
G02*
X54755000Y-62838750I0J-243750D01*
G01*
X54755000Y-63326250D01*
G75*
G02*
X54511250Y-63570000I-243750J0D01*
G01*
X53948750Y-63570000D01*
G75*
G02*
X53705000Y-63326250I0J243750D01*
G01*
X53705000Y-62838750D01*
G75*
G02*
X53948750Y-62595000I243750J0D01*
G01*
G37*
%TD*%
%TO.C,R3*%
G36*
G01*
X50698750Y-67960000D02*
X51261250Y-67960000D01*
G75*
G02*
X51505000Y-68203750I0J-243750D01*
G01*
X51505000Y-68691250D01*
G75*
G02*
X51261250Y-68935000I-243750J0D01*
G01*
X50698750Y-68935000D01*
G75*
G02*
X50455000Y-68691250I0J243750D01*
G01*
X50455000Y-68203750D01*
G75*
G02*
X50698750Y-67960000I243750J0D01*
G01*
G37*
G36*
G01*
X50698750Y-66385000D02*
X51261250Y-66385000D01*
G75*
G02*
X51505000Y-66628750I0J-243750D01*
G01*
X51505000Y-67116250D01*
G75*
G02*
X51261250Y-67360000I-243750J0D01*
G01*
X50698750Y-67360000D01*
G75*
G02*
X50455000Y-67116250I0J243750D01*
G01*
X50455000Y-66628750D01*
G75*
G02*
X50698750Y-66385000I243750J0D01*
G01*
G37*
%TD*%
%TO.C,R2*%
G36*
G01*
X59858750Y-76800000D02*
X60421250Y-76800000D01*
G75*
G02*
X60665000Y-77043750I0J-243750D01*
G01*
X60665000Y-77531250D01*
G75*
G02*
X60421250Y-77775000I-243750J0D01*
G01*
X59858750Y-77775000D01*
G75*
G02*
X59615000Y-77531250I0J243750D01*
G01*
X59615000Y-77043750D01*
G75*
G02*
X59858750Y-76800000I243750J0D01*
G01*
G37*
G36*
G01*
X59858750Y-75225000D02*
X60421250Y-75225000D01*
G75*
G02*
X60665000Y-75468750I0J-243750D01*
G01*
X60665000Y-75956250D01*
G75*
G02*
X60421250Y-76200000I-243750J0D01*
G01*
X59858750Y-76200000D01*
G75*
G02*
X59615000Y-75956250I0J243750D01*
G01*
X59615000Y-75468750D01*
G75*
G02*
X59858750Y-75225000I243750J0D01*
G01*
G37*
%TD*%
%TO.C,R1*%
G36*
G01*
X53080000Y-61298750D02*
X53080000Y-61861250D01*
G75*
G02*
X52836250Y-62105000I-243750J0D01*
G01*
X52348750Y-62105000D01*
G75*
G02*
X52105000Y-61861250I0J243750D01*
G01*
X52105000Y-61298750D01*
G75*
G02*
X52348750Y-61055000I243750J0D01*
G01*
X52836250Y-61055000D01*
G75*
G02*
X53080000Y-61298750I0J-243750D01*
G01*
G37*
G36*
G01*
X54655000Y-61298750D02*
X54655000Y-61861250D01*
G75*
G02*
X54411250Y-62105000I-243750J0D01*
G01*
X53923750Y-62105000D01*
G75*
G02*
X53680000Y-61861250I0J243750D01*
G01*
X53680000Y-61298750D01*
G75*
G02*
X53923750Y-61055000I243750J0D01*
G01*
X54411250Y-61055000D01*
G75*
G02*
X54655000Y-61298750I0J-243750D01*
G01*
G37*
%TD*%
%TO.C,Q3*%
X76370000Y-58070000D03*
X76370000Y-59020000D03*
X76370000Y-57120000D03*
X78570000Y-57120000D03*
X78570000Y-58070000D03*
X78570000Y-59020000D03*
%TD*%
D15*
%TO.C,Q1*%
X56640000Y-76340000D03*
X58640000Y-75390000D03*
X58640000Y-77290000D03*
%TD*%
%TO.C,L3*%
G36*
G01*
X62670000Y-57962500D02*
X62670000Y-58357500D01*
G75*
G02*
X62497500Y-58530000I-172500J0D01*
G01*
X62152500Y-58530000D01*
G75*
G02*
X61980000Y-58357500I0J172500D01*
G01*
X61980000Y-57962500D01*
G75*
G02*
X62152500Y-57790000I172500J0D01*
G01*
X62497500Y-57790000D01*
G75*
G02*
X62670000Y-57962500I0J-172500D01*
G01*
G37*
G36*
G01*
X63640000Y-57962500D02*
X63640000Y-58357500D01*
G75*
G02*
X63467500Y-58530000I-172500J0D01*
G01*
X63122500Y-58530000D01*
G75*
G02*
X62950000Y-58357500I0J172500D01*
G01*
X62950000Y-57962500D01*
G75*
G02*
X63122500Y-57790000I172500J0D01*
G01*
X63467500Y-57790000D01*
G75*
G02*
X63640000Y-57962500I0J-172500D01*
G01*
G37*
%TD*%
%TO.C,L2*%
G36*
G01*
X65517500Y-58560000D02*
X65122500Y-58560000D01*
G75*
G02*
X64950000Y-58387500I0J172500D01*
G01*
X64950000Y-58042500D01*
G75*
G02*
X65122500Y-57870000I172500J0D01*
G01*
X65517500Y-57870000D01*
G75*
G02*
X65690000Y-58042500I0J-172500D01*
G01*
X65690000Y-58387500D01*
G75*
G02*
X65517500Y-58560000I-172500J0D01*
G01*
G37*
G36*
G01*
X65517500Y-59530000D02*
X65122500Y-59530000D01*
G75*
G02*
X64950000Y-59357500I0J172500D01*
G01*
X64950000Y-59012500D01*
G75*
G02*
X65122500Y-58840000I172500J0D01*
G01*
X65517500Y-58840000D01*
G75*
G02*
X65690000Y-59012500I0J-172500D01*
G01*
X65690000Y-59357500D01*
G75*
G02*
X65517500Y-59530000I-172500J0D01*
G01*
G37*
%TD*%
%TO.C,L1*%
G36*
G01*
X67930000Y-60357500D02*
X67930000Y-59962500D01*
G75*
G02*
X68102500Y-59790000I172500J0D01*
G01*
X68447500Y-59790000D01*
G75*
G02*
X68620000Y-59962500I0J-172500D01*
G01*
X68620000Y-60357500D01*
G75*
G02*
X68447500Y-60530000I-172500J0D01*
G01*
X68102500Y-60530000D01*
G75*
G02*
X67930000Y-60357500I0J172500D01*
G01*
G37*
G36*
G01*
X66960000Y-60357500D02*
X66960000Y-59962500D01*
G75*
G02*
X67132500Y-59790000I172500J0D01*
G01*
X67477500Y-59790000D01*
G75*
G02*
X67650000Y-59962500I0J-172500D01*
G01*
X67650000Y-60357500D01*
G75*
G02*
X67477500Y-60530000I-172500J0D01*
G01*
X67132500Y-60530000D01*
G75*
G02*
X66960000Y-60357500I0J172500D01*
G01*
G37*
%TD*%
D16*
%TO.C,D3*%
X67280000Y-76270000D03*
X63980000Y-76270000D03*
%TD*%
%TO.C,D2*%
G36*
G01*
X65438750Y-70210000D02*
X66001250Y-70210000D01*
G75*
G02*
X66245000Y-70453750I0J-243750D01*
G01*
X66245000Y-70941250D01*
G75*
G02*
X66001250Y-71185000I-243750J0D01*
G01*
X65438750Y-71185000D01*
G75*
G02*
X65195000Y-70941250I0J243750D01*
G01*
X65195000Y-70453750D01*
G75*
G02*
X65438750Y-70210000I243750J0D01*
G01*
G37*
G36*
G01*
X65438750Y-68635000D02*
X66001250Y-68635000D01*
G75*
G02*
X66245000Y-68878750I0J-243750D01*
G01*
X66245000Y-69366250D01*
G75*
G02*
X66001250Y-69610000I-243750J0D01*
G01*
X65438750Y-69610000D01*
G75*
G02*
X65195000Y-69366250I0J243750D01*
G01*
X65195000Y-68878750D01*
G75*
G02*
X65438750Y-68635000I243750J0D01*
G01*
G37*
%TD*%
D17*
%TO.C,D1*%
X57150000Y-60050000D03*
X57150000Y-56750000D03*
%TD*%
%TO.C,C25*%
G36*
G01*
X65280000Y-78018750D02*
X65280000Y-78581250D01*
G75*
G02*
X65036250Y-78825000I-243750J0D01*
G01*
X64548750Y-78825000D01*
G75*
G02*
X64305000Y-78581250I0J243750D01*
G01*
X64305000Y-78018750D01*
G75*
G02*
X64548750Y-77775000I243750J0D01*
G01*
X65036250Y-77775000D01*
G75*
G02*
X65280000Y-78018750I0J-243750D01*
G01*
G37*
G36*
G01*
X66855000Y-78018750D02*
X66855000Y-78581250D01*
G75*
G02*
X66611250Y-78825000I-243750J0D01*
G01*
X66123750Y-78825000D01*
G75*
G02*
X65880000Y-78581250I0J243750D01*
G01*
X65880000Y-78018750D01*
G75*
G02*
X66123750Y-77775000I243750J0D01*
G01*
X66611250Y-77775000D01*
G75*
G02*
X66855000Y-78018750I0J-243750D01*
G01*
G37*
%TD*%
%TO.C,C24*%
G36*
G01*
X80481250Y-61767500D02*
X79918750Y-61767500D01*
G75*
G02*
X79675000Y-61523750I0J243750D01*
G01*
X79675000Y-61036250D01*
G75*
G02*
X79918750Y-60792500I243750J0D01*
G01*
X80481250Y-60792500D01*
G75*
G02*
X80725000Y-61036250I0J-243750D01*
G01*
X80725000Y-61523750D01*
G75*
G02*
X80481250Y-61767500I-243750J0D01*
G01*
G37*
G36*
G01*
X80481250Y-63342500D02*
X79918750Y-63342500D01*
G75*
G02*
X79675000Y-63098750I0J243750D01*
G01*
X79675000Y-62611250D01*
G75*
G02*
X79918750Y-62367500I243750J0D01*
G01*
X80481250Y-62367500D01*
G75*
G02*
X80725000Y-62611250I0J-243750D01*
G01*
X80725000Y-63098750D01*
G75*
G02*
X80481250Y-63342500I-243750J0D01*
G01*
G37*
%TD*%
%TO.C,C23*%
G36*
G01*
X61477500Y-58510000D02*
X61082500Y-58510000D01*
G75*
G02*
X60910000Y-58337500I0J172500D01*
G01*
X60910000Y-57992500D01*
G75*
G02*
X61082500Y-57820000I172500J0D01*
G01*
X61477500Y-57820000D01*
G75*
G02*
X61650000Y-57992500I0J-172500D01*
G01*
X61650000Y-58337500D01*
G75*
G02*
X61477500Y-58510000I-172500J0D01*
G01*
G37*
G36*
G01*
X61477500Y-59480000D02*
X61082500Y-59480000D01*
G75*
G02*
X60910000Y-59307500I0J172500D01*
G01*
X60910000Y-58962500D01*
G75*
G02*
X61082500Y-58790000I172500J0D01*
G01*
X61477500Y-58790000D01*
G75*
G02*
X61650000Y-58962500I0J-172500D01*
G01*
X61650000Y-59307500D01*
G75*
G02*
X61477500Y-59480000I-172500J0D01*
G01*
G37*
%TD*%
%TO.C,C22*%
G36*
G01*
X64092500Y-57810000D02*
X64487500Y-57810000D01*
G75*
G02*
X64660000Y-57982500I0J-172500D01*
G01*
X64660000Y-58327500D01*
G75*
G02*
X64487500Y-58500000I-172500J0D01*
G01*
X64092500Y-58500000D01*
G75*
G02*
X63920000Y-58327500I0J172500D01*
G01*
X63920000Y-57982500D01*
G75*
G02*
X64092500Y-57810000I172500J0D01*
G01*
G37*
G36*
G01*
X64092500Y-56840000D02*
X64487500Y-56840000D01*
G75*
G02*
X64660000Y-57012500I0J-172500D01*
G01*
X64660000Y-57357500D01*
G75*
G02*
X64487500Y-57530000I-172500J0D01*
G01*
X64092500Y-57530000D01*
G75*
G02*
X63920000Y-57357500I0J172500D01*
G01*
X63920000Y-57012500D01*
G75*
G02*
X64092500Y-56840000I172500J0D01*
G01*
G37*
%TD*%
%TO.C,C21*%
G36*
G01*
X78240000Y-66411250D02*
X78240000Y-65848750D01*
G75*
G02*
X78483750Y-65605000I243750J0D01*
G01*
X78971250Y-65605000D01*
G75*
G02*
X79215000Y-65848750I0J-243750D01*
G01*
X79215000Y-66411250D01*
G75*
G02*
X78971250Y-66655000I-243750J0D01*
G01*
X78483750Y-66655000D01*
G75*
G02*
X78240000Y-66411250I0J243750D01*
G01*
G37*
G36*
G01*
X76665000Y-66411250D02*
X76665000Y-65848750D01*
G75*
G02*
X76908750Y-65605000I243750J0D01*
G01*
X77396250Y-65605000D01*
G75*
G02*
X77640000Y-65848750I0J-243750D01*
G01*
X77640000Y-66411250D01*
G75*
G02*
X77396250Y-66655000I-243750J0D01*
G01*
X76908750Y-66655000D01*
G75*
G02*
X76665000Y-66411250I0J243750D01*
G01*
G37*
%TD*%
%TO.C,C20*%
G36*
G01*
X64102500Y-59800000D02*
X64497500Y-59800000D01*
G75*
G02*
X64670000Y-59972500I0J-172500D01*
G01*
X64670000Y-60317500D01*
G75*
G02*
X64497500Y-60490000I-172500J0D01*
G01*
X64102500Y-60490000D01*
G75*
G02*
X63930000Y-60317500I0J172500D01*
G01*
X63930000Y-59972500D01*
G75*
G02*
X64102500Y-59800000I172500J0D01*
G01*
G37*
G36*
G01*
X64102500Y-58830000D02*
X64497500Y-58830000D01*
G75*
G02*
X64670000Y-59002500I0J-172500D01*
G01*
X64670000Y-59347500D01*
G75*
G02*
X64497500Y-59520000I-172500J0D01*
G01*
X64102500Y-59520000D01*
G75*
G02*
X63930000Y-59347500I0J172500D01*
G01*
X63930000Y-59002500D01*
G75*
G02*
X64102500Y-58830000I172500J0D01*
G01*
G37*
%TD*%
%TO.C,C19*%
G36*
G01*
X66142500Y-58840000D02*
X66537500Y-58840000D01*
G75*
G02*
X66710000Y-59012500I0J-172500D01*
G01*
X66710000Y-59357500D01*
G75*
G02*
X66537500Y-59530000I-172500J0D01*
G01*
X66142500Y-59530000D01*
G75*
G02*
X65970000Y-59357500I0J172500D01*
G01*
X65970000Y-59012500D01*
G75*
G02*
X66142500Y-58840000I172500J0D01*
G01*
G37*
G36*
G01*
X66142500Y-57870000D02*
X66537500Y-57870000D01*
G75*
G02*
X66710000Y-58042500I0J-172500D01*
G01*
X66710000Y-58387500D01*
G75*
G02*
X66537500Y-58560000I-172500J0D01*
G01*
X66142500Y-58560000D01*
G75*
G02*
X65970000Y-58387500I0J172500D01*
G01*
X65970000Y-58042500D01*
G75*
G02*
X66142500Y-57870000I172500J0D01*
G01*
G37*
%TD*%
%TO.C,C17*%
G36*
G01*
X75398750Y-65680000D02*
X75961250Y-65680000D01*
G75*
G02*
X76205000Y-65923750I0J-243750D01*
G01*
X76205000Y-66411250D01*
G75*
G02*
X75961250Y-66655000I-243750J0D01*
G01*
X75398750Y-66655000D01*
G75*
G02*
X75155000Y-66411250I0J243750D01*
G01*
X75155000Y-65923750D01*
G75*
G02*
X75398750Y-65680000I243750J0D01*
G01*
G37*
G36*
G01*
X75398750Y-64105000D02*
X75961250Y-64105000D01*
G75*
G02*
X76205000Y-64348750I0J-243750D01*
G01*
X76205000Y-64836250D01*
G75*
G02*
X75961250Y-65080000I-243750J0D01*
G01*
X75398750Y-65080000D01*
G75*
G02*
X75155000Y-64836250I0J243750D01*
G01*
X75155000Y-64348750D01*
G75*
G02*
X75398750Y-64105000I243750J0D01*
G01*
G37*
%TD*%
%TO.C,C15*%
G36*
G01*
X68498750Y-76550000D02*
X69061250Y-76550000D01*
G75*
G02*
X69305000Y-76793750I0J-243750D01*
G01*
X69305000Y-77281250D01*
G75*
G02*
X69061250Y-77525000I-243750J0D01*
G01*
X68498750Y-77525000D01*
G75*
G02*
X68255000Y-77281250I0J243750D01*
G01*
X68255000Y-76793750D01*
G75*
G02*
X68498750Y-76550000I243750J0D01*
G01*
G37*
G36*
G01*
X68498750Y-74975000D02*
X69061250Y-74975000D01*
G75*
G02*
X69305000Y-75218750I0J-243750D01*
G01*
X69305000Y-75706250D01*
G75*
G02*
X69061250Y-75950000I-243750J0D01*
G01*
X68498750Y-75950000D01*
G75*
G02*
X68255000Y-75706250I0J243750D01*
G01*
X68255000Y-75218750D01*
G75*
G02*
X68498750Y-74975000I243750J0D01*
G01*
G37*
%TD*%
%TO.C,C14*%
G36*
G01*
X56180000Y-64497500D02*
X56180000Y-64102500D01*
G75*
G02*
X56352500Y-63930000I172500J0D01*
G01*
X56697500Y-63930000D01*
G75*
G02*
X56870000Y-64102500I0J-172500D01*
G01*
X56870000Y-64497500D01*
G75*
G02*
X56697500Y-64670000I-172500J0D01*
G01*
X56352500Y-64670000D01*
G75*
G02*
X56180000Y-64497500I0J172500D01*
G01*
G37*
G36*
G01*
X55210000Y-64497500D02*
X55210000Y-64102500D01*
G75*
G02*
X55382500Y-63930000I172500J0D01*
G01*
X55727500Y-63930000D01*
G75*
G02*
X55900000Y-64102500I0J-172500D01*
G01*
X55900000Y-64497500D01*
G75*
G02*
X55727500Y-64670000I-172500J0D01*
G01*
X55382500Y-64670000D01*
G75*
G02*
X55210000Y-64497500I0J172500D01*
G01*
G37*
%TD*%
%TO.C,C13*%
G36*
G01*
X56180000Y-61997500D02*
X56180000Y-61602500D01*
G75*
G02*
X56352500Y-61430000I172500J0D01*
G01*
X56697500Y-61430000D01*
G75*
G02*
X56870000Y-61602500I0J-172500D01*
G01*
X56870000Y-61997500D01*
G75*
G02*
X56697500Y-62170000I-172500J0D01*
G01*
X56352500Y-62170000D01*
G75*
G02*
X56180000Y-61997500I0J172500D01*
G01*
G37*
G36*
G01*
X55210000Y-61997500D02*
X55210000Y-61602500D01*
G75*
G02*
X55382500Y-61430000I172500J0D01*
G01*
X55727500Y-61430000D01*
G75*
G02*
X55900000Y-61602500I0J-172500D01*
G01*
X55900000Y-61997500D01*
G75*
G02*
X55727500Y-62170000I-172500J0D01*
G01*
X55382500Y-62170000D01*
G75*
G02*
X55210000Y-61997500I0J172500D01*
G01*
G37*
%TD*%
%TO.C,C12*%
G36*
G01*
X60038750Y-63770000D02*
X60601250Y-63770000D01*
G75*
G02*
X60845000Y-64013750I0J-243750D01*
G01*
X60845000Y-64501250D01*
G75*
G02*
X60601250Y-64745000I-243750J0D01*
G01*
X60038750Y-64745000D01*
G75*
G02*
X59795000Y-64501250I0J243750D01*
G01*
X59795000Y-64013750D01*
G75*
G02*
X60038750Y-63770000I243750J0D01*
G01*
G37*
G36*
G01*
X60038750Y-62195000D02*
X60601250Y-62195000D01*
G75*
G02*
X60845000Y-62438750I0J-243750D01*
G01*
X60845000Y-62926250D01*
G75*
G02*
X60601250Y-63170000I-243750J0D01*
G01*
X60038750Y-63170000D01*
G75*
G02*
X59795000Y-62926250I0J243750D01*
G01*
X59795000Y-62438750D01*
G75*
G02*
X60038750Y-62195000I243750J0D01*
G01*
G37*
%TD*%
%TO.C,C11*%
G36*
G01*
X71560000Y-58602500D02*
X71560000Y-58997500D01*
G75*
G02*
X71387500Y-59170000I-172500J0D01*
G01*
X71042500Y-59170000D01*
G75*
G02*
X70870000Y-58997500I0J172500D01*
G01*
X70870000Y-58602500D01*
G75*
G02*
X71042500Y-58430000I172500J0D01*
G01*
X71387500Y-58430000D01*
G75*
G02*
X71560000Y-58602500I0J-172500D01*
G01*
G37*
G36*
G01*
X72530000Y-58602500D02*
X72530000Y-58997500D01*
G75*
G02*
X72357500Y-59170000I-172500J0D01*
G01*
X72012500Y-59170000D01*
G75*
G02*
X71840000Y-58997500I0J172500D01*
G01*
X71840000Y-58602500D01*
G75*
G02*
X72012500Y-58430000I172500J0D01*
G01*
X72357500Y-58430000D01*
G75*
G02*
X72530000Y-58602500I0J-172500D01*
G01*
G37*
%TD*%
%TO.C,C10*%
G36*
G01*
X70181250Y-57500000D02*
X69618750Y-57500000D01*
G75*
G02*
X69375000Y-57256250I0J243750D01*
G01*
X69375000Y-56768750D01*
G75*
G02*
X69618750Y-56525000I243750J0D01*
G01*
X70181250Y-56525000D01*
G75*
G02*
X70425000Y-56768750I0J-243750D01*
G01*
X70425000Y-57256250D01*
G75*
G02*
X70181250Y-57500000I-243750J0D01*
G01*
G37*
G36*
G01*
X70181250Y-59075000D02*
X69618750Y-59075000D01*
G75*
G02*
X69375000Y-58831250I0J243750D01*
G01*
X69375000Y-58343750D01*
G75*
G02*
X69618750Y-58100000I243750J0D01*
G01*
X70181250Y-58100000D01*
G75*
G02*
X70425000Y-58343750I0J-243750D01*
G01*
X70425000Y-58831250D01*
G75*
G02*
X70181250Y-59075000I-243750J0D01*
G01*
G37*
%TD*%
%TO.C,C9*%
G36*
G01*
X57970000Y-66088750D02*
X57970000Y-66651250D01*
G75*
G02*
X57726250Y-66895000I-243750J0D01*
G01*
X57238750Y-66895000D01*
G75*
G02*
X56995000Y-66651250I0J243750D01*
G01*
X56995000Y-66088750D01*
G75*
G02*
X57238750Y-65845000I243750J0D01*
G01*
X57726250Y-65845000D01*
G75*
G02*
X57970000Y-66088750I0J-243750D01*
G01*
G37*
G36*
G01*
X59545000Y-66088750D02*
X59545000Y-66651250D01*
G75*
G02*
X59301250Y-66895000I-243750J0D01*
G01*
X58813750Y-66895000D01*
G75*
G02*
X58570000Y-66651250I0J243750D01*
G01*
X58570000Y-66088750D01*
G75*
G02*
X58813750Y-65845000I243750J0D01*
G01*
X59301250Y-65845000D01*
G75*
G02*
X59545000Y-66088750I0J-243750D01*
G01*
G37*
%TD*%
%TO.C,C8*%
G36*
G01*
X58828750Y-59560000D02*
X59391250Y-59560000D01*
G75*
G02*
X59635000Y-59803750I0J-243750D01*
G01*
X59635000Y-60291250D01*
G75*
G02*
X59391250Y-60535000I-243750J0D01*
G01*
X58828750Y-60535000D01*
G75*
G02*
X58585000Y-60291250I0J243750D01*
G01*
X58585000Y-59803750D01*
G75*
G02*
X58828750Y-59560000I243750J0D01*
G01*
G37*
G36*
G01*
X58828750Y-57985000D02*
X59391250Y-57985000D01*
G75*
G02*
X59635000Y-58228750I0J-243750D01*
G01*
X59635000Y-58716250D01*
G75*
G02*
X59391250Y-58960000I-243750J0D01*
G01*
X58828750Y-58960000D01*
G75*
G02*
X58585000Y-58716250I0J243750D01*
G01*
X58585000Y-58228750D01*
G75*
G02*
X58828750Y-57985000I243750J0D01*
G01*
G37*
%TD*%
%TO.C,C7*%
G36*
G01*
X67218750Y-69960000D02*
X67781250Y-69960000D01*
G75*
G02*
X68025000Y-70203750I0J-243750D01*
G01*
X68025000Y-70691250D01*
G75*
G02*
X67781250Y-70935000I-243750J0D01*
G01*
X67218750Y-70935000D01*
G75*
G02*
X66975000Y-70691250I0J243750D01*
G01*
X66975000Y-70203750D01*
G75*
G02*
X67218750Y-69960000I243750J0D01*
G01*
G37*
G36*
G01*
X67218750Y-68385000D02*
X67781250Y-68385000D01*
G75*
G02*
X68025000Y-68628750I0J-243750D01*
G01*
X68025000Y-69116250D01*
G75*
G02*
X67781250Y-69360000I-243750J0D01*
G01*
X67218750Y-69360000D01*
G75*
G02*
X66975000Y-69116250I0J243750D01*
G01*
X66975000Y-68628750D01*
G75*
G02*
X67218750Y-68385000I243750J0D01*
G01*
G37*
%TD*%
%TO.C,C6*%
G36*
G01*
X71855000Y-64297500D02*
X71855000Y-63902500D01*
G75*
G02*
X72027500Y-63730000I172500J0D01*
G01*
X72372500Y-63730000D01*
G75*
G02*
X72545000Y-63902500I0J-172500D01*
G01*
X72545000Y-64297500D01*
G75*
G02*
X72372500Y-64470000I-172500J0D01*
G01*
X72027500Y-64470000D01*
G75*
G02*
X71855000Y-64297500I0J172500D01*
G01*
G37*
G36*
G01*
X70885000Y-64297500D02*
X70885000Y-63902500D01*
G75*
G02*
X71057500Y-63730000I172500J0D01*
G01*
X71402500Y-63730000D01*
G75*
G02*
X71575000Y-63902500I0J-172500D01*
G01*
X71575000Y-64297500D01*
G75*
G02*
X71402500Y-64470000I-172500J0D01*
G01*
X71057500Y-64470000D01*
G75*
G02*
X70885000Y-64297500I0J172500D01*
G01*
G37*
%TD*%
%TO.C,C5*%
G36*
G01*
X51871250Y-58810000D02*
X51308750Y-58810000D01*
G75*
G02*
X51065000Y-58566250I0J243750D01*
G01*
X51065000Y-58078750D01*
G75*
G02*
X51308750Y-57835000I243750J0D01*
G01*
X51871250Y-57835000D01*
G75*
G02*
X52115000Y-58078750I0J-243750D01*
G01*
X52115000Y-58566250D01*
G75*
G02*
X51871250Y-58810000I-243750J0D01*
G01*
G37*
G36*
G01*
X51871250Y-60385000D02*
X51308750Y-60385000D01*
G75*
G02*
X51065000Y-60141250I0J243750D01*
G01*
X51065000Y-59653750D01*
G75*
G02*
X51308750Y-59410000I243750J0D01*
G01*
X51871250Y-59410000D01*
G75*
G02*
X52115000Y-59653750I0J-243750D01*
G01*
X52115000Y-60141250D01*
G75*
G02*
X51871250Y-60385000I-243750J0D01*
G01*
G37*
%TD*%
%TO.C,C3*%
G36*
G01*
X53660000Y-56158750D02*
X53660000Y-56721250D01*
G75*
G02*
X53416250Y-56965000I-243750J0D01*
G01*
X52928750Y-56965000D01*
G75*
G02*
X52685000Y-56721250I0J243750D01*
G01*
X52685000Y-56158750D01*
G75*
G02*
X52928750Y-55915000I243750J0D01*
G01*
X53416250Y-55915000D01*
G75*
G02*
X53660000Y-56158750I0J-243750D01*
G01*
G37*
G36*
G01*
X55235000Y-56158750D02*
X55235000Y-56721250D01*
G75*
G02*
X54991250Y-56965000I-243750J0D01*
G01*
X54503750Y-56965000D01*
G75*
G02*
X54260000Y-56721250I0J243750D01*
G01*
X54260000Y-56158750D01*
G75*
G02*
X54503750Y-55915000I243750J0D01*
G01*
X54991250Y-55915000D01*
G75*
G02*
X55235000Y-56158750I0J-243750D01*
G01*
G37*
%TD*%
%TO.C,C2*%
G36*
G01*
X55670000Y-73418750D02*
X55670000Y-73981250D01*
G75*
G02*
X55426250Y-74225000I-243750J0D01*
G01*
X54938750Y-74225000D01*
G75*
G02*
X54695000Y-73981250I0J243750D01*
G01*
X54695000Y-73418750D01*
G75*
G02*
X54938750Y-73175000I243750J0D01*
G01*
X55426250Y-73175000D01*
G75*
G02*
X55670000Y-73418750I0J-243750D01*
G01*
G37*
G36*
G01*
X57245000Y-73418750D02*
X57245000Y-73981250D01*
G75*
G02*
X57001250Y-74225000I-243750J0D01*
G01*
X56513750Y-74225000D01*
G75*
G02*
X56270000Y-73981250I0J243750D01*
G01*
X56270000Y-73418750D01*
G75*
G02*
X56513750Y-73175000I243750J0D01*
G01*
X57001250Y-73175000D01*
G75*
G02*
X57245000Y-73418750I0J-243750D01*
G01*
G37*
%TD*%
%TO.C,C1*%
G36*
G01*
X56245000Y-66088750D02*
X56245000Y-66651250D01*
G75*
G02*
X56001250Y-66895000I-243750J0D01*
G01*
X55513750Y-66895000D01*
G75*
G02*
X55270000Y-66651250I0J243750D01*
G01*
X55270000Y-66088750D01*
G75*
G02*
X55513750Y-65845000I243750J0D01*
G01*
X56001250Y-65845000D01*
G75*
G02*
X56245000Y-66088750I0J-243750D01*
G01*
G37*
G36*
G01*
X54670000Y-66088750D02*
X54670000Y-66651250D01*
G75*
G02*
X54426250Y-66895000I-243750J0D01*
G01*
X53938750Y-66895000D01*
G75*
G02*
X53695000Y-66651250I0J243750D01*
G01*
X53695000Y-66088750D01*
G75*
G02*
X53938750Y-65845000I243750J0D01*
G01*
X54426250Y-65845000D01*
G75*
G02*
X54670000Y-66088750I0J-243750D01*
G01*
G37*
%TD*%
M02*
