M48
; DRILL file {KiCad (5.1.6)-1} date 11/28/20 14:47:12
; FORMAT={-:-/ absolute / inch / decimal}
; #@! TF.CreationDate,2020-11-28T14:47:12+02:00
; #@! TF.GenerationSoftware,Kicad,Pcbnew,(5.1.6)-1
; #@! TF.FileFunction,Plated,1,4,PTH
FMAT,2
INCH
T1C0.0079
T2C0.0118
T3C0.0197
%
G90
G05
T1
X2.5506Y-2.5026
X2.5506Y-2.5419
X2.5506Y-2.5813
X2.59Y-2.5026
X2.59Y-2.5419
X2.59Y-2.5813
X2.6293Y-2.5026
X2.6293Y-2.5419
X2.6293Y-2.5813
T2
X1.9272Y-2.5366
X1.9307Y-2.4791
X1.9323Y-2.6106
X1.9462Y-2.411
X1.9505Y-2.6825
X1.9629Y-2.3447
X1.9693Y-2.7482
X1.9863Y-2.2805
X1.9948Y-2.8116
X2.0164Y-2.2192
X2.0268Y-2.872
X2.0362Y-2.7606
X2.0649Y-2.9288
X2.0669Y-2.1693
X2.0748Y-2.6394
X2.0823Y-2.1465
X2.0945Y-2.1693
X2.1079Y-2.1465
X2.1088Y-2.9812
X2.1201Y-2.1693
X2.1335Y-2.1465
X2.1457Y-2.1693
X2.1524Y-2.5696
X2.1578Y-3.0288
X2.1591Y-2.1465
X2.1689Y-2.7205
X2.1713Y-2.1693
X2.1819Y-2.4815
X2.1823Y-2.3311
X2.1846Y-2.1465
X2.1882Y-2.398
X2.1949Y-2.7839
X2.1953Y-2.6886
X2.1969Y-2.1693
X2.2016Y-2.9504
X2.2102Y-2.1465
X2.2116Y-3.0709
X2.213Y-2.8295
X2.2189Y-2.2823
X2.2224Y-2.1693
X2.2327Y-2.4811
X2.2358Y-2.1465
X2.237Y-2.7228
X2.248Y-2.1693
X2.2602Y-2.2894
X2.2614Y-2.1465
X2.2695Y-3.1072
X2.2736Y-2.1693
X2.287Y-2.1465
X2.2969Y-2.3701
X2.2992Y-2.1693
X2.3142Y-2.8988
X2.3248Y-2.1693
X2.3268Y-2.2429
X2.3309Y-3.1373
X2.3543Y-2.4713
X2.3579Y-2.501
X2.3669Y-2.9366
X2.3677Y-3.085
X2.3701Y-2.1732
X2.3701Y-2.1969
X2.3701Y-2.2283
X2.3701Y-2.2598
X2.3701Y-2.2874
X2.3701Y-2.315
X2.3701Y-2.3425
X2.3701Y-2.3701
X2.3705Y-2.1461
X2.3819Y-2.6602
X2.3951Y-3.1608
X2.3976Y-2.3701
X2.4252Y-2.3701
X2.428Y-3.0209
X2.4283Y-3.0567
X2.4284Y-2.613
X2.4409Y-2.1732
X2.4409Y-2.2008
X2.4409Y-2.2283
X2.4409Y-2.2559
X2.4421Y-2.1465
X2.4425Y-2.4657
X2.4469Y-3.0831
X2.4528Y-2.3465
X2.4528Y-2.3701
X2.4528Y-2.7701
X2.4528Y-2.9598
X2.4575Y-2.9287
X2.4627Y-2.721
X2.4646Y-2.3228
X2.4658Y-2.6441
X2.4661Y-2.1465
X2.4685Y-2.2559
X2.4783Y-2.1693
X2.485Y-3.1189
X2.4882Y-2.3228
X2.4917Y-2.6811
X2.4917Y-2.1465
X2.4961Y-2.2323
X2.4961Y-2.2559
X2.5Y-2.3465
X2.5Y-2.3701
X2.5Y-2.9016
X2.5039Y-2.1693
X2.5157Y-2.2165
X2.5173Y-2.1465
X2.5212Y-2.6807
X2.5244Y-2.7705
X2.5264Y-3.1181
X2.5295Y-2.1693
X2.5429Y-2.1465
X2.5433Y-2.2165
X2.5551Y-2.1693
X2.5669Y-2.2283
X2.5669Y-2.2559
X2.5685Y-2.1465
X2.5685Y-3.1193
X2.5807Y-2.1693
X2.5889Y-2.8295
X2.5941Y-2.1465
X2.5945Y-2.2559
X2.6031Y-2.6803
X2.6063Y-2.1693
X2.6197Y-2.1465
X2.622Y-2.2559
X2.6319Y-2.1693
X2.6453Y-2.1465
X2.6457Y-2.2756
X2.6457Y-2.3031
X2.6488Y-2.8295
X2.6492Y-2.6764
X2.6535Y-2.3268
X2.6575Y-2.1693
X2.6709Y-2.1465
X2.6811Y-2.3268
X2.6817Y-2.6743
X2.6831Y-2.1693
X2.6843Y-2.878
X2.6882Y-2.4441
X2.6882Y-2.6402
X2.6965Y-2.1465
X2.7047Y-2.3268
X2.7087Y-2.1693
X2.7122Y-2.289
X2.7205Y-2.3465
X2.7205Y-2.3701
X2.722Y-2.1465
X2.7222Y-2.6402
X2.7224Y-2.9354
X2.7294Y-2.7502
X2.7303Y-2.4488
X2.7343Y-2.1693
X2.7476Y-2.1465
X2.7567Y-2.739
X2.7598Y-2.1693
X2.7732Y-2.1465
X2.7854Y-2.1693
X2.7986Y-3.1543
X2.7988Y-2.1465
X2.8107Y-2.6391
X2.811Y-2.1693
X2.8244Y-2.1465
X2.8327Y-2.5697
X2.8366Y-2.1693
X2.85Y-2.1465
X2.862Y-3.1288
X2.8622Y-2.1693
X2.8685Y-2.3142
X2.8756Y-2.1465
X2.8878Y-2.1693
X2.9012Y-2.1465
X2.9079Y-2.5114
X2.9083Y-2.4335
X2.9134Y-2.1693
X2.9224Y-3.0969
X2.9248Y-2.5362
X2.9268Y-2.1465
X2.939Y-2.1693
X2.939Y-2.2728
X2.9445Y-2.4362
X2.9465Y-2.4803
X2.9524Y-2.1465
X2.9539Y-3.0736
X2.9646Y-2.1693
X2.9693Y-2.3492
X2.978Y-2.1465
X2.9902Y-2.1693
X2.9929Y-2.852
X3.0004Y-2.3807
X3.0035Y-2.1465
X3.0118Y-2.2736
X3.0157Y-2.1693
X3.0291Y-2.1465
X3.0331Y-3.0177
X3.0413Y-2.1693
X3.0547Y-2.1465
X3.0669Y-2.1693
X3.0728Y-2.9831
X3.0803Y-2.1465
X3.0925Y-2.1693
X3.1059Y-2.1465
X3.1181Y-2.1693
X3.1201Y-2.7961
X3.128Y-2.9051
X3.1472Y-2.2012
X3.1571Y-2.5343
X3.1576Y-2.8541
X3.1792Y-2.2616
X3.1877Y-2.7927
X3.2047Y-2.325
X3.2112Y-2.7285
X3.2235Y-2.3907
X3.2278Y-2.6622
X3.2382Y-2.4579
X3.2386Y-2.5945
X3.2399Y-2.5262
X2.3256Y-2.1417
T3
X2.43Y-3.2035
X2.745Y-3.2035
T0
M30
