M48
; DRILL file {KiCad (5.1.6)-1} date 10/15/20 17:09:32
; FORMAT={-:-/ absolute / inch / decimal}
; #@! TF.CreationDate,2020-10-15T17:09:32+03:00
; #@! TF.GenerationSoftware,Kicad,Pcbnew,(5.1.6)-1
; #@! TF.FileFunction,Plated,1,4,PTH
FMAT,2
INCH
T1C0.0079
T2C0.0118
T3C0.0197
%
G90
G05
T1
X2.5506Y-2.5026
X2.5506Y-2.5419
X2.5506Y-2.5813
X2.59Y-2.5026
X2.59Y-2.5419
X2.59Y-2.5813
X2.6293Y-2.5026
X2.6293Y-2.5419
X2.6293Y-2.5813
T2
X1.9341Y-2.547
X1.9366Y-2.4787
X1.9388Y-2.6152
X1.9462Y-2.411
X1.9505Y-2.6825
X1.9629Y-2.3447
X1.9693Y-2.7482
X1.9863Y-2.2805
X1.9948Y-2.8116
X2.0111Y-2.5341
X2.0164Y-2.2192
X2.0268Y-2.872
X2.0362Y-2.7606
X2.0649Y-2.9288
X2.0657Y-2.3232
X2.0669Y-2.1693
X2.0823Y-2.1465
X2.0878Y-2.6122
X2.0945Y-2.1693
X2.1079Y-2.1465
X2.1088Y-2.9812
X2.1201Y-2.1693
X2.1283Y-2.3224
X2.1335Y-2.1465
X2.1457Y-2.1693
X2.1578Y-3.0288
X2.1591Y-2.1465
X2.1618Y-2.6488
X2.1689Y-2.7205
X2.1713Y-2.1693
X2.1819Y-2.4815
X2.1846Y-2.1465
X2.1846Y-2.3969
X2.187Y-2.5677
X2.1949Y-2.7839
X2.1953Y-2.6886
X2.1969Y-2.1693
X2.2016Y-2.9504
X2.2102Y-2.1465
X2.2116Y-3.0709
X2.213Y-2.8295
X2.2189Y-2.2823
X2.2224Y-2.1693
X2.2276Y-2.572
X2.2327Y-2.4811
X2.2358Y-2.1465
X2.237Y-2.7228
X2.248Y-2.1693
X2.2512Y-2.315
X2.2614Y-2.1465
X2.2695Y-3.1072
X2.2736Y-2.1693
X2.2865Y-2.3162
X2.287Y-2.1465
X2.2992Y-2.1693
X2.3142Y-2.8988
X2.3248Y-2.1693
X2.3268Y-2.2429
X2.3309Y-3.1373
X2.3417Y-2.4874
X2.3492Y-2.5571
X2.3669Y-2.9366
X2.3677Y-3.085
X2.3701Y-2.1732
X2.3701Y-2.1969
X2.3701Y-2.2283
X2.3701Y-2.2598
X2.3701Y-2.2874
X2.3701Y-2.315
X2.3701Y-2.3425
X2.3701Y-2.3701
X2.3705Y-2.1461
X2.3951Y-3.1608
X2.3976Y-2.3701
X2.4249Y-2.9071
X2.4252Y-2.3701
X2.4256Y-2.5642
X2.428Y-3.0209
X2.4283Y-3.0567
X2.4409Y-2.1732
X2.4409Y-2.2008
X2.4409Y-2.2283
X2.4409Y-2.2559
X2.4421Y-2.1465
X2.4469Y-3.0831
X2.4528Y-2.3465
X2.4528Y-2.3701
X2.4528Y-2.9598
X2.4646Y-2.3228
X2.4661Y-2.1465
X2.4681Y-2.6126
X2.4685Y-2.2559
X2.4709Y-2.6969
X2.4783Y-2.1693
X2.4831Y-2.7728
X2.485Y-3.1189
X2.487Y-3.0874
X2.4882Y-2.3228
X2.4917Y-2.1465
X2.4948Y-2.6696
X2.4961Y-2.2323
X2.4961Y-2.2559
X2.5Y-2.3465
X2.5Y-2.3701
X2.502Y-2.8811
X2.5039Y-2.1693
X2.5157Y-2.2165
X2.5173Y-2.1465
X2.5264Y-3.1181
X2.5295Y-2.1693
X2.5376Y-2.6859
X2.5429Y-2.1465
X2.5433Y-2.2165
X2.5551Y-2.1693
X2.5669Y-2.2283
X2.5669Y-2.2559
X2.5685Y-2.1465
X2.5807Y-2.1693
X2.583Y-3.0075
X2.5941Y-2.1465
X2.5945Y-2.2559
X2.6017Y-2.6762
X2.6063Y-2.1693
X2.6197Y-2.1465
X2.622Y-2.2559
X2.6319Y-2.1693
X2.6441Y-3.1183
X2.6451Y-2.6736
X2.6453Y-2.1465
X2.6457Y-2.2756
X2.6457Y-2.3031
X2.6535Y-2.3268
X2.657Y-2.7494
X2.6575Y-2.1693
X2.6709Y-2.1465
X2.6811Y-2.3268
X2.6831Y-2.1693
X2.6882Y-2.4441
X2.6882Y-2.6402
X2.6906Y-2.7417
X2.6965Y-2.1465
X2.7047Y-2.3268
X2.7087Y-2.1693
X2.7122Y-2.289
X2.7197Y-2.8106
X2.7205Y-2.3465
X2.7205Y-2.3701
X2.722Y-2.1465
X2.7252Y-2.5634
X2.7303Y-2.4488
X2.7343Y-2.1693
X2.7411Y-2.8831
X2.7476Y-2.1465
X2.7504Y-2.6594
X2.752Y-2.8295
X2.7598Y-2.1693
X2.7666Y-3.0718
X2.7732Y-2.1465
X2.7854Y-2.1693
X2.798Y-2.7122
X2.7986Y-3.1543
X2.7988Y-2.1465
X2.8098Y-2.5764
X2.811Y-2.1693
X2.8118Y-2.6547
X2.8181Y-2.2177
X2.8244Y-2.1465
X2.8256Y-2.6941
X2.8311Y-2.9091
X2.8366Y-2.1693
X2.85Y-2.1465
X2.862Y-3.1288
X2.8622Y-2.1693
X2.8685Y-2.3142
X2.8756Y-2.1465
X2.879Y-2.6391
X2.8795Y-2.5602
X2.8878Y-2.1693
X2.8985Y-2.8987
X2.9012Y-2.1465
X2.9134Y-2.1693
X2.9142Y-2.9972
X2.9189Y-2.8539
X2.9224Y-3.0969
X2.9256Y-2.4122
X2.9268Y-2.1465
X2.928Y-2.7748
X2.9283Y-2.5535
X2.9295Y-2.5268
X2.939Y-2.1693
X2.9524Y-2.1465
X2.9579Y-2.8193
X2.9646Y-2.1693
X2.978Y-2.1465
X2.978Y-2.7484
X2.9787Y-2.7854
X2.9792Y-3.0587
X2.9902Y-2.1693
X3.002Y-2.8193
X3.0028Y-2.864
X3.0035Y-2.1465
X3.0134Y-2.648
X3.0157Y-2.1693
X3.0291Y-2.1465
X3.0295Y-2.7705
X3.0316Y-3.0149
X3.0327Y-2.7197
X3.0413Y-2.1693
X3.0547Y-2.1465
X3.0669Y-2.1693
X3.0791Y-2.9658
X3.0803Y-2.1465
X3.0925Y-2.1693
X3.1059Y-2.1465
X3.1181Y-2.1693
X3.1213Y-2.912
X3.1472Y-2.2012
X3.1576Y-2.8541
X3.1638Y-2.5362
X3.1792Y-2.2616
X3.1877Y-2.7927
X3.2047Y-2.325
X3.2112Y-2.7285
X3.2235Y-2.3907
X3.2278Y-2.6622
X3.2352Y-2.458
X3.2374Y-2.5945
X3.2399Y-2.5262
X2.3256Y-2.1417
T3
X2.43Y-3.2035
X2.745Y-3.2035
T0
M30
