%TF.GenerationSoftware,KiCad,Pcbnew,(5.1.6)-1*%
%TF.CreationDate,2020-10-15T17:09:17+03:00*%
%TF.ProjectId,PlantBuddy,506c616e-7442-4756-9464-792e6b696361,rev?*%
%TF.SameCoordinates,Original*%
%TF.FileFunction,Legend,Bot*%
%TF.FilePolarity,Positive*%
%FSLAX46Y46*%
G04 Gerber Fmt 4.6, Leading zero omitted, Abs format (unit mm)*
G04 Created by KiCad (PCBNEW (5.1.6)-1) date 2020-10-15 17:09:17*
%MOMM*%
%LPD*%
G01*
G04 APERTURE LIST*
%ADD10C,0.150000*%
%ADD11C,0.300000*%
%ADD12C,0.010000*%
%ADD13C,0.120000*%
G04 APERTURE END LIST*
D10*
X68883333Y-75166666D02*
X68883333Y-74733333D01*
X68616666Y-74966666D01*
X68616666Y-74866666D01*
X68583333Y-74800000D01*
X68550000Y-74766666D01*
X68483333Y-74733333D01*
X68316666Y-74733333D01*
X68250000Y-74766666D01*
X68216666Y-74800000D01*
X68183333Y-74866666D01*
X68183333Y-75066666D01*
X68216666Y-75133333D01*
X68250000Y-75166666D01*
X68883333Y-74533333D02*
X68183333Y-74300000D01*
X68883333Y-74066666D01*
X68883333Y-73900000D02*
X68883333Y-73466666D01*
X68616666Y-73700000D01*
X68616666Y-73600000D01*
X68583333Y-73533333D01*
X68550000Y-73500000D01*
X68483333Y-73466666D01*
X68316666Y-73466666D01*
X68250000Y-73500000D01*
X68216666Y-73533333D01*
X68183333Y-73600000D01*
X68183333Y-73800000D01*
X68216666Y-73866666D01*
X68250000Y-73900000D01*
X66360000Y-74696666D02*
X66326666Y-74730000D01*
X66293333Y-74830000D01*
X66293333Y-74896666D01*
X66326666Y-74996666D01*
X66393333Y-75063333D01*
X66460000Y-75096666D01*
X66593333Y-75130000D01*
X66693333Y-75130000D01*
X66826666Y-75096666D01*
X66893333Y-75063333D01*
X66960000Y-74996666D01*
X66993333Y-74896666D01*
X66993333Y-74830000D01*
X66960000Y-74730000D01*
X66926666Y-74696666D01*
X66293333Y-74063333D02*
X66293333Y-74396666D01*
X66993333Y-74396666D01*
X66293333Y-73830000D02*
X66993333Y-73830000D01*
X66293333Y-73430000D02*
X66693333Y-73730000D01*
X66993333Y-73430000D02*
X66593333Y-73830000D01*
X64353333Y-75086666D02*
X65053333Y-75086666D01*
X65053333Y-74920000D01*
X65020000Y-74820000D01*
X64953333Y-74753333D01*
X64886666Y-74720000D01*
X64753333Y-74686666D01*
X64653333Y-74686666D01*
X64520000Y-74720000D01*
X64453333Y-74753333D01*
X64386666Y-74820000D01*
X64353333Y-74920000D01*
X64353333Y-75086666D01*
X64353333Y-74386666D02*
X65053333Y-74386666D01*
X65053333Y-73920000D02*
X65053333Y-73786666D01*
X65020000Y-73720000D01*
X64953333Y-73653333D01*
X64820000Y-73620000D01*
X64586666Y-73620000D01*
X64453333Y-73653333D01*
X64386666Y-73720000D01*
X64353333Y-73786666D01*
X64353333Y-73920000D01*
X64386666Y-73986666D01*
X64453333Y-74053333D01*
X64586666Y-74086666D01*
X64820000Y-74086666D01*
X64953333Y-74053333D01*
X65020000Y-73986666D01*
X65053333Y-73920000D01*
X63210000Y-74723333D02*
X63243333Y-74790000D01*
X63243333Y-74890000D01*
X63210000Y-74990000D01*
X63143333Y-75056666D01*
X63076666Y-75090000D01*
X62943333Y-75123333D01*
X62843333Y-75123333D01*
X62710000Y-75090000D01*
X62643333Y-75056666D01*
X62576666Y-74990000D01*
X62543333Y-74890000D01*
X62543333Y-74823333D01*
X62576666Y-74723333D01*
X62610000Y-74690000D01*
X62843333Y-74690000D01*
X62843333Y-74823333D01*
X62543333Y-74390000D02*
X63243333Y-74390000D01*
X62543333Y-73990000D01*
X63243333Y-73990000D01*
X62543333Y-73656666D02*
X63243333Y-73656666D01*
X63243333Y-73490000D01*
X63210000Y-73390000D01*
X63143333Y-73323333D01*
X63076666Y-73290000D01*
X62943333Y-73256666D01*
X62843333Y-73256666D01*
X62710000Y-73290000D01*
X62643333Y-73323333D01*
X62576666Y-73390000D01*
X62543333Y-73490000D01*
X62543333Y-73656666D01*
D11*
X73730476Y-77697142D02*
X72549523Y-77697142D01*
X58710476Y-77897142D02*
X57529523Y-77897142D01*
X58120000Y-78468571D02*
X58120000Y-77325714D01*
D12*
%TO.C,G\u002A\u002A\u002A*%
G36*
X63313500Y-59045500D02*
G01*
X60202000Y-59045500D01*
X60202000Y-61712500D01*
X60646500Y-61712500D01*
X60646500Y-59490000D01*
X62869000Y-59490000D01*
X62869000Y-61712500D01*
X60646500Y-61712500D01*
X60202000Y-61712500D01*
X60202000Y-62157000D01*
X63313500Y-62157000D01*
X63313500Y-59045500D01*
G37*
X63313500Y-59045500D02*
X60202000Y-59045500D01*
X60202000Y-61712500D01*
X60646500Y-61712500D01*
X60646500Y-59490000D01*
X62869000Y-59490000D01*
X62869000Y-61712500D01*
X60646500Y-61712500D01*
X60202000Y-61712500D01*
X60202000Y-62157000D01*
X63313500Y-62157000D01*
X63313500Y-59045500D01*
G36*
X63313500Y-64824000D02*
G01*
X63313500Y-64601750D01*
X63303670Y-64452792D01*
X63248210Y-64391702D01*
X63108166Y-64379528D01*
X63091250Y-64379500D01*
X62942291Y-64369671D01*
X62881201Y-64314211D01*
X62869027Y-64174167D01*
X62869000Y-64157250D01*
X62878829Y-64008292D01*
X62934289Y-63947202D01*
X63074333Y-63935028D01*
X63091250Y-63935000D01*
X63240208Y-63925171D01*
X63301298Y-63869711D01*
X63313472Y-63729667D01*
X63313500Y-63712750D01*
X63313500Y-63490500D01*
X62424500Y-63490500D01*
X62424500Y-63046000D01*
X63313500Y-63046000D01*
X63313500Y-62601500D01*
X61091000Y-62601500D01*
X61091000Y-63712750D01*
X61535500Y-63712750D01*
X61545329Y-63563792D01*
X61600789Y-63502702D01*
X61740833Y-63490528D01*
X61757750Y-63490500D01*
X61906708Y-63500330D01*
X61967798Y-63555790D01*
X61979972Y-63695834D01*
X61980000Y-63712750D01*
X61970170Y-63861709D01*
X61914710Y-63922799D01*
X61774666Y-63934973D01*
X61757750Y-63935000D01*
X61608791Y-63925171D01*
X61547701Y-63869711D01*
X61535527Y-63729667D01*
X61535500Y-63712750D01*
X61091000Y-63712750D01*
X61091000Y-63935000D01*
X61313250Y-63935000D01*
X61462208Y-63944830D01*
X61523298Y-64000290D01*
X61535472Y-64140334D01*
X61535500Y-64157250D01*
X61545329Y-64306209D01*
X61600789Y-64367299D01*
X61740833Y-64379473D01*
X61757750Y-64379500D01*
X61906708Y-64369671D01*
X61967798Y-64314211D01*
X61979972Y-64174167D01*
X61980000Y-64157250D01*
X61989829Y-64008292D01*
X62045289Y-63947202D01*
X62185333Y-63935028D01*
X62202250Y-63935000D01*
X62424500Y-63935000D01*
X62424500Y-64824000D01*
X63313500Y-64824000D01*
G37*
X63313500Y-64824000D02*
X63313500Y-64601750D01*
X63303670Y-64452792D01*
X63248210Y-64391702D01*
X63108166Y-64379528D01*
X63091250Y-64379500D01*
X62942291Y-64369671D01*
X62881201Y-64314211D01*
X62869027Y-64174167D01*
X62869000Y-64157250D01*
X62878829Y-64008292D01*
X62934289Y-63947202D01*
X63074333Y-63935028D01*
X63091250Y-63935000D01*
X63240208Y-63925171D01*
X63301298Y-63869711D01*
X63313472Y-63729667D01*
X63313500Y-63712750D01*
X63313500Y-63490500D01*
X62424500Y-63490500D01*
X62424500Y-63046000D01*
X63313500Y-63046000D01*
X63313500Y-62601500D01*
X61091000Y-62601500D01*
X61091000Y-63712750D01*
X61535500Y-63712750D01*
X61545329Y-63563792D01*
X61600789Y-63502702D01*
X61740833Y-63490528D01*
X61757750Y-63490500D01*
X61906708Y-63500330D01*
X61967798Y-63555790D01*
X61979972Y-63695834D01*
X61980000Y-63712750D01*
X61970170Y-63861709D01*
X61914710Y-63922799D01*
X61774666Y-63934973D01*
X61757750Y-63935000D01*
X61608791Y-63925171D01*
X61547701Y-63869711D01*
X61535527Y-63729667D01*
X61535500Y-63712750D01*
X61091000Y-63712750D01*
X61091000Y-63935000D01*
X61313250Y-63935000D01*
X61462208Y-63944830D01*
X61523298Y-64000290D01*
X61535472Y-64140334D01*
X61535500Y-64157250D01*
X61545329Y-64306209D01*
X61600789Y-64367299D01*
X61740833Y-64379473D01*
X61757750Y-64379500D01*
X61906708Y-64369671D01*
X61967798Y-64314211D01*
X61979972Y-64174167D01*
X61980000Y-64157250D01*
X61989829Y-64008292D01*
X62045289Y-63947202D01*
X62185333Y-63935028D01*
X62202250Y-63935000D01*
X62424500Y-63935000D01*
X62424500Y-64824000D01*
X63313500Y-64824000D01*
G36*
X64202500Y-59045500D02*
G01*
X63758000Y-59045500D01*
X63758000Y-59934500D01*
X64202500Y-59934500D01*
X64202500Y-59045500D01*
G37*
X64202500Y-59045500D02*
X63758000Y-59045500D01*
X63758000Y-59934500D01*
X64202500Y-59934500D01*
X64202500Y-59045500D01*
G36*
X61980000Y-64824000D02*
G01*
X61980000Y-65713000D01*
X61091000Y-65713000D01*
X61091000Y-65490750D01*
X61100829Y-65341792D01*
X61156289Y-65280702D01*
X61296333Y-65268528D01*
X61313250Y-65268500D01*
X61462208Y-65258671D01*
X61523298Y-65203211D01*
X61535472Y-65063167D01*
X61535500Y-65046250D01*
X61525670Y-64897292D01*
X61470210Y-64836202D01*
X61330166Y-64824028D01*
X61313250Y-64824000D01*
X61164291Y-64814171D01*
X61103201Y-64758711D01*
X61091027Y-64618667D01*
X61091000Y-64601750D01*
X61081170Y-64452792D01*
X61025710Y-64391702D01*
X60885666Y-64379528D01*
X60868750Y-64379500D01*
X60646500Y-64379500D01*
X60646500Y-62601500D01*
X60202000Y-62601500D01*
X60202000Y-64824000D01*
X60424250Y-64824000D01*
X60573208Y-64833830D01*
X60634298Y-64889290D01*
X60646472Y-65029334D01*
X60646500Y-65046250D01*
X60636670Y-65195209D01*
X60581210Y-65256299D01*
X60441166Y-65268473D01*
X60424250Y-65268500D01*
X60202000Y-65268500D01*
X60202000Y-66602000D01*
X61091000Y-66602000D01*
X61091000Y-66157500D01*
X61980000Y-66157500D01*
X61980000Y-65935250D01*
X61989829Y-65786292D01*
X62045289Y-65725202D01*
X62185333Y-65713028D01*
X62202250Y-65713000D01*
X62424500Y-65713000D01*
X62424500Y-64824000D01*
X61980000Y-64824000D01*
G37*
X61980000Y-64824000D02*
X61980000Y-65713000D01*
X61091000Y-65713000D01*
X61091000Y-65490750D01*
X61100829Y-65341792D01*
X61156289Y-65280702D01*
X61296333Y-65268528D01*
X61313250Y-65268500D01*
X61462208Y-65258671D01*
X61523298Y-65203211D01*
X61535472Y-65063167D01*
X61535500Y-65046250D01*
X61525670Y-64897292D01*
X61470210Y-64836202D01*
X61330166Y-64824028D01*
X61313250Y-64824000D01*
X61164291Y-64814171D01*
X61103201Y-64758711D01*
X61091027Y-64618667D01*
X61091000Y-64601750D01*
X61081170Y-64452792D01*
X61025710Y-64391702D01*
X60885666Y-64379528D01*
X60868750Y-64379500D01*
X60646500Y-64379500D01*
X60646500Y-62601500D01*
X60202000Y-62601500D01*
X60202000Y-64824000D01*
X60424250Y-64824000D01*
X60573208Y-64833830D01*
X60634298Y-64889290D01*
X60646472Y-65029334D01*
X60646500Y-65046250D01*
X60636670Y-65195209D01*
X60581210Y-65256299D01*
X60441166Y-65268473D01*
X60424250Y-65268500D01*
X60202000Y-65268500D01*
X60202000Y-66602000D01*
X61091000Y-66602000D01*
X61091000Y-66157500D01*
X61980000Y-66157500D01*
X61980000Y-65935250D01*
X61989829Y-65786292D01*
X62045289Y-65725202D01*
X62185333Y-65713028D01*
X62202250Y-65713000D01*
X62424500Y-65713000D01*
X62424500Y-64824000D01*
X61980000Y-64824000D01*
G36*
X70425500Y-64379500D02*
G01*
X70870000Y-64379500D01*
X70870000Y-65268500D01*
X70647750Y-65268500D01*
X70498791Y-65278330D01*
X70437701Y-65333790D01*
X70425527Y-65473834D01*
X70425500Y-65490750D01*
X70415670Y-65639709D01*
X70360210Y-65700799D01*
X70220166Y-65712973D01*
X70203250Y-65713000D01*
X69981000Y-65713000D01*
X69981000Y-64824000D01*
X69758750Y-64824000D01*
X69609791Y-64833830D01*
X69548701Y-64889290D01*
X69536527Y-65029334D01*
X69536500Y-65046250D01*
X69526670Y-65195209D01*
X69471210Y-65256299D01*
X69331166Y-65268473D01*
X69314250Y-65268500D01*
X69165291Y-65278330D01*
X69104201Y-65333790D01*
X69092027Y-65473834D01*
X69092000Y-65490750D01*
X69082170Y-65639709D01*
X69026710Y-65700799D01*
X68886666Y-65712973D01*
X68869750Y-65713000D01*
X68720791Y-65722830D01*
X68659701Y-65778290D01*
X68647527Y-65918334D01*
X68647500Y-65935250D01*
X68657329Y-66084209D01*
X68712789Y-66145299D01*
X68852833Y-66157473D01*
X68869750Y-66157500D01*
X69018708Y-66167330D01*
X69079798Y-66222790D01*
X69091972Y-66362834D01*
X69092000Y-66379750D01*
X69092000Y-66602000D01*
X69981000Y-66602000D01*
X69981000Y-66157500D01*
X70870000Y-66157500D01*
X70870000Y-65935250D01*
X70879829Y-65786292D01*
X70935289Y-65725202D01*
X71075333Y-65713028D01*
X71092250Y-65713000D01*
X71314500Y-65713000D01*
X71314500Y-64379500D01*
X71092250Y-64379500D01*
X70943291Y-64369671D01*
X70882201Y-64314211D01*
X70870027Y-64174167D01*
X70870000Y-64157250D01*
X70879829Y-64008292D01*
X70935289Y-63947202D01*
X71075333Y-63935028D01*
X71092250Y-63935000D01*
X71314500Y-63935000D01*
X71314500Y-63046000D01*
X71092250Y-63046000D01*
X70943291Y-63055830D01*
X70882201Y-63111290D01*
X70870027Y-63251334D01*
X70870000Y-63268250D01*
X70860170Y-63417209D01*
X70804710Y-63478299D01*
X70664666Y-63490473D01*
X70647750Y-63490500D01*
X70425500Y-63490500D01*
X70425500Y-64379500D01*
G37*
X70425500Y-64379500D02*
X70870000Y-64379500D01*
X70870000Y-65268500D01*
X70647750Y-65268500D01*
X70498791Y-65278330D01*
X70437701Y-65333790D01*
X70425527Y-65473834D01*
X70425500Y-65490750D01*
X70415670Y-65639709D01*
X70360210Y-65700799D01*
X70220166Y-65712973D01*
X70203250Y-65713000D01*
X69981000Y-65713000D01*
X69981000Y-64824000D01*
X69758750Y-64824000D01*
X69609791Y-64833830D01*
X69548701Y-64889290D01*
X69536527Y-65029334D01*
X69536500Y-65046250D01*
X69526670Y-65195209D01*
X69471210Y-65256299D01*
X69331166Y-65268473D01*
X69314250Y-65268500D01*
X69165291Y-65278330D01*
X69104201Y-65333790D01*
X69092027Y-65473834D01*
X69092000Y-65490750D01*
X69082170Y-65639709D01*
X69026710Y-65700799D01*
X68886666Y-65712973D01*
X68869750Y-65713000D01*
X68720791Y-65722830D01*
X68659701Y-65778290D01*
X68647527Y-65918334D01*
X68647500Y-65935250D01*
X68657329Y-66084209D01*
X68712789Y-66145299D01*
X68852833Y-66157473D01*
X68869750Y-66157500D01*
X69018708Y-66167330D01*
X69079798Y-66222790D01*
X69091972Y-66362834D01*
X69092000Y-66379750D01*
X69092000Y-66602000D01*
X69981000Y-66602000D01*
X69981000Y-66157500D01*
X70870000Y-66157500D01*
X70870000Y-65935250D01*
X70879829Y-65786292D01*
X70935289Y-65725202D01*
X71075333Y-65713028D01*
X71092250Y-65713000D01*
X71314500Y-65713000D01*
X71314500Y-64379500D01*
X71092250Y-64379500D01*
X70943291Y-64369671D01*
X70882201Y-64314211D01*
X70870027Y-64174167D01*
X70870000Y-64157250D01*
X70879829Y-64008292D01*
X70935289Y-63947202D01*
X71075333Y-63935028D01*
X71092250Y-63935000D01*
X71314500Y-63935000D01*
X71314500Y-63046000D01*
X71092250Y-63046000D01*
X70943291Y-63055830D01*
X70882201Y-63111290D01*
X70870027Y-63251334D01*
X70870000Y-63268250D01*
X70860170Y-63417209D01*
X70804710Y-63478299D01*
X70664666Y-63490473D01*
X70647750Y-63490500D01*
X70425500Y-63490500D01*
X70425500Y-64379500D01*
G36*
X66869500Y-69269000D02*
G01*
X67091750Y-69269000D01*
X67240708Y-69259171D01*
X67301798Y-69203711D01*
X67313972Y-69063667D01*
X67314000Y-69046750D01*
X67323829Y-68897792D01*
X67379289Y-68836702D01*
X67519333Y-68824528D01*
X67536250Y-68824500D01*
X67758500Y-68824500D01*
X67758500Y-67935500D01*
X66869500Y-67935500D01*
X66869500Y-69269000D01*
G37*
X66869500Y-69269000D02*
X67091750Y-69269000D01*
X67240708Y-69259171D01*
X67301798Y-69203711D01*
X67313972Y-69063667D01*
X67314000Y-69046750D01*
X67323829Y-68897792D01*
X67379289Y-68836702D01*
X67519333Y-68824528D01*
X67536250Y-68824500D01*
X67758500Y-68824500D01*
X67758500Y-67935500D01*
X66869500Y-67935500D01*
X66869500Y-69269000D01*
G36*
X66869500Y-67046500D02*
G01*
X67091750Y-67046500D01*
X67240708Y-67056330D01*
X67301798Y-67111790D01*
X67313972Y-67251834D01*
X67314000Y-67268750D01*
X67323829Y-67417709D01*
X67379289Y-67478799D01*
X67519333Y-67490973D01*
X67536250Y-67491000D01*
X67685208Y-67481171D01*
X67746298Y-67425711D01*
X67758472Y-67285667D01*
X67758500Y-67268750D01*
X67748670Y-67119792D01*
X67693210Y-67058702D01*
X67553166Y-67046528D01*
X67536250Y-67046500D01*
X67387291Y-67036671D01*
X67326201Y-66981211D01*
X67314027Y-66841167D01*
X67314000Y-66824250D01*
X67323829Y-66675292D01*
X67379289Y-66614202D01*
X67519333Y-66602028D01*
X67536250Y-66602000D01*
X67758500Y-66602000D01*
X67758500Y-65268500D01*
X68647500Y-65268500D01*
X68647500Y-65046250D01*
X68657329Y-64897292D01*
X68712789Y-64836202D01*
X68852833Y-64824028D01*
X68869750Y-64824000D01*
X69092000Y-64824000D01*
X69092000Y-63935000D01*
X69981000Y-63935000D01*
X69981000Y-63712750D01*
X69990829Y-63563792D01*
X70046289Y-63502702D01*
X70186333Y-63490528D01*
X70203250Y-63490500D01*
X70425500Y-63490500D01*
X70425500Y-62601500D01*
X70203250Y-62601500D01*
X70054291Y-62611330D01*
X69993201Y-62666790D01*
X69981027Y-62806834D01*
X69981000Y-62823750D01*
X69971170Y-62972709D01*
X69915710Y-63033799D01*
X69775666Y-63045973D01*
X69758750Y-63046000D01*
X69536500Y-63046000D01*
X69536500Y-60823500D01*
X68647500Y-60823500D01*
X68647500Y-60601250D01*
X68637670Y-60452292D01*
X68582210Y-60391202D01*
X68442166Y-60379028D01*
X68425250Y-60379000D01*
X68276291Y-60388830D01*
X68215201Y-60444290D01*
X68203027Y-60584334D01*
X68203000Y-60601250D01*
X68193170Y-60750209D01*
X68137710Y-60811299D01*
X67997666Y-60823473D01*
X67980750Y-60823500D01*
X67758500Y-60823500D01*
X67758500Y-59934500D01*
X68203000Y-59934500D01*
X68203000Y-59045500D01*
X67314000Y-59045500D01*
X67314000Y-60823500D01*
X66869500Y-60823500D01*
X66869500Y-59934500D01*
X66425000Y-59934500D01*
X66425000Y-59045500D01*
X65091500Y-59045500D01*
X65091500Y-59267750D01*
X65081670Y-59416709D01*
X65026210Y-59477799D01*
X64886166Y-59489973D01*
X64869250Y-59490000D01*
X64720291Y-59499830D01*
X64659201Y-59555290D01*
X64647027Y-59695334D01*
X64647000Y-59712250D01*
X64637170Y-59861209D01*
X64581710Y-59922299D01*
X64441666Y-59934473D01*
X64424750Y-59934500D01*
X64202500Y-59934500D01*
X64202500Y-60823500D01*
X64647000Y-60823500D01*
X64647000Y-59934500D01*
X64869250Y-59934500D01*
X65018208Y-59924671D01*
X65079298Y-59869211D01*
X65091472Y-59729167D01*
X65091500Y-59712250D01*
X65101329Y-59563292D01*
X65156789Y-59502202D01*
X65296833Y-59490028D01*
X65313750Y-59490000D01*
X65462708Y-59499830D01*
X65523798Y-59555290D01*
X65535972Y-59695334D01*
X65536000Y-59712250D01*
X65545829Y-59861209D01*
X65601289Y-59922299D01*
X65741333Y-59934473D01*
X65758250Y-59934500D01*
X65907208Y-59944330D01*
X65968298Y-59999790D01*
X65980472Y-60139834D01*
X65980500Y-60156750D01*
X65970670Y-60305709D01*
X65915210Y-60366799D01*
X65775166Y-60378973D01*
X65758250Y-60379000D01*
X65609291Y-60388830D01*
X65548201Y-60444290D01*
X65536027Y-60584334D01*
X65536000Y-60601250D01*
X65536000Y-60823500D01*
X64647000Y-60823500D01*
X64202500Y-60823500D01*
X64202500Y-61268000D01*
X63758000Y-61268000D01*
X63758000Y-62601500D01*
X63980250Y-62601500D01*
X64129208Y-62611330D01*
X64190298Y-62666790D01*
X64202472Y-62806834D01*
X64202500Y-62823750D01*
X64192670Y-62972709D01*
X64137210Y-63033799D01*
X63997166Y-63045973D01*
X63980250Y-63046000D01*
X63758000Y-63046000D01*
X63758000Y-63268250D01*
X64202500Y-63268250D01*
X64202500Y-63046000D01*
X65091500Y-63046000D01*
X65091500Y-62823750D01*
X65081670Y-62674792D01*
X65026210Y-62613702D01*
X64886166Y-62601528D01*
X64869250Y-62601500D01*
X64720291Y-62591671D01*
X64659201Y-62536211D01*
X64647027Y-62396167D01*
X64647000Y-62379250D01*
X64637170Y-62230292D01*
X64581710Y-62169202D01*
X64441666Y-62157028D01*
X64424750Y-62157000D01*
X64202500Y-62157000D01*
X64202500Y-61268000D01*
X64424750Y-61268000D01*
X64573708Y-61277830D01*
X64634798Y-61333290D01*
X64646972Y-61473334D01*
X64647000Y-61490250D01*
X64647000Y-61712500D01*
X65536000Y-61712500D01*
X65536000Y-60823500D01*
X66869500Y-60823500D01*
X66869500Y-61045750D01*
X66859670Y-61194709D01*
X66804210Y-61255799D01*
X66664166Y-61267973D01*
X66647250Y-61268000D01*
X66498291Y-61277830D01*
X66437201Y-61333290D01*
X66425027Y-61473334D01*
X66425000Y-61490250D01*
X66425000Y-61712500D01*
X65536000Y-61712500D01*
X65536000Y-62157000D01*
X66869500Y-62157000D01*
X66869500Y-61934750D01*
X66879329Y-61785792D01*
X66934789Y-61724702D01*
X67074833Y-61712528D01*
X67091750Y-61712500D01*
X67240708Y-61722330D01*
X67301798Y-61777790D01*
X67313972Y-61917834D01*
X67314000Y-61934750D01*
X67304170Y-62083709D01*
X67248710Y-62144799D01*
X67108666Y-62156973D01*
X67091750Y-62157000D01*
X66942791Y-62166830D01*
X66881701Y-62222290D01*
X66869527Y-62362334D01*
X66869500Y-62379250D01*
X66879329Y-62528209D01*
X66934789Y-62589299D01*
X67074833Y-62601473D01*
X67091750Y-62601500D01*
X67314000Y-62601500D01*
X67758500Y-62601500D01*
X67758500Y-61268000D01*
X69092000Y-61268000D01*
X69092000Y-62601500D01*
X67758500Y-62601500D01*
X67314000Y-62601500D01*
X67314000Y-63268250D01*
X67758500Y-63268250D01*
X67768329Y-63119292D01*
X67823789Y-63058202D01*
X67963833Y-63046028D01*
X67980750Y-63046000D01*
X68129708Y-63055830D01*
X68190798Y-63111290D01*
X68202972Y-63251334D01*
X68203000Y-63268250D01*
X69092000Y-63268250D01*
X69101829Y-63119292D01*
X69157289Y-63058202D01*
X69297333Y-63046028D01*
X69314250Y-63046000D01*
X69463208Y-63055830D01*
X69524298Y-63111290D01*
X69536472Y-63251334D01*
X69536500Y-63268250D01*
X69526670Y-63417209D01*
X69471210Y-63478299D01*
X69331166Y-63490473D01*
X69314250Y-63490500D01*
X69165291Y-63480671D01*
X69104201Y-63425211D01*
X69092027Y-63285167D01*
X69092000Y-63268250D01*
X68203000Y-63268250D01*
X68193170Y-63417209D01*
X68137710Y-63478299D01*
X67997666Y-63490473D01*
X67980750Y-63490500D01*
X67831791Y-63480671D01*
X67770701Y-63425211D01*
X67758527Y-63285167D01*
X67758500Y-63268250D01*
X67314000Y-63268250D01*
X67314000Y-63490500D01*
X66869500Y-63490500D01*
X66869500Y-64379500D01*
X67091750Y-64379500D01*
X67240708Y-64369671D01*
X67301798Y-64314211D01*
X67313972Y-64174167D01*
X67314000Y-64157250D01*
X67323829Y-64008292D01*
X67379289Y-63947202D01*
X67519333Y-63935028D01*
X67536250Y-63935000D01*
X67685208Y-63944830D01*
X67746298Y-64000290D01*
X67758472Y-64140334D01*
X67758500Y-64157250D01*
X67768329Y-64306209D01*
X67823789Y-64367299D01*
X67963833Y-64379473D01*
X67980750Y-64379500D01*
X68129708Y-64369671D01*
X68190798Y-64314211D01*
X68202972Y-64174167D01*
X68203000Y-64157250D01*
X68212829Y-64008292D01*
X68268289Y-63947202D01*
X68408333Y-63935028D01*
X68425250Y-63935000D01*
X68574208Y-63944830D01*
X68635298Y-64000290D01*
X68647472Y-64140334D01*
X68647500Y-64157250D01*
X68637670Y-64306209D01*
X68582210Y-64367299D01*
X68442166Y-64379473D01*
X68425250Y-64379500D01*
X68276291Y-64389330D01*
X68215201Y-64444790D01*
X68203027Y-64584834D01*
X68203000Y-64601750D01*
X68193170Y-64750709D01*
X68137710Y-64811799D01*
X67997666Y-64823973D01*
X67980750Y-64824000D01*
X67831791Y-64814171D01*
X67770701Y-64758711D01*
X67758527Y-64618667D01*
X67758500Y-64601750D01*
X67748670Y-64452792D01*
X67693210Y-64391702D01*
X67553166Y-64379528D01*
X67536250Y-64379500D01*
X67387291Y-64389330D01*
X67326201Y-64444790D01*
X67314027Y-64584834D01*
X67314000Y-64601750D01*
X67304170Y-64750709D01*
X67248710Y-64811799D01*
X67108666Y-64823973D01*
X67091750Y-64824000D01*
X66869500Y-64824000D01*
X66869500Y-65713000D01*
X66425000Y-65713000D01*
X66425000Y-65268500D01*
X65536000Y-65268500D01*
X65536000Y-65046250D01*
X65526170Y-64897292D01*
X65470710Y-64836202D01*
X65330666Y-64824028D01*
X65313750Y-64824000D01*
X65091500Y-64824000D01*
X65091500Y-63935000D01*
X64869250Y-63935000D01*
X64720291Y-63925171D01*
X64659201Y-63869711D01*
X64647027Y-63729667D01*
X64647000Y-63712750D01*
X64637170Y-63563792D01*
X64581710Y-63502702D01*
X64441666Y-63490528D01*
X64424750Y-63490500D01*
X64275791Y-63480671D01*
X64214701Y-63425211D01*
X64202527Y-63285167D01*
X64202500Y-63268250D01*
X63758000Y-63268250D01*
X63758000Y-63935000D01*
X63980250Y-63935000D01*
X64129208Y-63944830D01*
X64190298Y-64000290D01*
X64202472Y-64140334D01*
X64202500Y-64157250D01*
X64192670Y-64306209D01*
X64137210Y-64367299D01*
X63997166Y-64379473D01*
X63980250Y-64379500D01*
X63831291Y-64389330D01*
X63770201Y-64444790D01*
X63758027Y-64584834D01*
X63758000Y-64601750D01*
X63758000Y-64824000D01*
X64647000Y-64824000D01*
X64647000Y-65046250D01*
X64637170Y-65195209D01*
X64581710Y-65256299D01*
X64441666Y-65268473D01*
X64424750Y-65268500D01*
X64275791Y-65278330D01*
X64214701Y-65333790D01*
X64202527Y-65473834D01*
X64202500Y-65490750D01*
X64202500Y-65713000D01*
X63313500Y-65713000D01*
X63313500Y-65490750D01*
X63303670Y-65341792D01*
X63248210Y-65280702D01*
X63108166Y-65268528D01*
X63091250Y-65268500D01*
X62942291Y-65278330D01*
X62881201Y-65333790D01*
X62869027Y-65473834D01*
X62869000Y-65490750D01*
X62859170Y-65639709D01*
X62803710Y-65700799D01*
X62663666Y-65712973D01*
X62646750Y-65713000D01*
X62424500Y-65713000D01*
X62424500Y-65935250D01*
X62869000Y-65935250D01*
X62878829Y-65786292D01*
X62934289Y-65725202D01*
X63074333Y-65713028D01*
X63091250Y-65713000D01*
X63240208Y-65722830D01*
X63301298Y-65778290D01*
X63313472Y-65918334D01*
X63313500Y-65935250D01*
X64202500Y-65935250D01*
X64212329Y-65786292D01*
X64267789Y-65725202D01*
X64407833Y-65713028D01*
X64424750Y-65713000D01*
X64573708Y-65703171D01*
X64634798Y-65647711D01*
X64646972Y-65507667D01*
X64647000Y-65490750D01*
X64656829Y-65341792D01*
X64712289Y-65280702D01*
X64852333Y-65268528D01*
X64869250Y-65268500D01*
X65018208Y-65278330D01*
X65079298Y-65333790D01*
X65091472Y-65473834D01*
X65091500Y-65490750D01*
X65091500Y-65713000D01*
X64869250Y-65713000D01*
X64720291Y-65722830D01*
X64659201Y-65778290D01*
X64647027Y-65918334D01*
X64647000Y-65935250D01*
X64637170Y-66084209D01*
X64581710Y-66145299D01*
X64441666Y-66157473D01*
X64424750Y-66157500D01*
X64275791Y-66147671D01*
X64214701Y-66092211D01*
X64202527Y-65952167D01*
X64202500Y-65935250D01*
X63313500Y-65935250D01*
X63303670Y-66084209D01*
X63248210Y-66145299D01*
X63108166Y-66157473D01*
X63091250Y-66157500D01*
X62942291Y-66147671D01*
X62881201Y-66092211D01*
X62869027Y-65952167D01*
X62869000Y-65935250D01*
X62424500Y-65935250D01*
X62424500Y-66602000D01*
X63758000Y-66602000D01*
X63758000Y-66379750D01*
X63767829Y-66230792D01*
X63823289Y-66169702D01*
X63963333Y-66157528D01*
X63980250Y-66157500D01*
X64202500Y-66157500D01*
X64202500Y-67046500D01*
X63980250Y-67046500D01*
X63831291Y-67056330D01*
X63770201Y-67111790D01*
X63758027Y-67251834D01*
X63758000Y-67268750D01*
X64202500Y-67268750D01*
X64212329Y-67119792D01*
X64267789Y-67058702D01*
X64407833Y-67046528D01*
X64424750Y-67046500D01*
X64573708Y-67036671D01*
X64634798Y-66981211D01*
X64646972Y-66841167D01*
X64647000Y-66824250D01*
X64656829Y-66675292D01*
X64712289Y-66614202D01*
X64852333Y-66602028D01*
X64869250Y-66602000D01*
X65091500Y-66602000D01*
X65091500Y-65713000D01*
X66425000Y-65713000D01*
X66425000Y-66602000D01*
X66647250Y-66602000D01*
X66796208Y-66611830D01*
X66857298Y-66667290D01*
X66869472Y-66807334D01*
X66869500Y-66824250D01*
X66859670Y-66973209D01*
X66804210Y-67034299D01*
X66664166Y-67046473D01*
X66647250Y-67046500D01*
X66498291Y-67056330D01*
X66437201Y-67111790D01*
X66425027Y-67251834D01*
X66425000Y-67268750D01*
X66415170Y-67417709D01*
X66359710Y-67478799D01*
X66219666Y-67490973D01*
X66202750Y-67491000D01*
X66053791Y-67500830D01*
X65992701Y-67556290D01*
X65980527Y-67696334D01*
X65980500Y-67713250D01*
X65970670Y-67862209D01*
X65915210Y-67923299D01*
X65775166Y-67935473D01*
X65758250Y-67935500D01*
X65609291Y-67945330D01*
X65548201Y-68000790D01*
X65536027Y-68140834D01*
X65536000Y-68157750D01*
X65526170Y-68306709D01*
X65470710Y-68367799D01*
X65330666Y-68379973D01*
X65313750Y-68380000D01*
X65091500Y-68380000D01*
X65091500Y-67046500D01*
X64869250Y-67046500D01*
X64720291Y-67056330D01*
X64659201Y-67111790D01*
X64647027Y-67251834D01*
X64647000Y-67268750D01*
X64637170Y-67417709D01*
X64581710Y-67478799D01*
X64441666Y-67490973D01*
X64424750Y-67491000D01*
X64275791Y-67481171D01*
X64214701Y-67425711D01*
X64202527Y-67285667D01*
X64202500Y-67268750D01*
X63758000Y-67268750D01*
X63767829Y-67417709D01*
X63823289Y-67478799D01*
X63963333Y-67490973D01*
X63980250Y-67491000D01*
X64129208Y-67500830D01*
X64190298Y-67556290D01*
X64202472Y-67696334D01*
X64202500Y-67713250D01*
X64192670Y-67862209D01*
X64137210Y-67923299D01*
X63997166Y-67935473D01*
X63980250Y-67935500D01*
X63758000Y-67935500D01*
X63758000Y-68824500D01*
X63980250Y-68824500D01*
X64202500Y-68824500D01*
X64202500Y-67935500D01*
X64647000Y-67935500D01*
X64647000Y-68824500D01*
X64202500Y-68824500D01*
X63980250Y-68824500D01*
X64129208Y-68834330D01*
X64190298Y-68889790D01*
X64202472Y-69029834D01*
X64202500Y-69046750D01*
X64202500Y-69269000D01*
X65091500Y-69269000D01*
X65091500Y-69713500D01*
X64202500Y-69713500D01*
X64202500Y-70158000D01*
X65536000Y-70158000D01*
X65536000Y-69935750D01*
X65545829Y-69786792D01*
X65601289Y-69725702D01*
X65741333Y-69713528D01*
X65758250Y-69713500D01*
X65907208Y-69703671D01*
X65968298Y-69648211D01*
X65980472Y-69508167D01*
X65980500Y-69491250D01*
X65970670Y-69342292D01*
X65915210Y-69281202D01*
X65775166Y-69269028D01*
X65758250Y-69269000D01*
X65536000Y-69269000D01*
X65536000Y-68380000D01*
X65758250Y-68380000D01*
X65907208Y-68370171D01*
X65968298Y-68314711D01*
X65980472Y-68174667D01*
X65980500Y-68157750D01*
X65980500Y-67935500D01*
X66869500Y-67935500D01*
X66869500Y-67046500D01*
G37*
X66869500Y-67046500D02*
X67091750Y-67046500D01*
X67240708Y-67056330D01*
X67301798Y-67111790D01*
X67313972Y-67251834D01*
X67314000Y-67268750D01*
X67323829Y-67417709D01*
X67379289Y-67478799D01*
X67519333Y-67490973D01*
X67536250Y-67491000D01*
X67685208Y-67481171D01*
X67746298Y-67425711D01*
X67758472Y-67285667D01*
X67758500Y-67268750D01*
X67748670Y-67119792D01*
X67693210Y-67058702D01*
X67553166Y-67046528D01*
X67536250Y-67046500D01*
X67387291Y-67036671D01*
X67326201Y-66981211D01*
X67314027Y-66841167D01*
X67314000Y-66824250D01*
X67323829Y-66675292D01*
X67379289Y-66614202D01*
X67519333Y-66602028D01*
X67536250Y-66602000D01*
X67758500Y-66602000D01*
X67758500Y-65268500D01*
X68647500Y-65268500D01*
X68647500Y-65046250D01*
X68657329Y-64897292D01*
X68712789Y-64836202D01*
X68852833Y-64824028D01*
X68869750Y-64824000D01*
X69092000Y-64824000D01*
X69092000Y-63935000D01*
X69981000Y-63935000D01*
X69981000Y-63712750D01*
X69990829Y-63563792D01*
X70046289Y-63502702D01*
X70186333Y-63490528D01*
X70203250Y-63490500D01*
X70425500Y-63490500D01*
X70425500Y-62601500D01*
X70203250Y-62601500D01*
X70054291Y-62611330D01*
X69993201Y-62666790D01*
X69981027Y-62806834D01*
X69981000Y-62823750D01*
X69971170Y-62972709D01*
X69915710Y-63033799D01*
X69775666Y-63045973D01*
X69758750Y-63046000D01*
X69536500Y-63046000D01*
X69536500Y-60823500D01*
X68647500Y-60823500D01*
X68647500Y-60601250D01*
X68637670Y-60452292D01*
X68582210Y-60391202D01*
X68442166Y-60379028D01*
X68425250Y-60379000D01*
X68276291Y-60388830D01*
X68215201Y-60444290D01*
X68203027Y-60584334D01*
X68203000Y-60601250D01*
X68193170Y-60750209D01*
X68137710Y-60811299D01*
X67997666Y-60823473D01*
X67980750Y-60823500D01*
X67758500Y-60823500D01*
X67758500Y-59934500D01*
X68203000Y-59934500D01*
X68203000Y-59045500D01*
X67314000Y-59045500D01*
X67314000Y-60823500D01*
X66869500Y-60823500D01*
X66869500Y-59934500D01*
X66425000Y-59934500D01*
X66425000Y-59045500D01*
X65091500Y-59045500D01*
X65091500Y-59267750D01*
X65081670Y-59416709D01*
X65026210Y-59477799D01*
X64886166Y-59489973D01*
X64869250Y-59490000D01*
X64720291Y-59499830D01*
X64659201Y-59555290D01*
X64647027Y-59695334D01*
X64647000Y-59712250D01*
X64637170Y-59861209D01*
X64581710Y-59922299D01*
X64441666Y-59934473D01*
X64424750Y-59934500D01*
X64202500Y-59934500D01*
X64202500Y-60823500D01*
X64647000Y-60823500D01*
X64647000Y-59934500D01*
X64869250Y-59934500D01*
X65018208Y-59924671D01*
X65079298Y-59869211D01*
X65091472Y-59729167D01*
X65091500Y-59712250D01*
X65101329Y-59563292D01*
X65156789Y-59502202D01*
X65296833Y-59490028D01*
X65313750Y-59490000D01*
X65462708Y-59499830D01*
X65523798Y-59555290D01*
X65535972Y-59695334D01*
X65536000Y-59712250D01*
X65545829Y-59861209D01*
X65601289Y-59922299D01*
X65741333Y-59934473D01*
X65758250Y-59934500D01*
X65907208Y-59944330D01*
X65968298Y-59999790D01*
X65980472Y-60139834D01*
X65980500Y-60156750D01*
X65970670Y-60305709D01*
X65915210Y-60366799D01*
X65775166Y-60378973D01*
X65758250Y-60379000D01*
X65609291Y-60388830D01*
X65548201Y-60444290D01*
X65536027Y-60584334D01*
X65536000Y-60601250D01*
X65536000Y-60823500D01*
X64647000Y-60823500D01*
X64202500Y-60823500D01*
X64202500Y-61268000D01*
X63758000Y-61268000D01*
X63758000Y-62601500D01*
X63980250Y-62601500D01*
X64129208Y-62611330D01*
X64190298Y-62666790D01*
X64202472Y-62806834D01*
X64202500Y-62823750D01*
X64192670Y-62972709D01*
X64137210Y-63033799D01*
X63997166Y-63045973D01*
X63980250Y-63046000D01*
X63758000Y-63046000D01*
X63758000Y-63268250D01*
X64202500Y-63268250D01*
X64202500Y-63046000D01*
X65091500Y-63046000D01*
X65091500Y-62823750D01*
X65081670Y-62674792D01*
X65026210Y-62613702D01*
X64886166Y-62601528D01*
X64869250Y-62601500D01*
X64720291Y-62591671D01*
X64659201Y-62536211D01*
X64647027Y-62396167D01*
X64647000Y-62379250D01*
X64637170Y-62230292D01*
X64581710Y-62169202D01*
X64441666Y-62157028D01*
X64424750Y-62157000D01*
X64202500Y-62157000D01*
X64202500Y-61268000D01*
X64424750Y-61268000D01*
X64573708Y-61277830D01*
X64634798Y-61333290D01*
X64646972Y-61473334D01*
X64647000Y-61490250D01*
X64647000Y-61712500D01*
X65536000Y-61712500D01*
X65536000Y-60823500D01*
X66869500Y-60823500D01*
X66869500Y-61045750D01*
X66859670Y-61194709D01*
X66804210Y-61255799D01*
X66664166Y-61267973D01*
X66647250Y-61268000D01*
X66498291Y-61277830D01*
X66437201Y-61333290D01*
X66425027Y-61473334D01*
X66425000Y-61490250D01*
X66425000Y-61712500D01*
X65536000Y-61712500D01*
X65536000Y-62157000D01*
X66869500Y-62157000D01*
X66869500Y-61934750D01*
X66879329Y-61785792D01*
X66934789Y-61724702D01*
X67074833Y-61712528D01*
X67091750Y-61712500D01*
X67240708Y-61722330D01*
X67301798Y-61777790D01*
X67313972Y-61917834D01*
X67314000Y-61934750D01*
X67304170Y-62083709D01*
X67248710Y-62144799D01*
X67108666Y-62156973D01*
X67091750Y-62157000D01*
X66942791Y-62166830D01*
X66881701Y-62222290D01*
X66869527Y-62362334D01*
X66869500Y-62379250D01*
X66879329Y-62528209D01*
X66934789Y-62589299D01*
X67074833Y-62601473D01*
X67091750Y-62601500D01*
X67314000Y-62601500D01*
X67758500Y-62601500D01*
X67758500Y-61268000D01*
X69092000Y-61268000D01*
X69092000Y-62601500D01*
X67758500Y-62601500D01*
X67314000Y-62601500D01*
X67314000Y-63268250D01*
X67758500Y-63268250D01*
X67768329Y-63119292D01*
X67823789Y-63058202D01*
X67963833Y-63046028D01*
X67980750Y-63046000D01*
X68129708Y-63055830D01*
X68190798Y-63111290D01*
X68202972Y-63251334D01*
X68203000Y-63268250D01*
X69092000Y-63268250D01*
X69101829Y-63119292D01*
X69157289Y-63058202D01*
X69297333Y-63046028D01*
X69314250Y-63046000D01*
X69463208Y-63055830D01*
X69524298Y-63111290D01*
X69536472Y-63251334D01*
X69536500Y-63268250D01*
X69526670Y-63417209D01*
X69471210Y-63478299D01*
X69331166Y-63490473D01*
X69314250Y-63490500D01*
X69165291Y-63480671D01*
X69104201Y-63425211D01*
X69092027Y-63285167D01*
X69092000Y-63268250D01*
X68203000Y-63268250D01*
X68193170Y-63417209D01*
X68137710Y-63478299D01*
X67997666Y-63490473D01*
X67980750Y-63490500D01*
X67831791Y-63480671D01*
X67770701Y-63425211D01*
X67758527Y-63285167D01*
X67758500Y-63268250D01*
X67314000Y-63268250D01*
X67314000Y-63490500D01*
X66869500Y-63490500D01*
X66869500Y-64379500D01*
X67091750Y-64379500D01*
X67240708Y-64369671D01*
X67301798Y-64314211D01*
X67313972Y-64174167D01*
X67314000Y-64157250D01*
X67323829Y-64008292D01*
X67379289Y-63947202D01*
X67519333Y-63935028D01*
X67536250Y-63935000D01*
X67685208Y-63944830D01*
X67746298Y-64000290D01*
X67758472Y-64140334D01*
X67758500Y-64157250D01*
X67768329Y-64306209D01*
X67823789Y-64367299D01*
X67963833Y-64379473D01*
X67980750Y-64379500D01*
X68129708Y-64369671D01*
X68190798Y-64314211D01*
X68202972Y-64174167D01*
X68203000Y-64157250D01*
X68212829Y-64008292D01*
X68268289Y-63947202D01*
X68408333Y-63935028D01*
X68425250Y-63935000D01*
X68574208Y-63944830D01*
X68635298Y-64000290D01*
X68647472Y-64140334D01*
X68647500Y-64157250D01*
X68637670Y-64306209D01*
X68582210Y-64367299D01*
X68442166Y-64379473D01*
X68425250Y-64379500D01*
X68276291Y-64389330D01*
X68215201Y-64444790D01*
X68203027Y-64584834D01*
X68203000Y-64601750D01*
X68193170Y-64750709D01*
X68137710Y-64811799D01*
X67997666Y-64823973D01*
X67980750Y-64824000D01*
X67831791Y-64814171D01*
X67770701Y-64758711D01*
X67758527Y-64618667D01*
X67758500Y-64601750D01*
X67748670Y-64452792D01*
X67693210Y-64391702D01*
X67553166Y-64379528D01*
X67536250Y-64379500D01*
X67387291Y-64389330D01*
X67326201Y-64444790D01*
X67314027Y-64584834D01*
X67314000Y-64601750D01*
X67304170Y-64750709D01*
X67248710Y-64811799D01*
X67108666Y-64823973D01*
X67091750Y-64824000D01*
X66869500Y-64824000D01*
X66869500Y-65713000D01*
X66425000Y-65713000D01*
X66425000Y-65268500D01*
X65536000Y-65268500D01*
X65536000Y-65046250D01*
X65526170Y-64897292D01*
X65470710Y-64836202D01*
X65330666Y-64824028D01*
X65313750Y-64824000D01*
X65091500Y-64824000D01*
X65091500Y-63935000D01*
X64869250Y-63935000D01*
X64720291Y-63925171D01*
X64659201Y-63869711D01*
X64647027Y-63729667D01*
X64647000Y-63712750D01*
X64637170Y-63563792D01*
X64581710Y-63502702D01*
X64441666Y-63490528D01*
X64424750Y-63490500D01*
X64275791Y-63480671D01*
X64214701Y-63425211D01*
X64202527Y-63285167D01*
X64202500Y-63268250D01*
X63758000Y-63268250D01*
X63758000Y-63935000D01*
X63980250Y-63935000D01*
X64129208Y-63944830D01*
X64190298Y-64000290D01*
X64202472Y-64140334D01*
X64202500Y-64157250D01*
X64192670Y-64306209D01*
X64137210Y-64367299D01*
X63997166Y-64379473D01*
X63980250Y-64379500D01*
X63831291Y-64389330D01*
X63770201Y-64444790D01*
X63758027Y-64584834D01*
X63758000Y-64601750D01*
X63758000Y-64824000D01*
X64647000Y-64824000D01*
X64647000Y-65046250D01*
X64637170Y-65195209D01*
X64581710Y-65256299D01*
X64441666Y-65268473D01*
X64424750Y-65268500D01*
X64275791Y-65278330D01*
X64214701Y-65333790D01*
X64202527Y-65473834D01*
X64202500Y-65490750D01*
X64202500Y-65713000D01*
X63313500Y-65713000D01*
X63313500Y-65490750D01*
X63303670Y-65341792D01*
X63248210Y-65280702D01*
X63108166Y-65268528D01*
X63091250Y-65268500D01*
X62942291Y-65278330D01*
X62881201Y-65333790D01*
X62869027Y-65473834D01*
X62869000Y-65490750D01*
X62859170Y-65639709D01*
X62803710Y-65700799D01*
X62663666Y-65712973D01*
X62646750Y-65713000D01*
X62424500Y-65713000D01*
X62424500Y-65935250D01*
X62869000Y-65935250D01*
X62878829Y-65786292D01*
X62934289Y-65725202D01*
X63074333Y-65713028D01*
X63091250Y-65713000D01*
X63240208Y-65722830D01*
X63301298Y-65778290D01*
X63313472Y-65918334D01*
X63313500Y-65935250D01*
X64202500Y-65935250D01*
X64212329Y-65786292D01*
X64267789Y-65725202D01*
X64407833Y-65713028D01*
X64424750Y-65713000D01*
X64573708Y-65703171D01*
X64634798Y-65647711D01*
X64646972Y-65507667D01*
X64647000Y-65490750D01*
X64656829Y-65341792D01*
X64712289Y-65280702D01*
X64852333Y-65268528D01*
X64869250Y-65268500D01*
X65018208Y-65278330D01*
X65079298Y-65333790D01*
X65091472Y-65473834D01*
X65091500Y-65490750D01*
X65091500Y-65713000D01*
X64869250Y-65713000D01*
X64720291Y-65722830D01*
X64659201Y-65778290D01*
X64647027Y-65918334D01*
X64647000Y-65935250D01*
X64637170Y-66084209D01*
X64581710Y-66145299D01*
X64441666Y-66157473D01*
X64424750Y-66157500D01*
X64275791Y-66147671D01*
X64214701Y-66092211D01*
X64202527Y-65952167D01*
X64202500Y-65935250D01*
X63313500Y-65935250D01*
X63303670Y-66084209D01*
X63248210Y-66145299D01*
X63108166Y-66157473D01*
X63091250Y-66157500D01*
X62942291Y-66147671D01*
X62881201Y-66092211D01*
X62869027Y-65952167D01*
X62869000Y-65935250D01*
X62424500Y-65935250D01*
X62424500Y-66602000D01*
X63758000Y-66602000D01*
X63758000Y-66379750D01*
X63767829Y-66230792D01*
X63823289Y-66169702D01*
X63963333Y-66157528D01*
X63980250Y-66157500D01*
X64202500Y-66157500D01*
X64202500Y-67046500D01*
X63980250Y-67046500D01*
X63831291Y-67056330D01*
X63770201Y-67111790D01*
X63758027Y-67251834D01*
X63758000Y-67268750D01*
X64202500Y-67268750D01*
X64212329Y-67119792D01*
X64267789Y-67058702D01*
X64407833Y-67046528D01*
X64424750Y-67046500D01*
X64573708Y-67036671D01*
X64634798Y-66981211D01*
X64646972Y-66841167D01*
X64647000Y-66824250D01*
X64656829Y-66675292D01*
X64712289Y-66614202D01*
X64852333Y-66602028D01*
X64869250Y-66602000D01*
X65091500Y-66602000D01*
X65091500Y-65713000D01*
X66425000Y-65713000D01*
X66425000Y-66602000D01*
X66647250Y-66602000D01*
X66796208Y-66611830D01*
X66857298Y-66667290D01*
X66869472Y-66807334D01*
X66869500Y-66824250D01*
X66859670Y-66973209D01*
X66804210Y-67034299D01*
X66664166Y-67046473D01*
X66647250Y-67046500D01*
X66498291Y-67056330D01*
X66437201Y-67111790D01*
X66425027Y-67251834D01*
X66425000Y-67268750D01*
X66415170Y-67417709D01*
X66359710Y-67478799D01*
X66219666Y-67490973D01*
X66202750Y-67491000D01*
X66053791Y-67500830D01*
X65992701Y-67556290D01*
X65980527Y-67696334D01*
X65980500Y-67713250D01*
X65970670Y-67862209D01*
X65915210Y-67923299D01*
X65775166Y-67935473D01*
X65758250Y-67935500D01*
X65609291Y-67945330D01*
X65548201Y-68000790D01*
X65536027Y-68140834D01*
X65536000Y-68157750D01*
X65526170Y-68306709D01*
X65470710Y-68367799D01*
X65330666Y-68379973D01*
X65313750Y-68380000D01*
X65091500Y-68380000D01*
X65091500Y-67046500D01*
X64869250Y-67046500D01*
X64720291Y-67056330D01*
X64659201Y-67111790D01*
X64647027Y-67251834D01*
X64647000Y-67268750D01*
X64637170Y-67417709D01*
X64581710Y-67478799D01*
X64441666Y-67490973D01*
X64424750Y-67491000D01*
X64275791Y-67481171D01*
X64214701Y-67425711D01*
X64202527Y-67285667D01*
X64202500Y-67268750D01*
X63758000Y-67268750D01*
X63767829Y-67417709D01*
X63823289Y-67478799D01*
X63963333Y-67490973D01*
X63980250Y-67491000D01*
X64129208Y-67500830D01*
X64190298Y-67556290D01*
X64202472Y-67696334D01*
X64202500Y-67713250D01*
X64192670Y-67862209D01*
X64137210Y-67923299D01*
X63997166Y-67935473D01*
X63980250Y-67935500D01*
X63758000Y-67935500D01*
X63758000Y-68824500D01*
X63980250Y-68824500D01*
X64202500Y-68824500D01*
X64202500Y-67935500D01*
X64647000Y-67935500D01*
X64647000Y-68824500D01*
X64202500Y-68824500D01*
X63980250Y-68824500D01*
X64129208Y-68834330D01*
X64190298Y-68889790D01*
X64202472Y-69029834D01*
X64202500Y-69046750D01*
X64202500Y-69269000D01*
X65091500Y-69269000D01*
X65091500Y-69713500D01*
X64202500Y-69713500D01*
X64202500Y-70158000D01*
X65536000Y-70158000D01*
X65536000Y-69935750D01*
X65545829Y-69786792D01*
X65601289Y-69725702D01*
X65741333Y-69713528D01*
X65758250Y-69713500D01*
X65907208Y-69703671D01*
X65968298Y-69648211D01*
X65980472Y-69508167D01*
X65980500Y-69491250D01*
X65970670Y-69342292D01*
X65915210Y-69281202D01*
X65775166Y-69269028D01*
X65758250Y-69269000D01*
X65536000Y-69269000D01*
X65536000Y-68380000D01*
X65758250Y-68380000D01*
X65907208Y-68370171D01*
X65968298Y-68314711D01*
X65980472Y-68174667D01*
X65980500Y-68157750D01*
X65980500Y-67935500D01*
X66869500Y-67935500D01*
X66869500Y-67046500D01*
G36*
X69536500Y-59712250D02*
G01*
X69546329Y-59563292D01*
X69601789Y-59502202D01*
X69741833Y-59490028D01*
X69758750Y-59490000D01*
X69907708Y-59480171D01*
X69968798Y-59424711D01*
X69980972Y-59284667D01*
X69981000Y-59267750D01*
X69971170Y-59118792D01*
X69915710Y-59057702D01*
X69775666Y-59045528D01*
X69758750Y-59045500D01*
X69609791Y-59055330D01*
X69548701Y-59110790D01*
X69536527Y-59250834D01*
X69536500Y-59267750D01*
X69536500Y-59490000D01*
X68647500Y-59490000D01*
X68647500Y-59934500D01*
X69536500Y-59934500D01*
X69536500Y-59712250D01*
G37*
X69536500Y-59712250D02*
X69546329Y-59563292D01*
X69601789Y-59502202D01*
X69741833Y-59490028D01*
X69758750Y-59490000D01*
X69907708Y-59480171D01*
X69968798Y-59424711D01*
X69980972Y-59284667D01*
X69981000Y-59267750D01*
X69971170Y-59118792D01*
X69915710Y-59057702D01*
X69775666Y-59045528D01*
X69758750Y-59045500D01*
X69609791Y-59055330D01*
X69548701Y-59110790D01*
X69536527Y-59250834D01*
X69536500Y-59267750D01*
X69536500Y-59490000D01*
X68647500Y-59490000D01*
X68647500Y-59934500D01*
X69536500Y-59934500D01*
X69536500Y-59712250D01*
G36*
X69536500Y-60379000D02*
G01*
X70425500Y-60379000D01*
X70425500Y-60601250D01*
X70415670Y-60750209D01*
X70360210Y-60811299D01*
X70220166Y-60823473D01*
X70203250Y-60823500D01*
X70054291Y-60833330D01*
X69993201Y-60888790D01*
X69981027Y-61028834D01*
X69981000Y-61045750D01*
X69981000Y-61268000D01*
X71314500Y-61268000D01*
X71314500Y-59045500D01*
X70870000Y-59045500D01*
X70870000Y-60379000D01*
X70647750Y-60379000D01*
X70498791Y-60369171D01*
X70437701Y-60313711D01*
X70425527Y-60173667D01*
X70425500Y-60156750D01*
X70425500Y-59934500D01*
X69536500Y-59934500D01*
X69536500Y-60379000D01*
G37*
X69536500Y-60379000D02*
X70425500Y-60379000D01*
X70425500Y-60601250D01*
X70415670Y-60750209D01*
X70360210Y-60811299D01*
X70220166Y-60823473D01*
X70203250Y-60823500D01*
X70054291Y-60833330D01*
X69993201Y-60888790D01*
X69981027Y-61028834D01*
X69981000Y-61045750D01*
X69981000Y-61268000D01*
X71314500Y-61268000D01*
X71314500Y-59045500D01*
X70870000Y-59045500D01*
X70870000Y-60379000D01*
X70647750Y-60379000D01*
X70498791Y-60369171D01*
X70437701Y-60313711D01*
X70425527Y-60173667D01*
X70425500Y-60156750D01*
X70425500Y-59934500D01*
X69536500Y-59934500D01*
X69536500Y-60379000D01*
G36*
X71241208Y-62147171D02*
G01*
X71302298Y-62091711D01*
X71314472Y-61951667D01*
X71314500Y-61934750D01*
X71304670Y-61785792D01*
X71249210Y-61724702D01*
X71109166Y-61712528D01*
X71092250Y-61712500D01*
X70943291Y-61722330D01*
X70882201Y-61777790D01*
X70870027Y-61917834D01*
X70870000Y-61934750D01*
X70879829Y-62083709D01*
X70935289Y-62144799D01*
X71075333Y-62156973D01*
X71092250Y-62157000D01*
X71241208Y-62147171D01*
G37*
X71241208Y-62147171D02*
X71302298Y-62091711D01*
X71314472Y-61951667D01*
X71314500Y-61934750D01*
X71304670Y-61785792D01*
X71249210Y-61724702D01*
X71109166Y-61712528D01*
X71092250Y-61712500D01*
X70943291Y-61722330D01*
X70882201Y-61777790D01*
X70870027Y-61917834D01*
X70870000Y-61934750D01*
X70879829Y-62083709D01*
X70935289Y-62144799D01*
X71075333Y-62156973D01*
X71092250Y-62157000D01*
X71241208Y-62147171D01*
G36*
X63313500Y-67046500D02*
G01*
X60202000Y-67046500D01*
X60202000Y-69713500D01*
X60646500Y-69713500D01*
X60646500Y-67491000D01*
X62869000Y-67491000D01*
X62869000Y-69713500D01*
X60646500Y-69713500D01*
X60202000Y-69713500D01*
X60202000Y-70158000D01*
X63313500Y-70158000D01*
X63313500Y-67046500D01*
G37*
X63313500Y-67046500D02*
X60202000Y-67046500D01*
X60202000Y-69713500D01*
X60646500Y-69713500D01*
X60646500Y-67491000D01*
X62869000Y-67491000D01*
X62869000Y-69713500D01*
X60646500Y-69713500D01*
X60202000Y-69713500D01*
X60202000Y-70158000D01*
X63313500Y-70158000D01*
X63313500Y-67046500D01*
G36*
X71314500Y-67046500D02*
G01*
X68203000Y-67046500D01*
X68203000Y-69713500D01*
X68647500Y-69713500D01*
X68647500Y-67491000D01*
X70870000Y-67491000D01*
X70870000Y-69713500D01*
X68647500Y-69713500D01*
X68203000Y-69713500D01*
X68203000Y-70158000D01*
X71314500Y-70158000D01*
X71314500Y-67046500D01*
G37*
X71314500Y-67046500D02*
X68203000Y-67046500D01*
X68203000Y-69713500D01*
X68647500Y-69713500D01*
X68647500Y-67491000D01*
X70870000Y-67491000D01*
X70870000Y-69713500D01*
X68647500Y-69713500D01*
X68203000Y-69713500D01*
X68203000Y-70158000D01*
X71314500Y-70158000D01*
X71314500Y-67046500D01*
G36*
X67685208Y-70148171D02*
G01*
X67746298Y-70092711D01*
X67758472Y-69952667D01*
X67758500Y-69935750D01*
X67748670Y-69786792D01*
X67693210Y-69725702D01*
X67553166Y-69713528D01*
X67536250Y-69713500D01*
X67387291Y-69723330D01*
X67326201Y-69778790D01*
X67314027Y-69918834D01*
X67314000Y-69935750D01*
X67323829Y-70084709D01*
X67379289Y-70145799D01*
X67519333Y-70157973D01*
X67536250Y-70158000D01*
X67685208Y-70148171D01*
G37*
X67685208Y-70148171D02*
X67746298Y-70092711D01*
X67758472Y-69952667D01*
X67758500Y-69935750D01*
X67748670Y-69786792D01*
X67693210Y-69725702D01*
X67553166Y-69713528D01*
X67536250Y-69713500D01*
X67387291Y-69723330D01*
X67326201Y-69778790D01*
X67314027Y-69918834D01*
X67314000Y-69935750D01*
X67323829Y-70084709D01*
X67379289Y-70145799D01*
X67519333Y-70157973D01*
X67536250Y-70158000D01*
X67685208Y-70148171D01*
G36*
X62424500Y-59934500D02*
G01*
X61091000Y-59934500D01*
X61091000Y-61268000D01*
X62424500Y-61268000D01*
X62424500Y-59934500D01*
G37*
X62424500Y-59934500D02*
X61091000Y-59934500D01*
X61091000Y-61268000D01*
X62424500Y-61268000D01*
X62424500Y-59934500D01*
G36*
X65907208Y-63480671D02*
G01*
X65968298Y-63425211D01*
X65980472Y-63285167D01*
X65980500Y-63268250D01*
X65980500Y-63046000D01*
X66869500Y-63046000D01*
X66869500Y-62601500D01*
X65536000Y-62601500D01*
X65536000Y-63490500D01*
X65758250Y-63490500D01*
X65907208Y-63480671D01*
G37*
X65907208Y-63480671D02*
X65968298Y-63425211D01*
X65980472Y-63285167D01*
X65980500Y-63268250D01*
X65980500Y-63046000D01*
X66869500Y-63046000D01*
X66869500Y-62601500D01*
X65536000Y-62601500D01*
X65536000Y-63490500D01*
X65758250Y-63490500D01*
X65907208Y-63480671D01*
G36*
X66425000Y-63935000D02*
G01*
X65536000Y-63935000D01*
X65536000Y-64157250D01*
X65545829Y-64306209D01*
X65601289Y-64367299D01*
X65741333Y-64379473D01*
X65758250Y-64379500D01*
X65907208Y-64389330D01*
X65968298Y-64444790D01*
X65980472Y-64584834D01*
X65980500Y-64601750D01*
X65990329Y-64750709D01*
X66045789Y-64811799D01*
X66185833Y-64823973D01*
X66202750Y-64824000D01*
X66425000Y-64824000D01*
X66425000Y-63935000D01*
G37*
X66425000Y-63935000D02*
X65536000Y-63935000D01*
X65536000Y-64157250D01*
X65545829Y-64306209D01*
X65601289Y-64367299D01*
X65741333Y-64379473D01*
X65758250Y-64379500D01*
X65907208Y-64389330D01*
X65968298Y-64444790D01*
X65980472Y-64584834D01*
X65980500Y-64601750D01*
X65990329Y-64750709D01*
X66045789Y-64811799D01*
X66185833Y-64823973D01*
X66202750Y-64824000D01*
X66425000Y-64824000D01*
X66425000Y-63935000D01*
G36*
X65980500Y-66157500D02*
G01*
X65536000Y-66157500D01*
X65536000Y-67491000D01*
X65980500Y-67491000D01*
X65980500Y-66157500D01*
G37*
X65980500Y-66157500D02*
X65536000Y-66157500D01*
X65536000Y-67491000D01*
X65980500Y-67491000D01*
X65980500Y-66157500D01*
G36*
X68574208Y-62147171D02*
G01*
X68635298Y-62091711D01*
X68647472Y-61951667D01*
X68647500Y-61934750D01*
X68637670Y-61785792D01*
X68582210Y-61724702D01*
X68442166Y-61712528D01*
X68425250Y-61712500D01*
X68276291Y-61722330D01*
X68215201Y-61777790D01*
X68203027Y-61917834D01*
X68203000Y-61934750D01*
X68212829Y-62083709D01*
X68268289Y-62144799D01*
X68408333Y-62156973D01*
X68425250Y-62157000D01*
X68574208Y-62147171D01*
G37*
X68574208Y-62147171D02*
X68635298Y-62091711D01*
X68647472Y-61951667D01*
X68647500Y-61934750D01*
X68637670Y-61785792D01*
X68582210Y-61724702D01*
X68442166Y-61712528D01*
X68425250Y-61712500D01*
X68276291Y-61722330D01*
X68215201Y-61777790D01*
X68203027Y-61917834D01*
X68203000Y-61934750D01*
X68212829Y-62083709D01*
X68268289Y-62144799D01*
X68408333Y-62156973D01*
X68425250Y-62157000D01*
X68574208Y-62147171D01*
G36*
X62424500Y-67935500D02*
G01*
X61091000Y-67935500D01*
X61091000Y-69269000D01*
X62424500Y-69269000D01*
X62424500Y-67935500D01*
G37*
X62424500Y-67935500D02*
X61091000Y-67935500D01*
X61091000Y-69269000D01*
X62424500Y-69269000D01*
X62424500Y-67935500D01*
G36*
X70425500Y-67935500D02*
G01*
X69092000Y-67935500D01*
X69092000Y-69269000D01*
X70425500Y-69269000D01*
X70425500Y-67935500D01*
G37*
X70425500Y-67935500D02*
X69092000Y-67935500D01*
X69092000Y-69269000D01*
X70425500Y-69269000D01*
X70425500Y-67935500D01*
D13*
%TO.C,BT1*%
X53710000Y-58420000D02*
X51710000Y-58420000D01*
X52710000Y-59420000D02*
X52710000Y-57420000D01*
X77060000Y-72770000D02*
X77060000Y-68270000D01*
X54360000Y-72770000D02*
X54360000Y-68270000D01*
X54360000Y-72770000D02*
X77060000Y-72770000D01*
X80260000Y-68270000D02*
X80260000Y-66720000D01*
X77060000Y-68270000D02*
X80260000Y-68270000D01*
X51160000Y-68270000D02*
X51160000Y-66720000D01*
X54360000Y-68270000D02*
X51160000Y-68270000D01*
X51160000Y-60570000D02*
X51160000Y-62120000D01*
X54360000Y-60570000D02*
X51160000Y-60570000D01*
X56160000Y-56070000D02*
X54360000Y-57870000D01*
X54360000Y-57870000D02*
X54360000Y-60570000D01*
X77060000Y-56070000D02*
X56160000Y-56070000D01*
X77060000Y-56070000D02*
X77060000Y-60570000D01*
X80260000Y-60570000D02*
X80260000Y-62120000D01*
X77060000Y-60570000D02*
X80260000Y-60570000D01*
%TO.C,J1*%
X67600000Y-75870000D02*
X63720000Y-75870000D01*
X62550000Y-78990000D02*
X63600000Y-78990000D01*
X62550000Y-77840000D02*
X62550000Y-78990000D01*
X67720000Y-78990000D02*
X67720000Y-79980000D01*
X68770000Y-78990000D02*
X67720000Y-78990000D01*
X68770000Y-77840000D02*
X68770000Y-78990000D01*
%TD*%
M02*
