%TF.GenerationSoftware,KiCad,Pcbnew,(5.1.6)-1*%
%TF.CreationDate,2020-11-28T14:47:11+02:00*%
%TF.ProjectId,PlantBuddy,506c616e-7442-4756-9464-792e6b696361,rev?*%
%TF.SameCoordinates,Original*%
%TF.FileFunction,Soldermask,Top*%
%TF.FilePolarity,Negative*%
%FSLAX46Y46*%
G04 Gerber Fmt 4.6, Leading zero omitted, Abs format (unit mm)*
G04 Created by KiCad (PCBNEW (5.1.6)-1) date 2020-11-28 14:47:11*
%MOMM*%
%LPD*%
G01*
G04 APERTURE LIST*
%ADD10C,1.252000*%
%ADD11R,1.000000X0.900000*%
%ADD12R,1.300000X1.500000*%
%ADD13R,1.900000X1.100000*%
%ADD14R,3.400000X3.400000*%
%ADD15C,1.600000*%
%ADD16C,1.000000*%
%ADD17R,2.600000X1.350000*%
%ADD18C,0.800000*%
%ADD19C,0.100000*%
%ADD20R,1.100000X1.700000*%
%ADD21R,0.750000X0.450000*%
G04 APERTURE END LIST*
D10*
%TO.C,REF\u002A\u002A*%
X65730000Y-131410000D03*
%TD*%
%TO.C,REF\u002A\u002A*%
X75590000Y-51750000D03*
%TD*%
%TO.C,REF\u002A\u002A*%
X55780000Y-51755000D03*
%TD*%
%TO.C,C6*%
G36*
G01*
X71855000Y-64297500D02*
X71855000Y-63902500D01*
G75*
G02*
X72027500Y-63730000I172500J0D01*
G01*
X72372500Y-63730000D01*
G75*
G02*
X72545000Y-63902500I0J-172500D01*
G01*
X72545000Y-64297500D01*
G75*
G02*
X72372500Y-64470000I-172500J0D01*
G01*
X72027500Y-64470000D01*
G75*
G02*
X71855000Y-64297500I0J172500D01*
G01*
G37*
G36*
G01*
X70885000Y-64297500D02*
X70885000Y-63902500D01*
G75*
G02*
X71057500Y-63730000I172500J0D01*
G01*
X71402500Y-63730000D01*
G75*
G02*
X71575000Y-63902500I0J-172500D01*
G01*
X71575000Y-64297500D01*
G75*
G02*
X71402500Y-64470000I-172500J0D01*
G01*
X71057500Y-64470000D01*
G75*
G02*
X70885000Y-64297500I0J172500D01*
G01*
G37*
%TD*%
%TO.C,C8*%
G36*
G01*
X58828750Y-59560000D02*
X59391250Y-59560000D01*
G75*
G02*
X59635000Y-59803750I0J-243750D01*
G01*
X59635000Y-60291250D01*
G75*
G02*
X59391250Y-60535000I-243750J0D01*
G01*
X58828750Y-60535000D01*
G75*
G02*
X58585000Y-60291250I0J243750D01*
G01*
X58585000Y-59803750D01*
G75*
G02*
X58828750Y-59560000I243750J0D01*
G01*
G37*
G36*
G01*
X58828750Y-57985000D02*
X59391250Y-57985000D01*
G75*
G02*
X59635000Y-58228750I0J-243750D01*
G01*
X59635000Y-58716250D01*
G75*
G02*
X59391250Y-58960000I-243750J0D01*
G01*
X58828750Y-58960000D01*
G75*
G02*
X58585000Y-58716250I0J243750D01*
G01*
X58585000Y-58228750D01*
G75*
G02*
X58828750Y-57985000I243750J0D01*
G01*
G37*
%TD*%
%TO.C,C11*%
G36*
G01*
X71560000Y-58602500D02*
X71560000Y-58997500D01*
G75*
G02*
X71387500Y-59170000I-172500J0D01*
G01*
X71042500Y-59170000D01*
G75*
G02*
X70870000Y-58997500I0J172500D01*
G01*
X70870000Y-58602500D01*
G75*
G02*
X71042500Y-58430000I172500J0D01*
G01*
X71387500Y-58430000D01*
G75*
G02*
X71560000Y-58602500I0J-172500D01*
G01*
G37*
G36*
G01*
X72530000Y-58602500D02*
X72530000Y-58997500D01*
G75*
G02*
X72357500Y-59170000I-172500J0D01*
G01*
X72012500Y-59170000D01*
G75*
G02*
X71840000Y-58997500I0J172500D01*
G01*
X71840000Y-58602500D01*
G75*
G02*
X72012500Y-58430000I172500J0D01*
G01*
X72357500Y-58430000D01*
G75*
G02*
X72530000Y-58602500I0J-172500D01*
G01*
G37*
%TD*%
%TO.C,C13*%
G36*
G01*
X56170000Y-62387500D02*
X56170000Y-61992500D01*
G75*
G02*
X56342500Y-61820000I172500J0D01*
G01*
X56687500Y-61820000D01*
G75*
G02*
X56860000Y-61992500I0J-172500D01*
G01*
X56860000Y-62387500D01*
G75*
G02*
X56687500Y-62560000I-172500J0D01*
G01*
X56342500Y-62560000D01*
G75*
G02*
X56170000Y-62387500I0J172500D01*
G01*
G37*
G36*
G01*
X55200000Y-62387500D02*
X55200000Y-61992500D01*
G75*
G02*
X55372500Y-61820000I172500J0D01*
G01*
X55717500Y-61820000D01*
G75*
G02*
X55890000Y-61992500I0J-172500D01*
G01*
X55890000Y-62387500D01*
G75*
G02*
X55717500Y-62560000I-172500J0D01*
G01*
X55372500Y-62560000D01*
G75*
G02*
X55200000Y-62387500I0J172500D01*
G01*
G37*
%TD*%
%TO.C,C14*%
G36*
G01*
X56180000Y-64067500D02*
X56180000Y-63672500D01*
G75*
G02*
X56352500Y-63500000I172500J0D01*
G01*
X56697500Y-63500000D01*
G75*
G02*
X56870000Y-63672500I0J-172500D01*
G01*
X56870000Y-64067500D01*
G75*
G02*
X56697500Y-64240000I-172500J0D01*
G01*
X56352500Y-64240000D01*
G75*
G02*
X56180000Y-64067500I0J172500D01*
G01*
G37*
G36*
G01*
X55210000Y-64067500D02*
X55210000Y-63672500D01*
G75*
G02*
X55382500Y-63500000I172500J0D01*
G01*
X55727500Y-63500000D01*
G75*
G02*
X55900000Y-63672500I0J-172500D01*
G01*
X55900000Y-64067500D01*
G75*
G02*
X55727500Y-64240000I-172500J0D01*
G01*
X55382500Y-64240000D01*
G75*
G02*
X55210000Y-64067500I0J172500D01*
G01*
G37*
%TD*%
%TO.C,C19*%
G36*
G01*
X66142500Y-58840000D02*
X66537500Y-58840000D01*
G75*
G02*
X66710000Y-59012500I0J-172500D01*
G01*
X66710000Y-59357500D01*
G75*
G02*
X66537500Y-59530000I-172500J0D01*
G01*
X66142500Y-59530000D01*
G75*
G02*
X65970000Y-59357500I0J172500D01*
G01*
X65970000Y-59012500D01*
G75*
G02*
X66142500Y-58840000I172500J0D01*
G01*
G37*
G36*
G01*
X66142500Y-57870000D02*
X66537500Y-57870000D01*
G75*
G02*
X66710000Y-58042500I0J-172500D01*
G01*
X66710000Y-58387500D01*
G75*
G02*
X66537500Y-58560000I-172500J0D01*
G01*
X66142500Y-58560000D01*
G75*
G02*
X65970000Y-58387500I0J172500D01*
G01*
X65970000Y-58042500D01*
G75*
G02*
X66142500Y-57870000I172500J0D01*
G01*
G37*
%TD*%
%TO.C,C20*%
G36*
G01*
X64102500Y-59800000D02*
X64497500Y-59800000D01*
G75*
G02*
X64670000Y-59972500I0J-172500D01*
G01*
X64670000Y-60317500D01*
G75*
G02*
X64497500Y-60490000I-172500J0D01*
G01*
X64102500Y-60490000D01*
G75*
G02*
X63930000Y-60317500I0J172500D01*
G01*
X63930000Y-59972500D01*
G75*
G02*
X64102500Y-59800000I172500J0D01*
G01*
G37*
G36*
G01*
X64102500Y-58830000D02*
X64497500Y-58830000D01*
G75*
G02*
X64670000Y-59002500I0J-172500D01*
G01*
X64670000Y-59347500D01*
G75*
G02*
X64497500Y-59520000I-172500J0D01*
G01*
X64102500Y-59520000D01*
G75*
G02*
X63930000Y-59347500I0J172500D01*
G01*
X63930000Y-59002500D01*
G75*
G02*
X64102500Y-58830000I172500J0D01*
G01*
G37*
%TD*%
%TO.C,C22*%
G36*
G01*
X64092500Y-57810000D02*
X64487500Y-57810000D01*
G75*
G02*
X64660000Y-57982500I0J-172500D01*
G01*
X64660000Y-58327500D01*
G75*
G02*
X64487500Y-58500000I-172500J0D01*
G01*
X64092500Y-58500000D01*
G75*
G02*
X63920000Y-58327500I0J172500D01*
G01*
X63920000Y-57982500D01*
G75*
G02*
X64092500Y-57810000I172500J0D01*
G01*
G37*
G36*
G01*
X64092500Y-56840000D02*
X64487500Y-56840000D01*
G75*
G02*
X64660000Y-57012500I0J-172500D01*
G01*
X64660000Y-57357500D01*
G75*
G02*
X64487500Y-57530000I-172500J0D01*
G01*
X64092500Y-57530000D01*
G75*
G02*
X63920000Y-57357500I0J172500D01*
G01*
X63920000Y-57012500D01*
G75*
G02*
X64092500Y-56840000I172500J0D01*
G01*
G37*
%TD*%
%TO.C,C23*%
G36*
G01*
X61477500Y-58510000D02*
X61082500Y-58510000D01*
G75*
G02*
X60910000Y-58337500I0J172500D01*
G01*
X60910000Y-57992500D01*
G75*
G02*
X61082500Y-57820000I172500J0D01*
G01*
X61477500Y-57820000D01*
G75*
G02*
X61650000Y-57992500I0J-172500D01*
G01*
X61650000Y-58337500D01*
G75*
G02*
X61477500Y-58510000I-172500J0D01*
G01*
G37*
G36*
G01*
X61477500Y-59480000D02*
X61082500Y-59480000D01*
G75*
G02*
X60910000Y-59307500I0J172500D01*
G01*
X60910000Y-58962500D01*
G75*
G02*
X61082500Y-58790000I172500J0D01*
G01*
X61477500Y-58790000D01*
G75*
G02*
X61650000Y-58962500I0J-172500D01*
G01*
X61650000Y-59307500D01*
G75*
G02*
X61477500Y-59480000I-172500J0D01*
G01*
G37*
%TD*%
%TO.C,D2*%
G36*
G01*
X65151250Y-75197500D02*
X64588750Y-75197500D01*
G75*
G02*
X64345000Y-74953750I0J243750D01*
G01*
X64345000Y-74466250D01*
G75*
G02*
X64588750Y-74222500I243750J0D01*
G01*
X65151250Y-74222500D01*
G75*
G02*
X65395000Y-74466250I0J-243750D01*
G01*
X65395000Y-74953750D01*
G75*
G02*
X65151250Y-75197500I-243750J0D01*
G01*
G37*
G36*
G01*
X65151250Y-76772500D02*
X64588750Y-76772500D01*
G75*
G02*
X64345000Y-76528750I0J243750D01*
G01*
X64345000Y-76041250D01*
G75*
G02*
X64588750Y-75797500I243750J0D01*
G01*
X65151250Y-75797500D01*
G75*
G02*
X65395000Y-76041250I0J-243750D01*
G01*
X65395000Y-76528750D01*
G75*
G02*
X65151250Y-76772500I-243750J0D01*
G01*
G37*
%TD*%
%TO.C,L1*%
G36*
G01*
X67930000Y-60357500D02*
X67930000Y-59962500D01*
G75*
G02*
X68102500Y-59790000I172500J0D01*
G01*
X68447500Y-59790000D01*
G75*
G02*
X68620000Y-59962500I0J-172500D01*
G01*
X68620000Y-60357500D01*
G75*
G02*
X68447500Y-60530000I-172500J0D01*
G01*
X68102500Y-60530000D01*
G75*
G02*
X67930000Y-60357500I0J172500D01*
G01*
G37*
G36*
G01*
X66960000Y-60357500D02*
X66960000Y-59962500D01*
G75*
G02*
X67132500Y-59790000I172500J0D01*
G01*
X67477500Y-59790000D01*
G75*
G02*
X67650000Y-59962500I0J-172500D01*
G01*
X67650000Y-60357500D01*
G75*
G02*
X67477500Y-60530000I-172500J0D01*
G01*
X67132500Y-60530000D01*
G75*
G02*
X66960000Y-60357500I0J172500D01*
G01*
G37*
%TD*%
%TO.C,L2*%
G36*
G01*
X65517500Y-58560000D02*
X65122500Y-58560000D01*
G75*
G02*
X64950000Y-58387500I0J172500D01*
G01*
X64950000Y-58042500D01*
G75*
G02*
X65122500Y-57870000I172500J0D01*
G01*
X65517500Y-57870000D01*
G75*
G02*
X65690000Y-58042500I0J-172500D01*
G01*
X65690000Y-58387500D01*
G75*
G02*
X65517500Y-58560000I-172500J0D01*
G01*
G37*
G36*
G01*
X65517500Y-59530000D02*
X65122500Y-59530000D01*
G75*
G02*
X64950000Y-59357500I0J172500D01*
G01*
X64950000Y-59012500D01*
G75*
G02*
X65122500Y-58840000I172500J0D01*
G01*
X65517500Y-58840000D01*
G75*
G02*
X65690000Y-59012500I0J-172500D01*
G01*
X65690000Y-59357500D01*
G75*
G02*
X65517500Y-59530000I-172500J0D01*
G01*
G37*
%TD*%
%TO.C,L3*%
G36*
G01*
X62670000Y-57962500D02*
X62670000Y-58357500D01*
G75*
G02*
X62497500Y-58530000I-172500J0D01*
G01*
X62152500Y-58530000D01*
G75*
G02*
X61980000Y-58357500I0J172500D01*
G01*
X61980000Y-57962500D01*
G75*
G02*
X62152500Y-57790000I172500J0D01*
G01*
X62497500Y-57790000D01*
G75*
G02*
X62670000Y-57962500I0J-172500D01*
G01*
G37*
G36*
G01*
X63640000Y-57962500D02*
X63640000Y-58357500D01*
G75*
G02*
X63467500Y-58530000I-172500J0D01*
G01*
X63122500Y-58530000D01*
G75*
G02*
X62950000Y-58357500I0J172500D01*
G01*
X62950000Y-57962500D01*
G75*
G02*
X63122500Y-57790000I172500J0D01*
G01*
X63467500Y-57790000D01*
G75*
G02*
X63640000Y-57962500I0J-172500D01*
G01*
G37*
%TD*%
D11*
%TO.C,Q1*%
X56640000Y-76340000D03*
X58640000Y-75390000D03*
X58640000Y-77290000D03*
%TD*%
%TO.C,U3*%
G36*
G01*
X52490000Y-68450000D02*
X52490000Y-68100000D01*
G75*
G02*
X52665000Y-67925000I175000J0D01*
G01*
X54365000Y-67925000D01*
G75*
G02*
X54540000Y-68100000I0J-175000D01*
G01*
X54540000Y-68450000D01*
G75*
G02*
X54365000Y-68625000I-175000J0D01*
G01*
X52665000Y-68625000D01*
G75*
G02*
X52490000Y-68450000I0J175000D01*
G01*
G37*
G36*
G01*
X52490000Y-69720000D02*
X52490000Y-69370000D01*
G75*
G02*
X52665000Y-69195000I175000J0D01*
G01*
X54365000Y-69195000D01*
G75*
G02*
X54540000Y-69370000I0J-175000D01*
G01*
X54540000Y-69720000D01*
G75*
G02*
X54365000Y-69895000I-175000J0D01*
G01*
X52665000Y-69895000D01*
G75*
G02*
X52490000Y-69720000I0J175000D01*
G01*
G37*
G36*
G01*
X52490000Y-70990000D02*
X52490000Y-70640000D01*
G75*
G02*
X52665000Y-70465000I175000J0D01*
G01*
X54365000Y-70465000D01*
G75*
G02*
X54540000Y-70640000I0J-175000D01*
G01*
X54540000Y-70990000D01*
G75*
G02*
X54365000Y-71165000I-175000J0D01*
G01*
X52665000Y-71165000D01*
G75*
G02*
X52490000Y-70990000I0J175000D01*
G01*
G37*
G36*
G01*
X52490000Y-72260000D02*
X52490000Y-71910000D01*
G75*
G02*
X52665000Y-71735000I175000J0D01*
G01*
X54365000Y-71735000D01*
G75*
G02*
X54540000Y-71910000I0J-175000D01*
G01*
X54540000Y-72260000D01*
G75*
G02*
X54365000Y-72435000I-175000J0D01*
G01*
X52665000Y-72435000D01*
G75*
G02*
X52490000Y-72260000I0J175000D01*
G01*
G37*
G36*
G01*
X57440000Y-72260000D02*
X57440000Y-71910000D01*
G75*
G02*
X57615000Y-71735000I175000J0D01*
G01*
X59315000Y-71735000D01*
G75*
G02*
X59490000Y-71910000I0J-175000D01*
G01*
X59490000Y-72260000D01*
G75*
G02*
X59315000Y-72435000I-175000J0D01*
G01*
X57615000Y-72435000D01*
G75*
G02*
X57440000Y-72260000I0J175000D01*
G01*
G37*
G36*
G01*
X57440000Y-70990000D02*
X57440000Y-70640000D01*
G75*
G02*
X57615000Y-70465000I175000J0D01*
G01*
X59315000Y-70465000D01*
G75*
G02*
X59490000Y-70640000I0J-175000D01*
G01*
X59490000Y-70990000D01*
G75*
G02*
X59315000Y-71165000I-175000J0D01*
G01*
X57615000Y-71165000D01*
G75*
G02*
X57440000Y-70990000I0J175000D01*
G01*
G37*
G36*
G01*
X57440000Y-69720000D02*
X57440000Y-69370000D01*
G75*
G02*
X57615000Y-69195000I175000J0D01*
G01*
X59315000Y-69195000D01*
G75*
G02*
X59490000Y-69370000I0J-175000D01*
G01*
X59490000Y-69720000D01*
G75*
G02*
X59315000Y-69895000I-175000J0D01*
G01*
X57615000Y-69895000D01*
G75*
G02*
X57440000Y-69720000I0J175000D01*
G01*
G37*
G36*
G01*
X57440000Y-68450000D02*
X57440000Y-68100000D01*
G75*
G02*
X57615000Y-67925000I175000J0D01*
G01*
X59315000Y-67925000D01*
G75*
G02*
X59490000Y-68100000I0J-175000D01*
G01*
X59490000Y-68450000D01*
G75*
G02*
X59315000Y-68625000I-175000J0D01*
G01*
X57615000Y-68625000D01*
G75*
G02*
X57440000Y-68450000I0J175000D01*
G01*
G37*
%TD*%
D12*
%TO.C,Y1*%
X70850000Y-62600000D03*
X70850000Y-60400000D03*
X72550000Y-60400000D03*
X72550000Y-62600000D03*
%TD*%
D13*
%TO.C,Y2*%
X58240000Y-64250000D03*
X58240000Y-61750000D03*
%TD*%
%TO.C,C26*%
G36*
G01*
X60962500Y-56790000D02*
X61357500Y-56790000D01*
G75*
G02*
X61530000Y-56962500I0J-172500D01*
G01*
X61530000Y-57307500D01*
G75*
G02*
X61357500Y-57480000I-172500J0D01*
G01*
X60962500Y-57480000D01*
G75*
G02*
X60790000Y-57307500I0J172500D01*
G01*
X60790000Y-56962500D01*
G75*
G02*
X60962500Y-56790000I172500J0D01*
G01*
G37*
G36*
G01*
X60962500Y-55820000D02*
X61357500Y-55820000D01*
G75*
G02*
X61530000Y-55992500I0J-172500D01*
G01*
X61530000Y-56337500D01*
G75*
G02*
X61357500Y-56510000I-172500J0D01*
G01*
X60962500Y-56510000D01*
G75*
G02*
X60790000Y-56337500I0J172500D01*
G01*
X60790000Y-55992500D01*
G75*
G02*
X60962500Y-55820000I172500J0D01*
G01*
G37*
%TD*%
%TO.C,C18*%
G36*
G01*
X65660000Y-60002500D02*
X65660000Y-60397500D01*
G75*
G02*
X65487500Y-60570000I-172500J0D01*
G01*
X65142500Y-60570000D01*
G75*
G02*
X64970000Y-60397500I0J172500D01*
G01*
X64970000Y-60002500D01*
G75*
G02*
X65142500Y-59830000I172500J0D01*
G01*
X65487500Y-59830000D01*
G75*
G02*
X65660000Y-60002500I0J-172500D01*
G01*
G37*
G36*
G01*
X66630000Y-60002500D02*
X66630000Y-60397500D01*
G75*
G02*
X66457500Y-60570000I-172500J0D01*
G01*
X66112500Y-60570000D01*
G75*
G02*
X65940000Y-60397500I0J172500D01*
G01*
X65940000Y-60002500D01*
G75*
G02*
X66112500Y-59830000I172500J0D01*
G01*
X66457500Y-59830000D01*
G75*
G02*
X66630000Y-60002500I0J-172500D01*
G01*
G37*
%TD*%
D14*
%TO.C,U5*%
X65785000Y-64565000D03*
G36*
G01*
X63747500Y-66490000D02*
X62947500Y-66490000D01*
G75*
G02*
X62860000Y-66402500I0J87500D01*
G01*
X62860000Y-66227500D01*
G75*
G02*
X62947500Y-66140000I87500J0D01*
G01*
X63747500Y-66140000D01*
G75*
G02*
X63835000Y-66227500I0J-87500D01*
G01*
X63835000Y-66402500D01*
G75*
G02*
X63747500Y-66490000I-87500J0D01*
G01*
G37*
G36*
G01*
X63747500Y-65990000D02*
X62947500Y-65990000D01*
G75*
G02*
X62860000Y-65902500I0J87500D01*
G01*
X62860000Y-65727500D01*
G75*
G02*
X62947500Y-65640000I87500J0D01*
G01*
X63747500Y-65640000D01*
G75*
G02*
X63835000Y-65727500I0J-87500D01*
G01*
X63835000Y-65902500D01*
G75*
G02*
X63747500Y-65990000I-87500J0D01*
G01*
G37*
G36*
G01*
X63747500Y-65490000D02*
X62947500Y-65490000D01*
G75*
G02*
X62860000Y-65402500I0J87500D01*
G01*
X62860000Y-65227500D01*
G75*
G02*
X62947500Y-65140000I87500J0D01*
G01*
X63747500Y-65140000D01*
G75*
G02*
X63835000Y-65227500I0J-87500D01*
G01*
X63835000Y-65402500D01*
G75*
G02*
X63747500Y-65490000I-87500J0D01*
G01*
G37*
G36*
G01*
X63747500Y-64990000D02*
X62947500Y-64990000D01*
G75*
G02*
X62860000Y-64902500I0J87500D01*
G01*
X62860000Y-64727500D01*
G75*
G02*
X62947500Y-64640000I87500J0D01*
G01*
X63747500Y-64640000D01*
G75*
G02*
X63835000Y-64727500I0J-87500D01*
G01*
X63835000Y-64902500D01*
G75*
G02*
X63747500Y-64990000I-87500J0D01*
G01*
G37*
G36*
G01*
X63747500Y-64490000D02*
X62947500Y-64490000D01*
G75*
G02*
X62860000Y-64402500I0J87500D01*
G01*
X62860000Y-64227500D01*
G75*
G02*
X62947500Y-64140000I87500J0D01*
G01*
X63747500Y-64140000D01*
G75*
G02*
X63835000Y-64227500I0J-87500D01*
G01*
X63835000Y-64402500D01*
G75*
G02*
X63747500Y-64490000I-87500J0D01*
G01*
G37*
G36*
G01*
X63747500Y-63990000D02*
X62947500Y-63990000D01*
G75*
G02*
X62860000Y-63902500I0J87500D01*
G01*
X62860000Y-63727500D01*
G75*
G02*
X62947500Y-63640000I87500J0D01*
G01*
X63747500Y-63640000D01*
G75*
G02*
X63835000Y-63727500I0J-87500D01*
G01*
X63835000Y-63902500D01*
G75*
G02*
X63747500Y-63990000I-87500J0D01*
G01*
G37*
G36*
G01*
X63747500Y-63490000D02*
X62947500Y-63490000D01*
G75*
G02*
X62860000Y-63402500I0J87500D01*
G01*
X62860000Y-63227500D01*
G75*
G02*
X62947500Y-63140000I87500J0D01*
G01*
X63747500Y-63140000D01*
G75*
G02*
X63835000Y-63227500I0J-87500D01*
G01*
X63835000Y-63402500D01*
G75*
G02*
X63747500Y-63490000I-87500J0D01*
G01*
G37*
G36*
G01*
X63747500Y-62990000D02*
X62947500Y-62990000D01*
G75*
G02*
X62860000Y-62902500I0J87500D01*
G01*
X62860000Y-62727500D01*
G75*
G02*
X62947500Y-62640000I87500J0D01*
G01*
X63747500Y-62640000D01*
G75*
G02*
X63835000Y-62727500I0J-87500D01*
G01*
X63835000Y-62902500D01*
G75*
G02*
X63747500Y-62990000I-87500J0D01*
G01*
G37*
G36*
G01*
X64122500Y-62615000D02*
X63947500Y-62615000D01*
G75*
G02*
X63860000Y-62527500I0J87500D01*
G01*
X63860000Y-61727500D01*
G75*
G02*
X63947500Y-61640000I87500J0D01*
G01*
X64122500Y-61640000D01*
G75*
G02*
X64210000Y-61727500I0J-87500D01*
G01*
X64210000Y-62527500D01*
G75*
G02*
X64122500Y-62615000I-87500J0D01*
G01*
G37*
G36*
G01*
X64622500Y-62615000D02*
X64447500Y-62615000D01*
G75*
G02*
X64360000Y-62527500I0J87500D01*
G01*
X64360000Y-61727500D01*
G75*
G02*
X64447500Y-61640000I87500J0D01*
G01*
X64622500Y-61640000D01*
G75*
G02*
X64710000Y-61727500I0J-87500D01*
G01*
X64710000Y-62527500D01*
G75*
G02*
X64622500Y-62615000I-87500J0D01*
G01*
G37*
G36*
G01*
X65122500Y-62615000D02*
X64947500Y-62615000D01*
G75*
G02*
X64860000Y-62527500I0J87500D01*
G01*
X64860000Y-61727500D01*
G75*
G02*
X64947500Y-61640000I87500J0D01*
G01*
X65122500Y-61640000D01*
G75*
G02*
X65210000Y-61727500I0J-87500D01*
G01*
X65210000Y-62527500D01*
G75*
G02*
X65122500Y-62615000I-87500J0D01*
G01*
G37*
G36*
G01*
X65622500Y-62615000D02*
X65447500Y-62615000D01*
G75*
G02*
X65360000Y-62527500I0J87500D01*
G01*
X65360000Y-61727500D01*
G75*
G02*
X65447500Y-61640000I87500J0D01*
G01*
X65622500Y-61640000D01*
G75*
G02*
X65710000Y-61727500I0J-87500D01*
G01*
X65710000Y-62527500D01*
G75*
G02*
X65622500Y-62615000I-87500J0D01*
G01*
G37*
G36*
G01*
X66122500Y-62615000D02*
X65947500Y-62615000D01*
G75*
G02*
X65860000Y-62527500I0J87500D01*
G01*
X65860000Y-61727500D01*
G75*
G02*
X65947500Y-61640000I87500J0D01*
G01*
X66122500Y-61640000D01*
G75*
G02*
X66210000Y-61727500I0J-87500D01*
G01*
X66210000Y-62527500D01*
G75*
G02*
X66122500Y-62615000I-87500J0D01*
G01*
G37*
G36*
G01*
X66622500Y-62615000D02*
X66447500Y-62615000D01*
G75*
G02*
X66360000Y-62527500I0J87500D01*
G01*
X66360000Y-61727500D01*
G75*
G02*
X66447500Y-61640000I87500J0D01*
G01*
X66622500Y-61640000D01*
G75*
G02*
X66710000Y-61727500I0J-87500D01*
G01*
X66710000Y-62527500D01*
G75*
G02*
X66622500Y-62615000I-87500J0D01*
G01*
G37*
G36*
G01*
X67122500Y-62615000D02*
X66947500Y-62615000D01*
G75*
G02*
X66860000Y-62527500I0J87500D01*
G01*
X66860000Y-61727500D01*
G75*
G02*
X66947500Y-61640000I87500J0D01*
G01*
X67122500Y-61640000D01*
G75*
G02*
X67210000Y-61727500I0J-87500D01*
G01*
X67210000Y-62527500D01*
G75*
G02*
X67122500Y-62615000I-87500J0D01*
G01*
G37*
G36*
G01*
X67622500Y-62615000D02*
X67447500Y-62615000D01*
G75*
G02*
X67360000Y-62527500I0J87500D01*
G01*
X67360000Y-61727500D01*
G75*
G02*
X67447500Y-61640000I87500J0D01*
G01*
X67622500Y-61640000D01*
G75*
G02*
X67710000Y-61727500I0J-87500D01*
G01*
X67710000Y-62527500D01*
G75*
G02*
X67622500Y-62615000I-87500J0D01*
G01*
G37*
G36*
G01*
X68622500Y-62990000D02*
X67822500Y-62990000D01*
G75*
G02*
X67735000Y-62902500I0J87500D01*
G01*
X67735000Y-62727500D01*
G75*
G02*
X67822500Y-62640000I87500J0D01*
G01*
X68622500Y-62640000D01*
G75*
G02*
X68710000Y-62727500I0J-87500D01*
G01*
X68710000Y-62902500D01*
G75*
G02*
X68622500Y-62990000I-87500J0D01*
G01*
G37*
G36*
G01*
X68622500Y-63490000D02*
X67822500Y-63490000D01*
G75*
G02*
X67735000Y-63402500I0J87500D01*
G01*
X67735000Y-63227500D01*
G75*
G02*
X67822500Y-63140000I87500J0D01*
G01*
X68622500Y-63140000D01*
G75*
G02*
X68710000Y-63227500I0J-87500D01*
G01*
X68710000Y-63402500D01*
G75*
G02*
X68622500Y-63490000I-87500J0D01*
G01*
G37*
G36*
G01*
X68622500Y-63990000D02*
X67822500Y-63990000D01*
G75*
G02*
X67735000Y-63902500I0J87500D01*
G01*
X67735000Y-63727500D01*
G75*
G02*
X67822500Y-63640000I87500J0D01*
G01*
X68622500Y-63640000D01*
G75*
G02*
X68710000Y-63727500I0J-87500D01*
G01*
X68710000Y-63902500D01*
G75*
G02*
X68622500Y-63990000I-87500J0D01*
G01*
G37*
G36*
G01*
X68622500Y-64490000D02*
X67822500Y-64490000D01*
G75*
G02*
X67735000Y-64402500I0J87500D01*
G01*
X67735000Y-64227500D01*
G75*
G02*
X67822500Y-64140000I87500J0D01*
G01*
X68622500Y-64140000D01*
G75*
G02*
X68710000Y-64227500I0J-87500D01*
G01*
X68710000Y-64402500D01*
G75*
G02*
X68622500Y-64490000I-87500J0D01*
G01*
G37*
G36*
G01*
X68622500Y-64990000D02*
X67822500Y-64990000D01*
G75*
G02*
X67735000Y-64902500I0J87500D01*
G01*
X67735000Y-64727500D01*
G75*
G02*
X67822500Y-64640000I87500J0D01*
G01*
X68622500Y-64640000D01*
G75*
G02*
X68710000Y-64727500I0J-87500D01*
G01*
X68710000Y-64902500D01*
G75*
G02*
X68622500Y-64990000I-87500J0D01*
G01*
G37*
G36*
G01*
X68622500Y-65490000D02*
X67822500Y-65490000D01*
G75*
G02*
X67735000Y-65402500I0J87500D01*
G01*
X67735000Y-65227500D01*
G75*
G02*
X67822500Y-65140000I87500J0D01*
G01*
X68622500Y-65140000D01*
G75*
G02*
X68710000Y-65227500I0J-87500D01*
G01*
X68710000Y-65402500D01*
G75*
G02*
X68622500Y-65490000I-87500J0D01*
G01*
G37*
G36*
G01*
X68622500Y-65990000D02*
X67822500Y-65990000D01*
G75*
G02*
X67735000Y-65902500I0J87500D01*
G01*
X67735000Y-65727500D01*
G75*
G02*
X67822500Y-65640000I87500J0D01*
G01*
X68622500Y-65640000D01*
G75*
G02*
X68710000Y-65727500I0J-87500D01*
G01*
X68710000Y-65902500D01*
G75*
G02*
X68622500Y-65990000I-87500J0D01*
G01*
G37*
G36*
G01*
X68622500Y-66490000D02*
X67822500Y-66490000D01*
G75*
G02*
X67735000Y-66402500I0J87500D01*
G01*
X67735000Y-66227500D01*
G75*
G02*
X67822500Y-66140000I87500J0D01*
G01*
X68622500Y-66140000D01*
G75*
G02*
X68710000Y-66227500I0J-87500D01*
G01*
X68710000Y-66402500D01*
G75*
G02*
X68622500Y-66490000I-87500J0D01*
G01*
G37*
G36*
G01*
X67622500Y-67490000D02*
X67447500Y-67490000D01*
G75*
G02*
X67360000Y-67402500I0J87500D01*
G01*
X67360000Y-66602500D01*
G75*
G02*
X67447500Y-66515000I87500J0D01*
G01*
X67622500Y-66515000D01*
G75*
G02*
X67710000Y-66602500I0J-87500D01*
G01*
X67710000Y-67402500D01*
G75*
G02*
X67622500Y-67490000I-87500J0D01*
G01*
G37*
G36*
G01*
X67122500Y-67490000D02*
X66947500Y-67490000D01*
G75*
G02*
X66860000Y-67402500I0J87500D01*
G01*
X66860000Y-66602500D01*
G75*
G02*
X66947500Y-66515000I87500J0D01*
G01*
X67122500Y-66515000D01*
G75*
G02*
X67210000Y-66602500I0J-87500D01*
G01*
X67210000Y-67402500D01*
G75*
G02*
X67122500Y-67490000I-87500J0D01*
G01*
G37*
G36*
G01*
X66622500Y-67490000D02*
X66447500Y-67490000D01*
G75*
G02*
X66360000Y-67402500I0J87500D01*
G01*
X66360000Y-66602500D01*
G75*
G02*
X66447500Y-66515000I87500J0D01*
G01*
X66622500Y-66515000D01*
G75*
G02*
X66710000Y-66602500I0J-87500D01*
G01*
X66710000Y-67402500D01*
G75*
G02*
X66622500Y-67490000I-87500J0D01*
G01*
G37*
G36*
G01*
X66122500Y-67490000D02*
X65947500Y-67490000D01*
G75*
G02*
X65860000Y-67402500I0J87500D01*
G01*
X65860000Y-66602500D01*
G75*
G02*
X65947500Y-66515000I87500J0D01*
G01*
X66122500Y-66515000D01*
G75*
G02*
X66210000Y-66602500I0J-87500D01*
G01*
X66210000Y-67402500D01*
G75*
G02*
X66122500Y-67490000I-87500J0D01*
G01*
G37*
G36*
G01*
X65622500Y-67490000D02*
X65447500Y-67490000D01*
G75*
G02*
X65360000Y-67402500I0J87500D01*
G01*
X65360000Y-66602500D01*
G75*
G02*
X65447500Y-66515000I87500J0D01*
G01*
X65622500Y-66515000D01*
G75*
G02*
X65710000Y-66602500I0J-87500D01*
G01*
X65710000Y-67402500D01*
G75*
G02*
X65622500Y-67490000I-87500J0D01*
G01*
G37*
G36*
G01*
X65122500Y-67490000D02*
X64947500Y-67490000D01*
G75*
G02*
X64860000Y-67402500I0J87500D01*
G01*
X64860000Y-66602500D01*
G75*
G02*
X64947500Y-66515000I87500J0D01*
G01*
X65122500Y-66515000D01*
G75*
G02*
X65210000Y-66602500I0J-87500D01*
G01*
X65210000Y-67402500D01*
G75*
G02*
X65122500Y-67490000I-87500J0D01*
G01*
G37*
G36*
G01*
X64622500Y-67490000D02*
X64447500Y-67490000D01*
G75*
G02*
X64360000Y-67402500I0J87500D01*
G01*
X64360000Y-66602500D01*
G75*
G02*
X64447500Y-66515000I87500J0D01*
G01*
X64622500Y-66515000D01*
G75*
G02*
X64710000Y-66602500I0J-87500D01*
G01*
X64710000Y-67402500D01*
G75*
G02*
X64622500Y-67490000I-87500J0D01*
G01*
G37*
G36*
G01*
X64122500Y-67490000D02*
X63947500Y-67490000D01*
G75*
G02*
X63860000Y-67402500I0J87500D01*
G01*
X63860000Y-66602500D01*
G75*
G02*
X63947500Y-66515000I87500J0D01*
G01*
X64122500Y-66515000D01*
G75*
G02*
X64210000Y-66602500I0J-87500D01*
G01*
X64210000Y-67402500D01*
G75*
G02*
X64122500Y-67490000I-87500J0D01*
G01*
G37*
%TD*%
%TO.C,C5*%
G36*
G01*
X55920000Y-64752500D02*
X55920000Y-65147500D01*
G75*
G02*
X55747500Y-65320000I-172500J0D01*
G01*
X55402500Y-65320000D01*
G75*
G02*
X55230000Y-65147500I0J172500D01*
G01*
X55230000Y-64752500D01*
G75*
G02*
X55402500Y-64580000I172500J0D01*
G01*
X55747500Y-64580000D01*
G75*
G02*
X55920000Y-64752500I0J-172500D01*
G01*
G37*
G36*
G01*
X56890000Y-64752500D02*
X56890000Y-65147500D01*
G75*
G02*
X56717500Y-65320000I-172500J0D01*
G01*
X56372500Y-65320000D01*
G75*
G02*
X56200000Y-65147500I0J172500D01*
G01*
X56200000Y-64752500D01*
G75*
G02*
X56372500Y-64580000I172500J0D01*
G01*
X56717500Y-64580000D01*
G75*
G02*
X56890000Y-64752500I0J-172500D01*
G01*
G37*
%TD*%
%TO.C,C16*%
G36*
G01*
X55920000Y-65822500D02*
X55920000Y-66217500D01*
G75*
G02*
X55747500Y-66390000I-172500J0D01*
G01*
X55402500Y-66390000D01*
G75*
G02*
X55230000Y-66217500I0J172500D01*
G01*
X55230000Y-65822500D01*
G75*
G02*
X55402500Y-65650000I172500J0D01*
G01*
X55747500Y-65650000D01*
G75*
G02*
X55920000Y-65822500I0J-172500D01*
G01*
G37*
G36*
G01*
X56890000Y-65822500D02*
X56890000Y-66217500D01*
G75*
G02*
X56717500Y-66390000I-172500J0D01*
G01*
X56372500Y-66390000D01*
G75*
G02*
X56200000Y-66217500I0J172500D01*
G01*
X56200000Y-65822500D01*
G75*
G02*
X56372500Y-65650000I172500J0D01*
G01*
X56717500Y-65650000D01*
G75*
G02*
X56890000Y-65822500I0J-172500D01*
G01*
G37*
%TD*%
D15*
%TO.C,J2*%
X71010000Y-70880000D03*
%TD*%
%TO.C,J3*%
X70970000Y-73560000D03*
%TD*%
%TO.C,L4*%
G36*
G01*
X59190000Y-66601250D02*
X59190000Y-65638750D01*
G75*
G02*
X59458750Y-65370000I268750J0D01*
G01*
X59996250Y-65370000D01*
G75*
G02*
X60265000Y-65638750I0J-268750D01*
G01*
X60265000Y-66601250D01*
G75*
G02*
X59996250Y-66870000I-268750J0D01*
G01*
X59458750Y-66870000D01*
G75*
G02*
X59190000Y-66601250I0J268750D01*
G01*
G37*
G36*
G01*
X57315000Y-66601250D02*
X57315000Y-65638750D01*
G75*
G02*
X57583750Y-65370000I268750J0D01*
G01*
X58121250Y-65370000D01*
G75*
G02*
X58390000Y-65638750I0J-268750D01*
G01*
X58390000Y-66601250D01*
G75*
G02*
X58121250Y-66870000I-268750J0D01*
G01*
X57583750Y-66870000D01*
G75*
G02*
X57315000Y-66601250I0J268750D01*
G01*
G37*
%TD*%
D11*
%TO.C,Q2*%
X76250000Y-69970000D03*
X74250000Y-70920000D03*
X74250000Y-69020000D03*
%TD*%
%TO.C,R1*%
G36*
G01*
X78560000Y-71732500D02*
X78560000Y-72127500D01*
G75*
G02*
X78387500Y-72300000I-172500J0D01*
G01*
X78042500Y-72300000D01*
G75*
G02*
X77870000Y-72127500I0J172500D01*
G01*
X77870000Y-71732500D01*
G75*
G02*
X78042500Y-71560000I172500J0D01*
G01*
X78387500Y-71560000D01*
G75*
G02*
X78560000Y-71732500I0J-172500D01*
G01*
G37*
G36*
G01*
X79530000Y-71732500D02*
X79530000Y-72127500D01*
G75*
G02*
X79357500Y-72300000I-172500J0D01*
G01*
X79012500Y-72300000D01*
G75*
G02*
X78840000Y-72127500I0J172500D01*
G01*
X78840000Y-71732500D01*
G75*
G02*
X79012500Y-71560000I172500J0D01*
G01*
X79357500Y-71560000D01*
G75*
G02*
X79530000Y-71732500I0J-172500D01*
G01*
G37*
%TD*%
%TO.C,R2*%
G36*
G01*
X59942500Y-76640000D02*
X60337500Y-76640000D01*
G75*
G02*
X60510000Y-76812500I0J-172500D01*
G01*
X60510000Y-77157500D01*
G75*
G02*
X60337500Y-77330000I-172500J0D01*
G01*
X59942500Y-77330000D01*
G75*
G02*
X59770000Y-77157500I0J172500D01*
G01*
X59770000Y-76812500D01*
G75*
G02*
X59942500Y-76640000I172500J0D01*
G01*
G37*
G36*
G01*
X59942500Y-75670000D02*
X60337500Y-75670000D01*
G75*
G02*
X60510000Y-75842500I0J-172500D01*
G01*
X60510000Y-76187500D01*
G75*
G02*
X60337500Y-76360000I-172500J0D01*
G01*
X59942500Y-76360000D01*
G75*
G02*
X59770000Y-76187500I0J172500D01*
G01*
X59770000Y-75842500D01*
G75*
G02*
X59942500Y-75670000I172500J0D01*
G01*
G37*
%TD*%
%TO.C,R8*%
G36*
G01*
X60212500Y-69120000D02*
X60607500Y-69120000D01*
G75*
G02*
X60780000Y-69292500I0J-172500D01*
G01*
X60780000Y-69637500D01*
G75*
G02*
X60607500Y-69810000I-172500J0D01*
G01*
X60212500Y-69810000D01*
G75*
G02*
X60040000Y-69637500I0J172500D01*
G01*
X60040000Y-69292500D01*
G75*
G02*
X60212500Y-69120000I172500J0D01*
G01*
G37*
G36*
G01*
X60212500Y-68150000D02*
X60607500Y-68150000D01*
G75*
G02*
X60780000Y-68322500I0J-172500D01*
G01*
X60780000Y-68667500D01*
G75*
G02*
X60607500Y-68840000I-172500J0D01*
G01*
X60212500Y-68840000D01*
G75*
G02*
X60040000Y-68667500I0J172500D01*
G01*
X60040000Y-68322500D01*
G75*
G02*
X60212500Y-68150000I172500J0D01*
G01*
G37*
%TD*%
%TO.C,R9*%
G36*
G01*
X60222500Y-71550000D02*
X60617500Y-71550000D01*
G75*
G02*
X60790000Y-71722500I0J-172500D01*
G01*
X60790000Y-72067500D01*
G75*
G02*
X60617500Y-72240000I-172500J0D01*
G01*
X60222500Y-72240000D01*
G75*
G02*
X60050000Y-72067500I0J172500D01*
G01*
X60050000Y-71722500D01*
G75*
G02*
X60222500Y-71550000I172500J0D01*
G01*
G37*
G36*
G01*
X60222500Y-70580000D02*
X60617500Y-70580000D01*
G75*
G02*
X60790000Y-70752500I0J-172500D01*
G01*
X60790000Y-71097500D01*
G75*
G02*
X60617500Y-71270000I-172500J0D01*
G01*
X60222500Y-71270000D01*
G75*
G02*
X60050000Y-71097500I0J172500D01*
G01*
X60050000Y-70752500D01*
G75*
G02*
X60222500Y-70580000I172500J0D01*
G01*
G37*
%TD*%
%TO.C,R12*%
G36*
G01*
X57040000Y-59417500D02*
X57040000Y-59022500D01*
G75*
G02*
X57212500Y-58850000I172500J0D01*
G01*
X57557500Y-58850000D01*
G75*
G02*
X57730000Y-59022500I0J-172500D01*
G01*
X57730000Y-59417500D01*
G75*
G02*
X57557500Y-59590000I-172500J0D01*
G01*
X57212500Y-59590000D01*
G75*
G02*
X57040000Y-59417500I0J172500D01*
G01*
G37*
G36*
G01*
X56070000Y-59417500D02*
X56070000Y-59022500D01*
G75*
G02*
X56242500Y-58850000I172500J0D01*
G01*
X56587500Y-58850000D01*
G75*
G02*
X56760000Y-59022500I0J-172500D01*
G01*
X56760000Y-59417500D01*
G75*
G02*
X56587500Y-59590000I-172500J0D01*
G01*
X56242500Y-59590000D01*
G75*
G02*
X56070000Y-59417500I0J172500D01*
G01*
G37*
%TD*%
%TO.C,R13*%
G36*
G01*
X72640000Y-68057500D02*
X72640000Y-67662500D01*
G75*
G02*
X72812500Y-67490000I172500J0D01*
G01*
X73157500Y-67490000D01*
G75*
G02*
X73330000Y-67662500I0J-172500D01*
G01*
X73330000Y-68057500D01*
G75*
G02*
X73157500Y-68230000I-172500J0D01*
G01*
X72812500Y-68230000D01*
G75*
G02*
X72640000Y-68057500I0J172500D01*
G01*
G37*
G36*
G01*
X71670000Y-68057500D02*
X71670000Y-67662500D01*
G75*
G02*
X71842500Y-67490000I172500J0D01*
G01*
X72187500Y-67490000D01*
G75*
G02*
X72360000Y-67662500I0J-172500D01*
G01*
X72360000Y-68057500D01*
G75*
G02*
X72187500Y-68230000I-172500J0D01*
G01*
X71842500Y-68230000D01*
G75*
G02*
X71670000Y-68057500I0J172500D01*
G01*
G37*
%TD*%
%TO.C,R14*%
G36*
G01*
X66590000Y-72892500D02*
X66590000Y-73287500D01*
G75*
G02*
X66417500Y-73460000I-172500J0D01*
G01*
X66072500Y-73460000D01*
G75*
G02*
X65900000Y-73287500I0J172500D01*
G01*
X65900000Y-72892500D01*
G75*
G02*
X66072500Y-72720000I172500J0D01*
G01*
X66417500Y-72720000D01*
G75*
G02*
X66590000Y-72892500I0J-172500D01*
G01*
G37*
G36*
G01*
X67560000Y-72892500D02*
X67560000Y-73287500D01*
G75*
G02*
X67387500Y-73460000I-172500J0D01*
G01*
X67042500Y-73460000D01*
G75*
G02*
X66870000Y-73287500I0J172500D01*
G01*
X66870000Y-72892500D01*
G75*
G02*
X67042500Y-72720000I172500J0D01*
G01*
X67387500Y-72720000D01*
G75*
G02*
X67560000Y-72892500I0J-172500D01*
G01*
G37*
%TD*%
%TO.C,R15*%
G36*
G01*
X64850000Y-73287500D02*
X64850000Y-72892500D01*
G75*
G02*
X65022500Y-72720000I172500J0D01*
G01*
X65367500Y-72720000D01*
G75*
G02*
X65540000Y-72892500I0J-172500D01*
G01*
X65540000Y-73287500D01*
G75*
G02*
X65367500Y-73460000I-172500J0D01*
G01*
X65022500Y-73460000D01*
G75*
G02*
X64850000Y-73287500I0J172500D01*
G01*
G37*
G36*
G01*
X63880000Y-73287500D02*
X63880000Y-72892500D01*
G75*
G02*
X64052500Y-72720000I172500J0D01*
G01*
X64397500Y-72720000D01*
G75*
G02*
X64570000Y-72892500I0J-172500D01*
G01*
X64570000Y-73287500D01*
G75*
G02*
X64397500Y-73460000I-172500J0D01*
G01*
X64052500Y-73460000D01*
G75*
G02*
X63880000Y-73287500I0J172500D01*
G01*
G37*
%TD*%
%TO.C,R16*%
G36*
G01*
X63667500Y-74915000D02*
X63272500Y-74915000D01*
G75*
G02*
X63100000Y-74742500I0J172500D01*
G01*
X63100000Y-74397500D01*
G75*
G02*
X63272500Y-74225000I172500J0D01*
G01*
X63667500Y-74225000D01*
G75*
G02*
X63840000Y-74397500I0J-172500D01*
G01*
X63840000Y-74742500D01*
G75*
G02*
X63667500Y-74915000I-172500J0D01*
G01*
G37*
G36*
G01*
X63667500Y-75885000D02*
X63272500Y-75885000D01*
G75*
G02*
X63100000Y-75712500I0J172500D01*
G01*
X63100000Y-75367500D01*
G75*
G02*
X63272500Y-75195000I172500J0D01*
G01*
X63667500Y-75195000D01*
G75*
G02*
X63840000Y-75367500I0J-172500D01*
G01*
X63840000Y-75712500D01*
G75*
G02*
X63667500Y-75885000I-172500J0D01*
G01*
G37*
%TD*%
D16*
%TO.C,SW1*%
X79480000Y-61020000D03*
X79480000Y-67820000D03*
D17*
X76730000Y-61920000D03*
X76730000Y-64420000D03*
X76730000Y-66920000D03*
%TD*%
D18*
%TO.C,SW2*%
X77046396Y-75786396D03*
X75773604Y-74513604D03*
D19*
G36*
X75522581Y-77868825D02*
G01*
X74709409Y-77055653D01*
X75770069Y-75994993D01*
X76583241Y-76808165D01*
X75522581Y-77868825D01*
G37*
G36*
X78068165Y-75323241D02*
G01*
X77254993Y-74510069D01*
X78315653Y-73449409D01*
X79128825Y-74262581D01*
X78068165Y-75323241D01*
G37*
G36*
X74504347Y-76850591D02*
G01*
X73691175Y-76037419D01*
X74751835Y-74976759D01*
X75565007Y-75789931D01*
X74504347Y-76850591D01*
G37*
G36*
X77049931Y-74305007D02*
G01*
X76236759Y-73491835D01*
X77297419Y-72431175D01*
X78110591Y-73244347D01*
X77049931Y-74305007D01*
G37*
%TD*%
%TO.C,U6*%
G36*
G01*
X67040000Y-71020000D02*
X67040000Y-69720000D01*
G75*
G02*
X67240000Y-69520000I200000J0D01*
G01*
X67640000Y-69520000D01*
G75*
G02*
X67840000Y-69720000I0J-200000D01*
G01*
X67840000Y-71020000D01*
G75*
G02*
X67640000Y-71220000I-200000J0D01*
G01*
X67240000Y-71220000D01*
G75*
G02*
X67040000Y-71020000I0J200000D01*
G01*
G37*
G36*
G01*
X68040000Y-69982500D02*
X68040000Y-69757500D01*
G75*
G02*
X68152500Y-69645000I112500J0D01*
G01*
X68577500Y-69645000D01*
G75*
G02*
X68690000Y-69757500I0J-112500D01*
G01*
X68690000Y-69982500D01*
G75*
G02*
X68577500Y-70095000I-112500J0D01*
G01*
X68152500Y-70095000D01*
G75*
G02*
X68040000Y-69982500I0J112500D01*
G01*
G37*
G36*
G01*
X68040000Y-70982500D02*
X68040000Y-70757500D01*
G75*
G02*
X68152500Y-70645000I112500J0D01*
G01*
X68577500Y-70645000D01*
G75*
G02*
X68690000Y-70757500I0J-112500D01*
G01*
X68690000Y-70982500D01*
G75*
G02*
X68577500Y-71095000I-112500J0D01*
G01*
X68152500Y-71095000D01*
G75*
G02*
X68040000Y-70982500I0J112500D01*
G01*
G37*
G36*
G01*
X66190000Y-70982500D02*
X66190000Y-70757500D01*
G75*
G02*
X66302500Y-70645000I112500J0D01*
G01*
X66727500Y-70645000D01*
G75*
G02*
X66840000Y-70757500I0J-112500D01*
G01*
X66840000Y-70982500D01*
G75*
G02*
X66727500Y-71095000I-112500J0D01*
G01*
X66302500Y-71095000D01*
G75*
G02*
X66190000Y-70982500I0J112500D01*
G01*
G37*
G36*
G01*
X66190000Y-69982500D02*
X66190000Y-69757500D01*
G75*
G02*
X66302500Y-69645000I112500J0D01*
G01*
X66727500Y-69645000D01*
G75*
G02*
X66840000Y-69757500I0J-112500D01*
G01*
X66840000Y-69982500D01*
G75*
G02*
X66727500Y-70095000I-112500J0D01*
G01*
X66302500Y-70095000D01*
G75*
G02*
X66190000Y-69982500I0J112500D01*
G01*
G37*
%TD*%
%TO.C,D1*%
G36*
G01*
X66841250Y-75207500D02*
X66278750Y-75207500D01*
G75*
G02*
X66035000Y-74963750I0J243750D01*
G01*
X66035000Y-74476250D01*
G75*
G02*
X66278750Y-74232500I243750J0D01*
G01*
X66841250Y-74232500D01*
G75*
G02*
X67085000Y-74476250I0J-243750D01*
G01*
X67085000Y-74963750D01*
G75*
G02*
X66841250Y-75207500I-243750J0D01*
G01*
G37*
G36*
G01*
X66841250Y-76782500D02*
X66278750Y-76782500D01*
G75*
G02*
X66035000Y-76538750I0J243750D01*
G01*
X66035000Y-76051250D01*
G75*
G02*
X66278750Y-75807500I243750J0D01*
G01*
X66841250Y-75807500D01*
G75*
G02*
X67085000Y-76051250I0J-243750D01*
G01*
X67085000Y-76538750D01*
G75*
G02*
X66841250Y-76782500I-243750J0D01*
G01*
G37*
%TD*%
%TO.C,R3*%
G36*
G01*
X68167500Y-74915000D02*
X67772500Y-74915000D01*
G75*
G02*
X67600000Y-74742500I0J172500D01*
G01*
X67600000Y-74397500D01*
G75*
G02*
X67772500Y-74225000I172500J0D01*
G01*
X68167500Y-74225000D01*
G75*
G02*
X68340000Y-74397500I0J-172500D01*
G01*
X68340000Y-74742500D01*
G75*
G02*
X68167500Y-74915000I-172500J0D01*
G01*
G37*
G36*
G01*
X68167500Y-75885000D02*
X67772500Y-75885000D01*
G75*
G02*
X67600000Y-75712500I0J172500D01*
G01*
X67600000Y-75367500D01*
G75*
G02*
X67772500Y-75195000I172500J0D01*
G01*
X68167500Y-75195000D01*
G75*
G02*
X68340000Y-75367500I0J-172500D01*
G01*
X68340000Y-75712500D01*
G75*
G02*
X68167500Y-75885000I-172500J0D01*
G01*
G37*
%TD*%
%TO.C,C1*%
G36*
G01*
X53970000Y-66692500D02*
X53970000Y-67087500D01*
G75*
G02*
X53797500Y-67260000I-172500J0D01*
G01*
X53452500Y-67260000D01*
G75*
G02*
X53280000Y-67087500I0J172500D01*
G01*
X53280000Y-66692500D01*
G75*
G02*
X53452500Y-66520000I172500J0D01*
G01*
X53797500Y-66520000D01*
G75*
G02*
X53970000Y-66692500I0J-172500D01*
G01*
G37*
G36*
G01*
X54940000Y-66692500D02*
X54940000Y-67087500D01*
G75*
G02*
X54767500Y-67260000I-172500J0D01*
G01*
X54422500Y-67260000D01*
G75*
G02*
X54250000Y-67087500I0J172500D01*
G01*
X54250000Y-66692500D01*
G75*
G02*
X54422500Y-66520000I172500J0D01*
G01*
X54767500Y-66520000D01*
G75*
G02*
X54940000Y-66692500I0J-172500D01*
G01*
G37*
%TD*%
%TO.C,C2*%
G36*
G01*
X56030000Y-73352500D02*
X56030000Y-73747500D01*
G75*
G02*
X55857500Y-73920000I-172500J0D01*
G01*
X55512500Y-73920000D01*
G75*
G02*
X55340000Y-73747500I0J172500D01*
G01*
X55340000Y-73352500D01*
G75*
G02*
X55512500Y-73180000I172500J0D01*
G01*
X55857500Y-73180000D01*
G75*
G02*
X56030000Y-73352500I0J-172500D01*
G01*
G37*
G36*
G01*
X57000000Y-73352500D02*
X57000000Y-73747500D01*
G75*
G02*
X56827500Y-73920000I-172500J0D01*
G01*
X56482500Y-73920000D01*
G75*
G02*
X56310000Y-73747500I0J172500D01*
G01*
X56310000Y-73352500D01*
G75*
G02*
X56482500Y-73180000I172500J0D01*
G01*
X56827500Y-73180000D01*
G75*
G02*
X57000000Y-73352500I0J-172500D01*
G01*
G37*
%TD*%
%TO.C,C3*%
G36*
G01*
X70640000Y-68937500D02*
X70640000Y-68542500D01*
G75*
G02*
X70812500Y-68370000I172500J0D01*
G01*
X71157500Y-68370000D01*
G75*
G02*
X71330000Y-68542500I0J-172500D01*
G01*
X71330000Y-68937500D01*
G75*
G02*
X71157500Y-69110000I-172500J0D01*
G01*
X70812500Y-69110000D01*
G75*
G02*
X70640000Y-68937500I0J172500D01*
G01*
G37*
G36*
G01*
X69670000Y-68937500D02*
X69670000Y-68542500D01*
G75*
G02*
X69842500Y-68370000I172500J0D01*
G01*
X70187500Y-68370000D01*
G75*
G02*
X70360000Y-68542500I0J-172500D01*
G01*
X70360000Y-68937500D01*
G75*
G02*
X70187500Y-69110000I-172500J0D01*
G01*
X69842500Y-69110000D01*
G75*
G02*
X69670000Y-68937500I0J172500D01*
G01*
G37*
%TD*%
%TO.C,C7*%
G36*
G01*
X70227500Y-66620000D02*
X69832500Y-66620000D01*
G75*
G02*
X69660000Y-66447500I0J172500D01*
G01*
X69660000Y-66102500D01*
G75*
G02*
X69832500Y-65930000I172500J0D01*
G01*
X70227500Y-65930000D01*
G75*
G02*
X70400000Y-66102500I0J-172500D01*
G01*
X70400000Y-66447500D01*
G75*
G02*
X70227500Y-66620000I-172500J0D01*
G01*
G37*
G36*
G01*
X70227500Y-67590000D02*
X69832500Y-67590000D01*
G75*
G02*
X69660000Y-67417500I0J172500D01*
G01*
X69660000Y-67072500D01*
G75*
G02*
X69832500Y-66900000I172500J0D01*
G01*
X70227500Y-66900000D01*
G75*
G02*
X70400000Y-67072500I0J-172500D01*
G01*
X70400000Y-67417500D01*
G75*
G02*
X70227500Y-67590000I-172500J0D01*
G01*
G37*
%TD*%
%TO.C,C9*%
G36*
G01*
X56770000Y-60112500D02*
X56770000Y-60507500D01*
G75*
G02*
X56597500Y-60680000I-172500J0D01*
G01*
X56252500Y-60680000D01*
G75*
G02*
X56080000Y-60507500I0J172500D01*
G01*
X56080000Y-60112500D01*
G75*
G02*
X56252500Y-59940000I172500J0D01*
G01*
X56597500Y-59940000D01*
G75*
G02*
X56770000Y-60112500I0J-172500D01*
G01*
G37*
G36*
G01*
X57740000Y-60112500D02*
X57740000Y-60507500D01*
G75*
G02*
X57567500Y-60680000I-172500J0D01*
G01*
X57222500Y-60680000D01*
G75*
G02*
X57050000Y-60507500I0J172500D01*
G01*
X57050000Y-60112500D01*
G75*
G02*
X57222500Y-59940000I172500J0D01*
G01*
X57567500Y-59940000D01*
G75*
G02*
X57740000Y-60112500I0J-172500D01*
G01*
G37*
%TD*%
%TO.C,C10*%
G36*
G01*
X70097500Y-57660000D02*
X69702500Y-57660000D01*
G75*
G02*
X69530000Y-57487500I0J172500D01*
G01*
X69530000Y-57142500D01*
G75*
G02*
X69702500Y-56970000I172500J0D01*
G01*
X70097500Y-56970000D01*
G75*
G02*
X70270000Y-57142500I0J-172500D01*
G01*
X70270000Y-57487500D01*
G75*
G02*
X70097500Y-57660000I-172500J0D01*
G01*
G37*
G36*
G01*
X70097500Y-58630000D02*
X69702500Y-58630000D01*
G75*
G02*
X69530000Y-58457500I0J172500D01*
G01*
X69530000Y-58112500D01*
G75*
G02*
X69702500Y-57940000I172500J0D01*
G01*
X70097500Y-57940000D01*
G75*
G02*
X70270000Y-58112500I0J-172500D01*
G01*
X70270000Y-58457500D01*
G75*
G02*
X70097500Y-58630000I-172500J0D01*
G01*
G37*
%TD*%
%TO.C,C12*%
G36*
G01*
X60572500Y-61790000D02*
X60967500Y-61790000D01*
G75*
G02*
X61140000Y-61962500I0J-172500D01*
G01*
X61140000Y-62307500D01*
G75*
G02*
X60967500Y-62480000I-172500J0D01*
G01*
X60572500Y-62480000D01*
G75*
G02*
X60400000Y-62307500I0J172500D01*
G01*
X60400000Y-61962500D01*
G75*
G02*
X60572500Y-61790000I172500J0D01*
G01*
G37*
G36*
G01*
X60572500Y-62760000D02*
X60967500Y-62760000D01*
G75*
G02*
X61140000Y-62932500I0J-172500D01*
G01*
X61140000Y-63277500D01*
G75*
G02*
X60967500Y-63450000I-172500J0D01*
G01*
X60572500Y-63450000D01*
G75*
G02*
X60400000Y-63277500I0J172500D01*
G01*
X60400000Y-62932500D01*
G75*
G02*
X60572500Y-62760000I172500J0D01*
G01*
G37*
%TD*%
D20*
%TO.C,U1*%
X64120000Y-70370000D03*
D21*
X65170000Y-69720000D03*
X65170000Y-70370000D03*
X65170000Y-71020000D03*
X63070000Y-71020000D03*
X63070000Y-70370000D03*
X63070000Y-69720000D03*
%TD*%
M02*
