%TF.GenerationSoftware,KiCad,Pcbnew,5.1.9*%
%TF.CreationDate,2021-01-29T19:11:39+02:00*%
%TF.ProjectId,PlantBuddy,506c616e-7442-4756-9464-792e6b696361,rev?*%
%TF.SameCoordinates,Original*%
%TF.FileFunction,Legend,Top*%
%TF.FilePolarity,Positive*%
%FSLAX46Y46*%
G04 Gerber Fmt 4.6, Leading zero omitted, Abs format (unit mm)*
G04 Created by KiCad (PCBNEW 5.1.9) date 2021-01-29 19:11:39*
%MOMM*%
%LPD*%
G01*
G04 APERTURE LIST*
%ADD10C,0.150000*%
%ADD11C,0.120000*%
G04 APERTURE END LIST*
D10*
X76444904Y-65075380D02*
X77063952Y-65075380D01*
X76730619Y-65456333D01*
X76873476Y-65456333D01*
X76968714Y-65503952D01*
X77016333Y-65551571D01*
X77063952Y-65646809D01*
X77063952Y-65884904D01*
X77016333Y-65980142D01*
X76968714Y-66027761D01*
X76873476Y-66075380D01*
X76587761Y-66075380D01*
X76492523Y-66027761D01*
X76444904Y-65980142D01*
X77349666Y-65075380D02*
X77683000Y-66075380D01*
X78016333Y-65075380D01*
X78254428Y-65075380D02*
X78873476Y-65075380D01*
X78540142Y-65456333D01*
X78683000Y-65456333D01*
X78778238Y-65503952D01*
X78825857Y-65551571D01*
X78873476Y-65646809D01*
X78873476Y-65884904D01*
X78825857Y-65980142D01*
X78778238Y-66027761D01*
X78683000Y-66075380D01*
X78397285Y-66075380D01*
X78302047Y-66027761D01*
X78254428Y-65980142D01*
X76437095Y-63424261D02*
X76579952Y-63471880D01*
X76818047Y-63471880D01*
X76913285Y-63424261D01*
X76960904Y-63376642D01*
X77008523Y-63281404D01*
X77008523Y-63186166D01*
X76960904Y-63090928D01*
X76913285Y-63043309D01*
X76818047Y-62995690D01*
X76627571Y-62948071D01*
X76532333Y-62900452D01*
X76484714Y-62852833D01*
X76437095Y-62757595D01*
X76437095Y-62662357D01*
X76484714Y-62567119D01*
X76532333Y-62519500D01*
X76627571Y-62471880D01*
X76865666Y-62471880D01*
X77008523Y-62519500D01*
X77341857Y-62471880D02*
X77579952Y-63471880D01*
X77770428Y-62757595D01*
X77960904Y-63471880D01*
X78199000Y-62471880D01*
X79151380Y-63376642D02*
X79103761Y-63424261D01*
X78960904Y-63471880D01*
X78865666Y-63471880D01*
X78722809Y-63424261D01*
X78627571Y-63329023D01*
X78579952Y-63233785D01*
X78532333Y-63043309D01*
X78532333Y-62900452D01*
X78579952Y-62709976D01*
X78627571Y-62614738D01*
X78722809Y-62519500D01*
X78865666Y-62471880D01*
X78960904Y-62471880D01*
X79103761Y-62519500D01*
X79151380Y-62567119D01*
X80056142Y-63471880D02*
X79579952Y-63471880D01*
X79579952Y-62471880D01*
X80389476Y-63471880D02*
X80389476Y-62471880D01*
X80960904Y-63471880D02*
X80532333Y-62900452D01*
X80960904Y-62471880D02*
X80389476Y-63043309D01*
X76516452Y-60947761D02*
X76659309Y-60995380D01*
X76897404Y-60995380D01*
X76992642Y-60947761D01*
X77040261Y-60900142D01*
X77087880Y-60804904D01*
X77087880Y-60709666D01*
X77040261Y-60614428D01*
X76992642Y-60566809D01*
X76897404Y-60519190D01*
X76706928Y-60471571D01*
X76611690Y-60423952D01*
X76564071Y-60376333D01*
X76516452Y-60281095D01*
X76516452Y-60185857D01*
X76564071Y-60090619D01*
X76611690Y-60043000D01*
X76706928Y-59995380D01*
X76945023Y-59995380D01*
X77087880Y-60043000D01*
X77421214Y-59995380D02*
X77659309Y-60995380D01*
X77849785Y-60281095D01*
X78040261Y-60995380D01*
X78278357Y-59995380D01*
X78659309Y-60995380D02*
X78659309Y-59995380D01*
X78897404Y-59995380D01*
X79040261Y-60043000D01*
X79135500Y-60138238D01*
X79183119Y-60233476D01*
X79230738Y-60423952D01*
X79230738Y-60566809D01*
X79183119Y-60757285D01*
X79135500Y-60852523D01*
X79040261Y-60947761D01*
X78897404Y-60995380D01*
X78659309Y-60995380D01*
X79659309Y-60995380D02*
X79659309Y-59995380D01*
X80325976Y-59995380D02*
X80516452Y-59995380D01*
X80611690Y-60043000D01*
X80706928Y-60138238D01*
X80754547Y-60328714D01*
X80754547Y-60662047D01*
X80706928Y-60852523D01*
X80611690Y-60947761D01*
X80516452Y-60995380D01*
X80325976Y-60995380D01*
X80230738Y-60947761D01*
X80135500Y-60852523D01*
X80087880Y-60662047D01*
X80087880Y-60328714D01*
X80135500Y-60138238D01*
X80230738Y-60043000D01*
X80325976Y-59995380D01*
X77048095Y-57503000D02*
X76952857Y-57455380D01*
X76810000Y-57455380D01*
X76667142Y-57503000D01*
X76571904Y-57598238D01*
X76524285Y-57693476D01*
X76476666Y-57883952D01*
X76476666Y-58026809D01*
X76524285Y-58217285D01*
X76571904Y-58312523D01*
X76667142Y-58407761D01*
X76810000Y-58455380D01*
X76905238Y-58455380D01*
X77048095Y-58407761D01*
X77095714Y-58360142D01*
X77095714Y-58026809D01*
X76905238Y-58026809D01*
X77524285Y-58455380D02*
X77524285Y-57455380D01*
X78095714Y-58455380D01*
X78095714Y-57455380D01*
X78571904Y-58455380D02*
X78571904Y-57455380D01*
X78810000Y-57455380D01*
X78952857Y-57503000D01*
X79048095Y-57598238D01*
X79095714Y-57693476D01*
X79143333Y-57883952D01*
X79143333Y-58026809D01*
X79095714Y-58217285D01*
X79048095Y-58312523D01*
X78952857Y-58407761D01*
X78810000Y-58455380D01*
X78571904Y-58455380D01*
X74521025Y-74693809D02*
X74120331Y-74623098D01*
X74238182Y-74976651D02*
X73743207Y-74481677D01*
X73931769Y-74293115D01*
X74002480Y-74269544D01*
X74049620Y-74269544D01*
X74120331Y-74293115D01*
X74191042Y-74363825D01*
X74214612Y-74434536D01*
X74214612Y-74481677D01*
X74191042Y-74552387D01*
X74002480Y-74740949D01*
X74473884Y-74222404D02*
X74638876Y-74057412D01*
X74968859Y-74245974D02*
X74733157Y-74481677D01*
X74238182Y-73986702D01*
X74473884Y-73751000D01*
X75133851Y-74033842D02*
X75228132Y-73986702D01*
X75345983Y-73868851D01*
X75369553Y-73798140D01*
X75369553Y-73751000D01*
X75345983Y-73680289D01*
X75298842Y-73633148D01*
X75228132Y-73609578D01*
X75180991Y-73609578D01*
X75110280Y-73633148D01*
X74992429Y-73703859D01*
X74921719Y-73727429D01*
X74874578Y-73727429D01*
X74803867Y-73703859D01*
X74756727Y-73656719D01*
X74733157Y-73586008D01*
X74733157Y-73538867D01*
X74756727Y-73468157D01*
X74874578Y-73350306D01*
X74968859Y-73303165D01*
X75393123Y-73303165D02*
X75558115Y-73138174D01*
X75888098Y-73326735D02*
X75652396Y-73562438D01*
X75157421Y-73067463D01*
X75393123Y-72831761D01*
X75534544Y-72690339D02*
X75817387Y-72407497D01*
X76170941Y-73043893D02*
X75675966Y-72548918D01*
X72192666Y-72786666D02*
X72159333Y-72886666D01*
X72159333Y-73053333D01*
X72192666Y-73120000D01*
X72226000Y-73153333D01*
X72292666Y-73186666D01*
X72359333Y-73186666D01*
X72426000Y-73153333D01*
X72459333Y-73120000D01*
X72492666Y-73053333D01*
X72526000Y-72920000D01*
X72559333Y-72853333D01*
X72592666Y-72820000D01*
X72659333Y-72786666D01*
X72726000Y-72786666D01*
X72792666Y-72820000D01*
X72826000Y-72853333D01*
X72859333Y-72920000D01*
X72859333Y-73086666D01*
X72826000Y-73186666D01*
X72226000Y-73886666D02*
X72192666Y-73853333D01*
X72159333Y-73753333D01*
X72159333Y-73686666D01*
X72192666Y-73586666D01*
X72259333Y-73520000D01*
X72326000Y-73486666D01*
X72459333Y-73453333D01*
X72559333Y-73453333D01*
X72692666Y-73486666D01*
X72759333Y-73520000D01*
X72826000Y-73586666D01*
X72859333Y-73686666D01*
X72859333Y-73753333D01*
X72826000Y-73853333D01*
X72792666Y-73886666D01*
X72159333Y-74520000D02*
X72159333Y-74186666D01*
X72859333Y-74186666D01*
X72319666Y-70080000D02*
X72286333Y-70180000D01*
X72286333Y-70346666D01*
X72319666Y-70413333D01*
X72353000Y-70446666D01*
X72419666Y-70480000D01*
X72486333Y-70480000D01*
X72553000Y-70446666D01*
X72586333Y-70413333D01*
X72619666Y-70346666D01*
X72653000Y-70213333D01*
X72686333Y-70146666D01*
X72719666Y-70113333D01*
X72786333Y-70080000D01*
X72853000Y-70080000D01*
X72919666Y-70113333D01*
X72953000Y-70146666D01*
X72986333Y-70213333D01*
X72986333Y-70380000D01*
X72953000Y-70480000D01*
X72286333Y-70780000D02*
X72986333Y-70780000D01*
X72986333Y-70946666D01*
X72953000Y-71046666D01*
X72886333Y-71113333D01*
X72819666Y-71146666D01*
X72686333Y-71180000D01*
X72586333Y-71180000D01*
X72453000Y-71146666D01*
X72386333Y-71113333D01*
X72319666Y-71046666D01*
X72286333Y-70946666D01*
X72286333Y-70780000D01*
X72486333Y-71446666D02*
X72486333Y-71780000D01*
X72286333Y-71380000D02*
X72986333Y-71613333D01*
X72286333Y-71846666D01*
D11*
%TO.C,C17*%
X63922664Y-73391000D02*
X64138336Y-73391000D01*
X63922664Y-74111000D02*
X64138336Y-74111000D01*
%TO.C,U2*%
X63150000Y-62198000D02*
X63150000Y-61723000D01*
X63150000Y-61723000D02*
X63625000Y-61723000D01*
X68370000Y-66468000D02*
X68370000Y-66943000D01*
X68370000Y-66943000D02*
X67895000Y-66943000D01*
X68370000Y-62198000D02*
X68370000Y-61723000D01*
X68370000Y-61723000D02*
X67895000Y-61723000D01*
X63150000Y-66468000D02*
X63150000Y-66943000D01*
%TO.C,J3*%
X71670000Y-73560000D02*
G75*
G03*
X71670000Y-73560000I-700000J0D01*
G01*
%TO.C,J2*%
X71710000Y-70880000D02*
G75*
G03*
X71710000Y-70880000I-700000J0D01*
G01*
%TO.C,J1*%
X76210000Y-66880000D02*
X74880000Y-66880000D01*
X76210000Y-65550000D02*
X76210000Y-66880000D01*
X76210000Y-64280000D02*
X73550000Y-64280000D01*
X73550000Y-64280000D02*
X73550000Y-56600000D01*
X76210000Y-64280000D02*
X76210000Y-56600000D01*
X76210000Y-56600000D02*
X73550000Y-56600000D01*
%TO.C,C15*%
X61227836Y-65090000D02*
X61012164Y-65090000D01*
X61227836Y-65810000D02*
X61012164Y-65810000D01*
%TO.C,C9*%
X64049190Y-60398307D02*
X64201693Y-60550810D01*
X64558307Y-59889190D02*
X64710810Y-60041693D01*
%TO.C,C8*%
X67922164Y-60760000D02*
X68137836Y-60760000D01*
X67922164Y-60040000D02*
X68137836Y-60040000D01*
%TO.C,C7*%
X66907164Y-58998000D02*
X67122836Y-58998000D01*
X66907164Y-58278000D02*
X67122836Y-58278000D01*
%TO.C,D2*%
X64115000Y-77347500D02*
X64115000Y-79632500D01*
X64115000Y-79632500D02*
X65585000Y-79632500D01*
X65585000Y-79632500D02*
X65585000Y-77347500D01*
%TO.C,Q1*%
X54040000Y-65620000D02*
X54970000Y-65620000D01*
X57200000Y-65620000D02*
X56270000Y-65620000D01*
X57200000Y-65620000D02*
X57200000Y-63460000D01*
X54040000Y-65620000D02*
X54040000Y-64160000D01*
%TO.C,U3*%
X58032487Y-70063585D02*
X55592969Y-67624066D01*
X58032487Y-70063585D02*
X59411346Y-71442443D01*
X54412101Y-73683971D02*
X53033242Y-72305113D01*
X54412101Y-73683971D02*
X55790959Y-75062830D01*
%TO.C,Y1*%
X56980000Y-57340000D02*
X56980000Y-60640000D01*
X56980000Y-60640000D02*
X60980000Y-60640000D01*
%TO.C,Y2*%
X60035000Y-67555000D02*
X60035000Y-68905000D01*
X61785000Y-67555000D02*
X61785000Y-68905000D01*
%TO.C,L4*%
X60440000Y-62751422D02*
X60440000Y-63268578D01*
X61860000Y-62751422D02*
X61860000Y-63268578D01*
%TO.C,Q2*%
X76010000Y-71550000D02*
X74550000Y-71550000D01*
X76010000Y-68390000D02*
X73850000Y-68390000D01*
X76010000Y-68390000D02*
X76010000Y-69320000D01*
X76010000Y-71550000D02*
X76010000Y-70620000D01*
%TO.C,SW2*%
X78943452Y-75198579D02*
X76468579Y-77673452D01*
X74276548Y-75481421D02*
X76751421Y-73006548D01*
X77493883Y-77567386D02*
X77034264Y-77107767D01*
X78837386Y-76223883D02*
X77493883Y-77567386D01*
X78377767Y-75764264D02*
X78837386Y-76223883D01*
%TO.C,U6*%
X66410000Y-73010000D02*
X68410000Y-73010000D01*
X67410000Y-70790000D02*
X68410000Y-70790000D01*
%TO.C,D1*%
X65805000Y-77357500D02*
X65805000Y-79642500D01*
X65805000Y-79642500D02*
X67275000Y-79642500D01*
X67275000Y-79642500D02*
X67275000Y-77357500D01*
D10*
%TO.C,U1*%
X64090000Y-70800000D02*
X65090000Y-70800000D01*
X63090000Y-73000000D02*
X65090000Y-73000000D01*
%TD*%
M02*
