%TF.GenerationSoftware,KiCad,Pcbnew,(5.1.6)-1*%
%TF.CreationDate,2020-10-15T17:09:17+03:00*%
%TF.ProjectId,PlantBuddy,506c616e-7442-4756-9464-792e6b696361,rev?*%
%TF.SameCoordinates,Original*%
%TF.FileFunction,Legend,Top*%
%TF.FilePolarity,Positive*%
%FSLAX46Y46*%
G04 Gerber Fmt 4.6, Leading zero omitted, Abs format (unit mm)*
G04 Created by KiCad (PCBNEW (5.1.6)-1) date 2020-10-15 17:09:17*
%MOMM*%
%LPD*%
G01*
G04 APERTURE LIST*
%ADD10C,0.120000*%
G04 APERTURE END LIST*
D10*
%TO.C,U5*%
X63175000Y-66700000D02*
X63175000Y-67175000D01*
X68395000Y-61955000D02*
X67920000Y-61955000D01*
X68395000Y-62430000D02*
X68395000Y-61955000D01*
X68395000Y-67175000D02*
X67920000Y-67175000D01*
X68395000Y-66700000D02*
X68395000Y-67175000D01*
X63175000Y-61955000D02*
X63650000Y-61955000D01*
X63175000Y-62430000D02*
X63175000Y-61955000D01*
%TO.C,Q2*%
X76770000Y-72760000D02*
X74320000Y-72760000D01*
X74970000Y-75980000D02*
X76770000Y-75980000D01*
%TO.C,Y2*%
X57365000Y-63675000D02*
X57365000Y-62325000D01*
X59115000Y-63675000D02*
X59115000Y-62325000D01*
%TO.C,Y1*%
X73350000Y-63500000D02*
X73350000Y-59500000D01*
X70050000Y-63500000D02*
X73350000Y-63500000D01*
%TO.C,U8*%
X78370000Y-60130000D02*
X75920000Y-60130000D01*
X76570000Y-63350000D02*
X78370000Y-63350000D01*
%TO.C,U7*%
X75690000Y-67180000D02*
X72240000Y-67180000D01*
X75690000Y-67180000D02*
X77640000Y-67180000D01*
X75690000Y-72300000D02*
X73740000Y-72300000D01*
X75690000Y-72300000D02*
X77640000Y-72300000D01*
%TO.C,U6*%
X64215000Y-74800000D02*
X67215000Y-74800000D01*
X65715000Y-71580000D02*
X67215000Y-71580000D01*
%TO.C,U4*%
X54890000Y-60590000D02*
X53430000Y-60590000D01*
X54890000Y-57430000D02*
X52730000Y-57430000D01*
X54890000Y-57430000D02*
X54890000Y-58360000D01*
X54890000Y-60590000D02*
X54890000Y-59660000D01*
%TO.C,U3*%
X55990000Y-72740000D02*
X57940000Y-72740000D01*
X55990000Y-72740000D02*
X54040000Y-72740000D01*
X55990000Y-67620000D02*
X57940000Y-67620000D01*
X55990000Y-67620000D02*
X52540000Y-67620000D01*
%TO.C,U2*%
X72790000Y-72780000D02*
X70340000Y-72780000D01*
X70990000Y-76000000D02*
X72790000Y-76000000D01*
%TO.C,U1*%
X52370000Y-62570000D02*
X49920000Y-62570000D01*
X50570000Y-65790000D02*
X52370000Y-65790000D01*
%TO.C,R19*%
X75260000Y-62212779D02*
X75260000Y-61887221D01*
X74240000Y-62212779D02*
X74240000Y-61887221D01*
%TO.C,R18*%
X78312779Y-63850000D02*
X77987221Y-63850000D01*
X78312779Y-64870000D02*
X77987221Y-64870000D01*
%TO.C,R17*%
X73582779Y-65580000D02*
X73257221Y-65580000D01*
X73582779Y-66600000D02*
X73257221Y-66600000D01*
%TO.C,R16*%
X69650000Y-69802779D02*
X69650000Y-69477221D01*
X68630000Y-69802779D02*
X68630000Y-69477221D01*
%TO.C,R15*%
X69290000Y-73302779D02*
X69290000Y-72977221D01*
X68270000Y-73302779D02*
X68270000Y-72977221D01*
%TO.C,R14*%
X63150000Y-73222779D02*
X63150000Y-72897221D01*
X62130000Y-73222779D02*
X62130000Y-72897221D01*
%TO.C,R13*%
X63380000Y-69727221D02*
X63380000Y-70052779D01*
X64400000Y-69727221D02*
X64400000Y-70052779D01*
%TO.C,R12*%
X62370000Y-63642779D02*
X62370000Y-63317221D01*
X61350000Y-63642779D02*
X61350000Y-63317221D01*
%TO.C,R11*%
X74190000Y-58857221D02*
X74190000Y-59182779D01*
X75210000Y-58857221D02*
X75210000Y-59182779D01*
%TO.C,R10*%
X72127221Y-57940000D02*
X72452779Y-57940000D01*
X72127221Y-56920000D02*
X72452779Y-56920000D01*
%TO.C,R9*%
X61520000Y-70621422D02*
X61520000Y-71138578D01*
X60100000Y-70621422D02*
X60100000Y-71138578D01*
%TO.C,R8*%
X61520000Y-67161422D02*
X61520000Y-67678578D01*
X60100000Y-67161422D02*
X60100000Y-67678578D01*
%TO.C,R7*%
X74252779Y-76510000D02*
X73927221Y-76510000D01*
X74252779Y-77530000D02*
X73927221Y-77530000D01*
%TO.C,R6*%
X71510000Y-70962779D02*
X71510000Y-70637221D01*
X70490000Y-70962779D02*
X70490000Y-70637221D01*
%TO.C,R5*%
X71222779Y-76510000D02*
X70897221Y-76510000D01*
X71222779Y-77530000D02*
X70897221Y-77530000D01*
%TO.C,R4*%
X53720000Y-63707221D02*
X53720000Y-64032779D01*
X54740000Y-63707221D02*
X54740000Y-64032779D01*
%TO.C,R3*%
X50470000Y-67497221D02*
X50470000Y-67822779D01*
X51490000Y-67497221D02*
X51490000Y-67822779D01*
%TO.C,R2*%
X59630000Y-76337221D02*
X59630000Y-76662779D01*
X60650000Y-76337221D02*
X60650000Y-76662779D01*
%TO.C,R1*%
X53542779Y-61070000D02*
X53217221Y-61070000D01*
X53542779Y-62090000D02*
X53217221Y-62090000D01*
%TO.C,Q3*%
X76570000Y-59680000D02*
X79020000Y-59680000D01*
X78370000Y-56460000D02*
X76570000Y-56460000D01*
%TO.C,Q1*%
X56880000Y-74760000D02*
X58340000Y-74760000D01*
X56880000Y-77920000D02*
X59040000Y-77920000D01*
X56880000Y-77920000D02*
X56880000Y-76990000D01*
X56880000Y-74760000D02*
X56880000Y-75690000D01*
%TO.C,D3*%
X63380000Y-75270000D02*
X67280000Y-75270000D01*
X63380000Y-77270000D02*
X67280000Y-77270000D01*
X63380000Y-75270000D02*
X63380000Y-77270000D01*
%TO.C,D2*%
X64985000Y-68425000D02*
X64985000Y-70710000D01*
X66455000Y-68425000D02*
X64985000Y-68425000D01*
X66455000Y-70710000D02*
X66455000Y-68425000D01*
%TO.C,D1*%
X58150000Y-56150000D02*
X58150000Y-60050000D01*
X56150000Y-56150000D02*
X56150000Y-60050000D01*
X58150000Y-56150000D02*
X56150000Y-56150000D01*
%TO.C,C25*%
X65742779Y-77790000D02*
X65417221Y-77790000D01*
X65742779Y-78810000D02*
X65417221Y-78810000D01*
%TO.C,C24*%
X80710000Y-62230279D02*
X80710000Y-61904721D01*
X79690000Y-62230279D02*
X79690000Y-61904721D01*
%TO.C,C21*%
X77777221Y-66640000D02*
X78102779Y-66640000D01*
X77777221Y-65620000D02*
X78102779Y-65620000D01*
%TO.C,C17*%
X75170000Y-65217221D02*
X75170000Y-65542779D01*
X76190000Y-65217221D02*
X76190000Y-65542779D01*
%TO.C,C15*%
X68270000Y-76087221D02*
X68270000Y-76412779D01*
X69290000Y-76087221D02*
X69290000Y-76412779D01*
%TO.C,C12*%
X59810000Y-63307221D02*
X59810000Y-63632779D01*
X60830000Y-63307221D02*
X60830000Y-63632779D01*
%TO.C,C10*%
X70410000Y-57962779D02*
X70410000Y-57637221D01*
X69390000Y-57962779D02*
X69390000Y-57637221D01*
%TO.C,C9*%
X58432779Y-65860000D02*
X58107221Y-65860000D01*
X58432779Y-66880000D02*
X58107221Y-66880000D01*
%TO.C,C8*%
X58600000Y-59097221D02*
X58600000Y-59422779D01*
X59620000Y-59097221D02*
X59620000Y-59422779D01*
%TO.C,C7*%
X66990000Y-69497221D02*
X66990000Y-69822779D01*
X68010000Y-69497221D02*
X68010000Y-69822779D01*
%TO.C,C5*%
X52100000Y-59272779D02*
X52100000Y-58947221D01*
X51080000Y-59272779D02*
X51080000Y-58947221D01*
%TO.C,C3*%
X54122779Y-55930000D02*
X53797221Y-55930000D01*
X54122779Y-56950000D02*
X53797221Y-56950000D01*
%TO.C,C2*%
X56132779Y-73190000D02*
X55807221Y-73190000D01*
X56132779Y-74210000D02*
X55807221Y-74210000D01*
%TO.C,C1*%
X55132779Y-66880000D02*
X54807221Y-66880000D01*
X55132779Y-65860000D02*
X54807221Y-65860000D01*
%TD*%
M02*
