%TF.GenerationSoftware,KiCad,Pcbnew,(5.1.6)-1*%
%TF.CreationDate,2020-11-28T14:47:10+02:00*%
%TF.ProjectId,PlantBuddy,506c616e-7442-4756-9464-792e6b696361,rev?*%
%TF.SameCoordinates,Original*%
%TF.FileFunction,Copper,L3,Inr*%
%TF.FilePolarity,Positive*%
%FSLAX46Y46*%
G04 Gerber Fmt 4.6, Leading zero omitted, Abs format (unit mm)*
G04 Created by KiCad (PCBNEW (5.1.6)-1) date 2020-11-28 14:47:10*
%MOMM*%
%LPD*%
G01*
G04 APERTURE LIST*
%TA.AperFunction,ViaPad*%
%ADD10R,0.900000X0.500000*%
%TD*%
%TA.AperFunction,ViaPad*%
%ADD11C,0.100000*%
%TD*%
%TA.AperFunction,ViaPad*%
%ADD12C,0.500000*%
%TD*%
%TA.AperFunction,ViaPad*%
%ADD13C,0.550000*%
%TD*%
%TA.AperFunction,Conductor*%
%ADD14C,0.250000*%
%TD*%
G04 APERTURE END LIST*
D10*
%TO.N,GND*%
%TO.C,AE1*%
X59070000Y-54400000D03*
%TD*%
%TA.AperFunction,ViaPad*%
D11*
%TO.N,/THR*%
%TO.C,C4*%
G36*
X70219241Y-80863496D02*
G01*
X70220179Y-80863781D01*
X70221044Y-80864243D01*
X70221802Y-80864864D01*
X70222423Y-80865622D01*
X70222885Y-80866487D01*
X70223170Y-80867425D01*
X70223266Y-80868400D01*
X70223266Y-129340066D01*
X70223170Y-129341041D01*
X70222885Y-129341979D01*
X70222423Y-129342844D01*
X70221802Y-129343602D01*
X70221044Y-129344223D01*
X70220179Y-129344685D01*
X70219241Y-129344970D01*
X70218266Y-129345066D01*
X69219199Y-129345066D01*
X69218224Y-129344970D01*
X69217286Y-129344685D01*
X69216421Y-129344223D01*
X69215663Y-129343602D01*
X69215042Y-129342844D01*
X69214580Y-129341979D01*
X69214295Y-129341041D01*
X69214199Y-129340066D01*
X69214199Y-127143733D01*
X62623666Y-127143733D01*
X62622691Y-127143637D01*
X62621753Y-127143352D01*
X62620888Y-127142890D01*
X62620130Y-127142269D01*
X62619509Y-127141511D01*
X62619047Y-127140646D01*
X62618762Y-127139708D01*
X62618666Y-127138733D01*
X62618666Y-125132133D01*
X62618762Y-125131158D01*
X62619047Y-125130220D01*
X62619509Y-125129355D01*
X62620130Y-125128597D01*
X62620888Y-125127976D01*
X62621753Y-125127514D01*
X62622691Y-125127229D01*
X62623666Y-125127133D01*
X69214249Y-125127133D01*
X69209975Y-122736830D01*
X65919313Y-122734705D01*
X62623663Y-122732578D01*
X62622687Y-122732481D01*
X62621750Y-122732196D01*
X62620885Y-122731734D01*
X62620128Y-122731111D01*
X62619507Y-122730353D01*
X62619045Y-122729488D01*
X62618761Y-122728550D01*
X62618666Y-122727578D01*
X62618666Y-120729466D01*
X62618762Y-120728491D01*
X62619047Y-120727553D01*
X62619509Y-120726688D01*
X62620130Y-120725930D01*
X62620888Y-120725309D01*
X62621753Y-120724847D01*
X62622691Y-120724562D01*
X62623666Y-120724466D01*
X69214199Y-120724466D01*
X69214199Y-118329933D01*
X62623597Y-118329933D01*
X62622622Y-118329837D01*
X62621684Y-118329552D01*
X62620819Y-118329090D01*
X62620061Y-118328469D01*
X62619440Y-118327711D01*
X62618978Y-118326846D01*
X62618693Y-118325908D01*
X62618597Y-118324922D01*
X62620748Y-117323739D01*
X62622900Y-116322555D01*
X62622998Y-116321580D01*
X62623285Y-116320643D01*
X62623749Y-116319779D01*
X62624372Y-116319023D01*
X62625131Y-116318403D01*
X62625997Y-116317943D01*
X62626935Y-116317660D01*
X62627897Y-116317566D01*
X65923547Y-116315439D01*
X69214199Y-116313314D01*
X69214199Y-113927266D01*
X62623666Y-113927266D01*
X62622691Y-113927170D01*
X62621753Y-113926885D01*
X62620888Y-113926423D01*
X62620130Y-113925802D01*
X62619509Y-113925044D01*
X62619047Y-113924179D01*
X62618762Y-113923241D01*
X62618666Y-113922266D01*
X62618666Y-111915666D01*
X62618762Y-111914691D01*
X62619047Y-111913753D01*
X62619509Y-111912888D01*
X62620130Y-111912130D01*
X62620888Y-111911509D01*
X62621753Y-111911047D01*
X62622691Y-111910762D01*
X62623666Y-111910666D01*
X69214199Y-111910666D01*
X69214199Y-109516133D01*
X62623666Y-109516133D01*
X62622691Y-109516037D01*
X62621753Y-109515752D01*
X62620888Y-109515290D01*
X62620130Y-109514669D01*
X62619509Y-109513911D01*
X62619047Y-109513046D01*
X62618762Y-109512108D01*
X62618666Y-109511133D01*
X62618666Y-107513021D01*
X62618762Y-107512046D01*
X62619047Y-107511108D01*
X62619509Y-107510243D01*
X62620130Y-107509485D01*
X62620888Y-107508864D01*
X62621753Y-107508402D01*
X62622691Y-107508117D01*
X62623663Y-107508021D01*
X65919313Y-107505894D01*
X69209975Y-107503769D01*
X69214249Y-105113466D01*
X62623666Y-105113466D01*
X62622691Y-105113370D01*
X62621753Y-105113085D01*
X62620888Y-105112623D01*
X62620130Y-105112002D01*
X62619509Y-105111244D01*
X62619047Y-105110379D01*
X62618762Y-105109441D01*
X62618666Y-105108466D01*
X62618666Y-103101866D01*
X62618762Y-103100891D01*
X62619047Y-103099953D01*
X62619509Y-103099088D01*
X62620130Y-103098330D01*
X62620888Y-103097709D01*
X62621753Y-103097247D01*
X62622691Y-103096962D01*
X62623666Y-103096866D01*
X69214199Y-103096866D01*
X69214199Y-100702333D01*
X62623666Y-100702333D01*
X62622691Y-100702237D01*
X62621753Y-100701952D01*
X62620888Y-100701490D01*
X62620130Y-100700869D01*
X62619509Y-100700111D01*
X62619047Y-100699246D01*
X62618762Y-100698308D01*
X62618666Y-100697333D01*
X62618666Y-98699200D01*
X62618762Y-98698225D01*
X62619047Y-98697287D01*
X62619509Y-98696422D01*
X62620130Y-98695664D01*
X62620888Y-98695043D01*
X62621753Y-98694581D01*
X62622691Y-98694296D01*
X62623666Y-98694200D01*
X69214199Y-98694200D01*
X69214199Y-96299666D01*
X62623666Y-96299666D01*
X62622691Y-96299570D01*
X62621753Y-96299285D01*
X62620888Y-96298823D01*
X62620130Y-96298202D01*
X62619509Y-96297444D01*
X62619047Y-96296579D01*
X62618762Y-96295641D01*
X62618666Y-96294666D01*
X62618666Y-94288066D01*
X62618762Y-94287091D01*
X62619047Y-94286153D01*
X62619509Y-94285288D01*
X62620130Y-94284530D01*
X62620888Y-94283909D01*
X62621753Y-94283447D01*
X62622691Y-94283162D01*
X62623666Y-94283066D01*
X69214199Y-94283066D01*
X69214199Y-91888533D01*
X62623666Y-91888533D01*
X62622691Y-91888437D01*
X62621753Y-91888152D01*
X62620888Y-91887690D01*
X62620130Y-91887069D01*
X62619509Y-91886311D01*
X62619047Y-91885446D01*
X62618762Y-91884508D01*
X62618666Y-91883533D01*
X62618666Y-89885400D01*
X62618762Y-89884425D01*
X62619047Y-89883487D01*
X62619509Y-89882622D01*
X62620130Y-89881864D01*
X62620888Y-89881243D01*
X62621753Y-89880781D01*
X62622691Y-89880496D01*
X62623666Y-89880400D01*
X69214199Y-89880400D01*
X69214199Y-87485866D01*
X62623666Y-87485866D01*
X62622691Y-87485770D01*
X62621753Y-87485485D01*
X62620888Y-87485023D01*
X62620130Y-87484402D01*
X62619509Y-87483644D01*
X62619047Y-87482779D01*
X62618762Y-87481841D01*
X62618666Y-87480866D01*
X62618666Y-85474266D01*
X62618762Y-85473291D01*
X62619047Y-85472353D01*
X62619509Y-85471488D01*
X62620130Y-85470730D01*
X62620888Y-85470109D01*
X62621753Y-85469647D01*
X62622691Y-85469362D01*
X62623666Y-85469266D01*
X69214199Y-85469266D01*
X69214199Y-83074733D01*
X62623666Y-83074733D01*
X62622691Y-83074637D01*
X62621753Y-83074352D01*
X62620888Y-83073890D01*
X62620130Y-83073269D01*
X62619509Y-83072511D01*
X62619047Y-83071646D01*
X62618762Y-83070708D01*
X62618666Y-83069733D01*
X62618666Y-81071600D01*
X62618762Y-81070625D01*
X62619047Y-81069687D01*
X62619509Y-81068822D01*
X62620130Y-81068064D01*
X62620888Y-81067443D01*
X62621753Y-81066981D01*
X62622691Y-81066696D01*
X62623666Y-81066600D01*
X69214199Y-81066600D01*
X69214199Y-80868400D01*
X69214295Y-80867425D01*
X69214580Y-80866487D01*
X69215042Y-80865622D01*
X69215663Y-80864864D01*
X69216421Y-80864243D01*
X69217286Y-80863781D01*
X69218224Y-80863496D01*
X69219199Y-80863400D01*
X70218266Y-80863400D01*
X70219241Y-80863496D01*
G37*
%TD.AperFunction*%
%TA.AperFunction,ViaPad*%
%TO.N,GND*%
G36*
X62218241Y-80863496D02*
G01*
X62219179Y-80863781D01*
X62220044Y-80864243D01*
X62220802Y-80864864D01*
X62221423Y-80865622D01*
X62221885Y-80866487D01*
X62222170Y-80867425D01*
X62222266Y-80868400D01*
X62222266Y-83267933D01*
X68812799Y-83267933D01*
X68813774Y-83268029D01*
X68814712Y-83268314D01*
X68815577Y-83268776D01*
X68816335Y-83269397D01*
X68816956Y-83270155D01*
X68817418Y-83271020D01*
X68817703Y-83271958D01*
X68817799Y-83272933D01*
X68817799Y-85279533D01*
X68817703Y-85280508D01*
X68817418Y-85281446D01*
X68816956Y-85282311D01*
X68816335Y-85283069D01*
X68815577Y-85283690D01*
X68814712Y-85284152D01*
X68813774Y-85284437D01*
X68812799Y-85284533D01*
X62222217Y-85284533D01*
X62224354Y-86479674D01*
X62226490Y-87674836D01*
X65517153Y-87676960D01*
X68812803Y-87679088D01*
X68813779Y-87679185D01*
X68814716Y-87679470D01*
X68815581Y-87679932D01*
X68816338Y-87680555D01*
X68816959Y-87681313D01*
X68817421Y-87682178D01*
X68817705Y-87683116D01*
X68817800Y-87684088D01*
X68817799Y-88683144D01*
X68817799Y-89682200D01*
X68817703Y-89683175D01*
X68817418Y-89684113D01*
X68816956Y-89684978D01*
X68816335Y-89685736D01*
X68815577Y-89686357D01*
X68814712Y-89686819D01*
X68813774Y-89687104D01*
X68812799Y-89687200D01*
X62222266Y-89687200D01*
X62222266Y-92081733D01*
X68812869Y-92081733D01*
X68813844Y-92081829D01*
X68814782Y-92082114D01*
X68815647Y-92082576D01*
X68816405Y-92083197D01*
X68817026Y-92083955D01*
X68817488Y-92084820D01*
X68817773Y-92085758D01*
X68817869Y-92086744D01*
X68815718Y-93087927D01*
X68813566Y-94089110D01*
X68813468Y-94090085D01*
X68813181Y-94091022D01*
X68812717Y-94091886D01*
X68812094Y-94092642D01*
X68811335Y-94093262D01*
X68810469Y-94093722D01*
X68809531Y-94094005D01*
X68808569Y-94094099D01*
X65512919Y-94096227D01*
X62222266Y-94098351D01*
X62222266Y-96484399D01*
X68812799Y-96484399D01*
X68813774Y-96484495D01*
X68814712Y-96484780D01*
X68815577Y-96485242D01*
X68816335Y-96485863D01*
X68816956Y-96486621D01*
X68817418Y-96487486D01*
X68817703Y-96488424D01*
X68817799Y-96489399D01*
X68817799Y-98496000D01*
X68817703Y-98496975D01*
X68817418Y-98497913D01*
X68816956Y-98498778D01*
X68816335Y-98499536D01*
X68815577Y-98500157D01*
X68814712Y-98500619D01*
X68813774Y-98500904D01*
X68812799Y-98501000D01*
X62222266Y-98501000D01*
X62222266Y-100895533D01*
X68812799Y-100895533D01*
X68813774Y-100895629D01*
X68814712Y-100895914D01*
X68815577Y-100896376D01*
X68816335Y-100896997D01*
X68816956Y-100897755D01*
X68817418Y-100898620D01*
X68817703Y-100899558D01*
X68817799Y-100900533D01*
X68817799Y-101899589D01*
X68817800Y-102898645D01*
X68817704Y-102899620D01*
X68817419Y-102900558D01*
X68816957Y-102901423D01*
X68816336Y-102902181D01*
X68815578Y-102902802D01*
X68814713Y-102903264D01*
X68813775Y-102903549D01*
X68812803Y-102903645D01*
X65517153Y-102905772D01*
X62226490Y-102907897D01*
X62224354Y-104103059D01*
X62222217Y-105298200D01*
X68812799Y-105298200D01*
X68813774Y-105298296D01*
X68814712Y-105298581D01*
X68815577Y-105299043D01*
X68816335Y-105299664D01*
X68816956Y-105300422D01*
X68817418Y-105301287D01*
X68817703Y-105302225D01*
X68817799Y-105303200D01*
X68817799Y-107309799D01*
X68817703Y-107310774D01*
X68817418Y-107311712D01*
X68816956Y-107312577D01*
X68816335Y-107313335D01*
X68815577Y-107313956D01*
X68814712Y-107314418D01*
X68813774Y-107314703D01*
X68812799Y-107314799D01*
X62222266Y-107314799D01*
X62222266Y-109709333D01*
X68812799Y-109709333D01*
X68813774Y-109709429D01*
X68814712Y-109709714D01*
X68815577Y-109710176D01*
X68816335Y-109710797D01*
X68816956Y-109711555D01*
X68817418Y-109712420D01*
X68817703Y-109713358D01*
X68817799Y-109714333D01*
X68817799Y-111712466D01*
X68817703Y-111713441D01*
X68817418Y-111714379D01*
X68816956Y-111715244D01*
X68816335Y-111716002D01*
X68815577Y-111716623D01*
X68814712Y-111717085D01*
X68813774Y-111717370D01*
X68812799Y-111717466D01*
X62222266Y-111717466D01*
X62222266Y-114111999D01*
X68812799Y-114111999D01*
X68813774Y-114112095D01*
X68814712Y-114112380D01*
X68815577Y-114112842D01*
X68816335Y-114113463D01*
X68816956Y-114114221D01*
X68817418Y-114115086D01*
X68817703Y-114116024D01*
X68817799Y-114116999D01*
X68817799Y-116123600D01*
X68817703Y-116124575D01*
X68817418Y-116125513D01*
X68816956Y-116126378D01*
X68816335Y-116127136D01*
X68815577Y-116127757D01*
X68814712Y-116128219D01*
X68813774Y-116128504D01*
X68812799Y-116128600D01*
X62222266Y-116128600D01*
X62222266Y-118523133D01*
X68812799Y-118523133D01*
X68813774Y-118523229D01*
X68814712Y-118523514D01*
X68815577Y-118523976D01*
X68816335Y-118524597D01*
X68816956Y-118525355D01*
X68817418Y-118526220D01*
X68817703Y-118527158D01*
X68817799Y-118528133D01*
X68817799Y-120526266D01*
X68817703Y-120527241D01*
X68817418Y-120528179D01*
X68816956Y-120529044D01*
X68816335Y-120529802D01*
X68815577Y-120530423D01*
X68814712Y-120530885D01*
X68813774Y-120531170D01*
X68812799Y-120531266D01*
X62222266Y-120531266D01*
X62222266Y-122925800D01*
X68812799Y-122925800D01*
X68813774Y-122925896D01*
X68814712Y-122926181D01*
X68815577Y-122926643D01*
X68816335Y-122927264D01*
X68816956Y-122928022D01*
X68817418Y-122928887D01*
X68817703Y-122929825D01*
X68817799Y-122930800D01*
X68817799Y-124937400D01*
X68817703Y-124938375D01*
X68817418Y-124939313D01*
X68816956Y-124940178D01*
X68816335Y-124940936D01*
X68815577Y-124941557D01*
X68814712Y-124942019D01*
X68813774Y-124942304D01*
X68812799Y-124942400D01*
X62222266Y-124942400D01*
X62222266Y-127336933D01*
X68812799Y-127336933D01*
X68813774Y-127337029D01*
X68814712Y-127337314D01*
X68815577Y-127337776D01*
X68816335Y-127338397D01*
X68816956Y-127339155D01*
X68817418Y-127340020D01*
X68817703Y-127340958D01*
X68817799Y-127341933D01*
X68817799Y-129340066D01*
X68817703Y-129341041D01*
X68817418Y-129341979D01*
X68816956Y-129342844D01*
X68816335Y-129343602D01*
X68815577Y-129344223D01*
X68814712Y-129344685D01*
X68813774Y-129344970D01*
X68812799Y-129345066D01*
X61218200Y-129345066D01*
X61217225Y-129344970D01*
X61216287Y-129344685D01*
X61215422Y-129344223D01*
X61214664Y-129343602D01*
X61214043Y-129342844D01*
X61213581Y-129341979D01*
X61213296Y-129341041D01*
X61213200Y-129340066D01*
X61213200Y-80868400D01*
X61213296Y-80867425D01*
X61213581Y-80866487D01*
X61214043Y-80865622D01*
X61214664Y-80864864D01*
X61215422Y-80864243D01*
X61216287Y-80863781D01*
X61217225Y-80863496D01*
X61218200Y-80863400D01*
X62217266Y-80863400D01*
X62218241Y-80863496D01*
G37*
%TD.AperFunction*%
%TD*%
D12*
%TO.N,GND*%
%TO.C,U5*%
X66785000Y-63565000D03*
X66785000Y-64565000D03*
X66785000Y-65565000D03*
X65785000Y-63565000D03*
X65785000Y-64565000D03*
X65785000Y-65565000D03*
X64785000Y-63565000D03*
X64785000Y-64565000D03*
X64785000Y-65565000D03*
%TD*%
D13*
%TO.N,+BATT*%
X60120000Y-74590000D03*
X68890000Y-58140000D03*
X55430000Y-59210000D03*
X59800000Y-62770000D03*
X58340000Y-60200000D03*
X68180000Y-73100000D03*
X63500000Y-73700000D03*
X76210000Y-60470000D03*
X74790000Y-61880000D03*
X74840000Y-63000000D03*
X62552589Y-69113012D03*
X70020000Y-69570000D03*
X71391514Y-67031985D03*
X79250000Y-71020000D03*
%TO.N,Net-(BT1-Pad2)*%
X80190000Y-64370000D03*
%TO.N,Net-(C9-Pad1)*%
X62040000Y-62630000D03*
X57410000Y-58150000D03*
%TO.N,/SWDIO*%
X63288077Y-68099127D03*
%TO.N,/SWCLK*%
X64038031Y-68089776D03*
%TO.N,/SDA*%
X60500000Y-67570000D03*
X67279999Y-71870001D03*
X65758790Y-71870000D03*
X62630686Y-67161210D03*
%TO.N,/fHumidity*%
X51720000Y-70120000D03*
X61681210Y-66371210D03*
%TO.N,GND*%
X64170000Y-79200000D03*
X72860000Y-58780000D03*
X59100000Y-56970000D03*
X56360000Y-57970000D03*
X55420000Y-63030000D03*
X56710000Y-63020000D03*
X56210000Y-71870000D03*
X55920000Y-74940000D03*
X58780000Y-73630000D03*
X52700000Y-67040000D03*
X56820000Y-69160000D03*
X55090000Y-69100000D03*
X69350000Y-62200000D03*
X63120000Y-79220000D03*
X65240000Y-79230000D03*
X62300000Y-75180000D03*
X61670000Y-76730000D03*
X61680000Y-77640000D03*
X62150000Y-78310000D03*
X80752629Y-57444113D03*
X81400448Y-59054766D03*
X81876359Y-60724310D03*
X82250000Y-62430000D03*
X82293541Y-64166464D03*
X82260000Y-65901359D03*
X81985944Y-67620135D03*
X81563322Y-69303958D03*
X80967009Y-70934381D03*
X80203536Y-72493541D03*
X79450000Y-73790000D03*
X78050000Y-75770000D03*
X77040000Y-76650000D03*
X75030000Y-78070000D03*
X74230000Y-78660000D03*
X72695887Y-79472629D03*
X71085234Y-80120448D03*
X60836042Y-80283322D03*
X59205619Y-79687009D03*
X57646459Y-78923536D03*
X56175644Y-78001270D03*
X54809291Y-76930313D03*
X53562367Y-75722401D03*
X52448536Y-74390767D03*
X51480000Y-72950000D03*
X50667371Y-71415887D03*
X50019552Y-69805234D03*
X49543641Y-68135690D03*
X49434056Y-61239865D03*
X49856678Y-59556042D03*
X50452991Y-57925619D03*
X51216464Y-56366459D03*
X79940000Y-55910000D03*
X52500000Y-55100000D03*
X79200000Y-55100000D03*
X78550000Y-55100000D03*
X77900000Y-55100000D03*
X77250000Y-55100000D03*
X76600000Y-55100000D03*
X75950000Y-55100000D03*
X75300000Y-55100000D03*
X74650000Y-55100000D03*
X74000000Y-55100000D03*
X73350000Y-55100000D03*
X72700000Y-55100000D03*
X72050000Y-55100000D03*
X71400000Y-55100000D03*
X70750000Y-55100000D03*
X70100000Y-55100000D03*
X69450000Y-55100000D03*
X68800000Y-55100000D03*
X68150000Y-55100000D03*
X67500000Y-55100000D03*
X66850000Y-55100000D03*
X66200000Y-55100000D03*
X65550000Y-55100000D03*
X64900000Y-55100000D03*
X64250000Y-55100000D03*
X63600000Y-55100000D03*
X62950000Y-55100000D03*
X62000000Y-55200000D03*
X59050000Y-55100000D03*
X58400000Y-55100000D03*
X57750000Y-55100000D03*
X57100000Y-55100000D03*
X56450000Y-55100000D03*
X55800000Y-55100000D03*
X55150000Y-55100000D03*
X54500000Y-55100000D03*
X53850000Y-55100000D03*
X53200000Y-55100000D03*
X62000000Y-55900000D03*
X62000000Y-56600000D03*
X62000000Y-57300000D03*
X62700000Y-57300000D03*
X63400000Y-57300000D03*
X63400000Y-56700000D03*
X63900000Y-56300000D03*
X64600000Y-56300000D03*
X65200000Y-56600000D03*
X65200000Y-57300000D03*
X65900000Y-57300000D03*
X66600000Y-57300000D03*
X67200000Y-57800000D03*
X67200000Y-58500000D03*
X67400000Y-59100000D03*
X68100000Y-59100000D03*
X68700000Y-59100000D03*
X69100000Y-59600000D03*
X69100000Y-60200000D03*
X63500000Y-60200000D03*
X63500000Y-59600000D03*
X63200000Y-59000000D03*
X62600000Y-59000000D03*
X62300000Y-59600000D03*
X62300000Y-60200000D03*
X61600000Y-60200000D03*
X60900000Y-60200000D03*
X60200000Y-60200000D03*
X60200000Y-59500000D03*
X60200000Y-58800000D03*
X60200000Y-58100000D03*
X60200000Y-57400000D03*
X60200000Y-56600000D03*
X60200000Y-55800000D03*
X60200000Y-55200000D03*
X78890000Y-54520000D03*
X78240000Y-54520000D03*
X77590000Y-54520000D03*
X76940000Y-54520000D03*
X76290000Y-54520000D03*
X75640000Y-54520000D03*
X74990000Y-54520000D03*
X74340000Y-54520000D03*
X73690000Y-54520000D03*
X73040000Y-54520000D03*
X72390000Y-54520000D03*
X71740000Y-54520000D03*
X71090000Y-54520000D03*
X70440000Y-54520000D03*
X69790000Y-54520000D03*
X69140000Y-54520000D03*
X68490000Y-54520000D03*
X67840000Y-54520000D03*
X67190000Y-54520000D03*
X66540000Y-54520000D03*
X65890000Y-54520000D03*
X65240000Y-54520000D03*
X64590000Y-54520000D03*
X63940000Y-54520000D03*
X63290000Y-54520000D03*
X62640000Y-54520000D03*
X62030000Y-54520000D03*
X60210000Y-54510000D03*
X58090000Y-54520000D03*
X57440000Y-54520000D03*
X56790000Y-54520000D03*
X56140000Y-54520000D03*
X55490000Y-54520000D03*
X54840000Y-54520000D03*
X54190000Y-54520000D03*
X53540000Y-54520000D03*
X52890000Y-54520000D03*
X68280000Y-67060000D03*
X68280000Y-62080000D03*
X55580000Y-60910000D03*
X59890000Y-63524990D03*
X69326506Y-69855628D03*
X54670000Y-65268790D03*
X71950000Y-65270000D03*
X73860000Y-63790000D03*
X73870000Y-61810000D03*
X75420000Y-59670000D03*
X74650000Y-57730000D03*
X76500000Y-57750000D03*
X49040000Y-62970000D03*
X48950000Y-64430000D03*
X49080000Y-66310000D03*
X62300000Y-70360000D03*
X64120000Y-70370000D03*
%TO.N,Net-(BT1-Pad1)*%
X74290000Y-64420000D03*
%TO.N,Net-(C1-Pad1)*%
X55750000Y-70710000D03*
X55760000Y-68290000D03*
%TO.N,/~SOIL_EN~*%
X60140000Y-78360000D03*
X66120000Y-68080000D03*
%TO.N,/~BLE_RST*%
X67290000Y-67980000D03*
X76020000Y-72440000D03*
%TO.N,/LEDY*%
X69150000Y-74560000D03*
X69142647Y-67060009D03*
%TO.N,/LEDR*%
X68115278Y-67926379D03*
X62420000Y-74390000D03*
%TD*%
D14*
%TO.N,+BATT*%
G36*
X52261133Y-54329235D02*
G01*
X52236000Y-54455587D01*
X52236000Y-54501468D01*
X52190215Y-54520433D01*
X52083100Y-54592005D01*
X51992005Y-54683100D01*
X51920433Y-54790215D01*
X51871133Y-54909235D01*
X51846000Y-55035587D01*
X51846000Y-55164413D01*
X51871133Y-55290765D01*
X51920433Y-55409785D01*
X51992005Y-55516900D01*
X52083100Y-55607995D01*
X52190215Y-55679567D01*
X52309235Y-55728867D01*
X52435587Y-55754000D01*
X52564413Y-55754000D01*
X52690765Y-55728867D01*
X52809785Y-55679567D01*
X52850000Y-55652696D01*
X52890215Y-55679567D01*
X53009235Y-55728867D01*
X53135587Y-55754000D01*
X53264413Y-55754000D01*
X53390765Y-55728867D01*
X53509785Y-55679567D01*
X53525000Y-55669401D01*
X53540215Y-55679567D01*
X53659235Y-55728867D01*
X53785587Y-55754000D01*
X53914413Y-55754000D01*
X54040765Y-55728867D01*
X54159785Y-55679567D01*
X54175000Y-55669401D01*
X54190215Y-55679567D01*
X54309235Y-55728867D01*
X54435587Y-55754000D01*
X54564413Y-55754000D01*
X54690765Y-55728867D01*
X54809785Y-55679567D01*
X54825000Y-55669401D01*
X54840215Y-55679567D01*
X54959235Y-55728867D01*
X55085587Y-55754000D01*
X55214413Y-55754000D01*
X55340765Y-55728867D01*
X55459785Y-55679567D01*
X55475000Y-55669401D01*
X55490215Y-55679567D01*
X55609235Y-55728867D01*
X55735587Y-55754000D01*
X55864413Y-55754000D01*
X55990765Y-55728867D01*
X56109785Y-55679567D01*
X56125000Y-55669401D01*
X56140215Y-55679567D01*
X56259235Y-55728867D01*
X56385587Y-55754000D01*
X56514413Y-55754000D01*
X56640765Y-55728867D01*
X56759785Y-55679567D01*
X56775000Y-55669401D01*
X56790215Y-55679567D01*
X56909235Y-55728867D01*
X57035587Y-55754000D01*
X57164413Y-55754000D01*
X57290765Y-55728867D01*
X57409785Y-55679567D01*
X57425000Y-55669401D01*
X57440215Y-55679567D01*
X57559235Y-55728867D01*
X57685587Y-55754000D01*
X57814413Y-55754000D01*
X57940765Y-55728867D01*
X58059785Y-55679567D01*
X58075000Y-55669401D01*
X58090215Y-55679567D01*
X58209235Y-55728867D01*
X58335587Y-55754000D01*
X58464413Y-55754000D01*
X58590765Y-55728867D01*
X58709785Y-55679567D01*
X58725000Y-55669401D01*
X58740215Y-55679567D01*
X58859235Y-55728867D01*
X58985587Y-55754000D01*
X59114413Y-55754000D01*
X59240765Y-55728867D01*
X59359785Y-55679567D01*
X59466900Y-55607995D01*
X59557995Y-55516900D01*
X59598358Y-55456492D01*
X59616380Y-55500000D01*
X59571133Y-55609235D01*
X59546000Y-55735587D01*
X59546000Y-55864413D01*
X59571133Y-55990765D01*
X59620433Y-56109785D01*
X59680713Y-56200000D01*
X59620433Y-56290215D01*
X59571133Y-56409235D01*
X59553380Y-56498485D01*
X59516900Y-56462005D01*
X59409785Y-56390433D01*
X59290765Y-56341133D01*
X59164413Y-56316000D01*
X59035587Y-56316000D01*
X58909235Y-56341133D01*
X58790215Y-56390433D01*
X58683100Y-56462005D01*
X58592005Y-56553100D01*
X58520433Y-56660215D01*
X58471133Y-56779235D01*
X58446000Y-56905587D01*
X58446000Y-57034413D01*
X58471133Y-57160765D01*
X58520433Y-57279785D01*
X58592005Y-57386900D01*
X58683100Y-57477995D01*
X58790215Y-57549567D01*
X58909235Y-57598867D01*
X59035587Y-57624000D01*
X59164413Y-57624000D01*
X59290765Y-57598867D01*
X59409785Y-57549567D01*
X59516900Y-57477995D01*
X59546000Y-57448895D01*
X59546000Y-57464413D01*
X59571133Y-57590765D01*
X59620433Y-57709785D01*
X59647304Y-57750000D01*
X59620433Y-57790215D01*
X59571133Y-57909235D01*
X59546000Y-58035587D01*
X59546000Y-58164413D01*
X59571133Y-58290765D01*
X59620433Y-58409785D01*
X59647304Y-58450000D01*
X59620433Y-58490215D01*
X59571133Y-58609235D01*
X59546000Y-58735587D01*
X59546000Y-58864413D01*
X59571133Y-58990765D01*
X59620433Y-59109785D01*
X59647304Y-59150000D01*
X59620433Y-59190215D01*
X59571133Y-59309235D01*
X59546000Y-59435587D01*
X59546000Y-59564413D01*
X59571133Y-59690765D01*
X59620433Y-59809785D01*
X59647304Y-59850000D01*
X59620433Y-59890215D01*
X59571133Y-60009235D01*
X59546000Y-60135587D01*
X59546000Y-60264413D01*
X59571133Y-60390765D01*
X59620433Y-60509785D01*
X59692005Y-60616900D01*
X59783100Y-60707995D01*
X59890215Y-60779567D01*
X60009235Y-60828867D01*
X60135587Y-60854000D01*
X60264413Y-60854000D01*
X60390765Y-60828867D01*
X60509785Y-60779567D01*
X60550000Y-60752696D01*
X60590215Y-60779567D01*
X60709235Y-60828867D01*
X60835587Y-60854000D01*
X60964413Y-60854000D01*
X61090765Y-60828867D01*
X61209785Y-60779567D01*
X61250000Y-60752696D01*
X61290215Y-60779567D01*
X61409235Y-60828867D01*
X61535587Y-60854000D01*
X61664413Y-60854000D01*
X61790765Y-60828867D01*
X61909785Y-60779567D01*
X61950000Y-60752696D01*
X61990215Y-60779567D01*
X62109235Y-60828867D01*
X62235587Y-60854000D01*
X62364413Y-60854000D01*
X62490765Y-60828867D01*
X62609785Y-60779567D01*
X62716900Y-60707995D01*
X62807995Y-60616900D01*
X62879567Y-60509785D01*
X62900000Y-60460456D01*
X62920433Y-60509785D01*
X62992005Y-60616900D01*
X63083100Y-60707995D01*
X63190215Y-60779567D01*
X63309235Y-60828867D01*
X63435587Y-60854000D01*
X63564413Y-60854000D01*
X63690765Y-60828867D01*
X63809785Y-60779567D01*
X63916900Y-60707995D01*
X64007995Y-60616900D01*
X64079567Y-60509785D01*
X64128867Y-60390765D01*
X64154000Y-60264413D01*
X64154000Y-60135587D01*
X64128867Y-60009235D01*
X64083620Y-59900000D01*
X64128867Y-59790765D01*
X64154000Y-59664413D01*
X64154000Y-59535587D01*
X64128867Y-59409235D01*
X64079567Y-59290215D01*
X64007995Y-59183100D01*
X63916900Y-59092005D01*
X63854000Y-59049977D01*
X63854000Y-58935587D01*
X63828867Y-58809235D01*
X63779567Y-58690215D01*
X63707995Y-58583100D01*
X63616900Y-58492005D01*
X63509785Y-58420433D01*
X63390765Y-58371133D01*
X63264413Y-58346000D01*
X63135587Y-58346000D01*
X63009235Y-58371133D01*
X62900000Y-58416380D01*
X62790765Y-58371133D01*
X62664413Y-58346000D01*
X62535587Y-58346000D01*
X62409235Y-58371133D01*
X62290215Y-58420433D01*
X62183100Y-58492005D01*
X62092005Y-58583100D01*
X62020433Y-58690215D01*
X61971133Y-58809235D01*
X61946000Y-58935587D01*
X61946000Y-59049977D01*
X61883100Y-59092005D01*
X61792005Y-59183100D01*
X61720433Y-59290215D01*
X61671133Y-59409235D01*
X61646000Y-59535587D01*
X61646000Y-59546000D01*
X61535587Y-59546000D01*
X61409235Y-59571133D01*
X61290215Y-59620433D01*
X61250000Y-59647304D01*
X61209785Y-59620433D01*
X61090765Y-59571133D01*
X60964413Y-59546000D01*
X60854000Y-59546000D01*
X60854000Y-59435587D01*
X60828867Y-59309235D01*
X60779567Y-59190215D01*
X60752696Y-59150000D01*
X60779567Y-59109785D01*
X60828867Y-58990765D01*
X60854000Y-58864413D01*
X60854000Y-58735587D01*
X60828867Y-58609235D01*
X60779567Y-58490215D01*
X60752696Y-58450000D01*
X60779567Y-58409785D01*
X60828867Y-58290765D01*
X60854000Y-58164413D01*
X60854000Y-58035587D01*
X60828867Y-57909235D01*
X60779567Y-57790215D01*
X60752696Y-57750000D01*
X60779567Y-57709785D01*
X60828867Y-57590765D01*
X60854000Y-57464413D01*
X60854000Y-57335587D01*
X60828867Y-57209235D01*
X60779567Y-57090215D01*
X60719287Y-57000000D01*
X60779567Y-56909785D01*
X60828867Y-56790765D01*
X60854000Y-56664413D01*
X60854000Y-56535587D01*
X60828867Y-56409235D01*
X60779567Y-56290215D01*
X60719287Y-56200000D01*
X60779567Y-56109785D01*
X60828867Y-55990765D01*
X60854000Y-55864413D01*
X60854000Y-55735587D01*
X60828867Y-55609235D01*
X60783620Y-55500000D01*
X60828867Y-55390765D01*
X60854000Y-55264413D01*
X60854000Y-55135587D01*
X60828867Y-55009235D01*
X60779567Y-54890215D01*
X60761037Y-54862483D01*
X60789567Y-54819785D01*
X60838867Y-54700765D01*
X60864000Y-54574413D01*
X60864000Y-54445587D01*
X60838867Y-54319235D01*
X60799833Y-54225000D01*
X61444309Y-54225000D01*
X61401133Y-54329235D01*
X61376000Y-54455587D01*
X61376000Y-54584413D01*
X61401133Y-54710765D01*
X61450433Y-54829785D01*
X61455622Y-54837551D01*
X61420433Y-54890215D01*
X61371133Y-55009235D01*
X61346000Y-55135587D01*
X61346000Y-55264413D01*
X61371133Y-55390765D01*
X61420433Y-55509785D01*
X61447304Y-55550000D01*
X61420433Y-55590215D01*
X61371133Y-55709235D01*
X61346000Y-55835587D01*
X61346000Y-55964413D01*
X61371133Y-56090765D01*
X61420433Y-56209785D01*
X61447304Y-56250000D01*
X61420433Y-56290215D01*
X61371133Y-56409235D01*
X61346000Y-56535587D01*
X61346000Y-56664413D01*
X61371133Y-56790765D01*
X61420433Y-56909785D01*
X61447304Y-56950000D01*
X61420433Y-56990215D01*
X61371133Y-57109235D01*
X61346000Y-57235587D01*
X61346000Y-57364413D01*
X61371133Y-57490765D01*
X61420433Y-57609785D01*
X61492005Y-57716900D01*
X61583100Y-57807995D01*
X61690215Y-57879567D01*
X61809235Y-57928867D01*
X61935587Y-57954000D01*
X62064413Y-57954000D01*
X62190765Y-57928867D01*
X62309785Y-57879567D01*
X62350000Y-57852696D01*
X62390215Y-57879567D01*
X62509235Y-57928867D01*
X62635587Y-57954000D01*
X62764413Y-57954000D01*
X62890765Y-57928867D01*
X63009785Y-57879567D01*
X63050000Y-57852696D01*
X63090215Y-57879567D01*
X63209235Y-57928867D01*
X63335587Y-57954000D01*
X63464413Y-57954000D01*
X63590765Y-57928867D01*
X63709785Y-57879567D01*
X63816900Y-57807995D01*
X63907995Y-57716900D01*
X63979567Y-57609785D01*
X64028867Y-57490765D01*
X64054000Y-57364413D01*
X64054000Y-57235587D01*
X64028867Y-57109235D01*
X63983620Y-57000000D01*
X64006110Y-56945706D01*
X64090765Y-56928867D01*
X64209785Y-56879567D01*
X64250000Y-56852696D01*
X64290215Y-56879567D01*
X64409235Y-56928867D01*
X64535587Y-56954000D01*
X64644631Y-56954000D01*
X64620433Y-56990215D01*
X64571133Y-57109235D01*
X64546000Y-57235587D01*
X64546000Y-57364413D01*
X64571133Y-57490765D01*
X64620433Y-57609785D01*
X64692005Y-57716900D01*
X64783100Y-57807995D01*
X64890215Y-57879567D01*
X65009235Y-57928867D01*
X65135587Y-57954000D01*
X65264413Y-57954000D01*
X65390765Y-57928867D01*
X65509785Y-57879567D01*
X65550000Y-57852696D01*
X65590215Y-57879567D01*
X65709235Y-57928867D01*
X65835587Y-57954000D01*
X65964413Y-57954000D01*
X66090765Y-57928867D01*
X66209785Y-57879567D01*
X66250000Y-57852696D01*
X66290215Y-57879567D01*
X66409235Y-57928867D01*
X66535587Y-57954000D01*
X66563820Y-57954000D01*
X66571133Y-57990765D01*
X66620433Y-58109785D01*
X66647304Y-58150000D01*
X66620433Y-58190215D01*
X66571133Y-58309235D01*
X66546000Y-58435587D01*
X66546000Y-58564413D01*
X66571133Y-58690765D01*
X66620433Y-58809785D01*
X66692005Y-58916900D01*
X66756733Y-58981628D01*
X66746000Y-59035587D01*
X66746000Y-59164413D01*
X66771133Y-59290765D01*
X66820433Y-59409785D01*
X66892005Y-59516900D01*
X66983100Y-59607995D01*
X67090215Y-59679567D01*
X67209235Y-59728867D01*
X67335587Y-59754000D01*
X67464413Y-59754000D01*
X67590765Y-59728867D01*
X67709785Y-59679567D01*
X67750000Y-59652696D01*
X67790215Y-59679567D01*
X67909235Y-59728867D01*
X68035587Y-59754000D01*
X68164413Y-59754000D01*
X68290765Y-59728867D01*
X68400000Y-59683620D01*
X68454294Y-59706110D01*
X68471133Y-59790765D01*
X68516380Y-59900000D01*
X68471133Y-60009235D01*
X68446000Y-60135587D01*
X68446000Y-60264413D01*
X68471133Y-60390765D01*
X68520433Y-60509785D01*
X68592005Y-60616900D01*
X68683100Y-60707995D01*
X68790215Y-60779567D01*
X68909235Y-60828867D01*
X69035587Y-60854000D01*
X69164413Y-60854000D01*
X69290765Y-60828867D01*
X69409785Y-60779567D01*
X69516900Y-60707995D01*
X69607995Y-60616900D01*
X69679567Y-60509785D01*
X69728867Y-60390765D01*
X69754000Y-60264413D01*
X69754000Y-60135587D01*
X69728867Y-60009235D01*
X69683620Y-59900000D01*
X69728867Y-59790765D01*
X69754000Y-59664413D01*
X69754000Y-59605587D01*
X74766000Y-59605587D01*
X74766000Y-59734413D01*
X74791133Y-59860765D01*
X74840433Y-59979785D01*
X74912005Y-60086900D01*
X75003100Y-60177995D01*
X75110215Y-60249567D01*
X75229235Y-60298867D01*
X75355587Y-60324000D01*
X75484413Y-60324000D01*
X75610765Y-60298867D01*
X75729785Y-60249567D01*
X75836900Y-60177995D01*
X75927995Y-60086900D01*
X75999567Y-59979785D01*
X76048867Y-59860765D01*
X76074000Y-59734413D01*
X76074000Y-59605587D01*
X76048867Y-59479235D01*
X75999567Y-59360215D01*
X75927995Y-59253100D01*
X75836900Y-59162005D01*
X75729785Y-59090433D01*
X75610765Y-59041133D01*
X75484413Y-59016000D01*
X75355587Y-59016000D01*
X75229235Y-59041133D01*
X75110215Y-59090433D01*
X75003100Y-59162005D01*
X74912005Y-59253100D01*
X74840433Y-59360215D01*
X74791133Y-59479235D01*
X74766000Y-59605587D01*
X69754000Y-59605587D01*
X69754000Y-59535587D01*
X69728867Y-59409235D01*
X69679567Y-59290215D01*
X69607995Y-59183100D01*
X69516900Y-59092005D01*
X69409785Y-59020433D01*
X69345706Y-58993890D01*
X69328867Y-58909235D01*
X69279567Y-58790215D01*
X69229703Y-58715587D01*
X72206000Y-58715587D01*
X72206000Y-58844413D01*
X72231133Y-58970765D01*
X72280433Y-59089785D01*
X72352005Y-59196900D01*
X72443100Y-59287995D01*
X72550215Y-59359567D01*
X72669235Y-59408867D01*
X72795587Y-59434000D01*
X72924413Y-59434000D01*
X73050765Y-59408867D01*
X73169785Y-59359567D01*
X73276900Y-59287995D01*
X73367995Y-59196900D01*
X73439567Y-59089785D01*
X73488867Y-58970765D01*
X73514000Y-58844413D01*
X73514000Y-58715587D01*
X73488867Y-58589235D01*
X73439567Y-58470215D01*
X73367995Y-58363100D01*
X73276900Y-58272005D01*
X73169785Y-58200433D01*
X73050765Y-58151133D01*
X72924413Y-58126000D01*
X72795587Y-58126000D01*
X72669235Y-58151133D01*
X72550215Y-58200433D01*
X72443100Y-58272005D01*
X72352005Y-58363100D01*
X72280433Y-58470215D01*
X72231133Y-58589235D01*
X72206000Y-58715587D01*
X69229703Y-58715587D01*
X69207995Y-58683100D01*
X69116900Y-58592005D01*
X69009785Y-58520433D01*
X68890765Y-58471133D01*
X68764413Y-58446000D01*
X68635587Y-58446000D01*
X68509235Y-58471133D01*
X68400000Y-58516380D01*
X68290765Y-58471133D01*
X68164413Y-58446000D01*
X68035587Y-58446000D01*
X67909235Y-58471133D01*
X67854000Y-58494012D01*
X67854000Y-58435587D01*
X67828867Y-58309235D01*
X67779567Y-58190215D01*
X67752696Y-58150000D01*
X67779567Y-58109785D01*
X67828867Y-57990765D01*
X67854000Y-57864413D01*
X67854000Y-57735587D01*
X67840077Y-57665587D01*
X73996000Y-57665587D01*
X73996000Y-57794413D01*
X74021133Y-57920765D01*
X74070433Y-58039785D01*
X74142005Y-58146900D01*
X74233100Y-58237995D01*
X74340215Y-58309567D01*
X74459235Y-58358867D01*
X74585587Y-58384000D01*
X74714413Y-58384000D01*
X74840765Y-58358867D01*
X74959785Y-58309567D01*
X75066900Y-58237995D01*
X75157995Y-58146900D01*
X75229567Y-58039785D01*
X75278867Y-57920765D01*
X75304000Y-57794413D01*
X75304000Y-57685587D01*
X75846000Y-57685587D01*
X75846000Y-57814413D01*
X75871133Y-57940765D01*
X75920433Y-58059785D01*
X75992005Y-58166900D01*
X76083100Y-58257995D01*
X76190215Y-58329567D01*
X76309235Y-58378867D01*
X76435587Y-58404000D01*
X76564413Y-58404000D01*
X76690765Y-58378867D01*
X76809785Y-58329567D01*
X76916900Y-58257995D01*
X77007995Y-58166900D01*
X77079567Y-58059785D01*
X77128867Y-57940765D01*
X77154000Y-57814413D01*
X77154000Y-57685587D01*
X77128867Y-57559235D01*
X77079567Y-57440215D01*
X77007995Y-57333100D01*
X76916900Y-57242005D01*
X76809785Y-57170433D01*
X76690765Y-57121133D01*
X76564413Y-57096000D01*
X76435587Y-57096000D01*
X76309235Y-57121133D01*
X76190215Y-57170433D01*
X76083100Y-57242005D01*
X75992005Y-57333100D01*
X75920433Y-57440215D01*
X75871133Y-57559235D01*
X75846000Y-57685587D01*
X75304000Y-57685587D01*
X75304000Y-57665587D01*
X75278867Y-57539235D01*
X75229567Y-57420215D01*
X75157995Y-57313100D01*
X75066900Y-57222005D01*
X74959785Y-57150433D01*
X74840765Y-57101133D01*
X74714413Y-57076000D01*
X74585587Y-57076000D01*
X74459235Y-57101133D01*
X74340215Y-57150433D01*
X74233100Y-57222005D01*
X74142005Y-57313100D01*
X74070433Y-57420215D01*
X74021133Y-57539235D01*
X73996000Y-57665587D01*
X67840077Y-57665587D01*
X67828867Y-57609235D01*
X67779567Y-57490215D01*
X67707995Y-57383100D01*
X67616900Y-57292005D01*
X67509785Y-57220433D01*
X67390765Y-57171133D01*
X67264413Y-57146000D01*
X67236180Y-57146000D01*
X67228867Y-57109235D01*
X67179567Y-56990215D01*
X67107995Y-56883100D01*
X67016900Y-56792005D01*
X66909785Y-56720433D01*
X66790765Y-56671133D01*
X66664413Y-56646000D01*
X66535587Y-56646000D01*
X66409235Y-56671133D01*
X66290215Y-56720433D01*
X66250000Y-56747304D01*
X66209785Y-56720433D01*
X66090765Y-56671133D01*
X65964413Y-56646000D01*
X65854000Y-56646000D01*
X65854000Y-56535587D01*
X65828867Y-56409235D01*
X65779567Y-56290215D01*
X65707995Y-56183100D01*
X65616900Y-56092005D01*
X65509785Y-56020433D01*
X65390765Y-55971133D01*
X65264413Y-55946000D01*
X65150023Y-55946000D01*
X65107995Y-55883100D01*
X65016900Y-55792005D01*
X64960022Y-55754000D01*
X64964413Y-55754000D01*
X65090765Y-55728867D01*
X65209785Y-55679567D01*
X65225000Y-55669401D01*
X65240215Y-55679567D01*
X65359235Y-55728867D01*
X65485587Y-55754000D01*
X65614413Y-55754000D01*
X65740765Y-55728867D01*
X65859785Y-55679567D01*
X65875000Y-55669401D01*
X65890215Y-55679567D01*
X66009235Y-55728867D01*
X66135587Y-55754000D01*
X66264413Y-55754000D01*
X66390765Y-55728867D01*
X66509785Y-55679567D01*
X66525000Y-55669401D01*
X66540215Y-55679567D01*
X66659235Y-55728867D01*
X66785587Y-55754000D01*
X66914413Y-55754000D01*
X67040765Y-55728867D01*
X67159785Y-55679567D01*
X67175000Y-55669401D01*
X67190215Y-55679567D01*
X67309235Y-55728867D01*
X67435587Y-55754000D01*
X67564413Y-55754000D01*
X67690765Y-55728867D01*
X67809785Y-55679567D01*
X67825000Y-55669401D01*
X67840215Y-55679567D01*
X67959235Y-55728867D01*
X68085587Y-55754000D01*
X68214413Y-55754000D01*
X68340765Y-55728867D01*
X68459785Y-55679567D01*
X68475000Y-55669401D01*
X68490215Y-55679567D01*
X68609235Y-55728867D01*
X68735587Y-55754000D01*
X68864413Y-55754000D01*
X68990765Y-55728867D01*
X69109785Y-55679567D01*
X69125000Y-55669401D01*
X69140215Y-55679567D01*
X69259235Y-55728867D01*
X69385587Y-55754000D01*
X69514413Y-55754000D01*
X69640765Y-55728867D01*
X69759785Y-55679567D01*
X69775000Y-55669401D01*
X69790215Y-55679567D01*
X69909235Y-55728867D01*
X70035587Y-55754000D01*
X70164413Y-55754000D01*
X70290765Y-55728867D01*
X70409785Y-55679567D01*
X70425000Y-55669401D01*
X70440215Y-55679567D01*
X70559235Y-55728867D01*
X70685587Y-55754000D01*
X70814413Y-55754000D01*
X70940765Y-55728867D01*
X71059785Y-55679567D01*
X71075000Y-55669401D01*
X71090215Y-55679567D01*
X71209235Y-55728867D01*
X71335587Y-55754000D01*
X71464413Y-55754000D01*
X71590765Y-55728867D01*
X71709785Y-55679567D01*
X71725000Y-55669401D01*
X71740215Y-55679567D01*
X71859235Y-55728867D01*
X71985587Y-55754000D01*
X72114413Y-55754000D01*
X72240765Y-55728867D01*
X72359785Y-55679567D01*
X72375000Y-55669401D01*
X72390215Y-55679567D01*
X72509235Y-55728867D01*
X72635587Y-55754000D01*
X72764413Y-55754000D01*
X72890765Y-55728867D01*
X73009785Y-55679567D01*
X73025000Y-55669401D01*
X73040215Y-55679567D01*
X73159235Y-55728867D01*
X73285587Y-55754000D01*
X73414413Y-55754000D01*
X73540765Y-55728867D01*
X73659785Y-55679567D01*
X73675000Y-55669401D01*
X73690215Y-55679567D01*
X73809235Y-55728867D01*
X73935587Y-55754000D01*
X74064413Y-55754000D01*
X74190765Y-55728867D01*
X74309785Y-55679567D01*
X74325000Y-55669401D01*
X74340215Y-55679567D01*
X74459235Y-55728867D01*
X74585587Y-55754000D01*
X74714413Y-55754000D01*
X74840765Y-55728867D01*
X74959785Y-55679567D01*
X74975000Y-55669401D01*
X74990215Y-55679567D01*
X75109235Y-55728867D01*
X75235587Y-55754000D01*
X75364413Y-55754000D01*
X75490765Y-55728867D01*
X75609785Y-55679567D01*
X75625000Y-55669401D01*
X75640215Y-55679567D01*
X75759235Y-55728867D01*
X75885587Y-55754000D01*
X76014413Y-55754000D01*
X76140765Y-55728867D01*
X76259785Y-55679567D01*
X76275000Y-55669401D01*
X76290215Y-55679567D01*
X76409235Y-55728867D01*
X76535587Y-55754000D01*
X76664413Y-55754000D01*
X76790765Y-55728867D01*
X76909785Y-55679567D01*
X76925000Y-55669401D01*
X76940215Y-55679567D01*
X77059235Y-55728867D01*
X77185587Y-55754000D01*
X77314413Y-55754000D01*
X77440765Y-55728867D01*
X77559785Y-55679567D01*
X77575000Y-55669401D01*
X77590215Y-55679567D01*
X77709235Y-55728867D01*
X77835587Y-55754000D01*
X77964413Y-55754000D01*
X78090765Y-55728867D01*
X78209785Y-55679567D01*
X78225000Y-55669401D01*
X78240215Y-55679567D01*
X78359235Y-55728867D01*
X78485587Y-55754000D01*
X78614413Y-55754000D01*
X78740765Y-55728867D01*
X78859785Y-55679567D01*
X78875000Y-55669401D01*
X78890215Y-55679567D01*
X79009235Y-55728867D01*
X79135587Y-55754000D01*
X79264413Y-55754000D01*
X79305858Y-55745756D01*
X79286000Y-55845587D01*
X79286000Y-55974413D01*
X79311133Y-56100765D01*
X79360433Y-56219785D01*
X79432005Y-56326900D01*
X79523100Y-56417995D01*
X79630215Y-56489567D01*
X79749235Y-56538867D01*
X79875587Y-56564000D01*
X80004413Y-56564000D01*
X80130765Y-56538867D01*
X80249785Y-56489567D01*
X80356900Y-56417995D01*
X80447995Y-56326900D01*
X80519567Y-56219785D01*
X80568867Y-56100765D01*
X80576301Y-56063391D01*
X80982554Y-56787280D01*
X81006539Y-56841402D01*
X80943394Y-56815246D01*
X80817042Y-56790113D01*
X80688216Y-56790113D01*
X80561864Y-56815246D01*
X80442844Y-56864546D01*
X80335729Y-56936118D01*
X80244634Y-57027213D01*
X80173062Y-57134328D01*
X80123762Y-57253348D01*
X80098629Y-57379700D01*
X80098629Y-57508526D01*
X80123762Y-57634878D01*
X80173062Y-57753898D01*
X80244634Y-57861013D01*
X80335729Y-57952108D01*
X80442844Y-58023680D01*
X80561864Y-58072980D01*
X80688216Y-58098113D01*
X80817042Y-58098113D01*
X80943394Y-58072980D01*
X81062414Y-58023680D01*
X81169529Y-57952108D01*
X81260624Y-57861013D01*
X81332196Y-57753898D01*
X81370234Y-57662066D01*
X81634167Y-58257622D01*
X81706450Y-58473632D01*
X81591213Y-58425899D01*
X81464861Y-58400766D01*
X81336035Y-58400766D01*
X81209683Y-58425899D01*
X81090663Y-58475199D01*
X80983548Y-58546771D01*
X80892453Y-58637866D01*
X80820881Y-58744981D01*
X80771581Y-58864001D01*
X80746448Y-58990353D01*
X80746448Y-59119179D01*
X80771581Y-59245531D01*
X80820881Y-59364551D01*
X80892453Y-59471666D01*
X80983548Y-59562761D01*
X81090663Y-59634333D01*
X81209683Y-59683633D01*
X81336035Y-59708766D01*
X81464861Y-59708766D01*
X81591213Y-59683633D01*
X81710233Y-59634333D01*
X81817348Y-59562761D01*
X81908443Y-59471666D01*
X81980015Y-59364551D01*
X81993600Y-59331755D01*
X82144517Y-59782757D01*
X82236612Y-60178465D01*
X82186144Y-60144743D01*
X82067124Y-60095443D01*
X81940772Y-60070310D01*
X81811946Y-60070310D01*
X81685594Y-60095443D01*
X81566574Y-60144743D01*
X81459459Y-60216315D01*
X81368364Y-60307410D01*
X81296792Y-60414525D01*
X81247492Y-60533545D01*
X81222359Y-60659897D01*
X81222359Y-60788723D01*
X81247492Y-60915075D01*
X81296792Y-61034095D01*
X81368364Y-61141210D01*
X81459459Y-61232305D01*
X81566574Y-61303877D01*
X81685594Y-61353177D01*
X81811946Y-61378310D01*
X81940772Y-61378310D01*
X82067124Y-61353177D01*
X82186144Y-61303877D01*
X82293259Y-61232305D01*
X82384354Y-61141210D01*
X82440961Y-61056492D01*
X82509075Y-61349163D01*
X82578560Y-61862978D01*
X82559785Y-61850433D01*
X82440765Y-61801133D01*
X82314413Y-61776000D01*
X82185587Y-61776000D01*
X82059235Y-61801133D01*
X81940215Y-61850433D01*
X81833100Y-61922005D01*
X81742005Y-62013100D01*
X81670433Y-62120215D01*
X81621133Y-62239235D01*
X81596000Y-62365587D01*
X81596000Y-62494413D01*
X81621133Y-62620765D01*
X81670433Y-62739785D01*
X81742005Y-62846900D01*
X81833100Y-62937995D01*
X81940215Y-63009567D01*
X82059235Y-63058867D01*
X82185587Y-63084000D01*
X82314413Y-63084000D01*
X82440765Y-63058867D01*
X82559785Y-63009567D01*
X82666900Y-62937995D01*
X82717144Y-62887751D01*
X82724603Y-62942914D01*
X82755160Y-63703188D01*
X82710441Y-63658469D01*
X82603326Y-63586897D01*
X82484306Y-63537597D01*
X82357954Y-63512464D01*
X82229128Y-63512464D01*
X82102776Y-63537597D01*
X81983756Y-63586897D01*
X81876641Y-63658469D01*
X81785546Y-63749564D01*
X81713974Y-63856679D01*
X81664674Y-63975699D01*
X81639541Y-64102051D01*
X81639541Y-64230877D01*
X81664674Y-64357229D01*
X81713974Y-64476249D01*
X81785546Y-64583364D01*
X81876641Y-64674459D01*
X81983756Y-64746031D01*
X82102776Y-64795331D01*
X82229128Y-64820464D01*
X82357954Y-64820464D01*
X82484306Y-64795331D01*
X82603326Y-64746031D01*
X82710441Y-64674459D01*
X82786567Y-64598333D01*
X82740109Y-65456573D01*
X82676900Y-65393364D01*
X82569785Y-65321792D01*
X82450765Y-65272492D01*
X82324413Y-65247359D01*
X82195587Y-65247359D01*
X82069235Y-65272492D01*
X81950215Y-65321792D01*
X81843100Y-65393364D01*
X81752005Y-65484459D01*
X81680433Y-65591574D01*
X81631133Y-65710594D01*
X81606000Y-65836946D01*
X81606000Y-65965772D01*
X81631133Y-66092124D01*
X81680433Y-66211144D01*
X81752005Y-66318259D01*
X81843100Y-66409354D01*
X81950215Y-66480926D01*
X82069235Y-66530226D01*
X82195587Y-66555359D01*
X82324413Y-66555359D01*
X82450765Y-66530226D01*
X82569785Y-66480926D01*
X82662982Y-66418654D01*
X82536279Y-67266601D01*
X82493939Y-67203235D01*
X82402844Y-67112140D01*
X82295729Y-67040568D01*
X82176709Y-66991268D01*
X82050357Y-66966135D01*
X81921531Y-66966135D01*
X81795179Y-66991268D01*
X81676159Y-67040568D01*
X81569044Y-67112140D01*
X81477949Y-67203235D01*
X81406377Y-67310350D01*
X81357077Y-67429370D01*
X81331944Y-67555722D01*
X81331944Y-67684548D01*
X81357077Y-67810900D01*
X81406377Y-67929920D01*
X81477949Y-68037035D01*
X81569044Y-68128130D01*
X81676159Y-68199702D01*
X81795179Y-68249002D01*
X81921531Y-68274135D01*
X82050357Y-68274135D01*
X82176709Y-68249002D01*
X82295729Y-68199702D01*
X82363648Y-68154320D01*
X82150990Y-69013731D01*
X82142889Y-68994173D01*
X82071317Y-68887058D01*
X81980222Y-68795963D01*
X81873107Y-68724391D01*
X81754087Y-68675091D01*
X81627735Y-68649958D01*
X81498909Y-68649958D01*
X81372557Y-68675091D01*
X81253537Y-68724391D01*
X81146422Y-68795963D01*
X81055327Y-68887058D01*
X80983755Y-68994173D01*
X80934455Y-69113193D01*
X80909322Y-69239545D01*
X80909322Y-69368371D01*
X80934455Y-69494723D01*
X80983755Y-69613743D01*
X81055327Y-69720858D01*
X81146422Y-69811953D01*
X81253537Y-69883525D01*
X81372557Y-69932825D01*
X81498909Y-69957958D01*
X81627735Y-69957958D01*
X81754087Y-69932825D01*
X81873107Y-69883525D01*
X81877670Y-69880476D01*
X81584796Y-70716866D01*
X81546576Y-70624596D01*
X81475004Y-70517481D01*
X81383909Y-70426386D01*
X81276794Y-70354814D01*
X81157774Y-70305514D01*
X81031422Y-70280381D01*
X80902596Y-70280381D01*
X80776244Y-70305514D01*
X80657224Y-70354814D01*
X80550109Y-70426386D01*
X80459014Y-70517481D01*
X80387442Y-70624596D01*
X80338142Y-70743616D01*
X80313009Y-70869968D01*
X80313009Y-70998794D01*
X80338142Y-71125146D01*
X80387442Y-71244166D01*
X80459014Y-71351281D01*
X80550109Y-71442376D01*
X80657224Y-71513948D01*
X80776244Y-71563248D01*
X80902596Y-71588381D01*
X81031422Y-71588381D01*
X81157774Y-71563248D01*
X81219142Y-71537828D01*
X80874766Y-72286610D01*
X80840832Y-72345152D01*
X80832403Y-72302776D01*
X80783103Y-72183756D01*
X80711531Y-72076641D01*
X80620436Y-71985546D01*
X80513321Y-71913974D01*
X80394301Y-71864674D01*
X80267949Y-71839541D01*
X80139123Y-71839541D01*
X80012771Y-71864674D01*
X79893751Y-71913974D01*
X79786636Y-71985546D01*
X79695541Y-72076641D01*
X79623969Y-72183756D01*
X79574669Y-72302776D01*
X79549536Y-72429128D01*
X79549536Y-72557954D01*
X79574669Y-72684306D01*
X79623969Y-72803326D01*
X79695541Y-72910441D01*
X79786636Y-73001536D01*
X79893751Y-73073108D01*
X80012771Y-73122408D01*
X80139123Y-73147541D01*
X80267949Y-73147541D01*
X80389780Y-73123307D01*
X80087820Y-73644247D01*
X80078867Y-73599235D01*
X80029567Y-73480215D01*
X79957995Y-73373100D01*
X79866900Y-73282005D01*
X79759785Y-73210433D01*
X79640765Y-73161133D01*
X79514413Y-73136000D01*
X79385587Y-73136000D01*
X79259235Y-73161133D01*
X79140215Y-73210433D01*
X79033100Y-73282005D01*
X78942005Y-73373100D01*
X78870433Y-73480215D01*
X78821133Y-73599235D01*
X78796000Y-73725587D01*
X78796000Y-73854413D01*
X78821133Y-73980765D01*
X78870433Y-74099785D01*
X78942005Y-74206900D01*
X79033100Y-74297995D01*
X79140215Y-74369567D01*
X79259235Y-74418867D01*
X79385587Y-74444000D01*
X79514413Y-74444000D01*
X79523147Y-74442263D01*
X79134356Y-74987359D01*
X78660368Y-75534575D01*
X78629567Y-75460215D01*
X78557995Y-75353100D01*
X78466900Y-75262005D01*
X78359785Y-75190433D01*
X78240765Y-75141133D01*
X78114413Y-75116000D01*
X77985587Y-75116000D01*
X77859235Y-75141133D01*
X77740215Y-75190433D01*
X77633100Y-75262005D01*
X77593033Y-75302072D01*
X77511106Y-75220145D01*
X77391707Y-75140365D01*
X77259037Y-75085411D01*
X77118196Y-75057396D01*
X76974596Y-75057396D01*
X76833755Y-75085411D01*
X76701085Y-75140365D01*
X76581686Y-75220145D01*
X76480145Y-75321686D01*
X76400365Y-75441085D01*
X76345411Y-75573755D01*
X76317396Y-75714596D01*
X76317396Y-75858196D01*
X76345411Y-75999037D01*
X76400365Y-76131707D01*
X76480145Y-76251106D01*
X76504021Y-76274982D01*
X76460433Y-76340215D01*
X76411133Y-76459235D01*
X76386000Y-76585587D01*
X76386000Y-76714413D01*
X76411133Y-76840765D01*
X76460433Y-76959785D01*
X76532005Y-77066900D01*
X76623100Y-77157995D01*
X76730215Y-77229567D01*
X76849235Y-77278867D01*
X76937295Y-77296383D01*
X76918696Y-77314157D01*
X75656599Y-78310956D01*
X75631296Y-78327326D01*
X75658867Y-78260765D01*
X75684000Y-78134413D01*
X75684000Y-78005587D01*
X75658867Y-77879235D01*
X75609567Y-77760215D01*
X75537995Y-77653100D01*
X75446900Y-77562005D01*
X75339785Y-77490433D01*
X75220765Y-77441133D01*
X75094413Y-77416000D01*
X74965587Y-77416000D01*
X74839235Y-77441133D01*
X74720215Y-77490433D01*
X74613100Y-77562005D01*
X74522005Y-77653100D01*
X74450433Y-77760215D01*
X74401133Y-77879235D01*
X74376000Y-78005587D01*
X74376000Y-78022229D01*
X74294413Y-78006000D01*
X74165587Y-78006000D01*
X74039235Y-78031133D01*
X73920215Y-78080433D01*
X73813100Y-78152005D01*
X73722005Y-78243100D01*
X73650433Y-78350215D01*
X73601133Y-78469235D01*
X73576000Y-78595587D01*
X73576000Y-78724413D01*
X73601133Y-78850765D01*
X73650433Y-78969785D01*
X73722005Y-79076900D01*
X73813100Y-79167995D01*
X73920215Y-79239567D01*
X74039235Y-79288867D01*
X74087495Y-79298466D01*
X73307772Y-79704391D01*
X73324754Y-79663394D01*
X73349887Y-79537042D01*
X73349887Y-79408216D01*
X73324754Y-79281864D01*
X73275454Y-79162844D01*
X73203882Y-79055729D01*
X73112787Y-78964634D01*
X73005672Y-78893062D01*
X72886652Y-78843762D01*
X72760300Y-78818629D01*
X72631474Y-78818629D01*
X72505122Y-78843762D01*
X72386102Y-78893062D01*
X72278987Y-78964634D01*
X72187892Y-79055729D01*
X72116320Y-79162844D01*
X72067020Y-79281864D01*
X72041887Y-79408216D01*
X72041887Y-79537042D01*
X72067020Y-79663394D01*
X72116320Y-79782414D01*
X72187892Y-79889529D01*
X72278987Y-79980624D01*
X72386102Y-80052196D01*
X72478126Y-80090314D01*
X71669600Y-80418648D01*
X71714101Y-80311213D01*
X71739234Y-80184861D01*
X71739234Y-80056035D01*
X71714101Y-79929683D01*
X71664801Y-79810663D01*
X71593229Y-79703548D01*
X71502134Y-79612453D01*
X71395019Y-79540881D01*
X71275999Y-79491581D01*
X71149647Y-79466448D01*
X71020821Y-79466448D01*
X70894469Y-79491581D01*
X70775449Y-79540881D01*
X70668334Y-79612453D01*
X70577239Y-79703548D01*
X70505667Y-79810663D01*
X70456367Y-79929683D01*
X70431234Y-80056035D01*
X70431234Y-80184861D01*
X70456367Y-80311213D01*
X70505667Y-80430233D01*
X70577239Y-80537348D01*
X70668334Y-80628443D01*
X70775449Y-80700015D01*
X70819100Y-80718096D01*
X70594406Y-80791111D01*
X70587556Y-80756711D01*
X70587271Y-80755773D01*
X70558807Y-80687069D01*
X70558345Y-80686204D01*
X70517016Y-80624273D01*
X70516395Y-80623515D01*
X70463151Y-80570271D01*
X70462393Y-80569650D01*
X70400462Y-80528321D01*
X70399597Y-80527859D01*
X70330893Y-80499395D01*
X70329955Y-80499110D01*
X70256558Y-80484495D01*
X70255583Y-80484399D01*
X70218266Y-80482566D01*
X69219199Y-80482566D01*
X69181882Y-80484399D01*
X69180907Y-80484495D01*
X69107510Y-80499110D01*
X69106572Y-80499395D01*
X69037868Y-80527859D01*
X69037003Y-80528321D01*
X68975072Y-80569650D01*
X68974314Y-80570271D01*
X68921070Y-80623515D01*
X68920449Y-80624273D01*
X68879412Y-80685766D01*
X62623666Y-80685766D01*
X62586349Y-80687599D01*
X62585374Y-80687695D01*
X62560147Y-80692718D01*
X62557807Y-80687069D01*
X62557345Y-80686204D01*
X62516016Y-80624273D01*
X62515395Y-80623515D01*
X62462151Y-80570271D01*
X62461393Y-80569650D01*
X62399462Y-80528321D01*
X62398597Y-80527859D01*
X62329893Y-80499395D01*
X62328955Y-80499110D01*
X62255558Y-80484495D01*
X62254583Y-80484399D01*
X62217266Y-80482566D01*
X61461397Y-80482566D01*
X61464909Y-80474087D01*
X61490042Y-80347735D01*
X61490042Y-80218909D01*
X61464909Y-80092557D01*
X61415609Y-79973537D01*
X61344037Y-79866422D01*
X61252942Y-79775327D01*
X61145827Y-79703755D01*
X61026807Y-79654455D01*
X60900455Y-79629322D01*
X60771629Y-79629322D01*
X60645277Y-79654455D01*
X60526257Y-79703755D01*
X60419142Y-79775327D01*
X60328047Y-79866422D01*
X60256475Y-79973537D01*
X60207175Y-80092557D01*
X60182042Y-80218909D01*
X60182042Y-80347735D01*
X60207175Y-80474087D01*
X60252598Y-80583746D01*
X59438177Y-80298565D01*
X59515404Y-80266576D01*
X59622519Y-80195004D01*
X59713614Y-80103909D01*
X59785186Y-79996794D01*
X59834486Y-79877774D01*
X59859619Y-79751422D01*
X59859619Y-79622596D01*
X59834486Y-79496244D01*
X59785186Y-79377224D01*
X59713614Y-79270109D01*
X59622519Y-79179014D01*
X59587459Y-79155587D01*
X62466000Y-79155587D01*
X62466000Y-79284413D01*
X62491133Y-79410765D01*
X62540433Y-79529785D01*
X62612005Y-79636900D01*
X62703100Y-79727995D01*
X62810215Y-79799567D01*
X62929235Y-79848867D01*
X63055587Y-79874000D01*
X63184413Y-79874000D01*
X63310765Y-79848867D01*
X63429785Y-79799567D01*
X63536900Y-79727995D01*
X63627995Y-79636900D01*
X63651682Y-79601450D01*
X63662005Y-79616900D01*
X63753100Y-79707995D01*
X63860215Y-79779567D01*
X63979235Y-79828867D01*
X64105587Y-79854000D01*
X64234413Y-79854000D01*
X64360765Y-79828867D01*
X64479785Y-79779567D01*
X64586900Y-79707995D01*
X64677995Y-79616900D01*
X64694977Y-79591484D01*
X64732005Y-79646900D01*
X64823100Y-79737995D01*
X64930215Y-79809567D01*
X65049235Y-79858867D01*
X65175587Y-79884000D01*
X65304413Y-79884000D01*
X65430765Y-79858867D01*
X65549785Y-79809567D01*
X65656900Y-79737995D01*
X65747995Y-79646900D01*
X65819567Y-79539785D01*
X65868867Y-79420765D01*
X65894000Y-79294413D01*
X65894000Y-79165587D01*
X65868867Y-79039235D01*
X65819567Y-78920215D01*
X65747995Y-78813100D01*
X65656900Y-78722005D01*
X65549785Y-78650433D01*
X65430765Y-78601133D01*
X65304413Y-78576000D01*
X65175587Y-78576000D01*
X65049235Y-78601133D01*
X64930215Y-78650433D01*
X64823100Y-78722005D01*
X64732005Y-78813100D01*
X64715023Y-78838516D01*
X64677995Y-78783100D01*
X64586900Y-78692005D01*
X64479785Y-78620433D01*
X64360765Y-78571133D01*
X64234413Y-78546000D01*
X64105587Y-78546000D01*
X63979235Y-78571133D01*
X63860215Y-78620433D01*
X63753100Y-78692005D01*
X63662005Y-78783100D01*
X63638318Y-78818550D01*
X63627995Y-78803100D01*
X63536900Y-78712005D01*
X63429785Y-78640433D01*
X63310765Y-78591133D01*
X63184413Y-78566000D01*
X63055587Y-78566000D01*
X62929235Y-78591133D01*
X62810215Y-78640433D01*
X62703100Y-78712005D01*
X62612005Y-78803100D01*
X62540433Y-78910215D01*
X62491133Y-79029235D01*
X62466000Y-79155587D01*
X59587459Y-79155587D01*
X59515404Y-79107442D01*
X59396384Y-79058142D01*
X59270032Y-79033009D01*
X59141206Y-79033009D01*
X59014854Y-79058142D01*
X58895834Y-79107442D01*
X58788719Y-79179014D01*
X58697624Y-79270109D01*
X58626052Y-79377224D01*
X58576752Y-79496244D01*
X58551619Y-79622596D01*
X58551619Y-79751422D01*
X58576752Y-79877774D01*
X58595712Y-79923547D01*
X57863641Y-79586857D01*
X57812638Y-79557293D01*
X57837224Y-79552403D01*
X57956244Y-79503103D01*
X58063359Y-79431531D01*
X58154454Y-79340436D01*
X58226026Y-79233321D01*
X58275326Y-79114301D01*
X58300459Y-78987949D01*
X58300459Y-78859123D01*
X58275326Y-78732771D01*
X58226026Y-78613751D01*
X58154454Y-78506636D01*
X58063359Y-78415541D01*
X57956244Y-78343969D01*
X57839441Y-78295587D01*
X59486000Y-78295587D01*
X59486000Y-78424413D01*
X59511133Y-78550765D01*
X59560433Y-78669785D01*
X59632005Y-78776900D01*
X59723100Y-78867995D01*
X59830215Y-78939567D01*
X59949235Y-78988867D01*
X60075587Y-79014000D01*
X60204413Y-79014000D01*
X60330765Y-78988867D01*
X60449785Y-78939567D01*
X60556900Y-78867995D01*
X60647995Y-78776900D01*
X60719567Y-78669785D01*
X60768867Y-78550765D01*
X60794000Y-78424413D01*
X60794000Y-78295587D01*
X60768867Y-78169235D01*
X60719567Y-78050215D01*
X60647995Y-77943100D01*
X60556900Y-77852005D01*
X60449785Y-77780433D01*
X60330765Y-77731133D01*
X60204413Y-77706000D01*
X60075587Y-77706000D01*
X59949235Y-77731133D01*
X59830215Y-77780433D01*
X59723100Y-77852005D01*
X59632005Y-77943100D01*
X59560433Y-78050215D01*
X59511133Y-78169235D01*
X59486000Y-78295587D01*
X57839441Y-78295587D01*
X57837224Y-78294669D01*
X57710872Y-78269536D01*
X57582046Y-78269536D01*
X57455694Y-78294669D01*
X57336674Y-78343969D01*
X57229559Y-78415541D01*
X57138464Y-78506636D01*
X57066892Y-78613751D01*
X57017592Y-78732771D01*
X56992459Y-78859123D01*
X56992459Y-78987949D01*
X57013578Y-79094123D01*
X56472221Y-78780329D01*
X56284492Y-78646431D01*
X56366409Y-78630137D01*
X56485429Y-78580837D01*
X56592544Y-78509265D01*
X56683639Y-78418170D01*
X56755211Y-78311055D01*
X56804511Y-78192035D01*
X56829644Y-78065683D01*
X56829644Y-77936857D01*
X56804511Y-77810505D01*
X56755211Y-77691485D01*
X56683639Y-77584370D01*
X56592544Y-77493275D01*
X56485429Y-77421703D01*
X56366409Y-77372403D01*
X56240057Y-77347270D01*
X56111231Y-77347270D01*
X55984879Y-77372403D01*
X55865859Y-77421703D01*
X55758744Y-77493275D01*
X55667649Y-77584370D01*
X55596077Y-77691485D01*
X55546777Y-77810505D01*
X55521644Y-77936857D01*
X55521644Y-78065683D01*
X55530138Y-78108386D01*
X55162892Y-77846447D01*
X54860260Y-77584313D01*
X54873704Y-77584313D01*
X55000056Y-77559180D01*
X55119076Y-77509880D01*
X55226191Y-77438308D01*
X55317286Y-77347213D01*
X55388858Y-77240098D01*
X55438158Y-77121078D01*
X55463291Y-76994726D01*
X55463291Y-76865900D01*
X55438158Y-76739548D01*
X55407523Y-76665587D01*
X61016000Y-76665587D01*
X61016000Y-76794413D01*
X61041133Y-76920765D01*
X61090433Y-77039785D01*
X61162005Y-77146900D01*
X61205105Y-77190000D01*
X61172005Y-77223100D01*
X61100433Y-77330215D01*
X61051133Y-77449235D01*
X61026000Y-77575587D01*
X61026000Y-77704413D01*
X61051133Y-77830765D01*
X61100433Y-77949785D01*
X61172005Y-78056900D01*
X61263100Y-78147995D01*
X61370215Y-78219567D01*
X61489235Y-78268867D01*
X61496000Y-78270213D01*
X61496000Y-78374413D01*
X61521133Y-78500765D01*
X61570433Y-78619785D01*
X61642005Y-78726900D01*
X61733100Y-78817995D01*
X61840215Y-78889567D01*
X61959235Y-78938867D01*
X62085587Y-78964000D01*
X62214413Y-78964000D01*
X62340765Y-78938867D01*
X62459785Y-78889567D01*
X62566900Y-78817995D01*
X62657995Y-78726900D01*
X62729567Y-78619785D01*
X62778867Y-78500765D01*
X62804000Y-78374413D01*
X62804000Y-78245587D01*
X62778867Y-78119235D01*
X62729567Y-78000215D01*
X62657995Y-77893100D01*
X62566900Y-77802005D01*
X62459785Y-77730433D01*
X62340765Y-77681133D01*
X62334000Y-77679787D01*
X62334000Y-77575587D01*
X62308867Y-77449235D01*
X62259567Y-77330215D01*
X62187995Y-77223100D01*
X62144895Y-77180000D01*
X62177995Y-77146900D01*
X62249567Y-77039785D01*
X62298867Y-76920765D01*
X62324000Y-76794413D01*
X62324000Y-76665587D01*
X62298867Y-76539235D01*
X62249567Y-76420215D01*
X62177995Y-76313100D01*
X62086900Y-76222005D01*
X61979785Y-76150433D01*
X61860765Y-76101133D01*
X61734413Y-76076000D01*
X61605587Y-76076000D01*
X61479235Y-76101133D01*
X61360215Y-76150433D01*
X61253100Y-76222005D01*
X61162005Y-76313100D01*
X61090433Y-76420215D01*
X61041133Y-76539235D01*
X61016000Y-76665587D01*
X55407523Y-76665587D01*
X55388858Y-76620528D01*
X55317286Y-76513413D01*
X55226191Y-76422318D01*
X55119076Y-76350746D01*
X55000056Y-76301446D01*
X54873704Y-76276313D01*
X54744878Y-76276313D01*
X54618526Y-76301446D01*
X54499506Y-76350746D01*
X54392391Y-76422318D01*
X54301296Y-76513413D01*
X54229724Y-76620528D01*
X54180424Y-76739548D01*
X54155291Y-76865900D01*
X54155291Y-76973683D01*
X53947248Y-76793480D01*
X53548656Y-76376401D01*
X53626780Y-76376401D01*
X53753132Y-76351268D01*
X53872152Y-76301968D01*
X53979267Y-76230396D01*
X54070362Y-76139301D01*
X54141934Y-76032186D01*
X54191234Y-75913166D01*
X54216367Y-75786814D01*
X54216367Y-75657988D01*
X54191234Y-75531636D01*
X54141934Y-75412616D01*
X54070362Y-75305501D01*
X53979267Y-75214406D01*
X53872152Y-75142834D01*
X53753132Y-75093534D01*
X53626780Y-75068401D01*
X53497954Y-75068401D01*
X53371602Y-75093534D01*
X53252582Y-75142834D01*
X53145467Y-75214406D01*
X53054372Y-75305501D01*
X52982800Y-75412616D01*
X52933500Y-75531636D01*
X52908367Y-75657988D01*
X52908367Y-75706413D01*
X52836094Y-75630787D01*
X52371232Y-75042203D01*
X52384123Y-75044767D01*
X52512949Y-75044767D01*
X52639301Y-75019634D01*
X52758321Y-74970334D01*
X52865436Y-74898762D01*
X52888611Y-74875587D01*
X55266000Y-74875587D01*
X55266000Y-75004413D01*
X55291133Y-75130765D01*
X55340433Y-75249785D01*
X55412005Y-75356900D01*
X55503100Y-75447995D01*
X55610215Y-75519567D01*
X55729235Y-75568867D01*
X55855587Y-75594000D01*
X55984413Y-75594000D01*
X56110765Y-75568867D01*
X56229785Y-75519567D01*
X56336900Y-75447995D01*
X56427995Y-75356900D01*
X56499567Y-75249785D01*
X56548867Y-75130765D01*
X56551886Y-75115587D01*
X61646000Y-75115587D01*
X61646000Y-75244413D01*
X61671133Y-75370765D01*
X61720433Y-75489785D01*
X61792005Y-75596900D01*
X61883100Y-75687995D01*
X61990215Y-75759567D01*
X62109235Y-75808867D01*
X62235587Y-75834000D01*
X62364413Y-75834000D01*
X62490765Y-75808867D01*
X62609785Y-75759567D01*
X62716900Y-75687995D01*
X62807995Y-75596900D01*
X62879567Y-75489785D01*
X62928867Y-75370765D01*
X62954000Y-75244413D01*
X62954000Y-75115587D01*
X62928867Y-74989235D01*
X62879567Y-74870215D01*
X62873604Y-74861291D01*
X62927995Y-74806900D01*
X62999567Y-74699785D01*
X63048867Y-74580765D01*
X63065809Y-74495587D01*
X68496000Y-74495587D01*
X68496000Y-74624413D01*
X68521133Y-74750765D01*
X68570433Y-74869785D01*
X68642005Y-74976900D01*
X68733100Y-75067995D01*
X68840215Y-75139567D01*
X68959235Y-75188867D01*
X69085587Y-75214000D01*
X69214413Y-75214000D01*
X69340765Y-75188867D01*
X69459785Y-75139567D01*
X69566900Y-75067995D01*
X69657995Y-74976900D01*
X69729567Y-74869785D01*
X69778867Y-74750765D01*
X69804000Y-74624413D01*
X69804000Y-74495587D01*
X69793302Y-74441804D01*
X75044604Y-74441804D01*
X75044604Y-74585404D01*
X75072619Y-74726245D01*
X75127573Y-74858915D01*
X75207353Y-74978314D01*
X75308894Y-75079855D01*
X75428293Y-75159635D01*
X75560963Y-75214589D01*
X75701804Y-75242604D01*
X75845404Y-75242604D01*
X75986245Y-75214589D01*
X76118915Y-75159635D01*
X76238314Y-75079855D01*
X76339855Y-74978314D01*
X76419635Y-74858915D01*
X76474589Y-74726245D01*
X76502604Y-74585404D01*
X76502604Y-74441804D01*
X76474589Y-74300963D01*
X76419635Y-74168293D01*
X76339855Y-74048894D01*
X76238314Y-73947353D01*
X76118915Y-73867573D01*
X75986245Y-73812619D01*
X75845404Y-73784604D01*
X75701804Y-73784604D01*
X75560963Y-73812619D01*
X75428293Y-73867573D01*
X75308894Y-73947353D01*
X75207353Y-74048894D01*
X75127573Y-74168293D01*
X75072619Y-74300963D01*
X75044604Y-74441804D01*
X69793302Y-74441804D01*
X69778867Y-74369235D01*
X69729567Y-74250215D01*
X69657995Y-74143100D01*
X69566900Y-74052005D01*
X69459785Y-73980433D01*
X69340765Y-73931133D01*
X69214413Y-73906000D01*
X69085587Y-73906000D01*
X68959235Y-73931133D01*
X68840215Y-73980433D01*
X68733100Y-74052005D01*
X68642005Y-74143100D01*
X68570433Y-74250215D01*
X68521133Y-74369235D01*
X68496000Y-74495587D01*
X63065809Y-74495587D01*
X63074000Y-74454413D01*
X63074000Y-74325587D01*
X63048867Y-74199235D01*
X62999567Y-74080215D01*
X62927995Y-73973100D01*
X62836900Y-73882005D01*
X62729785Y-73810433D01*
X62610765Y-73761133D01*
X62484413Y-73736000D01*
X62355587Y-73736000D01*
X62229235Y-73761133D01*
X62110215Y-73810433D01*
X62003100Y-73882005D01*
X61912005Y-73973100D01*
X61840433Y-74080215D01*
X61791133Y-74199235D01*
X61766000Y-74325587D01*
X61766000Y-74454413D01*
X61791133Y-74580765D01*
X61840433Y-74699785D01*
X61846396Y-74708709D01*
X61792005Y-74763100D01*
X61720433Y-74870215D01*
X61671133Y-74989235D01*
X61646000Y-75115587D01*
X56551886Y-75115587D01*
X56574000Y-75004413D01*
X56574000Y-74875587D01*
X56548867Y-74749235D01*
X56499567Y-74630215D01*
X56427995Y-74523100D01*
X56336900Y-74432005D01*
X56229785Y-74360433D01*
X56110765Y-74311133D01*
X55984413Y-74286000D01*
X55855587Y-74286000D01*
X55729235Y-74311133D01*
X55610215Y-74360433D01*
X55503100Y-74432005D01*
X55412005Y-74523100D01*
X55340433Y-74630215D01*
X55291133Y-74749235D01*
X55266000Y-74875587D01*
X52888611Y-74875587D01*
X52956531Y-74807667D01*
X53028103Y-74700552D01*
X53077403Y-74581532D01*
X53102536Y-74455180D01*
X53102536Y-74326354D01*
X53077403Y-74200002D01*
X53028103Y-74080982D01*
X52956531Y-73973867D01*
X52865436Y-73882772D01*
X52758321Y-73811200D01*
X52639301Y-73761900D01*
X52512949Y-73736767D01*
X52384123Y-73736767D01*
X52257771Y-73761900D01*
X52138751Y-73811200D01*
X52031636Y-73882772D01*
X51940541Y-73973867D01*
X51868969Y-74080982D01*
X51819669Y-74200002D01*
X51798620Y-74305821D01*
X51334076Y-73587786D01*
X51415587Y-73604000D01*
X51544413Y-73604000D01*
X51670765Y-73578867D01*
X51702825Y-73565587D01*
X58126000Y-73565587D01*
X58126000Y-73694413D01*
X58151133Y-73820765D01*
X58200433Y-73939785D01*
X58272005Y-74046900D01*
X58363100Y-74137995D01*
X58470215Y-74209567D01*
X58589235Y-74258867D01*
X58715587Y-74284000D01*
X58844413Y-74284000D01*
X58970765Y-74258867D01*
X59089785Y-74209567D01*
X59196900Y-74137995D01*
X59287995Y-74046900D01*
X59359567Y-73939785D01*
X59408867Y-73820765D01*
X59434000Y-73694413D01*
X59434000Y-73565587D01*
X59408867Y-73439235D01*
X59359567Y-73320215D01*
X59287995Y-73213100D01*
X59196900Y-73122005D01*
X59089785Y-73050433D01*
X58970765Y-73001133D01*
X58844413Y-72976000D01*
X58715587Y-72976000D01*
X58589235Y-73001133D01*
X58470215Y-73050433D01*
X58363100Y-73122005D01*
X58272005Y-73213100D01*
X58200433Y-73320215D01*
X58151133Y-73439235D01*
X58126000Y-73565587D01*
X51702825Y-73565587D01*
X51789785Y-73529567D01*
X51896900Y-73457995D01*
X51987995Y-73366900D01*
X52059567Y-73259785D01*
X52108867Y-73140765D01*
X52134000Y-73014413D01*
X52134000Y-72885587D01*
X52108867Y-72759235D01*
X52059567Y-72640215D01*
X51987995Y-72533100D01*
X51896900Y-72442005D01*
X51789785Y-72370433D01*
X51670765Y-72321133D01*
X51544413Y-72296000D01*
X51415587Y-72296000D01*
X51289235Y-72321133D01*
X51170215Y-72370433D01*
X51063100Y-72442005D01*
X50972005Y-72533100D01*
X50900433Y-72640215D01*
X50851133Y-72759235D01*
X50845506Y-72787525D01*
X50453927Y-72035360D01*
X50476606Y-72044754D01*
X50602958Y-72069887D01*
X50731784Y-72069887D01*
X50858136Y-72044754D01*
X50977156Y-71995454D01*
X51084271Y-71923882D01*
X51175366Y-71832787D01*
X51246938Y-71725672D01*
X51296238Y-71606652D01*
X51321371Y-71480300D01*
X51321371Y-71351474D01*
X51296238Y-71225122D01*
X51246938Y-71106102D01*
X51175366Y-70998987D01*
X51084271Y-70907892D01*
X50977156Y-70836320D01*
X50858136Y-70787020D01*
X50731784Y-70761887D01*
X50602958Y-70761887D01*
X50476606Y-70787020D01*
X50357586Y-70836320D01*
X50250471Y-70907892D01*
X50159376Y-70998987D01*
X50087804Y-71106102D01*
X50056484Y-71181714D01*
X49737537Y-70396304D01*
X49828787Y-70434101D01*
X49955139Y-70459234D01*
X50083965Y-70459234D01*
X50210317Y-70434101D01*
X50329337Y-70384801D01*
X50436452Y-70313229D01*
X50527547Y-70222134D01*
X50599119Y-70115019D01*
X50623736Y-70055587D01*
X51066000Y-70055587D01*
X51066000Y-70184413D01*
X51091133Y-70310765D01*
X51140433Y-70429785D01*
X51212005Y-70536900D01*
X51303100Y-70627995D01*
X51410215Y-70699567D01*
X51529235Y-70748867D01*
X51655587Y-70774000D01*
X51784413Y-70774000D01*
X51910765Y-70748867D01*
X52029785Y-70699567D01*
X52110571Y-70645587D01*
X55096000Y-70645587D01*
X55096000Y-70774413D01*
X55121133Y-70900765D01*
X55170433Y-71019785D01*
X55242005Y-71126900D01*
X55333100Y-71217995D01*
X55440215Y-71289567D01*
X55559235Y-71338867D01*
X55685587Y-71364000D01*
X55791105Y-71364000D01*
X55702005Y-71453100D01*
X55630433Y-71560215D01*
X55581133Y-71679235D01*
X55556000Y-71805587D01*
X55556000Y-71934413D01*
X55581133Y-72060765D01*
X55630433Y-72179785D01*
X55702005Y-72286900D01*
X55793100Y-72377995D01*
X55900215Y-72449567D01*
X56019235Y-72498867D01*
X56145587Y-72524000D01*
X56274413Y-72524000D01*
X56400765Y-72498867D01*
X56519785Y-72449567D01*
X56626900Y-72377995D01*
X56717995Y-72286900D01*
X56789567Y-72179785D01*
X56838867Y-72060765D01*
X56864000Y-71934413D01*
X56864000Y-71805587D01*
X65104790Y-71805587D01*
X65104790Y-71934413D01*
X65129923Y-72060765D01*
X65179223Y-72179785D01*
X65250795Y-72286900D01*
X65341890Y-72377995D01*
X65449005Y-72449567D01*
X65568025Y-72498867D01*
X65694377Y-72524000D01*
X65823203Y-72524000D01*
X65949555Y-72498867D01*
X66068575Y-72449567D01*
X66175690Y-72377995D01*
X66266785Y-72286900D01*
X66338357Y-72179785D01*
X66387657Y-72060765D01*
X66412790Y-71934413D01*
X66412790Y-71805588D01*
X66625999Y-71805588D01*
X66625999Y-71934414D01*
X66651132Y-72060766D01*
X66700432Y-72179786D01*
X66772004Y-72286901D01*
X66863099Y-72377996D01*
X66970214Y-72449568D01*
X67089234Y-72498868D01*
X67215586Y-72524001D01*
X67344412Y-72524001D01*
X67470764Y-72498868D01*
X67589784Y-72449568D01*
X67696899Y-72377996D01*
X67699308Y-72375587D01*
X75366000Y-72375587D01*
X75366000Y-72504413D01*
X75391133Y-72630765D01*
X75440433Y-72749785D01*
X75512005Y-72856900D01*
X75603100Y-72947995D01*
X75710215Y-73019567D01*
X75829235Y-73068867D01*
X75955587Y-73094000D01*
X76084413Y-73094000D01*
X76210765Y-73068867D01*
X76329785Y-73019567D01*
X76436900Y-72947995D01*
X76527995Y-72856900D01*
X76599567Y-72749785D01*
X76648867Y-72630765D01*
X76674000Y-72504413D01*
X76674000Y-72375587D01*
X76648867Y-72249235D01*
X76599567Y-72130215D01*
X76527995Y-72023100D01*
X76436900Y-71932005D01*
X76329785Y-71860433D01*
X76210765Y-71811133D01*
X76084413Y-71786000D01*
X75955587Y-71786000D01*
X75829235Y-71811133D01*
X75710215Y-71860433D01*
X75603100Y-71932005D01*
X75512005Y-72023100D01*
X75440433Y-72130215D01*
X75391133Y-72249235D01*
X75366000Y-72375587D01*
X67699308Y-72375587D01*
X67787994Y-72286901D01*
X67859566Y-72179786D01*
X67908866Y-72060766D01*
X67933999Y-71934414D01*
X67933999Y-71805588D01*
X67908866Y-71679236D01*
X67859566Y-71560216D01*
X67787994Y-71453101D01*
X67696899Y-71362006D01*
X67589784Y-71290434D01*
X67470764Y-71241134D01*
X67344412Y-71216001D01*
X67215586Y-71216001D01*
X67089234Y-71241134D01*
X66970214Y-71290434D01*
X66863099Y-71362006D01*
X66772004Y-71453101D01*
X66700432Y-71560216D01*
X66651132Y-71679236D01*
X66625999Y-71805588D01*
X66412790Y-71805588D01*
X66412790Y-71805587D01*
X66387657Y-71679235D01*
X66338357Y-71560215D01*
X66266785Y-71453100D01*
X66175690Y-71362005D01*
X66068575Y-71290433D01*
X65949555Y-71241133D01*
X65823203Y-71216000D01*
X65694377Y-71216000D01*
X65568025Y-71241133D01*
X65449005Y-71290433D01*
X65341890Y-71362005D01*
X65250795Y-71453100D01*
X65179223Y-71560215D01*
X65129923Y-71679235D01*
X65104790Y-71805587D01*
X56864000Y-71805587D01*
X56838867Y-71679235D01*
X56789567Y-71560215D01*
X56717995Y-71453100D01*
X56626900Y-71362005D01*
X56519785Y-71290433D01*
X56400765Y-71241133D01*
X56274413Y-71216000D01*
X56168895Y-71216000D01*
X56257995Y-71126900D01*
X56329567Y-71019785D01*
X56378867Y-70900765D01*
X56404000Y-70774413D01*
X56404000Y-70645587D01*
X56378867Y-70519235D01*
X56329567Y-70400215D01*
X56259657Y-70295587D01*
X61646000Y-70295587D01*
X61646000Y-70424413D01*
X61671133Y-70550765D01*
X61720433Y-70669785D01*
X61792005Y-70776900D01*
X61883100Y-70867995D01*
X61990215Y-70939567D01*
X62109235Y-70988867D01*
X62235587Y-71014000D01*
X62364413Y-71014000D01*
X62490765Y-70988867D01*
X62609785Y-70939567D01*
X62716900Y-70867995D01*
X62807995Y-70776900D01*
X62879567Y-70669785D01*
X62928867Y-70550765D01*
X62954000Y-70424413D01*
X62954000Y-70305587D01*
X63466000Y-70305587D01*
X63466000Y-70434413D01*
X63491133Y-70560765D01*
X63540433Y-70679785D01*
X63612005Y-70786900D01*
X63703100Y-70877995D01*
X63810215Y-70949567D01*
X63929235Y-70998867D01*
X64055587Y-71024000D01*
X64184413Y-71024000D01*
X64310765Y-70998867D01*
X64429785Y-70949567D01*
X64536900Y-70877995D01*
X64627995Y-70786900D01*
X64699567Y-70679785D01*
X64748867Y-70560765D01*
X64774000Y-70434413D01*
X64774000Y-70305587D01*
X64748867Y-70179235D01*
X64699567Y-70060215D01*
X64627995Y-69953100D01*
X64536900Y-69862005D01*
X64430956Y-69791215D01*
X68672506Y-69791215D01*
X68672506Y-69920041D01*
X68697639Y-70046393D01*
X68746939Y-70165413D01*
X68818511Y-70272528D01*
X68909606Y-70363623D01*
X69016721Y-70435195D01*
X69135741Y-70484495D01*
X69262093Y-70509628D01*
X69390919Y-70509628D01*
X69517271Y-70484495D01*
X69636291Y-70435195D01*
X69743406Y-70363623D01*
X69834501Y-70272528D01*
X69906073Y-70165413D01*
X69955373Y-70046393D01*
X69980506Y-69920041D01*
X69980506Y-69791215D01*
X69955373Y-69664863D01*
X69906073Y-69545843D01*
X69834501Y-69438728D01*
X69743406Y-69347633D01*
X69636291Y-69276061D01*
X69517271Y-69226761D01*
X69390919Y-69201628D01*
X69262093Y-69201628D01*
X69135741Y-69226761D01*
X69016721Y-69276061D01*
X68909606Y-69347633D01*
X68818511Y-69438728D01*
X68746939Y-69545843D01*
X68697639Y-69664863D01*
X68672506Y-69791215D01*
X64430956Y-69791215D01*
X64429785Y-69790433D01*
X64310765Y-69741133D01*
X64184413Y-69716000D01*
X64055587Y-69716000D01*
X63929235Y-69741133D01*
X63810215Y-69790433D01*
X63703100Y-69862005D01*
X63612005Y-69953100D01*
X63540433Y-70060215D01*
X63491133Y-70179235D01*
X63466000Y-70305587D01*
X62954000Y-70305587D01*
X62954000Y-70295587D01*
X62928867Y-70169235D01*
X62879567Y-70050215D01*
X62807995Y-69943100D01*
X62716900Y-69852005D01*
X62609785Y-69780433D01*
X62490765Y-69731133D01*
X62364413Y-69706000D01*
X62235587Y-69706000D01*
X62109235Y-69731133D01*
X61990215Y-69780433D01*
X61883100Y-69852005D01*
X61792005Y-69943100D01*
X61720433Y-70050215D01*
X61671133Y-70169235D01*
X61646000Y-70295587D01*
X56259657Y-70295587D01*
X56257995Y-70293100D01*
X56166900Y-70202005D01*
X56059785Y-70130433D01*
X55940765Y-70081133D01*
X55814413Y-70056000D01*
X55685587Y-70056000D01*
X55559235Y-70081133D01*
X55440215Y-70130433D01*
X55333100Y-70202005D01*
X55242005Y-70293100D01*
X55170433Y-70400215D01*
X55121133Y-70519235D01*
X55096000Y-70645587D01*
X52110571Y-70645587D01*
X52136900Y-70627995D01*
X52227995Y-70536900D01*
X52299567Y-70429785D01*
X52348867Y-70310765D01*
X52374000Y-70184413D01*
X52374000Y-70055587D01*
X52348867Y-69929235D01*
X52299567Y-69810215D01*
X52227995Y-69703100D01*
X52136900Y-69612005D01*
X52029785Y-69540433D01*
X51910765Y-69491133D01*
X51784413Y-69466000D01*
X51655587Y-69466000D01*
X51529235Y-69491133D01*
X51410215Y-69540433D01*
X51303100Y-69612005D01*
X51212005Y-69703100D01*
X51140433Y-69810215D01*
X51091133Y-69929235D01*
X51066000Y-70055587D01*
X50623736Y-70055587D01*
X50648419Y-69995999D01*
X50673552Y-69869647D01*
X50673552Y-69740821D01*
X50648419Y-69614469D01*
X50599119Y-69495449D01*
X50527547Y-69388334D01*
X50436452Y-69297239D01*
X50329337Y-69225667D01*
X50210317Y-69176367D01*
X50083965Y-69151234D01*
X49955139Y-69151234D01*
X49828787Y-69176367D01*
X49709767Y-69225667D01*
X49602652Y-69297239D01*
X49511557Y-69388334D01*
X49439985Y-69495449D01*
X49437678Y-69501019D01*
X49298028Y-69035587D01*
X54436000Y-69035587D01*
X54436000Y-69164413D01*
X54461133Y-69290765D01*
X54510433Y-69409785D01*
X54582005Y-69516900D01*
X54673100Y-69607995D01*
X54780215Y-69679567D01*
X54899235Y-69728867D01*
X55025587Y-69754000D01*
X55154413Y-69754000D01*
X55280765Y-69728867D01*
X55399785Y-69679567D01*
X55506900Y-69607995D01*
X55597995Y-69516900D01*
X55669567Y-69409785D01*
X55718867Y-69290765D01*
X55744000Y-69164413D01*
X55744000Y-69095587D01*
X56166000Y-69095587D01*
X56166000Y-69224413D01*
X56191133Y-69350765D01*
X56240433Y-69469785D01*
X56312005Y-69576900D01*
X56403100Y-69667995D01*
X56510215Y-69739567D01*
X56629235Y-69788867D01*
X56755587Y-69814000D01*
X56884413Y-69814000D01*
X57010765Y-69788867D01*
X57129785Y-69739567D01*
X57236900Y-69667995D01*
X57327995Y-69576900D01*
X57399567Y-69469785D01*
X57448867Y-69350765D01*
X57474000Y-69224413D01*
X57474000Y-69095587D01*
X57448867Y-68969235D01*
X57399567Y-68850215D01*
X57327995Y-68743100D01*
X57236900Y-68652005D01*
X57129785Y-68580433D01*
X57010765Y-68531133D01*
X56884413Y-68506000D01*
X56755587Y-68506000D01*
X56629235Y-68531133D01*
X56510215Y-68580433D01*
X56403100Y-68652005D01*
X56312005Y-68743100D01*
X56240433Y-68850215D01*
X56191133Y-68969235D01*
X56166000Y-69095587D01*
X55744000Y-69095587D01*
X55744000Y-69035587D01*
X55725782Y-68944000D01*
X55824413Y-68944000D01*
X55950765Y-68918867D01*
X56069785Y-68869567D01*
X56176900Y-68797995D01*
X56267995Y-68706900D01*
X56339567Y-68599785D01*
X56388867Y-68480765D01*
X56414000Y-68354413D01*
X56414000Y-68225587D01*
X56388867Y-68099235D01*
X56339567Y-67980215D01*
X56267995Y-67873100D01*
X56176900Y-67782005D01*
X56069785Y-67710433D01*
X55950765Y-67661133D01*
X55824413Y-67636000D01*
X55695587Y-67636000D01*
X55569235Y-67661133D01*
X55450215Y-67710433D01*
X55343100Y-67782005D01*
X55252005Y-67873100D01*
X55180433Y-67980215D01*
X55131133Y-68099235D01*
X55106000Y-68225587D01*
X55106000Y-68354413D01*
X55124218Y-68446000D01*
X55025587Y-68446000D01*
X54899235Y-68471133D01*
X54780215Y-68520433D01*
X54673100Y-68592005D01*
X54582005Y-68683100D01*
X54510433Y-68790215D01*
X54461133Y-68909235D01*
X54436000Y-69035587D01*
X49298028Y-69035587D01*
X49193905Y-68688563D01*
X49233856Y-68715257D01*
X49352876Y-68764557D01*
X49479228Y-68789690D01*
X49608054Y-68789690D01*
X49734406Y-68764557D01*
X49853426Y-68715257D01*
X49960541Y-68643685D01*
X50051636Y-68552590D01*
X50123208Y-68445475D01*
X50172508Y-68326455D01*
X50197641Y-68200103D01*
X50197641Y-68071277D01*
X50172508Y-67944925D01*
X50123208Y-67825905D01*
X50051636Y-67718790D01*
X49960541Y-67627695D01*
X49853426Y-67556123D01*
X49734406Y-67506823D01*
X49608054Y-67481690D01*
X49479228Y-67481690D01*
X49352876Y-67506823D01*
X49233856Y-67556123D01*
X49126741Y-67627695D01*
X49035646Y-67718790D01*
X48998471Y-67774426D01*
X48840561Y-66984276D01*
X48839663Y-66975587D01*
X52046000Y-66975587D01*
X52046000Y-67104413D01*
X52071133Y-67230765D01*
X52120433Y-67349785D01*
X52192005Y-67456900D01*
X52283100Y-67547995D01*
X52390215Y-67619567D01*
X52509235Y-67668867D01*
X52635587Y-67694000D01*
X52764413Y-67694000D01*
X52890765Y-67668867D01*
X53009785Y-67619567D01*
X53116900Y-67547995D01*
X53159308Y-67505587D01*
X59846000Y-67505587D01*
X59846000Y-67634413D01*
X59871133Y-67760765D01*
X59920433Y-67879785D01*
X59992005Y-67986900D01*
X60083100Y-68077995D01*
X60190215Y-68149567D01*
X60309235Y-68198867D01*
X60435587Y-68224000D01*
X60564413Y-68224000D01*
X60690765Y-68198867D01*
X60809785Y-68149567D01*
X60916900Y-68077995D01*
X61007995Y-67986900D01*
X61079567Y-67879785D01*
X61128867Y-67760765D01*
X61154000Y-67634413D01*
X61154000Y-67505587D01*
X61128867Y-67379235D01*
X61079567Y-67260215D01*
X61007995Y-67153100D01*
X60916900Y-67062005D01*
X60809785Y-66990433D01*
X60690765Y-66941133D01*
X60564413Y-66916000D01*
X60435587Y-66916000D01*
X60309235Y-66941133D01*
X60190215Y-66990433D01*
X60083100Y-67062005D01*
X59992005Y-67153100D01*
X59920433Y-67260215D01*
X59871133Y-67379235D01*
X59846000Y-67505587D01*
X53159308Y-67505587D01*
X53207995Y-67456900D01*
X53279567Y-67349785D01*
X53328867Y-67230765D01*
X53354000Y-67104413D01*
X53354000Y-66975587D01*
X53328867Y-66849235D01*
X53279567Y-66730215D01*
X53207995Y-66623100D01*
X53116900Y-66532005D01*
X53009785Y-66460433D01*
X52890765Y-66411133D01*
X52764413Y-66386000D01*
X52635587Y-66386000D01*
X52509235Y-66411133D01*
X52390215Y-66460433D01*
X52283100Y-66532005D01*
X52192005Y-66623100D01*
X52120433Y-66730215D01*
X52071133Y-66849235D01*
X52046000Y-66975587D01*
X48839663Y-66975587D01*
X48833480Y-66915772D01*
X48889235Y-66938867D01*
X49015587Y-66964000D01*
X49144413Y-66964000D01*
X49270765Y-66938867D01*
X49389785Y-66889567D01*
X49496900Y-66817995D01*
X49587995Y-66726900D01*
X49659567Y-66619785D01*
X49708867Y-66500765D01*
X49734000Y-66374413D01*
X49734000Y-66306797D01*
X61027210Y-66306797D01*
X61027210Y-66435623D01*
X61052343Y-66561975D01*
X61101643Y-66680995D01*
X61173215Y-66788110D01*
X61264310Y-66879205D01*
X61371425Y-66950777D01*
X61490445Y-67000077D01*
X61616797Y-67025210D01*
X61745623Y-67025210D01*
X61871975Y-67000077D01*
X61990995Y-66950777D01*
X62017226Y-66933250D01*
X62001819Y-66970445D01*
X61976686Y-67096797D01*
X61976686Y-67225623D01*
X62001819Y-67351975D01*
X62051119Y-67470995D01*
X62122691Y-67578110D01*
X62213786Y-67669205D01*
X62320901Y-67740777D01*
X62439921Y-67790077D01*
X62566273Y-67815210D01*
X62695099Y-67815210D01*
X62698037Y-67814626D01*
X62659210Y-67908362D01*
X62634077Y-68034714D01*
X62634077Y-68163540D01*
X62659210Y-68289892D01*
X62708510Y-68408912D01*
X62780082Y-68516027D01*
X62871177Y-68607122D01*
X62978292Y-68678694D01*
X63097312Y-68727994D01*
X63223664Y-68753127D01*
X63352490Y-68753127D01*
X63478842Y-68727994D01*
X63597862Y-68678694D01*
X63670051Y-68630459D01*
X63728246Y-68669343D01*
X63847266Y-68718643D01*
X63973618Y-68743776D01*
X64102444Y-68743776D01*
X64228796Y-68718643D01*
X64347816Y-68669343D01*
X64454931Y-68597771D01*
X64546026Y-68506676D01*
X64617598Y-68399561D01*
X64666898Y-68280541D01*
X64692031Y-68154189D01*
X64692031Y-68025363D01*
X64690087Y-68015587D01*
X65466000Y-68015587D01*
X65466000Y-68144413D01*
X65491133Y-68270765D01*
X65540433Y-68389785D01*
X65612005Y-68496900D01*
X65703100Y-68587995D01*
X65810215Y-68659567D01*
X65929235Y-68708867D01*
X66055587Y-68734000D01*
X66184413Y-68734000D01*
X66310765Y-68708867D01*
X66429785Y-68659567D01*
X66536900Y-68587995D01*
X66627995Y-68496900D01*
X66699567Y-68389785D01*
X66729295Y-68318015D01*
X66782005Y-68396900D01*
X66873100Y-68487995D01*
X66980215Y-68559567D01*
X67099235Y-68608867D01*
X67225587Y-68634000D01*
X67354413Y-68634000D01*
X67480765Y-68608867D01*
X67599785Y-68559567D01*
X67706900Y-68487995D01*
X67735630Y-68459265D01*
X67805493Y-68505946D01*
X67924513Y-68555246D01*
X68050865Y-68580379D01*
X68179691Y-68580379D01*
X68306043Y-68555246D01*
X68425063Y-68505946D01*
X68532178Y-68434374D01*
X68623273Y-68343279D01*
X68694845Y-68236164D01*
X68744145Y-68117144D01*
X68769278Y-67990792D01*
X68769278Y-67861966D01*
X68744690Y-67738351D01*
X78651000Y-67738351D01*
X78651000Y-67901649D01*
X78682858Y-68061810D01*
X78745350Y-68212679D01*
X78836074Y-68348457D01*
X78951543Y-68463926D01*
X79087321Y-68554650D01*
X79238190Y-68617142D01*
X79398351Y-68649000D01*
X79561649Y-68649000D01*
X79721810Y-68617142D01*
X79872679Y-68554650D01*
X80008457Y-68463926D01*
X80123926Y-68348457D01*
X80214650Y-68212679D01*
X80277142Y-68061810D01*
X80309000Y-67901649D01*
X80309000Y-67738351D01*
X80277142Y-67578190D01*
X80214650Y-67427321D01*
X80123926Y-67291543D01*
X80008457Y-67176074D01*
X79872679Y-67085350D01*
X79721810Y-67022858D01*
X79561649Y-66991000D01*
X79398351Y-66991000D01*
X79238190Y-67022858D01*
X79087321Y-67085350D01*
X78951543Y-67176074D01*
X78836074Y-67291543D01*
X78745350Y-67427321D01*
X78682858Y-67578190D01*
X78651000Y-67738351D01*
X68744690Y-67738351D01*
X68744145Y-67735614D01*
X68694845Y-67616594D01*
X68673029Y-67583945D01*
X68696900Y-67567995D01*
X68711319Y-67553576D01*
X68725747Y-67568004D01*
X68832862Y-67639576D01*
X68951882Y-67688876D01*
X69078234Y-67714009D01*
X69207060Y-67714009D01*
X69333412Y-67688876D01*
X69452432Y-67639576D01*
X69559547Y-67568004D01*
X69650642Y-67476909D01*
X69722214Y-67369794D01*
X69771514Y-67250774D01*
X69796647Y-67124422D01*
X69796647Y-66995596D01*
X69771514Y-66869244D01*
X69722214Y-66750224D01*
X69650642Y-66643109D01*
X69559547Y-66552014D01*
X69452432Y-66480442D01*
X69333412Y-66431142D01*
X69207060Y-66406009D01*
X69078234Y-66406009D01*
X68951882Y-66431142D01*
X68832862Y-66480442D01*
X68725747Y-66552014D01*
X68711328Y-66566433D01*
X68696900Y-66552005D01*
X68589785Y-66480433D01*
X68470765Y-66431133D01*
X68344413Y-66406000D01*
X68215587Y-66406000D01*
X68089235Y-66431133D01*
X67970215Y-66480433D01*
X67863100Y-66552005D01*
X67772005Y-66643100D01*
X67700433Y-66750215D01*
X67651133Y-66869235D01*
X67626000Y-66995587D01*
X67626000Y-67124413D01*
X67651133Y-67250765D01*
X67700433Y-67369785D01*
X67722249Y-67402434D01*
X67698378Y-67418384D01*
X67669648Y-67447114D01*
X67599785Y-67400433D01*
X67480765Y-67351133D01*
X67354413Y-67326000D01*
X67225587Y-67326000D01*
X67099235Y-67351133D01*
X66980215Y-67400433D01*
X66873100Y-67472005D01*
X66782005Y-67563100D01*
X66710433Y-67670215D01*
X66680705Y-67741985D01*
X66627995Y-67663100D01*
X66536900Y-67572005D01*
X66429785Y-67500433D01*
X66310765Y-67451133D01*
X66184413Y-67426000D01*
X66055587Y-67426000D01*
X65929235Y-67451133D01*
X65810215Y-67500433D01*
X65703100Y-67572005D01*
X65612005Y-67663100D01*
X65540433Y-67770215D01*
X65491133Y-67889235D01*
X65466000Y-68015587D01*
X64690087Y-68015587D01*
X64666898Y-67899011D01*
X64617598Y-67779991D01*
X64546026Y-67672876D01*
X64454931Y-67581781D01*
X64347816Y-67510209D01*
X64228796Y-67460909D01*
X64102444Y-67435776D01*
X63973618Y-67435776D01*
X63847266Y-67460909D01*
X63728246Y-67510209D01*
X63656057Y-67558444D01*
X63597862Y-67519560D01*
X63478842Y-67470260D01*
X63352490Y-67445127D01*
X63223664Y-67445127D01*
X63220726Y-67445711D01*
X63259553Y-67351975D01*
X63284686Y-67225623D01*
X63284686Y-67096797D01*
X63259553Y-66970445D01*
X63210253Y-66851425D01*
X63138681Y-66744310D01*
X63047586Y-66653215D01*
X62940471Y-66581643D01*
X62821451Y-66532343D01*
X62695099Y-66507210D01*
X62566273Y-66507210D01*
X62439921Y-66532343D01*
X62320901Y-66581643D01*
X62294670Y-66599170D01*
X62310077Y-66561975D01*
X62335210Y-66435623D01*
X62335210Y-66306797D01*
X62310077Y-66180445D01*
X62260777Y-66061425D01*
X62189205Y-65954310D01*
X62098110Y-65863215D01*
X61990995Y-65791643D01*
X61871975Y-65742343D01*
X61745623Y-65717210D01*
X61616797Y-65717210D01*
X61490445Y-65742343D01*
X61371425Y-65791643D01*
X61264310Y-65863215D01*
X61173215Y-65954310D01*
X61101643Y-66061425D01*
X61052343Y-66180445D01*
X61027210Y-66306797D01*
X49734000Y-66306797D01*
X49734000Y-66245587D01*
X49708867Y-66119235D01*
X49659567Y-66000215D01*
X49587995Y-65893100D01*
X49496900Y-65802005D01*
X49389785Y-65730433D01*
X49270765Y-65681133D01*
X49144413Y-65656000D01*
X49015587Y-65656000D01*
X48889235Y-65681133D01*
X48770215Y-65730433D01*
X48714783Y-65767471D01*
X48675201Y-65384541D01*
X48673624Y-65204377D01*
X54016000Y-65204377D01*
X54016000Y-65333203D01*
X54041133Y-65459555D01*
X54090433Y-65578575D01*
X54162005Y-65685690D01*
X54253100Y-65776785D01*
X54360215Y-65848357D01*
X54479235Y-65897657D01*
X54605587Y-65922790D01*
X54734413Y-65922790D01*
X54860765Y-65897657D01*
X54979785Y-65848357D01*
X55086900Y-65776785D01*
X55177995Y-65685690D01*
X55249567Y-65578575D01*
X55298867Y-65459555D01*
X55324000Y-65333203D01*
X55324000Y-65204377D01*
X55298867Y-65078025D01*
X55249567Y-64959005D01*
X55177995Y-64851890D01*
X55086900Y-64760795D01*
X54979785Y-64689223D01*
X54860765Y-64639923D01*
X54734413Y-64614790D01*
X54605587Y-64614790D01*
X54479235Y-64639923D01*
X54360215Y-64689223D01*
X54253100Y-64760795D01*
X54162005Y-64851890D01*
X54090433Y-64959005D01*
X54041133Y-65078025D01*
X54016000Y-65204377D01*
X48673624Y-65204377D01*
X48672034Y-65022747D01*
X48759235Y-65058867D01*
X48885587Y-65084000D01*
X49014413Y-65084000D01*
X49140765Y-65058867D01*
X49259785Y-65009567D01*
X49366900Y-64937995D01*
X49457995Y-64846900D01*
X49529567Y-64739785D01*
X49578867Y-64620765D01*
X49604000Y-64494413D01*
X49604000Y-64365587D01*
X49578867Y-64239235D01*
X49529567Y-64120215D01*
X49457995Y-64013100D01*
X49366900Y-63922005D01*
X49259785Y-63850433D01*
X49140765Y-63801133D01*
X49014413Y-63776000D01*
X48885587Y-63776000D01*
X48759235Y-63801133D01*
X48661694Y-63841536D01*
X48661123Y-63776326D01*
X48683247Y-63518184D01*
X48730215Y-63549567D01*
X48849235Y-63598867D01*
X48975587Y-63624000D01*
X49104413Y-63624000D01*
X49230765Y-63598867D01*
X49349785Y-63549567D01*
X49456900Y-63477995D01*
X49547995Y-63386900D01*
X49619567Y-63279785D01*
X49668867Y-63160765D01*
X49694000Y-63034413D01*
X49694000Y-62965587D01*
X54766000Y-62965587D01*
X54766000Y-63094413D01*
X54791133Y-63220765D01*
X54840433Y-63339785D01*
X54912005Y-63446900D01*
X55003100Y-63537995D01*
X55110215Y-63609567D01*
X55229235Y-63658867D01*
X55355587Y-63684000D01*
X55484413Y-63684000D01*
X55610765Y-63658867D01*
X55729785Y-63609567D01*
X55836900Y-63537995D01*
X55927995Y-63446900D01*
X55999567Y-63339785D01*
X56048867Y-63220765D01*
X56065995Y-63134659D01*
X56081133Y-63210765D01*
X56130433Y-63329785D01*
X56202005Y-63436900D01*
X56293100Y-63527995D01*
X56400215Y-63599567D01*
X56519235Y-63648867D01*
X56645587Y-63674000D01*
X56774413Y-63674000D01*
X56900765Y-63648867D01*
X57019785Y-63599567D01*
X57126900Y-63527995D01*
X57194318Y-63460577D01*
X59236000Y-63460577D01*
X59236000Y-63589403D01*
X59261133Y-63715755D01*
X59310433Y-63834775D01*
X59382005Y-63941890D01*
X59473100Y-64032985D01*
X59580215Y-64104557D01*
X59699235Y-64153857D01*
X59825587Y-64178990D01*
X59954413Y-64178990D01*
X60080765Y-64153857D01*
X60199785Y-64104557D01*
X60306900Y-64032985D01*
X60397995Y-63941890D01*
X60469567Y-63834775D01*
X60518867Y-63715755D01*
X60544000Y-63589403D01*
X60544000Y-63503049D01*
X64156000Y-63503049D01*
X64156000Y-63626951D01*
X64180173Y-63748472D01*
X64227588Y-63862943D01*
X64296424Y-63965964D01*
X64384036Y-64053576D01*
X64401133Y-64065000D01*
X64384036Y-64076424D01*
X64296424Y-64164036D01*
X64227588Y-64267057D01*
X64180173Y-64381528D01*
X64156000Y-64503049D01*
X64156000Y-64626951D01*
X64180173Y-64748472D01*
X64227588Y-64862943D01*
X64296424Y-64965964D01*
X64384036Y-65053576D01*
X64401133Y-65065000D01*
X64384036Y-65076424D01*
X64296424Y-65164036D01*
X64227588Y-65267057D01*
X64180173Y-65381528D01*
X64156000Y-65503049D01*
X64156000Y-65626951D01*
X64180173Y-65748472D01*
X64227588Y-65862943D01*
X64296424Y-65965964D01*
X64384036Y-66053576D01*
X64487057Y-66122412D01*
X64601528Y-66169827D01*
X64723049Y-66194000D01*
X64846951Y-66194000D01*
X64968472Y-66169827D01*
X65082943Y-66122412D01*
X65185964Y-66053576D01*
X65273576Y-65965964D01*
X65285000Y-65948867D01*
X65296424Y-65965964D01*
X65384036Y-66053576D01*
X65487057Y-66122412D01*
X65601528Y-66169827D01*
X65723049Y-66194000D01*
X65846951Y-66194000D01*
X65968472Y-66169827D01*
X66082943Y-66122412D01*
X66185964Y-66053576D01*
X66273576Y-65965964D01*
X66285000Y-65948867D01*
X66296424Y-65965964D01*
X66384036Y-66053576D01*
X66487057Y-66122412D01*
X66601528Y-66169827D01*
X66723049Y-66194000D01*
X66846951Y-66194000D01*
X66968472Y-66169827D01*
X67082943Y-66122412D01*
X67185964Y-66053576D01*
X67273576Y-65965964D01*
X67342412Y-65862943D01*
X67389827Y-65748472D01*
X67414000Y-65626951D01*
X67414000Y-65503049D01*
X67389827Y-65381528D01*
X67342412Y-65267057D01*
X67301340Y-65205587D01*
X71296000Y-65205587D01*
X71296000Y-65334413D01*
X71321133Y-65460765D01*
X71370433Y-65579785D01*
X71442005Y-65686900D01*
X71533100Y-65777995D01*
X71640215Y-65849567D01*
X71759235Y-65898867D01*
X71885587Y-65924000D01*
X72014413Y-65924000D01*
X72140765Y-65898867D01*
X72259785Y-65849567D01*
X72366900Y-65777995D01*
X72457995Y-65686900D01*
X72529567Y-65579785D01*
X72578867Y-65460765D01*
X72604000Y-65334413D01*
X72604000Y-65205587D01*
X72578867Y-65079235D01*
X72529567Y-64960215D01*
X72457995Y-64853100D01*
X72366900Y-64762005D01*
X72259785Y-64690433D01*
X72140765Y-64641133D01*
X72014413Y-64616000D01*
X71885587Y-64616000D01*
X71759235Y-64641133D01*
X71640215Y-64690433D01*
X71533100Y-64762005D01*
X71442005Y-64853100D01*
X71370433Y-64960215D01*
X71321133Y-65079235D01*
X71296000Y-65205587D01*
X67301340Y-65205587D01*
X67273576Y-65164036D01*
X67185964Y-65076424D01*
X67168867Y-65065000D01*
X67185964Y-65053576D01*
X67273576Y-64965964D01*
X67342412Y-64862943D01*
X67389827Y-64748472D01*
X67414000Y-64626951D01*
X67414000Y-64503049D01*
X67389827Y-64381528D01*
X67342412Y-64267057D01*
X67273576Y-64164036D01*
X67185964Y-64076424D01*
X67168867Y-64065000D01*
X67185964Y-64053576D01*
X67273576Y-63965964D01*
X67342412Y-63862943D01*
X67389827Y-63748472D01*
X67394379Y-63725587D01*
X73206000Y-63725587D01*
X73206000Y-63854413D01*
X73231133Y-63980765D01*
X73280433Y-64099785D01*
X73352005Y-64206900D01*
X73443100Y-64297995D01*
X73550215Y-64369567D01*
X73636000Y-64405101D01*
X73636000Y-64484413D01*
X73661133Y-64610765D01*
X73710433Y-64729785D01*
X73782005Y-64836900D01*
X73873100Y-64927995D01*
X73980215Y-64999567D01*
X74099235Y-65048867D01*
X74225587Y-65074000D01*
X74354413Y-65074000D01*
X74480765Y-65048867D01*
X74599785Y-64999567D01*
X74706900Y-64927995D01*
X74797995Y-64836900D01*
X74869567Y-64729785D01*
X74918867Y-64610765D01*
X74944000Y-64484413D01*
X74944000Y-64355587D01*
X74934055Y-64305587D01*
X79536000Y-64305587D01*
X79536000Y-64434413D01*
X79561133Y-64560765D01*
X79610433Y-64679785D01*
X79682005Y-64786900D01*
X79773100Y-64877995D01*
X79880215Y-64949567D01*
X79999235Y-64998867D01*
X80125587Y-65024000D01*
X80254413Y-65024000D01*
X80380765Y-64998867D01*
X80499785Y-64949567D01*
X80606900Y-64877995D01*
X80697995Y-64786900D01*
X80769567Y-64679785D01*
X80818867Y-64560765D01*
X80844000Y-64434413D01*
X80844000Y-64305587D01*
X80818867Y-64179235D01*
X80769567Y-64060215D01*
X80697995Y-63953100D01*
X80606900Y-63862005D01*
X80499785Y-63790433D01*
X80380765Y-63741133D01*
X80254413Y-63716000D01*
X80125587Y-63716000D01*
X79999235Y-63741133D01*
X79880215Y-63790433D01*
X79773100Y-63862005D01*
X79682005Y-63953100D01*
X79610433Y-64060215D01*
X79561133Y-64179235D01*
X79536000Y-64305587D01*
X74934055Y-64305587D01*
X74918867Y-64229235D01*
X74869567Y-64110215D01*
X74797995Y-64003100D01*
X74706900Y-63912005D01*
X74599785Y-63840433D01*
X74514000Y-63804899D01*
X74514000Y-63725587D01*
X74488867Y-63599235D01*
X74439567Y-63480215D01*
X74367995Y-63373100D01*
X74276900Y-63282005D01*
X74169785Y-63210433D01*
X74050765Y-63161133D01*
X73924413Y-63136000D01*
X73795587Y-63136000D01*
X73669235Y-63161133D01*
X73550215Y-63210433D01*
X73443100Y-63282005D01*
X73352005Y-63373100D01*
X73280433Y-63480215D01*
X73231133Y-63599235D01*
X73206000Y-63725587D01*
X67394379Y-63725587D01*
X67414000Y-63626951D01*
X67414000Y-63503049D01*
X67389827Y-63381528D01*
X67342412Y-63267057D01*
X67273576Y-63164036D01*
X67185964Y-63076424D01*
X67082943Y-63007588D01*
X66968472Y-62960173D01*
X66846951Y-62936000D01*
X66723049Y-62936000D01*
X66601528Y-62960173D01*
X66487057Y-63007588D01*
X66384036Y-63076424D01*
X66296424Y-63164036D01*
X66285000Y-63181133D01*
X66273576Y-63164036D01*
X66185964Y-63076424D01*
X66082943Y-63007588D01*
X65968472Y-62960173D01*
X65846951Y-62936000D01*
X65723049Y-62936000D01*
X65601528Y-62960173D01*
X65487057Y-63007588D01*
X65384036Y-63076424D01*
X65296424Y-63164036D01*
X65285000Y-63181133D01*
X65273576Y-63164036D01*
X65185964Y-63076424D01*
X65082943Y-63007588D01*
X64968472Y-62960173D01*
X64846951Y-62936000D01*
X64723049Y-62936000D01*
X64601528Y-62960173D01*
X64487057Y-63007588D01*
X64384036Y-63076424D01*
X64296424Y-63164036D01*
X64227588Y-63267057D01*
X64180173Y-63381528D01*
X64156000Y-63503049D01*
X60544000Y-63503049D01*
X60544000Y-63460577D01*
X60518867Y-63334225D01*
X60469567Y-63215205D01*
X60397995Y-63108090D01*
X60306900Y-63016995D01*
X60199785Y-62945423D01*
X60080765Y-62896123D01*
X59954413Y-62870990D01*
X59825587Y-62870990D01*
X59699235Y-62896123D01*
X59580215Y-62945423D01*
X59473100Y-63016995D01*
X59382005Y-63108090D01*
X59310433Y-63215205D01*
X59261133Y-63334225D01*
X59236000Y-63460577D01*
X57194318Y-63460577D01*
X57217995Y-63436900D01*
X57289567Y-63329785D01*
X57338867Y-63210765D01*
X57364000Y-63084413D01*
X57364000Y-62955587D01*
X57338867Y-62829235D01*
X57289567Y-62710215D01*
X57217995Y-62603100D01*
X57180482Y-62565587D01*
X61386000Y-62565587D01*
X61386000Y-62694413D01*
X61411133Y-62820765D01*
X61460433Y-62939785D01*
X61532005Y-63046900D01*
X61623100Y-63137995D01*
X61730215Y-63209567D01*
X61849235Y-63258867D01*
X61975587Y-63284000D01*
X62104413Y-63284000D01*
X62230765Y-63258867D01*
X62349785Y-63209567D01*
X62456900Y-63137995D01*
X62547995Y-63046900D01*
X62619567Y-62939785D01*
X62668867Y-62820765D01*
X62694000Y-62694413D01*
X62694000Y-62565587D01*
X62668867Y-62439235D01*
X62619567Y-62320215D01*
X62547995Y-62213100D01*
X62456900Y-62122005D01*
X62349785Y-62050433D01*
X62265660Y-62015587D01*
X67626000Y-62015587D01*
X67626000Y-62144413D01*
X67651133Y-62270765D01*
X67700433Y-62389785D01*
X67772005Y-62496900D01*
X67863100Y-62587995D01*
X67970215Y-62659567D01*
X68089235Y-62708867D01*
X68215587Y-62734000D01*
X68344413Y-62734000D01*
X68470765Y-62708867D01*
X68589785Y-62659567D01*
X68696900Y-62587995D01*
X68772306Y-62512589D01*
X68842005Y-62616900D01*
X68933100Y-62707995D01*
X69040215Y-62779567D01*
X69159235Y-62828867D01*
X69285587Y-62854000D01*
X69414413Y-62854000D01*
X69540765Y-62828867D01*
X69659785Y-62779567D01*
X69766900Y-62707995D01*
X69857995Y-62616900D01*
X69929567Y-62509785D01*
X69978867Y-62390765D01*
X70004000Y-62264413D01*
X70004000Y-62135587D01*
X69978867Y-62009235D01*
X69929567Y-61890215D01*
X69857995Y-61783100D01*
X69820482Y-61745587D01*
X73216000Y-61745587D01*
X73216000Y-61874413D01*
X73241133Y-62000765D01*
X73290433Y-62119785D01*
X73362005Y-62226900D01*
X73453100Y-62317995D01*
X73560215Y-62389567D01*
X73679235Y-62438867D01*
X73805587Y-62464000D01*
X73934413Y-62464000D01*
X74060765Y-62438867D01*
X74179785Y-62389567D01*
X74286900Y-62317995D01*
X74377995Y-62226900D01*
X74449567Y-62119785D01*
X74498867Y-62000765D01*
X74524000Y-61874413D01*
X74524000Y-61745587D01*
X74498867Y-61619235D01*
X74449567Y-61500215D01*
X74377995Y-61393100D01*
X74286900Y-61302005D01*
X74179785Y-61230433D01*
X74060765Y-61181133D01*
X73934413Y-61156000D01*
X73805587Y-61156000D01*
X73679235Y-61181133D01*
X73560215Y-61230433D01*
X73453100Y-61302005D01*
X73362005Y-61393100D01*
X73290433Y-61500215D01*
X73241133Y-61619235D01*
X73216000Y-61745587D01*
X69820482Y-61745587D01*
X69766900Y-61692005D01*
X69659785Y-61620433D01*
X69540765Y-61571133D01*
X69414413Y-61546000D01*
X69285587Y-61546000D01*
X69159235Y-61571133D01*
X69040215Y-61620433D01*
X68933100Y-61692005D01*
X68857694Y-61767411D01*
X68787995Y-61663100D01*
X68696900Y-61572005D01*
X68589785Y-61500433D01*
X68470765Y-61451133D01*
X68344413Y-61426000D01*
X68215587Y-61426000D01*
X68089235Y-61451133D01*
X67970215Y-61500433D01*
X67863100Y-61572005D01*
X67772005Y-61663100D01*
X67700433Y-61770215D01*
X67651133Y-61889235D01*
X67626000Y-62015587D01*
X62265660Y-62015587D01*
X62230765Y-62001133D01*
X62104413Y-61976000D01*
X61975587Y-61976000D01*
X61849235Y-62001133D01*
X61730215Y-62050433D01*
X61623100Y-62122005D01*
X61532005Y-62213100D01*
X61460433Y-62320215D01*
X61411133Y-62439235D01*
X61386000Y-62565587D01*
X57180482Y-62565587D01*
X57126900Y-62512005D01*
X57019785Y-62440433D01*
X56900765Y-62391133D01*
X56774413Y-62366000D01*
X56645587Y-62366000D01*
X56519235Y-62391133D01*
X56400215Y-62440433D01*
X56293100Y-62512005D01*
X56202005Y-62603100D01*
X56130433Y-62710215D01*
X56081133Y-62829235D01*
X56064005Y-62915341D01*
X56048867Y-62839235D01*
X55999567Y-62720215D01*
X55927995Y-62613100D01*
X55836900Y-62522005D01*
X55729785Y-62450433D01*
X55610765Y-62401133D01*
X55484413Y-62376000D01*
X55355587Y-62376000D01*
X55229235Y-62401133D01*
X55110215Y-62450433D01*
X55003100Y-62522005D01*
X54912005Y-62613100D01*
X54840433Y-62720215D01*
X54791133Y-62839235D01*
X54766000Y-62965587D01*
X49694000Y-62965587D01*
X49694000Y-62905587D01*
X49668867Y-62779235D01*
X49619567Y-62660215D01*
X49547995Y-62553100D01*
X49456900Y-62462005D01*
X49349785Y-62390433D01*
X49230765Y-62341133D01*
X49104413Y-62316000D01*
X48975587Y-62316000D01*
X48849235Y-62341133D01*
X48781727Y-62369096D01*
X48798452Y-62173947D01*
X48899617Y-61617188D01*
X48926061Y-61656765D01*
X49017156Y-61747860D01*
X49124271Y-61819432D01*
X49243291Y-61868732D01*
X49369643Y-61893865D01*
X49498469Y-61893865D01*
X49624821Y-61868732D01*
X49743841Y-61819432D01*
X49850956Y-61747860D01*
X49942051Y-61656765D01*
X50013623Y-61549650D01*
X50062923Y-61430630D01*
X50088056Y-61304278D01*
X50088056Y-61175452D01*
X50062923Y-61049100D01*
X50013623Y-60930080D01*
X49957167Y-60845587D01*
X54926000Y-60845587D01*
X54926000Y-60974413D01*
X54951133Y-61100765D01*
X55000433Y-61219785D01*
X55072005Y-61326900D01*
X55163100Y-61417995D01*
X55270215Y-61489567D01*
X55389235Y-61538867D01*
X55515587Y-61564000D01*
X55644413Y-61564000D01*
X55770765Y-61538867D01*
X55889785Y-61489567D01*
X55996900Y-61417995D01*
X56087995Y-61326900D01*
X56159567Y-61219785D01*
X56208867Y-61100765D01*
X56234000Y-60974413D01*
X56234000Y-60938351D01*
X78651000Y-60938351D01*
X78651000Y-61101649D01*
X78682858Y-61261810D01*
X78745350Y-61412679D01*
X78836074Y-61548457D01*
X78951543Y-61663926D01*
X79087321Y-61754650D01*
X79238190Y-61817142D01*
X79398351Y-61849000D01*
X79561649Y-61849000D01*
X79721810Y-61817142D01*
X79872679Y-61754650D01*
X80008457Y-61663926D01*
X80123926Y-61548457D01*
X80214650Y-61412679D01*
X80277142Y-61261810D01*
X80309000Y-61101649D01*
X80309000Y-60938351D01*
X80277142Y-60778190D01*
X80214650Y-60627321D01*
X80123926Y-60491543D01*
X80008457Y-60376074D01*
X79872679Y-60285350D01*
X79721810Y-60222858D01*
X79561649Y-60191000D01*
X79398351Y-60191000D01*
X79238190Y-60222858D01*
X79087321Y-60285350D01*
X78951543Y-60376074D01*
X78836074Y-60491543D01*
X78745350Y-60627321D01*
X78682858Y-60778190D01*
X78651000Y-60938351D01*
X56234000Y-60938351D01*
X56234000Y-60845587D01*
X56208867Y-60719235D01*
X56159567Y-60600215D01*
X56087995Y-60493100D01*
X55996900Y-60402005D01*
X55889785Y-60330433D01*
X55770765Y-60281133D01*
X55644413Y-60256000D01*
X55515587Y-60256000D01*
X55389235Y-60281133D01*
X55270215Y-60330433D01*
X55163100Y-60402005D01*
X55072005Y-60493100D01*
X55000433Y-60600215D01*
X54951133Y-60719235D01*
X54926000Y-60845587D01*
X49957167Y-60845587D01*
X49942051Y-60822965D01*
X49850956Y-60731870D01*
X49743841Y-60660298D01*
X49624821Y-60610998D01*
X49498469Y-60585865D01*
X49369643Y-60585865D01*
X49243291Y-60610998D01*
X49124271Y-60660298D01*
X49066469Y-60698920D01*
X49085972Y-60591585D01*
X49286150Y-59879355D01*
X49348683Y-59972942D01*
X49439778Y-60064037D01*
X49546893Y-60135609D01*
X49665913Y-60184909D01*
X49792265Y-60210042D01*
X49921091Y-60210042D01*
X50047443Y-60184909D01*
X50166463Y-60135609D01*
X50273578Y-60064037D01*
X50364673Y-59972942D01*
X50436245Y-59865827D01*
X50485545Y-59746807D01*
X50510678Y-59620455D01*
X50510678Y-59491629D01*
X50485545Y-59365277D01*
X50436245Y-59246257D01*
X50364673Y-59139142D01*
X50273578Y-59048047D01*
X50166463Y-58976475D01*
X50047443Y-58927175D01*
X49921091Y-58902042D01*
X49792265Y-58902042D01*
X49665913Y-58927175D01*
X49546919Y-58976464D01*
X49852416Y-58184686D01*
X49873424Y-58235404D01*
X49944996Y-58342519D01*
X50036091Y-58433614D01*
X50143206Y-58505186D01*
X50262226Y-58554486D01*
X50388578Y-58579619D01*
X50517404Y-58579619D01*
X50643756Y-58554486D01*
X50762776Y-58505186D01*
X50869891Y-58433614D01*
X50960986Y-58342519D01*
X51032558Y-58235404D01*
X51081858Y-58116384D01*
X51106991Y-57990032D01*
X51106991Y-57905587D01*
X55706000Y-57905587D01*
X55706000Y-58034413D01*
X55731133Y-58160765D01*
X55780433Y-58279785D01*
X55852005Y-58386900D01*
X55943100Y-58477995D01*
X56050215Y-58549567D01*
X56169235Y-58598867D01*
X56295587Y-58624000D01*
X56424413Y-58624000D01*
X56550765Y-58598867D01*
X56669785Y-58549567D01*
X56776900Y-58477995D01*
X56820087Y-58434808D01*
X56830433Y-58459785D01*
X56902005Y-58566900D01*
X56993100Y-58657995D01*
X57100215Y-58729567D01*
X57219235Y-58778867D01*
X57345587Y-58804000D01*
X57474413Y-58804000D01*
X57600765Y-58778867D01*
X57719785Y-58729567D01*
X57826900Y-58657995D01*
X57917995Y-58566900D01*
X57989567Y-58459785D01*
X58038867Y-58340765D01*
X58064000Y-58214413D01*
X58064000Y-58085587D01*
X58038867Y-57959235D01*
X57989567Y-57840215D01*
X57917995Y-57733100D01*
X57826900Y-57642005D01*
X57719785Y-57570433D01*
X57600765Y-57521133D01*
X57474413Y-57496000D01*
X57345587Y-57496000D01*
X57219235Y-57521133D01*
X57100215Y-57570433D01*
X56993100Y-57642005D01*
X56949913Y-57685192D01*
X56939567Y-57660215D01*
X56867995Y-57553100D01*
X56776900Y-57462005D01*
X56669785Y-57390433D01*
X56550765Y-57341133D01*
X56424413Y-57316000D01*
X56295587Y-57316000D01*
X56169235Y-57341133D01*
X56050215Y-57390433D01*
X55943100Y-57462005D01*
X55852005Y-57553100D01*
X55780433Y-57660215D01*
X55731133Y-57779235D01*
X55706000Y-57905587D01*
X51106991Y-57905587D01*
X51106991Y-57861206D01*
X51081858Y-57734854D01*
X51032558Y-57615834D01*
X50960986Y-57508719D01*
X50869891Y-57417624D01*
X50762776Y-57346052D01*
X50643756Y-57296752D01*
X50517404Y-57271619D01*
X50388578Y-57271619D01*
X50262226Y-57296752D01*
X50212480Y-57317357D01*
X50589342Y-56561438D01*
X50636897Y-56676244D01*
X50708469Y-56783359D01*
X50799564Y-56874454D01*
X50906679Y-56946026D01*
X51025699Y-56995326D01*
X51152051Y-57020459D01*
X51280877Y-57020459D01*
X51407229Y-56995326D01*
X51526249Y-56946026D01*
X51633364Y-56874454D01*
X51724459Y-56783359D01*
X51796031Y-56676244D01*
X51845331Y-56557224D01*
X51870464Y-56430872D01*
X51870464Y-56302046D01*
X51845331Y-56175694D01*
X51796031Y-56056674D01*
X51724459Y-55949559D01*
X51633364Y-55858464D01*
X51526249Y-55786892D01*
X51407229Y-55737592D01*
X51280877Y-55712459D01*
X51152051Y-55712459D01*
X51048180Y-55733120D01*
X51667450Y-54738162D01*
X52058353Y-54225000D01*
X52304309Y-54225000D01*
X52261133Y-54329235D01*
G37*
X52261133Y-54329235D02*
X52236000Y-54455587D01*
X52236000Y-54501468D01*
X52190215Y-54520433D01*
X52083100Y-54592005D01*
X51992005Y-54683100D01*
X51920433Y-54790215D01*
X51871133Y-54909235D01*
X51846000Y-55035587D01*
X51846000Y-55164413D01*
X51871133Y-55290765D01*
X51920433Y-55409785D01*
X51992005Y-55516900D01*
X52083100Y-55607995D01*
X52190215Y-55679567D01*
X52309235Y-55728867D01*
X52435587Y-55754000D01*
X52564413Y-55754000D01*
X52690765Y-55728867D01*
X52809785Y-55679567D01*
X52850000Y-55652696D01*
X52890215Y-55679567D01*
X53009235Y-55728867D01*
X53135587Y-55754000D01*
X53264413Y-55754000D01*
X53390765Y-55728867D01*
X53509785Y-55679567D01*
X53525000Y-55669401D01*
X53540215Y-55679567D01*
X53659235Y-55728867D01*
X53785587Y-55754000D01*
X53914413Y-55754000D01*
X54040765Y-55728867D01*
X54159785Y-55679567D01*
X54175000Y-55669401D01*
X54190215Y-55679567D01*
X54309235Y-55728867D01*
X54435587Y-55754000D01*
X54564413Y-55754000D01*
X54690765Y-55728867D01*
X54809785Y-55679567D01*
X54825000Y-55669401D01*
X54840215Y-55679567D01*
X54959235Y-55728867D01*
X55085587Y-55754000D01*
X55214413Y-55754000D01*
X55340765Y-55728867D01*
X55459785Y-55679567D01*
X55475000Y-55669401D01*
X55490215Y-55679567D01*
X55609235Y-55728867D01*
X55735587Y-55754000D01*
X55864413Y-55754000D01*
X55990765Y-55728867D01*
X56109785Y-55679567D01*
X56125000Y-55669401D01*
X56140215Y-55679567D01*
X56259235Y-55728867D01*
X56385587Y-55754000D01*
X56514413Y-55754000D01*
X56640765Y-55728867D01*
X56759785Y-55679567D01*
X56775000Y-55669401D01*
X56790215Y-55679567D01*
X56909235Y-55728867D01*
X57035587Y-55754000D01*
X57164413Y-55754000D01*
X57290765Y-55728867D01*
X57409785Y-55679567D01*
X57425000Y-55669401D01*
X57440215Y-55679567D01*
X57559235Y-55728867D01*
X57685587Y-55754000D01*
X57814413Y-55754000D01*
X57940765Y-55728867D01*
X58059785Y-55679567D01*
X58075000Y-55669401D01*
X58090215Y-55679567D01*
X58209235Y-55728867D01*
X58335587Y-55754000D01*
X58464413Y-55754000D01*
X58590765Y-55728867D01*
X58709785Y-55679567D01*
X58725000Y-55669401D01*
X58740215Y-55679567D01*
X58859235Y-55728867D01*
X58985587Y-55754000D01*
X59114413Y-55754000D01*
X59240765Y-55728867D01*
X59359785Y-55679567D01*
X59466900Y-55607995D01*
X59557995Y-55516900D01*
X59598358Y-55456492D01*
X59616380Y-55500000D01*
X59571133Y-55609235D01*
X59546000Y-55735587D01*
X59546000Y-55864413D01*
X59571133Y-55990765D01*
X59620433Y-56109785D01*
X59680713Y-56200000D01*
X59620433Y-56290215D01*
X59571133Y-56409235D01*
X59553380Y-56498485D01*
X59516900Y-56462005D01*
X59409785Y-56390433D01*
X59290765Y-56341133D01*
X59164413Y-56316000D01*
X59035587Y-56316000D01*
X58909235Y-56341133D01*
X58790215Y-56390433D01*
X58683100Y-56462005D01*
X58592005Y-56553100D01*
X58520433Y-56660215D01*
X58471133Y-56779235D01*
X58446000Y-56905587D01*
X58446000Y-57034413D01*
X58471133Y-57160765D01*
X58520433Y-57279785D01*
X58592005Y-57386900D01*
X58683100Y-57477995D01*
X58790215Y-57549567D01*
X58909235Y-57598867D01*
X59035587Y-57624000D01*
X59164413Y-57624000D01*
X59290765Y-57598867D01*
X59409785Y-57549567D01*
X59516900Y-57477995D01*
X59546000Y-57448895D01*
X59546000Y-57464413D01*
X59571133Y-57590765D01*
X59620433Y-57709785D01*
X59647304Y-57750000D01*
X59620433Y-57790215D01*
X59571133Y-57909235D01*
X59546000Y-58035587D01*
X59546000Y-58164413D01*
X59571133Y-58290765D01*
X59620433Y-58409785D01*
X59647304Y-58450000D01*
X59620433Y-58490215D01*
X59571133Y-58609235D01*
X59546000Y-58735587D01*
X59546000Y-58864413D01*
X59571133Y-58990765D01*
X59620433Y-59109785D01*
X59647304Y-59150000D01*
X59620433Y-59190215D01*
X59571133Y-59309235D01*
X59546000Y-59435587D01*
X59546000Y-59564413D01*
X59571133Y-59690765D01*
X59620433Y-59809785D01*
X59647304Y-59850000D01*
X59620433Y-59890215D01*
X59571133Y-60009235D01*
X59546000Y-60135587D01*
X59546000Y-60264413D01*
X59571133Y-60390765D01*
X59620433Y-60509785D01*
X59692005Y-60616900D01*
X59783100Y-60707995D01*
X59890215Y-60779567D01*
X60009235Y-60828867D01*
X60135587Y-60854000D01*
X60264413Y-60854000D01*
X60390765Y-60828867D01*
X60509785Y-60779567D01*
X60550000Y-60752696D01*
X60590215Y-60779567D01*
X60709235Y-60828867D01*
X60835587Y-60854000D01*
X60964413Y-60854000D01*
X61090765Y-60828867D01*
X61209785Y-60779567D01*
X61250000Y-60752696D01*
X61290215Y-60779567D01*
X61409235Y-60828867D01*
X61535587Y-60854000D01*
X61664413Y-60854000D01*
X61790765Y-60828867D01*
X61909785Y-60779567D01*
X61950000Y-60752696D01*
X61990215Y-60779567D01*
X62109235Y-60828867D01*
X62235587Y-60854000D01*
X62364413Y-60854000D01*
X62490765Y-60828867D01*
X62609785Y-60779567D01*
X62716900Y-60707995D01*
X62807995Y-60616900D01*
X62879567Y-60509785D01*
X62900000Y-60460456D01*
X62920433Y-60509785D01*
X62992005Y-60616900D01*
X63083100Y-60707995D01*
X63190215Y-60779567D01*
X63309235Y-60828867D01*
X63435587Y-60854000D01*
X63564413Y-60854000D01*
X63690765Y-60828867D01*
X63809785Y-60779567D01*
X63916900Y-60707995D01*
X64007995Y-60616900D01*
X64079567Y-60509785D01*
X64128867Y-60390765D01*
X64154000Y-60264413D01*
X64154000Y-60135587D01*
X64128867Y-60009235D01*
X64083620Y-59900000D01*
X64128867Y-59790765D01*
X64154000Y-59664413D01*
X64154000Y-59535587D01*
X64128867Y-59409235D01*
X64079567Y-59290215D01*
X64007995Y-59183100D01*
X63916900Y-59092005D01*
X63854000Y-59049977D01*
X63854000Y-58935587D01*
X63828867Y-58809235D01*
X63779567Y-58690215D01*
X63707995Y-58583100D01*
X63616900Y-58492005D01*
X63509785Y-58420433D01*
X63390765Y-58371133D01*
X63264413Y-58346000D01*
X63135587Y-58346000D01*
X63009235Y-58371133D01*
X62900000Y-58416380D01*
X62790765Y-58371133D01*
X62664413Y-58346000D01*
X62535587Y-58346000D01*
X62409235Y-58371133D01*
X62290215Y-58420433D01*
X62183100Y-58492005D01*
X62092005Y-58583100D01*
X62020433Y-58690215D01*
X61971133Y-58809235D01*
X61946000Y-58935587D01*
X61946000Y-59049977D01*
X61883100Y-59092005D01*
X61792005Y-59183100D01*
X61720433Y-59290215D01*
X61671133Y-59409235D01*
X61646000Y-59535587D01*
X61646000Y-59546000D01*
X61535587Y-59546000D01*
X61409235Y-59571133D01*
X61290215Y-59620433D01*
X61250000Y-59647304D01*
X61209785Y-59620433D01*
X61090765Y-59571133D01*
X60964413Y-59546000D01*
X60854000Y-59546000D01*
X60854000Y-59435587D01*
X60828867Y-59309235D01*
X60779567Y-59190215D01*
X60752696Y-59150000D01*
X60779567Y-59109785D01*
X60828867Y-58990765D01*
X60854000Y-58864413D01*
X60854000Y-58735587D01*
X60828867Y-58609235D01*
X60779567Y-58490215D01*
X60752696Y-58450000D01*
X60779567Y-58409785D01*
X60828867Y-58290765D01*
X60854000Y-58164413D01*
X60854000Y-58035587D01*
X60828867Y-57909235D01*
X60779567Y-57790215D01*
X60752696Y-57750000D01*
X60779567Y-57709785D01*
X60828867Y-57590765D01*
X60854000Y-57464413D01*
X60854000Y-57335587D01*
X60828867Y-57209235D01*
X60779567Y-57090215D01*
X60719287Y-57000000D01*
X60779567Y-56909785D01*
X60828867Y-56790765D01*
X60854000Y-56664413D01*
X60854000Y-56535587D01*
X60828867Y-56409235D01*
X60779567Y-56290215D01*
X60719287Y-56200000D01*
X60779567Y-56109785D01*
X60828867Y-55990765D01*
X60854000Y-55864413D01*
X60854000Y-55735587D01*
X60828867Y-55609235D01*
X60783620Y-55500000D01*
X60828867Y-55390765D01*
X60854000Y-55264413D01*
X60854000Y-55135587D01*
X60828867Y-55009235D01*
X60779567Y-54890215D01*
X60761037Y-54862483D01*
X60789567Y-54819785D01*
X60838867Y-54700765D01*
X60864000Y-54574413D01*
X60864000Y-54445587D01*
X60838867Y-54319235D01*
X60799833Y-54225000D01*
X61444309Y-54225000D01*
X61401133Y-54329235D01*
X61376000Y-54455587D01*
X61376000Y-54584413D01*
X61401133Y-54710765D01*
X61450433Y-54829785D01*
X61455622Y-54837551D01*
X61420433Y-54890215D01*
X61371133Y-55009235D01*
X61346000Y-55135587D01*
X61346000Y-55264413D01*
X61371133Y-55390765D01*
X61420433Y-55509785D01*
X61447304Y-55550000D01*
X61420433Y-55590215D01*
X61371133Y-55709235D01*
X61346000Y-55835587D01*
X61346000Y-55964413D01*
X61371133Y-56090765D01*
X61420433Y-56209785D01*
X61447304Y-56250000D01*
X61420433Y-56290215D01*
X61371133Y-56409235D01*
X61346000Y-56535587D01*
X61346000Y-56664413D01*
X61371133Y-56790765D01*
X61420433Y-56909785D01*
X61447304Y-56950000D01*
X61420433Y-56990215D01*
X61371133Y-57109235D01*
X61346000Y-57235587D01*
X61346000Y-57364413D01*
X61371133Y-57490765D01*
X61420433Y-57609785D01*
X61492005Y-57716900D01*
X61583100Y-57807995D01*
X61690215Y-57879567D01*
X61809235Y-57928867D01*
X61935587Y-57954000D01*
X62064413Y-57954000D01*
X62190765Y-57928867D01*
X62309785Y-57879567D01*
X62350000Y-57852696D01*
X62390215Y-57879567D01*
X62509235Y-57928867D01*
X62635587Y-57954000D01*
X62764413Y-57954000D01*
X62890765Y-57928867D01*
X63009785Y-57879567D01*
X63050000Y-57852696D01*
X63090215Y-57879567D01*
X63209235Y-57928867D01*
X63335587Y-57954000D01*
X63464413Y-57954000D01*
X63590765Y-57928867D01*
X63709785Y-57879567D01*
X63816900Y-57807995D01*
X63907995Y-57716900D01*
X63979567Y-57609785D01*
X64028867Y-57490765D01*
X64054000Y-57364413D01*
X64054000Y-57235587D01*
X64028867Y-57109235D01*
X63983620Y-57000000D01*
X64006110Y-56945706D01*
X64090765Y-56928867D01*
X64209785Y-56879567D01*
X64250000Y-56852696D01*
X64290215Y-56879567D01*
X64409235Y-56928867D01*
X64535587Y-56954000D01*
X64644631Y-56954000D01*
X64620433Y-56990215D01*
X64571133Y-57109235D01*
X64546000Y-57235587D01*
X64546000Y-57364413D01*
X64571133Y-57490765D01*
X64620433Y-57609785D01*
X64692005Y-57716900D01*
X64783100Y-57807995D01*
X64890215Y-57879567D01*
X65009235Y-57928867D01*
X65135587Y-57954000D01*
X65264413Y-57954000D01*
X65390765Y-57928867D01*
X65509785Y-57879567D01*
X65550000Y-57852696D01*
X65590215Y-57879567D01*
X65709235Y-57928867D01*
X65835587Y-57954000D01*
X65964413Y-57954000D01*
X66090765Y-57928867D01*
X66209785Y-57879567D01*
X66250000Y-57852696D01*
X66290215Y-57879567D01*
X66409235Y-57928867D01*
X66535587Y-57954000D01*
X66563820Y-57954000D01*
X66571133Y-57990765D01*
X66620433Y-58109785D01*
X66647304Y-58150000D01*
X66620433Y-58190215D01*
X66571133Y-58309235D01*
X66546000Y-58435587D01*
X66546000Y-58564413D01*
X66571133Y-58690765D01*
X66620433Y-58809785D01*
X66692005Y-58916900D01*
X66756733Y-58981628D01*
X66746000Y-59035587D01*
X66746000Y-59164413D01*
X66771133Y-59290765D01*
X66820433Y-59409785D01*
X66892005Y-59516900D01*
X66983100Y-59607995D01*
X67090215Y-59679567D01*
X67209235Y-59728867D01*
X67335587Y-59754000D01*
X67464413Y-59754000D01*
X67590765Y-59728867D01*
X67709785Y-59679567D01*
X67750000Y-59652696D01*
X67790215Y-59679567D01*
X67909235Y-59728867D01*
X68035587Y-59754000D01*
X68164413Y-59754000D01*
X68290765Y-59728867D01*
X68400000Y-59683620D01*
X68454294Y-59706110D01*
X68471133Y-59790765D01*
X68516380Y-59900000D01*
X68471133Y-60009235D01*
X68446000Y-60135587D01*
X68446000Y-60264413D01*
X68471133Y-60390765D01*
X68520433Y-60509785D01*
X68592005Y-60616900D01*
X68683100Y-60707995D01*
X68790215Y-60779567D01*
X68909235Y-60828867D01*
X69035587Y-60854000D01*
X69164413Y-60854000D01*
X69290765Y-60828867D01*
X69409785Y-60779567D01*
X69516900Y-60707995D01*
X69607995Y-60616900D01*
X69679567Y-60509785D01*
X69728867Y-60390765D01*
X69754000Y-60264413D01*
X69754000Y-60135587D01*
X69728867Y-60009235D01*
X69683620Y-59900000D01*
X69728867Y-59790765D01*
X69754000Y-59664413D01*
X69754000Y-59605587D01*
X74766000Y-59605587D01*
X74766000Y-59734413D01*
X74791133Y-59860765D01*
X74840433Y-59979785D01*
X74912005Y-60086900D01*
X75003100Y-60177995D01*
X75110215Y-60249567D01*
X75229235Y-60298867D01*
X75355587Y-60324000D01*
X75484413Y-60324000D01*
X75610765Y-60298867D01*
X75729785Y-60249567D01*
X75836900Y-60177995D01*
X75927995Y-60086900D01*
X75999567Y-59979785D01*
X76048867Y-59860765D01*
X76074000Y-59734413D01*
X76074000Y-59605587D01*
X76048867Y-59479235D01*
X75999567Y-59360215D01*
X75927995Y-59253100D01*
X75836900Y-59162005D01*
X75729785Y-59090433D01*
X75610765Y-59041133D01*
X75484413Y-59016000D01*
X75355587Y-59016000D01*
X75229235Y-59041133D01*
X75110215Y-59090433D01*
X75003100Y-59162005D01*
X74912005Y-59253100D01*
X74840433Y-59360215D01*
X74791133Y-59479235D01*
X74766000Y-59605587D01*
X69754000Y-59605587D01*
X69754000Y-59535587D01*
X69728867Y-59409235D01*
X69679567Y-59290215D01*
X69607995Y-59183100D01*
X69516900Y-59092005D01*
X69409785Y-59020433D01*
X69345706Y-58993890D01*
X69328867Y-58909235D01*
X69279567Y-58790215D01*
X69229703Y-58715587D01*
X72206000Y-58715587D01*
X72206000Y-58844413D01*
X72231133Y-58970765D01*
X72280433Y-59089785D01*
X72352005Y-59196900D01*
X72443100Y-59287995D01*
X72550215Y-59359567D01*
X72669235Y-59408867D01*
X72795587Y-59434000D01*
X72924413Y-59434000D01*
X73050765Y-59408867D01*
X73169785Y-59359567D01*
X73276900Y-59287995D01*
X73367995Y-59196900D01*
X73439567Y-59089785D01*
X73488867Y-58970765D01*
X73514000Y-58844413D01*
X73514000Y-58715587D01*
X73488867Y-58589235D01*
X73439567Y-58470215D01*
X73367995Y-58363100D01*
X73276900Y-58272005D01*
X73169785Y-58200433D01*
X73050765Y-58151133D01*
X72924413Y-58126000D01*
X72795587Y-58126000D01*
X72669235Y-58151133D01*
X72550215Y-58200433D01*
X72443100Y-58272005D01*
X72352005Y-58363100D01*
X72280433Y-58470215D01*
X72231133Y-58589235D01*
X72206000Y-58715587D01*
X69229703Y-58715587D01*
X69207995Y-58683100D01*
X69116900Y-58592005D01*
X69009785Y-58520433D01*
X68890765Y-58471133D01*
X68764413Y-58446000D01*
X68635587Y-58446000D01*
X68509235Y-58471133D01*
X68400000Y-58516380D01*
X68290765Y-58471133D01*
X68164413Y-58446000D01*
X68035587Y-58446000D01*
X67909235Y-58471133D01*
X67854000Y-58494012D01*
X67854000Y-58435587D01*
X67828867Y-58309235D01*
X67779567Y-58190215D01*
X67752696Y-58150000D01*
X67779567Y-58109785D01*
X67828867Y-57990765D01*
X67854000Y-57864413D01*
X67854000Y-57735587D01*
X67840077Y-57665587D01*
X73996000Y-57665587D01*
X73996000Y-57794413D01*
X74021133Y-57920765D01*
X74070433Y-58039785D01*
X74142005Y-58146900D01*
X74233100Y-58237995D01*
X74340215Y-58309567D01*
X74459235Y-58358867D01*
X74585587Y-58384000D01*
X74714413Y-58384000D01*
X74840765Y-58358867D01*
X74959785Y-58309567D01*
X75066900Y-58237995D01*
X75157995Y-58146900D01*
X75229567Y-58039785D01*
X75278867Y-57920765D01*
X75304000Y-57794413D01*
X75304000Y-57685587D01*
X75846000Y-57685587D01*
X75846000Y-57814413D01*
X75871133Y-57940765D01*
X75920433Y-58059785D01*
X75992005Y-58166900D01*
X76083100Y-58257995D01*
X76190215Y-58329567D01*
X76309235Y-58378867D01*
X76435587Y-58404000D01*
X76564413Y-58404000D01*
X76690765Y-58378867D01*
X76809785Y-58329567D01*
X76916900Y-58257995D01*
X77007995Y-58166900D01*
X77079567Y-58059785D01*
X77128867Y-57940765D01*
X77154000Y-57814413D01*
X77154000Y-57685587D01*
X77128867Y-57559235D01*
X77079567Y-57440215D01*
X77007995Y-57333100D01*
X76916900Y-57242005D01*
X76809785Y-57170433D01*
X76690765Y-57121133D01*
X76564413Y-57096000D01*
X76435587Y-57096000D01*
X76309235Y-57121133D01*
X76190215Y-57170433D01*
X76083100Y-57242005D01*
X75992005Y-57333100D01*
X75920433Y-57440215D01*
X75871133Y-57559235D01*
X75846000Y-57685587D01*
X75304000Y-57685587D01*
X75304000Y-57665587D01*
X75278867Y-57539235D01*
X75229567Y-57420215D01*
X75157995Y-57313100D01*
X75066900Y-57222005D01*
X74959785Y-57150433D01*
X74840765Y-57101133D01*
X74714413Y-57076000D01*
X74585587Y-57076000D01*
X74459235Y-57101133D01*
X74340215Y-57150433D01*
X74233100Y-57222005D01*
X74142005Y-57313100D01*
X74070433Y-57420215D01*
X74021133Y-57539235D01*
X73996000Y-57665587D01*
X67840077Y-57665587D01*
X67828867Y-57609235D01*
X67779567Y-57490215D01*
X67707995Y-57383100D01*
X67616900Y-57292005D01*
X67509785Y-57220433D01*
X67390765Y-57171133D01*
X67264413Y-57146000D01*
X67236180Y-57146000D01*
X67228867Y-57109235D01*
X67179567Y-56990215D01*
X67107995Y-56883100D01*
X67016900Y-56792005D01*
X66909785Y-56720433D01*
X66790765Y-56671133D01*
X66664413Y-56646000D01*
X66535587Y-56646000D01*
X66409235Y-56671133D01*
X66290215Y-56720433D01*
X66250000Y-56747304D01*
X66209785Y-56720433D01*
X66090765Y-56671133D01*
X65964413Y-56646000D01*
X65854000Y-56646000D01*
X65854000Y-56535587D01*
X65828867Y-56409235D01*
X65779567Y-56290215D01*
X65707995Y-56183100D01*
X65616900Y-56092005D01*
X65509785Y-56020433D01*
X65390765Y-55971133D01*
X65264413Y-55946000D01*
X65150023Y-55946000D01*
X65107995Y-55883100D01*
X65016900Y-55792005D01*
X64960022Y-55754000D01*
X64964413Y-55754000D01*
X65090765Y-55728867D01*
X65209785Y-55679567D01*
X65225000Y-55669401D01*
X65240215Y-55679567D01*
X65359235Y-55728867D01*
X65485587Y-55754000D01*
X65614413Y-55754000D01*
X65740765Y-55728867D01*
X65859785Y-55679567D01*
X65875000Y-55669401D01*
X65890215Y-55679567D01*
X66009235Y-55728867D01*
X66135587Y-55754000D01*
X66264413Y-55754000D01*
X66390765Y-55728867D01*
X66509785Y-55679567D01*
X66525000Y-55669401D01*
X66540215Y-55679567D01*
X66659235Y-55728867D01*
X66785587Y-55754000D01*
X66914413Y-55754000D01*
X67040765Y-55728867D01*
X67159785Y-55679567D01*
X67175000Y-55669401D01*
X67190215Y-55679567D01*
X67309235Y-55728867D01*
X67435587Y-55754000D01*
X67564413Y-55754000D01*
X67690765Y-55728867D01*
X67809785Y-55679567D01*
X67825000Y-55669401D01*
X67840215Y-55679567D01*
X67959235Y-55728867D01*
X68085587Y-55754000D01*
X68214413Y-55754000D01*
X68340765Y-55728867D01*
X68459785Y-55679567D01*
X68475000Y-55669401D01*
X68490215Y-55679567D01*
X68609235Y-55728867D01*
X68735587Y-55754000D01*
X68864413Y-55754000D01*
X68990765Y-55728867D01*
X69109785Y-55679567D01*
X69125000Y-55669401D01*
X69140215Y-55679567D01*
X69259235Y-55728867D01*
X69385587Y-55754000D01*
X69514413Y-55754000D01*
X69640765Y-55728867D01*
X69759785Y-55679567D01*
X69775000Y-55669401D01*
X69790215Y-55679567D01*
X69909235Y-55728867D01*
X70035587Y-55754000D01*
X70164413Y-55754000D01*
X70290765Y-55728867D01*
X70409785Y-55679567D01*
X70425000Y-55669401D01*
X70440215Y-55679567D01*
X70559235Y-55728867D01*
X70685587Y-55754000D01*
X70814413Y-55754000D01*
X70940765Y-55728867D01*
X71059785Y-55679567D01*
X71075000Y-55669401D01*
X71090215Y-55679567D01*
X71209235Y-55728867D01*
X71335587Y-55754000D01*
X71464413Y-55754000D01*
X71590765Y-55728867D01*
X71709785Y-55679567D01*
X71725000Y-55669401D01*
X71740215Y-55679567D01*
X71859235Y-55728867D01*
X71985587Y-55754000D01*
X72114413Y-55754000D01*
X72240765Y-55728867D01*
X72359785Y-55679567D01*
X72375000Y-55669401D01*
X72390215Y-55679567D01*
X72509235Y-55728867D01*
X72635587Y-55754000D01*
X72764413Y-55754000D01*
X72890765Y-55728867D01*
X73009785Y-55679567D01*
X73025000Y-55669401D01*
X73040215Y-55679567D01*
X73159235Y-55728867D01*
X73285587Y-55754000D01*
X73414413Y-55754000D01*
X73540765Y-55728867D01*
X73659785Y-55679567D01*
X73675000Y-55669401D01*
X73690215Y-55679567D01*
X73809235Y-55728867D01*
X73935587Y-55754000D01*
X74064413Y-55754000D01*
X74190765Y-55728867D01*
X74309785Y-55679567D01*
X74325000Y-55669401D01*
X74340215Y-55679567D01*
X74459235Y-55728867D01*
X74585587Y-55754000D01*
X74714413Y-55754000D01*
X74840765Y-55728867D01*
X74959785Y-55679567D01*
X74975000Y-55669401D01*
X74990215Y-55679567D01*
X75109235Y-55728867D01*
X75235587Y-55754000D01*
X75364413Y-55754000D01*
X75490765Y-55728867D01*
X75609785Y-55679567D01*
X75625000Y-55669401D01*
X75640215Y-55679567D01*
X75759235Y-55728867D01*
X75885587Y-55754000D01*
X76014413Y-55754000D01*
X76140765Y-55728867D01*
X76259785Y-55679567D01*
X76275000Y-55669401D01*
X76290215Y-55679567D01*
X76409235Y-55728867D01*
X76535587Y-55754000D01*
X76664413Y-55754000D01*
X76790765Y-55728867D01*
X76909785Y-55679567D01*
X76925000Y-55669401D01*
X76940215Y-55679567D01*
X77059235Y-55728867D01*
X77185587Y-55754000D01*
X77314413Y-55754000D01*
X77440765Y-55728867D01*
X77559785Y-55679567D01*
X77575000Y-55669401D01*
X77590215Y-55679567D01*
X77709235Y-55728867D01*
X77835587Y-55754000D01*
X77964413Y-55754000D01*
X78090765Y-55728867D01*
X78209785Y-55679567D01*
X78225000Y-55669401D01*
X78240215Y-55679567D01*
X78359235Y-55728867D01*
X78485587Y-55754000D01*
X78614413Y-55754000D01*
X78740765Y-55728867D01*
X78859785Y-55679567D01*
X78875000Y-55669401D01*
X78890215Y-55679567D01*
X79009235Y-55728867D01*
X79135587Y-55754000D01*
X79264413Y-55754000D01*
X79305858Y-55745756D01*
X79286000Y-55845587D01*
X79286000Y-55974413D01*
X79311133Y-56100765D01*
X79360433Y-56219785D01*
X79432005Y-56326900D01*
X79523100Y-56417995D01*
X79630215Y-56489567D01*
X79749235Y-56538867D01*
X79875587Y-56564000D01*
X80004413Y-56564000D01*
X80130765Y-56538867D01*
X80249785Y-56489567D01*
X80356900Y-56417995D01*
X80447995Y-56326900D01*
X80519567Y-56219785D01*
X80568867Y-56100765D01*
X80576301Y-56063391D01*
X80982554Y-56787280D01*
X81006539Y-56841402D01*
X80943394Y-56815246D01*
X80817042Y-56790113D01*
X80688216Y-56790113D01*
X80561864Y-56815246D01*
X80442844Y-56864546D01*
X80335729Y-56936118D01*
X80244634Y-57027213D01*
X80173062Y-57134328D01*
X80123762Y-57253348D01*
X80098629Y-57379700D01*
X80098629Y-57508526D01*
X80123762Y-57634878D01*
X80173062Y-57753898D01*
X80244634Y-57861013D01*
X80335729Y-57952108D01*
X80442844Y-58023680D01*
X80561864Y-58072980D01*
X80688216Y-58098113D01*
X80817042Y-58098113D01*
X80943394Y-58072980D01*
X81062414Y-58023680D01*
X81169529Y-57952108D01*
X81260624Y-57861013D01*
X81332196Y-57753898D01*
X81370234Y-57662066D01*
X81634167Y-58257622D01*
X81706450Y-58473632D01*
X81591213Y-58425899D01*
X81464861Y-58400766D01*
X81336035Y-58400766D01*
X81209683Y-58425899D01*
X81090663Y-58475199D01*
X80983548Y-58546771D01*
X80892453Y-58637866D01*
X80820881Y-58744981D01*
X80771581Y-58864001D01*
X80746448Y-58990353D01*
X80746448Y-59119179D01*
X80771581Y-59245531D01*
X80820881Y-59364551D01*
X80892453Y-59471666D01*
X80983548Y-59562761D01*
X81090663Y-59634333D01*
X81209683Y-59683633D01*
X81336035Y-59708766D01*
X81464861Y-59708766D01*
X81591213Y-59683633D01*
X81710233Y-59634333D01*
X81817348Y-59562761D01*
X81908443Y-59471666D01*
X81980015Y-59364551D01*
X81993600Y-59331755D01*
X82144517Y-59782757D01*
X82236612Y-60178465D01*
X82186144Y-60144743D01*
X82067124Y-60095443D01*
X81940772Y-60070310D01*
X81811946Y-60070310D01*
X81685594Y-60095443D01*
X81566574Y-60144743D01*
X81459459Y-60216315D01*
X81368364Y-60307410D01*
X81296792Y-60414525D01*
X81247492Y-60533545D01*
X81222359Y-60659897D01*
X81222359Y-60788723D01*
X81247492Y-60915075D01*
X81296792Y-61034095D01*
X81368364Y-61141210D01*
X81459459Y-61232305D01*
X81566574Y-61303877D01*
X81685594Y-61353177D01*
X81811946Y-61378310D01*
X81940772Y-61378310D01*
X82067124Y-61353177D01*
X82186144Y-61303877D01*
X82293259Y-61232305D01*
X82384354Y-61141210D01*
X82440961Y-61056492D01*
X82509075Y-61349163D01*
X82578560Y-61862978D01*
X82559785Y-61850433D01*
X82440765Y-61801133D01*
X82314413Y-61776000D01*
X82185587Y-61776000D01*
X82059235Y-61801133D01*
X81940215Y-61850433D01*
X81833100Y-61922005D01*
X81742005Y-62013100D01*
X81670433Y-62120215D01*
X81621133Y-62239235D01*
X81596000Y-62365587D01*
X81596000Y-62494413D01*
X81621133Y-62620765D01*
X81670433Y-62739785D01*
X81742005Y-62846900D01*
X81833100Y-62937995D01*
X81940215Y-63009567D01*
X82059235Y-63058867D01*
X82185587Y-63084000D01*
X82314413Y-63084000D01*
X82440765Y-63058867D01*
X82559785Y-63009567D01*
X82666900Y-62937995D01*
X82717144Y-62887751D01*
X82724603Y-62942914D01*
X82755160Y-63703188D01*
X82710441Y-63658469D01*
X82603326Y-63586897D01*
X82484306Y-63537597D01*
X82357954Y-63512464D01*
X82229128Y-63512464D01*
X82102776Y-63537597D01*
X81983756Y-63586897D01*
X81876641Y-63658469D01*
X81785546Y-63749564D01*
X81713974Y-63856679D01*
X81664674Y-63975699D01*
X81639541Y-64102051D01*
X81639541Y-64230877D01*
X81664674Y-64357229D01*
X81713974Y-64476249D01*
X81785546Y-64583364D01*
X81876641Y-64674459D01*
X81983756Y-64746031D01*
X82102776Y-64795331D01*
X82229128Y-64820464D01*
X82357954Y-64820464D01*
X82484306Y-64795331D01*
X82603326Y-64746031D01*
X82710441Y-64674459D01*
X82786567Y-64598333D01*
X82740109Y-65456573D01*
X82676900Y-65393364D01*
X82569785Y-65321792D01*
X82450765Y-65272492D01*
X82324413Y-65247359D01*
X82195587Y-65247359D01*
X82069235Y-65272492D01*
X81950215Y-65321792D01*
X81843100Y-65393364D01*
X81752005Y-65484459D01*
X81680433Y-65591574D01*
X81631133Y-65710594D01*
X81606000Y-65836946D01*
X81606000Y-65965772D01*
X81631133Y-66092124D01*
X81680433Y-66211144D01*
X81752005Y-66318259D01*
X81843100Y-66409354D01*
X81950215Y-66480926D01*
X82069235Y-66530226D01*
X82195587Y-66555359D01*
X82324413Y-66555359D01*
X82450765Y-66530226D01*
X82569785Y-66480926D01*
X82662982Y-66418654D01*
X82536279Y-67266601D01*
X82493939Y-67203235D01*
X82402844Y-67112140D01*
X82295729Y-67040568D01*
X82176709Y-66991268D01*
X82050357Y-66966135D01*
X81921531Y-66966135D01*
X81795179Y-66991268D01*
X81676159Y-67040568D01*
X81569044Y-67112140D01*
X81477949Y-67203235D01*
X81406377Y-67310350D01*
X81357077Y-67429370D01*
X81331944Y-67555722D01*
X81331944Y-67684548D01*
X81357077Y-67810900D01*
X81406377Y-67929920D01*
X81477949Y-68037035D01*
X81569044Y-68128130D01*
X81676159Y-68199702D01*
X81795179Y-68249002D01*
X81921531Y-68274135D01*
X82050357Y-68274135D01*
X82176709Y-68249002D01*
X82295729Y-68199702D01*
X82363648Y-68154320D01*
X82150990Y-69013731D01*
X82142889Y-68994173D01*
X82071317Y-68887058D01*
X81980222Y-68795963D01*
X81873107Y-68724391D01*
X81754087Y-68675091D01*
X81627735Y-68649958D01*
X81498909Y-68649958D01*
X81372557Y-68675091D01*
X81253537Y-68724391D01*
X81146422Y-68795963D01*
X81055327Y-68887058D01*
X80983755Y-68994173D01*
X80934455Y-69113193D01*
X80909322Y-69239545D01*
X80909322Y-69368371D01*
X80934455Y-69494723D01*
X80983755Y-69613743D01*
X81055327Y-69720858D01*
X81146422Y-69811953D01*
X81253537Y-69883525D01*
X81372557Y-69932825D01*
X81498909Y-69957958D01*
X81627735Y-69957958D01*
X81754087Y-69932825D01*
X81873107Y-69883525D01*
X81877670Y-69880476D01*
X81584796Y-70716866D01*
X81546576Y-70624596D01*
X81475004Y-70517481D01*
X81383909Y-70426386D01*
X81276794Y-70354814D01*
X81157774Y-70305514D01*
X81031422Y-70280381D01*
X80902596Y-70280381D01*
X80776244Y-70305514D01*
X80657224Y-70354814D01*
X80550109Y-70426386D01*
X80459014Y-70517481D01*
X80387442Y-70624596D01*
X80338142Y-70743616D01*
X80313009Y-70869968D01*
X80313009Y-70998794D01*
X80338142Y-71125146D01*
X80387442Y-71244166D01*
X80459014Y-71351281D01*
X80550109Y-71442376D01*
X80657224Y-71513948D01*
X80776244Y-71563248D01*
X80902596Y-71588381D01*
X81031422Y-71588381D01*
X81157774Y-71563248D01*
X81219142Y-71537828D01*
X80874766Y-72286610D01*
X80840832Y-72345152D01*
X80832403Y-72302776D01*
X80783103Y-72183756D01*
X80711531Y-72076641D01*
X80620436Y-71985546D01*
X80513321Y-71913974D01*
X80394301Y-71864674D01*
X80267949Y-71839541D01*
X80139123Y-71839541D01*
X80012771Y-71864674D01*
X79893751Y-71913974D01*
X79786636Y-71985546D01*
X79695541Y-72076641D01*
X79623969Y-72183756D01*
X79574669Y-72302776D01*
X79549536Y-72429128D01*
X79549536Y-72557954D01*
X79574669Y-72684306D01*
X79623969Y-72803326D01*
X79695541Y-72910441D01*
X79786636Y-73001536D01*
X79893751Y-73073108D01*
X80012771Y-73122408D01*
X80139123Y-73147541D01*
X80267949Y-73147541D01*
X80389780Y-73123307D01*
X80087820Y-73644247D01*
X80078867Y-73599235D01*
X80029567Y-73480215D01*
X79957995Y-73373100D01*
X79866900Y-73282005D01*
X79759785Y-73210433D01*
X79640765Y-73161133D01*
X79514413Y-73136000D01*
X79385587Y-73136000D01*
X79259235Y-73161133D01*
X79140215Y-73210433D01*
X79033100Y-73282005D01*
X78942005Y-73373100D01*
X78870433Y-73480215D01*
X78821133Y-73599235D01*
X78796000Y-73725587D01*
X78796000Y-73854413D01*
X78821133Y-73980765D01*
X78870433Y-74099785D01*
X78942005Y-74206900D01*
X79033100Y-74297995D01*
X79140215Y-74369567D01*
X79259235Y-74418867D01*
X79385587Y-74444000D01*
X79514413Y-74444000D01*
X79523147Y-74442263D01*
X79134356Y-74987359D01*
X78660368Y-75534575D01*
X78629567Y-75460215D01*
X78557995Y-75353100D01*
X78466900Y-75262005D01*
X78359785Y-75190433D01*
X78240765Y-75141133D01*
X78114413Y-75116000D01*
X77985587Y-75116000D01*
X77859235Y-75141133D01*
X77740215Y-75190433D01*
X77633100Y-75262005D01*
X77593033Y-75302072D01*
X77511106Y-75220145D01*
X77391707Y-75140365D01*
X77259037Y-75085411D01*
X77118196Y-75057396D01*
X76974596Y-75057396D01*
X76833755Y-75085411D01*
X76701085Y-75140365D01*
X76581686Y-75220145D01*
X76480145Y-75321686D01*
X76400365Y-75441085D01*
X76345411Y-75573755D01*
X76317396Y-75714596D01*
X76317396Y-75858196D01*
X76345411Y-75999037D01*
X76400365Y-76131707D01*
X76480145Y-76251106D01*
X76504021Y-76274982D01*
X76460433Y-76340215D01*
X76411133Y-76459235D01*
X76386000Y-76585587D01*
X76386000Y-76714413D01*
X76411133Y-76840765D01*
X76460433Y-76959785D01*
X76532005Y-77066900D01*
X76623100Y-77157995D01*
X76730215Y-77229567D01*
X76849235Y-77278867D01*
X76937295Y-77296383D01*
X76918696Y-77314157D01*
X75656599Y-78310956D01*
X75631296Y-78327326D01*
X75658867Y-78260765D01*
X75684000Y-78134413D01*
X75684000Y-78005587D01*
X75658867Y-77879235D01*
X75609567Y-77760215D01*
X75537995Y-77653100D01*
X75446900Y-77562005D01*
X75339785Y-77490433D01*
X75220765Y-77441133D01*
X75094413Y-77416000D01*
X74965587Y-77416000D01*
X74839235Y-77441133D01*
X74720215Y-77490433D01*
X74613100Y-77562005D01*
X74522005Y-77653100D01*
X74450433Y-77760215D01*
X74401133Y-77879235D01*
X74376000Y-78005587D01*
X74376000Y-78022229D01*
X74294413Y-78006000D01*
X74165587Y-78006000D01*
X74039235Y-78031133D01*
X73920215Y-78080433D01*
X73813100Y-78152005D01*
X73722005Y-78243100D01*
X73650433Y-78350215D01*
X73601133Y-78469235D01*
X73576000Y-78595587D01*
X73576000Y-78724413D01*
X73601133Y-78850765D01*
X73650433Y-78969785D01*
X73722005Y-79076900D01*
X73813100Y-79167995D01*
X73920215Y-79239567D01*
X74039235Y-79288867D01*
X74087495Y-79298466D01*
X73307772Y-79704391D01*
X73324754Y-79663394D01*
X73349887Y-79537042D01*
X73349887Y-79408216D01*
X73324754Y-79281864D01*
X73275454Y-79162844D01*
X73203882Y-79055729D01*
X73112787Y-78964634D01*
X73005672Y-78893062D01*
X72886652Y-78843762D01*
X72760300Y-78818629D01*
X72631474Y-78818629D01*
X72505122Y-78843762D01*
X72386102Y-78893062D01*
X72278987Y-78964634D01*
X72187892Y-79055729D01*
X72116320Y-79162844D01*
X72067020Y-79281864D01*
X72041887Y-79408216D01*
X72041887Y-79537042D01*
X72067020Y-79663394D01*
X72116320Y-79782414D01*
X72187892Y-79889529D01*
X72278987Y-79980624D01*
X72386102Y-80052196D01*
X72478126Y-80090314D01*
X71669600Y-80418648D01*
X71714101Y-80311213D01*
X71739234Y-80184861D01*
X71739234Y-80056035D01*
X71714101Y-79929683D01*
X71664801Y-79810663D01*
X71593229Y-79703548D01*
X71502134Y-79612453D01*
X71395019Y-79540881D01*
X71275999Y-79491581D01*
X71149647Y-79466448D01*
X71020821Y-79466448D01*
X70894469Y-79491581D01*
X70775449Y-79540881D01*
X70668334Y-79612453D01*
X70577239Y-79703548D01*
X70505667Y-79810663D01*
X70456367Y-79929683D01*
X70431234Y-80056035D01*
X70431234Y-80184861D01*
X70456367Y-80311213D01*
X70505667Y-80430233D01*
X70577239Y-80537348D01*
X70668334Y-80628443D01*
X70775449Y-80700015D01*
X70819100Y-80718096D01*
X70594406Y-80791111D01*
X70587556Y-80756711D01*
X70587271Y-80755773D01*
X70558807Y-80687069D01*
X70558345Y-80686204D01*
X70517016Y-80624273D01*
X70516395Y-80623515D01*
X70463151Y-80570271D01*
X70462393Y-80569650D01*
X70400462Y-80528321D01*
X70399597Y-80527859D01*
X70330893Y-80499395D01*
X70329955Y-80499110D01*
X70256558Y-80484495D01*
X70255583Y-80484399D01*
X70218266Y-80482566D01*
X69219199Y-80482566D01*
X69181882Y-80484399D01*
X69180907Y-80484495D01*
X69107510Y-80499110D01*
X69106572Y-80499395D01*
X69037868Y-80527859D01*
X69037003Y-80528321D01*
X68975072Y-80569650D01*
X68974314Y-80570271D01*
X68921070Y-80623515D01*
X68920449Y-80624273D01*
X68879412Y-80685766D01*
X62623666Y-80685766D01*
X62586349Y-80687599D01*
X62585374Y-80687695D01*
X62560147Y-80692718D01*
X62557807Y-80687069D01*
X62557345Y-80686204D01*
X62516016Y-80624273D01*
X62515395Y-80623515D01*
X62462151Y-80570271D01*
X62461393Y-80569650D01*
X62399462Y-80528321D01*
X62398597Y-80527859D01*
X62329893Y-80499395D01*
X62328955Y-80499110D01*
X62255558Y-80484495D01*
X62254583Y-80484399D01*
X62217266Y-80482566D01*
X61461397Y-80482566D01*
X61464909Y-80474087D01*
X61490042Y-80347735D01*
X61490042Y-80218909D01*
X61464909Y-80092557D01*
X61415609Y-79973537D01*
X61344037Y-79866422D01*
X61252942Y-79775327D01*
X61145827Y-79703755D01*
X61026807Y-79654455D01*
X60900455Y-79629322D01*
X60771629Y-79629322D01*
X60645277Y-79654455D01*
X60526257Y-79703755D01*
X60419142Y-79775327D01*
X60328047Y-79866422D01*
X60256475Y-79973537D01*
X60207175Y-80092557D01*
X60182042Y-80218909D01*
X60182042Y-80347735D01*
X60207175Y-80474087D01*
X60252598Y-80583746D01*
X59438177Y-80298565D01*
X59515404Y-80266576D01*
X59622519Y-80195004D01*
X59713614Y-80103909D01*
X59785186Y-79996794D01*
X59834486Y-79877774D01*
X59859619Y-79751422D01*
X59859619Y-79622596D01*
X59834486Y-79496244D01*
X59785186Y-79377224D01*
X59713614Y-79270109D01*
X59622519Y-79179014D01*
X59587459Y-79155587D01*
X62466000Y-79155587D01*
X62466000Y-79284413D01*
X62491133Y-79410765D01*
X62540433Y-79529785D01*
X62612005Y-79636900D01*
X62703100Y-79727995D01*
X62810215Y-79799567D01*
X62929235Y-79848867D01*
X63055587Y-79874000D01*
X63184413Y-79874000D01*
X63310765Y-79848867D01*
X63429785Y-79799567D01*
X63536900Y-79727995D01*
X63627995Y-79636900D01*
X63651682Y-79601450D01*
X63662005Y-79616900D01*
X63753100Y-79707995D01*
X63860215Y-79779567D01*
X63979235Y-79828867D01*
X64105587Y-79854000D01*
X64234413Y-79854000D01*
X64360765Y-79828867D01*
X64479785Y-79779567D01*
X64586900Y-79707995D01*
X64677995Y-79616900D01*
X64694977Y-79591484D01*
X64732005Y-79646900D01*
X64823100Y-79737995D01*
X64930215Y-79809567D01*
X65049235Y-79858867D01*
X65175587Y-79884000D01*
X65304413Y-79884000D01*
X65430765Y-79858867D01*
X65549785Y-79809567D01*
X65656900Y-79737995D01*
X65747995Y-79646900D01*
X65819567Y-79539785D01*
X65868867Y-79420765D01*
X65894000Y-79294413D01*
X65894000Y-79165587D01*
X65868867Y-79039235D01*
X65819567Y-78920215D01*
X65747995Y-78813100D01*
X65656900Y-78722005D01*
X65549785Y-78650433D01*
X65430765Y-78601133D01*
X65304413Y-78576000D01*
X65175587Y-78576000D01*
X65049235Y-78601133D01*
X64930215Y-78650433D01*
X64823100Y-78722005D01*
X64732005Y-78813100D01*
X64715023Y-78838516D01*
X64677995Y-78783100D01*
X64586900Y-78692005D01*
X64479785Y-78620433D01*
X64360765Y-78571133D01*
X64234413Y-78546000D01*
X64105587Y-78546000D01*
X63979235Y-78571133D01*
X63860215Y-78620433D01*
X63753100Y-78692005D01*
X63662005Y-78783100D01*
X63638318Y-78818550D01*
X63627995Y-78803100D01*
X63536900Y-78712005D01*
X63429785Y-78640433D01*
X63310765Y-78591133D01*
X63184413Y-78566000D01*
X63055587Y-78566000D01*
X62929235Y-78591133D01*
X62810215Y-78640433D01*
X62703100Y-78712005D01*
X62612005Y-78803100D01*
X62540433Y-78910215D01*
X62491133Y-79029235D01*
X62466000Y-79155587D01*
X59587459Y-79155587D01*
X59515404Y-79107442D01*
X59396384Y-79058142D01*
X59270032Y-79033009D01*
X59141206Y-79033009D01*
X59014854Y-79058142D01*
X58895834Y-79107442D01*
X58788719Y-79179014D01*
X58697624Y-79270109D01*
X58626052Y-79377224D01*
X58576752Y-79496244D01*
X58551619Y-79622596D01*
X58551619Y-79751422D01*
X58576752Y-79877774D01*
X58595712Y-79923547D01*
X57863641Y-79586857D01*
X57812638Y-79557293D01*
X57837224Y-79552403D01*
X57956244Y-79503103D01*
X58063359Y-79431531D01*
X58154454Y-79340436D01*
X58226026Y-79233321D01*
X58275326Y-79114301D01*
X58300459Y-78987949D01*
X58300459Y-78859123D01*
X58275326Y-78732771D01*
X58226026Y-78613751D01*
X58154454Y-78506636D01*
X58063359Y-78415541D01*
X57956244Y-78343969D01*
X57839441Y-78295587D01*
X59486000Y-78295587D01*
X59486000Y-78424413D01*
X59511133Y-78550765D01*
X59560433Y-78669785D01*
X59632005Y-78776900D01*
X59723100Y-78867995D01*
X59830215Y-78939567D01*
X59949235Y-78988867D01*
X60075587Y-79014000D01*
X60204413Y-79014000D01*
X60330765Y-78988867D01*
X60449785Y-78939567D01*
X60556900Y-78867995D01*
X60647995Y-78776900D01*
X60719567Y-78669785D01*
X60768867Y-78550765D01*
X60794000Y-78424413D01*
X60794000Y-78295587D01*
X60768867Y-78169235D01*
X60719567Y-78050215D01*
X60647995Y-77943100D01*
X60556900Y-77852005D01*
X60449785Y-77780433D01*
X60330765Y-77731133D01*
X60204413Y-77706000D01*
X60075587Y-77706000D01*
X59949235Y-77731133D01*
X59830215Y-77780433D01*
X59723100Y-77852005D01*
X59632005Y-77943100D01*
X59560433Y-78050215D01*
X59511133Y-78169235D01*
X59486000Y-78295587D01*
X57839441Y-78295587D01*
X57837224Y-78294669D01*
X57710872Y-78269536D01*
X57582046Y-78269536D01*
X57455694Y-78294669D01*
X57336674Y-78343969D01*
X57229559Y-78415541D01*
X57138464Y-78506636D01*
X57066892Y-78613751D01*
X57017592Y-78732771D01*
X56992459Y-78859123D01*
X56992459Y-78987949D01*
X57013578Y-79094123D01*
X56472221Y-78780329D01*
X56284492Y-78646431D01*
X56366409Y-78630137D01*
X56485429Y-78580837D01*
X56592544Y-78509265D01*
X56683639Y-78418170D01*
X56755211Y-78311055D01*
X56804511Y-78192035D01*
X56829644Y-78065683D01*
X56829644Y-77936857D01*
X56804511Y-77810505D01*
X56755211Y-77691485D01*
X56683639Y-77584370D01*
X56592544Y-77493275D01*
X56485429Y-77421703D01*
X56366409Y-77372403D01*
X56240057Y-77347270D01*
X56111231Y-77347270D01*
X55984879Y-77372403D01*
X55865859Y-77421703D01*
X55758744Y-77493275D01*
X55667649Y-77584370D01*
X55596077Y-77691485D01*
X55546777Y-77810505D01*
X55521644Y-77936857D01*
X55521644Y-78065683D01*
X55530138Y-78108386D01*
X55162892Y-77846447D01*
X54860260Y-77584313D01*
X54873704Y-77584313D01*
X55000056Y-77559180D01*
X55119076Y-77509880D01*
X55226191Y-77438308D01*
X55317286Y-77347213D01*
X55388858Y-77240098D01*
X55438158Y-77121078D01*
X55463291Y-76994726D01*
X55463291Y-76865900D01*
X55438158Y-76739548D01*
X55407523Y-76665587D01*
X61016000Y-76665587D01*
X61016000Y-76794413D01*
X61041133Y-76920765D01*
X61090433Y-77039785D01*
X61162005Y-77146900D01*
X61205105Y-77190000D01*
X61172005Y-77223100D01*
X61100433Y-77330215D01*
X61051133Y-77449235D01*
X61026000Y-77575587D01*
X61026000Y-77704413D01*
X61051133Y-77830765D01*
X61100433Y-77949785D01*
X61172005Y-78056900D01*
X61263100Y-78147995D01*
X61370215Y-78219567D01*
X61489235Y-78268867D01*
X61496000Y-78270213D01*
X61496000Y-78374413D01*
X61521133Y-78500765D01*
X61570433Y-78619785D01*
X61642005Y-78726900D01*
X61733100Y-78817995D01*
X61840215Y-78889567D01*
X61959235Y-78938867D01*
X62085587Y-78964000D01*
X62214413Y-78964000D01*
X62340765Y-78938867D01*
X62459785Y-78889567D01*
X62566900Y-78817995D01*
X62657995Y-78726900D01*
X62729567Y-78619785D01*
X62778867Y-78500765D01*
X62804000Y-78374413D01*
X62804000Y-78245587D01*
X62778867Y-78119235D01*
X62729567Y-78000215D01*
X62657995Y-77893100D01*
X62566900Y-77802005D01*
X62459785Y-77730433D01*
X62340765Y-77681133D01*
X62334000Y-77679787D01*
X62334000Y-77575587D01*
X62308867Y-77449235D01*
X62259567Y-77330215D01*
X62187995Y-77223100D01*
X62144895Y-77180000D01*
X62177995Y-77146900D01*
X62249567Y-77039785D01*
X62298867Y-76920765D01*
X62324000Y-76794413D01*
X62324000Y-76665587D01*
X62298867Y-76539235D01*
X62249567Y-76420215D01*
X62177995Y-76313100D01*
X62086900Y-76222005D01*
X61979785Y-76150433D01*
X61860765Y-76101133D01*
X61734413Y-76076000D01*
X61605587Y-76076000D01*
X61479235Y-76101133D01*
X61360215Y-76150433D01*
X61253100Y-76222005D01*
X61162005Y-76313100D01*
X61090433Y-76420215D01*
X61041133Y-76539235D01*
X61016000Y-76665587D01*
X55407523Y-76665587D01*
X55388858Y-76620528D01*
X55317286Y-76513413D01*
X55226191Y-76422318D01*
X55119076Y-76350746D01*
X55000056Y-76301446D01*
X54873704Y-76276313D01*
X54744878Y-76276313D01*
X54618526Y-76301446D01*
X54499506Y-76350746D01*
X54392391Y-76422318D01*
X54301296Y-76513413D01*
X54229724Y-76620528D01*
X54180424Y-76739548D01*
X54155291Y-76865900D01*
X54155291Y-76973683D01*
X53947248Y-76793480D01*
X53548656Y-76376401D01*
X53626780Y-76376401D01*
X53753132Y-76351268D01*
X53872152Y-76301968D01*
X53979267Y-76230396D01*
X54070362Y-76139301D01*
X54141934Y-76032186D01*
X54191234Y-75913166D01*
X54216367Y-75786814D01*
X54216367Y-75657988D01*
X54191234Y-75531636D01*
X54141934Y-75412616D01*
X54070362Y-75305501D01*
X53979267Y-75214406D01*
X53872152Y-75142834D01*
X53753132Y-75093534D01*
X53626780Y-75068401D01*
X53497954Y-75068401D01*
X53371602Y-75093534D01*
X53252582Y-75142834D01*
X53145467Y-75214406D01*
X53054372Y-75305501D01*
X52982800Y-75412616D01*
X52933500Y-75531636D01*
X52908367Y-75657988D01*
X52908367Y-75706413D01*
X52836094Y-75630787D01*
X52371232Y-75042203D01*
X52384123Y-75044767D01*
X52512949Y-75044767D01*
X52639301Y-75019634D01*
X52758321Y-74970334D01*
X52865436Y-74898762D01*
X52888611Y-74875587D01*
X55266000Y-74875587D01*
X55266000Y-75004413D01*
X55291133Y-75130765D01*
X55340433Y-75249785D01*
X55412005Y-75356900D01*
X55503100Y-75447995D01*
X55610215Y-75519567D01*
X55729235Y-75568867D01*
X55855587Y-75594000D01*
X55984413Y-75594000D01*
X56110765Y-75568867D01*
X56229785Y-75519567D01*
X56336900Y-75447995D01*
X56427995Y-75356900D01*
X56499567Y-75249785D01*
X56548867Y-75130765D01*
X56551886Y-75115587D01*
X61646000Y-75115587D01*
X61646000Y-75244413D01*
X61671133Y-75370765D01*
X61720433Y-75489785D01*
X61792005Y-75596900D01*
X61883100Y-75687995D01*
X61990215Y-75759567D01*
X62109235Y-75808867D01*
X62235587Y-75834000D01*
X62364413Y-75834000D01*
X62490765Y-75808867D01*
X62609785Y-75759567D01*
X62716900Y-75687995D01*
X62807995Y-75596900D01*
X62879567Y-75489785D01*
X62928867Y-75370765D01*
X62954000Y-75244413D01*
X62954000Y-75115587D01*
X62928867Y-74989235D01*
X62879567Y-74870215D01*
X62873604Y-74861291D01*
X62927995Y-74806900D01*
X62999567Y-74699785D01*
X63048867Y-74580765D01*
X63065809Y-74495587D01*
X68496000Y-74495587D01*
X68496000Y-74624413D01*
X68521133Y-74750765D01*
X68570433Y-74869785D01*
X68642005Y-74976900D01*
X68733100Y-75067995D01*
X68840215Y-75139567D01*
X68959235Y-75188867D01*
X69085587Y-75214000D01*
X69214413Y-75214000D01*
X69340765Y-75188867D01*
X69459785Y-75139567D01*
X69566900Y-75067995D01*
X69657995Y-74976900D01*
X69729567Y-74869785D01*
X69778867Y-74750765D01*
X69804000Y-74624413D01*
X69804000Y-74495587D01*
X69793302Y-74441804D01*
X75044604Y-74441804D01*
X75044604Y-74585404D01*
X75072619Y-74726245D01*
X75127573Y-74858915D01*
X75207353Y-74978314D01*
X75308894Y-75079855D01*
X75428293Y-75159635D01*
X75560963Y-75214589D01*
X75701804Y-75242604D01*
X75845404Y-75242604D01*
X75986245Y-75214589D01*
X76118915Y-75159635D01*
X76238314Y-75079855D01*
X76339855Y-74978314D01*
X76419635Y-74858915D01*
X76474589Y-74726245D01*
X76502604Y-74585404D01*
X76502604Y-74441804D01*
X76474589Y-74300963D01*
X76419635Y-74168293D01*
X76339855Y-74048894D01*
X76238314Y-73947353D01*
X76118915Y-73867573D01*
X75986245Y-73812619D01*
X75845404Y-73784604D01*
X75701804Y-73784604D01*
X75560963Y-73812619D01*
X75428293Y-73867573D01*
X75308894Y-73947353D01*
X75207353Y-74048894D01*
X75127573Y-74168293D01*
X75072619Y-74300963D01*
X75044604Y-74441804D01*
X69793302Y-74441804D01*
X69778867Y-74369235D01*
X69729567Y-74250215D01*
X69657995Y-74143100D01*
X69566900Y-74052005D01*
X69459785Y-73980433D01*
X69340765Y-73931133D01*
X69214413Y-73906000D01*
X69085587Y-73906000D01*
X68959235Y-73931133D01*
X68840215Y-73980433D01*
X68733100Y-74052005D01*
X68642005Y-74143100D01*
X68570433Y-74250215D01*
X68521133Y-74369235D01*
X68496000Y-74495587D01*
X63065809Y-74495587D01*
X63074000Y-74454413D01*
X63074000Y-74325587D01*
X63048867Y-74199235D01*
X62999567Y-74080215D01*
X62927995Y-73973100D01*
X62836900Y-73882005D01*
X62729785Y-73810433D01*
X62610765Y-73761133D01*
X62484413Y-73736000D01*
X62355587Y-73736000D01*
X62229235Y-73761133D01*
X62110215Y-73810433D01*
X62003100Y-73882005D01*
X61912005Y-73973100D01*
X61840433Y-74080215D01*
X61791133Y-74199235D01*
X61766000Y-74325587D01*
X61766000Y-74454413D01*
X61791133Y-74580765D01*
X61840433Y-74699785D01*
X61846396Y-74708709D01*
X61792005Y-74763100D01*
X61720433Y-74870215D01*
X61671133Y-74989235D01*
X61646000Y-75115587D01*
X56551886Y-75115587D01*
X56574000Y-75004413D01*
X56574000Y-74875587D01*
X56548867Y-74749235D01*
X56499567Y-74630215D01*
X56427995Y-74523100D01*
X56336900Y-74432005D01*
X56229785Y-74360433D01*
X56110765Y-74311133D01*
X55984413Y-74286000D01*
X55855587Y-74286000D01*
X55729235Y-74311133D01*
X55610215Y-74360433D01*
X55503100Y-74432005D01*
X55412005Y-74523100D01*
X55340433Y-74630215D01*
X55291133Y-74749235D01*
X55266000Y-74875587D01*
X52888611Y-74875587D01*
X52956531Y-74807667D01*
X53028103Y-74700552D01*
X53077403Y-74581532D01*
X53102536Y-74455180D01*
X53102536Y-74326354D01*
X53077403Y-74200002D01*
X53028103Y-74080982D01*
X52956531Y-73973867D01*
X52865436Y-73882772D01*
X52758321Y-73811200D01*
X52639301Y-73761900D01*
X52512949Y-73736767D01*
X52384123Y-73736767D01*
X52257771Y-73761900D01*
X52138751Y-73811200D01*
X52031636Y-73882772D01*
X51940541Y-73973867D01*
X51868969Y-74080982D01*
X51819669Y-74200002D01*
X51798620Y-74305821D01*
X51334076Y-73587786D01*
X51415587Y-73604000D01*
X51544413Y-73604000D01*
X51670765Y-73578867D01*
X51702825Y-73565587D01*
X58126000Y-73565587D01*
X58126000Y-73694413D01*
X58151133Y-73820765D01*
X58200433Y-73939785D01*
X58272005Y-74046900D01*
X58363100Y-74137995D01*
X58470215Y-74209567D01*
X58589235Y-74258867D01*
X58715587Y-74284000D01*
X58844413Y-74284000D01*
X58970765Y-74258867D01*
X59089785Y-74209567D01*
X59196900Y-74137995D01*
X59287995Y-74046900D01*
X59359567Y-73939785D01*
X59408867Y-73820765D01*
X59434000Y-73694413D01*
X59434000Y-73565587D01*
X59408867Y-73439235D01*
X59359567Y-73320215D01*
X59287995Y-73213100D01*
X59196900Y-73122005D01*
X59089785Y-73050433D01*
X58970765Y-73001133D01*
X58844413Y-72976000D01*
X58715587Y-72976000D01*
X58589235Y-73001133D01*
X58470215Y-73050433D01*
X58363100Y-73122005D01*
X58272005Y-73213100D01*
X58200433Y-73320215D01*
X58151133Y-73439235D01*
X58126000Y-73565587D01*
X51702825Y-73565587D01*
X51789785Y-73529567D01*
X51896900Y-73457995D01*
X51987995Y-73366900D01*
X52059567Y-73259785D01*
X52108867Y-73140765D01*
X52134000Y-73014413D01*
X52134000Y-72885587D01*
X52108867Y-72759235D01*
X52059567Y-72640215D01*
X51987995Y-72533100D01*
X51896900Y-72442005D01*
X51789785Y-72370433D01*
X51670765Y-72321133D01*
X51544413Y-72296000D01*
X51415587Y-72296000D01*
X51289235Y-72321133D01*
X51170215Y-72370433D01*
X51063100Y-72442005D01*
X50972005Y-72533100D01*
X50900433Y-72640215D01*
X50851133Y-72759235D01*
X50845506Y-72787525D01*
X50453927Y-72035360D01*
X50476606Y-72044754D01*
X50602958Y-72069887D01*
X50731784Y-72069887D01*
X50858136Y-72044754D01*
X50977156Y-71995454D01*
X51084271Y-71923882D01*
X51175366Y-71832787D01*
X51246938Y-71725672D01*
X51296238Y-71606652D01*
X51321371Y-71480300D01*
X51321371Y-71351474D01*
X51296238Y-71225122D01*
X51246938Y-71106102D01*
X51175366Y-70998987D01*
X51084271Y-70907892D01*
X50977156Y-70836320D01*
X50858136Y-70787020D01*
X50731784Y-70761887D01*
X50602958Y-70761887D01*
X50476606Y-70787020D01*
X50357586Y-70836320D01*
X50250471Y-70907892D01*
X50159376Y-70998987D01*
X50087804Y-71106102D01*
X50056484Y-71181714D01*
X49737537Y-70396304D01*
X49828787Y-70434101D01*
X49955139Y-70459234D01*
X50083965Y-70459234D01*
X50210317Y-70434101D01*
X50329337Y-70384801D01*
X50436452Y-70313229D01*
X50527547Y-70222134D01*
X50599119Y-70115019D01*
X50623736Y-70055587D01*
X51066000Y-70055587D01*
X51066000Y-70184413D01*
X51091133Y-70310765D01*
X51140433Y-70429785D01*
X51212005Y-70536900D01*
X51303100Y-70627995D01*
X51410215Y-70699567D01*
X51529235Y-70748867D01*
X51655587Y-70774000D01*
X51784413Y-70774000D01*
X51910765Y-70748867D01*
X52029785Y-70699567D01*
X52110571Y-70645587D01*
X55096000Y-70645587D01*
X55096000Y-70774413D01*
X55121133Y-70900765D01*
X55170433Y-71019785D01*
X55242005Y-71126900D01*
X55333100Y-71217995D01*
X55440215Y-71289567D01*
X55559235Y-71338867D01*
X55685587Y-71364000D01*
X55791105Y-71364000D01*
X55702005Y-71453100D01*
X55630433Y-71560215D01*
X55581133Y-71679235D01*
X55556000Y-71805587D01*
X55556000Y-71934413D01*
X55581133Y-72060765D01*
X55630433Y-72179785D01*
X55702005Y-72286900D01*
X55793100Y-72377995D01*
X55900215Y-72449567D01*
X56019235Y-72498867D01*
X56145587Y-72524000D01*
X56274413Y-72524000D01*
X56400765Y-72498867D01*
X56519785Y-72449567D01*
X56626900Y-72377995D01*
X56717995Y-72286900D01*
X56789567Y-72179785D01*
X56838867Y-72060765D01*
X56864000Y-71934413D01*
X56864000Y-71805587D01*
X65104790Y-71805587D01*
X65104790Y-71934413D01*
X65129923Y-72060765D01*
X65179223Y-72179785D01*
X65250795Y-72286900D01*
X65341890Y-72377995D01*
X65449005Y-72449567D01*
X65568025Y-72498867D01*
X65694377Y-72524000D01*
X65823203Y-72524000D01*
X65949555Y-72498867D01*
X66068575Y-72449567D01*
X66175690Y-72377995D01*
X66266785Y-72286900D01*
X66338357Y-72179785D01*
X66387657Y-72060765D01*
X66412790Y-71934413D01*
X66412790Y-71805588D01*
X66625999Y-71805588D01*
X66625999Y-71934414D01*
X66651132Y-72060766D01*
X66700432Y-72179786D01*
X66772004Y-72286901D01*
X66863099Y-72377996D01*
X66970214Y-72449568D01*
X67089234Y-72498868D01*
X67215586Y-72524001D01*
X67344412Y-72524001D01*
X67470764Y-72498868D01*
X67589784Y-72449568D01*
X67696899Y-72377996D01*
X67699308Y-72375587D01*
X75366000Y-72375587D01*
X75366000Y-72504413D01*
X75391133Y-72630765D01*
X75440433Y-72749785D01*
X75512005Y-72856900D01*
X75603100Y-72947995D01*
X75710215Y-73019567D01*
X75829235Y-73068867D01*
X75955587Y-73094000D01*
X76084413Y-73094000D01*
X76210765Y-73068867D01*
X76329785Y-73019567D01*
X76436900Y-72947995D01*
X76527995Y-72856900D01*
X76599567Y-72749785D01*
X76648867Y-72630765D01*
X76674000Y-72504413D01*
X76674000Y-72375587D01*
X76648867Y-72249235D01*
X76599567Y-72130215D01*
X76527995Y-72023100D01*
X76436900Y-71932005D01*
X76329785Y-71860433D01*
X76210765Y-71811133D01*
X76084413Y-71786000D01*
X75955587Y-71786000D01*
X75829235Y-71811133D01*
X75710215Y-71860433D01*
X75603100Y-71932005D01*
X75512005Y-72023100D01*
X75440433Y-72130215D01*
X75391133Y-72249235D01*
X75366000Y-72375587D01*
X67699308Y-72375587D01*
X67787994Y-72286901D01*
X67859566Y-72179786D01*
X67908866Y-72060766D01*
X67933999Y-71934414D01*
X67933999Y-71805588D01*
X67908866Y-71679236D01*
X67859566Y-71560216D01*
X67787994Y-71453101D01*
X67696899Y-71362006D01*
X67589784Y-71290434D01*
X67470764Y-71241134D01*
X67344412Y-71216001D01*
X67215586Y-71216001D01*
X67089234Y-71241134D01*
X66970214Y-71290434D01*
X66863099Y-71362006D01*
X66772004Y-71453101D01*
X66700432Y-71560216D01*
X66651132Y-71679236D01*
X66625999Y-71805588D01*
X66412790Y-71805588D01*
X66412790Y-71805587D01*
X66387657Y-71679235D01*
X66338357Y-71560215D01*
X66266785Y-71453100D01*
X66175690Y-71362005D01*
X66068575Y-71290433D01*
X65949555Y-71241133D01*
X65823203Y-71216000D01*
X65694377Y-71216000D01*
X65568025Y-71241133D01*
X65449005Y-71290433D01*
X65341890Y-71362005D01*
X65250795Y-71453100D01*
X65179223Y-71560215D01*
X65129923Y-71679235D01*
X65104790Y-71805587D01*
X56864000Y-71805587D01*
X56838867Y-71679235D01*
X56789567Y-71560215D01*
X56717995Y-71453100D01*
X56626900Y-71362005D01*
X56519785Y-71290433D01*
X56400765Y-71241133D01*
X56274413Y-71216000D01*
X56168895Y-71216000D01*
X56257995Y-71126900D01*
X56329567Y-71019785D01*
X56378867Y-70900765D01*
X56404000Y-70774413D01*
X56404000Y-70645587D01*
X56378867Y-70519235D01*
X56329567Y-70400215D01*
X56259657Y-70295587D01*
X61646000Y-70295587D01*
X61646000Y-70424413D01*
X61671133Y-70550765D01*
X61720433Y-70669785D01*
X61792005Y-70776900D01*
X61883100Y-70867995D01*
X61990215Y-70939567D01*
X62109235Y-70988867D01*
X62235587Y-71014000D01*
X62364413Y-71014000D01*
X62490765Y-70988867D01*
X62609785Y-70939567D01*
X62716900Y-70867995D01*
X62807995Y-70776900D01*
X62879567Y-70669785D01*
X62928867Y-70550765D01*
X62954000Y-70424413D01*
X62954000Y-70305587D01*
X63466000Y-70305587D01*
X63466000Y-70434413D01*
X63491133Y-70560765D01*
X63540433Y-70679785D01*
X63612005Y-70786900D01*
X63703100Y-70877995D01*
X63810215Y-70949567D01*
X63929235Y-70998867D01*
X64055587Y-71024000D01*
X64184413Y-71024000D01*
X64310765Y-70998867D01*
X64429785Y-70949567D01*
X64536900Y-70877995D01*
X64627995Y-70786900D01*
X64699567Y-70679785D01*
X64748867Y-70560765D01*
X64774000Y-70434413D01*
X64774000Y-70305587D01*
X64748867Y-70179235D01*
X64699567Y-70060215D01*
X64627995Y-69953100D01*
X64536900Y-69862005D01*
X64430956Y-69791215D01*
X68672506Y-69791215D01*
X68672506Y-69920041D01*
X68697639Y-70046393D01*
X68746939Y-70165413D01*
X68818511Y-70272528D01*
X68909606Y-70363623D01*
X69016721Y-70435195D01*
X69135741Y-70484495D01*
X69262093Y-70509628D01*
X69390919Y-70509628D01*
X69517271Y-70484495D01*
X69636291Y-70435195D01*
X69743406Y-70363623D01*
X69834501Y-70272528D01*
X69906073Y-70165413D01*
X69955373Y-70046393D01*
X69980506Y-69920041D01*
X69980506Y-69791215D01*
X69955373Y-69664863D01*
X69906073Y-69545843D01*
X69834501Y-69438728D01*
X69743406Y-69347633D01*
X69636291Y-69276061D01*
X69517271Y-69226761D01*
X69390919Y-69201628D01*
X69262093Y-69201628D01*
X69135741Y-69226761D01*
X69016721Y-69276061D01*
X68909606Y-69347633D01*
X68818511Y-69438728D01*
X68746939Y-69545843D01*
X68697639Y-69664863D01*
X68672506Y-69791215D01*
X64430956Y-69791215D01*
X64429785Y-69790433D01*
X64310765Y-69741133D01*
X64184413Y-69716000D01*
X64055587Y-69716000D01*
X63929235Y-69741133D01*
X63810215Y-69790433D01*
X63703100Y-69862005D01*
X63612005Y-69953100D01*
X63540433Y-70060215D01*
X63491133Y-70179235D01*
X63466000Y-70305587D01*
X62954000Y-70305587D01*
X62954000Y-70295587D01*
X62928867Y-70169235D01*
X62879567Y-70050215D01*
X62807995Y-69943100D01*
X62716900Y-69852005D01*
X62609785Y-69780433D01*
X62490765Y-69731133D01*
X62364413Y-69706000D01*
X62235587Y-69706000D01*
X62109235Y-69731133D01*
X61990215Y-69780433D01*
X61883100Y-69852005D01*
X61792005Y-69943100D01*
X61720433Y-70050215D01*
X61671133Y-70169235D01*
X61646000Y-70295587D01*
X56259657Y-70295587D01*
X56257995Y-70293100D01*
X56166900Y-70202005D01*
X56059785Y-70130433D01*
X55940765Y-70081133D01*
X55814413Y-70056000D01*
X55685587Y-70056000D01*
X55559235Y-70081133D01*
X55440215Y-70130433D01*
X55333100Y-70202005D01*
X55242005Y-70293100D01*
X55170433Y-70400215D01*
X55121133Y-70519235D01*
X55096000Y-70645587D01*
X52110571Y-70645587D01*
X52136900Y-70627995D01*
X52227995Y-70536900D01*
X52299567Y-70429785D01*
X52348867Y-70310765D01*
X52374000Y-70184413D01*
X52374000Y-70055587D01*
X52348867Y-69929235D01*
X52299567Y-69810215D01*
X52227995Y-69703100D01*
X52136900Y-69612005D01*
X52029785Y-69540433D01*
X51910765Y-69491133D01*
X51784413Y-69466000D01*
X51655587Y-69466000D01*
X51529235Y-69491133D01*
X51410215Y-69540433D01*
X51303100Y-69612005D01*
X51212005Y-69703100D01*
X51140433Y-69810215D01*
X51091133Y-69929235D01*
X51066000Y-70055587D01*
X50623736Y-70055587D01*
X50648419Y-69995999D01*
X50673552Y-69869647D01*
X50673552Y-69740821D01*
X50648419Y-69614469D01*
X50599119Y-69495449D01*
X50527547Y-69388334D01*
X50436452Y-69297239D01*
X50329337Y-69225667D01*
X50210317Y-69176367D01*
X50083965Y-69151234D01*
X49955139Y-69151234D01*
X49828787Y-69176367D01*
X49709767Y-69225667D01*
X49602652Y-69297239D01*
X49511557Y-69388334D01*
X49439985Y-69495449D01*
X49437678Y-69501019D01*
X49298028Y-69035587D01*
X54436000Y-69035587D01*
X54436000Y-69164413D01*
X54461133Y-69290765D01*
X54510433Y-69409785D01*
X54582005Y-69516900D01*
X54673100Y-69607995D01*
X54780215Y-69679567D01*
X54899235Y-69728867D01*
X55025587Y-69754000D01*
X55154413Y-69754000D01*
X55280765Y-69728867D01*
X55399785Y-69679567D01*
X55506900Y-69607995D01*
X55597995Y-69516900D01*
X55669567Y-69409785D01*
X55718867Y-69290765D01*
X55744000Y-69164413D01*
X55744000Y-69095587D01*
X56166000Y-69095587D01*
X56166000Y-69224413D01*
X56191133Y-69350765D01*
X56240433Y-69469785D01*
X56312005Y-69576900D01*
X56403100Y-69667995D01*
X56510215Y-69739567D01*
X56629235Y-69788867D01*
X56755587Y-69814000D01*
X56884413Y-69814000D01*
X57010765Y-69788867D01*
X57129785Y-69739567D01*
X57236900Y-69667995D01*
X57327995Y-69576900D01*
X57399567Y-69469785D01*
X57448867Y-69350765D01*
X57474000Y-69224413D01*
X57474000Y-69095587D01*
X57448867Y-68969235D01*
X57399567Y-68850215D01*
X57327995Y-68743100D01*
X57236900Y-68652005D01*
X57129785Y-68580433D01*
X57010765Y-68531133D01*
X56884413Y-68506000D01*
X56755587Y-68506000D01*
X56629235Y-68531133D01*
X56510215Y-68580433D01*
X56403100Y-68652005D01*
X56312005Y-68743100D01*
X56240433Y-68850215D01*
X56191133Y-68969235D01*
X56166000Y-69095587D01*
X55744000Y-69095587D01*
X55744000Y-69035587D01*
X55725782Y-68944000D01*
X55824413Y-68944000D01*
X55950765Y-68918867D01*
X56069785Y-68869567D01*
X56176900Y-68797995D01*
X56267995Y-68706900D01*
X56339567Y-68599785D01*
X56388867Y-68480765D01*
X56414000Y-68354413D01*
X56414000Y-68225587D01*
X56388867Y-68099235D01*
X56339567Y-67980215D01*
X56267995Y-67873100D01*
X56176900Y-67782005D01*
X56069785Y-67710433D01*
X55950765Y-67661133D01*
X55824413Y-67636000D01*
X55695587Y-67636000D01*
X55569235Y-67661133D01*
X55450215Y-67710433D01*
X55343100Y-67782005D01*
X55252005Y-67873100D01*
X55180433Y-67980215D01*
X55131133Y-68099235D01*
X55106000Y-68225587D01*
X55106000Y-68354413D01*
X55124218Y-68446000D01*
X55025587Y-68446000D01*
X54899235Y-68471133D01*
X54780215Y-68520433D01*
X54673100Y-68592005D01*
X54582005Y-68683100D01*
X54510433Y-68790215D01*
X54461133Y-68909235D01*
X54436000Y-69035587D01*
X49298028Y-69035587D01*
X49193905Y-68688563D01*
X49233856Y-68715257D01*
X49352876Y-68764557D01*
X49479228Y-68789690D01*
X49608054Y-68789690D01*
X49734406Y-68764557D01*
X49853426Y-68715257D01*
X49960541Y-68643685D01*
X50051636Y-68552590D01*
X50123208Y-68445475D01*
X50172508Y-68326455D01*
X50197641Y-68200103D01*
X50197641Y-68071277D01*
X50172508Y-67944925D01*
X50123208Y-67825905D01*
X50051636Y-67718790D01*
X49960541Y-67627695D01*
X49853426Y-67556123D01*
X49734406Y-67506823D01*
X49608054Y-67481690D01*
X49479228Y-67481690D01*
X49352876Y-67506823D01*
X49233856Y-67556123D01*
X49126741Y-67627695D01*
X49035646Y-67718790D01*
X48998471Y-67774426D01*
X48840561Y-66984276D01*
X48839663Y-66975587D01*
X52046000Y-66975587D01*
X52046000Y-67104413D01*
X52071133Y-67230765D01*
X52120433Y-67349785D01*
X52192005Y-67456900D01*
X52283100Y-67547995D01*
X52390215Y-67619567D01*
X52509235Y-67668867D01*
X52635587Y-67694000D01*
X52764413Y-67694000D01*
X52890765Y-67668867D01*
X53009785Y-67619567D01*
X53116900Y-67547995D01*
X53159308Y-67505587D01*
X59846000Y-67505587D01*
X59846000Y-67634413D01*
X59871133Y-67760765D01*
X59920433Y-67879785D01*
X59992005Y-67986900D01*
X60083100Y-68077995D01*
X60190215Y-68149567D01*
X60309235Y-68198867D01*
X60435587Y-68224000D01*
X60564413Y-68224000D01*
X60690765Y-68198867D01*
X60809785Y-68149567D01*
X60916900Y-68077995D01*
X61007995Y-67986900D01*
X61079567Y-67879785D01*
X61128867Y-67760765D01*
X61154000Y-67634413D01*
X61154000Y-67505587D01*
X61128867Y-67379235D01*
X61079567Y-67260215D01*
X61007995Y-67153100D01*
X60916900Y-67062005D01*
X60809785Y-66990433D01*
X60690765Y-66941133D01*
X60564413Y-66916000D01*
X60435587Y-66916000D01*
X60309235Y-66941133D01*
X60190215Y-66990433D01*
X60083100Y-67062005D01*
X59992005Y-67153100D01*
X59920433Y-67260215D01*
X59871133Y-67379235D01*
X59846000Y-67505587D01*
X53159308Y-67505587D01*
X53207995Y-67456900D01*
X53279567Y-67349785D01*
X53328867Y-67230765D01*
X53354000Y-67104413D01*
X53354000Y-66975587D01*
X53328867Y-66849235D01*
X53279567Y-66730215D01*
X53207995Y-66623100D01*
X53116900Y-66532005D01*
X53009785Y-66460433D01*
X52890765Y-66411133D01*
X52764413Y-66386000D01*
X52635587Y-66386000D01*
X52509235Y-66411133D01*
X52390215Y-66460433D01*
X52283100Y-66532005D01*
X52192005Y-66623100D01*
X52120433Y-66730215D01*
X52071133Y-66849235D01*
X52046000Y-66975587D01*
X48839663Y-66975587D01*
X48833480Y-66915772D01*
X48889235Y-66938867D01*
X49015587Y-66964000D01*
X49144413Y-66964000D01*
X49270765Y-66938867D01*
X49389785Y-66889567D01*
X49496900Y-66817995D01*
X49587995Y-66726900D01*
X49659567Y-66619785D01*
X49708867Y-66500765D01*
X49734000Y-66374413D01*
X49734000Y-66306797D01*
X61027210Y-66306797D01*
X61027210Y-66435623D01*
X61052343Y-66561975D01*
X61101643Y-66680995D01*
X61173215Y-66788110D01*
X61264310Y-66879205D01*
X61371425Y-66950777D01*
X61490445Y-67000077D01*
X61616797Y-67025210D01*
X61745623Y-67025210D01*
X61871975Y-67000077D01*
X61990995Y-66950777D01*
X62017226Y-66933250D01*
X62001819Y-66970445D01*
X61976686Y-67096797D01*
X61976686Y-67225623D01*
X62001819Y-67351975D01*
X62051119Y-67470995D01*
X62122691Y-67578110D01*
X62213786Y-67669205D01*
X62320901Y-67740777D01*
X62439921Y-67790077D01*
X62566273Y-67815210D01*
X62695099Y-67815210D01*
X62698037Y-67814626D01*
X62659210Y-67908362D01*
X62634077Y-68034714D01*
X62634077Y-68163540D01*
X62659210Y-68289892D01*
X62708510Y-68408912D01*
X62780082Y-68516027D01*
X62871177Y-68607122D01*
X62978292Y-68678694D01*
X63097312Y-68727994D01*
X63223664Y-68753127D01*
X63352490Y-68753127D01*
X63478842Y-68727994D01*
X63597862Y-68678694D01*
X63670051Y-68630459D01*
X63728246Y-68669343D01*
X63847266Y-68718643D01*
X63973618Y-68743776D01*
X64102444Y-68743776D01*
X64228796Y-68718643D01*
X64347816Y-68669343D01*
X64454931Y-68597771D01*
X64546026Y-68506676D01*
X64617598Y-68399561D01*
X64666898Y-68280541D01*
X64692031Y-68154189D01*
X64692031Y-68025363D01*
X64690087Y-68015587D01*
X65466000Y-68015587D01*
X65466000Y-68144413D01*
X65491133Y-68270765D01*
X65540433Y-68389785D01*
X65612005Y-68496900D01*
X65703100Y-68587995D01*
X65810215Y-68659567D01*
X65929235Y-68708867D01*
X66055587Y-68734000D01*
X66184413Y-68734000D01*
X66310765Y-68708867D01*
X66429785Y-68659567D01*
X66536900Y-68587995D01*
X66627995Y-68496900D01*
X66699567Y-68389785D01*
X66729295Y-68318015D01*
X66782005Y-68396900D01*
X66873100Y-68487995D01*
X66980215Y-68559567D01*
X67099235Y-68608867D01*
X67225587Y-68634000D01*
X67354413Y-68634000D01*
X67480765Y-68608867D01*
X67599785Y-68559567D01*
X67706900Y-68487995D01*
X67735630Y-68459265D01*
X67805493Y-68505946D01*
X67924513Y-68555246D01*
X68050865Y-68580379D01*
X68179691Y-68580379D01*
X68306043Y-68555246D01*
X68425063Y-68505946D01*
X68532178Y-68434374D01*
X68623273Y-68343279D01*
X68694845Y-68236164D01*
X68744145Y-68117144D01*
X68769278Y-67990792D01*
X68769278Y-67861966D01*
X68744690Y-67738351D01*
X78651000Y-67738351D01*
X78651000Y-67901649D01*
X78682858Y-68061810D01*
X78745350Y-68212679D01*
X78836074Y-68348457D01*
X78951543Y-68463926D01*
X79087321Y-68554650D01*
X79238190Y-68617142D01*
X79398351Y-68649000D01*
X79561649Y-68649000D01*
X79721810Y-68617142D01*
X79872679Y-68554650D01*
X80008457Y-68463926D01*
X80123926Y-68348457D01*
X80214650Y-68212679D01*
X80277142Y-68061810D01*
X80309000Y-67901649D01*
X80309000Y-67738351D01*
X80277142Y-67578190D01*
X80214650Y-67427321D01*
X80123926Y-67291543D01*
X80008457Y-67176074D01*
X79872679Y-67085350D01*
X79721810Y-67022858D01*
X79561649Y-66991000D01*
X79398351Y-66991000D01*
X79238190Y-67022858D01*
X79087321Y-67085350D01*
X78951543Y-67176074D01*
X78836074Y-67291543D01*
X78745350Y-67427321D01*
X78682858Y-67578190D01*
X78651000Y-67738351D01*
X68744690Y-67738351D01*
X68744145Y-67735614D01*
X68694845Y-67616594D01*
X68673029Y-67583945D01*
X68696900Y-67567995D01*
X68711319Y-67553576D01*
X68725747Y-67568004D01*
X68832862Y-67639576D01*
X68951882Y-67688876D01*
X69078234Y-67714009D01*
X69207060Y-67714009D01*
X69333412Y-67688876D01*
X69452432Y-67639576D01*
X69559547Y-67568004D01*
X69650642Y-67476909D01*
X69722214Y-67369794D01*
X69771514Y-67250774D01*
X69796647Y-67124422D01*
X69796647Y-66995596D01*
X69771514Y-66869244D01*
X69722214Y-66750224D01*
X69650642Y-66643109D01*
X69559547Y-66552014D01*
X69452432Y-66480442D01*
X69333412Y-66431142D01*
X69207060Y-66406009D01*
X69078234Y-66406009D01*
X68951882Y-66431142D01*
X68832862Y-66480442D01*
X68725747Y-66552014D01*
X68711328Y-66566433D01*
X68696900Y-66552005D01*
X68589785Y-66480433D01*
X68470765Y-66431133D01*
X68344413Y-66406000D01*
X68215587Y-66406000D01*
X68089235Y-66431133D01*
X67970215Y-66480433D01*
X67863100Y-66552005D01*
X67772005Y-66643100D01*
X67700433Y-66750215D01*
X67651133Y-66869235D01*
X67626000Y-66995587D01*
X67626000Y-67124413D01*
X67651133Y-67250765D01*
X67700433Y-67369785D01*
X67722249Y-67402434D01*
X67698378Y-67418384D01*
X67669648Y-67447114D01*
X67599785Y-67400433D01*
X67480765Y-67351133D01*
X67354413Y-67326000D01*
X67225587Y-67326000D01*
X67099235Y-67351133D01*
X66980215Y-67400433D01*
X66873100Y-67472005D01*
X66782005Y-67563100D01*
X66710433Y-67670215D01*
X66680705Y-67741985D01*
X66627995Y-67663100D01*
X66536900Y-67572005D01*
X66429785Y-67500433D01*
X66310765Y-67451133D01*
X66184413Y-67426000D01*
X66055587Y-67426000D01*
X65929235Y-67451133D01*
X65810215Y-67500433D01*
X65703100Y-67572005D01*
X65612005Y-67663100D01*
X65540433Y-67770215D01*
X65491133Y-67889235D01*
X65466000Y-68015587D01*
X64690087Y-68015587D01*
X64666898Y-67899011D01*
X64617598Y-67779991D01*
X64546026Y-67672876D01*
X64454931Y-67581781D01*
X64347816Y-67510209D01*
X64228796Y-67460909D01*
X64102444Y-67435776D01*
X63973618Y-67435776D01*
X63847266Y-67460909D01*
X63728246Y-67510209D01*
X63656057Y-67558444D01*
X63597862Y-67519560D01*
X63478842Y-67470260D01*
X63352490Y-67445127D01*
X63223664Y-67445127D01*
X63220726Y-67445711D01*
X63259553Y-67351975D01*
X63284686Y-67225623D01*
X63284686Y-67096797D01*
X63259553Y-66970445D01*
X63210253Y-66851425D01*
X63138681Y-66744310D01*
X63047586Y-66653215D01*
X62940471Y-66581643D01*
X62821451Y-66532343D01*
X62695099Y-66507210D01*
X62566273Y-66507210D01*
X62439921Y-66532343D01*
X62320901Y-66581643D01*
X62294670Y-66599170D01*
X62310077Y-66561975D01*
X62335210Y-66435623D01*
X62335210Y-66306797D01*
X62310077Y-66180445D01*
X62260777Y-66061425D01*
X62189205Y-65954310D01*
X62098110Y-65863215D01*
X61990995Y-65791643D01*
X61871975Y-65742343D01*
X61745623Y-65717210D01*
X61616797Y-65717210D01*
X61490445Y-65742343D01*
X61371425Y-65791643D01*
X61264310Y-65863215D01*
X61173215Y-65954310D01*
X61101643Y-66061425D01*
X61052343Y-66180445D01*
X61027210Y-66306797D01*
X49734000Y-66306797D01*
X49734000Y-66245587D01*
X49708867Y-66119235D01*
X49659567Y-66000215D01*
X49587995Y-65893100D01*
X49496900Y-65802005D01*
X49389785Y-65730433D01*
X49270765Y-65681133D01*
X49144413Y-65656000D01*
X49015587Y-65656000D01*
X48889235Y-65681133D01*
X48770215Y-65730433D01*
X48714783Y-65767471D01*
X48675201Y-65384541D01*
X48673624Y-65204377D01*
X54016000Y-65204377D01*
X54016000Y-65333203D01*
X54041133Y-65459555D01*
X54090433Y-65578575D01*
X54162005Y-65685690D01*
X54253100Y-65776785D01*
X54360215Y-65848357D01*
X54479235Y-65897657D01*
X54605587Y-65922790D01*
X54734413Y-65922790D01*
X54860765Y-65897657D01*
X54979785Y-65848357D01*
X55086900Y-65776785D01*
X55177995Y-65685690D01*
X55249567Y-65578575D01*
X55298867Y-65459555D01*
X55324000Y-65333203D01*
X55324000Y-65204377D01*
X55298867Y-65078025D01*
X55249567Y-64959005D01*
X55177995Y-64851890D01*
X55086900Y-64760795D01*
X54979785Y-64689223D01*
X54860765Y-64639923D01*
X54734413Y-64614790D01*
X54605587Y-64614790D01*
X54479235Y-64639923D01*
X54360215Y-64689223D01*
X54253100Y-64760795D01*
X54162005Y-64851890D01*
X54090433Y-64959005D01*
X54041133Y-65078025D01*
X54016000Y-65204377D01*
X48673624Y-65204377D01*
X48672034Y-65022747D01*
X48759235Y-65058867D01*
X48885587Y-65084000D01*
X49014413Y-65084000D01*
X49140765Y-65058867D01*
X49259785Y-65009567D01*
X49366900Y-64937995D01*
X49457995Y-64846900D01*
X49529567Y-64739785D01*
X49578867Y-64620765D01*
X49604000Y-64494413D01*
X49604000Y-64365587D01*
X49578867Y-64239235D01*
X49529567Y-64120215D01*
X49457995Y-64013100D01*
X49366900Y-63922005D01*
X49259785Y-63850433D01*
X49140765Y-63801133D01*
X49014413Y-63776000D01*
X48885587Y-63776000D01*
X48759235Y-63801133D01*
X48661694Y-63841536D01*
X48661123Y-63776326D01*
X48683247Y-63518184D01*
X48730215Y-63549567D01*
X48849235Y-63598867D01*
X48975587Y-63624000D01*
X49104413Y-63624000D01*
X49230765Y-63598867D01*
X49349785Y-63549567D01*
X49456900Y-63477995D01*
X49547995Y-63386900D01*
X49619567Y-63279785D01*
X49668867Y-63160765D01*
X49694000Y-63034413D01*
X49694000Y-62965587D01*
X54766000Y-62965587D01*
X54766000Y-63094413D01*
X54791133Y-63220765D01*
X54840433Y-63339785D01*
X54912005Y-63446900D01*
X55003100Y-63537995D01*
X55110215Y-63609567D01*
X55229235Y-63658867D01*
X55355587Y-63684000D01*
X55484413Y-63684000D01*
X55610765Y-63658867D01*
X55729785Y-63609567D01*
X55836900Y-63537995D01*
X55927995Y-63446900D01*
X55999567Y-63339785D01*
X56048867Y-63220765D01*
X56065995Y-63134659D01*
X56081133Y-63210765D01*
X56130433Y-63329785D01*
X56202005Y-63436900D01*
X56293100Y-63527995D01*
X56400215Y-63599567D01*
X56519235Y-63648867D01*
X56645587Y-63674000D01*
X56774413Y-63674000D01*
X56900765Y-63648867D01*
X57019785Y-63599567D01*
X57126900Y-63527995D01*
X57194318Y-63460577D01*
X59236000Y-63460577D01*
X59236000Y-63589403D01*
X59261133Y-63715755D01*
X59310433Y-63834775D01*
X59382005Y-63941890D01*
X59473100Y-64032985D01*
X59580215Y-64104557D01*
X59699235Y-64153857D01*
X59825587Y-64178990D01*
X59954413Y-64178990D01*
X60080765Y-64153857D01*
X60199785Y-64104557D01*
X60306900Y-64032985D01*
X60397995Y-63941890D01*
X60469567Y-63834775D01*
X60518867Y-63715755D01*
X60544000Y-63589403D01*
X60544000Y-63503049D01*
X64156000Y-63503049D01*
X64156000Y-63626951D01*
X64180173Y-63748472D01*
X64227588Y-63862943D01*
X64296424Y-63965964D01*
X64384036Y-64053576D01*
X64401133Y-64065000D01*
X64384036Y-64076424D01*
X64296424Y-64164036D01*
X64227588Y-64267057D01*
X64180173Y-64381528D01*
X64156000Y-64503049D01*
X64156000Y-64626951D01*
X64180173Y-64748472D01*
X64227588Y-64862943D01*
X64296424Y-64965964D01*
X64384036Y-65053576D01*
X64401133Y-65065000D01*
X64384036Y-65076424D01*
X64296424Y-65164036D01*
X64227588Y-65267057D01*
X64180173Y-65381528D01*
X64156000Y-65503049D01*
X64156000Y-65626951D01*
X64180173Y-65748472D01*
X64227588Y-65862943D01*
X64296424Y-65965964D01*
X64384036Y-66053576D01*
X64487057Y-66122412D01*
X64601528Y-66169827D01*
X64723049Y-66194000D01*
X64846951Y-66194000D01*
X64968472Y-66169827D01*
X65082943Y-66122412D01*
X65185964Y-66053576D01*
X65273576Y-65965964D01*
X65285000Y-65948867D01*
X65296424Y-65965964D01*
X65384036Y-66053576D01*
X65487057Y-66122412D01*
X65601528Y-66169827D01*
X65723049Y-66194000D01*
X65846951Y-66194000D01*
X65968472Y-66169827D01*
X66082943Y-66122412D01*
X66185964Y-66053576D01*
X66273576Y-65965964D01*
X66285000Y-65948867D01*
X66296424Y-65965964D01*
X66384036Y-66053576D01*
X66487057Y-66122412D01*
X66601528Y-66169827D01*
X66723049Y-66194000D01*
X66846951Y-66194000D01*
X66968472Y-66169827D01*
X67082943Y-66122412D01*
X67185964Y-66053576D01*
X67273576Y-65965964D01*
X67342412Y-65862943D01*
X67389827Y-65748472D01*
X67414000Y-65626951D01*
X67414000Y-65503049D01*
X67389827Y-65381528D01*
X67342412Y-65267057D01*
X67301340Y-65205587D01*
X71296000Y-65205587D01*
X71296000Y-65334413D01*
X71321133Y-65460765D01*
X71370433Y-65579785D01*
X71442005Y-65686900D01*
X71533100Y-65777995D01*
X71640215Y-65849567D01*
X71759235Y-65898867D01*
X71885587Y-65924000D01*
X72014413Y-65924000D01*
X72140765Y-65898867D01*
X72259785Y-65849567D01*
X72366900Y-65777995D01*
X72457995Y-65686900D01*
X72529567Y-65579785D01*
X72578867Y-65460765D01*
X72604000Y-65334413D01*
X72604000Y-65205587D01*
X72578867Y-65079235D01*
X72529567Y-64960215D01*
X72457995Y-64853100D01*
X72366900Y-64762005D01*
X72259785Y-64690433D01*
X72140765Y-64641133D01*
X72014413Y-64616000D01*
X71885587Y-64616000D01*
X71759235Y-64641133D01*
X71640215Y-64690433D01*
X71533100Y-64762005D01*
X71442005Y-64853100D01*
X71370433Y-64960215D01*
X71321133Y-65079235D01*
X71296000Y-65205587D01*
X67301340Y-65205587D01*
X67273576Y-65164036D01*
X67185964Y-65076424D01*
X67168867Y-65065000D01*
X67185964Y-65053576D01*
X67273576Y-64965964D01*
X67342412Y-64862943D01*
X67389827Y-64748472D01*
X67414000Y-64626951D01*
X67414000Y-64503049D01*
X67389827Y-64381528D01*
X67342412Y-64267057D01*
X67273576Y-64164036D01*
X67185964Y-64076424D01*
X67168867Y-64065000D01*
X67185964Y-64053576D01*
X67273576Y-63965964D01*
X67342412Y-63862943D01*
X67389827Y-63748472D01*
X67394379Y-63725587D01*
X73206000Y-63725587D01*
X73206000Y-63854413D01*
X73231133Y-63980765D01*
X73280433Y-64099785D01*
X73352005Y-64206900D01*
X73443100Y-64297995D01*
X73550215Y-64369567D01*
X73636000Y-64405101D01*
X73636000Y-64484413D01*
X73661133Y-64610765D01*
X73710433Y-64729785D01*
X73782005Y-64836900D01*
X73873100Y-64927995D01*
X73980215Y-64999567D01*
X74099235Y-65048867D01*
X74225587Y-65074000D01*
X74354413Y-65074000D01*
X74480765Y-65048867D01*
X74599785Y-64999567D01*
X74706900Y-64927995D01*
X74797995Y-64836900D01*
X74869567Y-64729785D01*
X74918867Y-64610765D01*
X74944000Y-64484413D01*
X74944000Y-64355587D01*
X74934055Y-64305587D01*
X79536000Y-64305587D01*
X79536000Y-64434413D01*
X79561133Y-64560765D01*
X79610433Y-64679785D01*
X79682005Y-64786900D01*
X79773100Y-64877995D01*
X79880215Y-64949567D01*
X79999235Y-64998867D01*
X80125587Y-65024000D01*
X80254413Y-65024000D01*
X80380765Y-64998867D01*
X80499785Y-64949567D01*
X80606900Y-64877995D01*
X80697995Y-64786900D01*
X80769567Y-64679785D01*
X80818867Y-64560765D01*
X80844000Y-64434413D01*
X80844000Y-64305587D01*
X80818867Y-64179235D01*
X80769567Y-64060215D01*
X80697995Y-63953100D01*
X80606900Y-63862005D01*
X80499785Y-63790433D01*
X80380765Y-63741133D01*
X80254413Y-63716000D01*
X80125587Y-63716000D01*
X79999235Y-63741133D01*
X79880215Y-63790433D01*
X79773100Y-63862005D01*
X79682005Y-63953100D01*
X79610433Y-64060215D01*
X79561133Y-64179235D01*
X79536000Y-64305587D01*
X74934055Y-64305587D01*
X74918867Y-64229235D01*
X74869567Y-64110215D01*
X74797995Y-64003100D01*
X74706900Y-63912005D01*
X74599785Y-63840433D01*
X74514000Y-63804899D01*
X74514000Y-63725587D01*
X74488867Y-63599235D01*
X74439567Y-63480215D01*
X74367995Y-63373100D01*
X74276900Y-63282005D01*
X74169785Y-63210433D01*
X74050765Y-63161133D01*
X73924413Y-63136000D01*
X73795587Y-63136000D01*
X73669235Y-63161133D01*
X73550215Y-63210433D01*
X73443100Y-63282005D01*
X73352005Y-63373100D01*
X73280433Y-63480215D01*
X73231133Y-63599235D01*
X73206000Y-63725587D01*
X67394379Y-63725587D01*
X67414000Y-63626951D01*
X67414000Y-63503049D01*
X67389827Y-63381528D01*
X67342412Y-63267057D01*
X67273576Y-63164036D01*
X67185964Y-63076424D01*
X67082943Y-63007588D01*
X66968472Y-62960173D01*
X66846951Y-62936000D01*
X66723049Y-62936000D01*
X66601528Y-62960173D01*
X66487057Y-63007588D01*
X66384036Y-63076424D01*
X66296424Y-63164036D01*
X66285000Y-63181133D01*
X66273576Y-63164036D01*
X66185964Y-63076424D01*
X66082943Y-63007588D01*
X65968472Y-62960173D01*
X65846951Y-62936000D01*
X65723049Y-62936000D01*
X65601528Y-62960173D01*
X65487057Y-63007588D01*
X65384036Y-63076424D01*
X65296424Y-63164036D01*
X65285000Y-63181133D01*
X65273576Y-63164036D01*
X65185964Y-63076424D01*
X65082943Y-63007588D01*
X64968472Y-62960173D01*
X64846951Y-62936000D01*
X64723049Y-62936000D01*
X64601528Y-62960173D01*
X64487057Y-63007588D01*
X64384036Y-63076424D01*
X64296424Y-63164036D01*
X64227588Y-63267057D01*
X64180173Y-63381528D01*
X64156000Y-63503049D01*
X60544000Y-63503049D01*
X60544000Y-63460577D01*
X60518867Y-63334225D01*
X60469567Y-63215205D01*
X60397995Y-63108090D01*
X60306900Y-63016995D01*
X60199785Y-62945423D01*
X60080765Y-62896123D01*
X59954413Y-62870990D01*
X59825587Y-62870990D01*
X59699235Y-62896123D01*
X59580215Y-62945423D01*
X59473100Y-63016995D01*
X59382005Y-63108090D01*
X59310433Y-63215205D01*
X59261133Y-63334225D01*
X59236000Y-63460577D01*
X57194318Y-63460577D01*
X57217995Y-63436900D01*
X57289567Y-63329785D01*
X57338867Y-63210765D01*
X57364000Y-63084413D01*
X57364000Y-62955587D01*
X57338867Y-62829235D01*
X57289567Y-62710215D01*
X57217995Y-62603100D01*
X57180482Y-62565587D01*
X61386000Y-62565587D01*
X61386000Y-62694413D01*
X61411133Y-62820765D01*
X61460433Y-62939785D01*
X61532005Y-63046900D01*
X61623100Y-63137995D01*
X61730215Y-63209567D01*
X61849235Y-63258867D01*
X61975587Y-63284000D01*
X62104413Y-63284000D01*
X62230765Y-63258867D01*
X62349785Y-63209567D01*
X62456900Y-63137995D01*
X62547995Y-63046900D01*
X62619567Y-62939785D01*
X62668867Y-62820765D01*
X62694000Y-62694413D01*
X62694000Y-62565587D01*
X62668867Y-62439235D01*
X62619567Y-62320215D01*
X62547995Y-62213100D01*
X62456900Y-62122005D01*
X62349785Y-62050433D01*
X62265660Y-62015587D01*
X67626000Y-62015587D01*
X67626000Y-62144413D01*
X67651133Y-62270765D01*
X67700433Y-62389785D01*
X67772005Y-62496900D01*
X67863100Y-62587995D01*
X67970215Y-62659567D01*
X68089235Y-62708867D01*
X68215587Y-62734000D01*
X68344413Y-62734000D01*
X68470765Y-62708867D01*
X68589785Y-62659567D01*
X68696900Y-62587995D01*
X68772306Y-62512589D01*
X68842005Y-62616900D01*
X68933100Y-62707995D01*
X69040215Y-62779567D01*
X69159235Y-62828867D01*
X69285587Y-62854000D01*
X69414413Y-62854000D01*
X69540765Y-62828867D01*
X69659785Y-62779567D01*
X69766900Y-62707995D01*
X69857995Y-62616900D01*
X69929567Y-62509785D01*
X69978867Y-62390765D01*
X70004000Y-62264413D01*
X70004000Y-62135587D01*
X69978867Y-62009235D01*
X69929567Y-61890215D01*
X69857995Y-61783100D01*
X69820482Y-61745587D01*
X73216000Y-61745587D01*
X73216000Y-61874413D01*
X73241133Y-62000765D01*
X73290433Y-62119785D01*
X73362005Y-62226900D01*
X73453100Y-62317995D01*
X73560215Y-62389567D01*
X73679235Y-62438867D01*
X73805587Y-62464000D01*
X73934413Y-62464000D01*
X74060765Y-62438867D01*
X74179785Y-62389567D01*
X74286900Y-62317995D01*
X74377995Y-62226900D01*
X74449567Y-62119785D01*
X74498867Y-62000765D01*
X74524000Y-61874413D01*
X74524000Y-61745587D01*
X74498867Y-61619235D01*
X74449567Y-61500215D01*
X74377995Y-61393100D01*
X74286900Y-61302005D01*
X74179785Y-61230433D01*
X74060765Y-61181133D01*
X73934413Y-61156000D01*
X73805587Y-61156000D01*
X73679235Y-61181133D01*
X73560215Y-61230433D01*
X73453100Y-61302005D01*
X73362005Y-61393100D01*
X73290433Y-61500215D01*
X73241133Y-61619235D01*
X73216000Y-61745587D01*
X69820482Y-61745587D01*
X69766900Y-61692005D01*
X69659785Y-61620433D01*
X69540765Y-61571133D01*
X69414413Y-61546000D01*
X69285587Y-61546000D01*
X69159235Y-61571133D01*
X69040215Y-61620433D01*
X68933100Y-61692005D01*
X68857694Y-61767411D01*
X68787995Y-61663100D01*
X68696900Y-61572005D01*
X68589785Y-61500433D01*
X68470765Y-61451133D01*
X68344413Y-61426000D01*
X68215587Y-61426000D01*
X68089235Y-61451133D01*
X67970215Y-61500433D01*
X67863100Y-61572005D01*
X67772005Y-61663100D01*
X67700433Y-61770215D01*
X67651133Y-61889235D01*
X67626000Y-62015587D01*
X62265660Y-62015587D01*
X62230765Y-62001133D01*
X62104413Y-61976000D01*
X61975587Y-61976000D01*
X61849235Y-62001133D01*
X61730215Y-62050433D01*
X61623100Y-62122005D01*
X61532005Y-62213100D01*
X61460433Y-62320215D01*
X61411133Y-62439235D01*
X61386000Y-62565587D01*
X57180482Y-62565587D01*
X57126900Y-62512005D01*
X57019785Y-62440433D01*
X56900765Y-62391133D01*
X56774413Y-62366000D01*
X56645587Y-62366000D01*
X56519235Y-62391133D01*
X56400215Y-62440433D01*
X56293100Y-62512005D01*
X56202005Y-62603100D01*
X56130433Y-62710215D01*
X56081133Y-62829235D01*
X56064005Y-62915341D01*
X56048867Y-62839235D01*
X55999567Y-62720215D01*
X55927995Y-62613100D01*
X55836900Y-62522005D01*
X55729785Y-62450433D01*
X55610765Y-62401133D01*
X55484413Y-62376000D01*
X55355587Y-62376000D01*
X55229235Y-62401133D01*
X55110215Y-62450433D01*
X55003100Y-62522005D01*
X54912005Y-62613100D01*
X54840433Y-62720215D01*
X54791133Y-62839235D01*
X54766000Y-62965587D01*
X49694000Y-62965587D01*
X49694000Y-62905587D01*
X49668867Y-62779235D01*
X49619567Y-62660215D01*
X49547995Y-62553100D01*
X49456900Y-62462005D01*
X49349785Y-62390433D01*
X49230765Y-62341133D01*
X49104413Y-62316000D01*
X48975587Y-62316000D01*
X48849235Y-62341133D01*
X48781727Y-62369096D01*
X48798452Y-62173947D01*
X48899617Y-61617188D01*
X48926061Y-61656765D01*
X49017156Y-61747860D01*
X49124271Y-61819432D01*
X49243291Y-61868732D01*
X49369643Y-61893865D01*
X49498469Y-61893865D01*
X49624821Y-61868732D01*
X49743841Y-61819432D01*
X49850956Y-61747860D01*
X49942051Y-61656765D01*
X50013623Y-61549650D01*
X50062923Y-61430630D01*
X50088056Y-61304278D01*
X50088056Y-61175452D01*
X50062923Y-61049100D01*
X50013623Y-60930080D01*
X49957167Y-60845587D01*
X54926000Y-60845587D01*
X54926000Y-60974413D01*
X54951133Y-61100765D01*
X55000433Y-61219785D01*
X55072005Y-61326900D01*
X55163100Y-61417995D01*
X55270215Y-61489567D01*
X55389235Y-61538867D01*
X55515587Y-61564000D01*
X55644413Y-61564000D01*
X55770765Y-61538867D01*
X55889785Y-61489567D01*
X55996900Y-61417995D01*
X56087995Y-61326900D01*
X56159567Y-61219785D01*
X56208867Y-61100765D01*
X56234000Y-60974413D01*
X56234000Y-60938351D01*
X78651000Y-60938351D01*
X78651000Y-61101649D01*
X78682858Y-61261810D01*
X78745350Y-61412679D01*
X78836074Y-61548457D01*
X78951543Y-61663926D01*
X79087321Y-61754650D01*
X79238190Y-61817142D01*
X79398351Y-61849000D01*
X79561649Y-61849000D01*
X79721810Y-61817142D01*
X79872679Y-61754650D01*
X80008457Y-61663926D01*
X80123926Y-61548457D01*
X80214650Y-61412679D01*
X80277142Y-61261810D01*
X80309000Y-61101649D01*
X80309000Y-60938351D01*
X80277142Y-60778190D01*
X80214650Y-60627321D01*
X80123926Y-60491543D01*
X80008457Y-60376074D01*
X79872679Y-60285350D01*
X79721810Y-60222858D01*
X79561649Y-60191000D01*
X79398351Y-60191000D01*
X79238190Y-60222858D01*
X79087321Y-60285350D01*
X78951543Y-60376074D01*
X78836074Y-60491543D01*
X78745350Y-60627321D01*
X78682858Y-60778190D01*
X78651000Y-60938351D01*
X56234000Y-60938351D01*
X56234000Y-60845587D01*
X56208867Y-60719235D01*
X56159567Y-60600215D01*
X56087995Y-60493100D01*
X55996900Y-60402005D01*
X55889785Y-60330433D01*
X55770765Y-60281133D01*
X55644413Y-60256000D01*
X55515587Y-60256000D01*
X55389235Y-60281133D01*
X55270215Y-60330433D01*
X55163100Y-60402005D01*
X55072005Y-60493100D01*
X55000433Y-60600215D01*
X54951133Y-60719235D01*
X54926000Y-60845587D01*
X49957167Y-60845587D01*
X49942051Y-60822965D01*
X49850956Y-60731870D01*
X49743841Y-60660298D01*
X49624821Y-60610998D01*
X49498469Y-60585865D01*
X49369643Y-60585865D01*
X49243291Y-60610998D01*
X49124271Y-60660298D01*
X49066469Y-60698920D01*
X49085972Y-60591585D01*
X49286150Y-59879355D01*
X49348683Y-59972942D01*
X49439778Y-60064037D01*
X49546893Y-60135609D01*
X49665913Y-60184909D01*
X49792265Y-60210042D01*
X49921091Y-60210042D01*
X50047443Y-60184909D01*
X50166463Y-60135609D01*
X50273578Y-60064037D01*
X50364673Y-59972942D01*
X50436245Y-59865827D01*
X50485545Y-59746807D01*
X50510678Y-59620455D01*
X50510678Y-59491629D01*
X50485545Y-59365277D01*
X50436245Y-59246257D01*
X50364673Y-59139142D01*
X50273578Y-59048047D01*
X50166463Y-58976475D01*
X50047443Y-58927175D01*
X49921091Y-58902042D01*
X49792265Y-58902042D01*
X49665913Y-58927175D01*
X49546919Y-58976464D01*
X49852416Y-58184686D01*
X49873424Y-58235404D01*
X49944996Y-58342519D01*
X50036091Y-58433614D01*
X50143206Y-58505186D01*
X50262226Y-58554486D01*
X50388578Y-58579619D01*
X50517404Y-58579619D01*
X50643756Y-58554486D01*
X50762776Y-58505186D01*
X50869891Y-58433614D01*
X50960986Y-58342519D01*
X51032558Y-58235404D01*
X51081858Y-58116384D01*
X51106991Y-57990032D01*
X51106991Y-57905587D01*
X55706000Y-57905587D01*
X55706000Y-58034413D01*
X55731133Y-58160765D01*
X55780433Y-58279785D01*
X55852005Y-58386900D01*
X55943100Y-58477995D01*
X56050215Y-58549567D01*
X56169235Y-58598867D01*
X56295587Y-58624000D01*
X56424413Y-58624000D01*
X56550765Y-58598867D01*
X56669785Y-58549567D01*
X56776900Y-58477995D01*
X56820087Y-58434808D01*
X56830433Y-58459785D01*
X56902005Y-58566900D01*
X56993100Y-58657995D01*
X57100215Y-58729567D01*
X57219235Y-58778867D01*
X57345587Y-58804000D01*
X57474413Y-58804000D01*
X57600765Y-58778867D01*
X57719785Y-58729567D01*
X57826900Y-58657995D01*
X57917995Y-58566900D01*
X57989567Y-58459785D01*
X58038867Y-58340765D01*
X58064000Y-58214413D01*
X58064000Y-58085587D01*
X58038867Y-57959235D01*
X57989567Y-57840215D01*
X57917995Y-57733100D01*
X57826900Y-57642005D01*
X57719785Y-57570433D01*
X57600765Y-57521133D01*
X57474413Y-57496000D01*
X57345587Y-57496000D01*
X57219235Y-57521133D01*
X57100215Y-57570433D01*
X56993100Y-57642005D01*
X56949913Y-57685192D01*
X56939567Y-57660215D01*
X56867995Y-57553100D01*
X56776900Y-57462005D01*
X56669785Y-57390433D01*
X56550765Y-57341133D01*
X56424413Y-57316000D01*
X56295587Y-57316000D01*
X56169235Y-57341133D01*
X56050215Y-57390433D01*
X55943100Y-57462005D01*
X55852005Y-57553100D01*
X55780433Y-57660215D01*
X55731133Y-57779235D01*
X55706000Y-57905587D01*
X51106991Y-57905587D01*
X51106991Y-57861206D01*
X51081858Y-57734854D01*
X51032558Y-57615834D01*
X50960986Y-57508719D01*
X50869891Y-57417624D01*
X50762776Y-57346052D01*
X50643756Y-57296752D01*
X50517404Y-57271619D01*
X50388578Y-57271619D01*
X50262226Y-57296752D01*
X50212480Y-57317357D01*
X50589342Y-56561438D01*
X50636897Y-56676244D01*
X50708469Y-56783359D01*
X50799564Y-56874454D01*
X50906679Y-56946026D01*
X51025699Y-56995326D01*
X51152051Y-57020459D01*
X51280877Y-57020459D01*
X51407229Y-56995326D01*
X51526249Y-56946026D01*
X51633364Y-56874454D01*
X51724459Y-56783359D01*
X51796031Y-56676244D01*
X51845331Y-56557224D01*
X51870464Y-56430872D01*
X51870464Y-56302046D01*
X51845331Y-56175694D01*
X51796031Y-56056674D01*
X51724459Y-55949559D01*
X51633364Y-55858464D01*
X51526249Y-55786892D01*
X51407229Y-55737592D01*
X51280877Y-55712459D01*
X51152051Y-55712459D01*
X51048180Y-55733120D01*
X51667450Y-54738162D01*
X52058353Y-54225000D01*
X52304309Y-54225000D01*
X52261133Y-54329235D01*
%TD*%
M02*
