M48
; DRILL file {KiCad 6.0.5-a6ca702e91~116~ubuntu20.04.1} date Sun Jul  3 11:06:06 2022
; FORMAT={-:-/ absolute / metric / decimal}
; #@! TF.CreationDate,2022-07-03T11:06:06+00:00
; #@! TF.GenerationSoftware,Kicad,Pcbnew,6.0.5-a6ca702e91~116~ubuntu20.04.1
; #@! TF.FileFunction,MixedPlating,1,2
FMAT,2
METRIC
; #@! TA.AperFunction,Plated,PTH,ComponentDrill
T1C0.200
; #@! TA.AperFunction,Plated,PTH,ViaDrill
T2C0.250
; #@! TA.AperFunction,Plated,PTH,ViaDrill
T3C0.300
; #@! TA.AperFunction,Plated,PTH,ComponentDrill
T4C0.600
; #@! TA.AperFunction,NonPlated,NPTH,ComponentDrill
T5C1.152
%
G90
G05
T1
X140.475Y-53.237
X140.475Y-54.637
X141.175Y-52.537
X141.175Y-53.937
X141.175Y-55.337
X141.875Y-53.237
X141.875Y-54.637
X142.575Y-52.537
X142.575Y-53.937
X142.575Y-55.337
X143.275Y-53.237
X143.275Y-54.637
T2
X125.765Y-50.004
X126.146Y-47.235
X126.759Y-54.079
X126.933Y-40.572
X127.771Y-48.118
X131.617Y-56.606
X133.238Y-52.926
X134.01Y-64.906
X134.564Y-64.311
X135.132Y-63.816
X135.879Y-61.331
X136.389Y-60.521
X136.469Y-72.211
X136.639Y-66.761
X136.679Y-48.561
X136.687Y-46.55
X136.986Y-61.384
X137.474Y-46.524
X137.479Y-48.601
X137.559Y-65.781
X137.719Y-51.181
X139.44Y-56.016
X139.944Y-57.531
X140.109Y-71.981
X141.939Y-66.791
X146.859Y-58.831
X150.844Y-62.406
X153.544Y-65.056
T3
X123.631Y-47.032
X123.644Y-52.081
X124.069Y-54.631
X124.266Y-42.587
X124.647Y-40.428
X124.669Y-54.156
X125.34Y-53.698
X125.967Y-40.452
X125.981Y-56.113
X126.171Y-72.305
X126.174Y-47.988
X126.679Y-39.031
X126.806Y-51.35
X127.314Y-70.273
X127.441Y-44.111
X127.632Y-54.525
X127.695Y-59.859
X127.695Y-72.305
X127.844Y-41.531
X127.869Y-42.331
X128.076Y-57.446
X128.33Y-67.733
X128.457Y-53.874
X128.457Y-55.16
X128.584Y-72.686
X128.674Y-39.631
X128.889Y-66.358
X129.854Y-46.905
X129.854Y-53.636
X129.854Y-59.605
X130.122Y-51.513
X130.362Y-43.222
X130.743Y-41.952
X130.844Y-56.606
X130.919Y-40.256
X131.632Y-46.905
X131.632Y-58.208
X131.759Y-72.686
X133.219Y-54.481
X133.27Y-53.679
X133.484Y-51.35
X133.791Y-42.206
X135.823Y-46.27
X150.428Y-52.62
X150.682Y-55.033
X150.809Y-46.143
X152.079Y-67.581
X152.206Y-72.597
T5
X133.283Y-72.94
X138.363Y-40.174
X144.169Y-72.931
T4
X126.12Y-60.937G85X125.52Y-60.937
G05
X126.12Y-69.577G85X125.52Y-69.577
G05
X130.55Y-60.937G85X129.45Y-60.937
G05
X130.55Y-69.577G85X129.45Y-69.577
G05
T0
M30
