G04 #@! TF.GenerationSoftware,KiCad,Pcbnew,6.0.0-d3dd2cf0fa~116~ubuntu20.04.1*
G04 #@! TF.CreationDate,2022-05-06T06:53:09+00:00*
G04 #@! TF.ProjectId,PlantBuddy,506c616e-7442-4756-9464-792e6b696361,rev?*
G04 #@! TF.SameCoordinates,Original*
G04 #@! TF.FileFunction,Other,Comment*
%FSLAX46Y46*%
G04 Gerber Fmt 4.6, Leading zero omitted, Abs format (unit mm)*
G04 Created by KiCad (PCBNEW 6.0.0-d3dd2cf0fa~116~ubuntu20.04.1) date 2022-05-06 06:53:09*
%MOMM*%
%LPD*%
G01*
G04 APERTURE LIST*
%ADD10C,0.150000*%
%ADD11C,0.100000*%
G04 APERTURE END LIST*
D10*
X85312508Y-19791552D02*
X84741080Y-19791552D01*
X85026794Y-19791552D02*
X85026794Y-18791552D01*
X84931556Y-18934410D01*
X84836318Y-19029648D01*
X84741080Y-19077267D01*
X85741080Y-19696314D02*
X85788699Y-19743933D01*
X85741080Y-19791552D01*
X85693460Y-19743933D01*
X85741080Y-19696314D01*
X85741080Y-19791552D01*
X86645841Y-19124886D02*
X86645841Y-19791552D01*
X86407746Y-18743933D02*
X86169651Y-19458219D01*
X86788699Y-19458219D01*
X87312508Y-19220124D02*
X87217270Y-19172505D01*
X87169651Y-19124886D01*
X87122032Y-19029648D01*
X87122032Y-18982029D01*
X87169651Y-18886791D01*
X87217270Y-18839172D01*
X87312508Y-18791552D01*
X87502984Y-18791552D01*
X87598222Y-18839172D01*
X87645841Y-18886791D01*
X87693460Y-18982029D01*
X87693460Y-19029648D01*
X87645841Y-19124886D01*
X87598222Y-19172505D01*
X87502984Y-19220124D01*
X87312508Y-19220124D01*
X87217270Y-19267743D01*
X87169651Y-19315362D01*
X87122032Y-19410600D01*
X87122032Y-19601076D01*
X87169651Y-19696314D01*
X87217270Y-19743933D01*
X87312508Y-19791552D01*
X87502984Y-19791552D01*
X87598222Y-19743933D01*
X87645841Y-19696314D01*
X87693460Y-19601076D01*
X87693460Y-19410600D01*
X87645841Y-19315362D01*
X87598222Y-19267743D01*
X87502984Y-19220124D01*
X88026794Y-18791552D02*
X88645841Y-18791552D01*
X88312508Y-19172505D01*
X88455365Y-19172505D01*
X88550603Y-19220124D01*
X88598222Y-19267743D01*
X88645841Y-19362981D01*
X88645841Y-19601076D01*
X88598222Y-19696314D01*
X88550603Y-19743933D01*
X88455365Y-19791552D01*
X88169651Y-19791552D01*
X88074413Y-19743933D01*
X88026794Y-19696314D01*
X89502984Y-19124886D02*
X89502984Y-19791552D01*
X89264889Y-18743933D02*
X89026794Y-19458219D01*
X89645841Y-19458219D01*
X90788699Y-19791552D02*
X90788699Y-19124886D01*
X90788699Y-18791552D02*
X90741080Y-18839172D01*
X90788699Y-18886791D01*
X90836318Y-18839172D01*
X90788699Y-18791552D01*
X90788699Y-18886791D01*
X91264889Y-19124886D02*
X91264889Y-19791552D01*
X91264889Y-19220124D02*
X91312508Y-19172505D01*
X91407746Y-19124886D01*
X91550603Y-19124886D01*
X91645841Y-19172505D01*
X91693460Y-19267743D01*
X91693460Y-19791552D01*
D11*
X107080080Y-49961171D02*
X107080080Y-19902752D01*
X69402080Y-49961171D02*
X69402080Y-19902752D01*
X107080080Y-20489172D02*
X92506556Y-20489172D01*
X83975604Y-20489172D02*
X69402080Y-20489172D01*
X107080080Y-20489172D02*
X105953576Y-19902751D01*
X107080080Y-20489172D02*
X105953576Y-21075593D01*
X69402080Y-20489172D02*
X70528584Y-21075593D01*
X69402080Y-20489172D02*
X70528584Y-19902751D01*
D10*
X131007929Y-74446573D02*
X131008401Y-75065620D01*
X130627194Y-74732578D01*
X130627303Y-74875435D01*
X130579757Y-74970709D01*
X130532174Y-75018364D01*
X130436972Y-75066056D01*
X130198877Y-75066238D01*
X130103603Y-75018691D01*
X130055948Y-74971109D01*
X130008256Y-74875907D01*
X130008038Y-74590193D01*
X130055584Y-74494918D01*
X130103167Y-74447263D01*
X130103966Y-75494882D02*
X130056384Y-75542537D01*
X130008728Y-75494954D01*
X130056311Y-75447299D01*
X130103966Y-75494882D01*
X130008728Y-75494954D01*
X131009418Y-76398953D02*
X131009273Y-76208477D01*
X130961581Y-76113275D01*
X130913926Y-76065692D01*
X130770996Y-75970563D01*
X130580484Y-75923090D01*
X130199531Y-75923380D01*
X130104330Y-75971072D01*
X130056747Y-76018727D01*
X130009200Y-76114002D01*
X130009346Y-76304478D01*
X130057038Y-76399680D01*
X130104693Y-76447262D01*
X130199967Y-76494809D01*
X130438062Y-76494627D01*
X130533264Y-76446935D01*
X130580847Y-76399280D01*
X130628393Y-76304006D01*
X130628248Y-76113529D01*
X130580556Y-76018328D01*
X130532901Y-75970745D01*
X130437626Y-75923199D01*
X130010218Y-77447335D02*
X130009782Y-76875906D01*
X130010000Y-77161621D02*
X131010000Y-77160858D01*
X130867070Y-77065729D01*
X130771759Y-76970563D01*
X130724067Y-76875361D01*
X130010945Y-78399715D02*
X130010509Y-77828287D01*
X130010727Y-78114001D02*
X131010726Y-78113238D01*
X130867796Y-78018109D01*
X130772486Y-77922944D01*
X130724794Y-77827742D01*
X130011308Y-78875906D02*
X130011453Y-79066382D01*
X130059145Y-79161584D01*
X130106800Y-79209166D01*
X130249730Y-79304295D01*
X130440242Y-79351769D01*
X130821195Y-79351478D01*
X130916397Y-79303787D01*
X130963979Y-79256131D01*
X131011526Y-79160857D01*
X131011380Y-78970381D01*
X130963689Y-78875179D01*
X130916033Y-78827596D01*
X130820759Y-78780050D01*
X130582664Y-78780232D01*
X130487462Y-78827923D01*
X130439879Y-78875579D01*
X130392333Y-78970853D01*
X130392478Y-79161329D01*
X130440170Y-79256531D01*
X130487825Y-79304114D01*
X130583100Y-79351660D01*
X130012580Y-80542572D02*
X130679246Y-80542063D01*
X131012579Y-80541809D02*
X130964924Y-80494226D01*
X130917341Y-80541882D01*
X130964997Y-80589464D01*
X131012579Y-80541809D01*
X130917341Y-80541882D01*
X130679609Y-81018254D02*
X130012943Y-81018762D01*
X130584371Y-81018326D02*
X130632027Y-81065909D01*
X130679718Y-81161111D01*
X130679827Y-81303968D01*
X130632281Y-81399242D01*
X130537079Y-81446934D01*
X130013270Y-81447334D01*
D11*
X88374080Y-32155789D02*
X129864437Y-32124131D01*
X88444080Y-123897604D02*
X129934437Y-123865946D01*
X129278017Y-32124579D02*
X129309762Y-73730012D01*
X129316272Y-82260961D02*
X129348017Y-123866394D01*
X129278017Y-32124579D02*
X128692456Y-33251530D01*
X129278017Y-32124579D02*
X129865297Y-33250635D01*
X129348017Y-123866394D02*
X129933578Y-122739443D01*
X129348017Y-123866394D02*
X128760737Y-122740338D01*
M02*
