G04 #@! TF.GenerationSoftware,KiCad,Pcbnew,6.0.5-a6ca702e91~116~ubuntu20.04.1*
G04 #@! TF.CreationDate,2022-06-15T15:16:03+00:00*
G04 #@! TF.ProjectId,PlantBuddy,506c616e-7442-4756-9464-792e6b696361,rev?*
G04 #@! TF.SameCoordinates,Original*
G04 #@! TF.FileFunction,Copper,L4,Bot*
G04 #@! TF.FilePolarity,Positive*
%FSLAX46Y46*%
G04 Gerber Fmt 4.6, Leading zero omitted, Abs format (unit mm)*
G04 Created by KiCad (PCBNEW 6.0.5-a6ca702e91~116~ubuntu20.04.1) date 2022-06-15 15:16:03*
%MOMM*%
%LPD*%
G01*
G04 APERTURE LIST*
G04 Aperture macros list*
%AMRoundRect*
0 Rectangle with rounded corners*
0 $1 Rounding radius*
0 $2 $3 $4 $5 $6 $7 $8 $9 X,Y pos of 4 corners*
0 Add a 4 corners polygon primitive as box body*
4,1,4,$2,$3,$4,$5,$6,$7,$8,$9,$2,$3,0*
0 Add four circle primitives for the rounded corners*
1,1,$1+$1,$2,$3*
1,1,$1+$1,$4,$5*
1,1,$1+$1,$6,$7*
1,1,$1+$1,$8,$9*
0 Add four rect primitives between the rounded corners*
20,1,$1+$1,$2,$3,$4,$5,0*
20,1,$1+$1,$4,$5,$6,$7,0*
20,1,$1+$1,$6,$7,$8,$9,0*
20,1,$1+$1,$8,$9,$2,$3,0*%
%AMFreePoly0*
4,1,113,0.499682,0.503916,0.501146,0.500380,0.501146,-47.971286,0.499682,-47.974822,0.496146,-47.976286,-0.502921,-47.976286,-0.506457,-47.974822,-0.507921,-47.971286,-0.507921,-45.774953,-7.098454,-45.774953,-7.101990,-45.773489,-7.103454,-45.769953,-7.103454,-43.763353,-7.101990,-43.759817,-7.098454,-43.758353,-0.507871,-43.758353,-0.512145,-41.368050,-7.098457,-41.363798,-7.101992,-41.362332,-7.103454,-41.358798,
-7.103454,-39.360686,-7.101990,-39.357150,-7.098454,-39.355686,-0.507921,-39.355686,-0.507921,-36.961153,-7.098523,-36.961153,-7.098528,-36.961151,-7.098534,-36.961153,-7.100275,-36.960428,-7.102059,-36.959689,-7.102061,-36.959683,-7.102067,-36.959681,-7.102806,-36.957886,-7.103523,-36.956153,-7.103521,-36.956148,-7.103523,-36.956142,-7.099220,-34.953776,-7.098541,-34.952147,-7.097758,-34.950252,-7.097750,-34.950249,
-7.097748,-34.950243,-7.096019,-34.949531,-7.094223,-34.948786,-0.507921,-34.944534,-0.507921,-32.558486,-7.098454,-32.558486,-7.101990,-32.557022,-7.103454,-32.553486,-7.103454,-30.546886,-7.101990,-30.543350,-7.098454,-30.541886,-0.507921,-30.541886,-0.507921,-28.147353,-7.098454,-28.147353,-7.101990,-28.145889,-7.103454,-28.142353,-7.103454,-26.144241,-7.101990,-26.140705,-7.098457,-26.139241,-0.512145,-26.134989,
-0.507871,-23.744686,-7.098454,-23.744686,-7.101990,-23.743222,-7.103454,-23.739686,-7.103454,-21.733086,-7.101990,-21.729550,-7.098454,-21.728086,-0.507921,-21.728086,-0.507921,-19.333553,-7.098454,-19.333553,-7.101990,-19.332089,-7.103454,-19.328553,-7.103454,-17.330420,-7.101990,-17.326884,-7.098454,-17.325420,-0.507921,-17.325420,-0.507921,-14.930886,-7.098454,-14.930886,-7.101990,-14.929422,-7.103454,-14.925886,
-7.103454,-12.919286,-7.101990,-12.915750,-7.098454,-12.914286,-0.507921,-12.914286,-0.507921,-10.519753,-7.098454,-10.519753,-7.101990,-10.518289,-7.103454,-10.514753,-7.103454,-8.516620,-7.101990,-8.513084,-7.098454,-8.511620,-0.507921,-8.511620,-0.507921,-6.117086,-7.098454,-6.117086,-7.101990,-6.115622,-7.103454,-6.112086,-7.103454,-4.105486,-7.101990,-4.101950,-7.098454,-4.100486,-0.507921,-4.100486,
-0.507921,-1.705953,-7.098454,-1.705953,-7.101990,-1.704489,-7.103454,-1.700953,-7.103454,0.297180,-7.101990,0.300716,-7.098454,0.302180,-0.507921,0.302180,-0.507921,0.500380,-0.506457,0.503916,-0.502921,0.505380,0.496146,0.505380,0.499682,0.503916,0.499682,0.503916,$1*%
%AMFreePoly1*
4,1,113,0.498682,0.503916,0.500146,0.500380,0.500146,-1.899153,7.090679,-1.899153,7.094215,-1.900617,7.095679,-1.904153,7.095679,-3.910753,7.094215,-3.914289,7.090679,-3.915753,0.500097,-3.915753,0.504370,-6.306056,7.090684,-6.310308,7.094219,-6.311774,7.095148,-6.314024,7.095680,-6.315308,7.095679,-8.313420,7.094215,-8.316956,7.090679,-8.318420,0.500146,-8.318420,0.500146,-10.712953,
7.090749,-10.712953,7.090754,-10.712955,7.090760,-10.712953,7.092501,-10.713678,7.094285,-10.714417,7.094287,-10.714423,7.094293,-10.714425,7.095032,-10.716220,7.095749,-10.717953,7.095747,-10.717958,7.095749,-10.717964,7.091446,-12.720330,7.090773,-12.721945,7.089985,-12.723853,7.089977,-12.723856,7.089974,-12.723863,7.088323,-12.724542,7.086450,-12.725319,0.500146,-12.729571,0.500146,-15.115619,
7.090679,-15.115619,7.094215,-15.117083,7.095679,-15.120619,7.095679,-17.127220,7.094215,-17.130756,7.090679,-17.132220,0.500146,-17.132220,0.500146,-19.526753,7.090679,-19.526753,7.094215,-19.528217,7.095679,-19.531753,7.095680,-21.529865,7.095148,-21.531149,7.094219,-21.533399,7.094216,-21.533401,7.093109,-21.533859,7.090684,-21.534865,0.504370,-21.539117,0.500097,-23.929420,7.090679,-23.929420,
7.094215,-23.930884,7.095679,-23.934420,7.095679,-25.941019,7.094215,-25.944555,7.090679,-25.946019,0.500146,-25.946019,0.500146,-28.340553,7.090679,-28.340553,7.094215,-28.342017,7.095679,-28.345553,7.095679,-30.343686,7.094215,-30.347222,7.090679,-30.348686,0.500146,-30.348686,0.500146,-32.743219,7.090679,-32.743219,7.094215,-32.744683,7.095679,-32.748219,7.095679,-34.754820,7.094215,-34.758356,
7.090679,-34.759820,0.500146,-34.759820,0.500146,-37.154353,7.090679,-37.154353,7.094215,-37.155817,7.095679,-37.159353,7.095679,-39.157486,7.094215,-39.161022,7.090679,-39.162486,0.500146,-39.162486,0.500146,-41.557020,7.090679,-41.557020,7.094215,-41.558484,7.095679,-41.562020,7.095679,-43.568620,7.094215,-43.572156,7.090679,-43.573620,0.500146,-43.573620,0.500146,-45.968153,7.090679,-45.968153,
7.094215,-45.969617,7.095679,-45.973153,7.095679,-47.971286,7.094215,-47.974822,7.090679,-47.976286,-0.503920,-47.976286,-0.507456,-47.974822,-0.508920,-47.971286,-0.508920,0.500380,-0.507456,0.503916,-0.503920,0.505380,0.495146,0.505380,0.498682,0.503916,0.498682,0.503916,$1*%
G04 Aperture macros list end*
G04 #@! TA.AperFunction,ComponentPad*
%ADD10O,2.100000X1.000000*%
G04 #@! TD*
G04 #@! TA.AperFunction,ComponentPad*
%ADD11O,1.600000X1.000000*%
G04 #@! TD*
G04 #@! TA.AperFunction,ComponentPad*
%ADD12FreePoly0,0.000000*%
G04 #@! TD*
G04 #@! TA.AperFunction,ComponentPad*
%ADD13FreePoly1,0.000000*%
G04 #@! TD*
G04 #@! TA.AperFunction,SMDPad,CuDef*
%ADD14R,1.500000X1.000000*%
G04 #@! TD*
G04 #@! TA.AperFunction,SMDPad,CuDef*
%ADD15RoundRect,0.317500X0.445666X0.054721X-0.054721X0.445666X-0.445666X-0.054721X0.054721X-0.445666X0*%
G04 #@! TD*
G04 #@! TA.AperFunction,SMDPad,CuDef*
%ADD16R,5.000000X5.500000*%
G04 #@! TD*
G04 #@! TA.AperFunction,SMDPad,CuDef*
%ADD17R,6.000000X5.500000*%
G04 #@! TD*
G04 #@! TA.AperFunction,SMDPad,CuDef*
%ADD18C,20.000000*%
G04 #@! TD*
G04 #@! TA.AperFunction,ViaPad*
%ADD19C,0.600000*%
G04 #@! TD*
G04 #@! TA.AperFunction,Conductor*
%ADD20C,0.200000*%
G04 #@! TD*
G04 APERTURE END LIST*
G04 #@! TO.C,JP1*
G36*
X86085080Y-65951171D02*
G01*
X85485080Y-65951171D01*
X85485080Y-65451171D01*
X86085080Y-65451171D01*
X86085080Y-65951171D01*
G37*
G04 #@! TD*
D10*
G04 #@! TO.P,J1,S1,SHIELD*
G04 #@! TO.N,GND*
X99800080Y-54781171D03*
X99800080Y-46141171D03*
D11*
X103980080Y-54781171D03*
X103980080Y-46141171D03*
G04 #@! TD*
D12*
G04 #@! TO.P,C4,1*
G04 #@! TO.N,/capsense*
X91952200Y-70544951D03*
D13*
G04 #@! TO.P,C4,2*
G04 #@! TO.N,GND*
X83952200Y-70544951D03*
G04 #@! TD*
D14*
G04 #@! TO.P,JP1,1,A*
G04 #@! TO.N,Net-(JP1-Pad1)*
X85785080Y-66351171D03*
G04 #@! TO.P,JP1,2,B*
G04 #@! TO.N,/pulse*
X85785080Y-65051171D03*
G04 #@! TD*
D15*
G04 #@! TO.P,LS1,1,1*
G04 #@! TO.N,/piezo_p*
X99358854Y-37146061D03*
G04 #@! TO.P,LS1,2,2*
G04 #@! TO.N,/piezo_l*
X97357306Y-35582281D03*
G04 #@! TD*
D16*
G04 #@! TO.P,BT1,1,+*
G04 #@! TO.N,/vbat*
X103744080Y-50461171D03*
D17*
X72644080Y-50461171D03*
D18*
G04 #@! TO.P,BT1,2,-*
G04 #@! TO.N,GND*
X87944080Y-50461171D03*
G04 #@! TD*
D19*
G04 #@! TO.N,+3V3*
X98612080Y-41698171D03*
X77412140Y-61812749D03*
X76133080Y-40936171D03*
X76260080Y-48556171D03*
X84409655Y-61466570D03*
X85327880Y-63110371D03*
X83702280Y-61484771D03*
X83702280Y-60671971D03*
X77149080Y-45000171D03*
X77203166Y-52180060D03*
G04 #@! TO.N,/pulse*
X77200880Y-50879913D03*
G04 #@! TO.N,/SDA*
X76260080Y-50842171D03*
X78281263Y-65918222D03*
G04 #@! TO.N,/SCL*
X78201776Y-56255383D03*
X77203166Y-53001171D03*
X76895080Y-56658771D03*
X75402576Y-63585927D03*
G04 #@! TO.N,GND*
X89849080Y-45381171D03*
X77276080Y-48429171D03*
X87874080Y-43419171D03*
X78437715Y-50468139D03*
X80832080Y-39412171D03*
X91881080Y-39539171D03*
X92262080Y-54490191D03*
X94548080Y-55033171D03*
X94035957Y-58164174D03*
X84769080Y-47286171D03*
X80324080Y-55795171D03*
X93786080Y-49191171D03*
X85899080Y-45381171D03*
X88706080Y-39539171D03*
X94929080Y-38396171D03*
X85899080Y-43362171D03*
X85404080Y-39539171D03*
X86293080Y-55922171D03*
X76133080Y-39412171D03*
X91500080Y-59605171D03*
X83880080Y-39539171D03*
X92516080Y-56684171D03*
X85277080Y-59605171D03*
X90992080Y-58081171D03*
X87874080Y-41431171D03*
X81576093Y-49001504D03*
X89849080Y-41431171D03*
X80324080Y-54271171D03*
X87874080Y-45324171D03*
X73466080Y-46524171D03*
X97469080Y-43984171D03*
X77276080Y-46651171D03*
X89849080Y-43406171D03*
X90230080Y-39539171D03*
X94929080Y-49338171D03*
X87055080Y-39539171D03*
X85899080Y-41431171D03*
X85150080Y-53636171D03*
X72704080Y-54398171D03*
X100898080Y-56684171D03*
X79888679Y-63890812D03*
G04 #@! TO.N,/~PGOOD*
X97435488Y-54950350D03*
X94421080Y-58970171D03*
G04 #@! TO.N,/~CHG*
X98110129Y-54521324D03*
X96820544Y-57916663D03*
G04 #@! TO.N,/piezo_p*
X96453080Y-40936171D03*
G04 #@! TO.N,/piezo_l*
X95564080Y-40936171D03*
G04 #@! TO.N,/vbat*
X72577080Y-51477171D03*
X72577080Y-50461171D03*
G04 #@! TO.N,/status*
X92643080Y-40809171D03*
X96580080Y-42079171D03*
G04 #@! TO.N,Net-(JP1-Pad1)*
X85785080Y-67987171D03*
G04 #@! TD*
D20*
G04 #@! TO.N,/pulse*
X85785080Y-64685171D02*
X77911757Y-56811848D01*
X77910403Y-56811848D02*
X76603666Y-55505111D01*
X76603666Y-51905024D02*
X77200880Y-51307810D01*
X76603666Y-55505111D02*
X76603666Y-51905024D01*
X77911757Y-56811848D02*
X77910403Y-56811848D01*
X85785080Y-65051171D02*
X85785080Y-64685171D01*
X77200880Y-51307810D02*
X77200880Y-50879913D01*
G04 #@! TO.N,/SDA*
X76204155Y-50898096D02*
X76204154Y-53184097D01*
X76260080Y-50842171D02*
X76204155Y-50898096D01*
X76648738Y-65918222D02*
X73745480Y-63014964D01*
X73745480Y-54982371D02*
X74202680Y-54525171D01*
X76204154Y-53184097D02*
X74863080Y-54525171D01*
X73745480Y-63014964D02*
X73745480Y-54982371D01*
X74863080Y-54525171D02*
X74202680Y-54525171D01*
X78281263Y-65918222D02*
X76648738Y-65918222D01*
G04 #@! TO.N,/SCL*
X75402576Y-63585927D02*
X74151880Y-62335231D01*
X74151880Y-59401971D02*
X76895080Y-56658771D01*
X74151880Y-62335231D02*
X74151880Y-59401971D01*
X78201776Y-56255383D02*
X77203165Y-55256772D01*
X77203165Y-55256772D02*
X77203166Y-53001171D01*
G04 #@! TO.N,/~PGOOD*
X94421080Y-58970171D02*
X97469080Y-55922171D01*
X97469080Y-54983942D02*
X97435488Y-54950350D01*
X97469080Y-55922171D02*
X97469080Y-54983942D01*
G04 #@! TO.N,/~CHG*
X98110129Y-56627078D02*
X98110129Y-54521324D01*
X96820544Y-57916663D02*
X98110129Y-56627078D01*
G04 #@! TO.N,/piezo_p*
X99358854Y-37146061D02*
X99358854Y-37776397D01*
X99358854Y-37776397D02*
X96834080Y-40301171D01*
X96453080Y-40682171D02*
X96453080Y-40936171D01*
X96834080Y-40301171D02*
X96453080Y-40682171D01*
G04 #@! TO.N,/piezo_l*
X95564080Y-40936171D02*
X97357306Y-39142945D01*
X97357306Y-39142945D02*
X97357306Y-35582281D01*
G04 #@! TO.N,/status*
X94421080Y-40809171D02*
X95691080Y-42079171D01*
X92643080Y-40809171D02*
X94421080Y-40809171D01*
X95691080Y-42079171D02*
X96580080Y-42079171D01*
G04 #@! TO.N,Net-(JP1-Pad1)*
X85785080Y-66351171D02*
X85785080Y-67987171D01*
G04 #@! TD*
M02*
