G04 #@! TF.GenerationSoftware,KiCad,Pcbnew,6.0.0-d3dd2cf0fa~116~ubuntu20.04.1*
G04 #@! TF.CreationDate,2022-05-06T06:53:09+00:00*
G04 #@! TF.ProjectId,PlantBuddy,506c616e-7442-4756-9464-792e6b696361,rev?*
G04 #@! TF.SameCoordinates,Original*
G04 #@! TF.FileFunction,Copper,L2,Inr*
G04 #@! TF.FilePolarity,Positive*
%FSLAX46Y46*%
G04 Gerber Fmt 4.6, Leading zero omitted, Abs format (unit mm)*
G04 Created by KiCad (PCBNEW 6.0.0-d3dd2cf0fa~116~ubuntu20.04.1) date 2022-05-06 06:53:09*
%MOMM*%
%LPD*%
G01*
G04 APERTURE LIST*
G04 Aperture macros list*
%AMFreePoly0*
4,1,124,0.499682,0.503916,0.501146,0.500380,0.501146,-47.971286,0.499682,-47.974822,0.496146,-47.976286,-0.502921,-47.976286,-0.506457,-47.974822,-0.507921,-47.971286,-0.507921,-45.774953,-7.098454,-45.774953,-7.101990,-45.773489,-7.103454,-45.769953,-7.103454,-43.763353,-7.101990,-43.759817,-7.098454,-43.758353,-0.507871,-43.758353,-0.512145,-41.368050,-3.802807,-41.365925,-7.098457,-41.363798,-7.100276,-41.363044,
-7.101990,-41.362334,-7.101992,-41.362332,-7.102702,-41.360615,-7.103454,-41.358798,-7.103454,-39.360686,-7.101990,-39.357150,-7.098454,-39.355686,-0.507921,-39.355686,-0.507921,-36.961153,-7.098523,-36.961153,-7.098528,-36.961151,-7.098534,-36.961153,-7.100275,-36.960428,-7.102059,-36.959689,-7.102061,-36.959683,-7.102067,-36.959681,-7.102806,-36.957886,-7.103523,-36.956153,-7.103521,-36.956148,-7.103523,-36.956142,
-7.101372,-35.954960,-7.101372,-35.954959,-7.099220,-34.953776,-7.098541,-34.952147,-7.097758,-34.950252,-7.097750,-34.950249,-7.097748,-34.950243,-7.096019,-34.949531,-7.094223,-34.948786,-3.798573,-34.946659,-0.507921,-34.944534,-0.507921,-32.558486,-7.098454,-32.558486,-7.101990,-32.557022,-7.103454,-32.553486,-7.103454,-30.546886,-7.101990,-30.543350,-7.098454,-30.541886,-0.507921,-30.541886,-0.507921,-28.147353,
-7.098454,-28.147353,-7.101990,-28.145889,-7.103454,-28.142353,-7.103454,-26.144241,-7.102575,-26.142117,-7.101992,-26.140707,-7.101990,-26.140705,-7.100232,-26.139977,-7.098457,-26.139241,-3.802807,-26.137114,-0.512145,-26.134989,-0.507871,-23.744686,-7.098454,-23.744686,-7.101990,-23.743222,-7.103454,-23.739686,-7.103454,-21.733086,-7.101990,-21.729550,-7.098454,-21.728086,-0.507921,-21.728086,-0.507921,-19.333553,
-7.098454,-19.333553,-7.101990,-19.332089,-7.103454,-19.328553,-7.103454,-17.330420,-7.101990,-17.326884,-7.098454,-17.325420,-0.507921,-17.325420,-0.507921,-14.930886,-7.098454,-14.930886,-7.101990,-14.929422,-7.103454,-14.925886,-7.103454,-12.919286,-7.101990,-12.915750,-7.098454,-12.914286,-0.507921,-12.914286,-0.507921,-10.519753,-7.098454,-10.519753,-7.101990,-10.518289,-7.103454,-10.514753,-7.103454,-8.516620,
-7.101990,-8.513084,-7.098454,-8.511620,-0.507921,-8.511620,-0.507921,-6.117086,-7.098454,-6.117086,-7.101990,-6.115622,-7.103454,-6.112086,-7.103454,-4.105486,-7.101990,-4.101950,-7.098454,-4.100486,-0.507921,-4.100486,-0.507921,-1.705953,-7.098454,-1.705953,-7.101990,-1.704489,-7.103454,-1.700953,-7.103454,0.297180,-7.101990,0.300716,-7.098454,0.302180,-0.507921,0.302180,-0.507921,0.500380,
-0.506457,0.503916,-0.502921,0.505380,0.496146,0.505380,0.499682,0.503916,0.499682,0.503916,$1*%
%AMFreePoly1*
4,1,125,0.498682,0.503916,0.500146,0.500380,0.500146,-1.899153,7.090679,-1.899153,7.094215,-1.900617,7.095679,-1.904153,7.095679,-3.910753,7.094215,-3.914289,7.090679,-3.915753,0.500097,-3.915753,0.502234,-5.110894,0.504370,-6.306056,3.795034,-6.308180,7.090684,-6.310308,7.093109,-6.311314,7.094216,-6.311772,7.094216,-6.311773,7.094219,-6.311774,7.095148,-6.314024,7.095680,-6.315308,
7.095679,-7.314364,7.095679,-8.313420,7.094215,-8.316956,7.090679,-8.318420,0.500146,-8.318420,0.500146,-10.712953,7.090749,-10.712953,7.090754,-10.712955,7.090760,-10.712953,7.092501,-10.713678,7.094285,-10.714417,7.094287,-10.714423,7.094293,-10.714425,7.095032,-10.716220,7.095749,-10.717953,7.095747,-10.717958,7.095749,-10.717964,7.093598,-11.719147,7.091446,-12.720330,7.090773,-12.721945,
7.089985,-12.723853,7.089977,-12.723856,7.089974,-12.723863,7.088323,-12.724542,7.086450,-12.725319,3.790800,-12.727447,0.500146,-12.729571,0.500146,-15.115619,7.090679,-15.115619,7.094215,-15.117083,7.095679,-15.120619,7.095679,-17.127220,7.094215,-17.130756,7.090679,-17.132220,0.500146,-17.132220,0.500146,-19.526753,7.090679,-19.526753,7.094215,-19.528217,7.095679,-19.531753,7.095679,-20.530809,
7.095680,-21.529865,7.095148,-21.531149,7.094219,-21.533399,7.094216,-21.533400,7.094216,-21.533401,7.093109,-21.533859,7.090684,-21.534865,3.795034,-21.536992,0.504370,-21.539117,0.502234,-22.734279,0.500097,-23.929420,7.090679,-23.929420,7.094215,-23.930884,7.095679,-23.934420,7.095679,-25.941019,7.094215,-25.944555,7.090679,-25.946019,0.500146,-25.946019,0.500146,-28.340553,7.090679,-28.340553,
7.094215,-28.342017,7.095679,-28.345553,7.095679,-30.343686,7.094215,-30.347222,7.090679,-30.348686,0.500146,-30.348686,0.500146,-32.743219,7.090679,-32.743219,7.094215,-32.744683,7.095679,-32.748219,7.095679,-34.754820,7.094215,-34.758356,7.090679,-34.759820,0.500146,-34.759820,0.500146,-37.154353,7.090679,-37.154353,7.094215,-37.155817,7.095679,-37.159353,7.095679,-39.157486,7.094215,-39.161022,
7.090679,-39.162486,0.500146,-39.162486,0.500146,-41.557020,7.090679,-41.557020,7.094215,-41.558484,7.095679,-41.562020,7.095679,-43.568620,7.094215,-43.572156,7.090679,-43.573620,0.500146,-43.573620,0.500146,-45.968153,7.090679,-45.968153,7.094215,-45.969617,7.095679,-45.973153,7.095679,-47.971286,7.094215,-47.974822,7.090679,-47.976286,-0.503920,-47.976286,-0.507456,-47.974822,-0.508920,-47.971286,
-0.508920,0.500380,-0.507456,0.503916,-0.503920,0.505380,0.495146,0.505380,0.498682,0.503916,0.498682,0.503916,$1*%
G04 Aperture macros list end*
G04 #@! TA.AperFunction,ComponentPad*
%ADD10O,2.100000X1.000000*%
G04 #@! TD*
G04 #@! TA.AperFunction,ComponentPad*
%ADD11O,1.600000X1.000000*%
G04 #@! TD*
G04 #@! TA.AperFunction,ComponentPad*
%ADD12FreePoly0,0.000000*%
G04 #@! TD*
G04 #@! TA.AperFunction,ComponentPad*
%ADD13FreePoly1,0.000000*%
G04 #@! TD*
G04 #@! TA.AperFunction,ViaPad*
%ADD14C,0.600000*%
G04 #@! TD*
G04 APERTURE END LIST*
D10*
G04 #@! TO.N,GND*
G04 #@! TO.C,J1*
X99800080Y-54781171D03*
X99800080Y-46141171D03*
D11*
X103980080Y-54781171D03*
X103980080Y-46141171D03*
G04 #@! TD*
D12*
G04 #@! TO.N,Net-(C4-Pad1)*
G04 #@! TO.C,C4*
X91952200Y-70544951D03*
D13*
G04 #@! TO.N,GND*
X83952200Y-70544951D03*
G04 #@! TD*
D14*
G04 #@! TO.N,+3V3*
X98612080Y-41698171D03*
X76133080Y-40936171D03*
X76260080Y-48556171D03*
X85277080Y-63288171D03*
X84134080Y-62145171D03*
X77149080Y-45000171D03*
X76864477Y-51716303D03*
G04 #@! TO.N,GND*
X89849080Y-45381171D03*
X87874080Y-43419171D03*
X78454939Y-50665208D03*
X80832080Y-39412171D03*
X91881080Y-39539171D03*
X92262080Y-54398171D03*
X96961080Y-55033171D03*
X94167080Y-58208171D03*
X84769080Y-47286171D03*
X80324080Y-55795171D03*
X93786080Y-49191171D03*
X85899080Y-45381171D03*
X88706080Y-39539171D03*
X94929080Y-38396171D03*
X85899080Y-43362171D03*
X85404080Y-39539171D03*
X86293080Y-55922171D03*
X76133080Y-39412171D03*
X91500080Y-59605171D03*
X83880080Y-39539171D03*
X92516080Y-56684171D03*
X85277080Y-59605171D03*
X90992080Y-58081171D03*
X87874080Y-41431171D03*
X81576093Y-49001504D03*
X89849080Y-41431171D03*
X80324080Y-54271171D03*
X87563080Y-63669171D03*
X87874080Y-45324171D03*
X73466080Y-46524171D03*
X97469080Y-43984171D03*
X77276080Y-46651171D03*
X89849080Y-43406171D03*
X90230080Y-39539171D03*
X94929080Y-49953171D03*
X87055080Y-39539171D03*
X85899080Y-41431171D03*
X83626080Y-53001171D03*
X72704080Y-54398171D03*
X100898080Y-56684171D03*
X91754080Y-53001171D03*
X89976080Y-64177171D03*
G04 #@! TO.N,/piezo_p*
X96453080Y-40936171D03*
G04 #@! TO.N,/piezo_l*
X95564080Y-40936171D03*
G04 #@! TO.N,Net-(R12-Pad2)*
X93673847Y-59717404D03*
X94805908Y-60851298D03*
G04 #@! TO.N,Net-(R15-Pad2)*
X95691080Y-60113171D03*
X94571203Y-58966094D03*
G04 #@! TO.N,Net-(BT1-Pad1)*
X72644080Y-50461171D03*
G04 #@! TO.N,/freq_gen*
X88579080Y-68241171D03*
X77149080Y-50969171D03*
G04 #@! TO.N,/status*
X92643080Y-40809171D03*
X96580080Y-42079171D03*
G04 #@! TD*
G04 #@! TA.AperFunction,Conductor*
G04 #@! TO.N,GND*
G36*
X95419506Y-32384138D02*
G01*
X96134590Y-32695353D01*
X96139541Y-32697636D01*
X96895354Y-33066244D01*
X96900200Y-33068739D01*
X97639340Y-33469680D01*
X97644074Y-33472382D01*
X98365199Y-33904928D01*
X98369812Y-33907833D01*
X99071531Y-34371149D01*
X99076006Y-34374245D01*
X99263507Y-34510043D01*
X99757046Y-34867491D01*
X99761391Y-34870783D01*
X99913433Y-34991260D01*
X100145013Y-35174762D01*
X100420463Y-35393027D01*
X100424654Y-35396498D01*
X101060542Y-35946778D01*
X101064552Y-35950404D01*
X101392153Y-36259670D01*
X101676016Y-36527647D01*
X101679898Y-36531473D01*
X102265841Y-37134641D01*
X102269553Y-37138632D01*
X102828842Y-37766558D01*
X102832379Y-37770707D01*
X103363977Y-38422229D01*
X103367331Y-38426526D01*
X103870260Y-39100439D01*
X103873423Y-39104874D01*
X103894879Y-39136381D01*
X104346738Y-39799918D01*
X104349708Y-39804489D01*
X104792506Y-40519336D01*
X104795276Y-40524031D01*
X105206759Y-41257393D01*
X105209322Y-41262203D01*
X105588679Y-42012634D01*
X105591033Y-42017551D01*
X105937595Y-42783728D01*
X105939733Y-42788742D01*
X106252819Y-43569157D01*
X106254739Y-43574259D01*
X106533785Y-44367510D01*
X106535482Y-44372689D01*
X106767433Y-45136047D01*
X106767806Y-45137276D01*
X106773249Y-45173968D01*
X106771631Y-48563664D01*
X106768541Y-55039646D01*
X106768203Y-55746856D01*
X106762771Y-55783393D01*
X106742162Y-55851286D01*
X106528364Y-56555617D01*
X106526651Y-56560847D01*
X106244998Y-57361170D01*
X106243058Y-57366320D01*
X105926720Y-58153599D01*
X105924577Y-58158613D01*
X105680605Y-58696608D01*
X105574165Y-58931325D01*
X105571783Y-58936286D01*
X105492206Y-59093168D01*
X105208954Y-59651583D01*
X105187978Y-59692935D01*
X105185397Y-59697759D01*
X104816322Y-60352796D01*
X104768910Y-60436943D01*
X104766105Y-60441677D01*
X104317730Y-61161984D01*
X104314720Y-61166591D01*
X103835346Y-61866593D01*
X103832138Y-61871065D01*
X103322642Y-62549485D01*
X103319255Y-62553797D01*
X102780602Y-63209347D01*
X102777031Y-63213504D01*
X102564760Y-63449985D01*
X102229464Y-63823522D01*
X102210284Y-63844889D01*
X102206519Y-63848903D01*
X101612760Y-64454921D01*
X101608824Y-64458767D01*
X100989157Y-65038292D01*
X100985056Y-65041963D01*
X100355069Y-65581550D01*
X100340674Y-65593879D01*
X100336424Y-65597361D01*
X99680868Y-66110968D01*
X99668562Y-66120609D01*
X99664157Y-66123908D01*
X98974074Y-66617501D01*
X98969530Y-66620603D01*
X98266007Y-67078739D01*
X98258568Y-67083583D01*
X98253892Y-67086485D01*
X97523360Y-67517997D01*
X97518561Y-67520691D01*
X96769939Y-67919864D01*
X96765028Y-67922347D01*
X96174258Y-68204945D01*
X96000500Y-68288063D01*
X95999653Y-68288468D01*
X95994643Y-68290732D01*
X95791662Y-68377150D01*
X95213998Y-68623088D01*
X95208889Y-68625132D01*
X94414512Y-68923071D01*
X94409318Y-68924891D01*
X94401800Y-68927342D01*
X93634763Y-69177403D01*
X93623561Y-69179571D01*
X93621735Y-69180119D01*
X93612451Y-69180111D01*
X93606022Y-69183198D01*
X93598903Y-69183678D01*
X93568769Y-69200765D01*
X93561209Y-69204718D01*
X93529991Y-69219710D01*
X93525536Y-69225281D01*
X93519330Y-69228800D01*
X93511242Y-69240461D01*
X93499605Y-69257239D01*
X93494475Y-69264122D01*
X93472860Y-69291151D01*
X93471261Y-69298104D01*
X93467196Y-69303965D01*
X93464966Y-69317975D01*
X93461754Y-69338150D01*
X93460121Y-69346558D01*
X93457518Y-69357878D01*
X93457518Y-69364389D01*
X93457170Y-69366942D01*
X93456491Y-69371212D01*
X93452815Y-69394302D01*
X93456880Y-69407891D01*
X93457241Y-69413319D01*
X93457519Y-69421675D01*
X93457550Y-70858174D01*
X93437549Y-70926295D01*
X93383895Y-70972790D01*
X93331219Y-70984177D01*
X92709011Y-70982540D01*
X92640945Y-70962358D01*
X92594593Y-70908581D01*
X92583344Y-70856540D01*
X92583344Y-70046649D01*
X92583756Y-70044577D01*
X92573863Y-69994828D01*
X92572278Y-69991001D01*
X92568844Y-69985861D01*
X92568841Y-69985856D01*
X92550989Y-69959139D01*
X92550988Y-69959138D01*
X92544094Y-69948820D01*
X92501919Y-69920641D01*
X92499087Y-69919468D01*
X92499074Y-69919462D01*
X92498079Y-69919050D01*
X92448362Y-69909161D01*
X92446289Y-69909573D01*
X91451366Y-69909573D01*
X91449295Y-69909161D01*
X91399546Y-69919050D01*
X91398551Y-69919462D01*
X91398538Y-69919468D01*
X91395706Y-69920641D01*
X91377754Y-69932636D01*
X91363844Y-69941931D01*
X91363843Y-69941932D01*
X91353526Y-69948826D01*
X91325347Y-69991001D01*
X91323762Y-69994828D01*
X91320473Y-70011361D01*
X91287562Y-70074269D01*
X91225865Y-70109397D01*
X91196895Y-70112773D01*
X85088162Y-70112773D01*
X85020041Y-70092771D01*
X84973548Y-70039115D01*
X84962884Y-70000240D01*
X84960816Y-69981000D01*
X84928038Y-69852555D01*
X84925707Y-69845549D01*
X84923723Y-69841403D01*
X84876517Y-69754949D01*
X84867374Y-69742270D01*
X84779340Y-69647717D01*
X84765447Y-69636522D01*
X84651440Y-69568881D01*
X84644819Y-69565567D01*
X84640457Y-69564029D01*
X84546090Y-69536320D01*
X84530660Y-69533819D01*
X84465885Y-69531497D01*
X84443617Y-69528699D01*
X84432804Y-69526347D01*
X84224315Y-69526347D01*
X84209076Y-69530822D01*
X84207871Y-69532212D01*
X84206200Y-69539895D01*
X84206200Y-70672951D01*
X84186198Y-70741072D01*
X84132542Y-70787565D01*
X84080200Y-70798951D01*
X82948171Y-70798951D01*
X82932932Y-70803426D01*
X82931727Y-70804816D01*
X82930056Y-70812499D01*
X82930056Y-70830473D01*
X82910054Y-70898594D01*
X82856398Y-70945087D01*
X82803727Y-70956472D01*
X82555246Y-70955818D01*
X82487181Y-70935637D01*
X82440829Y-70881859D01*
X82429580Y-70829819D01*
X82429580Y-70272836D01*
X82930056Y-70272836D01*
X82934531Y-70288075D01*
X82935921Y-70289280D01*
X82943604Y-70290951D01*
X83680085Y-70290951D01*
X83695324Y-70286476D01*
X83696529Y-70285086D01*
X83698200Y-70277403D01*
X83698200Y-69544462D01*
X83693725Y-69529223D01*
X83692335Y-69528018D01*
X83684652Y-69526347D01*
X83462164Y-69526347D01*
X83431281Y-69530224D01*
X83402489Y-69529192D01*
X83384748Y-69531097D01*
X83256290Y-69563867D01*
X83249277Y-69566200D01*
X83245107Y-69568196D01*
X83158649Y-69615406D01*
X83145960Y-69624557D01*
X83051420Y-69712585D01*
X83040222Y-69726482D01*
X82972580Y-69840497D01*
X82969282Y-69847087D01*
X82967753Y-69851420D01*
X82940030Y-69945825D01*
X82937528Y-69961259D01*
X82935206Y-70026032D01*
X82932408Y-70048300D01*
X82930056Y-70059113D01*
X82930056Y-70272836D01*
X82429580Y-70272836D01*
X82429580Y-69424230D01*
X82429888Y-69415428D01*
X82430120Y-69412112D01*
X82434234Y-69398534D01*
X82432053Y-69384517D01*
X82432053Y-69384513D01*
X82429983Y-69371212D01*
X82429580Y-69368209D01*
X82429580Y-69361568D01*
X82427103Y-69350712D01*
X82425446Y-69342065D01*
X82422350Y-69322168D01*
X82420168Y-69308146D01*
X82416019Y-69302120D01*
X82414392Y-69294986D01*
X82393002Y-69268143D01*
X82387759Y-69261069D01*
X82376344Y-69244488D01*
X82376342Y-69244486D01*
X82368297Y-69232800D01*
X82361944Y-69229168D01*
X82357385Y-69223447D01*
X82344609Y-69217285D01*
X82344606Y-69217282D01*
X82326477Y-69208538D01*
X82318695Y-69204444D01*
X82288882Y-69187401D01*
X82281581Y-69186883D01*
X82274993Y-69183706D01*
X82265851Y-69183698D01*
X82265199Y-69183500D01*
X82252889Y-69181094D01*
X81474707Y-68927342D01*
X81469498Y-68925516D01*
X81451677Y-68918828D01*
X80672138Y-68626276D01*
X80667018Y-68624226D01*
X80665460Y-68623562D01*
X79883488Y-68290333D01*
X79878482Y-68288068D01*
X79767663Y-68234994D01*
X88073471Y-68234994D01*
X88074635Y-68243896D01*
X88074635Y-68243899D01*
X88080567Y-68289260D01*
X88092060Y-68377150D01*
X88149800Y-68508374D01*
X88155577Y-68515247D01*
X88155578Y-68515248D01*
X88162872Y-68523925D01*
X88242050Y-68618119D01*
X88361393Y-68697561D01*
X88498237Y-68740313D01*
X88507209Y-68740477D01*
X88507212Y-68740478D01*
X88572543Y-68741675D01*
X88641579Y-68742941D01*
X88650613Y-68740478D01*
X88771238Y-68707592D01*
X88771240Y-68707591D01*
X88779897Y-68705231D01*
X88902071Y-68630216D01*
X88998280Y-68523925D01*
X89060790Y-68394904D01*
X89084576Y-68253525D01*
X89084727Y-68241171D01*
X89064403Y-68099253D01*
X89005064Y-67968743D01*
X88986678Y-67947405D01*
X88917340Y-67866934D01*
X88917337Y-67866931D01*
X88911480Y-67860134D01*
X88791175Y-67782156D01*
X88653819Y-67741078D01*
X88644843Y-67741023D01*
X88644842Y-67741023D01*
X88584635Y-67740655D01*
X88510456Y-67740202D01*
X88372609Y-67779599D01*
X88251360Y-67856101D01*
X88245418Y-67862829D01*
X88245417Y-67862830D01*
X88203908Y-67909830D01*
X88156457Y-67963559D01*
X88095527Y-68093334D01*
X88073471Y-68234994D01*
X79767663Y-68234994D01*
X79228798Y-67976917D01*
X79110371Y-67920199D01*
X79105446Y-67917707D01*
X78402635Y-67542421D01*
X78354151Y-67516532D01*
X78349348Y-67513829D01*
X77616353Y-67080136D01*
X77611665Y-67077222D01*
X76898406Y-66611867D01*
X76893850Y-66608751D01*
X76201609Y-66112569D01*
X76197194Y-66109255D01*
X75527382Y-65583255D01*
X75523117Y-65579752D01*
X74876974Y-65024910D01*
X74872866Y-65021223D01*
X74251656Y-64438624D01*
X74247713Y-64434761D01*
X73883040Y-64061417D01*
X73652592Y-63825489D01*
X73648826Y-63821461D01*
X73620628Y-63789941D01*
X73166206Y-63281994D01*
X84771471Y-63281994D01*
X84772635Y-63290896D01*
X84772635Y-63290899D01*
X84773894Y-63300525D01*
X84790060Y-63424150D01*
X84847800Y-63555374D01*
X84853577Y-63562247D01*
X84853578Y-63562248D01*
X84860872Y-63570925D01*
X84940050Y-63665119D01*
X85059393Y-63744561D01*
X85196237Y-63787313D01*
X85205209Y-63787477D01*
X85205212Y-63787478D01*
X85270543Y-63788675D01*
X85339579Y-63789941D01*
X85348613Y-63787478D01*
X85469238Y-63754592D01*
X85469240Y-63754591D01*
X85477897Y-63752231D01*
X85600071Y-63677216D01*
X85696280Y-63570925D01*
X85758790Y-63441904D01*
X85782576Y-63300525D01*
X85782727Y-63288171D01*
X85771436Y-63209330D01*
X85763676Y-63155139D01*
X85763675Y-63155136D01*
X85762403Y-63146253D01*
X85703064Y-63015743D01*
X85684678Y-62994405D01*
X85615340Y-62913934D01*
X85615337Y-62913931D01*
X85609480Y-62907134D01*
X85489175Y-62829156D01*
X85351819Y-62788078D01*
X85342843Y-62788023D01*
X85342842Y-62788023D01*
X85282635Y-62787655D01*
X85208456Y-62787202D01*
X85070609Y-62826599D01*
X84949360Y-62903101D01*
X84854457Y-63010559D01*
X84793527Y-63140334D01*
X84786624Y-63184670D01*
X84782785Y-63209330D01*
X84771471Y-63281994D01*
X73166206Y-63281994D01*
X73080975Y-63186724D01*
X73077389Y-63182535D01*
X73050104Y-63149206D01*
X72543316Y-62530172D01*
X72537877Y-62523528D01*
X72534475Y-62519181D01*
X72363090Y-62290052D01*
X72250100Y-62138994D01*
X83628471Y-62138994D01*
X83629635Y-62147896D01*
X83629635Y-62147899D01*
X83630894Y-62157525D01*
X83647060Y-62281150D01*
X83704800Y-62412374D01*
X83710577Y-62419247D01*
X83710578Y-62419248D01*
X83717872Y-62427925D01*
X83797050Y-62522119D01*
X83916393Y-62601561D01*
X84053237Y-62644313D01*
X84062209Y-62644477D01*
X84062212Y-62644478D01*
X84127543Y-62645675D01*
X84196579Y-62646941D01*
X84205613Y-62644478D01*
X84326238Y-62611592D01*
X84326240Y-62611591D01*
X84334897Y-62609231D01*
X84457071Y-62534216D01*
X84553280Y-62427925D01*
X84615790Y-62298904D01*
X84639576Y-62157525D01*
X84639727Y-62145171D01*
X84619403Y-62003253D01*
X84560064Y-61872743D01*
X84527526Y-61834981D01*
X84472340Y-61770934D01*
X84472337Y-61770931D01*
X84466480Y-61764134D01*
X84346175Y-61686156D01*
X84208819Y-61645078D01*
X84199843Y-61645023D01*
X84199842Y-61645023D01*
X84139635Y-61644655D01*
X84065456Y-61644202D01*
X83927609Y-61683599D01*
X83806360Y-61760101D01*
X83711457Y-61867559D01*
X83650527Y-61997334D01*
X83628471Y-62138994D01*
X72250100Y-62138994D01*
X72024345Y-61837177D01*
X72021159Y-61832717D01*
X71541390Y-61129026D01*
X71538381Y-61124399D01*
X71365386Y-60845121D01*
X94300299Y-60845121D01*
X94301463Y-60854023D01*
X94301463Y-60854026D01*
X94302722Y-60863652D01*
X94318888Y-60987277D01*
X94376628Y-61118501D01*
X94382405Y-61125374D01*
X94382406Y-61125375D01*
X94417052Y-61166591D01*
X94468878Y-61228246D01*
X94588221Y-61307688D01*
X94725065Y-61350440D01*
X94734037Y-61350604D01*
X94734040Y-61350605D01*
X94799371Y-61351802D01*
X94868407Y-61353068D01*
X94877441Y-61350605D01*
X94998066Y-61317719D01*
X94998068Y-61317718D01*
X95006725Y-61315358D01*
X95128899Y-61240343D01*
X95225108Y-61134052D01*
X95287618Y-61005031D01*
X95311404Y-60863652D01*
X95311555Y-60851298D01*
X95291231Y-60709380D01*
X95291233Y-60709380D01*
X95291310Y-60642908D01*
X95329762Y-60583226D01*
X95394377Y-60553807D01*
X95466229Y-60564792D01*
X95473393Y-60569561D01*
X95610237Y-60612313D01*
X95619209Y-60612477D01*
X95619212Y-60612478D01*
X95684543Y-60613675D01*
X95753579Y-60614941D01*
X95762613Y-60612478D01*
X95883238Y-60579592D01*
X95883240Y-60579591D01*
X95891897Y-60577231D01*
X96014071Y-60502216D01*
X96046646Y-60466228D01*
X96104258Y-60402578D01*
X96110280Y-60395925D01*
X96172790Y-60266904D01*
X96196576Y-60125525D01*
X96196727Y-60113171D01*
X96188553Y-60056095D01*
X96177676Y-59980139D01*
X96177675Y-59980136D01*
X96176403Y-59971253D01*
X96117064Y-59840743D01*
X96098678Y-59819405D01*
X96029340Y-59738934D01*
X96029337Y-59738931D01*
X96023480Y-59732134D01*
X95903175Y-59654156D01*
X95765819Y-59613078D01*
X95756843Y-59613023D01*
X95756842Y-59613023D01*
X95696635Y-59612655D01*
X95622456Y-59612202D01*
X95484609Y-59651599D01*
X95363360Y-59728101D01*
X95268457Y-59835559D01*
X95207527Y-59965334D01*
X95203456Y-59991481D01*
X95188510Y-60087476D01*
X95185471Y-60106994D01*
X95186635Y-60115896D01*
X95186635Y-60115899D01*
X95200140Y-60219174D01*
X95204060Y-60249150D01*
X95206111Y-60253811D01*
X95205189Y-60322848D01*
X95166012Y-60382056D01*
X95101043Y-60410685D01*
X95031927Y-60400119D01*
X95025537Y-60397166D01*
X95018003Y-60392283D01*
X95009404Y-60389711D01*
X95009401Y-60389710D01*
X94920956Y-60363260D01*
X94880647Y-60351205D01*
X94871671Y-60351150D01*
X94871670Y-60351150D01*
X94811463Y-60350782D01*
X94737284Y-60350329D01*
X94599437Y-60389726D01*
X94478188Y-60466228D01*
X94383285Y-60573686D01*
X94322355Y-60703461D01*
X94300299Y-60845121D01*
X71365386Y-60845121D01*
X71089882Y-60400354D01*
X71087079Y-60395599D01*
X71079490Y-60382056D01*
X70703574Y-59711227D01*
X93168238Y-59711227D01*
X93169402Y-59720129D01*
X93169402Y-59720132D01*
X93170661Y-59729758D01*
X93186827Y-59853383D01*
X93244567Y-59984607D01*
X93250344Y-59991480D01*
X93250345Y-59991481D01*
X93257639Y-60000158D01*
X93336817Y-60094352D01*
X93456160Y-60173794D01*
X93593004Y-60216546D01*
X93601976Y-60216710D01*
X93601979Y-60216711D01*
X93667310Y-60217908D01*
X93736346Y-60219174D01*
X93745380Y-60216711D01*
X93866005Y-60183825D01*
X93866007Y-60183824D01*
X93874664Y-60181464D01*
X93996838Y-60106449D01*
X94093047Y-60000158D01*
X94155557Y-59871137D01*
X94179343Y-59729758D01*
X94179494Y-59717404D01*
X94170068Y-59651583D01*
X94160443Y-59584372D01*
X94160442Y-59584369D01*
X94159170Y-59575486D01*
X94155456Y-59567318D01*
X94152935Y-59558696D01*
X94155552Y-59557931D01*
X94147551Y-59501598D01*
X94177155Y-59437068D01*
X94236946Y-59398786D01*
X94307943Y-59398908D01*
X94342059Y-59414857D01*
X94353516Y-59422484D01*
X94490360Y-59465236D01*
X94499332Y-59465400D01*
X94499335Y-59465401D01*
X94564666Y-59466598D01*
X94633702Y-59467864D01*
X94642736Y-59465401D01*
X94763361Y-59432515D01*
X94763363Y-59432514D01*
X94772020Y-59430154D01*
X94894194Y-59355139D01*
X94911186Y-59336367D01*
X94984381Y-59255501D01*
X94990403Y-59248848D01*
X95052913Y-59119827D01*
X95076699Y-58978448D01*
X95076850Y-58966094D01*
X95068676Y-58909018D01*
X95057799Y-58833062D01*
X95057798Y-58833059D01*
X95056526Y-58824176D01*
X94997187Y-58693666D01*
X94978801Y-58672328D01*
X94909463Y-58591857D01*
X94909460Y-58591854D01*
X94903603Y-58585057D01*
X94783298Y-58507079D01*
X94645942Y-58466001D01*
X94636966Y-58465946D01*
X94636965Y-58465946D01*
X94576758Y-58465578D01*
X94502579Y-58465125D01*
X94364732Y-58504522D01*
X94243483Y-58581024D01*
X94148580Y-58688482D01*
X94087650Y-58818257D01*
X94086269Y-58827129D01*
X94070046Y-58931325D01*
X94065594Y-58959917D01*
X94066758Y-58968819D01*
X94066758Y-58968822D01*
X94068017Y-58978448D01*
X94084183Y-59102073D01*
X94089821Y-59114887D01*
X94098949Y-59185292D01*
X94068563Y-59249458D01*
X94008310Y-59287009D01*
X93937320Y-59286024D01*
X93905960Y-59271364D01*
X93893480Y-59263275D01*
X93893481Y-59263275D01*
X93885942Y-59258389D01*
X93748586Y-59217311D01*
X93739610Y-59217256D01*
X93739609Y-59217256D01*
X93679402Y-59216888D01*
X93605223Y-59216435D01*
X93467376Y-59255832D01*
X93346127Y-59332334D01*
X93251224Y-59439792D01*
X93190294Y-59569567D01*
X93183272Y-59614669D01*
X93177735Y-59650233D01*
X93168238Y-59711227D01*
X70703574Y-59711227D01*
X70670727Y-59652611D01*
X70668150Y-59647766D01*
X70650635Y-59613023D01*
X70517268Y-59348485D01*
X70284756Y-58887289D01*
X70282379Y-58882307D01*
X69932646Y-58105738D01*
X69930490Y-58100656D01*
X69693746Y-57506783D01*
X69615102Y-57309505D01*
X69613187Y-57304376D01*
X69348652Y-56545764D01*
X69341626Y-56504207D01*
X69342001Y-55850594D01*
X69342461Y-55046939D01*
X98277505Y-55046939D01*
X98309218Y-55154692D01*
X98313811Y-55166060D01*
X98399687Y-55330325D01*
X98406401Y-55340586D01*
X98522548Y-55485044D01*
X98531126Y-55493803D01*
X98673119Y-55612949D01*
X98683239Y-55619879D01*
X98845665Y-55709173D01*
X98856938Y-55714005D01*
X99033618Y-55770051D01*
X99045612Y-55772601D01*
X99189841Y-55788778D01*
X99196865Y-55789171D01*
X99527965Y-55789171D01*
X99543204Y-55784696D01*
X99544409Y-55783306D01*
X99546080Y-55775623D01*
X99546080Y-55771056D01*
X100054080Y-55771056D01*
X100058555Y-55786295D01*
X100059945Y-55787500D01*
X100067628Y-55789171D01*
X100396737Y-55789171D01*
X100402885Y-55788870D01*
X100540683Y-55775359D01*
X100552718Y-55772976D01*
X100730156Y-55719404D01*
X100741496Y-55714730D01*
X100905157Y-55627711D01*
X100915374Y-55620922D01*
X101059013Y-55503774D01*
X101067717Y-55495130D01*
X101185864Y-55352315D01*
X101192724Y-55342144D01*
X101280884Y-55179095D01*
X101285636Y-55167790D01*
X101321330Y-55052479D01*
X101321411Y-55046939D01*
X102707505Y-55046939D01*
X102739218Y-55154692D01*
X102743811Y-55166060D01*
X102829687Y-55330325D01*
X102836401Y-55340586D01*
X102952548Y-55485044D01*
X102961126Y-55493803D01*
X103103119Y-55612949D01*
X103113239Y-55619879D01*
X103275665Y-55709173D01*
X103286938Y-55714005D01*
X103463618Y-55770051D01*
X103475612Y-55772601D01*
X103619841Y-55788778D01*
X103626865Y-55789171D01*
X103707965Y-55789171D01*
X103723204Y-55784696D01*
X103724409Y-55783306D01*
X103726080Y-55775623D01*
X103726080Y-55771056D01*
X104234080Y-55771056D01*
X104238555Y-55786295D01*
X104239945Y-55787500D01*
X104247628Y-55789171D01*
X104326737Y-55789171D01*
X104332885Y-55788870D01*
X104470683Y-55775359D01*
X104482718Y-55772976D01*
X104660156Y-55719404D01*
X104671496Y-55714730D01*
X104835157Y-55627711D01*
X104845374Y-55620922D01*
X104989013Y-55503774D01*
X104997717Y-55495130D01*
X105115864Y-55352315D01*
X105122724Y-55342144D01*
X105210884Y-55179095D01*
X105215636Y-55167790D01*
X105251330Y-55052479D01*
X105251536Y-55038376D01*
X105244781Y-55035171D01*
X104252195Y-55035171D01*
X104236956Y-55039646D01*
X104235751Y-55041036D01*
X104234080Y-55048719D01*
X104234080Y-55771056D01*
X103726080Y-55771056D01*
X103726080Y-55053286D01*
X103721605Y-55038047D01*
X103720215Y-55036842D01*
X103712532Y-55035171D01*
X102722156Y-55035171D01*
X102708625Y-55039144D01*
X102707505Y-55046939D01*
X101321411Y-55046939D01*
X101321536Y-55038376D01*
X101314781Y-55035171D01*
X100072195Y-55035171D01*
X100056956Y-55039646D01*
X100055751Y-55041036D01*
X100054080Y-55048719D01*
X100054080Y-55771056D01*
X99546080Y-55771056D01*
X99546080Y-55053286D01*
X99541605Y-55038047D01*
X99540215Y-55036842D01*
X99532532Y-55035171D01*
X98292156Y-55035171D01*
X98278625Y-55039144D01*
X98277505Y-55046939D01*
X69342461Y-55046939D01*
X69342761Y-54523966D01*
X98278624Y-54523966D01*
X98285379Y-54527171D01*
X101308004Y-54527171D01*
X101318919Y-54523966D01*
X102708624Y-54523966D01*
X102715379Y-54527171D01*
X103707965Y-54527171D01*
X103723204Y-54522696D01*
X103724409Y-54521306D01*
X103726080Y-54513623D01*
X103726080Y-54509056D01*
X104234080Y-54509056D01*
X104238555Y-54524295D01*
X104239945Y-54525500D01*
X104247628Y-54527171D01*
X105238004Y-54527171D01*
X105251535Y-54523198D01*
X105252655Y-54515403D01*
X105220942Y-54407650D01*
X105216349Y-54396282D01*
X105130473Y-54232017D01*
X105123759Y-54221756D01*
X105007612Y-54077298D01*
X104999034Y-54068539D01*
X104857041Y-53949393D01*
X104846921Y-53942463D01*
X104684495Y-53853169D01*
X104673222Y-53848337D01*
X104496542Y-53792291D01*
X104484548Y-53789741D01*
X104340319Y-53773564D01*
X104333295Y-53773171D01*
X104252195Y-53773171D01*
X104236956Y-53777646D01*
X104235751Y-53779036D01*
X104234080Y-53786719D01*
X104234080Y-54509056D01*
X103726080Y-54509056D01*
X103726080Y-53791286D01*
X103721605Y-53776047D01*
X103720215Y-53774842D01*
X103712532Y-53773171D01*
X103633423Y-53773171D01*
X103627275Y-53773472D01*
X103489477Y-53786983D01*
X103477442Y-53789366D01*
X103300004Y-53842938D01*
X103288664Y-53847612D01*
X103125003Y-53934631D01*
X103114786Y-53941420D01*
X102971147Y-54058568D01*
X102962443Y-54067212D01*
X102844296Y-54210027D01*
X102837436Y-54220198D01*
X102749276Y-54383247D01*
X102744524Y-54394552D01*
X102708830Y-54509863D01*
X102708624Y-54523966D01*
X101318919Y-54523966D01*
X101321535Y-54523198D01*
X101322655Y-54515403D01*
X101290942Y-54407650D01*
X101286349Y-54396282D01*
X101200473Y-54232017D01*
X101193759Y-54221756D01*
X101077612Y-54077298D01*
X101069034Y-54068539D01*
X100927041Y-53949393D01*
X100916928Y-53942469D01*
X100823864Y-53891306D01*
X100773805Y-53840960D01*
X100758912Y-53771543D01*
X100784601Y-53704189D01*
X100832778Y-53641404D01*
X100890767Y-53501407D01*
X100910546Y-53351171D01*
X100890767Y-53200935D01*
X100832778Y-53060938D01*
X100740531Y-52940720D01*
X100620313Y-52848473D01*
X100480316Y-52790484D01*
X100367800Y-52775671D01*
X100292360Y-52775671D01*
X100179844Y-52790484D01*
X100039847Y-52848473D01*
X99919629Y-52940720D01*
X99827382Y-53060938D01*
X99769393Y-53200935D01*
X99749614Y-53351171D01*
X99769393Y-53501407D01*
X99772553Y-53509036D01*
X99809798Y-53598953D01*
X99817387Y-53669543D01*
X99785608Y-53733030D01*
X99724550Y-53769257D01*
X99693389Y-53773171D01*
X99203423Y-53773171D01*
X99197275Y-53773472D01*
X99059477Y-53786983D01*
X99047442Y-53789366D01*
X98870004Y-53842938D01*
X98858664Y-53847612D01*
X98695003Y-53934631D01*
X98684786Y-53941420D01*
X98541147Y-54058568D01*
X98532443Y-54067212D01*
X98414296Y-54210027D01*
X98407436Y-54220198D01*
X98319276Y-54383247D01*
X98314524Y-54394552D01*
X98278830Y-54509863D01*
X98278624Y-54523966D01*
X69342761Y-54523966D01*
X69344373Y-51710126D01*
X76358868Y-51710126D01*
X76360032Y-51719028D01*
X76360032Y-51719031D01*
X76361291Y-51728657D01*
X76377457Y-51852282D01*
X76435197Y-51983506D01*
X76440974Y-51990379D01*
X76440975Y-51990380D01*
X76448269Y-51999057D01*
X76527447Y-52093251D01*
X76646790Y-52172693D01*
X76783634Y-52215445D01*
X76792606Y-52215609D01*
X76792609Y-52215610D01*
X76857940Y-52216807D01*
X76926976Y-52218073D01*
X76936010Y-52215610D01*
X77056635Y-52182724D01*
X77056637Y-52182723D01*
X77065294Y-52180363D01*
X77187468Y-52105348D01*
X77283677Y-51999057D01*
X77346187Y-51870036D01*
X77369973Y-51728657D01*
X77370124Y-51716303D01*
X77349800Y-51574385D01*
X77345707Y-51565382D01*
X77345579Y-51564483D01*
X77343565Y-51557595D01*
X77344559Y-51557304D01*
X77335720Y-51495093D01*
X77365321Y-51430561D01*
X77394476Y-51405860D01*
X77472071Y-51358216D01*
X77568280Y-51251925D01*
X77630790Y-51122904D01*
X77654576Y-50981525D01*
X77654727Y-50969171D01*
X77636672Y-50843096D01*
X77635676Y-50836139D01*
X77635675Y-50836136D01*
X77634403Y-50827253D01*
X77575064Y-50696743D01*
X77504547Y-50614904D01*
X77487340Y-50594934D01*
X77487337Y-50594931D01*
X77481480Y-50588134D01*
X77361175Y-50510156D01*
X77223819Y-50469078D01*
X77214843Y-50469023D01*
X77214842Y-50469023D01*
X77154635Y-50468655D01*
X77080456Y-50468202D01*
X76942609Y-50507599D01*
X76821360Y-50584101D01*
X76815418Y-50590829D01*
X76815417Y-50590830D01*
X76802576Y-50605370D01*
X76726457Y-50691559D01*
X76665527Y-50821334D01*
X76663222Y-50836139D01*
X76649351Y-50925231D01*
X76643471Y-50962994D01*
X76644635Y-50971896D01*
X76644635Y-50971899D01*
X76645894Y-50981525D01*
X76662060Y-51105150D01*
X76668968Y-51120850D01*
X76678097Y-51191256D01*
X76647712Y-51255422D01*
X76620876Y-51278158D01*
X76536757Y-51331233D01*
X76530815Y-51337961D01*
X76530814Y-51337962D01*
X76508780Y-51362911D01*
X76441854Y-51438691D01*
X76380924Y-51568466D01*
X76358868Y-51710126D01*
X69344373Y-51710126D01*
X69345092Y-50454994D01*
X72138471Y-50454994D01*
X72139635Y-50463896D01*
X72139635Y-50463899D01*
X72140649Y-50471651D01*
X72157060Y-50597150D01*
X72160677Y-50605370D01*
X72202177Y-50699685D01*
X72214800Y-50728374D01*
X72220577Y-50735247D01*
X72220578Y-50735248D01*
X72227872Y-50743925D01*
X72307050Y-50838119D01*
X72426393Y-50917561D01*
X72563237Y-50960313D01*
X72572209Y-50960477D01*
X72572212Y-50960478D01*
X72637543Y-50961675D01*
X72706579Y-50962941D01*
X72715613Y-50960478D01*
X72836238Y-50927592D01*
X72836240Y-50927591D01*
X72844897Y-50925231D01*
X72967071Y-50850216D01*
X72993214Y-50821334D01*
X73057258Y-50750578D01*
X73063280Y-50743925D01*
X73125790Y-50614904D01*
X73149576Y-50473525D01*
X73149727Y-50461171D01*
X73129403Y-50319253D01*
X73070064Y-50188743D01*
X73051678Y-50167405D01*
X72982340Y-50086934D01*
X72982337Y-50086931D01*
X72976480Y-50080134D01*
X72856175Y-50002156D01*
X72718819Y-49961078D01*
X72709843Y-49961023D01*
X72709842Y-49961023D01*
X72649635Y-49960655D01*
X72575456Y-49960202D01*
X72437609Y-49999599D01*
X72316360Y-50076101D01*
X72221457Y-50183559D01*
X72160527Y-50313334D01*
X72138471Y-50454994D01*
X69345092Y-50454994D01*
X69346183Y-48549994D01*
X75754471Y-48549994D01*
X75755635Y-48558896D01*
X75755635Y-48558899D01*
X75756894Y-48568525D01*
X75773060Y-48692150D01*
X75830800Y-48823374D01*
X75836577Y-48830247D01*
X75836578Y-48830248D01*
X75843872Y-48838925D01*
X75923050Y-48933119D01*
X76042393Y-49012561D01*
X76179237Y-49055313D01*
X76188209Y-49055477D01*
X76188212Y-49055478D01*
X76253543Y-49056675D01*
X76322579Y-49057941D01*
X76331613Y-49055478D01*
X76452238Y-49022592D01*
X76452240Y-49022591D01*
X76460897Y-49020231D01*
X76583071Y-48945216D01*
X76679280Y-48838925D01*
X76741790Y-48709904D01*
X76765576Y-48568525D01*
X76765727Y-48556171D01*
X76745403Y-48414253D01*
X76686064Y-48283743D01*
X76667678Y-48262405D01*
X76598340Y-48181934D01*
X76598337Y-48181931D01*
X76592480Y-48175134D01*
X76472175Y-48097156D01*
X76334819Y-48056078D01*
X76325843Y-48056023D01*
X76325842Y-48056023D01*
X76265635Y-48055655D01*
X76191456Y-48055202D01*
X76053609Y-48094599D01*
X75932360Y-48171101D01*
X75837457Y-48278559D01*
X75776527Y-48408334D01*
X75754471Y-48549994D01*
X69346183Y-48549994D01*
X69346336Y-48283743D01*
X69347411Y-46406939D01*
X98277505Y-46406939D01*
X98309218Y-46514692D01*
X98313811Y-46526060D01*
X98399687Y-46690325D01*
X98406401Y-46700586D01*
X98522548Y-46845044D01*
X98531126Y-46853803D01*
X98673119Y-46972949D01*
X98683239Y-46979879D01*
X98845665Y-47069173D01*
X98856938Y-47074005D01*
X99033618Y-47130051D01*
X99045612Y-47132601D01*
X99189841Y-47148778D01*
X99196865Y-47149171D01*
X99693389Y-47149171D01*
X99761510Y-47169173D01*
X99808003Y-47222829D01*
X99818107Y-47293103D01*
X99809798Y-47323389D01*
X99769393Y-47420935D01*
X99749614Y-47571171D01*
X99769393Y-47721407D01*
X99827382Y-47861404D01*
X99919629Y-47981622D01*
X100039847Y-48073869D01*
X100179844Y-48131858D01*
X100292360Y-48146671D01*
X100367800Y-48146671D01*
X100480316Y-48131858D01*
X100620313Y-48073869D01*
X100740531Y-47981622D01*
X100832778Y-47861404D01*
X100890767Y-47721407D01*
X100910546Y-47571171D01*
X100890767Y-47420935D01*
X100832778Y-47280938D01*
X100784555Y-47218093D01*
X100758954Y-47151873D01*
X100773219Y-47082324D01*
X100825364Y-47030137D01*
X100905157Y-46987711D01*
X100915374Y-46980922D01*
X101059013Y-46863774D01*
X101067717Y-46855130D01*
X101185864Y-46712315D01*
X101192724Y-46702144D01*
X101280884Y-46539095D01*
X101285636Y-46527790D01*
X101321330Y-46412479D01*
X101321411Y-46406939D01*
X102707505Y-46406939D01*
X102739218Y-46514692D01*
X102743811Y-46526060D01*
X102829687Y-46690325D01*
X102836401Y-46700586D01*
X102952548Y-46845044D01*
X102961126Y-46853803D01*
X103103119Y-46972949D01*
X103113239Y-46979879D01*
X103275665Y-47069173D01*
X103286938Y-47074005D01*
X103463618Y-47130051D01*
X103475612Y-47132601D01*
X103619841Y-47148778D01*
X103626865Y-47149171D01*
X103707965Y-47149171D01*
X103723204Y-47144696D01*
X103724409Y-47143306D01*
X103726080Y-47135623D01*
X103726080Y-47131056D01*
X104234080Y-47131056D01*
X104238555Y-47146295D01*
X104239945Y-47147500D01*
X104247628Y-47149171D01*
X104326737Y-47149171D01*
X104332885Y-47148870D01*
X104470683Y-47135359D01*
X104482718Y-47132976D01*
X104660156Y-47079404D01*
X104671496Y-47074730D01*
X104835157Y-46987711D01*
X104845374Y-46980922D01*
X104989013Y-46863774D01*
X104997717Y-46855130D01*
X105115864Y-46712315D01*
X105122724Y-46702144D01*
X105210884Y-46539095D01*
X105215636Y-46527790D01*
X105251330Y-46412479D01*
X105251536Y-46398376D01*
X105244781Y-46395171D01*
X104252195Y-46395171D01*
X104236956Y-46399646D01*
X104235751Y-46401036D01*
X104234080Y-46408719D01*
X104234080Y-47131056D01*
X103726080Y-47131056D01*
X103726080Y-46413286D01*
X103721605Y-46398047D01*
X103720215Y-46396842D01*
X103712532Y-46395171D01*
X102722156Y-46395171D01*
X102708625Y-46399144D01*
X102707505Y-46406939D01*
X101321411Y-46406939D01*
X101321536Y-46398376D01*
X101314781Y-46395171D01*
X98292156Y-46395171D01*
X98278625Y-46399144D01*
X98277505Y-46406939D01*
X69347411Y-46406939D01*
X69347710Y-45883966D01*
X98278624Y-45883966D01*
X98285379Y-45887171D01*
X99527965Y-45887171D01*
X99543204Y-45882696D01*
X99544409Y-45881306D01*
X99546080Y-45873623D01*
X99546080Y-45869056D01*
X100054080Y-45869056D01*
X100058555Y-45884295D01*
X100059945Y-45885500D01*
X100067628Y-45887171D01*
X101308004Y-45887171D01*
X101318919Y-45883966D01*
X102708624Y-45883966D01*
X102715379Y-45887171D01*
X103707965Y-45887171D01*
X103723204Y-45882696D01*
X103724409Y-45881306D01*
X103726080Y-45873623D01*
X103726080Y-45869056D01*
X104234080Y-45869056D01*
X104238555Y-45884295D01*
X104239945Y-45885500D01*
X104247628Y-45887171D01*
X105238004Y-45887171D01*
X105251535Y-45883198D01*
X105252655Y-45875403D01*
X105220942Y-45767650D01*
X105216349Y-45756282D01*
X105130473Y-45592017D01*
X105123759Y-45581756D01*
X105007612Y-45437298D01*
X104999034Y-45428539D01*
X104857041Y-45309393D01*
X104846921Y-45302463D01*
X104684495Y-45213169D01*
X104673222Y-45208337D01*
X104496542Y-45152291D01*
X104484548Y-45149741D01*
X104340319Y-45133564D01*
X104333295Y-45133171D01*
X104252195Y-45133171D01*
X104236956Y-45137646D01*
X104235751Y-45139036D01*
X104234080Y-45146719D01*
X104234080Y-45869056D01*
X103726080Y-45869056D01*
X103726080Y-45151286D01*
X103721605Y-45136047D01*
X103720215Y-45134842D01*
X103712532Y-45133171D01*
X103633423Y-45133171D01*
X103627275Y-45133472D01*
X103489477Y-45146983D01*
X103477442Y-45149366D01*
X103300004Y-45202938D01*
X103288664Y-45207612D01*
X103125003Y-45294631D01*
X103114786Y-45301420D01*
X102971147Y-45418568D01*
X102962443Y-45427212D01*
X102844296Y-45570027D01*
X102837436Y-45580198D01*
X102749276Y-45743247D01*
X102744524Y-45754552D01*
X102708830Y-45869863D01*
X102708624Y-45883966D01*
X101318919Y-45883966D01*
X101321535Y-45883198D01*
X101322655Y-45875403D01*
X101290942Y-45767650D01*
X101286349Y-45756282D01*
X101200473Y-45592017D01*
X101193759Y-45581756D01*
X101077612Y-45437298D01*
X101069034Y-45428539D01*
X100927041Y-45309393D01*
X100916921Y-45302463D01*
X100754495Y-45213169D01*
X100743222Y-45208337D01*
X100566542Y-45152291D01*
X100554548Y-45149741D01*
X100410319Y-45133564D01*
X100403295Y-45133171D01*
X100072195Y-45133171D01*
X100056956Y-45137646D01*
X100055751Y-45139036D01*
X100054080Y-45146719D01*
X100054080Y-45869056D01*
X99546080Y-45869056D01*
X99546080Y-45151286D01*
X99541605Y-45136047D01*
X99540215Y-45134842D01*
X99532532Y-45133171D01*
X99203423Y-45133171D01*
X99197275Y-45133472D01*
X99059477Y-45146983D01*
X99047442Y-45149366D01*
X98870004Y-45202938D01*
X98858664Y-45207612D01*
X98695003Y-45294631D01*
X98684786Y-45301420D01*
X98541147Y-45418568D01*
X98532443Y-45427212D01*
X98414296Y-45570027D01*
X98407436Y-45580198D01*
X98319276Y-45743247D01*
X98314524Y-45754552D01*
X98278830Y-45869863D01*
X98278624Y-45883966D01*
X69347710Y-45883966D01*
X69348220Y-44993994D01*
X76643471Y-44993994D01*
X76644635Y-45002896D01*
X76644635Y-45002899D01*
X76645894Y-45012525D01*
X76662060Y-45136150D01*
X76719800Y-45267374D01*
X76725577Y-45274247D01*
X76725578Y-45274248D01*
X76806270Y-45370243D01*
X76812050Y-45377119D01*
X76819527Y-45382096D01*
X76889297Y-45428539D01*
X76931393Y-45456561D01*
X77068237Y-45499313D01*
X77077209Y-45499477D01*
X77077212Y-45499478D01*
X77142543Y-45500675D01*
X77211579Y-45501941D01*
X77220613Y-45499478D01*
X77341238Y-45466592D01*
X77341240Y-45466591D01*
X77349897Y-45464231D01*
X77472071Y-45389216D01*
X77568280Y-45282925D01*
X77603169Y-45210914D01*
X77626875Y-45161985D01*
X77626875Y-45161984D01*
X77630790Y-45153904D01*
X77654576Y-45012525D01*
X77654727Y-45000171D01*
X77634403Y-44858253D01*
X77575064Y-44727743D01*
X77556678Y-44706405D01*
X77487340Y-44625934D01*
X77487337Y-44625931D01*
X77481480Y-44619134D01*
X77361175Y-44541156D01*
X77223819Y-44500078D01*
X77214843Y-44500023D01*
X77214842Y-44500023D01*
X77154635Y-44499655D01*
X77080456Y-44499202D01*
X76942609Y-44538599D01*
X76821360Y-44615101D01*
X76726457Y-44722559D01*
X76665527Y-44852334D01*
X76643471Y-44993994D01*
X69348220Y-44993994D01*
X69348549Y-44420234D01*
X69355548Y-44378897D01*
X69617029Y-43627462D01*
X69618940Y-43622332D01*
X69930577Y-42838262D01*
X69932708Y-42833221D01*
X70278118Y-42063389D01*
X70280467Y-42058445D01*
X70658972Y-41304364D01*
X70661533Y-41299527D01*
X70867576Y-40929994D01*
X75627471Y-40929994D01*
X75628635Y-40938896D01*
X75628635Y-40938899D01*
X75630617Y-40954052D01*
X75646060Y-41072150D01*
X75649677Y-41080370D01*
X75698603Y-41191562D01*
X75703800Y-41203374D01*
X75709577Y-41210247D01*
X75709578Y-41210248D01*
X75751203Y-41259767D01*
X75796050Y-41313119D01*
X75804227Y-41318562D01*
X75885901Y-41372929D01*
X75915393Y-41392561D01*
X76052237Y-41435313D01*
X76061209Y-41435477D01*
X76061212Y-41435478D01*
X76126543Y-41436675D01*
X76195579Y-41437941D01*
X76204613Y-41435478D01*
X76325238Y-41402592D01*
X76325240Y-41402591D01*
X76333897Y-41400231D01*
X76456071Y-41325216D01*
X76463387Y-41317134D01*
X76536297Y-41236583D01*
X76552280Y-41218925D01*
X76604038Y-41112097D01*
X76610875Y-41097985D01*
X76610875Y-41097984D01*
X76614790Y-41089904D01*
X76638576Y-40948525D01*
X76638727Y-40936171D01*
X76630553Y-40879095D01*
X76619676Y-40803139D01*
X76619675Y-40803136D01*
X76619655Y-40802994D01*
X92137471Y-40802994D01*
X92138635Y-40811896D01*
X92138635Y-40811899D01*
X92139894Y-40821525D01*
X92156060Y-40945150D01*
X92213800Y-41076374D01*
X92219577Y-41083247D01*
X92219578Y-41083248D01*
X92225173Y-41089904D01*
X92306050Y-41186119D01*
X92425393Y-41265561D01*
X92562237Y-41308313D01*
X92571209Y-41308477D01*
X92571212Y-41308478D01*
X92636543Y-41309675D01*
X92705579Y-41310941D01*
X92714613Y-41308478D01*
X92835238Y-41275592D01*
X92835240Y-41275591D01*
X92843897Y-41273231D01*
X92966071Y-41198216D01*
X93062280Y-41091925D01*
X93124790Y-40962904D01*
X93130327Y-40929994D01*
X95058471Y-40929994D01*
X95059635Y-40938896D01*
X95059635Y-40938899D01*
X95061617Y-40954052D01*
X95077060Y-41072150D01*
X95080677Y-41080370D01*
X95129603Y-41191562D01*
X95134800Y-41203374D01*
X95140577Y-41210247D01*
X95140578Y-41210248D01*
X95182203Y-41259767D01*
X95227050Y-41313119D01*
X95235227Y-41318562D01*
X95316901Y-41372929D01*
X95346393Y-41392561D01*
X95483237Y-41435313D01*
X95492209Y-41435477D01*
X95492212Y-41435478D01*
X95557543Y-41436675D01*
X95626579Y-41437941D01*
X95635613Y-41435478D01*
X95756238Y-41402592D01*
X95756240Y-41402591D01*
X95764897Y-41400231D01*
X95887071Y-41325216D01*
X95893516Y-41318096D01*
X95914139Y-41295312D01*
X95974682Y-41258230D01*
X96045662Y-41259767D01*
X96104004Y-41298789D01*
X96116050Y-41313119D01*
X96124227Y-41318562D01*
X96205901Y-41372929D01*
X96235393Y-41392561D01*
X96306101Y-41414651D01*
X96365156Y-41454055D01*
X96393533Y-41519133D01*
X96382222Y-41589223D01*
X96335761Y-41641479D01*
X96252360Y-41694101D01*
X96157457Y-41801559D01*
X96096527Y-41931334D01*
X96088806Y-41980925D01*
X96083489Y-42015076D01*
X96074471Y-42072994D01*
X96075635Y-42081896D01*
X96075635Y-42081899D01*
X96077521Y-42096320D01*
X96093060Y-42215150D01*
X96150800Y-42346374D01*
X96156577Y-42353247D01*
X96156578Y-42353248D01*
X96163872Y-42361925D01*
X96243050Y-42456119D01*
X96362393Y-42535561D01*
X96499237Y-42578313D01*
X96508209Y-42578477D01*
X96508212Y-42578478D01*
X96573543Y-42579675D01*
X96642579Y-42580941D01*
X96651613Y-42578478D01*
X96772238Y-42545592D01*
X96772240Y-42545591D01*
X96780897Y-42543231D01*
X96903071Y-42468216D01*
X96999280Y-42361925D01*
X97061790Y-42232904D01*
X97085576Y-42091525D01*
X97085727Y-42079171D01*
X97070415Y-41972248D01*
X97066676Y-41946139D01*
X97066675Y-41946136D01*
X97065403Y-41937253D01*
X97006064Y-41806743D01*
X96987678Y-41785405D01*
X96918340Y-41704934D01*
X96918337Y-41704931D01*
X96912480Y-41698134D01*
X96903007Y-41691994D01*
X98106471Y-41691994D01*
X98107635Y-41700896D01*
X98107635Y-41700899D01*
X98108894Y-41710525D01*
X98125060Y-41834150D01*
X98182800Y-41965374D01*
X98188577Y-41972247D01*
X98188578Y-41972248D01*
X98195872Y-41980925D01*
X98275050Y-42075119D01*
X98394393Y-42154561D01*
X98531237Y-42197313D01*
X98540209Y-42197477D01*
X98540212Y-42197478D01*
X98605543Y-42198675D01*
X98674579Y-42199941D01*
X98683613Y-42197478D01*
X98804238Y-42164592D01*
X98804240Y-42164591D01*
X98812897Y-42162231D01*
X98935071Y-42087216D01*
X99031280Y-41980925D01*
X99093790Y-41851904D01*
X99117576Y-41710525D01*
X99117727Y-41698171D01*
X99100672Y-41579078D01*
X99098676Y-41565139D01*
X99098675Y-41565136D01*
X99097403Y-41556253D01*
X99038064Y-41425743D01*
X99011779Y-41395238D01*
X98950340Y-41323934D01*
X98950337Y-41323931D01*
X98944480Y-41317134D01*
X98824175Y-41239156D01*
X98686819Y-41198078D01*
X98677843Y-41198023D01*
X98677842Y-41198023D01*
X98617635Y-41197655D01*
X98543456Y-41197202D01*
X98405609Y-41236599D01*
X98284360Y-41313101D01*
X98189457Y-41420559D01*
X98128527Y-41550334D01*
X98106471Y-41691994D01*
X96903007Y-41691994D01*
X96792175Y-41620156D01*
X96783571Y-41617583D01*
X96783569Y-41617582D01*
X96751868Y-41608102D01*
X96728190Y-41601021D01*
X96668657Y-41562340D01*
X96639487Y-41497613D01*
X96649941Y-41427390D01*
X96698363Y-41372929D01*
X96717289Y-41361308D01*
X96776071Y-41325216D01*
X96783387Y-41317134D01*
X96856297Y-41236583D01*
X96872280Y-41218925D01*
X96924038Y-41112097D01*
X96930875Y-41097985D01*
X96930875Y-41097984D01*
X96934790Y-41089904D01*
X96958576Y-40948525D01*
X96958727Y-40936171D01*
X96950553Y-40879095D01*
X96939676Y-40803139D01*
X96939675Y-40803136D01*
X96938403Y-40794253D01*
X96879064Y-40663743D01*
X96860678Y-40642405D01*
X96791340Y-40561934D01*
X96791337Y-40561931D01*
X96785480Y-40555134D01*
X96665175Y-40477156D01*
X96527819Y-40436078D01*
X96518843Y-40436023D01*
X96518842Y-40436023D01*
X96458635Y-40435655D01*
X96384456Y-40435202D01*
X96246609Y-40474599D01*
X96125360Y-40551101D01*
X96119419Y-40557828D01*
X96119413Y-40557833D01*
X96103362Y-40576008D01*
X96043277Y-40613827D01*
X95972283Y-40613157D01*
X95913469Y-40574850D01*
X95902341Y-40561935D01*
X95902338Y-40561932D01*
X95896480Y-40555134D01*
X95776175Y-40477156D01*
X95638819Y-40436078D01*
X95629843Y-40436023D01*
X95629842Y-40436023D01*
X95569635Y-40435655D01*
X95495456Y-40435202D01*
X95357609Y-40474599D01*
X95236360Y-40551101D01*
X95230418Y-40557829D01*
X95230417Y-40557830D01*
X95230383Y-40557869D01*
X95141457Y-40658559D01*
X95080527Y-40788334D01*
X95058471Y-40929994D01*
X93130327Y-40929994D01*
X93148576Y-40821525D01*
X93148727Y-40809171D01*
X93140553Y-40752095D01*
X93129676Y-40676139D01*
X93129675Y-40676136D01*
X93128403Y-40667253D01*
X93069064Y-40536743D01*
X93050678Y-40515405D01*
X92981340Y-40434934D01*
X92981337Y-40434931D01*
X92975480Y-40428134D01*
X92855175Y-40350156D01*
X92717819Y-40309078D01*
X92708843Y-40309023D01*
X92708842Y-40309023D01*
X92648635Y-40308655D01*
X92574456Y-40308202D01*
X92436609Y-40347599D01*
X92315360Y-40424101D01*
X92220457Y-40531559D01*
X92159527Y-40661334D01*
X92157222Y-40676139D01*
X92139754Y-40788334D01*
X92137471Y-40802994D01*
X76619655Y-40802994D01*
X76618403Y-40794253D01*
X76559064Y-40663743D01*
X76540678Y-40642405D01*
X76471340Y-40561934D01*
X76471337Y-40561931D01*
X76465480Y-40555134D01*
X76345175Y-40477156D01*
X76207819Y-40436078D01*
X76198843Y-40436023D01*
X76198842Y-40436023D01*
X76138635Y-40435655D01*
X76064456Y-40435202D01*
X75926609Y-40474599D01*
X75805360Y-40551101D01*
X75799418Y-40557829D01*
X75799417Y-40557830D01*
X75799383Y-40557869D01*
X75710457Y-40658559D01*
X75649527Y-40788334D01*
X75627471Y-40929994D01*
X70867576Y-40929994D01*
X71072432Y-40562591D01*
X71075201Y-40557869D01*
X71517722Y-39839466D01*
X71520693Y-39834870D01*
X71542851Y-39802169D01*
X71993995Y-39136365D01*
X71997140Y-39131933D01*
X72500342Y-38454629D01*
X72503699Y-38450309D01*
X73035835Y-37795503D01*
X73039379Y-37791331D01*
X73599433Y-37160273D01*
X73603154Y-37156259D01*
X74190103Y-36550101D01*
X74193995Y-36546253D01*
X74806693Y-35966178D01*
X74810748Y-35962502D01*
X75448081Y-35409566D01*
X75452292Y-35406070D01*
X75464338Y-35396504D01*
X75743554Y-35174762D01*
X87114002Y-35174762D01*
X87123401Y-35354092D01*
X87171088Y-35527220D01*
X87254840Y-35686069D01*
X87370748Y-35823229D01*
X87376171Y-35827376D01*
X87376173Y-35827377D01*
X87507985Y-35928155D01*
X87507989Y-35928158D01*
X87513406Y-35932299D01*
X87519586Y-35935181D01*
X87519588Y-35935182D01*
X87669980Y-36005311D01*
X87669983Y-36005312D01*
X87676157Y-36008191D01*
X87682805Y-36009677D01*
X87682808Y-36009678D01*
X87846370Y-36046238D01*
X87846371Y-36046238D01*
X87851408Y-36047364D01*
X87856899Y-36047671D01*
X87988946Y-36047671D01*
X88122605Y-36033151D01*
X88205331Y-36005311D01*
X88286337Y-35978050D01*
X88286339Y-35978049D01*
X88292802Y-35975874D01*
X88446728Y-35883385D01*
X88505955Y-35827377D01*
X88572245Y-35764690D01*
X88572247Y-35764688D01*
X88577203Y-35760001D01*
X88678140Y-35611477D01*
X88744828Y-35444744D01*
X88752815Y-35396504D01*
X88773043Y-35274317D01*
X88773043Y-35274314D01*
X88774158Y-35267580D01*
X88764759Y-35088250D01*
X88717072Y-34915122D01*
X88633320Y-34756273D01*
X88517412Y-34619113D01*
X88511987Y-34614965D01*
X88380175Y-34514187D01*
X88380171Y-34514184D01*
X88374754Y-34510043D01*
X88368574Y-34507161D01*
X88368572Y-34507160D01*
X88218180Y-34437031D01*
X88218177Y-34437030D01*
X88212003Y-34434151D01*
X88205355Y-34432665D01*
X88205352Y-34432664D01*
X88041790Y-34396104D01*
X88041789Y-34396104D01*
X88036752Y-34394978D01*
X88031261Y-34394671D01*
X87899214Y-34394671D01*
X87765555Y-34409191D01*
X87695806Y-34432664D01*
X87601823Y-34464292D01*
X87601821Y-34464293D01*
X87595358Y-34466468D01*
X87441432Y-34558957D01*
X87436472Y-34563648D01*
X87436470Y-34563649D01*
X87377819Y-34619113D01*
X87310957Y-34682341D01*
X87210020Y-34830865D01*
X87143332Y-34997598D01*
X87142218Y-35004328D01*
X87142217Y-35004331D01*
X87128324Y-35088250D01*
X87114002Y-35174762D01*
X75743554Y-35174762D01*
X75974619Y-34991260D01*
X76113040Y-34881332D01*
X76117400Y-34878022D01*
X76561949Y-34555441D01*
X76800283Y-34382497D01*
X76804776Y-34379383D01*
X76812538Y-34374250D01*
X77508591Y-33913946D01*
X77513191Y-33911046D01*
X78082252Y-33569284D01*
X78236534Y-33476627D01*
X78241286Y-33473912D01*
X78982785Y-33071331D01*
X78987651Y-33068824D01*
X78992939Y-33066244D01*
X79745962Y-32698813D01*
X79750910Y-32696530D01*
X80468656Y-32384139D01*
X80518940Y-32373671D01*
X95369225Y-32373671D01*
X95419506Y-32384138D01*
G37*
G04 #@! TD.AperFunction*
G04 #@! TD*
M02*
