G04 #@! TF.GenerationSoftware,KiCad,Pcbnew,6.0.5-a6ca702e91~116~ubuntu20.04.1*
G04 #@! TF.CreationDate,2022-06-28T17:03:59+00:00*
G04 #@! TF.ProjectId,PlantBuddy,506c616e-7442-4756-9464-792e6b696361,rev?*
G04 #@! TF.SameCoordinates,Original*
G04 #@! TF.FileFunction,Legend,Top*
G04 #@! TF.FilePolarity,Positive*
%FSLAX46Y46*%
G04 Gerber Fmt 4.6, Leading zero omitted, Abs format (unit mm)*
G04 Created by KiCad (PCBNEW 6.0.5-a6ca702e91~116~ubuntu20.04.1) date 2022-06-28 17:03:59*
%MOMM*%
%LPD*%
G01*
G04 APERTURE LIST*
%ADD10C,0.240000*%
%ADD11C,0.150000*%
%ADD12C,0.120000*%
%ADD13C,0.127000*%
%ADD14C,0.200000*%
G04 APERTURE END LIST*
D10*
X132517222Y-69557837D02*
X132993413Y-69557837D01*
X132386270Y-69843551D02*
X132844603Y-68843551D01*
X133052937Y-69843551D01*
X133898175Y-69176885D02*
X133814841Y-69843551D01*
X133469603Y-69176885D02*
X133404127Y-69700694D01*
X133439841Y-69795932D01*
X133529127Y-69843551D01*
X133671984Y-69843551D01*
X133773175Y-69795932D01*
X133826746Y-69748313D01*
X134231508Y-69176885D02*
X134612460Y-69176885D01*
X134416032Y-68843551D02*
X134308889Y-69700694D01*
X134344603Y-69795932D01*
X134433889Y-69843551D01*
X134529127Y-69843551D01*
X134862460Y-69843551D02*
X134987460Y-68843551D01*
X135291032Y-69843551D02*
X135356508Y-69319742D01*
X135320794Y-69224504D01*
X135231508Y-69176885D01*
X135088651Y-69176885D01*
X134987460Y-69224504D01*
X134933889Y-69272123D01*
X135910080Y-69843551D02*
X135820794Y-69795932D01*
X135779127Y-69748313D01*
X135743413Y-69653075D01*
X135779127Y-69367361D01*
X135838651Y-69272123D01*
X135892222Y-69224504D01*
X135993413Y-69176885D01*
X136136270Y-69176885D01*
X136225556Y-69224504D01*
X136267222Y-69272123D01*
X136302937Y-69367361D01*
X136267222Y-69653075D01*
X136207699Y-69748313D01*
X136154127Y-69795932D01*
X136052937Y-69843551D01*
X135910080Y-69843551D01*
X136671984Y-69843551D02*
X136755318Y-69176885D01*
X136731508Y-69367361D02*
X136791032Y-69272123D01*
X136844603Y-69224504D01*
X136945794Y-69176885D01*
X137041032Y-69176885D01*
X137302937Y-69748313D02*
X137344603Y-69795932D01*
X137291032Y-69843551D01*
X137249365Y-69795932D01*
X137302937Y-69748313D01*
X137291032Y-69843551D01*
X137368413Y-69224504D02*
X137410080Y-69272123D01*
X137356508Y-69319742D01*
X137314841Y-69272123D01*
X137368413Y-69224504D01*
X137356508Y-69319742D01*
D11*
X134996103Y-71723313D02*
X134948484Y-71770932D01*
X134805627Y-71818551D01*
X134710389Y-71818551D01*
X134567532Y-71770932D01*
X134472294Y-71675694D01*
X134424675Y-71580456D01*
X134377056Y-71389980D01*
X134377056Y-71247123D01*
X134424675Y-71056647D01*
X134472294Y-70961409D01*
X134567532Y-70866171D01*
X134710389Y-70818551D01*
X134805627Y-70818551D01*
X134948484Y-70866171D01*
X134996103Y-70913790D01*
X135853246Y-71818551D02*
X135853246Y-71294742D01*
X135805627Y-71199504D01*
X135710389Y-71151885D01*
X135519913Y-71151885D01*
X135424675Y-71199504D01*
X135853246Y-71770932D02*
X135758008Y-71818551D01*
X135519913Y-71818551D01*
X135424675Y-71770932D01*
X135377056Y-71675694D01*
X135377056Y-71580456D01*
X135424675Y-71485218D01*
X135519913Y-71437599D01*
X135758008Y-71437599D01*
X135853246Y-71389980D01*
X135424675Y-70770932D02*
X135472294Y-70866171D01*
X135567532Y-70913790D01*
X135662770Y-70913790D01*
X135758008Y-70866171D01*
X135805627Y-70770932D01*
X136472294Y-71818551D02*
X136377056Y-71770932D01*
X136329437Y-71675694D01*
X136329437Y-70818551D01*
X136853246Y-71818551D02*
X136853246Y-71151885D01*
X136853246Y-70818551D02*
X136805627Y-70866171D01*
X136853246Y-70913790D01*
X136900865Y-70866171D01*
X136853246Y-70818551D01*
X136853246Y-70913790D01*
X137329437Y-71151885D02*
X137329437Y-71818551D01*
X137329437Y-71247123D02*
X137377056Y-71199504D01*
X137472294Y-71151885D01*
X137615151Y-71151885D01*
X137710389Y-71199504D01*
X137758008Y-71294742D01*
X137758008Y-71818551D01*
X138234199Y-71437599D02*
X138996103Y-71437599D01*
X139472294Y-71818551D02*
X139472294Y-70818551D01*
X139853246Y-70818551D01*
X139948484Y-70866171D01*
X139996103Y-70913790D01*
X140043722Y-71009028D01*
X140043722Y-71151885D01*
X139996103Y-71247123D01*
X139948484Y-71294742D01*
X139853246Y-71342361D01*
X139472294Y-71342361D01*
X140853246Y-71770932D02*
X140758008Y-71818551D01*
X140567532Y-71818551D01*
X140472294Y-71770932D01*
X140424675Y-71675694D01*
X140424675Y-71294742D01*
X140472294Y-71199504D01*
X140567532Y-71151885D01*
X140758008Y-71151885D01*
X140853246Y-71199504D01*
X140900865Y-71294742D01*
X140900865Y-71389980D01*
X140424675Y-71485218D01*
X141186580Y-71151885D02*
X141567532Y-71151885D01*
X141329437Y-70818551D02*
X141329437Y-71675694D01*
X141377056Y-71770932D01*
X141472294Y-71818551D01*
X141567532Y-71818551D01*
X141900865Y-71818551D02*
X141900865Y-71151885D01*
X141900865Y-71342361D02*
X141948484Y-71247123D01*
X141996103Y-71199504D01*
X142091341Y-71151885D01*
X142186580Y-71151885D01*
X142948484Y-71151885D02*
X142948484Y-71818551D01*
X142519913Y-71151885D02*
X142519913Y-71675694D01*
X142567532Y-71770932D01*
X142662770Y-71818551D01*
X142805627Y-71818551D01*
X142900865Y-71770932D01*
X142948484Y-71723313D01*
X134377056Y-73142837D02*
X134853246Y-73142837D01*
X134281818Y-73428551D02*
X134615151Y-72428551D01*
X134948484Y-73428551D01*
X135281818Y-73428551D02*
X135281818Y-72761885D01*
X135281818Y-72952361D02*
X135329437Y-72857123D01*
X135377056Y-72809504D01*
X135472294Y-72761885D01*
X135567532Y-72761885D01*
X136329437Y-73428551D02*
X136329437Y-72428551D01*
X136329437Y-73380932D02*
X136234199Y-73428551D01*
X136043722Y-73428551D01*
X135948484Y-73380932D01*
X135900865Y-73333313D01*
X135853246Y-73238075D01*
X135853246Y-72952361D01*
X135900865Y-72857123D01*
X135948484Y-72809504D01*
X136043722Y-72761885D01*
X136234199Y-72761885D01*
X136329437Y-72809504D01*
X137186580Y-73380932D02*
X137091341Y-73428551D01*
X136900865Y-73428551D01*
X136805627Y-73380932D01*
X136758008Y-73285694D01*
X136758008Y-72904742D01*
X136805627Y-72809504D01*
X136900865Y-72761885D01*
X137091341Y-72761885D01*
X137186580Y-72809504D01*
X137234199Y-72904742D01*
X137234199Y-72999980D01*
X136758008Y-73095218D01*
X137805627Y-73428551D02*
X137710389Y-73380932D01*
X137662770Y-73285694D01*
X137662770Y-72428551D01*
X138567532Y-73380932D02*
X138472294Y-73428551D01*
X138281818Y-73428551D01*
X138186580Y-73380932D01*
X138138960Y-73285694D01*
X138138960Y-72904742D01*
X138186580Y-72809504D01*
X138281818Y-72761885D01*
X138472294Y-72761885D01*
X138567532Y-72809504D01*
X138615151Y-72904742D01*
X138615151Y-72999980D01*
X138138960Y-73095218D01*
X139472294Y-73428551D02*
X139472294Y-72904742D01*
X139424675Y-72809504D01*
X139329437Y-72761885D01*
X139138960Y-72761885D01*
X139043722Y-72809504D01*
X139472294Y-73380932D02*
X139377056Y-73428551D01*
X139138960Y-73428551D01*
X139043722Y-73380932D01*
X138996103Y-73285694D01*
X138996103Y-73190456D01*
X139043722Y-73095218D01*
X139138960Y-73047599D01*
X139377056Y-73047599D01*
X139472294Y-72999980D01*
X139948484Y-72761885D02*
X139948484Y-73428551D01*
X139948484Y-72857123D02*
X139996103Y-72809504D01*
X140091341Y-72761885D01*
X140234199Y-72761885D01*
X140329437Y-72809504D01*
X140377056Y-72904742D01*
X140377056Y-73428551D01*
X148100508Y-73126885D02*
X148338603Y-73793551D01*
X148576699Y-73126885D01*
X149148127Y-72793551D02*
X149243365Y-72793551D01*
X149338603Y-72841171D01*
X149386222Y-72888790D01*
X149433841Y-72984028D01*
X149481460Y-73174504D01*
X149481460Y-73412599D01*
X149433841Y-73603075D01*
X149386222Y-73698313D01*
X149338603Y-73745932D01*
X149243365Y-73793551D01*
X149148127Y-73793551D01*
X149052889Y-73745932D01*
X149005270Y-73698313D01*
X148957651Y-73603075D01*
X148910032Y-73412599D01*
X148910032Y-73174504D01*
X148957651Y-72984028D01*
X149005270Y-72888790D01*
X149052889Y-72841171D01*
X149148127Y-72793551D01*
X149910032Y-73698313D02*
X149957651Y-73745932D01*
X149910032Y-73793551D01*
X149862413Y-73745932D01*
X149910032Y-73698313D01*
X149910032Y-73793551D01*
X150910032Y-73793551D02*
X150338603Y-73793551D01*
X150624318Y-73793551D02*
X150624318Y-72793551D01*
X150529080Y-72936409D01*
X150433841Y-73031647D01*
X150338603Y-73079266D01*
D12*
G04 #@! TO.C,R6*
X127709580Y-72415429D02*
X127709580Y-71940913D01*
X126664580Y-72415429D02*
X126664580Y-71940913D01*
G04 #@! TO.C,C9*
X130233080Y-47807751D02*
X130233080Y-47526591D01*
X131253080Y-47807751D02*
X131253080Y-47526591D01*
G04 #@! TO.C,C11*
X128582080Y-47807751D02*
X128582080Y-47526591D01*
X129602080Y-47807751D02*
X129602080Y-47526591D01*
D13*
G04 #@! TO.C,U3*
X152374580Y-63497171D02*
X152374580Y-64227171D01*
X134374580Y-38727171D02*
X152374580Y-38727171D01*
X134374580Y-63497171D02*
X134374580Y-64227171D01*
X134374580Y-45447171D02*
X134374580Y-38727171D01*
X134374580Y-64227171D02*
X135619580Y-64227171D01*
X152374580Y-64227171D02*
X151129580Y-64227171D01*
X152374580Y-38727171D02*
X152374580Y-45447171D01*
D14*
X133274580Y-46217171D02*
G75*
G03*
X133274580Y-46217171I-100000J0D01*
G01*
D12*
G04 #@! TO.C,C8*
X132011080Y-47807751D02*
X132011080Y-47526591D01*
X133031080Y-47807751D02*
X133031080Y-47526591D01*
G04 #@! TO.C,R10*
X128633080Y-58034413D02*
X128633080Y-58508929D01*
X129678080Y-58034413D02*
X129678080Y-58508929D01*
G04 #@! TO.C,R13*
X133043580Y-58572429D02*
X133043580Y-58097913D01*
X131998580Y-58572429D02*
X131998580Y-58097913D01*
G04 #@! TO.C,U4*
X124845580Y-57722671D02*
X124370580Y-57722671D01*
X127115580Y-57722671D02*
X127590580Y-57722671D01*
X127590580Y-54502671D02*
X127590580Y-54977671D01*
X127115580Y-54502671D02*
X127590580Y-54502671D01*
X124845580Y-54502671D02*
X124370580Y-54502671D01*
X124370580Y-54502671D02*
X124370580Y-54977671D01*
X124370580Y-57722671D02*
X124370580Y-57247671D01*
G04 #@! TO.C,J1*
X124869580Y-60556671D02*
X122969580Y-60556671D01*
X122969580Y-60556671D02*
X122969580Y-69956671D01*
X128769580Y-60556671D02*
X126769580Y-60556671D01*
X128769580Y-69956671D02*
X126769580Y-69956671D01*
X124869580Y-69956671D02*
X122969580Y-69956671D01*
G04 #@! TO.C,SW1*
X152447080Y-71326171D02*
X152997080Y-71326171D01*
X152447080Y-66426171D02*
X152997080Y-66426171D01*
X150872080Y-71226171D02*
X150872080Y-66526171D01*
X154572080Y-71226171D02*
X154572080Y-70301171D01*
X154572080Y-67451171D02*
X154572080Y-66526171D01*
G04 #@! TO.C,R3*
X148635580Y-66416913D02*
X148635580Y-66891429D01*
X149680580Y-66416913D02*
X149680580Y-66891429D01*
G04 #@! TO.C,R8*
X131996338Y-50602671D02*
X131521822Y-50602671D01*
X131996338Y-49557671D02*
X131521822Y-49557671D01*
G04 #@! TO.C,D4*
X127352080Y-38931171D02*
X125067080Y-38931171D01*
X125067080Y-38931171D02*
X125067080Y-40401171D01*
X125067080Y-40401171D02*
X127352080Y-40401171D01*
G04 #@! TO.C,C5*
X126602000Y-59543671D02*
X126883160Y-59543671D01*
X126602000Y-58523671D02*
X126883160Y-58523671D01*
G04 #@! TO.C,R1*
X129932080Y-72732929D02*
X129932080Y-72258413D01*
X128887080Y-72732929D02*
X128887080Y-72258413D01*
G04 #@! TO.C,R18*
X138600338Y-65559671D02*
X138125822Y-65559671D01*
X138600338Y-66604671D02*
X138125822Y-66604671D01*
G04 #@! TO.C,R11*
X125455838Y-52415171D02*
X124981322Y-52415171D01*
X125455838Y-53460171D02*
X124981322Y-53460171D01*
G04 #@! TO.C,R4*
X146984580Y-66416913D02*
X146984580Y-66891429D01*
X148029580Y-66416913D02*
X148029580Y-66891429D01*
G04 #@! TO.C,U5*
X126171080Y-49481171D02*
X126971080Y-49481171D01*
X126171080Y-46361171D02*
X124371080Y-46361171D01*
X126171080Y-46361171D02*
X126971080Y-46361171D01*
X126171080Y-49481171D02*
X125371080Y-49481171D01*
G04 #@! TO.C,U1*
X124717080Y-40725171D02*
X126917080Y-40725171D01*
X124937080Y-42925171D02*
X126907080Y-42925171D01*
G04 #@! TO.C,C3*
X131899660Y-52114171D02*
X131618500Y-52114171D01*
X131899660Y-51094171D02*
X131618500Y-51094171D01*
G04 #@! TO.C,R14*
X130347580Y-58572429D02*
X130347580Y-58097913D01*
X131392580Y-58572429D02*
X131392580Y-58097913D01*
G04 #@! TO.C,R7*
X150061580Y-70924913D02*
X150061580Y-71399429D01*
X149016580Y-70924913D02*
X149016580Y-71399429D01*
G04 #@! TO.C,C2*
X125776500Y-44494171D02*
X126057660Y-44494171D01*
X125776500Y-43474171D02*
X126057660Y-43474171D01*
G04 #@! TO.C,C1*
X129459500Y-43474171D02*
X129740660Y-43474171D01*
X129459500Y-44494171D02*
X129740660Y-44494171D01*
G04 #@! TO.C,R9*
X128694338Y-53396671D02*
X128219822Y-53396671D01*
X128694338Y-52351671D02*
X128219822Y-52351671D01*
G04 #@! TO.C,R5*
X126058580Y-72415429D02*
X126058580Y-71940913D01*
X125013580Y-72415429D02*
X125013580Y-71940913D01*
G04 #@! TO.C,C10*
X125295660Y-51860171D02*
X125014500Y-51860171D01*
X125295660Y-50840171D02*
X125014500Y-50840171D01*
G04 #@! TO.C,R2*
X130538080Y-72732929D02*
X130538080Y-72258413D01*
X131583080Y-72732929D02*
X131583080Y-72258413D01*
D13*
G04 #@! TO.C,U2*
X130593080Y-41936171D02*
X130593080Y-39936171D01*
X128353080Y-41936171D02*
X128353080Y-39936171D01*
D14*
X129073080Y-42896171D02*
G75*
G03*
X129073080Y-42896171I-100000J0D01*
G01*
D12*
G04 #@! TO.C,C6*
X130110080Y-55083091D02*
X130110080Y-55364251D01*
X129090080Y-55083091D02*
X129090080Y-55364251D01*
G04 #@! TD*
M02*
