G04 #@! TF.GenerationSoftware,KiCad,Pcbnew,6.0.0-d3dd2cf0fa~116~ubuntu20.04.1*
G04 #@! TF.CreationDate,2022-04-29T13:41:16+00:00*
G04 #@! TF.ProjectId,PlantBuddy,506c616e-7442-4756-9464-792e6b696361,rev?*
G04 #@! TF.SameCoordinates,Original*
G04 #@! TF.FileFunction,Copper,L1,Top*
G04 #@! TF.FilePolarity,Positive*
%FSLAX46Y46*%
G04 Gerber Fmt 4.6, Leading zero omitted, Abs format (unit mm)*
G04 Created by KiCad (PCBNEW 6.0.0-d3dd2cf0fa~116~ubuntu20.04.1) date 2022-04-29 13:41:16*
%MOMM*%
%LPD*%
G01*
G04 APERTURE LIST*
G04 Aperture macros list*
%AMRoundRect*
0 Rectangle with rounded corners*
0 $1 Rounding radius*
0 $2 $3 $4 $5 $6 $7 $8 $9 X,Y pos of 4 corners*
0 Add a 4 corners polygon primitive as box body*
4,1,4,$2,$3,$4,$5,$6,$7,$8,$9,$2,$3,0*
0 Add four circle primitives for the rounded corners*
1,1,$1+$1,$2,$3*
1,1,$1+$1,$4,$5*
1,1,$1+$1,$6,$7*
1,1,$1+$1,$8,$9*
0 Add four rect primitives between the rounded corners*
20,1,$1+$1,$2,$3,$4,$5,0*
20,1,$1+$1,$4,$5,$6,$7,0*
20,1,$1+$1,$6,$7,$8,$9,0*
20,1,$1+$1,$8,$9,$2,$3,0*%
%AMHorizOval*
0 Thick line with rounded ends*
0 $1 width*
0 $2 $3 position (X,Y) of the first rounded end (center of the circle)*
0 $4 $5 position (X,Y) of the second rounded end (center of the circle)*
0 Add line between two ends*
20,1,$1,$2,$3,$4,$5,0*
0 Add two circle primitives to create the rounded ends*
1,1,$1,$2,$3*
1,1,$1,$4,$5*%
%AMRotRect*
0 Rectangle, with rotation*
0 The origin of the aperture is its center*
0 $1 length*
0 $2 width*
0 $3 Rotation angle, in degrees counterclockwise*
0 Add horizontal line*
21,1,$1,$2,0,0,$3*%
%AMFreePoly0*
4,1,18,-0.124998,0.730000,0.725000,0.730000,0.728536,0.728536,0.730000,0.725000,0.730000,-0.725000,0.728536,-0.728536,0.725000,-0.730000,-0.725000,-0.730000,-0.728536,-0.728536,-0.730000,-0.725000,-0.730000,0.124998,-0.730001,0.125000,-0.728536,0.128536,-0.128536,0.728535,-0.128536,0.728536,-0.126768,0.729268,-0.125000,0.730001,-0.124998,0.730000,-0.124998,0.730000,$1*%
%AMFreePoly1*
4,1,124,0.499682,0.503916,0.501146,0.500380,0.501146,-47.971286,0.499682,-47.974822,0.496146,-47.976286,-0.502921,-47.976286,-0.506457,-47.974822,-0.507921,-47.971286,-0.507921,-45.774953,-7.098454,-45.774953,-7.101990,-45.773489,-7.103454,-45.769953,-7.103454,-43.763353,-7.101990,-43.759817,-7.098454,-43.758353,-0.507871,-43.758353,-0.512145,-41.368050,-3.802807,-41.365925,-7.098457,-41.363798,-7.100276,-41.363044,
-7.101990,-41.362334,-7.101992,-41.362332,-7.102702,-41.360615,-7.103454,-41.358798,-7.103454,-39.360686,-7.101990,-39.357150,-7.098454,-39.355686,-0.507921,-39.355686,-0.507921,-36.961153,-7.098523,-36.961153,-7.098528,-36.961151,-7.098534,-36.961153,-7.100275,-36.960428,-7.102059,-36.959689,-7.102061,-36.959683,-7.102067,-36.959681,-7.102806,-36.957886,-7.103523,-36.956153,-7.103521,-36.956148,-7.103523,-36.956142,
-7.101372,-35.954960,-7.101372,-35.954959,-7.099220,-34.953776,-7.098541,-34.952147,-7.097758,-34.950252,-7.097750,-34.950249,-7.097748,-34.950243,-7.096019,-34.949531,-7.094223,-34.948786,-3.798573,-34.946659,-0.507921,-34.944534,-0.507921,-32.558486,-7.098454,-32.558486,-7.101990,-32.557022,-7.103454,-32.553486,-7.103454,-30.546886,-7.101990,-30.543350,-7.098454,-30.541886,-0.507921,-30.541886,-0.507921,-28.147353,
-7.098454,-28.147353,-7.101990,-28.145889,-7.103454,-28.142353,-7.103454,-26.144241,-7.102575,-26.142117,-7.101992,-26.140707,-7.101990,-26.140705,-7.100232,-26.139977,-7.098457,-26.139241,-3.802807,-26.137114,-0.512145,-26.134989,-0.507871,-23.744686,-7.098454,-23.744686,-7.101990,-23.743222,-7.103454,-23.739686,-7.103454,-21.733086,-7.101990,-21.729550,-7.098454,-21.728086,-0.507921,-21.728086,-0.507921,-19.333553,
-7.098454,-19.333553,-7.101990,-19.332089,-7.103454,-19.328553,-7.103454,-17.330420,-7.101990,-17.326884,-7.098454,-17.325420,-0.507921,-17.325420,-0.507921,-14.930886,-7.098454,-14.930886,-7.101990,-14.929422,-7.103454,-14.925886,-7.103454,-12.919286,-7.101990,-12.915750,-7.098454,-12.914286,-0.507921,-12.914286,-0.507921,-10.519753,-7.098454,-10.519753,-7.101990,-10.518289,-7.103454,-10.514753,-7.103454,-8.516620,
-7.101990,-8.513084,-7.098454,-8.511620,-0.507921,-8.511620,-0.507921,-6.117086,-7.098454,-6.117086,-7.101990,-6.115622,-7.103454,-6.112086,-7.103454,-4.105486,-7.101990,-4.101950,-7.098454,-4.100486,-0.507921,-4.100486,-0.507921,-1.705953,-7.098454,-1.705953,-7.101990,-1.704489,-7.103454,-1.700953,-7.103454,0.297180,-7.101990,0.300716,-7.098454,0.302180,-0.507921,0.302180,-0.507921,0.500380,
-0.506457,0.503916,-0.502921,0.505380,0.496146,0.505380,0.499682,0.503916,0.499682,0.503916,$1*%
%AMFreePoly2*
4,1,125,0.498682,0.503916,0.500146,0.500380,0.500146,-1.899153,7.090679,-1.899153,7.094215,-1.900617,7.095679,-1.904153,7.095679,-3.910753,7.094215,-3.914289,7.090679,-3.915753,0.500097,-3.915753,0.502234,-5.110894,0.504370,-6.306056,3.795034,-6.308180,7.090684,-6.310308,7.093109,-6.311314,7.094216,-6.311772,7.094216,-6.311773,7.094219,-6.311774,7.095148,-6.314024,7.095680,-6.315308,
7.095679,-7.314364,7.095679,-8.313420,7.094215,-8.316956,7.090679,-8.318420,0.500146,-8.318420,0.500146,-10.712953,7.090749,-10.712953,7.090754,-10.712955,7.090760,-10.712953,7.092501,-10.713678,7.094285,-10.714417,7.094287,-10.714423,7.094293,-10.714425,7.095032,-10.716220,7.095749,-10.717953,7.095747,-10.717958,7.095749,-10.717964,7.093598,-11.719147,7.091446,-12.720330,7.090773,-12.721945,
7.089985,-12.723853,7.089977,-12.723856,7.089974,-12.723863,7.088323,-12.724542,7.086450,-12.725319,3.790800,-12.727447,0.500146,-12.729571,0.500146,-15.115619,7.090679,-15.115619,7.094215,-15.117083,7.095679,-15.120619,7.095679,-17.127220,7.094215,-17.130756,7.090679,-17.132220,0.500146,-17.132220,0.500146,-19.526753,7.090679,-19.526753,7.094215,-19.528217,7.095679,-19.531753,7.095679,-20.530809,
7.095680,-21.529865,7.095148,-21.531149,7.094219,-21.533399,7.094216,-21.533400,7.094216,-21.533401,7.093109,-21.533859,7.090684,-21.534865,3.795034,-21.536992,0.504370,-21.539117,0.502234,-22.734279,0.500097,-23.929420,7.090679,-23.929420,7.094215,-23.930884,7.095679,-23.934420,7.095679,-25.941019,7.094215,-25.944555,7.090679,-25.946019,0.500146,-25.946019,0.500146,-28.340553,7.090679,-28.340553,
7.094215,-28.342017,7.095679,-28.345553,7.095679,-30.343686,7.094215,-30.347222,7.090679,-30.348686,0.500146,-30.348686,0.500146,-32.743219,7.090679,-32.743219,7.094215,-32.744683,7.095679,-32.748219,7.095679,-34.754820,7.094215,-34.758356,7.090679,-34.759820,0.500146,-34.759820,0.500146,-37.154353,7.090679,-37.154353,7.094215,-37.155817,7.095679,-37.159353,7.095679,-39.157486,7.094215,-39.161022,
7.090679,-39.162486,0.500146,-39.162486,0.500146,-41.557020,7.090679,-41.557020,7.094215,-41.558484,7.095679,-41.562020,7.095679,-43.568620,7.094215,-43.572156,7.090679,-43.573620,0.500146,-43.573620,0.500146,-45.968153,7.090679,-45.968153,7.094215,-45.969617,7.095679,-45.973153,7.095679,-47.971286,7.094215,-47.974822,7.090679,-47.976286,-0.503920,-47.976286,-0.507456,-47.974822,-0.508920,-47.971286,
-0.508920,0.500380,-0.507456,0.503916,-0.503920,0.505380,0.495146,0.505380,0.498682,0.503916,0.498682,0.503916,$1*%
G04 Aperture macros list end*
G04 #@! TA.AperFunction,SMDPad,CuDef*
%ADD10RoundRect,0.200000X-0.200000X-0.275000X0.200000X-0.275000X0.200000X0.275000X-0.200000X0.275000X0*%
G04 #@! TD*
G04 #@! TA.AperFunction,SMDPad,CuDef*
%ADD11RoundRect,0.225000X0.250000X-0.225000X0.250000X0.225000X-0.250000X0.225000X-0.250000X-0.225000X0*%
G04 #@! TD*
G04 #@! TA.AperFunction,SMDPad,CuDef*
%ADD12RoundRect,0.250000X0.262500X0.450000X-0.262500X0.450000X-0.262500X-0.450000X0.262500X-0.450000X0*%
G04 #@! TD*
G04 #@! TA.AperFunction,SMDPad,CuDef*
%ADD13RoundRect,0.200000X-0.275000X0.200000X-0.275000X-0.200000X0.275000X-0.200000X0.275000X0.200000X0*%
G04 #@! TD*
G04 #@! TA.AperFunction,SMDPad,CuDef*
%ADD14RoundRect,0.200000X0.200000X0.275000X-0.200000X0.275000X-0.200000X-0.275000X0.200000X-0.275000X0*%
G04 #@! TD*
G04 #@! TA.AperFunction,SMDPad,CuDef*
%ADD15RoundRect,0.218750X-0.335378X0.032211X-0.084438X-0.326168X0.335378X-0.032211X0.084438X0.326168X0*%
G04 #@! TD*
G04 #@! TA.AperFunction,SMDPad,CuDef*
%ADD16RoundRect,0.062500X-0.375000X-0.062500X0.375000X-0.062500X0.375000X0.062500X-0.375000X0.062500X0*%
G04 #@! TD*
G04 #@! TA.AperFunction,SMDPad,CuDef*
%ADD17RoundRect,0.062500X-0.062500X-0.375000X0.062500X-0.375000X0.062500X0.375000X-0.062500X0.375000X0*%
G04 #@! TD*
G04 #@! TA.AperFunction,SMDPad,CuDef*
%ADD18R,1.600000X1.600000*%
G04 #@! TD*
G04 #@! TA.AperFunction,SMDPad,CuDef*
%ADD19RoundRect,0.150000X0.512500X0.150000X-0.512500X0.150000X-0.512500X-0.150000X0.512500X-0.150000X0*%
G04 #@! TD*
G04 #@! TA.AperFunction,SMDPad,CuDef*
%ADD20R,1.450000X0.600000*%
G04 #@! TD*
G04 #@! TA.AperFunction,SMDPad,CuDef*
%ADD21R,1.450000X0.300000*%
G04 #@! TD*
G04 #@! TA.AperFunction,ComponentPad*
%ADD22O,2.100000X1.000000*%
G04 #@! TD*
G04 #@! TA.AperFunction,ComponentPad*
%ADD23O,1.600000X1.000000*%
G04 #@! TD*
G04 #@! TA.AperFunction,SMDPad,CuDef*
%ADD24R,1.000000X1.450000*%
G04 #@! TD*
G04 #@! TA.AperFunction,ComponentPad*
%ADD25RotRect,1.700000X1.700000X40.000000*%
G04 #@! TD*
G04 #@! TA.AperFunction,ComponentPad*
%ADD26HorizOval,1.700000X0.000000X0.000000X0.000000X0.000000X0*%
G04 #@! TD*
G04 #@! TA.AperFunction,SMDPad,CuDef*
%ADD27R,0.800000X0.400000*%
G04 #@! TD*
G04 #@! TA.AperFunction,SMDPad,CuDef*
%ADD28R,0.400000X0.800000*%
G04 #@! TD*
G04 #@! TA.AperFunction,SMDPad,CuDef*
%ADD29FreePoly0,0.000000*%
G04 #@! TD*
G04 #@! TA.AperFunction,SMDPad,CuDef*
%ADD30R,1.450000X1.450000*%
G04 #@! TD*
G04 #@! TA.AperFunction,SMDPad,CuDef*
%ADD31R,0.700000X0.700000*%
G04 #@! TD*
G04 #@! TA.AperFunction,SMDPad,CuDef*
%ADD32RoundRect,0.225000X-0.250000X0.225000X-0.250000X-0.225000X0.250000X-0.225000X0.250000X0.225000X0*%
G04 #@! TD*
G04 #@! TA.AperFunction,SMDPad,CuDef*
%ADD33RoundRect,0.218750X-0.218750X-0.256250X0.218750X-0.256250X0.218750X0.256250X-0.218750X0.256250X0*%
G04 #@! TD*
G04 #@! TA.AperFunction,SMDPad,CuDef*
%ADD34RotRect,1.500000X1.500000X315.000000*%
G04 #@! TD*
G04 #@! TA.AperFunction,SMDPad,CuDef*
%ADD35RoundRect,0.200000X0.275000X-0.200000X0.275000X0.200000X-0.275000X0.200000X-0.275000X-0.200000X0*%
G04 #@! TD*
G04 #@! TA.AperFunction,SMDPad,CuDef*
%ADD36R,0.500000X0.500000*%
G04 #@! TD*
G04 #@! TA.AperFunction,SMDPad,CuDef*
%ADD37RoundRect,0.225000X-0.225000X-0.250000X0.225000X-0.250000X0.225000X0.250000X-0.225000X0.250000X0*%
G04 #@! TD*
G04 #@! TA.AperFunction,SMDPad,CuDef*
%ADD38RotRect,1.500000X1.500000X335.000000*%
G04 #@! TD*
G04 #@! TA.AperFunction,SMDPad,CuDef*
%ADD39RoundRect,0.075000X-0.250000X-0.075000X0.250000X-0.075000X0.250000X0.075000X-0.250000X0.075000X0*%
G04 #@! TD*
G04 #@! TA.AperFunction,SMDPad,CuDef*
%ADD40RoundRect,0.225000X0.225000X0.250000X-0.225000X0.250000X-0.225000X-0.250000X0.225000X-0.250000X0*%
G04 #@! TD*
G04 #@! TA.AperFunction,ComponentPad*
%ADD41FreePoly1,0.000000*%
G04 #@! TD*
G04 #@! TA.AperFunction,ComponentPad*
%ADD42FreePoly2,0.000000*%
G04 #@! TD*
G04 #@! TA.AperFunction,SMDPad,CuDef*
%ADD43RoundRect,0.014000X-0.161000X0.361000X-0.161000X-0.361000X0.161000X-0.361000X0.161000X0.361000X0*%
G04 #@! TD*
G04 #@! TA.AperFunction,SMDPad,CuDef*
%ADD44R,1.600000X0.700000*%
G04 #@! TD*
G04 #@! TA.AperFunction,SMDPad,CuDef*
%ADD45RoundRect,0.225000X-0.017678X0.335876X-0.335876X0.017678X0.017678X-0.335876X0.335876X-0.017678X0*%
G04 #@! TD*
G04 #@! TA.AperFunction,ViaPad*
%ADD46C,0.600000*%
G04 #@! TD*
G04 #@! TA.AperFunction,Conductor*
%ADD47C,0.500000*%
G04 #@! TD*
G04 #@! TA.AperFunction,Conductor*
%ADD48C,0.300000*%
G04 #@! TD*
G04 #@! TA.AperFunction,Conductor*
%ADD49C,0.200000*%
G04 #@! TD*
G04 #@! TA.AperFunction,Conductor*
%ADD50C,0.250000*%
G04 #@! TD*
G04 APERTURE END LIST*
D10*
G04 #@! TO.P,R6,1*
G04 #@! TO.N,GND*
X87119080Y-55160171D03*
G04 #@! TO.P,R6,2*
G04 #@! TO.N,Net-(R6-Pad2)*
X88769080Y-55160171D03*
G04 #@! TD*
D11*
G04 #@! TO.P,C9,1*
G04 #@! TO.N,+3V3*
X77403080Y-40949171D03*
G04 #@! TO.P,C9,2*
G04 #@! TO.N,GND*
X77403080Y-39399171D03*
G04 #@! TD*
D12*
G04 #@! TO.P,R16,1*
G04 #@! TO.N,Net-(C4-Pad1)*
X92031580Y-68241171D03*
G04 #@! TO.P,R16,2*
G04 #@! TO.N,/freq_gen*
X90206580Y-68241171D03*
G04 #@! TD*
D11*
G04 #@! TO.P,C12,1*
G04 #@! TO.N,/capsense*
X88325080Y-65714171D03*
G04 #@! TO.P,C12,2*
G04 #@! TO.N,GND*
X88325080Y-64164171D03*
G04 #@! TD*
D13*
G04 #@! TO.P,R9,1*
G04 #@! TO.N,GND*
X86547080Y-64114171D03*
G04 #@! TO.P,R9,2*
G04 #@! TO.N,/capsense*
X86547080Y-65764171D03*
G04 #@! TD*
D11*
G04 #@! TO.P,C11,1*
G04 #@! TO.N,+3V3*
X85277080Y-62171171D03*
G04 #@! TO.P,C11,2*
G04 #@! TO.N,GND*
X85277080Y-60621171D03*
G04 #@! TD*
G04 #@! TO.P,C8,1*
G04 #@! TO.N,+3V3*
X79181080Y-40949171D03*
G04 #@! TO.P,C8,2*
G04 #@! TO.N,GND*
X79181080Y-39399171D03*
G04 #@! TD*
D14*
G04 #@! TO.P,R10,1*
G04 #@! TO.N,Net-(R10-Pad1)*
X88769080Y-56811171D03*
G04 #@! TO.P,R10,2*
G04 #@! TO.N,GND*
X87119080Y-56811171D03*
G04 #@! TD*
G04 #@! TO.P,R13,1*
G04 #@! TO.N,/batsense*
X79371080Y-48429171D03*
G04 #@! TO.P,R13,2*
G04 #@! TO.N,+BATT*
X77721080Y-48429171D03*
G04 #@! TD*
D15*
G04 #@! TO.P,D1,1,K*
G04 #@! TO.N,Net-(D1-Pad1)*
X96128389Y-64548089D03*
G04 #@! TO.P,D1,2,A*
G04 #@! TO.N,VBUS*
X97031771Y-65838253D03*
G04 #@! TD*
D16*
G04 #@! TO.P,U4,1,TS*
G04 #@! TO.N,Net-(R10-Pad1)*
X91078580Y-55934171D03*
G04 #@! TO.P,U4,2,BAT*
G04 #@! TO.N,+BATT*
X91078580Y-56434171D03*
G04 #@! TO.P,U4,3,BAT*
X91078580Y-56934171D03*
G04 #@! TO.P,U4,4,~{CE}*
G04 #@! TO.N,GND*
X91078580Y-57434171D03*
D17*
G04 #@! TO.P,U4,5,EN2*
X91766080Y-58121671D03*
G04 #@! TO.P,U4,6,EN1*
G04 #@! TO.N,VCC*
X92266080Y-58121671D03*
G04 #@! TO.P,U4,7,~{PGOOD}*
G04 #@! TO.N,Net-(R12-Pad2)*
X92766080Y-58121671D03*
G04 #@! TO.P,U4,8,VSS*
G04 #@! TO.N,GND*
X93266080Y-58121671D03*
D16*
G04 #@! TO.P,U4,9,~{CHG}*
G04 #@! TO.N,Net-(R15-Pad2)*
X93953580Y-57434171D03*
G04 #@! TO.P,U4,10,OUT*
G04 #@! TO.N,Net-(J2-Pad1)*
X93953580Y-56934171D03*
G04 #@! TO.P,U4,11,OUT*
X93953580Y-56434171D03*
G04 #@! TO.P,U4,12,ILIM*
G04 #@! TO.N,Net-(R5-Pad2)*
X93953580Y-55934171D03*
D17*
G04 #@! TO.P,U4,13,IN*
G04 #@! TO.N,VBUS*
X93266080Y-55246671D03*
G04 #@! TO.P,U4,14,TMR*
G04 #@! TO.N,unconnected-(U4-Pad14)*
X92766080Y-55246671D03*
G04 #@! TO.P,U4,15,TD*
G04 #@! TO.N,GND*
X92266080Y-55246671D03*
G04 #@! TO.P,U4,16,ISET*
G04 #@! TO.N,Net-(R6-Pad2)*
X91766080Y-55246671D03*
D18*
G04 #@! TO.P,U4,17,VSS*
G04 #@! TO.N,GND*
X92516080Y-56684171D03*
G04 #@! TD*
D19*
G04 #@! TO.P,U6,1,VIN*
G04 #@! TO.N,VCC*
X89406580Y-62396171D03*
G04 #@! TO.P,U6,2,GND*
G04 #@! TO.N,GND*
X89406580Y-61446171D03*
G04 #@! TO.P,U6,3,EN*
G04 #@! TO.N,VCC*
X89406580Y-60496171D03*
G04 #@! TO.P,U6,4*
G04 #@! TO.N,N/C*
X87131580Y-60496171D03*
G04 #@! TO.P,U6,5,VOUT*
G04 #@! TO.N,+3V3*
X87131580Y-62396171D03*
G04 #@! TD*
D20*
G04 #@! TO.P,J1,A1,GND*
G04 #@! TO.N,GND*
X98885080Y-53711171D03*
G04 #@! TO.P,J1,A4,VBUS*
G04 #@! TO.N,VBUS*
X98885080Y-52911171D03*
D21*
G04 #@! TO.P,J1,A5,CC1*
G04 #@! TO.N,Net-(J1-PadA5)*
X98885080Y-51711171D03*
G04 #@! TO.P,J1,A6,D+*
G04 #@! TO.N,/D+*
X98885080Y-50711171D03*
G04 #@! TO.P,J1,A7,D-*
G04 #@! TO.N,/D-*
X98885080Y-50211171D03*
G04 #@! TO.P,J1,A8,SBU1*
G04 #@! TO.N,unconnected-(J1-PadA8)*
X98885080Y-49211171D03*
D20*
G04 #@! TO.P,J1,A9,VBUS*
G04 #@! TO.N,VBUS*
X98885080Y-48011171D03*
G04 #@! TO.P,J1,A12,GND*
G04 #@! TO.N,GND*
X98885080Y-47211171D03*
G04 #@! TO.P,J1,B1,GND*
X98885080Y-47211171D03*
G04 #@! TO.P,J1,B4,VBUS*
G04 #@! TO.N,VBUS*
X98885080Y-48011171D03*
D21*
G04 #@! TO.P,J1,B5,CC2*
G04 #@! TO.N,Net-(J1-PadB5)*
X98885080Y-48711171D03*
G04 #@! TO.P,J1,B6,D+*
G04 #@! TO.N,/D+*
X98885080Y-49711171D03*
G04 #@! TO.P,J1,B7,D-*
G04 #@! TO.N,/D-*
X98885080Y-51211171D03*
G04 #@! TO.P,J1,B8,SBU2*
G04 #@! TO.N,unconnected-(J1-PadB8)*
X98885080Y-52211171D03*
D20*
G04 #@! TO.P,J1,B9,VBUS*
G04 #@! TO.N,VBUS*
X98885080Y-52911171D03*
G04 #@! TO.P,J1,B12,GND*
G04 #@! TO.N,GND*
X98885080Y-53711171D03*
D22*
G04 #@! TO.P,J1,S1,SHIELD*
X99800080Y-54781171D03*
X99800080Y-46141171D03*
D23*
X103980080Y-54781171D03*
X103980080Y-46141171D03*
G04 #@! TD*
D24*
G04 #@! TO.P,SW1,1,1*
G04 #@! TO.N,/btn*
X70965080Y-47886171D03*
X70965080Y-53036171D03*
G04 #@! TO.P,SW1,2,2*
G04 #@! TO.N,GND*
X72665080Y-53036171D03*
X72665080Y-47886171D03*
G04 #@! TD*
D13*
G04 #@! TO.P,R3,1*
G04 #@! TO.N,/SCL*
X94421080Y-50906171D03*
G04 #@! TO.P,R3,2*
G04 #@! TO.N,+3V3*
X94421080Y-52556171D03*
G04 #@! TD*
D14*
G04 #@! TO.P,R8,1*
G04 #@! TO.N,/~{RST}*
X80006080Y-45000171D03*
G04 #@! TO.P,R8,2*
G04 #@! TO.N,+3V3*
X78356080Y-45000171D03*
G04 #@! TD*
G04 #@! TO.P,R15,1*
G04 #@! TO.N,Net-(D2-Pad1)*
X98167080Y-61637171D03*
G04 #@! TO.P,R15,2*
G04 #@! TO.N,Net-(R15-Pad2)*
X96517080Y-61637171D03*
G04 #@! TD*
D25*
G04 #@! TO.P,LS1,1,1*
G04 #@! TO.N,/piezo_p*
X100136080Y-38650171D03*
D26*
G04 #@! TO.P,LS1,2,2*
G04 #@! TO.N,/piezo_l*
X101768761Y-40595924D03*
G04 #@! TD*
D27*
G04 #@! TO.P,U5,1,GND*
G04 #@! TO.N,GND*
X81974080Y-39406171D03*
G04 #@! TO.P,U5,2,GND*
X81974080Y-40206171D03*
G04 #@! TO.P,U5,3,3V3*
G04 #@! TO.N,+3V3*
X81974080Y-41006171D03*
G04 #@! TO.P,U5,4,NC*
G04 #@! TO.N,unconnected-(U5-Pad4)*
X81974080Y-41806171D03*
G04 #@! TO.P,U5,5,IO2*
G04 #@! TO.N,/capsense*
X81974080Y-42606171D03*
G04 #@! TO.P,U5,6,IO3*
G04 #@! TO.N,/btn*
X81974080Y-43406171D03*
G04 #@! TO.P,U5,7,NC*
G04 #@! TO.N,unconnected-(U5-Pad7)*
X81974080Y-44206171D03*
G04 #@! TO.P,U5,8,EN*
G04 #@! TO.N,/~{RST}*
X81974080Y-45006171D03*
G04 #@! TO.P,U5,9,NC*
G04 #@! TO.N,unconnected-(U5-Pad9)*
X81974080Y-45806171D03*
G04 #@! TO.P,U5,10,NC*
G04 #@! TO.N,unconnected-(U5-Pad10)*
X81974080Y-46606171D03*
G04 #@! TO.P,U5,11,GND*
G04 #@! TO.N,GND*
X81974080Y-47406171D03*
D28*
G04 #@! TO.P,U5,12,IO0*
G04 #@! TO.N,/batsense*
X83074080Y-48306171D03*
G04 #@! TO.P,U5,13,IO1*
G04 #@! TO.N,/freq_gen*
X83874080Y-48306171D03*
G04 #@! TO.P,U5,14,GND*
G04 #@! TO.N,GND*
X84674080Y-48306171D03*
G04 #@! TO.P,U5,15,NC*
G04 #@! TO.N,unconnected-(U5-Pad15)*
X85474080Y-48306171D03*
G04 #@! TO.P,U5,16,IO10*
G04 #@! TO.N,unconnected-(U5-Pad16)*
X86274080Y-48306171D03*
G04 #@! TO.P,U5,17,NC*
G04 #@! TO.N,unconnected-(U5-Pad17)*
X87074080Y-48306171D03*
G04 #@! TO.P,U5,18,IO4*
G04 #@! TO.N,/SDA*
X87874080Y-48306171D03*
G04 #@! TO.P,U5,19,IO5*
G04 #@! TO.N,/LUX_INT*
X88674080Y-48306171D03*
G04 #@! TO.P,U5,20,IO6*
G04 #@! TO.N,/SCL*
X89474080Y-48306171D03*
G04 #@! TO.P,U5,21,IO7*
G04 #@! TO.N,unconnected-(U5-Pad21)*
X90274080Y-48306171D03*
G04 #@! TO.P,U5,22,IO8*
G04 #@! TO.N,unconnected-(U5-Pad22)*
X91074080Y-48306171D03*
G04 #@! TO.P,U5,23,IO9*
G04 #@! TO.N,unconnected-(U5-Pad23)*
X91874080Y-48306171D03*
G04 #@! TO.P,U5,24,NC*
G04 #@! TO.N,unconnected-(U5-Pad24)*
X92674080Y-48306171D03*
D27*
G04 #@! TO.P,U5,25,NC*
G04 #@! TO.N,unconnected-(U5-Pad25)*
X93774080Y-47406171D03*
G04 #@! TO.P,U5,26,IO18*
G04 #@! TO.N,/D-*
X93774080Y-46606171D03*
G04 #@! TO.P,U5,27,IO19*
G04 #@! TO.N,/D+*
X93774080Y-45806171D03*
G04 #@! TO.P,U5,28,NC*
G04 #@! TO.N,unconnected-(U5-Pad28)*
X93774080Y-45006171D03*
G04 #@! TO.P,U5,29,NC*
G04 #@! TO.N,unconnected-(U5-Pad29)*
X93774080Y-44206171D03*
G04 #@! TO.P,U5,30,RXD0*
G04 #@! TO.N,/piezo_l*
X93774080Y-43406171D03*
G04 #@! TO.P,U5,31,TXD0*
G04 #@! TO.N,/piezo_p*
X93774080Y-42606171D03*
G04 #@! TO.P,U5,32,NC*
G04 #@! TO.N,unconnected-(U5-Pad32)*
X93774080Y-41806171D03*
G04 #@! TO.P,U5,33,NC*
G04 #@! TO.N,unconnected-(U5-Pad33)*
X93774080Y-41006171D03*
G04 #@! TO.P,U5,34,NC*
G04 #@! TO.N,unconnected-(U5-Pad34)*
X93774080Y-40206171D03*
G04 #@! TO.P,U5,35,NC*
G04 #@! TO.N,unconnected-(U5-Pad35)*
X93774080Y-39406171D03*
D28*
G04 #@! TO.P,U5,36,GND*
G04 #@! TO.N,GND*
X92674080Y-38506171D03*
G04 #@! TO.P,U5,37,GND*
X91874080Y-38506171D03*
G04 #@! TO.P,U5,38,GND*
X91074080Y-38506171D03*
G04 #@! TO.P,U5,39,GND*
X90274080Y-38506171D03*
G04 #@! TO.P,U5,40,GND*
X89474080Y-38506171D03*
G04 #@! TO.P,U5,41,GND*
X88674080Y-38506171D03*
G04 #@! TO.P,U5,42,GND*
X87874080Y-38506171D03*
G04 #@! TO.P,U5,43,GND*
X87074080Y-38506171D03*
G04 #@! TO.P,U5,44,GND*
X86274080Y-38506171D03*
G04 #@! TO.P,U5,45,GND*
X85474080Y-38506171D03*
G04 #@! TO.P,U5,46,GND*
X84674080Y-38506171D03*
G04 #@! TO.P,U5,47,GND*
X83874080Y-38506171D03*
G04 #@! TO.P,U5,48,GND*
X83074080Y-38506171D03*
D29*
G04 #@! TO.P,U5,49_1,GND*
X85899080Y-41431171D03*
D30*
G04 #@! TO.P,U5,49_2,GND*
X87874080Y-41431171D03*
G04 #@! TO.P,U5,49_3,GND*
X89849080Y-41431171D03*
G04 #@! TO.P,U5,49_4,GND*
X89849080Y-43406171D03*
G04 #@! TO.P,U5,49_5,GND*
X89849080Y-45381171D03*
G04 #@! TO.P,U5,49_6,GND*
X87874080Y-45381171D03*
G04 #@! TO.P,U5,49_7,GND*
X85899080Y-45381171D03*
G04 #@! TO.P,U5,49_8,GND*
X85899080Y-43406171D03*
G04 #@! TO.P,U5,49_9,GND*
X87874080Y-43406171D03*
D31*
G04 #@! TO.P,U5,50,GND*
X93824080Y-38456171D03*
G04 #@! TO.P,U5,51,GND*
X93824080Y-48356171D03*
G04 #@! TO.P,U5,52,GND*
X81924080Y-48356171D03*
G04 #@! TO.P,U5,53,GND*
X81924080Y-38456171D03*
G04 #@! TD*
D32*
G04 #@! TO.P,C5,1*
G04 #@! TO.N,VBUS*
X95945080Y-53496171D03*
G04 #@! TO.P,C5,2*
G04 #@! TO.N,GND*
X95945080Y-55046171D03*
G04 #@! TD*
D33*
G04 #@! TO.P,D4,1,K*
G04 #@! TO.N,+BATT*
X98967580Y-44111171D03*
G04 #@! TO.P,D4,2,A*
G04 #@! TO.N,Net-(D4-Pad2)*
X100542580Y-44111171D03*
G04 #@! TD*
D34*
G04 #@! TO.P,J3,1,Pin_1*
G04 #@! TO.N,VCC*
X100517080Y-60621171D03*
G04 #@! TD*
D13*
G04 #@! TO.P,R1,1*
G04 #@! TO.N,GND*
X95945080Y-50017171D03*
G04 #@! TO.P,R1,2*
G04 #@! TO.N,Net-(J1-PadA5)*
X95945080Y-51667171D03*
G04 #@! TD*
D35*
G04 #@! TO.P,R12,1*
G04 #@! TO.N,Net-(D1-Pad1)*
X94167080Y-64240171D03*
G04 #@! TO.P,R12,2*
G04 #@! TO.N,Net-(R12-Pad2)*
X94167080Y-62590171D03*
G04 #@! TD*
D36*
G04 #@! TO.P,D3,1,K*
G04 #@! TO.N,/capsense*
X90019080Y-65955171D03*
G04 #@! TO.P,D3,2,A*
G04 #@! TO.N,Net-(C4-Pad1)*
X92219080Y-65955171D03*
G04 #@! TD*
D37*
G04 #@! TO.P,C7,1*
G04 #@! TO.N,GND*
X90979080Y-64177171D03*
G04 #@! TO.P,C7,2*
G04 #@! TO.N,VCC*
X92529080Y-64177171D03*
G04 #@! TD*
D35*
G04 #@! TO.P,R11,1*
G04 #@! TO.N,VCC*
X95945080Y-58652171D03*
G04 #@! TO.P,R11,2*
G04 #@! TO.N,Net-(J2-Pad1)*
X95945080Y-57002171D03*
G04 #@! TD*
D13*
G04 #@! TO.P,R4,1*
G04 #@! TO.N,/SDA*
X85277080Y-53319171D03*
G04 #@! TO.P,R4,2*
G04 #@! TO.N,+3V3*
X85277080Y-54969171D03*
G04 #@! TD*
D14*
G04 #@! TO.P,R17,1*
G04 #@! TO.N,GND*
X103628080Y-44111171D03*
G04 #@! TO.P,R17,2*
G04 #@! TO.N,Net-(D4-Pad2)*
X101978080Y-44111171D03*
G04 #@! TD*
D38*
G04 #@! TO.P,J2,1,Pin_1*
G04 #@! TO.N,Net-(J2-Pad1)*
X102803080Y-57573171D03*
G04 #@! TD*
D39*
G04 #@! TO.P,U1,1,VDD*
G04 #@! TO.N,+3V3*
X85139080Y-50573171D03*
G04 #@! TO.P,U1,2,NC*
G04 #@! TO.N,unconnected-(U1-Pad2)*
X85139080Y-51223171D03*
G04 #@! TO.P,U1,3,GND*
G04 #@! TO.N,GND*
X85139080Y-51873171D03*
G04 #@! TO.P,U1,4,SCL*
G04 #@! TO.N,/SCL*
X86939080Y-51873171D03*
G04 #@! TO.P,U1,5,INT*
G04 #@! TO.N,/LUX_INT*
X86939080Y-51223171D03*
G04 #@! TO.P,U1,6,SDA*
G04 #@! TO.N,/SDA*
X86939080Y-50573171D03*
G04 #@! TD*
D40*
G04 #@! TO.P,C3,1*
G04 #@! TO.N,/~{RST}*
X79956080Y-46651171D03*
G04 #@! TO.P,C3,2*
G04 #@! TO.N,GND*
X78406080Y-46651171D03*
G04 #@! TD*
D14*
G04 #@! TO.P,R14,1*
G04 #@! TO.N,/batsense*
X79371080Y-49953171D03*
G04 #@! TO.P,R14,2*
G04 #@! TO.N,GND*
X77721080Y-49953171D03*
G04 #@! TD*
D13*
G04 #@! TO.P,R7,1*
G04 #@! TO.N,/btn*
X75117080Y-47350171D03*
G04 #@! TO.P,R7,2*
G04 #@! TO.N,+3V3*
X75117080Y-49000171D03*
G04 #@! TD*
D41*
G04 #@! TO.P,C4,1*
G04 #@! TO.N,Net-(C4-Pad1)*
X91952200Y-70544951D03*
D42*
G04 #@! TO.P,C4,2*
G04 #@! TO.N,GND*
X83952200Y-70544951D03*
G04 #@! TD*
D32*
G04 #@! TO.P,C2,1*
G04 #@! TO.N,+3V3*
X92008080Y-50448171D03*
G04 #@! TO.P,C2,2*
G04 #@! TO.N,GND*
X92008080Y-51998171D03*
G04 #@! TD*
D15*
G04 #@! TO.P,D2,1,K*
G04 #@! TO.N,Net-(D2-Pad1)*
X97779389Y-63532089D03*
G04 #@! TO.P,D2,2,A*
G04 #@! TO.N,VBUS*
X98682771Y-64822253D03*
G04 #@! TD*
D32*
G04 #@! TO.P,C1,1*
G04 #@! TO.N,+3V3*
X83626080Y-50448171D03*
G04 #@! TO.P,C1,2*
G04 #@! TO.N,GND*
X83626080Y-51998171D03*
G04 #@! TD*
D14*
G04 #@! TO.P,R5,1*
G04 #@! TO.N,GND*
X99945080Y-56938171D03*
G04 #@! TO.P,R5,2*
G04 #@! TO.N,Net-(R5-Pad2)*
X98295080Y-56938171D03*
G04 #@! TD*
D11*
G04 #@! TO.P,C10,1*
G04 #@! TO.N,VCC*
X91500080Y-62171171D03*
G04 #@! TO.P,C10,2*
G04 #@! TO.N,GND*
X91500080Y-60621171D03*
G04 #@! TD*
D13*
G04 #@! TO.P,R2,1*
G04 #@! TO.N,GND*
X96326080Y-43921171D03*
G04 #@! TO.P,R2,2*
G04 #@! TO.N,Net-(J1-PadB5)*
X96326080Y-45571171D03*
G04 #@! TD*
D43*
G04 #@! TO.P,U2,1,VDD*
G04 #@! TO.N,+3V3*
X90349080Y-50253171D03*
G04 #@! TO.P,U2,2,SCL*
G04 #@! TO.N,/SCL*
X89349080Y-50253171D03*
G04 #@! TO.P,U2,3,SDA*
G04 #@! TO.N,/SDA*
X89349080Y-52193171D03*
G04 #@! TO.P,U2,4,VSS*
G04 #@! TO.N,GND*
X90349080Y-52193171D03*
D44*
G04 #@! TO.P,U2,5,NC*
G04 #@! TO.N,unconnected-(U2-Pad5)*
X89849080Y-51223171D03*
G04 #@! TD*
D45*
G04 #@! TO.P,C6,1*
G04 #@! TO.N,GND*
X77951088Y-53596163D03*
G04 #@! TO.P,C6,2*
G04 #@! TO.N,+BATT*
X76855072Y-54692179D03*
G04 #@! TD*
D46*
G04 #@! TO.N,+BATT*
X72644080Y-50461171D03*
X74736080Y-51350171D03*
X102295080Y-46905171D03*
X73974080Y-50461171D03*
G04 #@! TO.N,+3V3*
X76133080Y-40936171D03*
X76158091Y-49445171D03*
X85277080Y-63288171D03*
X84134080Y-62145171D03*
X77149080Y-45000171D03*
X76864477Y-51716303D03*
G04 #@! TO.N,GND*
X89849080Y-45381171D03*
X87874080Y-43419171D03*
X78454939Y-50665208D03*
X80832080Y-39412171D03*
X78673080Y-52874171D03*
X91881080Y-39539171D03*
X92262080Y-54398171D03*
X96961080Y-55033171D03*
X94167080Y-58208171D03*
X84769080Y-47286171D03*
X93786080Y-49191171D03*
X85899080Y-45381171D03*
X88706080Y-39539171D03*
X94929080Y-38396171D03*
X85899080Y-43362171D03*
X85404080Y-39539171D03*
X86293080Y-55922171D03*
X104581080Y-44111171D03*
X76133080Y-39412171D03*
X91500080Y-59605171D03*
X83880080Y-39539171D03*
X92516080Y-56684171D03*
X85277080Y-59605171D03*
X90992080Y-58081171D03*
X87874080Y-41431171D03*
X81576093Y-49001504D03*
X89849080Y-41431171D03*
X87563080Y-63669171D03*
X87874080Y-45324171D03*
X73466080Y-46524171D03*
X97469080Y-43984171D03*
X77276080Y-46651171D03*
X89849080Y-43406171D03*
X90230080Y-39539171D03*
X94929080Y-49953171D03*
X87055080Y-39539171D03*
X85899080Y-41431171D03*
X83626080Y-53001171D03*
X72704080Y-54398171D03*
X100898080Y-56684171D03*
X91754080Y-53001171D03*
X89976080Y-64177171D03*
G04 #@! TO.N,Net-(R12-Pad2)*
X93673847Y-59717404D03*
X94805908Y-60851298D03*
G04 #@! TO.N,Net-(R15-Pad2)*
X95691080Y-60113171D03*
X94571203Y-58966094D03*
G04 #@! TO.N,/freq_gen*
X88579080Y-68241171D03*
X77149080Y-50969171D03*
G04 #@! TD*
D47*
G04 #@! TO.N,+BATT*
X74007580Y-51824671D02*
X73245580Y-51062671D01*
D48*
X99792100Y-44935691D02*
X101341600Y-44935691D01*
D47*
X73245580Y-51062671D02*
X73372580Y-51062671D01*
X73245580Y-51062671D02*
X72644080Y-50461171D01*
X73372580Y-51062671D02*
X73974080Y-50461171D01*
D48*
X101341600Y-44935691D02*
X102295080Y-45889171D01*
D47*
X90230080Y-56934171D02*
X89210080Y-57954171D01*
D48*
X98967580Y-44111171D02*
X99792100Y-44935691D01*
D47*
X80137080Y-57954171D02*
X74007580Y-51824671D01*
D49*
X76757591Y-49392660D02*
X76757591Y-50450682D01*
D48*
X102295080Y-45889171D02*
X102295080Y-46905171D01*
D49*
X75879080Y-51350171D02*
X74736080Y-51350171D01*
D47*
X74007580Y-51824671D02*
X74261580Y-51824671D01*
D49*
X76768080Y-50461171D02*
X75879080Y-51350171D01*
X77721080Y-48429171D02*
X76757591Y-49392660D01*
D48*
X91078580Y-56434171D02*
X91078580Y-56934171D01*
D47*
X74261580Y-51824671D02*
X74736080Y-51350171D01*
D48*
X91078580Y-56934171D02*
X90230080Y-56934171D01*
D47*
X89210080Y-57954171D02*
X80137080Y-57954171D01*
D49*
X76757591Y-50450682D02*
X76768080Y-50461171D01*
D48*
G04 #@! TO.N,+3V3*
X84959080Y-54969171D02*
X83753080Y-53763171D01*
X85502080Y-62396171D02*
X85277080Y-62171171D01*
X81467080Y-53128171D02*
X81467080Y-52112171D01*
X81467080Y-52112171D02*
X77260345Y-52112171D01*
X76146080Y-40949171D02*
X76133080Y-40936171D01*
X77260345Y-52112171D02*
X76864477Y-51716303D01*
X81917080Y-40949171D02*
X81974080Y-41006171D01*
X93532080Y-51096171D02*
X92884080Y-50448171D01*
X85014080Y-50448171D02*
X85139080Y-50573171D01*
X85277080Y-62171171D02*
X84160080Y-62171171D01*
X85468080Y-54969171D02*
X86674080Y-53763171D01*
X93532080Y-52239171D02*
X93849080Y-52556171D01*
X82102080Y-53763171D02*
X81467080Y-53128171D01*
X90349080Y-50253171D02*
X91813080Y-50253171D01*
X76158091Y-49445171D02*
X75713091Y-49000171D01*
X85277080Y-54969171D02*
X85468080Y-54969171D01*
X85277080Y-54969171D02*
X84959080Y-54969171D01*
X77403080Y-40949171D02*
X76146080Y-40949171D01*
X92008080Y-53763171D02*
X93532080Y-52239171D01*
X86674080Y-53763171D02*
X92008080Y-53763171D01*
X91813080Y-50253171D02*
X92008080Y-50448171D01*
X81467080Y-52112171D02*
X81467080Y-51350875D01*
X93849080Y-52556171D02*
X94421080Y-52556171D01*
X82864080Y-53763171D02*
X82102080Y-53763171D01*
X79181080Y-40949171D02*
X81917080Y-40949171D01*
X83626080Y-50448171D02*
X85014080Y-50448171D01*
X82369784Y-50448171D02*
X83626080Y-50448171D01*
X75713091Y-49000171D02*
X75117080Y-49000171D01*
X83753080Y-53763171D02*
X82864080Y-53763171D01*
X92884080Y-50448171D02*
X92008080Y-50448171D01*
X87131580Y-62396171D02*
X85502080Y-62396171D01*
X77403080Y-40949171D02*
X79181080Y-40949171D01*
X85277080Y-62171171D02*
X85277080Y-63288171D01*
X81467080Y-51350875D02*
X82369784Y-50448171D01*
X93532080Y-52239171D02*
X93532080Y-51096171D01*
X84160080Y-62171171D02*
X84134080Y-62145171D01*
X78356080Y-45000171D02*
X77149080Y-45000171D01*
D49*
G04 #@! TO.N,Net-(C4-Pad1)*
X92031580Y-68241171D02*
X92219080Y-68053671D01*
X92031580Y-68241171D02*
X92031580Y-70465571D01*
X92031580Y-70465571D02*
X91952200Y-70544951D01*
X92219080Y-68053671D02*
X92219080Y-65955171D01*
G04 #@! TO.N,/SDA*
X86039080Y-51858171D02*
X86039080Y-50842171D01*
X87874080Y-49638171D02*
X87874080Y-48306171D01*
X89349080Y-52193171D02*
X88922080Y-52620171D01*
X86308080Y-50573171D02*
X86939080Y-50573171D01*
X85277080Y-53319171D02*
X85277080Y-53001171D01*
X86229580Y-52048671D02*
X86039080Y-51858171D01*
X86039080Y-50842171D02*
X86308080Y-50573171D01*
X86801080Y-52620171D02*
X86229580Y-52048671D01*
X88922080Y-52620171D02*
X86801080Y-52620171D01*
X86939080Y-50573171D02*
X87874080Y-49638171D01*
X85277080Y-53001171D02*
X86229580Y-52048671D01*
G04 #@! TO.N,/SCL*
X92833080Y-49318171D02*
X89341080Y-49318171D01*
X89168080Y-50253171D02*
X87548080Y-51873171D01*
X89341080Y-49318171D02*
X89341080Y-50245171D01*
X89474080Y-48306171D02*
X89341080Y-48439171D01*
X89349080Y-50253171D02*
X89168080Y-50253171D01*
X89341080Y-48439171D02*
X89341080Y-49318171D01*
X87548080Y-51873171D02*
X86939080Y-51873171D01*
X94421080Y-50906171D02*
X92833080Y-49318171D01*
X89341080Y-50245171D02*
X89349080Y-50253171D01*
D48*
G04 #@! TO.N,GND*
X87874080Y-43406171D02*
X87874080Y-41431171D01*
X91766080Y-58121671D02*
X91032580Y-58121671D01*
X81924080Y-38456171D02*
X93824080Y-38456171D01*
X78433117Y-50665208D02*
X78454939Y-50665208D01*
X87874080Y-43406171D02*
X89849080Y-43406171D01*
X81974080Y-40206171D02*
X81974080Y-39406171D01*
X81924080Y-47456171D02*
X81974080Y-47406171D01*
X77403080Y-39399171D02*
X76146080Y-39399171D01*
X88674080Y-38506171D02*
X88674080Y-39507171D01*
X72665080Y-54359171D02*
X72704080Y-54398171D01*
X90274080Y-38506171D02*
X90274080Y-39495171D01*
X81974080Y-39406171D02*
X81974080Y-38506171D01*
X78406080Y-46651171D02*
X77276080Y-46651171D01*
X90544080Y-51998171D02*
X90349080Y-52193171D01*
X85474080Y-39469171D02*
X85404080Y-39539171D01*
X91500080Y-59605171D02*
X91500080Y-60621171D01*
X98885080Y-47056171D02*
X99800080Y-46141171D01*
X87957080Y-41431171D02*
X89849080Y-41431171D01*
X96326080Y-43921171D02*
X97406080Y-43921171D01*
X91500080Y-60621171D02*
X90675080Y-61446171D01*
X85899080Y-45381171D02*
X85899080Y-43406171D01*
X85277080Y-60621171D02*
X85277080Y-59605171D01*
X87056080Y-55922171D02*
X87119080Y-55859171D01*
X80838080Y-39406171D02*
X80832080Y-39412171D01*
X91754080Y-52252171D02*
X92008080Y-51998171D01*
X81924080Y-48653517D02*
X81576093Y-49001504D01*
X90274080Y-39495171D02*
X90230080Y-39539171D01*
X95945080Y-50017171D02*
X94993080Y-50017171D01*
X87874080Y-45324171D02*
X87874080Y-43419171D01*
X72665080Y-47886171D02*
X72665080Y-47325171D01*
X85474080Y-38506171D02*
X85474080Y-39469171D01*
X85899080Y-43362171D02*
X85899080Y-43406171D01*
X93824080Y-49153171D02*
X93786080Y-49191171D01*
X85899080Y-45381171D02*
X87874080Y-45381171D01*
X92262080Y-54398171D02*
X92262080Y-55242671D01*
X91078580Y-57434171D02*
X91078580Y-57994671D01*
X87874080Y-41431171D02*
X87957080Y-41431171D01*
X91754080Y-53001171D02*
X91754080Y-52252171D01*
X91078580Y-57994671D02*
X90992080Y-58081171D01*
X94080580Y-58121671D02*
X93266080Y-58121671D01*
X88674080Y-39507171D02*
X88706080Y-39539171D01*
X87874080Y-43419171D02*
X87874080Y-43406171D01*
X97406080Y-43921171D02*
X97469080Y-43984171D01*
X85899080Y-41431171D02*
X87874080Y-41431171D01*
X78673080Y-52874171D02*
X77951088Y-53596163D01*
X86597080Y-64164171D02*
X86547080Y-64114171D01*
X87119080Y-55859171D02*
X87119080Y-56811171D01*
X87074080Y-39520171D02*
X87055080Y-39539171D01*
X87874080Y-45381171D02*
X87874080Y-45324171D01*
X85899080Y-41431171D02*
X85899080Y-43362171D01*
X100644080Y-56938171D02*
X100898080Y-56684171D01*
X87074080Y-38506171D02*
X87074080Y-39520171D01*
X83751080Y-51873171D02*
X83626080Y-51998171D01*
X83626080Y-51998171D02*
X83626080Y-53001171D01*
X84674080Y-48306171D02*
X84674080Y-47381171D01*
X88325080Y-64164171D02*
X87550080Y-64164171D01*
X89849080Y-41431171D02*
X89849080Y-43406171D01*
X81974080Y-38506171D02*
X81924080Y-38456171D01*
X94167080Y-58208171D02*
X94080580Y-58121671D01*
X87550080Y-64164171D02*
X87550080Y-63682171D01*
X72665080Y-47325171D02*
X73466080Y-46524171D01*
X87874080Y-45381171D02*
X89849080Y-45381171D01*
X81924080Y-48356171D02*
X81924080Y-47456171D01*
X91766080Y-57434171D02*
X92516080Y-56684171D01*
X85139080Y-51873171D02*
X83751080Y-51873171D01*
X81974080Y-39406171D02*
X80838080Y-39406171D01*
X91874080Y-39532171D02*
X91881080Y-39539171D01*
X84674080Y-47381171D02*
X84769080Y-47286171D01*
X103628080Y-44111171D02*
X104581080Y-44111171D01*
X93824080Y-38456171D02*
X94869080Y-38456171D01*
X86293080Y-55922171D02*
X87056080Y-55922171D01*
X95945080Y-55046171D02*
X96948080Y-55046171D01*
X72665080Y-53036171D02*
X72665080Y-54359171D01*
X98885080Y-53711171D02*
X98885080Y-53866171D01*
X83874080Y-39533171D02*
X83880080Y-39539171D01*
X83874080Y-38506171D02*
X83874080Y-39533171D01*
X77721080Y-49953171D02*
X78433117Y-50665208D01*
X87119080Y-55160171D02*
X87119080Y-55859171D01*
X91766080Y-58121671D02*
X91766080Y-57434171D01*
X94993080Y-50017171D02*
X94929080Y-49953171D01*
X85899080Y-43406171D02*
X87874080Y-43406171D01*
X92008080Y-51998171D02*
X90544080Y-51998171D01*
X91874080Y-38506171D02*
X91874080Y-39532171D01*
X90675080Y-61446171D02*
X89406580Y-61446171D01*
X87550080Y-63682171D02*
X87563080Y-63669171D01*
X87550080Y-64164171D02*
X86597080Y-64164171D01*
X96948080Y-55046171D02*
X96961080Y-55033171D01*
X98885080Y-47211171D02*
X98885080Y-47056171D01*
X99945080Y-56938171D02*
X100644080Y-56938171D01*
X81924080Y-48356171D02*
X81924080Y-48653517D01*
X90979080Y-64177171D02*
X89976080Y-64177171D01*
X77403080Y-39399171D02*
X79181080Y-39399171D01*
X76146080Y-39399171D02*
X76133080Y-39412171D01*
X89849080Y-45381171D02*
X89849080Y-43406171D01*
X98885080Y-53866171D02*
X99800080Y-54781171D01*
X93824080Y-48356171D02*
X93824080Y-49153171D01*
X92262080Y-55242671D02*
X92266080Y-55246671D01*
X94869080Y-38456171D02*
X94929080Y-38396171D01*
X91032580Y-58121671D02*
X90992080Y-58081171D01*
D49*
G04 #@! TO.N,/LUX_INT*
X87143731Y-51223171D02*
X88674080Y-49692822D01*
X88674080Y-49692822D02*
X88674080Y-48306171D01*
X86939080Y-51223171D02*
X87143731Y-51223171D01*
D48*
G04 #@! TO.N,VBUS*
X98682771Y-64822253D02*
X98855998Y-64822253D01*
X98347998Y-64822253D02*
X98682771Y-64822253D01*
X99745451Y-48011171D02*
X100359111Y-48624831D01*
X99591080Y-52911171D02*
X98885080Y-52911171D01*
X98885080Y-48011171D02*
X99745451Y-48011171D01*
X100359111Y-48624831D02*
X100359111Y-52143140D01*
X93266080Y-54537171D02*
X94307080Y-53496171D01*
X95945080Y-53496171D02*
X96339080Y-53496171D01*
X94307080Y-53496171D02*
X95945080Y-53496171D01*
X98855998Y-64822253D02*
X105129600Y-58548651D01*
X97031771Y-65838253D02*
X97331998Y-65838253D01*
X93266080Y-55246671D02*
X93266080Y-54537171D01*
X100359111Y-52143140D02*
X99591080Y-52911171D01*
X105129600Y-58548651D02*
X105129600Y-54311691D01*
X105129600Y-54311691D02*
X102961049Y-52143140D01*
X96924080Y-52911171D02*
X98885080Y-52911171D01*
X97331998Y-65838253D02*
X98347998Y-64822253D01*
X102961049Y-52143140D02*
X100359111Y-52143140D01*
X96339080Y-53496171D02*
X96924080Y-52911171D01*
G04 #@! TO.N,VCC*
X88944080Y-62396171D02*
X89406580Y-62396171D01*
D47*
X89406580Y-62396171D02*
X91275080Y-62396171D01*
D48*
X89406580Y-60496171D02*
X88987653Y-60496171D01*
D47*
X88198080Y-61144322D02*
X88198080Y-61748020D01*
D48*
X92529080Y-62274171D02*
X92426080Y-62171171D01*
X92266080Y-59228171D02*
X93817580Y-60779671D01*
D47*
X93817580Y-60779671D02*
X95945080Y-58652171D01*
D48*
X92529080Y-64177171D02*
X92529080Y-62274171D01*
X92266080Y-58121671D02*
X92266080Y-59228171D01*
D47*
X91500080Y-62171171D02*
X92426080Y-62171171D01*
X88987653Y-60496171D02*
X88846231Y-60496171D01*
X88846231Y-60496171D02*
X88198080Y-61144322D01*
D48*
X97914080Y-60621171D02*
X100517080Y-60621171D01*
D47*
X88846231Y-62396171D02*
X88944080Y-62396171D01*
D48*
X95945080Y-58652171D02*
X97914080Y-60621171D01*
D47*
X88198080Y-61748020D02*
X88846231Y-62396171D01*
D48*
X91275080Y-62396171D02*
X91500080Y-62171171D01*
D47*
X92426080Y-62171171D02*
X93817580Y-60779671D01*
D49*
G04 #@! TO.N,Net-(D1-Pad1)*
X96128389Y-64548089D02*
X94474998Y-64548089D01*
X94474998Y-64548089D02*
X94167080Y-64240171D01*
G04 #@! TO.N,Net-(D2-Pad1)*
X98167080Y-63144398D02*
X97779389Y-63532089D01*
X98167080Y-61637171D02*
X98167080Y-63144398D01*
G04 #@! TO.N,Net-(J1-PadA5)*
X95989080Y-51711171D02*
X98885080Y-51711171D01*
X95945080Y-51667171D02*
X95989080Y-51711171D01*
G04 #@! TO.N,/~{RST}*
X81968080Y-45000171D02*
X81974080Y-45006171D01*
X79956080Y-46651171D02*
X79956080Y-45050171D01*
X79956080Y-45050171D02*
X80006080Y-45000171D01*
X80006080Y-45000171D02*
X81968080Y-45000171D01*
G04 #@! TO.N,Net-(J1-PadB5)*
X96326080Y-45571171D02*
X96326080Y-46909269D01*
X96326080Y-46909269D02*
X98127982Y-48711171D01*
X98127982Y-48711171D02*
X98885080Y-48711171D01*
D48*
G04 #@! TO.N,Net-(J2-Pad1)*
X95945080Y-57002171D02*
X97024080Y-58081171D01*
X97024080Y-58081171D02*
X102295080Y-58081171D01*
X95877080Y-56934171D02*
X95945080Y-57002171D01*
X93953580Y-56934171D02*
X93953580Y-56434171D01*
X93953580Y-56934171D02*
X95877080Y-56934171D01*
X102295080Y-58081171D02*
X102803080Y-57573171D01*
D49*
G04 #@! TO.N,/piezo_p*
X96180080Y-42606171D02*
X100136080Y-38650171D01*
X93774080Y-42606171D02*
X96180080Y-42606171D01*
G04 #@! TO.N,/piezo_l*
X99358994Y-43005691D02*
X101768761Y-40595924D01*
X94374080Y-43406171D02*
X94774560Y-43005691D01*
X94774560Y-43005691D02*
X99358994Y-43005691D01*
X93774080Y-43406171D02*
X94374080Y-43406171D01*
G04 #@! TO.N,Net-(R5-Pad2)*
X97291080Y-55934171D02*
X98295080Y-56938171D01*
X93953580Y-55934171D02*
X97291080Y-55934171D01*
G04 #@! TO.N,Net-(R6-Pad2)*
X91679580Y-55160171D02*
X91766080Y-55246671D01*
X88769080Y-55160171D02*
X91679580Y-55160171D01*
G04 #@! TO.N,/btn*
X70965080Y-47886171D02*
X73722080Y-45129171D01*
X75117080Y-46524171D02*
X73722080Y-45129171D01*
X75445080Y-43406171D02*
X81974080Y-43406171D01*
X70965080Y-53036171D02*
X70965080Y-47886171D01*
X75117080Y-47350171D02*
X75117080Y-46524171D01*
X73722080Y-45129171D02*
X75445080Y-43406171D01*
G04 #@! TO.N,/capsense*
X82060058Y-65955171D02*
X70037080Y-53932193D01*
X73828080Y-42606171D02*
X81974080Y-42606171D01*
X90019080Y-65955171D02*
X82060058Y-65955171D01*
X70037080Y-46397171D02*
X73828080Y-42606171D01*
X70037080Y-53932193D02*
X70037080Y-46397171D01*
G04 #@! TO.N,Net-(R10-Pad1)*
X88769080Y-56811171D02*
X89646080Y-55934171D01*
X89646080Y-55934171D02*
X91078580Y-55934171D01*
G04 #@! TO.N,Net-(R12-Pad2)*
X94805908Y-60851298D02*
X94805908Y-61951343D01*
X93673847Y-59717404D02*
X92766080Y-58809637D01*
X92766080Y-58809637D02*
X92766080Y-58121671D01*
X94805908Y-61951343D02*
X94167080Y-62590171D01*
G04 #@! TO.N,/batsense*
X83074080Y-48306171D02*
X83074080Y-48506171D01*
X79371080Y-48429171D02*
X79371080Y-49953171D01*
X83074080Y-48506171D02*
X82026590Y-49553661D01*
X81410086Y-49953171D02*
X79371080Y-49953171D01*
X82026590Y-49553661D02*
X81809596Y-49553661D01*
X81809596Y-49553661D02*
X81410086Y-49953171D01*
G04 #@! TO.N,Net-(R15-Pad2)*
X96517080Y-60939171D02*
X96517080Y-61637171D01*
X94571203Y-58966094D02*
X94802080Y-58735217D01*
X94802080Y-57827171D02*
X94409080Y-57434171D01*
X94409080Y-57434171D02*
X93953580Y-57434171D01*
X95691080Y-60113171D02*
X96517080Y-60939171D01*
X94802080Y-58735217D02*
X94802080Y-57827171D01*
G04 #@! TO.N,/D+*
X99909591Y-50560660D02*
X99759080Y-50711171D01*
D50*
X97835569Y-49685682D02*
X98502131Y-49685682D01*
X94821420Y-46004971D02*
X97835569Y-49019120D01*
D49*
X99859102Y-49711171D02*
X99909591Y-49761660D01*
X99909591Y-49761660D02*
X99909591Y-50560660D01*
D50*
X98502131Y-49685682D02*
X98576420Y-49759971D01*
X97835569Y-49019120D02*
X97835569Y-49685682D01*
D49*
X99759080Y-50711171D02*
X98885080Y-50711171D01*
X98885080Y-49711171D02*
X99859102Y-49711171D01*
D50*
X94374081Y-45806171D02*
X94572881Y-46004971D01*
X94572881Y-46004971D02*
X94821420Y-46004971D01*
X98576420Y-49759971D02*
X98836280Y-49759971D01*
X93774080Y-45806171D02*
X94374081Y-45806171D01*
X98836280Y-49759971D02*
X98885080Y-49711171D01*
G04 #@! TO.N,/D-*
X93774080Y-46606171D02*
X94374081Y-46606171D01*
D49*
X97850080Y-51150193D02*
X97911058Y-51211171D01*
D50*
X97433178Y-49185809D02*
X97433178Y-49852357D01*
X94654740Y-46407371D02*
X97433178Y-49185809D01*
X98836280Y-50162371D02*
X98885080Y-50211171D01*
D49*
X98885080Y-50211171D02*
X97911058Y-50211171D01*
D50*
X94374081Y-46606171D02*
X94572881Y-46407371D01*
D49*
X97911058Y-50211171D02*
X97850080Y-50272149D01*
D50*
X97433178Y-49852357D02*
X97743192Y-50162371D01*
D49*
X97850080Y-50272149D02*
X97850080Y-51150193D01*
X97911058Y-51211171D02*
X98885080Y-51211171D01*
D50*
X97743192Y-50162371D02*
X98836280Y-50162371D01*
X94572881Y-46407371D02*
X94654740Y-46407371D01*
D49*
G04 #@! TO.N,Net-(D4-Pad2)*
X100542580Y-44111171D02*
X101978080Y-44111171D01*
G04 #@! TO.N,/freq_gen*
X77657080Y-51477171D02*
X77149080Y-50969171D01*
X81975080Y-49953171D02*
X81213080Y-50715171D01*
X88579080Y-68241171D02*
X90206580Y-68241171D01*
X83874080Y-48906171D02*
X82827080Y-49953171D01*
X81213080Y-50715171D02*
X80451080Y-51477171D01*
X82827080Y-49953171D02*
X81975080Y-49953171D01*
X80451080Y-51477171D02*
X78419080Y-51477171D01*
X78419080Y-51477171D02*
X77657080Y-51477171D01*
X83874080Y-48306171D02*
X83874080Y-48906171D01*
G04 #@! TD*
M02*
