G04 #@! TF.GenerationSoftware,KiCad,Pcbnew,6.0.5-a6ca702e91~116~ubuntu20.04.1*
G04 #@! TF.CreationDate,2022-07-01T20:22:11+00:00*
G04 #@! TF.ProjectId,PlantBuddy,506c616e-7442-4756-9464-792e6b696361,rev?*
G04 #@! TF.SameCoordinates,Original*
G04 #@! TF.FileFunction,Legend,Top*
G04 #@! TF.FilePolarity,Positive*
%FSLAX46Y46*%
G04 Gerber Fmt 4.6, Leading zero omitted, Abs format (unit mm)*
G04 Created by KiCad (PCBNEW 6.0.5-a6ca702e91~116~ubuntu20.04.1) date 2022-07-01 20:22:11*
%MOMM*%
%LPD*%
G01*
G04 APERTURE LIST*
%ADD10C,0.150000*%
%ADD11C,0.120000*%
%ADD12C,0.127000*%
%ADD13C,0.200000*%
%ADD14C,0.160000*%
G04 APERTURE END LIST*
D10*
X123375746Y-60197837D02*
X123375746Y-59497837D01*
X123642413Y-59497837D01*
X123709080Y-59531171D01*
X123742413Y-59564504D01*
X123775746Y-59631171D01*
X123775746Y-59731171D01*
X123742413Y-59797837D01*
X123709080Y-59831171D01*
X123642413Y-59864504D01*
X123375746Y-59864504D01*
X124009080Y-59497837D02*
X124175746Y-60197837D01*
X124309080Y-59697837D01*
X124442413Y-60197837D01*
X124609080Y-59497837D01*
X125275746Y-60197837D02*
X125042413Y-59864504D01*
X124875746Y-60197837D02*
X124875746Y-59497837D01*
X125142413Y-59497837D01*
X125209080Y-59531171D01*
X125242413Y-59564504D01*
X125275746Y-59631171D01*
X125275746Y-59731171D01*
X125242413Y-59797837D01*
X125209080Y-59831171D01*
X125142413Y-59864504D01*
X124875746Y-59864504D01*
X147725746Y-72947837D02*
X147392413Y-72947837D01*
X147359080Y-73281171D01*
X147392413Y-73247837D01*
X147459080Y-73214504D01*
X147625746Y-73214504D01*
X147692413Y-73247837D01*
X147725746Y-73281171D01*
X147759080Y-73347837D01*
X147759080Y-73514504D01*
X147725746Y-73581171D01*
X147692413Y-73614504D01*
X147625746Y-73647837D01*
X147459080Y-73647837D01*
X147392413Y-73614504D01*
X147359080Y-73581171D01*
X148359080Y-73614504D02*
X148292413Y-73647837D01*
X148159080Y-73647837D01*
X148092413Y-73614504D01*
X148059080Y-73581171D01*
X148025746Y-73514504D01*
X148025746Y-73314504D01*
X148059080Y-73247837D01*
X148092413Y-73214504D01*
X148159080Y-73181171D01*
X148292413Y-73181171D01*
X148359080Y-73214504D01*
X148692413Y-73647837D02*
X148825746Y-73647837D01*
X148892413Y-73614504D01*
X148925746Y-73581171D01*
X148992413Y-73481171D01*
X149025746Y-73347837D01*
X149025746Y-73081171D01*
X148992413Y-73014504D01*
X148959080Y-72981171D01*
X148892413Y-72947837D01*
X148759080Y-72947837D01*
X148692413Y-72981171D01*
X148659080Y-73014504D01*
X148625746Y-73081171D01*
X148625746Y-73247837D01*
X148659080Y-73314504D01*
X148692413Y-73347837D01*
X148759080Y-73381171D01*
X148892413Y-73381171D01*
X148959080Y-73347837D01*
X148992413Y-73314504D01*
X149025746Y-73247837D01*
X149225746Y-73181171D02*
X149492413Y-73181171D01*
X149325746Y-73647837D02*
X149325746Y-73047837D01*
X149359080Y-72981171D01*
X149425746Y-72947837D01*
X149492413Y-72947837D01*
X150025746Y-73181171D02*
X150025746Y-73647837D01*
X149859080Y-72914504D02*
X149692413Y-73414504D01*
X150125746Y-73414504D01*
X150692413Y-73181171D02*
X150692413Y-73647837D01*
X150525746Y-72914504D02*
X150359080Y-73414504D01*
X150792413Y-73414504D01*
D11*
G04 #@! TO.C,R6*
X127709580Y-72415429D02*
X127709580Y-71940913D01*
X126664580Y-72415429D02*
X126664580Y-71940913D01*
G04 #@! TO.C,C9*
X130233080Y-47807751D02*
X130233080Y-47526591D01*
X131253080Y-47807751D02*
X131253080Y-47526591D01*
G04 #@! TO.C,C11*
X128582080Y-47807751D02*
X128582080Y-47526591D01*
X129602080Y-47807751D02*
X129602080Y-47526591D01*
D12*
G04 #@! TO.C,U3*
X152374580Y-63497171D02*
X152374580Y-64227171D01*
X134374580Y-38727171D02*
X152374580Y-38727171D01*
X134374580Y-63497171D02*
X134374580Y-64227171D01*
X134374580Y-45447171D02*
X134374580Y-38727171D01*
X134374580Y-64227171D02*
X135619580Y-64227171D01*
X152374580Y-64227171D02*
X151129580Y-64227171D01*
X152374580Y-38727171D02*
X152374580Y-45447171D01*
D13*
X133274580Y-46217171D02*
G75*
G03*
X133274580Y-46217171I-100000J0D01*
G01*
D11*
G04 #@! TO.C,C8*
X132011080Y-47807751D02*
X132011080Y-47526591D01*
X133031080Y-47807751D02*
X133031080Y-47526591D01*
G04 #@! TO.C,R10*
X128633080Y-58034413D02*
X128633080Y-58508929D01*
X129678080Y-58034413D02*
X129678080Y-58508929D01*
G04 #@! TO.C,R13*
X133043580Y-58572429D02*
X133043580Y-58097913D01*
X131998580Y-58572429D02*
X131998580Y-58097913D01*
G04 #@! TO.C,U4*
X124845580Y-57722671D02*
X124370580Y-57722671D01*
X127115580Y-57722671D02*
X127590580Y-57722671D01*
X127590580Y-54502671D02*
X127590580Y-54977671D01*
X127115580Y-54502671D02*
X127590580Y-54502671D01*
X124845580Y-54502671D02*
X124370580Y-54502671D01*
X124370580Y-54502671D02*
X124370580Y-54977671D01*
X124370580Y-57722671D02*
X124370580Y-57247671D01*
G04 #@! TO.C,J1*
X124869580Y-60556671D02*
X122969580Y-60556671D01*
X122969580Y-60556671D02*
X122969580Y-69956671D01*
X128769580Y-60556671D02*
X126769580Y-60556671D01*
X128769580Y-69956671D02*
X126769580Y-69956671D01*
X124869580Y-69956671D02*
X122969580Y-69956671D01*
G04 #@! TO.C,SW1*
X152447080Y-71326171D02*
X152997080Y-71326171D01*
X152447080Y-66426171D02*
X152997080Y-66426171D01*
X150872080Y-71226171D02*
X150872080Y-66526171D01*
X154572080Y-71226171D02*
X154572080Y-70301171D01*
X154572080Y-67451171D02*
X154572080Y-66526171D01*
G04 #@! TO.C,R3*
X148635580Y-66416913D02*
X148635580Y-66891429D01*
X149680580Y-66416913D02*
X149680580Y-66891429D01*
G04 #@! TO.C,R8*
X131996338Y-50602671D02*
X131521822Y-50602671D01*
X131996338Y-49557671D02*
X131521822Y-49557671D01*
G04 #@! TO.C,D4*
X127352080Y-38931171D02*
X125067080Y-38931171D01*
X125067080Y-38931171D02*
X125067080Y-40401171D01*
X125067080Y-40401171D02*
X127352080Y-40401171D01*
G04 #@! TO.C,C5*
X126602000Y-59543671D02*
X126883160Y-59543671D01*
X126602000Y-58523671D02*
X126883160Y-58523671D01*
G04 #@! TO.C,R1*
X129932080Y-72732929D02*
X129932080Y-72258413D01*
X128887080Y-72732929D02*
X128887080Y-72258413D01*
G04 #@! TO.C,R18*
X132481580Y-54908429D02*
X132481580Y-54433913D01*
X131436580Y-54908429D02*
X131436580Y-54433913D01*
G04 #@! TO.C,R11*
X125455838Y-52415171D02*
X124981322Y-52415171D01*
X125455838Y-53460171D02*
X124981322Y-53460171D01*
G04 #@! TO.C,R4*
X146984580Y-66416913D02*
X146984580Y-66891429D01*
X148029580Y-66416913D02*
X148029580Y-66891429D01*
G04 #@! TO.C,U5*
X126171080Y-49481171D02*
X126971080Y-49481171D01*
X126171080Y-46361171D02*
X124371080Y-46361171D01*
X126171080Y-46361171D02*
X126971080Y-46361171D01*
X126171080Y-49481171D02*
X125371080Y-49481171D01*
G04 #@! TO.C,U1*
X124717080Y-40725171D02*
X126917080Y-40725171D01*
X124937080Y-42925171D02*
X126907080Y-42925171D01*
G04 #@! TO.C,C3*
X131899660Y-52114171D02*
X131618500Y-52114171D01*
X131899660Y-51094171D02*
X131618500Y-51094171D01*
G04 #@! TO.C,R14*
X130347580Y-58572429D02*
X130347580Y-58097913D01*
X131392580Y-58572429D02*
X131392580Y-58097913D01*
G04 #@! TO.C,R7*
X150061580Y-70924913D02*
X150061580Y-71399429D01*
X149016580Y-70924913D02*
X149016580Y-71399429D01*
G04 #@! TO.C,C2*
X125776500Y-44494171D02*
X126057660Y-44494171D01*
X125776500Y-43474171D02*
X126057660Y-43474171D01*
G04 #@! TO.C,C1*
X129459500Y-43474171D02*
X129740660Y-43474171D01*
X129459500Y-44494171D02*
X129740660Y-44494171D01*
G04 #@! TO.C,J4*
X134799080Y-68251171D02*
X136299080Y-68251171D01*
X142799080Y-68251171D02*
X141399080Y-68251171D01*
X142799080Y-68251171D02*
X142799080Y-73051171D01*
X142799080Y-73051171D02*
X141399080Y-73051171D01*
X136299080Y-73051171D02*
X134799080Y-73051171D01*
X134799080Y-73051171D02*
X134799080Y-68251171D01*
D14*
X135979080Y-73651171D02*
G75*
G03*
X135979080Y-73651171I-80000J0D01*
G01*
D11*
G04 #@! TO.C,R9*
X128694338Y-53396671D02*
X128219822Y-53396671D01*
X128694338Y-52351671D02*
X128219822Y-52351671D01*
G04 #@! TO.C,R5*
X126058580Y-72415429D02*
X126058580Y-71940913D01*
X125013580Y-72415429D02*
X125013580Y-71940913D01*
G04 #@! TO.C,C10*
X125295660Y-51860171D02*
X125014500Y-51860171D01*
X125295660Y-50840171D02*
X125014500Y-50840171D01*
G04 #@! TO.C,R2*
X130538080Y-72732929D02*
X130538080Y-72258413D01*
X131583080Y-72732929D02*
X131583080Y-72258413D01*
D12*
G04 #@! TO.C,U2*
X130593080Y-41936171D02*
X130593080Y-39936171D01*
X128353080Y-41936171D02*
X128353080Y-39936171D01*
D13*
X129073080Y-42896171D02*
G75*
G03*
X129073080Y-42896171I-100000J0D01*
G01*
D11*
G04 #@! TO.C,C6*
X130110080Y-55083091D02*
X130110080Y-55364251D01*
X129090080Y-55083091D02*
X129090080Y-55364251D01*
G04 #@! TD*
M02*
