M48
; DRILL file {KiCad 6.0.5-a6ca702e91~116~ubuntu20.04.1} date Tue Jun 28 17:03:59 2022
; FORMAT={-:-/ absolute / metric / decimal}
; #@! TF.CreationDate,2022-06-28T17:03:59+00:00
; #@! TF.GenerationSoftware,Kicad,Pcbnew,6.0.5-a6ca702e91~116~ubuntu20.04.1
; #@! TF.FileFunction,MixedPlating,1,4
FMAT,2
METRIC
; #@! TA.AperFunction,Plated,PTH,ComponentDrill
T1C0.200
; #@! TA.AperFunction,Plated,PTH,ViaDrill
T2C0.250
; #@! TA.AperFunction,Plated,PTH,ViaDrill
T3C0.300
; #@! TA.AperFunction,Plated,PTH,ComponentDrill
T4C0.600
; #@! TA.AperFunction,NonPlated,NPTH,ComponentDrill
T5C1.152
%
G90
G05
T1
X140.475Y-53.237
X140.475Y-54.637
X141.175Y-52.537
X141.175Y-53.937
X141.175Y-55.337
X141.875Y-53.237
X141.875Y-54.637
X142.575Y-52.537
X142.575Y-53.937
X142.575Y-55.337
X143.275Y-53.237
X143.275Y-54.637
T2
X146.859Y-58.831
X146.929Y-55.281
T3
X123.631Y-47.032
X123.759Y-54.421
X123.881Y-49.129
X124.266Y-42.587
X124.543Y-54.266
X124.647Y-40.428
X125.155Y-43.222
X125.34Y-53.698
X125.981Y-56.113
X126.043Y-40.638
X126.171Y-47.921
X126.171Y-72.305
X126.679Y-39.031
X126.679Y-43.222
X126.806Y-51.35
X127.314Y-70.273
X127.632Y-54.525
X127.695Y-40.936
X127.695Y-41.825
X127.695Y-59.859
X127.695Y-72.305
X127.949Y-43.984
X128.076Y-57.446
X128.203Y-50.715
X128.203Y-51.477
X128.33Y-67.733
X128.457Y-53.89
X128.457Y-55.16
X128.584Y-72.686
X128.674Y-39.631
X128.889Y-66.358
X129.219Y-50.715
X129.219Y-51.477
X129.854Y-46.905
X129.854Y-53.636
X129.854Y-59.605
X130.122Y-51.513
X130.362Y-43.222
X130.489Y-52.747
X130.743Y-41.952
X130.743Y-56.049
X130.87Y-39.92
X131.632Y-46.905
X131.632Y-58.208
X131.759Y-72.686
X133.156Y-54.779
X133.283Y-53.763
X133.484Y-51.35
X133.791Y-42.206
X135.823Y-46.27
X135.823Y-50.08
X135.95Y-69.511
X136.077Y-73.067
X137.728Y-52.493
X138.109Y-62.728
X138.363Y-65.32
X138.721Y-67.86
X139.252Y-55.414
X139.252Y-57.954
X139.252Y-62.526
X139.252Y-67.057
X140.014Y-66.082
X141.665Y-73.067
X141.792Y-69.511
X142.681Y-65.574
X143.951Y-65.574
X145.221Y-65.574
X146.364Y-67.479
X147.888Y-72.051
X150.428Y-52.62
X150.428Y-68.622
X150.428Y-69.676
X150.428Y-71.162
X150.682Y-55.033
X150.809Y-46.143
X151.19Y-67.606
X151.317Y-68.622
X151.317Y-69.676
X152.079Y-67.581
X152.206Y-72.597
X152.206Y-73.486
X152.973Y-67.563
X153.095Y-72.94
T5
X133.283Y-72.94
X138.363Y-40.174
X146.364Y-73.067
T4
X126.12Y-60.937G85X125.52Y-60.937
G05
X126.12Y-69.577G85X125.52Y-69.577
G05
X130.55Y-60.937G85X129.45Y-60.937
G05
X130.55Y-69.577G85X129.45Y-69.577
G05
T0
M30
