G04 #@! TF.GenerationSoftware,KiCad,Pcbnew,6.0.5-a6ca702e91~116~ubuntu20.04.1*
G04 #@! TF.CreationDate,2022-07-01T16:46:14+00:00*
G04 #@! TF.ProjectId,PlantBuddy,506c616e-7442-4756-9464-792e6b696361,rev?*
G04 #@! TF.SameCoordinates,Original*
G04 #@! TF.FileFunction,Legend,Top*
G04 #@! TF.FilePolarity,Positive*
%FSLAX46Y46*%
G04 Gerber Fmt 4.6, Leading zero omitted, Abs format (unit mm)*
G04 Created by KiCad (PCBNEW 6.0.5-a6ca702e91~116~ubuntu20.04.1) date 2022-07-01 16:46:14*
%MOMM*%
%LPD*%
G01*
G04 APERTURE LIST*
%ADD10C,0.150000*%
%ADD11C,0.120000*%
%ADD12C,0.127000*%
%ADD13C,0.200000*%
%ADD14C,0.160000*%
G04 APERTURE END LIST*
D10*
X146630508Y-73212123D02*
X146535270Y-73164504D01*
X146487651Y-73116885D01*
X146440032Y-73021647D01*
X146440032Y-72974028D01*
X146487651Y-72878790D01*
X146535270Y-72831171D01*
X146630508Y-72783551D01*
X146820984Y-72783551D01*
X146916222Y-72831171D01*
X146963841Y-72878790D01*
X147011460Y-72974028D01*
X147011460Y-73021647D01*
X146963841Y-73116885D01*
X146916222Y-73164504D01*
X146820984Y-73212123D01*
X146630508Y-73212123D01*
X146535270Y-73259742D01*
X146487651Y-73307361D01*
X146440032Y-73402599D01*
X146440032Y-73593075D01*
X146487651Y-73688313D01*
X146535270Y-73735932D01*
X146630508Y-73783551D01*
X146820984Y-73783551D01*
X146916222Y-73735932D01*
X146963841Y-73688313D01*
X147011460Y-73593075D01*
X147011460Y-73402599D01*
X146963841Y-73307361D01*
X146916222Y-73259742D01*
X146820984Y-73212123D01*
X147963841Y-73783551D02*
X147392413Y-73783551D01*
X147678127Y-73783551D02*
X147678127Y-72783551D01*
X147582889Y-72926409D01*
X147487651Y-73021647D01*
X147392413Y-73069266D01*
X148820984Y-73783551D02*
X148820984Y-72783551D01*
X148820984Y-73735932D02*
X148725746Y-73783551D01*
X148535270Y-73783551D01*
X148440032Y-73735932D01*
X148392413Y-73688313D01*
X148344794Y-73593075D01*
X148344794Y-73307361D01*
X148392413Y-73212123D01*
X148440032Y-73164504D01*
X148535270Y-73116885D01*
X148725746Y-73116885D01*
X148820984Y-73164504D01*
X149297175Y-73783551D02*
X149297175Y-72783551D01*
X149297175Y-73164504D02*
X149392413Y-73116885D01*
X149582889Y-73116885D01*
X149678127Y-73164504D01*
X149725746Y-73212123D01*
X149773365Y-73307361D01*
X149773365Y-73593075D01*
X149725746Y-73688313D01*
X149678127Y-73735932D01*
X149582889Y-73783551D01*
X149392413Y-73783551D01*
X149297175Y-73735932D01*
X150154318Y-72878790D02*
X150201937Y-72831171D01*
X150297175Y-72783551D01*
X150535270Y-72783551D01*
X150630508Y-72831171D01*
X150678127Y-72878790D01*
X150725746Y-72974028D01*
X150725746Y-73069266D01*
X150678127Y-73212123D01*
X150106699Y-73783551D01*
X150725746Y-73783551D01*
X151106699Y-72878790D02*
X151154318Y-72831171D01*
X151249556Y-72783551D01*
X151487651Y-72783551D01*
X151582889Y-72831171D01*
X151630508Y-72878790D01*
X151678127Y-72974028D01*
X151678127Y-73069266D01*
X151630508Y-73212123D01*
X151059080Y-73783551D01*
X151678127Y-73783551D01*
G04 #@! TO.C,J4*
X144265746Y-64203551D02*
X144265746Y-64917837D01*
X144218127Y-65060694D01*
X144122889Y-65155932D01*
X143980032Y-65203551D01*
X143884794Y-65203551D01*
X145170508Y-64536885D02*
X145170508Y-65203551D01*
X144932413Y-64155932D02*
X144694318Y-64870218D01*
X145313365Y-64870218D01*
D11*
G04 #@! TO.C,R6*
X127709580Y-72415429D02*
X127709580Y-71940913D01*
X126664580Y-72415429D02*
X126664580Y-71940913D01*
G04 #@! TO.C,C9*
X130233080Y-47807751D02*
X130233080Y-47526591D01*
X131253080Y-47807751D02*
X131253080Y-47526591D01*
G04 #@! TO.C,C11*
X128582080Y-47807751D02*
X128582080Y-47526591D01*
X129602080Y-47807751D02*
X129602080Y-47526591D01*
D12*
G04 #@! TO.C,U3*
X152374580Y-63497171D02*
X152374580Y-64227171D01*
X134374580Y-38727171D02*
X152374580Y-38727171D01*
X134374580Y-63497171D02*
X134374580Y-64227171D01*
X134374580Y-45447171D02*
X134374580Y-38727171D01*
X134374580Y-64227171D02*
X135619580Y-64227171D01*
X152374580Y-64227171D02*
X151129580Y-64227171D01*
X152374580Y-38727171D02*
X152374580Y-45447171D01*
D13*
X133274580Y-46217171D02*
G75*
G03*
X133274580Y-46217171I-100000J0D01*
G01*
D11*
G04 #@! TO.C,C8*
X132011080Y-47807751D02*
X132011080Y-47526591D01*
X133031080Y-47807751D02*
X133031080Y-47526591D01*
G04 #@! TO.C,R10*
X128633080Y-58034413D02*
X128633080Y-58508929D01*
X129678080Y-58034413D02*
X129678080Y-58508929D01*
G04 #@! TO.C,R13*
X133043580Y-58572429D02*
X133043580Y-58097913D01*
X131998580Y-58572429D02*
X131998580Y-58097913D01*
G04 #@! TO.C,U4*
X124845580Y-57722671D02*
X124370580Y-57722671D01*
X127115580Y-57722671D02*
X127590580Y-57722671D01*
X127590580Y-54502671D02*
X127590580Y-54977671D01*
X127115580Y-54502671D02*
X127590580Y-54502671D01*
X124845580Y-54502671D02*
X124370580Y-54502671D01*
X124370580Y-54502671D02*
X124370580Y-54977671D01*
X124370580Y-57722671D02*
X124370580Y-57247671D01*
G04 #@! TO.C,J1*
X124869580Y-60556671D02*
X122969580Y-60556671D01*
X122969580Y-60556671D02*
X122969580Y-69956671D01*
X128769580Y-60556671D02*
X126769580Y-60556671D01*
X128769580Y-69956671D02*
X126769580Y-69956671D01*
X124869580Y-69956671D02*
X122969580Y-69956671D01*
G04 #@! TO.C,SW1*
X152447080Y-71326171D02*
X152997080Y-71326171D01*
X152447080Y-66426171D02*
X152997080Y-66426171D01*
X150872080Y-71226171D02*
X150872080Y-66526171D01*
X154572080Y-71226171D02*
X154572080Y-70301171D01*
X154572080Y-67451171D02*
X154572080Y-66526171D01*
G04 #@! TO.C,R3*
X148635580Y-66416913D02*
X148635580Y-66891429D01*
X149680580Y-66416913D02*
X149680580Y-66891429D01*
G04 #@! TO.C,R8*
X131996338Y-50602671D02*
X131521822Y-50602671D01*
X131996338Y-49557671D02*
X131521822Y-49557671D01*
G04 #@! TO.C,D4*
X127352080Y-38931171D02*
X125067080Y-38931171D01*
X125067080Y-38931171D02*
X125067080Y-40401171D01*
X125067080Y-40401171D02*
X127352080Y-40401171D01*
G04 #@! TO.C,C5*
X126602000Y-59543671D02*
X126883160Y-59543671D01*
X126602000Y-58523671D02*
X126883160Y-58523671D01*
G04 #@! TO.C,R1*
X129932080Y-72732929D02*
X129932080Y-72258413D01*
X128887080Y-72732929D02*
X128887080Y-72258413D01*
G04 #@! TO.C,R18*
X132481580Y-54908429D02*
X132481580Y-54433913D01*
X131436580Y-54908429D02*
X131436580Y-54433913D01*
G04 #@! TO.C,R11*
X125455838Y-52415171D02*
X124981322Y-52415171D01*
X125455838Y-53460171D02*
X124981322Y-53460171D01*
G04 #@! TO.C,R4*
X146984580Y-66416913D02*
X146984580Y-66891429D01*
X148029580Y-66416913D02*
X148029580Y-66891429D01*
G04 #@! TO.C,U5*
X126171080Y-49481171D02*
X126971080Y-49481171D01*
X126171080Y-46361171D02*
X124371080Y-46361171D01*
X126171080Y-46361171D02*
X126971080Y-46361171D01*
X126171080Y-49481171D02*
X125371080Y-49481171D01*
G04 #@! TO.C,U1*
X124717080Y-40725171D02*
X126917080Y-40725171D01*
X124937080Y-42925171D02*
X126907080Y-42925171D01*
G04 #@! TO.C,C3*
X131899660Y-52114171D02*
X131618500Y-52114171D01*
X131899660Y-51094171D02*
X131618500Y-51094171D01*
G04 #@! TO.C,R14*
X130347580Y-58572429D02*
X130347580Y-58097913D01*
X131392580Y-58572429D02*
X131392580Y-58097913D01*
G04 #@! TO.C,R7*
X150061580Y-70924913D02*
X150061580Y-71399429D01*
X149016580Y-70924913D02*
X149016580Y-71399429D01*
G04 #@! TO.C,C2*
X125776500Y-44494171D02*
X126057660Y-44494171D01*
X125776500Y-43474171D02*
X126057660Y-43474171D01*
G04 #@! TO.C,C1*
X129459500Y-43474171D02*
X129740660Y-43474171D01*
X129459500Y-44494171D02*
X129740660Y-44494171D01*
G04 #@! TO.C,J4*
X134799080Y-68251171D02*
X136299080Y-68251171D01*
X142799080Y-68251171D02*
X141399080Y-68251171D01*
X142799080Y-68251171D02*
X142799080Y-73051171D01*
X142799080Y-73051171D02*
X141399080Y-73051171D01*
X136299080Y-73051171D02*
X134799080Y-73051171D01*
X134799080Y-73051171D02*
X134799080Y-68251171D01*
D14*
X135979080Y-73651171D02*
G75*
G03*
X135979080Y-73651171I-80000J0D01*
G01*
D11*
G04 #@! TO.C,R9*
X128694338Y-53396671D02*
X128219822Y-53396671D01*
X128694338Y-52351671D02*
X128219822Y-52351671D01*
G04 #@! TO.C,R5*
X126058580Y-72415429D02*
X126058580Y-71940913D01*
X125013580Y-72415429D02*
X125013580Y-71940913D01*
G04 #@! TO.C,C10*
X125295660Y-51860171D02*
X125014500Y-51860171D01*
X125295660Y-50840171D02*
X125014500Y-50840171D01*
G04 #@! TO.C,R2*
X130538080Y-72732929D02*
X130538080Y-72258413D01*
X131583080Y-72732929D02*
X131583080Y-72258413D01*
D12*
G04 #@! TO.C,U2*
X130593080Y-41936171D02*
X130593080Y-39936171D01*
X128353080Y-41936171D02*
X128353080Y-39936171D01*
D13*
X129073080Y-42896171D02*
G75*
G03*
X129073080Y-42896171I-100000J0D01*
G01*
D11*
G04 #@! TO.C,C6*
X130110080Y-55083091D02*
X130110080Y-55364251D01*
X129090080Y-55083091D02*
X129090080Y-55364251D01*
G04 #@! TD*
M02*
