G04 #@! TF.GenerationSoftware,KiCad,Pcbnew,6.0.5-a6ca702e91~116~ubuntu20.04.1*
G04 #@! TF.CreationDate,2022-06-28T17:03:59+00:00*
G04 #@! TF.ProjectId,PlantBuddy,506c616e-7442-4756-9464-792e6b696361,rev?*
G04 #@! TF.SameCoordinates,Original*
G04 #@! TF.FileFunction,Copper,L3,Inr*
G04 #@! TF.FilePolarity,Positive*
%FSLAX46Y46*%
G04 Gerber Fmt 4.6, Leading zero omitted, Abs format (unit mm)*
G04 Created by KiCad (PCBNEW 6.0.5-a6ca702e91~116~ubuntu20.04.1) date 2022-06-28 17:03:59*
%MOMM*%
%LPD*%
G01*
G04 APERTURE LIST*
G04 #@! TA.AperFunction,ComponentPad*
%ADD10C,0.400000*%
G04 #@! TD*
G04 #@! TA.AperFunction,ComponentPad*
%ADD11O,2.100000X1.000000*%
G04 #@! TD*
G04 #@! TA.AperFunction,ComponentPad*
%ADD12O,1.600000X1.000000*%
G04 #@! TD*
G04 #@! TA.AperFunction,ViaPad*
%ADD13C,0.600000*%
G04 #@! TD*
G04 APERTURE END LIST*
D10*
G04 #@! TO.N,GND*
G04 #@! TO.C,U3*
X141174580Y-55337171D03*
X141874580Y-53237171D03*
X141874580Y-54637171D03*
X140474580Y-54637171D03*
X142574580Y-52537171D03*
X142574580Y-53937171D03*
X140474580Y-53237171D03*
X143274580Y-53237171D03*
X142574580Y-55337171D03*
X141174580Y-53937171D03*
X143274580Y-54637171D03*
X141174580Y-52537171D03*
G04 #@! TD*
D11*
G04 #@! TO.N,GND*
G04 #@! TO.C,J1*
X129999580Y-60936671D03*
X129999580Y-69576671D03*
D12*
X125819580Y-60936671D03*
X125819580Y-69576671D03*
G04 #@! TD*
D13*
G04 #@! TO.N,+BATT*
X130743080Y-56049171D03*
G04 #@! TO.N,+3V3*
X146364080Y-67479171D03*
X141792080Y-69511171D03*
X141665080Y-73067171D03*
X147888080Y-72051171D03*
X140014080Y-66082171D03*
X130489080Y-52747171D03*
X128203080Y-51477171D03*
X127949080Y-43984171D03*
X129219080Y-50715171D03*
X129219080Y-51477171D03*
X146859080Y-58831171D03*
X125155080Y-43222171D03*
X128203080Y-50715171D03*
G04 #@! TO.N,/SDA*
X127695080Y-40936171D03*
X130870080Y-39920171D03*
G04 #@! TO.N,/SCL*
X127695080Y-41825171D03*
X130743080Y-41952171D03*
X133791080Y-42206171D03*
G04 #@! TO.N,GND*
X126679080Y-43222171D03*
X129854080Y-53636171D03*
X135950080Y-69511171D03*
X150428080Y-69676171D03*
X131632080Y-58208171D03*
X153095080Y-72940171D03*
X130362080Y-43222171D03*
X128673749Y-39630671D03*
X131759080Y-72686171D03*
X135823080Y-46270171D03*
X125980580Y-56112671D03*
X152079080Y-67580605D03*
X150428080Y-71162171D03*
X136077080Y-73067171D03*
X129854080Y-59605171D03*
X129854080Y-46905171D03*
X150428080Y-68622171D03*
X124266080Y-42587171D03*
X152206080Y-72597171D03*
X130122185Y-51512671D03*
X126171080Y-72305171D03*
X150809080Y-46143171D03*
X151190080Y-67606171D03*
X146929080Y-55281171D03*
X126171080Y-47921171D03*
X131632080Y-46905171D03*
X128584080Y-72686171D03*
X123880621Y-49129170D03*
X152972580Y-67563260D03*
X127695080Y-59859171D03*
X152206080Y-73486171D03*
X127695080Y-72305171D03*
X151317080Y-69676171D03*
X151317080Y-68622171D03*
G04 #@! TO.N,VCC*
X126806080Y-51350171D03*
G04 #@! TO.N,/~PGOOD*
X128457080Y-53890171D03*
X125340034Y-53698204D03*
X133156080Y-54779171D03*
X128457080Y-55160169D03*
G04 #@! TO.N,/~CHG*
X133483567Y-51349719D03*
X124543393Y-54266069D03*
G04 #@! TO.N,Net-(J1-PadA5)*
X128330080Y-67733171D03*
X128889218Y-66357777D03*
G04 #@! TO.N,/EXT1*
X138109080Y-62727669D03*
G04 #@! TO.N,Net-(J2-Pad1)*
X123759080Y-54421171D03*
G04 #@! TO.N,/piezo_p*
X150682080Y-55033171D03*
G04 #@! TO.N,/piezo_l*
X150428080Y-52620171D03*
G04 #@! TO.N,Net-(R6-Pad2)*
X128076080Y-57446171D03*
X127314080Y-70273171D03*
G04 #@! TO.N,Net-(D4-Pad2)*
X139252080Y-55414171D03*
X139252080Y-67056671D03*
X126679080Y-39031171D03*
X124647080Y-40428171D03*
X139252080Y-57954171D03*
X139252080Y-62526171D03*
X137728080Y-52493171D03*
X123631080Y-47032171D03*
G04 #@! TO.N,/status*
X135823080Y-50080171D03*
X126042529Y-40638228D03*
G04 #@! TO.N,/EXT2*
X138363080Y-65320171D03*
G04 #@! TO.N,/EXT3*
X138720580Y-67860171D03*
G04 #@! TO.N,/EXT4*
X142681080Y-65574171D03*
G04 #@! TO.N,/EXT5*
X143951080Y-65574171D03*
G04 #@! TO.N,/charge_disable*
X127632080Y-54525171D03*
X133283080Y-53763171D03*
G04 #@! TO.N,/csense*
X145221080Y-65574171D03*
G04 #@! TD*
G04 #@! TA.AperFunction,Conductor*
G04 #@! TO.N,+3V3*
G36*
X134241201Y-38616673D02*
G01*
X134287694Y-38670329D01*
X134299080Y-38722671D01*
X134299080Y-41707131D01*
X134279078Y-41775252D01*
X134225422Y-41821745D01*
X134155148Y-41831849D01*
X134104550Y-41812864D01*
X134003175Y-41747156D01*
X133865819Y-41706078D01*
X133856843Y-41706023D01*
X133856842Y-41706023D01*
X133796635Y-41705655D01*
X133722456Y-41705202D01*
X133584609Y-41744599D01*
X133463360Y-41821101D01*
X133368457Y-41928559D01*
X133307527Y-42058334D01*
X133300176Y-42105545D01*
X133288305Y-42181793D01*
X133285471Y-42199994D01*
X133286635Y-42208896D01*
X133286635Y-42208899D01*
X133290909Y-42241578D01*
X133304060Y-42342150D01*
X133307677Y-42350370D01*
X133352166Y-42451478D01*
X133361800Y-42473374D01*
X133454050Y-42583119D01*
X133467437Y-42592030D01*
X133564835Y-42656864D01*
X133573393Y-42662561D01*
X133710237Y-42705313D01*
X133719209Y-42705477D01*
X133719212Y-42705478D01*
X133784543Y-42706675D01*
X133853579Y-42707941D01*
X133862613Y-42705478D01*
X133983238Y-42672592D01*
X133983240Y-42672591D01*
X133991897Y-42670231D01*
X133999544Y-42665536D01*
X133999548Y-42665534D01*
X134107152Y-42599465D01*
X134175669Y-42580867D01*
X134243364Y-42602264D01*
X134288745Y-42656864D01*
X134299080Y-42706840D01*
X134299080Y-44746171D01*
X154290040Y-44746171D01*
X154358161Y-44766173D01*
X154404654Y-44819829D01*
X154416040Y-44872159D01*
X154418575Y-71120249D01*
X154417529Y-71128409D01*
X154417105Y-71142067D01*
X154413523Y-71155793D01*
X154416247Y-71169715D01*
X154415807Y-71183897D01*
X154415358Y-71183883D01*
X154415809Y-71191847D01*
X154393091Y-71474607D01*
X154391416Y-71487317D01*
X154334789Y-71795073D01*
X154331830Y-71807548D01*
X154244224Y-72107945D01*
X154240013Y-72120055D01*
X154122332Y-72410001D01*
X154116912Y-72421620D01*
X153970379Y-72698100D01*
X153963807Y-72709107D01*
X153820386Y-72923705D01*
X153765905Y-72969228D01*
X153695461Y-72978069D01*
X153631420Y-72947421D01*
X153594114Y-72887016D01*
X153590901Y-72871556D01*
X153581675Y-72807138D01*
X153580403Y-72798253D01*
X153521064Y-72667743D01*
X153476977Y-72616578D01*
X153433340Y-72565934D01*
X153433337Y-72565931D01*
X153427480Y-72559134D01*
X153307175Y-72481156D01*
X153169819Y-72440078D01*
X153160843Y-72440023D01*
X153160842Y-72440023D01*
X153100635Y-72439655D01*
X153026456Y-72439202D01*
X152888609Y-72478599D01*
X152875162Y-72487083D01*
X152865767Y-72493011D01*
X152797482Y-72512445D01*
X152729530Y-72491875D01*
X152683831Y-72438600D01*
X152632064Y-72324743D01*
X152602232Y-72290121D01*
X152544340Y-72222934D01*
X152544337Y-72222931D01*
X152538480Y-72216134D01*
X152418175Y-72138156D01*
X152280819Y-72097078D01*
X152271843Y-72097023D01*
X152271842Y-72097023D01*
X152211635Y-72096655D01*
X152137456Y-72096202D01*
X151999609Y-72135599D01*
X151878360Y-72212101D01*
X151872418Y-72218829D01*
X151872417Y-72218830D01*
X151853128Y-72240671D01*
X151783457Y-72319559D01*
X151722527Y-72449334D01*
X151717549Y-72481305D01*
X151702300Y-72579248D01*
X151700471Y-72590994D01*
X151701635Y-72599896D01*
X151701635Y-72599899D01*
X151709617Y-72660940D01*
X151719060Y-72733150D01*
X151731338Y-72761054D01*
X151765266Y-72838160D01*
X151776800Y-72864374D01*
X151782577Y-72871247D01*
X151782578Y-72871248D01*
X151858419Y-72961472D01*
X151886940Y-73026488D01*
X151875784Y-73096602D01*
X151856410Y-73125954D01*
X151834970Y-73150231D01*
X151783457Y-73208559D01*
X151722527Y-73338334D01*
X151716155Y-73379259D01*
X151703977Y-73457477D01*
X151700471Y-73479994D01*
X151701635Y-73488896D01*
X151701635Y-73488899D01*
X151708609Y-73542229D01*
X151719060Y-73622150D01*
X151734327Y-73656846D01*
X151766245Y-73729385D01*
X151776800Y-73753374D01*
X151782577Y-73760247D01*
X151782578Y-73760248D01*
X151863270Y-73856243D01*
X151869050Y-73863119D01*
X151985641Y-73940729D01*
X151985642Y-73940730D01*
X151988393Y-73942561D01*
X151988129Y-73942958D01*
X152036391Y-73986202D01*
X152055259Y-74054645D01*
X152034128Y-74122424D01*
X151979707Y-74168019D01*
X151962771Y-74174018D01*
X151917738Y-74186436D01*
X151905222Y-74189211D01*
X151708463Y-74222435D01*
X151596671Y-74241312D01*
X151583944Y-74242801D01*
X151435358Y-74252544D01*
X151301458Y-74261325D01*
X151293627Y-74260753D01*
X151293634Y-74261328D01*
X151279449Y-74261510D01*
X151265573Y-74258532D01*
X151251779Y-74261866D01*
X151243572Y-74261971D01*
X151229300Y-74263671D01*
X145961616Y-74263671D01*
X145893495Y-74243669D01*
X145882921Y-74236074D01*
X145867667Y-74223875D01*
X145856588Y-74215015D01*
X145816956Y-74205902D01*
X145796807Y-74201268D01*
X145796805Y-74201268D01*
X145789861Y-74199671D01*
X145744477Y-74199671D01*
X145721203Y-74204980D01*
X145691729Y-74211703D01*
X145691728Y-74211704D01*
X145677895Y-74214859D01*
X145666799Y-74223701D01*
X145651100Y-74236211D01*
X145585360Y-74263021D01*
X145572577Y-74263671D01*
X126460722Y-74263671D01*
X126441306Y-74261553D01*
X126437506Y-74261579D01*
X126423650Y-74258520D01*
X126409838Y-74261772D01*
X126395649Y-74261871D01*
X126395646Y-74261397D01*
X126387710Y-74262146D01*
X126099488Y-74249749D01*
X126086535Y-74248518D01*
X125772309Y-74202202D01*
X125759555Y-74199643D01*
X125451771Y-74121147D01*
X125439362Y-74117290D01*
X125141312Y-74007455D01*
X125129351Y-74002330D01*
X125096505Y-73986202D01*
X124844243Y-73862336D01*
X124832887Y-73856013D01*
X124563730Y-73687341D01*
X124553072Y-73679867D01*
X124302782Y-73484344D01*
X124292951Y-73475811D01*
X124064150Y-73255486D01*
X124055252Y-73245984D01*
X123850421Y-73003248D01*
X123842550Y-72992878D01*
X123663850Y-72730291D01*
X123657092Y-72719166D01*
X123640065Y-72687562D01*
X123506433Y-72439533D01*
X123500866Y-72427782D01*
X123498450Y-72421917D01*
X123447804Y-72298994D01*
X125665471Y-72298994D01*
X125666635Y-72307896D01*
X125666635Y-72307899D01*
X125669907Y-72332917D01*
X125684060Y-72441150D01*
X125699453Y-72476133D01*
X125724908Y-72533983D01*
X125741800Y-72572374D01*
X125747577Y-72579247D01*
X125747578Y-72579248D01*
X125828270Y-72675243D01*
X125834050Y-72682119D01*
X125953393Y-72761561D01*
X126090237Y-72804313D01*
X126099209Y-72804477D01*
X126099212Y-72804478D01*
X126164543Y-72805675D01*
X126233579Y-72806941D01*
X126242613Y-72804478D01*
X126363238Y-72771592D01*
X126363240Y-72771591D01*
X126371897Y-72769231D01*
X126494071Y-72694216D01*
X126501387Y-72686134D01*
X126574297Y-72605583D01*
X126590280Y-72587925D01*
X126652790Y-72458904D01*
X126676576Y-72317525D01*
X126676652Y-72311307D01*
X126676668Y-72310030D01*
X126676668Y-72310025D01*
X126676727Y-72305171D01*
X126675842Y-72298994D01*
X127189471Y-72298994D01*
X127190635Y-72307896D01*
X127190635Y-72307899D01*
X127193907Y-72332917D01*
X127208060Y-72441150D01*
X127223453Y-72476133D01*
X127248908Y-72533983D01*
X127265800Y-72572374D01*
X127271577Y-72579247D01*
X127271578Y-72579248D01*
X127352270Y-72675243D01*
X127358050Y-72682119D01*
X127477393Y-72761561D01*
X127614237Y-72804313D01*
X127623209Y-72804477D01*
X127623212Y-72804478D01*
X127688543Y-72805675D01*
X127757579Y-72806941D01*
X127766613Y-72804478D01*
X127887238Y-72771592D01*
X127887240Y-72771591D01*
X127895897Y-72769231D01*
X127913773Y-72758255D01*
X127982290Y-72739657D01*
X128049986Y-72761054D01*
X128095367Y-72815653D01*
X128096705Y-72819435D01*
X128097060Y-72822150D01*
X128108428Y-72847985D01*
X128148991Y-72940171D01*
X128154800Y-72953374D01*
X128160577Y-72960247D01*
X128160578Y-72960248D01*
X128217178Y-73027582D01*
X128247050Y-73063119D01*
X128272278Y-73079912D01*
X128332977Y-73120317D01*
X128366393Y-73142561D01*
X128503237Y-73185313D01*
X128512209Y-73185477D01*
X128512212Y-73185478D01*
X128577543Y-73186675D01*
X128646579Y-73187941D01*
X128655613Y-73185478D01*
X128776238Y-73152592D01*
X128776240Y-73152591D01*
X128784897Y-73150231D01*
X128907071Y-73075216D01*
X129003280Y-72968925D01*
X129041159Y-72890743D01*
X129061875Y-72847985D01*
X129061875Y-72847984D01*
X129065790Y-72839904D01*
X129089576Y-72698525D01*
X129089727Y-72686171D01*
X129088842Y-72679994D01*
X131253471Y-72679994D01*
X131254635Y-72688896D01*
X131254635Y-72688899D01*
X131258593Y-72719166D01*
X131272060Y-72822150D01*
X131281497Y-72843598D01*
X131323991Y-72940171D01*
X131329800Y-72953374D01*
X131335577Y-72960247D01*
X131335578Y-72960248D01*
X131392178Y-73027582D01*
X131422050Y-73063119D01*
X131447278Y-73079912D01*
X131507977Y-73120317D01*
X131541393Y-73142561D01*
X131678237Y-73185313D01*
X131687209Y-73185477D01*
X131687212Y-73185478D01*
X131752543Y-73186675D01*
X131821579Y-73187941D01*
X131830613Y-73185478D01*
X131951238Y-73152592D01*
X131951240Y-73152591D01*
X131959897Y-73150231D01*
X132082071Y-73075216D01*
X132178280Y-72968925D01*
X132203693Y-72916473D01*
X132216159Y-72890743D01*
X132263861Y-72838160D01*
X132332420Y-72819714D01*
X132400067Y-72841262D01*
X132445327Y-72895962D01*
X132455377Y-72939085D01*
X132462401Y-73073092D01*
X132510088Y-73246220D01*
X132593840Y-73405069D01*
X132709748Y-73542229D01*
X132715171Y-73546376D01*
X132715173Y-73546377D01*
X132846985Y-73647155D01*
X132846989Y-73647158D01*
X132852406Y-73651299D01*
X132858586Y-73654181D01*
X132858588Y-73654182D01*
X133008980Y-73724311D01*
X133008983Y-73724312D01*
X133015157Y-73727191D01*
X133021805Y-73728677D01*
X133021808Y-73728678D01*
X133185370Y-73765238D01*
X133185371Y-73765238D01*
X133190408Y-73766364D01*
X133195899Y-73766671D01*
X133327946Y-73766671D01*
X133461605Y-73752151D01*
X133544331Y-73724311D01*
X133625337Y-73697050D01*
X133625339Y-73697049D01*
X133631802Y-73694874D01*
X133785728Y-73602385D01*
X133844955Y-73546377D01*
X133911245Y-73483690D01*
X133911247Y-73483688D01*
X133916203Y-73479001D01*
X134017140Y-73330477D01*
X134083828Y-73163744D01*
X134085675Y-73152592D01*
X134100839Y-73060994D01*
X135571471Y-73060994D01*
X135572635Y-73069896D01*
X135572635Y-73069899D01*
X135578347Y-73113580D01*
X135590060Y-73203150D01*
X135647800Y-73334374D01*
X135653577Y-73341247D01*
X135653578Y-73341248D01*
X135696657Y-73392497D01*
X135740050Y-73444119D01*
X135859393Y-73523561D01*
X135996237Y-73566313D01*
X136005209Y-73566477D01*
X136005212Y-73566478D01*
X136070543Y-73567675D01*
X136139579Y-73568941D01*
X136148613Y-73566478D01*
X136269238Y-73533592D01*
X136269240Y-73533591D01*
X136277897Y-73531231D01*
X136400071Y-73456216D01*
X136496280Y-73349925D01*
X136546639Y-73245984D01*
X136554875Y-73228985D01*
X136554875Y-73228984D01*
X136558790Y-73220904D01*
X136582576Y-73079525D01*
X136582727Y-73067171D01*
X136576081Y-73020762D01*
X145534002Y-73020762D01*
X145534359Y-73027578D01*
X145534359Y-73027582D01*
X145540125Y-73137584D01*
X145543401Y-73200092D01*
X145591088Y-73373220D01*
X145674840Y-73532069D01*
X145679241Y-73537277D01*
X145705999Y-73568941D01*
X145790748Y-73669229D01*
X145796171Y-73673376D01*
X145796173Y-73673377D01*
X145927985Y-73774155D01*
X145927989Y-73774158D01*
X145933406Y-73778299D01*
X145939586Y-73781181D01*
X145939588Y-73781182D01*
X146089980Y-73851311D01*
X146089983Y-73851312D01*
X146096157Y-73854191D01*
X146102805Y-73855677D01*
X146102808Y-73855678D01*
X146266370Y-73892238D01*
X146266371Y-73892238D01*
X146271408Y-73893364D01*
X146276899Y-73893671D01*
X146408946Y-73893671D01*
X146542605Y-73879151D01*
X146673258Y-73835182D01*
X146706337Y-73824050D01*
X146706339Y-73824049D01*
X146712802Y-73821874D01*
X146866728Y-73729385D01*
X146872094Y-73724311D01*
X146992245Y-73610690D01*
X146992247Y-73610688D01*
X146997203Y-73606001D01*
X147098140Y-73457477D01*
X147164828Y-73290744D01*
X147171200Y-73252259D01*
X147193043Y-73120317D01*
X147193043Y-73120314D01*
X147194158Y-73113580D01*
X147193716Y-73105134D01*
X147185116Y-72941063D01*
X147184759Y-72934250D01*
X147137072Y-72761122D01*
X147053320Y-72602273D01*
X146937412Y-72465113D01*
X146908033Y-72442651D01*
X146800175Y-72360187D01*
X146800171Y-72360184D01*
X146794754Y-72356043D01*
X146788574Y-72353161D01*
X146788572Y-72353160D01*
X146638180Y-72283031D01*
X146638177Y-72283030D01*
X146632003Y-72280151D01*
X146625355Y-72278665D01*
X146625352Y-72278664D01*
X146461790Y-72242104D01*
X146461789Y-72242104D01*
X146456752Y-72240978D01*
X146451261Y-72240671D01*
X146319214Y-72240671D01*
X146185555Y-72255191D01*
X146115806Y-72278664D01*
X146021823Y-72310292D01*
X146021821Y-72310293D01*
X146015358Y-72312468D01*
X145861432Y-72404957D01*
X145856472Y-72409648D01*
X145856470Y-72409649D01*
X145737010Y-72522617D01*
X145730957Y-72528341D01*
X145630020Y-72676865D01*
X145563332Y-72843598D01*
X145562218Y-72850328D01*
X145562217Y-72850331D01*
X145537726Y-72998265D01*
X145534002Y-73020762D01*
X136576081Y-73020762D01*
X136572859Y-72998265D01*
X136563676Y-72934139D01*
X136563675Y-72934136D01*
X136562403Y-72925253D01*
X136503064Y-72794743D01*
X136476781Y-72764240D01*
X136415340Y-72692934D01*
X136415337Y-72692931D01*
X136409480Y-72686134D01*
X136289175Y-72608156D01*
X136151819Y-72567078D01*
X136142843Y-72567023D01*
X136142842Y-72567023D01*
X136082635Y-72566655D01*
X136008456Y-72566202D01*
X135870609Y-72605599D01*
X135749360Y-72682101D01*
X135743418Y-72688829D01*
X135743417Y-72688830D01*
X135712140Y-72724245D01*
X135654457Y-72789559D01*
X135593527Y-72919334D01*
X135586966Y-72961472D01*
X135574378Y-73042325D01*
X135571471Y-73060994D01*
X134100839Y-73060994D01*
X134112043Y-72993317D01*
X134112043Y-72993314D01*
X134113158Y-72986580D01*
X134112582Y-72975578D01*
X134105202Y-72834774D01*
X134103759Y-72807250D01*
X134056072Y-72634122D01*
X133972320Y-72475273D01*
X133950431Y-72449370D01*
X133871564Y-72356043D01*
X133856412Y-72338113D01*
X133835756Y-72322320D01*
X133719175Y-72233187D01*
X133719171Y-72233184D01*
X133713754Y-72229043D01*
X133707574Y-72226161D01*
X133707572Y-72226160D01*
X133557180Y-72156031D01*
X133557177Y-72156030D01*
X133551003Y-72153151D01*
X133544355Y-72151665D01*
X133544352Y-72151664D01*
X133380790Y-72115104D01*
X133380789Y-72115104D01*
X133375752Y-72113978D01*
X133370261Y-72113671D01*
X133238214Y-72113671D01*
X133104555Y-72128191D01*
X133068312Y-72140388D01*
X132940823Y-72183292D01*
X132940821Y-72183293D01*
X132934358Y-72185468D01*
X132780432Y-72277957D01*
X132775472Y-72282648D01*
X132775470Y-72282649D01*
X132677533Y-72375264D01*
X132649957Y-72401341D01*
X132549020Y-72549865D01*
X132500481Y-72671222D01*
X132500244Y-72671815D01*
X132456375Y-72727636D01*
X132389291Y-72750878D01*
X132320290Y-72734162D01*
X132271280Y-72682795D01*
X132258528Y-72642885D01*
X132245676Y-72553139D01*
X132245675Y-72553136D01*
X132244403Y-72544253D01*
X132185064Y-72413743D01*
X132138917Y-72360187D01*
X132097340Y-72311934D01*
X132097337Y-72311931D01*
X132091480Y-72305134D01*
X131971175Y-72227156D01*
X131833819Y-72186078D01*
X131824843Y-72186023D01*
X131824842Y-72186023D01*
X131764635Y-72185655D01*
X131690456Y-72185202D01*
X131552609Y-72224599D01*
X131431360Y-72301101D01*
X131425418Y-72307829D01*
X131425417Y-72307830D01*
X131385383Y-72353160D01*
X131336457Y-72408559D01*
X131275527Y-72538334D01*
X131268710Y-72582121D01*
X131256438Y-72660940D01*
X131253471Y-72679994D01*
X129088842Y-72679994D01*
X129077372Y-72599899D01*
X129070676Y-72553139D01*
X129070675Y-72553136D01*
X129069403Y-72544253D01*
X129010064Y-72413743D01*
X128963917Y-72360187D01*
X128922340Y-72311934D01*
X128922337Y-72311931D01*
X128916480Y-72305134D01*
X128796175Y-72227156D01*
X128658819Y-72186078D01*
X128649843Y-72186023D01*
X128649842Y-72186023D01*
X128589635Y-72185655D01*
X128515456Y-72185202D01*
X128377609Y-72224599D01*
X128368228Y-72230518D01*
X128366429Y-72231653D01*
X128362377Y-72232806D01*
X128361823Y-72233054D01*
X128361787Y-72232974D01*
X128298144Y-72251087D01*
X128230192Y-72230518D01*
X128184148Y-72176476D01*
X128181115Y-72168225D01*
X128180403Y-72163253D01*
X128121064Y-72032743D01*
X128102678Y-72011405D01*
X128033340Y-71930934D01*
X128033337Y-71930931D01*
X128027480Y-71924134D01*
X127907175Y-71846156D01*
X127769819Y-71805078D01*
X127760843Y-71805023D01*
X127760842Y-71805023D01*
X127700635Y-71804655D01*
X127626456Y-71804202D01*
X127488609Y-71843599D01*
X127367360Y-71920101D01*
X127272457Y-72027559D01*
X127211527Y-72157334D01*
X127207147Y-72185468D01*
X127192016Y-72282649D01*
X127189471Y-72298994D01*
X126675842Y-72298994D01*
X126663976Y-72216134D01*
X126657676Y-72172139D01*
X126657675Y-72172136D01*
X126656403Y-72163253D01*
X126597064Y-72032743D01*
X126578678Y-72011405D01*
X126509340Y-71930934D01*
X126509337Y-71930931D01*
X126503480Y-71924134D01*
X126383175Y-71846156D01*
X126245819Y-71805078D01*
X126236843Y-71805023D01*
X126236842Y-71805023D01*
X126176635Y-71804655D01*
X126102456Y-71804202D01*
X125964609Y-71843599D01*
X125843360Y-71920101D01*
X125748457Y-72027559D01*
X125687527Y-72157334D01*
X125683147Y-72185468D01*
X125668016Y-72282649D01*
X125665471Y-72298994D01*
X123447804Y-72298994D01*
X123379869Y-72134109D01*
X123375541Y-72121839D01*
X123373256Y-72114108D01*
X123344854Y-72018041D01*
X123285491Y-71817247D01*
X123282450Y-71804590D01*
X123224309Y-71492338D01*
X123222590Y-71479433D01*
X123199386Y-71192618D01*
X123199850Y-71184640D01*
X123199271Y-71184656D01*
X123198883Y-71170471D01*
X123201660Y-71156557D01*
X123201515Y-71155994D01*
X149922471Y-71155994D01*
X149923635Y-71164896D01*
X149923635Y-71164899D01*
X149926217Y-71184640D01*
X149941060Y-71298150D01*
X149998800Y-71429374D01*
X150004577Y-71436247D01*
X150004578Y-71436248D01*
X150071891Y-71516327D01*
X150091050Y-71539119D01*
X150210393Y-71618561D01*
X150347237Y-71661313D01*
X150356209Y-71661477D01*
X150356212Y-71661478D01*
X150421543Y-71662675D01*
X150490579Y-71663941D01*
X150499613Y-71661478D01*
X150620238Y-71628592D01*
X150620240Y-71628591D01*
X150628897Y-71626231D01*
X150751071Y-71551216D01*
X150847280Y-71444925D01*
X150909790Y-71315904D01*
X150933576Y-71174525D01*
X150933727Y-71162171D01*
X150913403Y-71020253D01*
X150854064Y-70889743D01*
X150835678Y-70868405D01*
X150766340Y-70787934D01*
X150766337Y-70787931D01*
X150760480Y-70781134D01*
X150640175Y-70703156D01*
X150502819Y-70662078D01*
X150493843Y-70662023D01*
X150493842Y-70662023D01*
X150433635Y-70661655D01*
X150359456Y-70661202D01*
X150221609Y-70700599D01*
X150100360Y-70777101D01*
X150005457Y-70884559D01*
X149944527Y-71014334D01*
X149943146Y-71023206D01*
X149924569Y-71142520D01*
X149922471Y-71155994D01*
X123201515Y-71155994D01*
X123198128Y-71142814D01*
X123197789Y-71130418D01*
X123196580Y-71120860D01*
X123196580Y-69657776D01*
X124818611Y-69657776D01*
X124820385Y-69665163D01*
X124820385Y-69665167D01*
X124853536Y-69803245D01*
X124858192Y-69822639D01*
X124861673Y-69829383D01*
X124861674Y-69829386D01*
X124928534Y-69958925D01*
X124935955Y-69973302D01*
X124940947Y-69979024D01*
X124940948Y-69979026D01*
X124993084Y-70038790D01*
X125047411Y-70101067D01*
X125092223Y-70132561D01*
X125179910Y-70194189D01*
X125179912Y-70194190D01*
X125186127Y-70198558D01*
X125344093Y-70260147D01*
X125351626Y-70261139D01*
X125351627Y-70261139D01*
X125406440Y-70268355D01*
X125473406Y-70277171D01*
X126162096Y-70277171D01*
X126287900Y-70261947D01*
X126446503Y-70202016D01*
X126485356Y-70175313D01*
X126579972Y-70110285D01*
X126579973Y-70110284D01*
X126586231Y-70105983D01*
X126601577Y-70088759D01*
X126661827Y-70051203D01*
X126732817Y-70052183D01*
X126792007Y-70091388D01*
X126820606Y-70156369D01*
X126820153Y-70191962D01*
X126809967Y-70257387D01*
X126808471Y-70266994D01*
X126809635Y-70275896D01*
X126809635Y-70275899D01*
X126810894Y-70285525D01*
X126827060Y-70409150D01*
X126884800Y-70540374D01*
X126890577Y-70547247D01*
X126890578Y-70547248D01*
X126897872Y-70555925D01*
X126977050Y-70650119D01*
X127096393Y-70729561D01*
X127233237Y-70772313D01*
X127242209Y-70772477D01*
X127242212Y-70772478D01*
X127307543Y-70773675D01*
X127376579Y-70774941D01*
X127385613Y-70772478D01*
X127506238Y-70739592D01*
X127506240Y-70739591D01*
X127514897Y-70737231D01*
X127637071Y-70662216D01*
X127733280Y-70555925D01*
X127795790Y-70426904D01*
X127819576Y-70285525D01*
X127819727Y-70273171D01*
X127805751Y-70175579D01*
X127800676Y-70140139D01*
X127800675Y-70140136D01*
X127799403Y-70131253D01*
X127789870Y-70110285D01*
X127769378Y-70065216D01*
X127740064Y-70000743D01*
X127713781Y-69970240D01*
X127652340Y-69898934D01*
X127652337Y-69898931D01*
X127646480Y-69892134D01*
X127526175Y-69814156D01*
X127388819Y-69773078D01*
X127379843Y-69773023D01*
X127379842Y-69773023D01*
X127319635Y-69772655D01*
X127245456Y-69772202D01*
X127107609Y-69811599D01*
X127100022Y-69816386D01*
X127100020Y-69816387D01*
X127079418Y-69829386D01*
X126997230Y-69881243D01*
X126987793Y-69887197D01*
X126919508Y-69906631D01*
X126851557Y-69886062D01*
X126805512Y-69832021D01*
X126795994Y-69761665D01*
X126798354Y-69749940D01*
X126817810Y-69672483D01*
X126817810Y-69672479D01*
X126819661Y-69665112D01*
X126819700Y-69657776D01*
X128748611Y-69657776D01*
X128750385Y-69665163D01*
X128750385Y-69665167D01*
X128783536Y-69803245D01*
X128788192Y-69822639D01*
X128791673Y-69829383D01*
X128791674Y-69829386D01*
X128858534Y-69958925D01*
X128865955Y-69973302D01*
X128870947Y-69979024D01*
X128870948Y-69979026D01*
X128923084Y-70038790D01*
X128977411Y-70101067D01*
X129022223Y-70132561D01*
X129109910Y-70194189D01*
X129109912Y-70194190D01*
X129116127Y-70198558D01*
X129274093Y-70260147D01*
X129281626Y-70261139D01*
X129281627Y-70261139D01*
X129336440Y-70268355D01*
X129403406Y-70277171D01*
X130592096Y-70277171D01*
X130717900Y-70261947D01*
X130876503Y-70202016D01*
X130915356Y-70175313D01*
X131009972Y-70110285D01*
X131009973Y-70110284D01*
X131016231Y-70105983D01*
X131031577Y-70088759D01*
X131123968Y-69985063D01*
X131123970Y-69985059D01*
X131129020Y-69979392D01*
X131135818Y-69966554D01*
X131164834Y-69911751D01*
X131208356Y-69829552D01*
X131249661Y-69665112D01*
X131249709Y-69656052D01*
X131250389Y-69526084D01*
X131250500Y-69504994D01*
X135444471Y-69504994D01*
X135445635Y-69513896D01*
X135445635Y-69513899D01*
X135447521Y-69528320D01*
X135463060Y-69647150D01*
X135520800Y-69778374D01*
X135526577Y-69785247D01*
X135526578Y-69785248D01*
X135550878Y-69814156D01*
X135613050Y-69888119D01*
X135620527Y-69893096D01*
X135707286Y-69950848D01*
X135732393Y-69967561D01*
X135869237Y-70010313D01*
X135878209Y-70010477D01*
X135878212Y-70010478D01*
X135943543Y-70011675D01*
X136012579Y-70012941D01*
X136021613Y-70010478D01*
X136142238Y-69977592D01*
X136142240Y-69977591D01*
X136150897Y-69975231D01*
X136273071Y-69900216D01*
X136280387Y-69892134D01*
X136353297Y-69811583D01*
X136369280Y-69793925D01*
X136423977Y-69681030D01*
X136427875Y-69672985D01*
X136427875Y-69672984D01*
X136429324Y-69669994D01*
X149922471Y-69669994D01*
X149923635Y-69678896D01*
X149923635Y-69678899D01*
X149924894Y-69688525D01*
X149941060Y-69812150D01*
X149951669Y-69836260D01*
X149974082Y-69887197D01*
X149998800Y-69943374D01*
X150004577Y-69950247D01*
X150004578Y-69950248D01*
X150057138Y-70012776D01*
X150091050Y-70053119D01*
X150099227Y-70058562D01*
X150176929Y-70110285D01*
X150210393Y-70132561D01*
X150347237Y-70175313D01*
X150356209Y-70175477D01*
X150356212Y-70175478D01*
X150421543Y-70176675D01*
X150490579Y-70177941D01*
X150499613Y-70175478D01*
X150620238Y-70142592D01*
X150620240Y-70142591D01*
X150628897Y-70140231D01*
X150751071Y-70065216D01*
X150768242Y-70046246D01*
X150778139Y-70035312D01*
X150838682Y-69998230D01*
X150909662Y-69999767D01*
X150968004Y-70038789D01*
X150980050Y-70053119D01*
X150988227Y-70058562D01*
X151065929Y-70110285D01*
X151099393Y-70132561D01*
X151236237Y-70175313D01*
X151245209Y-70175477D01*
X151245212Y-70175478D01*
X151310543Y-70176675D01*
X151379579Y-70177941D01*
X151388613Y-70175478D01*
X151509238Y-70142592D01*
X151509240Y-70142591D01*
X151517897Y-70140231D01*
X151640071Y-70065216D01*
X151663991Y-70038790D01*
X151730258Y-69965578D01*
X151736280Y-69958925D01*
X151798790Y-69829904D01*
X151822576Y-69688525D01*
X151822727Y-69676171D01*
X151802403Y-69534253D01*
X151743064Y-69403743D01*
X151708245Y-69363334D01*
X151655340Y-69301934D01*
X151655337Y-69301931D01*
X151649480Y-69295134D01*
X151587531Y-69254981D01*
X151541250Y-69201148D01*
X151531419Y-69130835D01*
X151561163Y-69066369D01*
X151590137Y-69041876D01*
X151632422Y-69015913D01*
X151632424Y-69015911D01*
X151640071Y-69011216D01*
X151663991Y-68984790D01*
X151730258Y-68911578D01*
X151736280Y-68904925D01*
X151798790Y-68775904D01*
X151822576Y-68634525D01*
X151822727Y-68622171D01*
X151802403Y-68480253D01*
X151743064Y-68349743D01*
X151716781Y-68319240D01*
X151655340Y-68247934D01*
X151655337Y-68247931D01*
X151649480Y-68241134D01*
X151547457Y-68175006D01*
X151501173Y-68121170D01*
X151491342Y-68050858D01*
X151522573Y-67984720D01*
X151551282Y-67953002D01*
X151611825Y-67915920D01*
X151682805Y-67917457D01*
X151727318Y-67947231D01*
X151729583Y-67944698D01*
X151736270Y-67950677D01*
X151742050Y-67957553D01*
X151760223Y-67969650D01*
X151846859Y-68027320D01*
X151861393Y-68036995D01*
X151998237Y-68079747D01*
X152007209Y-68079911D01*
X152007212Y-68079912D01*
X152072543Y-68081109D01*
X152141579Y-68082375D01*
X152150613Y-68079912D01*
X152271238Y-68047026D01*
X152271240Y-68047025D01*
X152279897Y-68044665D01*
X152402071Y-67969650D01*
X152408092Y-67962998D01*
X152408098Y-67962993D01*
X152439033Y-67928816D01*
X152499576Y-67891735D01*
X152570556Y-67893272D01*
X152622494Y-67928011D01*
X152623083Y-67927353D01*
X152627754Y-67931530D01*
X152628897Y-67932294D01*
X152629768Y-67933330D01*
X152635550Y-67940208D01*
X152653723Y-67952305D01*
X152707491Y-67988096D01*
X152754893Y-68019650D01*
X152891737Y-68062402D01*
X152900709Y-68062566D01*
X152900712Y-68062567D01*
X152966043Y-68063764D01*
X153035079Y-68065030D01*
X153044135Y-68062561D01*
X153164738Y-68029681D01*
X153164740Y-68029680D01*
X153173397Y-68027320D01*
X153295571Y-67952305D01*
X153302457Y-67944698D01*
X153367784Y-67872525D01*
X153391780Y-67846014D01*
X153438143Y-67750320D01*
X153450375Y-67725074D01*
X153450375Y-67725073D01*
X153454290Y-67716993D01*
X153478076Y-67575614D01*
X153478227Y-67563260D01*
X153472475Y-67523092D01*
X153459176Y-67430228D01*
X153459175Y-67430225D01*
X153457903Y-67421342D01*
X153447563Y-67398599D01*
X153426436Y-67352134D01*
X153398564Y-67290832D01*
X153364579Y-67251391D01*
X153310840Y-67189023D01*
X153310837Y-67189020D01*
X153304980Y-67182223D01*
X153184675Y-67104245D01*
X153047319Y-67063167D01*
X153038343Y-67063112D01*
X153038342Y-67063112D01*
X152978135Y-67062744D01*
X152903956Y-67062291D01*
X152766109Y-67101688D01*
X152644860Y-67178190D01*
X152638918Y-67184918D01*
X152638917Y-67184919D01*
X152613019Y-67214243D01*
X152552934Y-67252061D01*
X152481940Y-67251391D01*
X152423124Y-67213082D01*
X152420817Y-67210404D01*
X152411480Y-67199568D01*
X152291175Y-67121590D01*
X152153819Y-67080512D01*
X152144843Y-67080457D01*
X152144842Y-67080457D01*
X152084635Y-67080089D01*
X152010456Y-67079636D01*
X151872609Y-67119033D01*
X151751360Y-67195535D01*
X151745418Y-67202263D01*
X151745417Y-67202264D01*
X151718211Y-67233069D01*
X151658125Y-67270887D01*
X151587132Y-67270217D01*
X151535944Y-67236874D01*
X151535105Y-67237836D01*
X151528340Y-67231935D01*
X151522480Y-67225134D01*
X151402175Y-67147156D01*
X151264819Y-67106078D01*
X151255843Y-67106023D01*
X151255842Y-67106023D01*
X151195635Y-67105655D01*
X151121456Y-67105202D01*
X150983609Y-67144599D01*
X150862360Y-67221101D01*
X150767457Y-67328559D01*
X150706527Y-67458334D01*
X150702869Y-67481830D01*
X150686423Y-67587458D01*
X150684471Y-67599994D01*
X150703060Y-67742150D01*
X150706677Y-67750370D01*
X150757129Y-67865030D01*
X150760800Y-67873374D01*
X150766577Y-67880247D01*
X150766578Y-67880248D01*
X150847270Y-67976243D01*
X150853050Y-67983119D01*
X150959923Y-68054260D01*
X151005545Y-68108656D01*
X151014516Y-68179084D01*
X150984544Y-68242554D01*
X150967362Y-68262009D01*
X150907277Y-68299827D01*
X150836283Y-68299157D01*
X150777469Y-68260850D01*
X150766341Y-68247935D01*
X150766338Y-68247932D01*
X150760480Y-68241134D01*
X150640175Y-68163156D01*
X150502819Y-68122078D01*
X150493843Y-68122023D01*
X150493842Y-68122023D01*
X150433635Y-68121655D01*
X150359456Y-68121202D01*
X150221609Y-68160599D01*
X150100360Y-68237101D01*
X150005457Y-68344559D01*
X149944527Y-68474334D01*
X149922471Y-68615994D01*
X149923635Y-68624896D01*
X149923635Y-68624899D01*
X149924894Y-68634525D01*
X149941060Y-68758150D01*
X149944677Y-68766370D01*
X149992991Y-68876171D01*
X149998800Y-68889374D01*
X150004577Y-68896247D01*
X150004578Y-68896248D01*
X150053783Y-68954784D01*
X150091050Y-68999119D01*
X150099227Y-69004562D01*
X150158948Y-69044316D01*
X150204571Y-69098713D01*
X150213542Y-69169141D01*
X150183012Y-69233238D01*
X150156367Y-69255764D01*
X150100360Y-69291101D01*
X150094418Y-69297829D01*
X150094417Y-69297830D01*
X150058863Y-69338088D01*
X150005457Y-69398559D01*
X149944527Y-69528334D01*
X149943146Y-69537206D01*
X149924642Y-69656052D01*
X149922471Y-69669994D01*
X136429324Y-69669994D01*
X136431790Y-69664904D01*
X136455576Y-69523525D01*
X136455727Y-69511171D01*
X136440764Y-69406685D01*
X136436676Y-69378139D01*
X136436675Y-69378136D01*
X136435403Y-69369253D01*
X136376064Y-69238743D01*
X136343670Y-69201148D01*
X136288340Y-69136934D01*
X136288337Y-69136931D01*
X136282480Y-69130134D01*
X136162175Y-69052156D01*
X136024819Y-69011078D01*
X136015843Y-69011023D01*
X136015842Y-69011023D01*
X135955635Y-69010655D01*
X135881456Y-69010202D01*
X135743609Y-69049599D01*
X135622360Y-69126101D01*
X135616418Y-69132829D01*
X135616417Y-69132830D01*
X135579778Y-69174316D01*
X135527457Y-69233559D01*
X135466527Y-69363334D01*
X135459777Y-69406685D01*
X135445898Y-69495830D01*
X135444471Y-69504994D01*
X131250500Y-69504994D01*
X131250549Y-69495566D01*
X131226871Y-69396940D01*
X131212741Y-69338088D01*
X131210968Y-69330703D01*
X131203384Y-69316008D01*
X131136688Y-69186788D01*
X131136688Y-69186787D01*
X131133205Y-69180040D01*
X131127893Y-69173950D01*
X131062259Y-69098713D01*
X131021749Y-69052275D01*
X130953197Y-69004096D01*
X130889250Y-68959153D01*
X130889248Y-68959152D01*
X130883033Y-68954784D01*
X130725067Y-68893195D01*
X130717534Y-68892203D01*
X130717533Y-68892203D01*
X130599841Y-68876709D01*
X130599840Y-68876709D01*
X130595754Y-68876171D01*
X129407064Y-68876171D01*
X129281260Y-68891395D01*
X129122657Y-68951326D01*
X129116399Y-68955627D01*
X128990907Y-69041876D01*
X128982929Y-69047359D01*
X128977877Y-69053029D01*
X128977876Y-69053030D01*
X128875192Y-69168279D01*
X128875190Y-69168283D01*
X128870140Y-69173950D01*
X128866588Y-69180659D01*
X128866587Y-69180660D01*
X128839436Y-69231940D01*
X128790804Y-69323790D01*
X128749499Y-69488230D01*
X128749459Y-69495828D01*
X128749459Y-69495830D01*
X128749314Y-69523525D01*
X128748611Y-69657776D01*
X126819700Y-69657776D01*
X126819709Y-69656052D01*
X126820389Y-69526084D01*
X126820549Y-69495566D01*
X126796871Y-69396940D01*
X126782741Y-69338088D01*
X126780968Y-69330703D01*
X126773384Y-69316008D01*
X126706688Y-69186788D01*
X126706688Y-69186787D01*
X126703205Y-69180040D01*
X126697893Y-69173950D01*
X126632259Y-69098713D01*
X126591749Y-69052275D01*
X126523197Y-69004096D01*
X126459250Y-68959153D01*
X126459248Y-68959152D01*
X126453033Y-68954784D01*
X126295067Y-68893195D01*
X126287534Y-68892203D01*
X126287533Y-68892203D01*
X126169841Y-68876709D01*
X126169840Y-68876709D01*
X126165754Y-68876171D01*
X125477064Y-68876171D01*
X125351260Y-68891395D01*
X125192657Y-68951326D01*
X125186399Y-68955627D01*
X125060907Y-69041876D01*
X125052929Y-69047359D01*
X125047877Y-69053029D01*
X125047876Y-69053030D01*
X124945192Y-69168279D01*
X124945190Y-69168283D01*
X124940140Y-69173950D01*
X124936588Y-69180659D01*
X124936587Y-69180660D01*
X124909436Y-69231940D01*
X124860804Y-69323790D01*
X124819499Y-69488230D01*
X124819459Y-69495828D01*
X124819459Y-69495830D01*
X124819314Y-69523525D01*
X124818611Y-69657776D01*
X123196580Y-69657776D01*
X123196580Y-67726994D01*
X127824471Y-67726994D01*
X127825635Y-67735896D01*
X127825635Y-67735899D01*
X127833766Y-67798072D01*
X127843060Y-67869150D01*
X127846677Y-67877370D01*
X127895398Y-67988096D01*
X127900800Y-68000374D01*
X127906577Y-68007247D01*
X127906578Y-68007248D01*
X127953163Y-68062668D01*
X127993050Y-68110119D01*
X128000527Y-68115096D01*
X128090528Y-68175006D01*
X128112393Y-68189561D01*
X128249237Y-68232313D01*
X128258209Y-68232477D01*
X128258212Y-68232478D01*
X128323543Y-68233675D01*
X128392579Y-68234941D01*
X128401613Y-68232478D01*
X128522238Y-68199592D01*
X128522240Y-68199591D01*
X128530897Y-68197231D01*
X128653071Y-68122216D01*
X128707212Y-68062402D01*
X128743258Y-68022578D01*
X128749280Y-68015925D01*
X128784169Y-67943914D01*
X128807875Y-67894985D01*
X128807875Y-67894984D01*
X128811790Y-67886904D01*
X128817327Y-67853994D01*
X138214971Y-67853994D01*
X138216135Y-67862896D01*
X138216135Y-67862899D01*
X138219906Y-67891735D01*
X138233560Y-67996150D01*
X138237177Y-68004370D01*
X138286103Y-68115562D01*
X138291300Y-68127374D01*
X138297077Y-68134247D01*
X138297078Y-68134248D01*
X138339390Y-68184584D01*
X138383550Y-68237119D01*
X138391027Y-68242096D01*
X138476748Y-68299157D01*
X138502893Y-68316561D01*
X138639737Y-68359313D01*
X138648709Y-68359477D01*
X138648712Y-68359478D01*
X138714043Y-68360675D01*
X138783079Y-68361941D01*
X138792113Y-68359478D01*
X138912738Y-68326592D01*
X138912740Y-68326591D01*
X138921397Y-68324231D01*
X139043571Y-68249216D01*
X139050887Y-68241134D01*
X139123797Y-68160583D01*
X139139780Y-68142925D01*
X139186243Y-68047026D01*
X139198375Y-68021985D01*
X139198375Y-68021984D01*
X139202290Y-68013904D01*
X139226076Y-67872525D01*
X139226227Y-67860171D01*
X139213369Y-67770384D01*
X139207176Y-67727141D01*
X139207176Y-67727140D01*
X139205903Y-67718253D01*
X139204546Y-67715269D01*
X139204623Y-67647141D01*
X139243074Y-67587458D01*
X139308577Y-67558331D01*
X139314579Y-67558441D01*
X139323235Y-67556081D01*
X139323236Y-67556081D01*
X139444238Y-67523092D01*
X139444240Y-67523091D01*
X139452897Y-67520731D01*
X139575071Y-67445716D01*
X139671280Y-67339425D01*
X139720499Y-67237836D01*
X139729875Y-67218485D01*
X139729875Y-67218484D01*
X139733790Y-67210404D01*
X139757576Y-67069025D01*
X139757727Y-67056671D01*
X139737403Y-66914753D01*
X139678064Y-66784243D01*
X139645820Y-66746822D01*
X139590340Y-66682434D01*
X139590337Y-66682431D01*
X139584480Y-66675634D01*
X139464175Y-66597656D01*
X139326819Y-66556578D01*
X139317843Y-66556523D01*
X139317842Y-66556523D01*
X139257635Y-66556155D01*
X139183456Y-66555702D01*
X139045609Y-66595099D01*
X138924360Y-66671601D01*
X138829457Y-66779059D01*
X138768527Y-66908834D01*
X138746471Y-67050494D01*
X138747635Y-67059396D01*
X138747635Y-67059399D01*
X138755111Y-67116567D01*
X138765060Y-67192650D01*
X138768455Y-67200366D01*
X138767514Y-67271080D01*
X138728338Y-67330290D01*
X138664201Y-67358809D01*
X138660932Y-67359257D01*
X138651956Y-67359202D01*
X138514109Y-67398599D01*
X138392860Y-67475101D01*
X138297957Y-67582559D01*
X138237027Y-67712334D01*
X138234722Y-67727141D01*
X138218635Y-67830463D01*
X138214971Y-67853994D01*
X128817327Y-67853994D01*
X128835576Y-67745525D01*
X128835727Y-67733171D01*
X128815403Y-67591253D01*
X128808293Y-67575614D01*
X128783339Y-67520731D01*
X128756064Y-67460743D01*
X128737382Y-67439062D01*
X128668340Y-67358934D01*
X128668337Y-67358931D01*
X128662480Y-67352134D01*
X128542175Y-67274156D01*
X128404819Y-67233078D01*
X128395843Y-67233023D01*
X128395842Y-67233023D01*
X128335635Y-67232655D01*
X128261456Y-67232202D01*
X128123609Y-67271599D01*
X128002360Y-67348101D01*
X127907457Y-67455559D01*
X127846527Y-67585334D01*
X127844222Y-67600139D01*
X127826754Y-67712334D01*
X127824471Y-67726994D01*
X123196580Y-67726994D01*
X123196580Y-66351600D01*
X128383609Y-66351600D01*
X128384773Y-66360502D01*
X128384773Y-66360505D01*
X128386032Y-66370131D01*
X128402198Y-66493756D01*
X128459938Y-66624980D01*
X128465715Y-66631853D01*
X128465716Y-66631854D01*
X128498412Y-66670751D01*
X128552188Y-66734725D01*
X128671531Y-66814167D01*
X128808375Y-66856919D01*
X128817347Y-66857083D01*
X128817350Y-66857084D01*
X128882681Y-66858281D01*
X128951717Y-66859547D01*
X128960751Y-66857084D01*
X129081376Y-66824198D01*
X129081378Y-66824197D01*
X129090035Y-66821837D01*
X129212209Y-66746822D01*
X129308418Y-66640531D01*
X129370928Y-66511510D01*
X129394714Y-66370131D01*
X129394865Y-66357777D01*
X129374541Y-66215859D01*
X129315202Y-66085349D01*
X129276637Y-66040592D01*
X129227478Y-65983540D01*
X129227475Y-65983537D01*
X129221618Y-65976740D01*
X129101313Y-65898762D01*
X128963957Y-65857684D01*
X128954981Y-65857629D01*
X128954980Y-65857629D01*
X128894773Y-65857261D01*
X128820594Y-65856808D01*
X128682747Y-65896205D01*
X128561498Y-65972707D01*
X128466595Y-66080165D01*
X128405665Y-66209940D01*
X128383609Y-66351600D01*
X123196580Y-66351600D01*
X123196580Y-65313994D01*
X137857471Y-65313994D01*
X137858635Y-65322896D01*
X137858635Y-65322899D01*
X137859894Y-65332525D01*
X137876060Y-65456150D01*
X137879677Y-65464370D01*
X137930129Y-65579030D01*
X137933800Y-65587374D01*
X137939577Y-65594247D01*
X137939578Y-65594248D01*
X137946872Y-65602925D01*
X138026050Y-65697119D01*
X138145393Y-65776561D01*
X138282237Y-65819313D01*
X138291209Y-65819477D01*
X138291212Y-65819478D01*
X138356543Y-65820675D01*
X138425579Y-65821941D01*
X138434613Y-65819478D01*
X138555238Y-65786592D01*
X138555240Y-65786591D01*
X138563897Y-65784231D01*
X138686071Y-65709216D01*
X138782280Y-65602925D01*
X138799204Y-65567994D01*
X142175471Y-65567994D01*
X142176635Y-65576896D01*
X142176635Y-65576899D01*
X142180909Y-65609578D01*
X142194060Y-65710150D01*
X142197677Y-65718370D01*
X142242166Y-65819478D01*
X142251800Y-65841374D01*
X142257577Y-65848247D01*
X142257578Y-65848248D01*
X142338270Y-65944243D01*
X142344050Y-65951119D01*
X142463393Y-66030561D01*
X142600237Y-66073313D01*
X142609209Y-66073477D01*
X142609212Y-66073478D01*
X142674543Y-66074675D01*
X142743579Y-66075941D01*
X142752613Y-66073478D01*
X142873238Y-66040592D01*
X142873240Y-66040591D01*
X142881897Y-66038231D01*
X143004071Y-65963216D01*
X143100280Y-65856925D01*
X143162790Y-65727904D01*
X143186576Y-65586525D01*
X143186727Y-65574171D01*
X143185842Y-65567994D01*
X143445471Y-65567994D01*
X143446635Y-65576896D01*
X143446635Y-65576899D01*
X143450909Y-65609578D01*
X143464060Y-65710150D01*
X143467677Y-65718370D01*
X143512166Y-65819478D01*
X143521800Y-65841374D01*
X143527577Y-65848247D01*
X143527578Y-65848248D01*
X143608270Y-65944243D01*
X143614050Y-65951119D01*
X143733393Y-66030561D01*
X143870237Y-66073313D01*
X143879209Y-66073477D01*
X143879212Y-66073478D01*
X143944543Y-66074675D01*
X144013579Y-66075941D01*
X144022613Y-66073478D01*
X144143238Y-66040592D01*
X144143240Y-66040591D01*
X144151897Y-66038231D01*
X144274071Y-65963216D01*
X144370280Y-65856925D01*
X144432790Y-65727904D01*
X144456576Y-65586525D01*
X144456727Y-65574171D01*
X144455842Y-65567994D01*
X144715471Y-65567994D01*
X144716635Y-65576896D01*
X144716635Y-65576899D01*
X144720909Y-65609578D01*
X144734060Y-65710150D01*
X144737677Y-65718370D01*
X144782166Y-65819478D01*
X144791800Y-65841374D01*
X144797577Y-65848247D01*
X144797578Y-65848248D01*
X144878270Y-65944243D01*
X144884050Y-65951119D01*
X145003393Y-66030561D01*
X145140237Y-66073313D01*
X145149209Y-66073477D01*
X145149212Y-66073478D01*
X145214543Y-66074675D01*
X145283579Y-66075941D01*
X145292613Y-66073478D01*
X145413238Y-66040592D01*
X145413240Y-66040591D01*
X145421897Y-66038231D01*
X145544071Y-65963216D01*
X145640280Y-65856925D01*
X145702790Y-65727904D01*
X145726576Y-65586525D01*
X145726727Y-65574171D01*
X145711100Y-65465052D01*
X145707676Y-65441139D01*
X145707675Y-65441136D01*
X145706403Y-65432253D01*
X145647064Y-65301743D01*
X145628678Y-65280405D01*
X145559340Y-65199934D01*
X145559337Y-65199931D01*
X145553480Y-65193134D01*
X145433175Y-65115156D01*
X145295819Y-65074078D01*
X145286843Y-65074023D01*
X145286842Y-65074023D01*
X145226635Y-65073655D01*
X145152456Y-65073202D01*
X145014609Y-65112599D01*
X144893360Y-65189101D01*
X144798457Y-65296559D01*
X144737527Y-65426334D01*
X144715471Y-65567994D01*
X144455842Y-65567994D01*
X144441100Y-65465052D01*
X144437676Y-65441139D01*
X144437675Y-65441136D01*
X144436403Y-65432253D01*
X144377064Y-65301743D01*
X144358678Y-65280405D01*
X144289340Y-65199934D01*
X144289337Y-65199931D01*
X144283480Y-65193134D01*
X144163175Y-65115156D01*
X144025819Y-65074078D01*
X144016843Y-65074023D01*
X144016842Y-65074023D01*
X143956635Y-65073655D01*
X143882456Y-65073202D01*
X143744609Y-65112599D01*
X143623360Y-65189101D01*
X143528457Y-65296559D01*
X143467527Y-65426334D01*
X143445471Y-65567994D01*
X143185842Y-65567994D01*
X143171100Y-65465052D01*
X143167676Y-65441139D01*
X143167675Y-65441136D01*
X143166403Y-65432253D01*
X143107064Y-65301743D01*
X143088678Y-65280405D01*
X143019340Y-65199934D01*
X143019337Y-65199931D01*
X143013480Y-65193134D01*
X142893175Y-65115156D01*
X142755819Y-65074078D01*
X142746843Y-65074023D01*
X142746842Y-65074023D01*
X142686635Y-65073655D01*
X142612456Y-65073202D01*
X142474609Y-65112599D01*
X142353360Y-65189101D01*
X142258457Y-65296559D01*
X142197527Y-65426334D01*
X142175471Y-65567994D01*
X138799204Y-65567994D01*
X138844790Y-65473904D01*
X138868576Y-65332525D01*
X138868727Y-65320171D01*
X138851508Y-65199934D01*
X138849676Y-65187139D01*
X138849675Y-65187136D01*
X138848403Y-65178253D01*
X138789064Y-65047743D01*
X138770678Y-65026405D01*
X138701340Y-64945934D01*
X138701337Y-64945931D01*
X138695480Y-64939134D01*
X138575175Y-64861156D01*
X138437819Y-64820078D01*
X138428843Y-64820023D01*
X138428842Y-64820023D01*
X138368635Y-64819655D01*
X138294456Y-64819202D01*
X138156609Y-64858599D01*
X138035360Y-64935101D01*
X137940457Y-65042559D01*
X137879527Y-65172334D01*
X137876289Y-65193134D01*
X137860186Y-65296559D01*
X137857471Y-65313994D01*
X123196580Y-65313994D01*
X123196580Y-62721492D01*
X137603471Y-62721492D01*
X137604635Y-62730394D01*
X137604635Y-62730397D01*
X137606684Y-62746065D01*
X137622060Y-62863648D01*
X137679800Y-62994872D01*
X137685577Y-63001745D01*
X137685578Y-63001746D01*
X137707597Y-63027941D01*
X137772050Y-63104617D01*
X137891393Y-63184059D01*
X138028237Y-63226811D01*
X138037209Y-63226975D01*
X138037212Y-63226976D01*
X138102543Y-63228173D01*
X138171579Y-63229439D01*
X138180613Y-63226976D01*
X138301238Y-63194090D01*
X138301240Y-63194089D01*
X138309897Y-63191729D01*
X138432071Y-63116714D01*
X138528280Y-63010423D01*
X138590790Y-62881402D01*
X138592279Y-62872553D01*
X138592280Y-62872549D01*
X138596885Y-62845175D01*
X138627912Y-62781316D01*
X138688537Y-62744370D01*
X138759514Y-62746065D01*
X138818306Y-62785864D01*
X138821370Y-62790125D01*
X138822800Y-62793374D01*
X138828575Y-62800244D01*
X138828576Y-62800246D01*
X138841464Y-62815578D01*
X138915050Y-62903119D01*
X139034393Y-62982561D01*
X139171237Y-63025313D01*
X139180209Y-63025477D01*
X139180212Y-63025478D01*
X139245543Y-63026675D01*
X139314579Y-63027941D01*
X139323613Y-63025478D01*
X139444238Y-62992592D01*
X139444240Y-62992591D01*
X139452897Y-62990231D01*
X139575071Y-62915216D01*
X139671280Y-62808925D01*
X139733790Y-62679904D01*
X139757576Y-62538525D01*
X139757727Y-62526171D01*
X139749487Y-62468630D01*
X139738676Y-62393139D01*
X139738675Y-62393136D01*
X139737403Y-62384253D01*
X139678064Y-62253743D01*
X139654762Y-62226700D01*
X139590340Y-62151934D01*
X139590337Y-62151931D01*
X139584480Y-62145134D01*
X139464175Y-62067156D01*
X139326819Y-62026078D01*
X139317843Y-62026023D01*
X139317842Y-62026023D01*
X139257635Y-62025655D01*
X139183456Y-62025202D01*
X139045609Y-62064599D01*
X138924360Y-62141101D01*
X138829457Y-62248559D01*
X138768527Y-62378334D01*
X138767146Y-62387206D01*
X138767145Y-62387208D01*
X138764124Y-62406614D01*
X138733881Y-62470847D01*
X138673712Y-62508533D01*
X138602721Y-62507707D01*
X138543445Y-62468630D01*
X138537469Y-62460530D01*
X138535064Y-62455241D01*
X138493164Y-62406614D01*
X138447340Y-62353432D01*
X138447337Y-62353429D01*
X138441480Y-62346632D01*
X138321175Y-62268654D01*
X138183819Y-62227576D01*
X138174843Y-62227521D01*
X138174842Y-62227521D01*
X138114635Y-62227153D01*
X138040456Y-62226700D01*
X137902609Y-62266097D01*
X137781360Y-62342599D01*
X137686457Y-62450057D01*
X137625527Y-62579832D01*
X137603471Y-62721492D01*
X123196580Y-62721492D01*
X123196580Y-61017776D01*
X124818611Y-61017776D01*
X124858192Y-61182639D01*
X124935955Y-61333302D01*
X124940947Y-61339024D01*
X124940948Y-61339026D01*
X125003388Y-61410602D01*
X125047411Y-61461067D01*
X125053625Y-61465434D01*
X125179910Y-61554189D01*
X125179912Y-61554190D01*
X125186127Y-61558558D01*
X125344093Y-61620147D01*
X125351626Y-61621139D01*
X125351627Y-61621139D01*
X125469319Y-61636633D01*
X125473406Y-61637171D01*
X126162096Y-61637171D01*
X126287900Y-61621947D01*
X126446503Y-61562016D01*
X126586231Y-61465983D01*
X126595712Y-61455342D01*
X126693968Y-61345063D01*
X126693970Y-61345059D01*
X126699020Y-61339392D01*
X126705818Y-61326554D01*
X126774804Y-61196260D01*
X126778356Y-61189552D01*
X126819661Y-61025112D01*
X126819699Y-61017776D01*
X128748611Y-61017776D01*
X128788192Y-61182639D01*
X128865955Y-61333302D01*
X128870947Y-61339024D01*
X128870948Y-61339026D01*
X128933388Y-61410602D01*
X128977411Y-61461067D01*
X128983625Y-61465434D01*
X129109910Y-61554189D01*
X129109912Y-61554190D01*
X129116127Y-61558558D01*
X129274093Y-61620147D01*
X129281626Y-61621139D01*
X129281627Y-61621139D01*
X129399319Y-61636633D01*
X129403406Y-61637171D01*
X130592096Y-61637171D01*
X130717900Y-61621947D01*
X130876503Y-61562016D01*
X131016231Y-61465983D01*
X131025712Y-61455342D01*
X131123968Y-61345063D01*
X131123970Y-61345059D01*
X131129020Y-61339392D01*
X131135818Y-61326554D01*
X131204804Y-61196260D01*
X131208356Y-61189552D01*
X131249661Y-61025112D01*
X131250549Y-60855566D01*
X131210968Y-60690703D01*
X131133205Y-60540040D01*
X131127893Y-60533950D01*
X131026743Y-60418000D01*
X131021749Y-60412275D01*
X130945347Y-60358579D01*
X130889250Y-60319153D01*
X130889248Y-60319152D01*
X130883033Y-60314784D01*
X130725067Y-60253195D01*
X130717534Y-60252203D01*
X130717533Y-60252203D01*
X130599841Y-60236709D01*
X130599840Y-60236709D01*
X130595754Y-60236171D01*
X130229026Y-60236171D01*
X130160905Y-60216169D01*
X130114412Y-60162513D01*
X130104308Y-60092239D01*
X130133802Y-60027659D01*
X130163098Y-60002796D01*
X130169420Y-59998915D01*
X130169426Y-59998910D01*
X130177071Y-59994216D01*
X130273280Y-59887925D01*
X130335790Y-59758904D01*
X130359576Y-59617525D01*
X130359727Y-59605171D01*
X130342508Y-59484934D01*
X130340676Y-59472139D01*
X130340675Y-59472136D01*
X130339403Y-59463253D01*
X130280064Y-59332743D01*
X130261678Y-59311405D01*
X130192340Y-59230934D01*
X130192337Y-59230931D01*
X130186480Y-59224134D01*
X130066175Y-59146156D01*
X129928819Y-59105078D01*
X129919843Y-59105023D01*
X129919842Y-59105023D01*
X129859635Y-59104655D01*
X129785456Y-59104202D01*
X129647609Y-59143599D01*
X129526360Y-59220101D01*
X129431457Y-59327559D01*
X129370527Y-59457334D01*
X129367289Y-59478134D01*
X129351186Y-59581559D01*
X129348471Y-59598994D01*
X129349635Y-59607896D01*
X129349635Y-59607899D01*
X129350894Y-59617525D01*
X129367060Y-59741150D01*
X129370677Y-59749370D01*
X129421129Y-59864030D01*
X129424800Y-59872374D01*
X129430577Y-59879247D01*
X129430578Y-59879248D01*
X129437872Y-59887925D01*
X129517050Y-59982119D01*
X129524527Y-59987096D01*
X129551850Y-60005284D01*
X129597473Y-60059682D01*
X129606444Y-60130109D01*
X129575914Y-60194206D01*
X129515577Y-60231623D01*
X129482031Y-60236171D01*
X129407064Y-60236171D01*
X129281260Y-60251395D01*
X129122657Y-60311326D01*
X128982929Y-60407359D01*
X128977877Y-60413029D01*
X128977876Y-60413030D01*
X128875192Y-60528279D01*
X128875190Y-60528283D01*
X128870140Y-60533950D01*
X128866588Y-60540659D01*
X128866587Y-60540660D01*
X128834326Y-60601591D01*
X128790804Y-60683790D01*
X128749499Y-60848230D01*
X128748611Y-61017776D01*
X126819699Y-61017776D01*
X126820549Y-60855566D01*
X126780968Y-60690703D01*
X126703205Y-60540040D01*
X126697893Y-60533950D01*
X126596743Y-60418000D01*
X126591749Y-60412275D01*
X126515347Y-60358579D01*
X126459250Y-60319153D01*
X126459248Y-60319152D01*
X126453033Y-60314784D01*
X126295067Y-60253195D01*
X126287534Y-60252203D01*
X126287533Y-60252203D01*
X126169841Y-60236709D01*
X126169840Y-60236709D01*
X126165754Y-60236171D01*
X125477064Y-60236171D01*
X125351260Y-60251395D01*
X125192657Y-60311326D01*
X125052929Y-60407359D01*
X125047877Y-60413029D01*
X125047876Y-60413030D01*
X124945192Y-60528279D01*
X124945190Y-60528283D01*
X124940140Y-60533950D01*
X124936588Y-60540659D01*
X124936587Y-60540660D01*
X124904326Y-60601591D01*
X124860804Y-60683790D01*
X124819499Y-60848230D01*
X124818611Y-61017776D01*
X123196580Y-61017776D01*
X123196580Y-59852994D01*
X127189471Y-59852994D01*
X127190635Y-59861896D01*
X127190635Y-59861899D01*
X127194909Y-59894578D01*
X127208060Y-59995150D01*
X127265800Y-60126374D01*
X127271577Y-60133247D01*
X127271578Y-60133248D01*
X127341280Y-60216169D01*
X127358050Y-60236119D01*
X127477393Y-60315561D01*
X127485968Y-60318240D01*
X127501944Y-60323231D01*
X127614237Y-60358313D01*
X127623209Y-60358477D01*
X127623212Y-60358478D01*
X127688543Y-60359675D01*
X127757579Y-60360941D01*
X127766613Y-60358478D01*
X127887238Y-60325592D01*
X127887240Y-60325591D01*
X127895897Y-60323231D01*
X128018071Y-60248216D01*
X128028974Y-60236171D01*
X128108258Y-60148578D01*
X128114280Y-60141925D01*
X128176790Y-60012904D01*
X128200576Y-59871525D01*
X128200727Y-59859171D01*
X128185100Y-59750052D01*
X128181676Y-59726139D01*
X128181675Y-59726136D01*
X128180403Y-59717253D01*
X128121064Y-59586743D01*
X128102678Y-59565405D01*
X128033340Y-59484934D01*
X128033337Y-59484931D01*
X128027480Y-59478134D01*
X127907175Y-59400156D01*
X127769819Y-59359078D01*
X127760843Y-59359023D01*
X127760842Y-59359023D01*
X127700635Y-59358655D01*
X127626456Y-59358202D01*
X127488609Y-59397599D01*
X127367360Y-59474101D01*
X127272457Y-59581559D01*
X127211527Y-59711334D01*
X127189471Y-59852994D01*
X123196580Y-59852994D01*
X123196580Y-58201994D01*
X131126471Y-58201994D01*
X131127635Y-58210896D01*
X131127635Y-58210899D01*
X131131909Y-58243578D01*
X131145060Y-58344150D01*
X131148677Y-58352370D01*
X131193166Y-58453478D01*
X131202800Y-58475374D01*
X131208577Y-58482247D01*
X131208578Y-58482248D01*
X131215872Y-58490925D01*
X131295050Y-58585119D01*
X131414393Y-58664561D01*
X131551237Y-58707313D01*
X131560209Y-58707477D01*
X131560212Y-58707478D01*
X131625543Y-58708675D01*
X131694579Y-58709941D01*
X131703613Y-58707478D01*
X131824238Y-58674592D01*
X131824240Y-58674591D01*
X131832897Y-58672231D01*
X131955071Y-58597216D01*
X132051280Y-58490925D01*
X132113790Y-58361904D01*
X132137576Y-58220525D01*
X132137727Y-58208171D01*
X132122100Y-58099052D01*
X132118676Y-58075139D01*
X132118675Y-58075136D01*
X132117403Y-58066253D01*
X132063634Y-57947994D01*
X138746471Y-57947994D01*
X138747635Y-57956896D01*
X138747635Y-57956899D01*
X138748894Y-57966525D01*
X138765060Y-58090150D01*
X138768677Y-58098370D01*
X138819129Y-58213030D01*
X138822800Y-58221374D01*
X138828577Y-58228247D01*
X138828578Y-58228248D01*
X138835872Y-58236925D01*
X138915050Y-58331119D01*
X139034393Y-58410561D01*
X139171237Y-58453313D01*
X139180209Y-58453477D01*
X139180212Y-58453478D01*
X139245543Y-58454675D01*
X139314579Y-58455941D01*
X139323613Y-58453478D01*
X139444238Y-58420592D01*
X139444240Y-58420591D01*
X139452897Y-58418231D01*
X139575071Y-58343216D01*
X139671280Y-58236925D01*
X139733790Y-58107904D01*
X139757576Y-57966525D01*
X139757727Y-57954171D01*
X139740508Y-57833934D01*
X139738676Y-57821139D01*
X139738675Y-57821136D01*
X139737403Y-57812253D01*
X139678064Y-57681743D01*
X139607547Y-57599904D01*
X139590340Y-57579934D01*
X139590337Y-57579931D01*
X139584480Y-57573134D01*
X139464175Y-57495156D01*
X139326819Y-57454078D01*
X139317843Y-57454023D01*
X139317842Y-57454023D01*
X139257635Y-57453655D01*
X139183456Y-57453202D01*
X139045609Y-57492599D01*
X138924360Y-57569101D01*
X138918418Y-57575829D01*
X138918417Y-57575830D01*
X138905576Y-57590370D01*
X138829457Y-57676559D01*
X138768527Y-57806334D01*
X138765914Y-57823119D01*
X138749186Y-57930559D01*
X138746471Y-57947994D01*
X132063634Y-57947994D01*
X132058064Y-57935743D01*
X132031781Y-57905240D01*
X131970340Y-57833934D01*
X131970337Y-57833931D01*
X131964480Y-57827134D01*
X131844175Y-57749156D01*
X131706819Y-57708078D01*
X131697843Y-57708023D01*
X131697842Y-57708023D01*
X131637635Y-57707655D01*
X131563456Y-57707202D01*
X131425609Y-57746599D01*
X131304360Y-57823101D01*
X131209457Y-57930559D01*
X131148527Y-58060334D01*
X131126471Y-58201994D01*
X123196580Y-58201994D01*
X123196580Y-57439994D01*
X127570471Y-57439994D01*
X127571635Y-57448896D01*
X127571635Y-57448899D01*
X127572649Y-57456651D01*
X127589060Y-57582150D01*
X127592677Y-57590370D01*
X127634177Y-57684685D01*
X127646800Y-57713374D01*
X127652577Y-57720247D01*
X127652578Y-57720248D01*
X127674715Y-57746583D01*
X127739050Y-57823119D01*
X127858393Y-57902561D01*
X127995237Y-57945313D01*
X128004209Y-57945477D01*
X128004212Y-57945478D01*
X128069543Y-57946675D01*
X128138579Y-57947941D01*
X128147613Y-57945478D01*
X128268238Y-57912592D01*
X128268240Y-57912591D01*
X128276897Y-57910231D01*
X128399071Y-57835216D01*
X128406387Y-57827134D01*
X128479297Y-57746583D01*
X128495280Y-57728925D01*
X128557790Y-57599904D01*
X128581576Y-57458525D01*
X128581727Y-57446171D01*
X128561403Y-57304253D01*
X128502064Y-57173743D01*
X128483678Y-57152405D01*
X128414340Y-57071934D01*
X128414337Y-57071931D01*
X128408480Y-57065134D01*
X128288175Y-56987156D01*
X128150819Y-56946078D01*
X128141843Y-56946023D01*
X128141842Y-56946023D01*
X128081635Y-56945655D01*
X128007456Y-56945202D01*
X127869609Y-56984599D01*
X127748360Y-57061101D01*
X127653457Y-57168559D01*
X127592527Y-57298334D01*
X127570471Y-57439994D01*
X123196580Y-57439994D01*
X123196580Y-56106494D01*
X125474971Y-56106494D01*
X125476135Y-56115396D01*
X125476135Y-56115399D01*
X125477394Y-56125025D01*
X125493560Y-56248650D01*
X125551300Y-56379874D01*
X125557077Y-56386747D01*
X125557078Y-56386748D01*
X125564372Y-56395425D01*
X125643550Y-56489619D01*
X125661723Y-56501716D01*
X125732124Y-56548579D01*
X125762893Y-56569061D01*
X125899737Y-56611813D01*
X125908709Y-56611977D01*
X125908712Y-56611978D01*
X125974043Y-56613175D01*
X126043079Y-56614441D01*
X126052113Y-56611978D01*
X126172738Y-56579092D01*
X126172740Y-56579091D01*
X126181397Y-56576731D01*
X126303571Y-56501716D01*
X126367493Y-56431096D01*
X126393758Y-56402078D01*
X126399780Y-56395425D01*
X126462290Y-56266404D01*
X126486076Y-56125025D01*
X126486227Y-56112671D01*
X126476249Y-56042994D01*
X130237471Y-56042994D01*
X130238635Y-56051896D01*
X130238635Y-56051899D01*
X130246582Y-56112671D01*
X130256060Y-56185150D01*
X130313800Y-56316374D01*
X130319577Y-56323247D01*
X130319578Y-56323248D01*
X130367177Y-56379874D01*
X130406050Y-56426119D01*
X130413527Y-56431096D01*
X130508921Y-56494596D01*
X130525393Y-56505561D01*
X130662237Y-56548313D01*
X130671209Y-56548477D01*
X130671212Y-56548478D01*
X130736543Y-56549675D01*
X130805579Y-56550941D01*
X130814613Y-56548478D01*
X130935238Y-56515592D01*
X130935240Y-56515591D01*
X130943897Y-56513231D01*
X131066071Y-56438216D01*
X131162280Y-56331925D01*
X131224790Y-56202904D01*
X131248576Y-56061525D01*
X131248727Y-56049171D01*
X131228403Y-55907253D01*
X131169064Y-55776743D01*
X131136055Y-55738434D01*
X131081340Y-55674934D01*
X131081337Y-55674931D01*
X131075480Y-55668134D01*
X130955175Y-55590156D01*
X130817819Y-55549078D01*
X130808843Y-55549023D01*
X130808842Y-55549023D01*
X130748635Y-55548655D01*
X130674456Y-55548202D01*
X130536609Y-55587599D01*
X130415360Y-55664101D01*
X130320457Y-55771559D01*
X130259527Y-55901334D01*
X130237471Y-56042994D01*
X126476249Y-56042994D01*
X126465903Y-55970753D01*
X126406564Y-55840243D01*
X126368926Y-55796562D01*
X126318840Y-55738434D01*
X126318837Y-55738431D01*
X126312980Y-55731634D01*
X126192675Y-55653656D01*
X126055319Y-55612578D01*
X126046343Y-55612523D01*
X126046342Y-55612523D01*
X125986135Y-55612155D01*
X125911956Y-55611702D01*
X125774109Y-55651099D01*
X125652860Y-55727601D01*
X125646918Y-55734329D01*
X125646917Y-55734330D01*
X125639558Y-55742663D01*
X125557957Y-55835059D01*
X125497027Y-55964834D01*
X125495646Y-55973706D01*
X125481973Y-56061525D01*
X125474971Y-56106494D01*
X123196580Y-56106494D01*
X123196580Y-54875602D01*
X123216582Y-54807481D01*
X123270238Y-54760988D01*
X123340512Y-54750884D01*
X123405092Y-54780378D01*
X123412285Y-54787680D01*
X123416270Y-54791243D01*
X123422050Y-54798119D01*
X123541393Y-54877561D01*
X123678237Y-54920313D01*
X123687209Y-54920477D01*
X123687212Y-54920478D01*
X123752543Y-54921675D01*
X123821579Y-54922941D01*
X123830613Y-54920478D01*
X123951238Y-54887592D01*
X123951240Y-54887591D01*
X123959897Y-54885231D01*
X124082071Y-54810216D01*
X124088092Y-54803564D01*
X124088098Y-54803559D01*
X124150385Y-54734745D01*
X124210928Y-54697663D01*
X124281908Y-54699201D01*
X124313620Y-54714414D01*
X124325706Y-54722459D01*
X124462550Y-54765211D01*
X124471522Y-54765375D01*
X124471525Y-54765376D01*
X124536856Y-54766573D01*
X124605892Y-54767839D01*
X124614926Y-54765376D01*
X124735551Y-54732490D01*
X124735553Y-54732489D01*
X124744210Y-54730129D01*
X124866384Y-54655114D01*
X124877068Y-54643311D01*
X124956571Y-54555476D01*
X124962593Y-54548823D01*
X124977045Y-54518994D01*
X127126471Y-54518994D01*
X127127635Y-54527896D01*
X127127635Y-54527899D01*
X127131460Y-54557150D01*
X127145060Y-54661150D01*
X127164812Y-54706040D01*
X127199129Y-54784030D01*
X127202800Y-54792374D01*
X127208577Y-54799247D01*
X127208578Y-54799248D01*
X127278579Y-54882524D01*
X127295050Y-54902119D01*
X127302527Y-54907096D01*
X127399829Y-54971866D01*
X127414393Y-54981561D01*
X127551237Y-55024313D01*
X127560209Y-55024477D01*
X127560212Y-55024478D01*
X127625543Y-55025675D01*
X127694579Y-55026941D01*
X127704017Y-55024368D01*
X127795969Y-54999299D01*
X127866952Y-55000679D01*
X127925921Y-55040216D01*
X127954153Y-55105358D01*
X127953611Y-55140244D01*
X127953378Y-55141743D01*
X127951471Y-55153992D01*
X127952635Y-55162894D01*
X127952635Y-55162897D01*
X127956831Y-55194985D01*
X127970060Y-55296148D01*
X128027800Y-55427372D01*
X128033577Y-55434245D01*
X128033578Y-55434246D01*
X128080075Y-55489561D01*
X128120050Y-55537117D01*
X128239393Y-55616559D01*
X128376237Y-55659311D01*
X128385209Y-55659475D01*
X128385212Y-55659476D01*
X128450543Y-55660673D01*
X128519579Y-55661939D01*
X128528613Y-55659476D01*
X128649238Y-55626590D01*
X128649240Y-55626589D01*
X128657897Y-55624229D01*
X128780071Y-55549214D01*
X128876280Y-55442923D01*
X128893203Y-55407994D01*
X138746471Y-55407994D01*
X138747635Y-55416896D01*
X138747635Y-55416899D01*
X138751908Y-55449576D01*
X138765060Y-55550150D01*
X138768677Y-55558370D01*
X138818161Y-55670830D01*
X138822800Y-55681374D01*
X138828577Y-55688247D01*
X138828578Y-55688248D01*
X138906105Y-55780478D01*
X138915050Y-55791119D01*
X139034393Y-55870561D01*
X139171237Y-55913313D01*
X139180209Y-55913477D01*
X139180212Y-55913478D01*
X139245543Y-55914675D01*
X139314579Y-55915941D01*
X139323613Y-55913478D01*
X139444238Y-55880592D01*
X139444240Y-55880591D01*
X139452897Y-55878231D01*
X139575071Y-55803216D01*
X139671280Y-55696925D01*
X139712172Y-55612523D01*
X139729875Y-55575985D01*
X139729875Y-55575984D01*
X139733790Y-55567904D01*
X139757576Y-55426525D01*
X139757727Y-55414171D01*
X139746700Y-55337171D01*
X139738676Y-55281139D01*
X139738675Y-55281136D01*
X139737403Y-55272253D01*
X139678064Y-55141743D01*
X139615021Y-55068578D01*
X139590340Y-55039934D01*
X139590337Y-55039931D01*
X139584480Y-55033134D01*
X139464175Y-54955156D01*
X139326819Y-54914078D01*
X139317843Y-54914023D01*
X139317842Y-54914023D01*
X139257635Y-54913655D01*
X139183456Y-54913202D01*
X139045609Y-54952599D01*
X138924360Y-55029101D01*
X138918418Y-55035829D01*
X138918417Y-55035830D01*
X138909855Y-55045525D01*
X138829457Y-55136559D01*
X138768527Y-55266334D01*
X138746471Y-55407994D01*
X128893203Y-55407994D01*
X128938790Y-55313902D01*
X128962576Y-55172523D01*
X128962727Y-55160169D01*
X128950401Y-55074099D01*
X128943676Y-55027137D01*
X128943675Y-55027134D01*
X128942403Y-55018251D01*
X128929209Y-54989231D01*
X128914111Y-54956026D01*
X128883064Y-54887741D01*
X128864678Y-54866403D01*
X128795340Y-54785932D01*
X128795337Y-54785929D01*
X128789480Y-54779132D01*
X128780010Y-54772994D01*
X132650471Y-54772994D01*
X132651635Y-54781896D01*
X132651635Y-54781899D01*
X132657835Y-54829311D01*
X132669060Y-54915150D01*
X132672677Y-54923370D01*
X132723129Y-55038030D01*
X132726800Y-55046374D01*
X132732577Y-55053247D01*
X132732578Y-55053248D01*
X132809801Y-55145116D01*
X132819050Y-55156119D01*
X132938393Y-55235561D01*
X133075237Y-55278313D01*
X133084209Y-55278477D01*
X133084212Y-55278478D01*
X133149543Y-55279675D01*
X133218579Y-55280941D01*
X133227613Y-55278478D01*
X133348238Y-55245592D01*
X133348240Y-55245591D01*
X133356897Y-55243231D01*
X133479071Y-55168216D01*
X133518001Y-55125207D01*
X133569258Y-55068578D01*
X133575280Y-55061925D01*
X133625500Y-54958270D01*
X133633875Y-54940985D01*
X133633875Y-54940984D01*
X133637790Y-54932904D01*
X133661576Y-54791525D01*
X133661727Y-54779171D01*
X133648724Y-54688374D01*
X133642676Y-54646139D01*
X133642675Y-54646136D01*
X133641403Y-54637253D01*
X133641366Y-54637171D01*
X140069088Y-54637171D01*
X140070639Y-54646964D01*
X140079996Y-54706040D01*
X140088934Y-54762475D01*
X140146530Y-54875513D01*
X140236238Y-54965221D01*
X140349276Y-55022817D01*
X140359065Y-55024367D01*
X140359067Y-55024368D01*
X140464787Y-55041112D01*
X140474580Y-55042663D01*
X140484373Y-55041112D01*
X140590093Y-55024368D01*
X140590095Y-55024367D01*
X140599884Y-55022817D01*
X140639805Y-55002476D01*
X140709581Y-54989372D01*
X140775366Y-55016072D01*
X140816273Y-55074099D01*
X140819314Y-55145031D01*
X140809275Y-55171945D01*
X140788934Y-55211867D01*
X140787384Y-55221656D01*
X140787383Y-55221658D01*
X140771399Y-55322578D01*
X140769088Y-55337171D01*
X140770639Y-55346964D01*
X140784000Y-55431320D01*
X140788934Y-55462475D01*
X140846530Y-55575513D01*
X140936238Y-55665221D01*
X141049276Y-55722817D01*
X141059065Y-55724367D01*
X141059067Y-55724368D01*
X141164787Y-55741112D01*
X141174580Y-55742663D01*
X141184373Y-55741112D01*
X141290093Y-55724368D01*
X141290095Y-55724367D01*
X141299884Y-55722817D01*
X141412922Y-55665221D01*
X141502630Y-55575513D01*
X141560226Y-55462475D01*
X141565161Y-55431320D01*
X141578521Y-55346964D01*
X141580072Y-55337171D01*
X141577761Y-55322578D01*
X141561777Y-55221658D01*
X141561776Y-55221656D01*
X141560226Y-55211867D01*
X141539885Y-55171946D01*
X141526781Y-55102170D01*
X141553481Y-55036385D01*
X141611508Y-54995478D01*
X141682440Y-54992437D01*
X141709354Y-55002476D01*
X141749276Y-55022817D01*
X141759065Y-55024367D01*
X141759067Y-55024368D01*
X141864787Y-55041112D01*
X141874580Y-55042663D01*
X141884373Y-55041112D01*
X141990093Y-55024368D01*
X141990095Y-55024367D01*
X141999884Y-55022817D01*
X142039805Y-55002476D01*
X142109581Y-54989372D01*
X142175366Y-55016072D01*
X142216273Y-55074099D01*
X142219314Y-55145031D01*
X142209275Y-55171945D01*
X142188934Y-55211867D01*
X142187384Y-55221656D01*
X142187383Y-55221658D01*
X142171399Y-55322578D01*
X142169088Y-55337171D01*
X142170639Y-55346964D01*
X142184000Y-55431320D01*
X142188934Y-55462475D01*
X142246530Y-55575513D01*
X142336238Y-55665221D01*
X142449276Y-55722817D01*
X142459065Y-55724367D01*
X142459067Y-55724368D01*
X142564787Y-55741112D01*
X142574580Y-55742663D01*
X142584373Y-55741112D01*
X142690093Y-55724368D01*
X142690095Y-55724367D01*
X142699884Y-55722817D01*
X142812922Y-55665221D01*
X142902630Y-55575513D01*
X142960226Y-55462475D01*
X142965161Y-55431320D01*
X142978521Y-55346964D01*
X142980072Y-55337171D01*
X142977761Y-55322578D01*
X142970225Y-55274994D01*
X146423471Y-55274994D01*
X146424635Y-55283896D01*
X146424635Y-55283899D01*
X146432766Y-55346072D01*
X146442060Y-55417150D01*
X146465890Y-55471308D01*
X146492806Y-55532478D01*
X146499800Y-55548374D01*
X146505577Y-55555247D01*
X146505578Y-55555248D01*
X146565547Y-55626590D01*
X146592050Y-55658119D01*
X146599527Y-55663096D01*
X146695154Y-55726751D01*
X146711393Y-55737561D01*
X146848237Y-55780313D01*
X146857209Y-55780477D01*
X146857212Y-55780478D01*
X146922543Y-55781675D01*
X146991579Y-55782941D01*
X147000613Y-55780478D01*
X147121238Y-55747592D01*
X147121240Y-55747591D01*
X147129897Y-55745231D01*
X147252071Y-55670216D01*
X147258376Y-55663251D01*
X147342258Y-55570578D01*
X147348280Y-55563925D01*
X147386720Y-55484584D01*
X147406875Y-55442985D01*
X147406875Y-55442984D01*
X147410790Y-55434904D01*
X147434576Y-55293525D01*
X147434727Y-55281171D01*
X147423537Y-55203034D01*
X147415676Y-55148139D01*
X147415675Y-55148136D01*
X147414403Y-55139253D01*
X147363362Y-55026994D01*
X150176471Y-55026994D01*
X150177635Y-55035896D01*
X150177635Y-55035899D01*
X150185766Y-55098072D01*
X150195060Y-55169150D01*
X150198677Y-55177370D01*
X150243166Y-55278478D01*
X150252800Y-55300374D01*
X150258577Y-55307247D01*
X150258578Y-55307248D01*
X150264171Y-55313902D01*
X150345050Y-55410119D01*
X150464393Y-55489561D01*
X150601237Y-55532313D01*
X150610209Y-55532477D01*
X150610212Y-55532478D01*
X150675543Y-55533675D01*
X150744579Y-55534941D01*
X150753613Y-55532478D01*
X150874238Y-55499592D01*
X150874240Y-55499591D01*
X150882897Y-55497231D01*
X151005071Y-55422216D01*
X151101280Y-55315925D01*
X151163790Y-55186904D01*
X151187576Y-55045525D01*
X151187727Y-55033171D01*
X151177254Y-54960042D01*
X151168676Y-54900139D01*
X151168675Y-54900134D01*
X151167403Y-54891253D01*
X151160247Y-54875513D01*
X151137001Y-54824388D01*
X151108064Y-54760743D01*
X151060929Y-54706040D01*
X151020340Y-54658934D01*
X151020337Y-54658931D01*
X151014480Y-54652134D01*
X150894175Y-54574156D01*
X150756819Y-54533078D01*
X150747843Y-54533023D01*
X150747842Y-54533023D01*
X150687635Y-54532655D01*
X150613456Y-54532202D01*
X150475609Y-54571599D01*
X150354360Y-54648101D01*
X150348418Y-54654829D01*
X150348417Y-54654830D01*
X150342379Y-54661667D01*
X150259457Y-54755559D01*
X150198527Y-54885334D01*
X150192672Y-54922941D01*
X150178040Y-55016917D01*
X150176471Y-55026994D01*
X147363362Y-55026994D01*
X147355064Y-55008743D01*
X147331642Y-54981561D01*
X147267340Y-54906934D01*
X147267337Y-54906931D01*
X147261480Y-54900134D01*
X147141175Y-54822156D01*
X147003819Y-54781078D01*
X146994843Y-54781023D01*
X146994842Y-54781023D01*
X146934635Y-54780655D01*
X146860456Y-54780202D01*
X146722609Y-54819599D01*
X146601360Y-54896101D01*
X146595418Y-54902829D01*
X146595417Y-54902830D01*
X146577656Y-54922941D01*
X146506457Y-55003559D01*
X146445527Y-55133334D01*
X146439365Y-55172912D01*
X146425170Y-55264084D01*
X146423471Y-55274994D01*
X142970225Y-55274994D01*
X142961777Y-55221658D01*
X142961776Y-55221656D01*
X142960226Y-55211867D01*
X142939885Y-55171946D01*
X142926781Y-55102170D01*
X142953481Y-55036385D01*
X143011508Y-54995478D01*
X143082440Y-54992437D01*
X143109354Y-55002476D01*
X143149276Y-55022817D01*
X143159065Y-55024367D01*
X143159067Y-55024368D01*
X143264787Y-55041112D01*
X143274580Y-55042663D01*
X143284373Y-55041112D01*
X143390093Y-55024368D01*
X143390095Y-55024367D01*
X143399884Y-55022817D01*
X143512922Y-54965221D01*
X143602630Y-54875513D01*
X143660226Y-54762475D01*
X143669165Y-54706040D01*
X143678521Y-54646964D01*
X143680072Y-54637171D01*
X143677860Y-54623207D01*
X143661777Y-54521658D01*
X143661776Y-54521656D01*
X143660226Y-54511867D01*
X143602630Y-54398829D01*
X143512922Y-54309121D01*
X143399884Y-54251525D01*
X143390095Y-54249975D01*
X143390093Y-54249974D01*
X143284373Y-54233230D01*
X143274580Y-54231679D01*
X143264787Y-54233230D01*
X143159067Y-54249974D01*
X143159065Y-54249975D01*
X143149276Y-54251525D01*
X143109355Y-54271866D01*
X143039579Y-54284970D01*
X142973794Y-54258270D01*
X142932887Y-54200243D01*
X142929846Y-54129311D01*
X142939885Y-54102396D01*
X142946122Y-54090155D01*
X142960226Y-54062475D01*
X142961888Y-54051985D01*
X142978521Y-53946964D01*
X142980072Y-53937171D01*
X142973398Y-53895030D01*
X142961777Y-53821658D01*
X142961776Y-53821656D01*
X142960226Y-53811867D01*
X142939885Y-53771946D01*
X142926781Y-53702170D01*
X142953481Y-53636385D01*
X143011508Y-53595478D01*
X143082440Y-53592437D01*
X143109354Y-53602476D01*
X143149276Y-53622817D01*
X143159065Y-53624367D01*
X143159067Y-53624368D01*
X143264787Y-53641112D01*
X143274580Y-53642663D01*
X143284373Y-53641112D01*
X143390093Y-53624368D01*
X143390095Y-53624367D01*
X143399884Y-53622817D01*
X143512922Y-53565221D01*
X143602630Y-53475513D01*
X143660226Y-53362475D01*
X143668176Y-53312284D01*
X143678521Y-53246964D01*
X143680072Y-53237171D01*
X143661822Y-53121941D01*
X143661777Y-53121658D01*
X143661776Y-53121656D01*
X143660226Y-53111867D01*
X143602630Y-52998829D01*
X143512922Y-52909121D01*
X143399884Y-52851525D01*
X143390095Y-52849975D01*
X143390093Y-52849974D01*
X143284373Y-52833230D01*
X143274580Y-52831679D01*
X143264787Y-52833230D01*
X143159067Y-52849974D01*
X143159065Y-52849975D01*
X143149276Y-52851525D01*
X143109355Y-52871866D01*
X143039579Y-52884970D01*
X142973794Y-52858270D01*
X142932887Y-52800243D01*
X142929846Y-52729311D01*
X142939885Y-52702396D01*
X142955725Y-52671308D01*
X142960226Y-52662475D01*
X142965740Y-52627664D01*
X142967905Y-52613994D01*
X149922471Y-52613994D01*
X149923635Y-52622896D01*
X149923635Y-52622899D01*
X149929966Y-52671308D01*
X149941060Y-52756150D01*
X149944677Y-52764370D01*
X149995056Y-52878864D01*
X149998800Y-52887374D01*
X150004577Y-52894247D01*
X150004578Y-52894248D01*
X150039998Y-52936385D01*
X150091050Y-52997119D01*
X150210393Y-53076561D01*
X150347237Y-53119313D01*
X150356209Y-53119477D01*
X150356212Y-53119478D01*
X150421543Y-53120675D01*
X150490579Y-53121941D01*
X150499613Y-53119478D01*
X150620238Y-53086592D01*
X150620240Y-53086591D01*
X150628897Y-53084231D01*
X150751071Y-53009216D01*
X150847280Y-52902925D01*
X150897029Y-52800243D01*
X150905875Y-52781985D01*
X150905875Y-52781984D01*
X150909790Y-52773904D01*
X150933576Y-52632525D01*
X150933727Y-52620171D01*
X150920438Y-52527378D01*
X150914676Y-52487139D01*
X150914675Y-52487136D01*
X150913403Y-52478253D01*
X150854064Y-52347743D01*
X150805876Y-52291818D01*
X150766340Y-52245934D01*
X150766337Y-52245931D01*
X150760480Y-52239134D01*
X150640175Y-52161156D01*
X150502819Y-52120078D01*
X150493843Y-52120023D01*
X150493842Y-52120023D01*
X150433635Y-52119655D01*
X150359456Y-52119202D01*
X150221609Y-52158599D01*
X150100360Y-52235101D01*
X150005457Y-52342559D01*
X149944527Y-52472334D01*
X149922471Y-52613994D01*
X142967905Y-52613994D01*
X142978521Y-52546964D01*
X142980072Y-52537171D01*
X142973103Y-52493171D01*
X142961777Y-52421658D01*
X142961776Y-52421656D01*
X142960226Y-52411867D01*
X142902630Y-52298829D01*
X142812922Y-52209121D01*
X142699884Y-52151525D01*
X142690095Y-52149975D01*
X142690093Y-52149974D01*
X142584373Y-52133230D01*
X142574580Y-52131679D01*
X142564787Y-52133230D01*
X142459067Y-52149974D01*
X142459065Y-52149975D01*
X142449276Y-52151525D01*
X142336238Y-52209121D01*
X142246530Y-52298829D01*
X142188934Y-52411867D01*
X142187384Y-52421656D01*
X142187383Y-52421658D01*
X142176057Y-52493171D01*
X142169088Y-52537171D01*
X142170639Y-52546964D01*
X142183421Y-52627664D01*
X142188934Y-52662475D01*
X142193435Y-52671308D01*
X142209275Y-52702396D01*
X142222379Y-52772172D01*
X142195679Y-52837957D01*
X142137652Y-52878864D01*
X142066720Y-52881905D01*
X142039805Y-52871866D01*
X141999884Y-52851525D01*
X141990095Y-52849975D01*
X141990093Y-52849974D01*
X141884373Y-52833230D01*
X141874580Y-52831679D01*
X141864787Y-52833230D01*
X141759067Y-52849974D01*
X141759065Y-52849975D01*
X141749276Y-52851525D01*
X141709355Y-52871866D01*
X141639579Y-52884970D01*
X141573794Y-52858270D01*
X141532887Y-52800243D01*
X141529846Y-52729311D01*
X141539885Y-52702396D01*
X141555725Y-52671308D01*
X141560226Y-52662475D01*
X141565740Y-52627664D01*
X141578521Y-52546964D01*
X141580072Y-52537171D01*
X141573103Y-52493171D01*
X141561777Y-52421658D01*
X141561776Y-52421656D01*
X141560226Y-52411867D01*
X141502630Y-52298829D01*
X141412922Y-52209121D01*
X141299884Y-52151525D01*
X141290095Y-52149975D01*
X141290093Y-52149974D01*
X141184373Y-52133230D01*
X141174580Y-52131679D01*
X141164787Y-52133230D01*
X141059067Y-52149974D01*
X141059065Y-52149975D01*
X141049276Y-52151525D01*
X140936238Y-52209121D01*
X140846530Y-52298829D01*
X140788934Y-52411867D01*
X140787384Y-52421656D01*
X140787383Y-52421658D01*
X140776057Y-52493171D01*
X140769088Y-52537171D01*
X140770639Y-52546964D01*
X140783421Y-52627664D01*
X140788934Y-52662475D01*
X140793435Y-52671308D01*
X140809275Y-52702396D01*
X140822379Y-52772172D01*
X140795679Y-52837957D01*
X140737652Y-52878864D01*
X140666720Y-52881905D01*
X140639805Y-52871866D01*
X140599884Y-52851525D01*
X140590095Y-52849975D01*
X140590093Y-52849974D01*
X140484373Y-52833230D01*
X140474580Y-52831679D01*
X140464787Y-52833230D01*
X140359067Y-52849974D01*
X140359065Y-52849975D01*
X140349276Y-52851525D01*
X140236238Y-52909121D01*
X140146530Y-52998829D01*
X140088934Y-53111867D01*
X140087384Y-53121656D01*
X140087383Y-53121658D01*
X140087338Y-53121941D01*
X140069088Y-53237171D01*
X140070639Y-53246964D01*
X140080985Y-53312284D01*
X140088934Y-53362475D01*
X140146530Y-53475513D01*
X140236238Y-53565221D01*
X140349276Y-53622817D01*
X140359065Y-53624367D01*
X140359067Y-53624368D01*
X140464787Y-53641112D01*
X140474580Y-53642663D01*
X140484373Y-53641112D01*
X140590093Y-53624368D01*
X140590095Y-53624367D01*
X140599884Y-53622817D01*
X140639805Y-53602476D01*
X140709581Y-53589372D01*
X140775366Y-53616072D01*
X140816273Y-53674099D01*
X140819314Y-53745031D01*
X140809275Y-53771945D01*
X140788934Y-53811867D01*
X140787384Y-53821656D01*
X140787383Y-53821658D01*
X140775762Y-53895030D01*
X140769088Y-53937171D01*
X140770639Y-53946964D01*
X140787273Y-54051985D01*
X140788934Y-54062475D01*
X140803038Y-54090155D01*
X140809275Y-54102396D01*
X140822379Y-54172172D01*
X140795679Y-54237957D01*
X140737652Y-54278864D01*
X140666720Y-54281905D01*
X140639805Y-54271866D01*
X140599884Y-54251525D01*
X140590095Y-54249975D01*
X140590093Y-54249974D01*
X140484373Y-54233230D01*
X140474580Y-54231679D01*
X140464787Y-54233230D01*
X140359067Y-54249974D01*
X140359065Y-54249975D01*
X140349276Y-54251525D01*
X140236238Y-54309121D01*
X140146530Y-54398829D01*
X140088934Y-54511867D01*
X140087384Y-54521656D01*
X140087383Y-54521658D01*
X140071300Y-54623207D01*
X140069088Y-54637171D01*
X133641366Y-54637171D01*
X133582064Y-54506743D01*
X133488480Y-54398134D01*
X133490971Y-54395988D01*
X133461427Y-54349685D01*
X133461658Y-54278689D01*
X133500237Y-54219089D01*
X133516510Y-54207207D01*
X133598420Y-54156915D01*
X133598426Y-54156910D01*
X133606071Y-54152216D01*
X133613387Y-54144134D01*
X133687300Y-54062475D01*
X133702280Y-54045925D01*
X133742866Y-53962156D01*
X133760875Y-53924985D01*
X133760875Y-53924984D01*
X133764790Y-53916904D01*
X133788576Y-53775525D01*
X133788727Y-53763171D01*
X133775971Y-53674099D01*
X133769676Y-53630139D01*
X133769675Y-53630136D01*
X133768403Y-53621253D01*
X133709064Y-53490743D01*
X133688330Y-53466680D01*
X133621340Y-53388934D01*
X133621337Y-53388931D01*
X133615480Y-53382134D01*
X133495175Y-53304156D01*
X133357819Y-53263078D01*
X133348843Y-53263023D01*
X133348842Y-53263023D01*
X133288635Y-53262655D01*
X133214456Y-53262202D01*
X133076609Y-53301599D01*
X132955360Y-53378101D01*
X132949418Y-53384829D01*
X132949417Y-53384830D01*
X132923776Y-53413863D01*
X132860457Y-53485559D01*
X132799527Y-53615334D01*
X132795272Y-53642663D01*
X132779334Y-53745031D01*
X132777471Y-53756994D01*
X132778635Y-53765896D01*
X132778635Y-53765899D01*
X132780962Y-53783693D01*
X132796060Y-53899150D01*
X132799677Y-53907370D01*
X132848603Y-54018562D01*
X132853800Y-54030374D01*
X132859577Y-54037247D01*
X132859578Y-54037248D01*
X132894195Y-54078430D01*
X132942010Y-54135313D01*
X132946050Y-54140119D01*
X132945119Y-54140902D01*
X132977932Y-54193746D01*
X132976829Y-54264734D01*
X132937523Y-54323857D01*
X132923736Y-54333924D01*
X132828360Y-54394101D01*
X132822418Y-54400829D01*
X132822417Y-54400830D01*
X132809908Y-54414994D01*
X132733457Y-54501559D01*
X132672527Y-54631334D01*
X132666605Y-54669370D01*
X132652100Y-54762533D01*
X132650471Y-54772994D01*
X128780010Y-54772994D01*
X128669175Y-54701154D01*
X128531819Y-54660076D01*
X128522843Y-54660021D01*
X128522842Y-54660021D01*
X128462635Y-54659653D01*
X128388456Y-54659200D01*
X128295409Y-54685793D01*
X128224415Y-54685281D01*
X128164968Y-54646467D01*
X128135941Y-54581675D01*
X128136477Y-54547186D01*
X128136334Y-54547173D01*
X128136507Y-54545248D01*
X128136530Y-54543748D01*
X128136768Y-54542331D01*
X128136769Y-54542324D01*
X128137576Y-54537525D01*
X128137727Y-54525171D01*
X128134498Y-54502624D01*
X128144640Y-54432356D01*
X128191163Y-54378726D01*
X128259295Y-54358762D01*
X128296797Y-54364495D01*
X128376237Y-54389313D01*
X128385209Y-54389477D01*
X128385212Y-54389478D01*
X128450543Y-54390675D01*
X128519579Y-54391941D01*
X128528613Y-54389478D01*
X128649238Y-54356592D01*
X128649240Y-54356591D01*
X128657897Y-54354231D01*
X128780071Y-54279216D01*
X128805136Y-54251525D01*
X128870258Y-54179578D01*
X128876280Y-54172925D01*
X128929248Y-54063599D01*
X128934875Y-54051985D01*
X128934875Y-54051984D01*
X128938790Y-54043904D01*
X128962576Y-53902525D01*
X128962727Y-53890171D01*
X128948368Y-53789904D01*
X128943676Y-53757139D01*
X128943675Y-53757136D01*
X128942403Y-53748253D01*
X128888634Y-53629994D01*
X129348471Y-53629994D01*
X129349635Y-53638896D01*
X129349635Y-53638899D01*
X129350894Y-53648525D01*
X129367060Y-53772150D01*
X129370677Y-53780370D01*
X129421129Y-53895030D01*
X129424800Y-53903374D01*
X129430577Y-53910247D01*
X129430578Y-53910248D01*
X129511270Y-54006243D01*
X129517050Y-54013119D01*
X129636393Y-54092561D01*
X129773237Y-54135313D01*
X129782209Y-54135477D01*
X129782212Y-54135478D01*
X129847543Y-54136675D01*
X129916579Y-54137941D01*
X129925613Y-54135478D01*
X130046238Y-54102592D01*
X130046240Y-54102591D01*
X130054897Y-54100231D01*
X130177071Y-54025216D01*
X130273280Y-53918925D01*
X130335790Y-53789904D01*
X130359576Y-53648525D01*
X130359727Y-53636171D01*
X130348287Y-53556286D01*
X130340676Y-53503139D01*
X130340675Y-53503136D01*
X130339403Y-53494253D01*
X130330883Y-53475513D01*
X130311985Y-53433950D01*
X130280064Y-53363743D01*
X130245791Y-53323967D01*
X130192340Y-53261934D01*
X130192337Y-53261931D01*
X130186480Y-53255134D01*
X130066175Y-53177156D01*
X129928819Y-53136078D01*
X129919843Y-53136023D01*
X129919842Y-53136023D01*
X129859635Y-53135655D01*
X129785456Y-53135202D01*
X129647609Y-53174599D01*
X129526360Y-53251101D01*
X129431457Y-53358559D01*
X129370527Y-53488334D01*
X129367289Y-53509134D01*
X129350639Y-53616072D01*
X129348471Y-53629994D01*
X128888634Y-53629994D01*
X128883064Y-53617743D01*
X128843534Y-53571866D01*
X128795340Y-53515934D01*
X128795337Y-53515931D01*
X128789480Y-53509134D01*
X128669175Y-53431156D01*
X128531819Y-53390078D01*
X128522843Y-53390023D01*
X128522842Y-53390023D01*
X128462635Y-53389655D01*
X128388456Y-53389202D01*
X128250609Y-53428599D01*
X128129360Y-53505101D01*
X128034457Y-53612559D01*
X127973527Y-53742334D01*
X127969116Y-53770664D01*
X127961177Y-53821658D01*
X127951471Y-53883994D01*
X127954983Y-53910848D01*
X127955423Y-53914214D01*
X127944421Y-53984353D01*
X127897246Y-54037409D01*
X127828875Y-54056539D01*
X127794389Y-54051267D01*
X127706819Y-54025078D01*
X127697843Y-54025023D01*
X127697842Y-54025023D01*
X127637635Y-54024655D01*
X127563456Y-54024202D01*
X127425609Y-54063599D01*
X127304360Y-54140101D01*
X127209457Y-54247559D01*
X127148527Y-54377334D01*
X127141915Y-54419802D01*
X127128956Y-54503034D01*
X127126471Y-54518994D01*
X124977045Y-54518994D01*
X125025103Y-54419802D01*
X125048387Y-54281407D01*
X125079414Y-54217549D01*
X125140040Y-54180603D01*
X125210214Y-54182045D01*
X125259191Y-54197346D01*
X125268163Y-54197510D01*
X125268166Y-54197511D01*
X125333497Y-54198708D01*
X125402533Y-54199974D01*
X125411567Y-54197511D01*
X125532192Y-54164625D01*
X125532194Y-54164624D01*
X125540851Y-54162264D01*
X125663025Y-54087249D01*
X125671008Y-54078430D01*
X125753212Y-53987611D01*
X125759234Y-53980958D01*
X125803220Y-53890171D01*
X125817829Y-53860018D01*
X125817829Y-53860017D01*
X125821744Y-53851937D01*
X125845530Y-53710558D01*
X125845681Y-53698204D01*
X125836108Y-53631355D01*
X125826630Y-53565172D01*
X125826629Y-53565169D01*
X125825357Y-53556286D01*
X125766018Y-53425776D01*
X125736629Y-53391669D01*
X125678294Y-53323967D01*
X125678291Y-53323964D01*
X125672434Y-53317167D01*
X125552129Y-53239189D01*
X125414773Y-53198111D01*
X125405797Y-53198056D01*
X125405796Y-53198056D01*
X125345589Y-53197688D01*
X125271410Y-53197235D01*
X125133563Y-53236632D01*
X125012314Y-53313134D01*
X124917411Y-53420592D01*
X124856481Y-53550367D01*
X124848368Y-53602476D01*
X124836021Y-53681775D01*
X124805777Y-53746008D01*
X124745607Y-53783693D01*
X124675420Y-53783108D01*
X124626737Y-53768549D01*
X124626734Y-53768549D01*
X124618132Y-53765976D01*
X124609156Y-53765921D01*
X124609155Y-53765921D01*
X124548948Y-53765553D01*
X124474769Y-53765100D01*
X124336922Y-53804497D01*
X124215673Y-53880999D01*
X124209731Y-53887727D01*
X124209730Y-53887728D01*
X124152950Y-53952019D01*
X124092864Y-53989837D01*
X124021871Y-53989167D01*
X123989980Y-53974345D01*
X123971175Y-53962156D01*
X123833819Y-53921078D01*
X123824843Y-53921023D01*
X123824842Y-53921023D01*
X123764635Y-53920655D01*
X123690456Y-53920202D01*
X123552609Y-53959599D01*
X123431360Y-54036101D01*
X123422684Y-54045925D01*
X123417022Y-54052336D01*
X123356937Y-54090155D01*
X123285943Y-54089485D01*
X123226582Y-54050540D01*
X123197699Y-53985684D01*
X123196580Y-53968929D01*
X123196580Y-52486994D01*
X137222471Y-52486994D01*
X137223635Y-52495896D01*
X137223635Y-52495899D01*
X137224894Y-52505525D01*
X137241060Y-52629150D01*
X137298800Y-52760374D01*
X137304577Y-52767247D01*
X137304578Y-52767248D01*
X137381090Y-52858270D01*
X137391050Y-52870119D01*
X137510393Y-52949561D01*
X137647237Y-52992313D01*
X137656209Y-52992477D01*
X137656212Y-52992478D01*
X137721543Y-52993675D01*
X137790579Y-52994941D01*
X137799613Y-52992478D01*
X137920238Y-52959592D01*
X137920240Y-52959591D01*
X137928897Y-52957231D01*
X138051071Y-52882216D01*
X138147280Y-52775925D01*
X138182904Y-52702396D01*
X138205875Y-52654985D01*
X138205875Y-52654984D01*
X138209790Y-52646904D01*
X138233576Y-52505525D01*
X138233727Y-52493171D01*
X138223486Y-52421658D01*
X138214676Y-52360139D01*
X138214675Y-52360136D01*
X138213403Y-52351253D01*
X138154064Y-52220743D01*
X138135678Y-52199405D01*
X138066340Y-52118934D01*
X138066337Y-52118931D01*
X138060480Y-52112134D01*
X137940175Y-52034156D01*
X137802819Y-51993078D01*
X137793843Y-51993023D01*
X137793842Y-51993023D01*
X137733635Y-51992655D01*
X137659456Y-51992202D01*
X137521609Y-52031599D01*
X137400360Y-52108101D01*
X137394418Y-52114829D01*
X137394417Y-52114830D01*
X137358034Y-52156026D01*
X137305457Y-52215559D01*
X137244527Y-52345334D01*
X137242222Y-52360139D01*
X137224754Y-52472334D01*
X137222471Y-52486994D01*
X123196580Y-52486994D01*
X123196580Y-51343994D01*
X126300471Y-51343994D01*
X126301635Y-51352896D01*
X126301635Y-51352899D01*
X126302835Y-51362073D01*
X126319060Y-51486150D01*
X126376800Y-51617374D01*
X126382577Y-51624247D01*
X126382578Y-51624248D01*
X126462890Y-51719791D01*
X126469050Y-51727119D01*
X126476527Y-51732096D01*
X126558629Y-51786748D01*
X126588393Y-51806561D01*
X126725237Y-51849313D01*
X126734209Y-51849477D01*
X126734212Y-51849478D01*
X126799543Y-51850675D01*
X126868579Y-51851941D01*
X126877613Y-51849478D01*
X126998238Y-51816592D01*
X126998240Y-51816591D01*
X127006897Y-51814231D01*
X127129071Y-51739216D01*
X127146654Y-51719791D01*
X127219258Y-51639578D01*
X127225280Y-51632925D01*
X127282221Y-51515399D01*
X127283875Y-51511985D01*
X127283875Y-51511984D01*
X127286535Y-51506494D01*
X129616576Y-51506494D01*
X129617740Y-51515396D01*
X129617740Y-51515399D01*
X129618999Y-51525025D01*
X129635165Y-51648650D01*
X129692905Y-51779874D01*
X129698682Y-51786747D01*
X129698683Y-51786748D01*
X129748643Y-51846183D01*
X129785155Y-51889619D01*
X129904498Y-51969061D01*
X130041342Y-52011813D01*
X130050314Y-52011977D01*
X130050317Y-52011978D01*
X130115648Y-52013175D01*
X130184684Y-52014441D01*
X130193718Y-52011978D01*
X130314343Y-51979092D01*
X130314345Y-51979091D01*
X130323002Y-51976731D01*
X130445176Y-51901716D01*
X130541385Y-51795425D01*
X130603895Y-51666404D01*
X130627681Y-51525025D01*
X130627832Y-51512671D01*
X130607508Y-51370753D01*
X130603562Y-51362073D01*
X130595136Y-51343542D01*
X132977958Y-51343542D01*
X132979122Y-51352444D01*
X132979122Y-51352447D01*
X132980381Y-51362073D01*
X132996547Y-51485698D01*
X133054287Y-51616922D01*
X133060064Y-51623795D01*
X133060065Y-51623796D01*
X133140757Y-51719791D01*
X133146537Y-51726667D01*
X133265880Y-51806109D01*
X133402724Y-51848861D01*
X133411696Y-51849025D01*
X133411699Y-51849026D01*
X133477030Y-51850223D01*
X133546066Y-51851489D01*
X133555100Y-51849026D01*
X133675725Y-51816140D01*
X133675727Y-51816139D01*
X133684384Y-51813779D01*
X133806558Y-51738764D01*
X133817099Y-51727119D01*
X133896745Y-51639126D01*
X133902767Y-51632473D01*
X133959489Y-51515399D01*
X133961362Y-51511533D01*
X133961362Y-51511532D01*
X133965277Y-51503452D01*
X133989063Y-51362073D01*
X133989214Y-51349719D01*
X133974707Y-51248417D01*
X133970163Y-51216687D01*
X133970162Y-51216684D01*
X133968890Y-51207801D01*
X133909551Y-51077291D01*
X133884858Y-51048633D01*
X133821827Y-50975482D01*
X133821824Y-50975479D01*
X133815967Y-50968682D01*
X133695662Y-50890704D01*
X133558306Y-50849626D01*
X133549330Y-50849571D01*
X133549329Y-50849571D01*
X133488916Y-50849202D01*
X133414943Y-50848750D01*
X133277096Y-50888147D01*
X133155847Y-50964649D01*
X133149905Y-50971377D01*
X133149904Y-50971378D01*
X133114243Y-51011757D01*
X133060944Y-51072107D01*
X133000014Y-51201882D01*
X132977958Y-51343542D01*
X130595136Y-51343542D01*
X130551885Y-51248417D01*
X130548169Y-51240243D01*
X130508112Y-51193755D01*
X130460445Y-51138434D01*
X130460442Y-51138431D01*
X130454585Y-51131634D01*
X130334280Y-51053656D01*
X130196924Y-51012578D01*
X130187948Y-51012523D01*
X130187947Y-51012523D01*
X130127740Y-51012155D01*
X130053561Y-51011702D01*
X129915714Y-51051099D01*
X129794465Y-51127601D01*
X129699562Y-51235059D01*
X129638632Y-51364834D01*
X129637251Y-51373706D01*
X129618428Y-51494600D01*
X129616576Y-51506494D01*
X127286535Y-51506494D01*
X127287790Y-51503904D01*
X127311576Y-51362525D01*
X127311727Y-51350171D01*
X127296406Y-51243185D01*
X127292676Y-51217139D01*
X127292675Y-51217136D01*
X127291403Y-51208253D01*
X127232064Y-51077743D01*
X127175207Y-51011757D01*
X127144340Y-50975934D01*
X127144337Y-50975931D01*
X127138480Y-50969134D01*
X127018175Y-50891156D01*
X126880819Y-50850078D01*
X126871843Y-50850023D01*
X126871842Y-50850023D01*
X126811635Y-50849655D01*
X126737456Y-50849202D01*
X126599609Y-50888599D01*
X126478360Y-50965101D01*
X126383457Y-51072559D01*
X126322527Y-51202334D01*
X126320222Y-51217139D01*
X126301923Y-51334669D01*
X126300471Y-51343994D01*
X123196580Y-51343994D01*
X123196580Y-50073994D01*
X135317471Y-50073994D01*
X135318635Y-50082896D01*
X135318635Y-50082899D01*
X135319894Y-50092525D01*
X135336060Y-50216150D01*
X135393800Y-50347374D01*
X135399577Y-50354247D01*
X135399578Y-50354248D01*
X135406872Y-50362925D01*
X135486050Y-50457119D01*
X135605393Y-50536561D01*
X135742237Y-50579313D01*
X135751209Y-50579477D01*
X135751212Y-50579478D01*
X135816543Y-50580675D01*
X135885579Y-50581941D01*
X135894613Y-50579478D01*
X136015238Y-50546592D01*
X136015240Y-50546591D01*
X136023897Y-50544231D01*
X136146071Y-50469216D01*
X136242280Y-50362925D01*
X136304790Y-50233904D01*
X136328576Y-50092525D01*
X136328727Y-50080171D01*
X136308403Y-49938253D01*
X136249064Y-49807743D01*
X136230678Y-49786405D01*
X136161340Y-49705934D01*
X136161337Y-49705931D01*
X136155480Y-49699134D01*
X136035175Y-49621156D01*
X135897819Y-49580078D01*
X135888843Y-49580023D01*
X135888842Y-49580023D01*
X135828635Y-49579655D01*
X135754456Y-49579202D01*
X135616609Y-49618599D01*
X135495360Y-49695101D01*
X135400457Y-49802559D01*
X135339527Y-49932334D01*
X135317471Y-50073994D01*
X123196580Y-50073994D01*
X123196580Y-49416592D01*
X123216582Y-49348471D01*
X123270238Y-49301978D01*
X123340512Y-49291874D01*
X123405092Y-49321368D01*
X123437908Y-49365844D01*
X123451341Y-49396373D01*
X123457118Y-49403246D01*
X123457119Y-49403247D01*
X123464413Y-49411924D01*
X123543591Y-49506118D01*
X123551068Y-49511095D01*
X123654699Y-49580078D01*
X123662934Y-49585560D01*
X123799778Y-49628312D01*
X123808750Y-49628476D01*
X123808753Y-49628477D01*
X123874084Y-49629674D01*
X123943120Y-49630940D01*
X123952154Y-49628477D01*
X124072779Y-49595591D01*
X124072781Y-49595590D01*
X124081438Y-49593230D01*
X124203612Y-49518215D01*
X124299821Y-49411924D01*
X124362331Y-49282903D01*
X124386117Y-49141524D01*
X124386268Y-49129170D01*
X124365944Y-48987252D01*
X124306605Y-48856742D01*
X124288219Y-48835404D01*
X124218881Y-48754933D01*
X124218878Y-48754930D01*
X124213021Y-48748133D01*
X124092716Y-48670155D01*
X123955360Y-48629077D01*
X123946384Y-48629022D01*
X123946383Y-48629022D01*
X123886176Y-48628654D01*
X123811997Y-48628201D01*
X123674150Y-48667598D01*
X123552901Y-48744100D01*
X123457998Y-48851558D01*
X123440573Y-48888671D01*
X123436635Y-48897059D01*
X123389578Y-48950221D01*
X123321250Y-48969503D01*
X123253344Y-48948783D01*
X123207420Y-48894639D01*
X123196580Y-48843510D01*
X123196580Y-47914994D01*
X125665471Y-47914994D01*
X125666635Y-47923896D01*
X125666635Y-47923899D01*
X125667894Y-47933525D01*
X125684060Y-48057150D01*
X125741800Y-48188374D01*
X125747577Y-48195247D01*
X125747578Y-48195248D01*
X125754872Y-48203925D01*
X125834050Y-48298119D01*
X125953393Y-48377561D01*
X126090237Y-48420313D01*
X126099209Y-48420477D01*
X126099212Y-48420478D01*
X126164543Y-48421675D01*
X126233579Y-48422941D01*
X126242613Y-48420478D01*
X126363238Y-48387592D01*
X126363240Y-48387591D01*
X126371897Y-48385231D01*
X126494071Y-48310216D01*
X126590280Y-48203925D01*
X126652790Y-48074904D01*
X126676576Y-47933525D01*
X126676727Y-47921171D01*
X126656403Y-47779253D01*
X126597064Y-47648743D01*
X126537377Y-47579473D01*
X126509340Y-47546934D01*
X126509337Y-47546931D01*
X126503480Y-47540134D01*
X126383175Y-47462156D01*
X126245819Y-47421078D01*
X126236843Y-47421023D01*
X126236842Y-47421023D01*
X126176635Y-47420655D01*
X126102456Y-47420202D01*
X125964609Y-47459599D01*
X125843360Y-47536101D01*
X125748457Y-47643559D01*
X125687527Y-47773334D01*
X125665471Y-47914994D01*
X123196580Y-47914994D01*
X123196580Y-47579473D01*
X123216582Y-47511352D01*
X123270238Y-47464859D01*
X123340512Y-47454755D01*
X123392397Y-47474585D01*
X123413393Y-47488561D01*
X123550237Y-47531313D01*
X123559209Y-47531477D01*
X123559212Y-47531478D01*
X123624543Y-47532675D01*
X123693579Y-47533941D01*
X123702613Y-47531478D01*
X123823238Y-47498592D01*
X123823240Y-47498591D01*
X123831897Y-47496231D01*
X123954071Y-47421216D01*
X124050280Y-47314925D01*
X124085169Y-47242914D01*
X124108875Y-47193985D01*
X124108875Y-47193984D01*
X124112790Y-47185904D01*
X124136576Y-47044525D01*
X124136727Y-47032171D01*
X124128553Y-46975095D01*
X124117676Y-46899139D01*
X124117675Y-46899136D01*
X124117655Y-46898994D01*
X129348471Y-46898994D01*
X129349635Y-46907896D01*
X129349635Y-46907899D01*
X129350894Y-46917525D01*
X129367060Y-47041150D01*
X129424800Y-47172374D01*
X129430577Y-47179247D01*
X129430578Y-47179248D01*
X129436173Y-47185904D01*
X129517050Y-47282119D01*
X129636393Y-47361561D01*
X129773237Y-47404313D01*
X129782209Y-47404477D01*
X129782212Y-47404478D01*
X129847543Y-47405675D01*
X129916579Y-47406941D01*
X129925613Y-47404478D01*
X130046238Y-47371592D01*
X130046240Y-47371591D01*
X130054897Y-47369231D01*
X130177071Y-47294216D01*
X130273280Y-47187925D01*
X130335790Y-47058904D01*
X130359576Y-46917525D01*
X130359727Y-46905171D01*
X130358842Y-46898994D01*
X131126471Y-46898994D01*
X131127635Y-46907896D01*
X131127635Y-46907899D01*
X131128894Y-46917525D01*
X131145060Y-47041150D01*
X131202800Y-47172374D01*
X131208577Y-47179247D01*
X131208578Y-47179248D01*
X131214173Y-47185904D01*
X131295050Y-47282119D01*
X131414393Y-47361561D01*
X131551237Y-47404313D01*
X131560209Y-47404477D01*
X131560212Y-47404478D01*
X131625543Y-47405675D01*
X131694579Y-47406941D01*
X131703613Y-47404478D01*
X131824238Y-47371592D01*
X131824240Y-47371591D01*
X131832897Y-47369231D01*
X131955071Y-47294216D01*
X132051280Y-47187925D01*
X132113790Y-47058904D01*
X132137576Y-46917525D01*
X132137727Y-46905171D01*
X132117403Y-46763253D01*
X132058064Y-46632743D01*
X132031781Y-46602240D01*
X131970340Y-46530934D01*
X131970337Y-46530931D01*
X131964480Y-46524134D01*
X131844175Y-46446156D01*
X131706819Y-46405078D01*
X131697843Y-46405023D01*
X131697842Y-46405023D01*
X131637635Y-46404655D01*
X131563456Y-46404202D01*
X131425609Y-46443599D01*
X131304360Y-46520101D01*
X131209457Y-46627559D01*
X131148527Y-46757334D01*
X131139290Y-46816661D01*
X131129104Y-46882084D01*
X131126471Y-46898994D01*
X130358842Y-46898994D01*
X130339403Y-46763253D01*
X130280064Y-46632743D01*
X130253781Y-46602240D01*
X130192340Y-46530934D01*
X130192337Y-46530931D01*
X130186480Y-46524134D01*
X130066175Y-46446156D01*
X129928819Y-46405078D01*
X129919843Y-46405023D01*
X129919842Y-46405023D01*
X129859635Y-46404655D01*
X129785456Y-46404202D01*
X129647609Y-46443599D01*
X129526360Y-46520101D01*
X129431457Y-46627559D01*
X129370527Y-46757334D01*
X129361290Y-46816661D01*
X129351104Y-46882084D01*
X129348471Y-46898994D01*
X124117655Y-46898994D01*
X124116403Y-46890253D01*
X124057064Y-46759743D01*
X124030781Y-46729240D01*
X123969340Y-46657934D01*
X123969337Y-46657931D01*
X123963480Y-46651134D01*
X123843175Y-46573156D01*
X123705819Y-46532078D01*
X123696843Y-46532023D01*
X123696842Y-46532023D01*
X123636635Y-46531655D01*
X123562456Y-46531202D01*
X123424609Y-46570599D01*
X123409810Y-46579936D01*
X123389815Y-46592552D01*
X123321529Y-46611986D01*
X123253578Y-46591416D01*
X123207534Y-46537375D01*
X123196580Y-46485990D01*
X123196580Y-46263994D01*
X135317471Y-46263994D01*
X135318635Y-46272896D01*
X135318635Y-46272899D01*
X135320617Y-46288052D01*
X135336060Y-46406150D01*
X135339677Y-46414370D01*
X135389161Y-46526830D01*
X135393800Y-46537374D01*
X135399577Y-46544247D01*
X135399578Y-46544248D01*
X135421715Y-46570583D01*
X135486050Y-46647119D01*
X135605393Y-46726561D01*
X135742237Y-46769313D01*
X135751209Y-46769477D01*
X135751212Y-46769478D01*
X135816543Y-46770675D01*
X135885579Y-46771941D01*
X135894613Y-46769478D01*
X136015238Y-46736592D01*
X136015240Y-46736591D01*
X136023897Y-46734231D01*
X136146071Y-46659216D01*
X136153387Y-46651134D01*
X136226297Y-46570583D01*
X136242280Y-46552925D01*
X136296443Y-46441133D01*
X136300875Y-46431985D01*
X136300875Y-46431984D01*
X136304790Y-46423904D01*
X136328576Y-46282525D01*
X136328727Y-46270171D01*
X136320553Y-46213095D01*
X136309676Y-46137139D01*
X136309675Y-46137136D01*
X136309655Y-46136994D01*
X150303471Y-46136994D01*
X150304635Y-46145896D01*
X150304635Y-46145899D01*
X150305894Y-46155525D01*
X150322060Y-46279150D01*
X150379800Y-46410374D01*
X150385577Y-46417247D01*
X150385578Y-46417248D01*
X150407715Y-46443583D01*
X150472050Y-46520119D01*
X150479527Y-46525096D01*
X150580864Y-46592552D01*
X150591393Y-46599561D01*
X150728237Y-46642313D01*
X150737209Y-46642477D01*
X150737212Y-46642478D01*
X150802543Y-46643675D01*
X150871579Y-46644941D01*
X150880613Y-46642478D01*
X151001238Y-46609592D01*
X151001240Y-46609591D01*
X151009897Y-46607231D01*
X151132071Y-46532216D01*
X151139387Y-46524134D01*
X151212297Y-46443583D01*
X151228280Y-46425925D01*
X151290790Y-46296904D01*
X151314576Y-46155525D01*
X151314727Y-46143171D01*
X151304834Y-46074091D01*
X151295676Y-46010139D01*
X151295675Y-46010136D01*
X151294403Y-46001253D01*
X151283993Y-45978356D01*
X151257743Y-45920623D01*
X151235064Y-45870743D01*
X151216678Y-45849405D01*
X151147340Y-45768934D01*
X151147337Y-45768931D01*
X151141480Y-45762134D01*
X151021175Y-45684156D01*
X150883819Y-45643078D01*
X150874843Y-45643023D01*
X150874842Y-45643023D01*
X150814635Y-45642655D01*
X150740456Y-45642202D01*
X150602609Y-45681599D01*
X150481360Y-45758101D01*
X150386457Y-45865559D01*
X150325527Y-45995334D01*
X150317941Y-46044055D01*
X150305754Y-46122334D01*
X150303471Y-46136994D01*
X136309655Y-46136994D01*
X136308403Y-46128253D01*
X136249064Y-45997743D01*
X136182613Y-45920623D01*
X136161340Y-45895934D01*
X136161337Y-45895931D01*
X136155480Y-45889134D01*
X136035175Y-45811156D01*
X135897819Y-45770078D01*
X135888843Y-45770023D01*
X135888842Y-45770023D01*
X135828635Y-45769655D01*
X135754456Y-45769202D01*
X135616609Y-45808599D01*
X135495360Y-45885101D01*
X135400457Y-45992559D01*
X135339527Y-46122334D01*
X135317471Y-46263994D01*
X123196580Y-46263994D01*
X123196580Y-44850390D01*
X124444562Y-44850390D01*
X124446580Y-44850390D01*
X124446580Y-44864262D01*
X124446576Y-44872159D01*
X124446549Y-44918796D01*
X124446580Y-44918861D01*
X124446580Y-45878681D01*
X124446553Y-45934814D01*
X124452701Y-45947603D01*
X124453838Y-45952599D01*
X124456391Y-45959905D01*
X124458612Y-45964521D01*
X124461768Y-45978356D01*
X124470611Y-45989454D01*
X124472918Y-45994247D01*
X124476726Y-46000315D01*
X124480038Y-46004475D01*
X124486183Y-46017259D01*
X124497264Y-46026114D01*
X124500446Y-46030111D01*
X124505941Y-46035613D01*
X124509933Y-46038800D01*
X124518775Y-46049895D01*
X124531555Y-46056059D01*
X124535710Y-46059376D01*
X124541774Y-46063194D01*
X124546562Y-46065506D01*
X124557646Y-46074363D01*
X124571474Y-46077537D01*
X124576084Y-46079763D01*
X124583393Y-46082328D01*
X124588387Y-46083472D01*
X124601167Y-46089636D01*
X124624275Y-46089656D01*
X124624273Y-46091691D01*
X124624379Y-46091715D01*
X124624378Y-46089680D01*
X124624379Y-46089680D01*
X124642964Y-46089673D01*
X124692643Y-46089716D01*
X124692639Y-46094505D01*
X124692777Y-46094514D01*
X124692775Y-46089653D01*
X132097946Y-46086686D01*
X132100304Y-46086819D01*
X132110799Y-46090505D01*
X132138372Y-46087437D01*
X132147231Y-46086944D01*
X132149699Y-46086665D01*
X132156764Y-46086662D01*
X132163650Y-46085088D01*
X132166848Y-46084727D01*
X132174749Y-46083389D01*
X132182907Y-46082481D01*
X132201713Y-46080388D01*
X132211771Y-46074091D01*
X132223340Y-46071447D01*
X132244553Y-46054530D01*
X132251322Y-46049734D01*
X132253704Y-46047838D01*
X132259746Y-46044055D01*
X132264786Y-46039015D01*
X132266895Y-46037336D01*
X132273383Y-46031537D01*
X132283762Y-46023260D01*
X132283763Y-46023259D01*
X132294856Y-46014412D01*
X132299751Y-46004253D01*
X132301462Y-46002339D01*
X132760241Y-45543560D01*
X132761984Y-45542006D01*
X132771991Y-45537209D01*
X132789370Y-45515509D01*
X132795318Y-45508868D01*
X132796835Y-45506966D01*
X132801838Y-45501963D01*
X132805600Y-45495977D01*
X132807658Y-45493397D01*
X132812245Y-45486947D01*
X132820301Y-45476888D01*
X132820302Y-45476885D01*
X132829173Y-45465809D01*
X132831847Y-45454217D01*
X132838179Y-45444143D01*
X132841224Y-45417212D01*
X132842611Y-45409114D01*
X132842962Y-45406037D01*
X132844564Y-45399093D01*
X132844569Y-45391967D01*
X132844866Y-45389366D01*
X132845364Y-45380580D01*
X132846860Y-45367346D01*
X132848454Y-45353247D01*
X132844745Y-45342625D01*
X132844605Y-45340107D01*
X132844794Y-45071682D01*
X132848560Y-39699449D01*
X132848603Y-39650685D01*
X132848613Y-39639796D01*
X132848613Y-39639794D01*
X132848625Y-39625608D01*
X132842484Y-39612820D01*
X132841336Y-39607765D01*
X132838842Y-39600617D01*
X132836600Y-39595950D01*
X132833454Y-39582116D01*
X132824620Y-39571014D01*
X132822343Y-39566275D01*
X132818445Y-39560056D01*
X132815171Y-39555940D01*
X132809028Y-39543147D01*
X132797943Y-39534282D01*
X132794715Y-39530224D01*
X132789385Y-39524881D01*
X132785336Y-39521644D01*
X132776498Y-39510537D01*
X132763720Y-39504363D01*
X132759614Y-39501080D01*
X132753397Y-39497162D01*
X132748668Y-39494876D01*
X132737588Y-39486015D01*
X132723763Y-39482836D01*
X132719099Y-39480581D01*
X132711967Y-39478074D01*
X132706910Y-39476912D01*
X132694134Y-39470739D01*
X132670998Y-39470703D01*
X132671001Y-39468662D01*
X132670861Y-39468630D01*
X132670861Y-39470671D01*
X132650937Y-39470671D01*
X132602658Y-39470595D01*
X132602666Y-39465819D01*
X132602499Y-39465808D01*
X132602499Y-39470671D01*
X131635697Y-39470671D01*
X131600832Y-39470618D01*
X131600830Y-39470618D01*
X131586645Y-39470597D01*
X131573852Y-39476730D01*
X131569075Y-39477812D01*
X131561143Y-39480580D01*
X131556732Y-39482703D01*
X131542895Y-39485859D01*
X131531798Y-39494702D01*
X131526804Y-39497105D01*
X131521289Y-39500563D01*
X131516953Y-39504007D01*
X131504159Y-39510141D01*
X131495290Y-39521216D01*
X131491456Y-39524262D01*
X131485510Y-39530193D01*
X131482452Y-39534024D01*
X131471356Y-39542866D01*
X131465192Y-39555646D01*
X131461729Y-39559984D01*
X131458263Y-39565485D01*
X131458025Y-39565976D01*
X131457790Y-39566235D01*
X131452435Y-39574733D01*
X131446981Y-39581544D01*
X131445201Y-39580119D01*
X131410336Y-39618571D01*
X131341783Y-39637035D01*
X131274130Y-39615505D01*
X131249166Y-39593315D01*
X131208340Y-39545934D01*
X131208337Y-39545931D01*
X131202480Y-39539134D01*
X131082175Y-39461156D01*
X130944819Y-39420078D01*
X130935843Y-39420023D01*
X130935842Y-39420023D01*
X130875635Y-39419655D01*
X130801456Y-39419202D01*
X130663609Y-39458599D01*
X130542360Y-39535101D01*
X130536418Y-39541829D01*
X130536417Y-39541830D01*
X130514828Y-39566275D01*
X130447457Y-39642559D01*
X130386527Y-39772334D01*
X130385146Y-39781206D01*
X130365911Y-39904748D01*
X130364471Y-39913994D01*
X130365635Y-39922896D01*
X130365635Y-39922899D01*
X130366649Y-39930651D01*
X130383060Y-40056150D01*
X130386677Y-40064370D01*
X130428177Y-40158685D01*
X130440800Y-40187374D01*
X130446577Y-40194247D01*
X130446578Y-40194248D01*
X130496026Y-40253074D01*
X130533050Y-40297119D01*
X130652393Y-40376561D01*
X130789237Y-40419313D01*
X130798209Y-40419477D01*
X130798212Y-40419478D01*
X130863543Y-40420675D01*
X130932579Y-40421941D01*
X130941613Y-40419478D01*
X131062238Y-40386592D01*
X131062240Y-40386591D01*
X131070897Y-40384231D01*
X131193071Y-40309216D01*
X131205813Y-40295139D01*
X131211715Y-40288619D01*
X131272258Y-40251537D01*
X131343238Y-40253074D01*
X131402119Y-40292741D01*
X131430207Y-40357945D01*
X131431131Y-40373254D01*
X131430300Y-41672838D01*
X131410254Y-41740946D01*
X131356569Y-41787404D01*
X131286289Y-41797463D01*
X131221727Y-41767929D01*
X131189599Y-41724908D01*
X131186428Y-41717933D01*
X131169064Y-41679743D01*
X131150678Y-41658405D01*
X131081340Y-41577934D01*
X131081337Y-41577931D01*
X131075480Y-41571134D01*
X130955175Y-41493156D01*
X130817819Y-41452078D01*
X130808843Y-41452023D01*
X130808842Y-41452023D01*
X130748635Y-41451655D01*
X130674456Y-41451202D01*
X130536609Y-41490599D01*
X130415360Y-41567101D01*
X130320457Y-41674559D01*
X130259527Y-41804334D01*
X130256816Y-41821745D01*
X130240186Y-41928559D01*
X130237471Y-41945994D01*
X130238635Y-41954896D01*
X130238635Y-41954899D01*
X130240617Y-41970052D01*
X130256060Y-42088150D01*
X130259677Y-42096370D01*
X130309161Y-42208830D01*
X130313800Y-42219374D01*
X130319577Y-42226247D01*
X130319578Y-42226248D01*
X130324071Y-42231593D01*
X130406050Y-42329119D01*
X130525393Y-42408561D01*
X130662237Y-42451313D01*
X130671209Y-42451477D01*
X130671212Y-42451478D01*
X130736543Y-42452675D01*
X130805579Y-42453941D01*
X130814613Y-42451478D01*
X130935238Y-42418592D01*
X130935240Y-42418591D01*
X130943897Y-42416231D01*
X131066071Y-42341216D01*
X131162280Y-42234925D01*
X131166191Y-42226852D01*
X131166194Y-42226848D01*
X131190551Y-42176574D01*
X131238253Y-42123990D01*
X131306812Y-42105545D01*
X131374460Y-42127093D01*
X131419719Y-42181793D01*
X131429943Y-42231592D01*
X131429482Y-42952685D01*
X131428667Y-44225925D01*
X131408621Y-44294033D01*
X131391762Y-44314939D01*
X131072893Y-44633808D01*
X131010581Y-44667834D01*
X130983837Y-44670713D01*
X126050468Y-44672238D01*
X124651431Y-44672670D01*
X124601517Y-44672626D01*
X124588725Y-44678769D01*
X124583877Y-44679870D01*
X124576151Y-44682570D01*
X124571673Y-44684727D01*
X124557838Y-44687887D01*
X124546742Y-44696734D01*
X124541812Y-44699109D01*
X124536127Y-44702676D01*
X124531845Y-44706082D01*
X124519056Y-44712223D01*
X124510195Y-44723303D01*
X124506303Y-44726399D01*
X124500512Y-44732181D01*
X124497409Y-44736071D01*
X124486316Y-44744916D01*
X124480156Y-44757698D01*
X124476740Y-44761980D01*
X124473170Y-44767651D01*
X124470787Y-44772581D01*
X124461924Y-44783663D01*
X124458744Y-44797492D01*
X124456582Y-44801965D01*
X124453871Y-44809690D01*
X124452763Y-44814536D01*
X124446601Y-44827320D01*
X124446588Y-44850356D01*
X124444570Y-44850355D01*
X124444562Y-44850390D01*
X123196580Y-44850390D01*
X123196580Y-43215994D01*
X126173471Y-43215994D01*
X126174635Y-43224896D01*
X126174635Y-43224899D01*
X126175894Y-43234525D01*
X126192060Y-43358150D01*
X126249800Y-43489374D01*
X126255577Y-43496247D01*
X126255578Y-43496248D01*
X126262872Y-43504925D01*
X126342050Y-43599119D01*
X126461393Y-43678561D01*
X126598237Y-43721313D01*
X126607209Y-43721477D01*
X126607212Y-43721478D01*
X126672543Y-43722675D01*
X126741579Y-43723941D01*
X126750613Y-43721478D01*
X126871238Y-43688592D01*
X126871240Y-43688591D01*
X126879897Y-43686231D01*
X127002071Y-43611216D01*
X127098280Y-43504925D01*
X127160790Y-43375904D01*
X127184576Y-43234525D01*
X127184727Y-43222171D01*
X127183842Y-43215994D01*
X129856471Y-43215994D01*
X129857635Y-43224896D01*
X129857635Y-43224899D01*
X129858894Y-43234525D01*
X129875060Y-43358150D01*
X129932800Y-43489374D01*
X129938577Y-43496247D01*
X129938578Y-43496248D01*
X129945872Y-43504925D01*
X130025050Y-43599119D01*
X130144393Y-43678561D01*
X130281237Y-43721313D01*
X130290209Y-43721477D01*
X130290212Y-43721478D01*
X130355543Y-43722675D01*
X130424579Y-43723941D01*
X130433613Y-43721478D01*
X130554238Y-43688592D01*
X130554240Y-43688591D01*
X130562897Y-43686231D01*
X130685071Y-43611216D01*
X130781280Y-43504925D01*
X130843790Y-43375904D01*
X130867576Y-43234525D01*
X130867727Y-43222171D01*
X130847403Y-43080253D01*
X130788064Y-42949743D01*
X130725021Y-42876578D01*
X130700340Y-42847934D01*
X130700337Y-42847931D01*
X130694480Y-42841134D01*
X130574175Y-42763156D01*
X130436819Y-42722078D01*
X130427843Y-42722023D01*
X130427842Y-42722023D01*
X130367635Y-42721655D01*
X130293456Y-42721202D01*
X130155609Y-42760599D01*
X130034360Y-42837101D01*
X129939457Y-42944559D01*
X129878527Y-43074334D01*
X129856471Y-43215994D01*
X127183842Y-43215994D01*
X127164403Y-43080253D01*
X127105064Y-42949743D01*
X127042021Y-42876578D01*
X127017340Y-42847934D01*
X127017337Y-42847931D01*
X127011480Y-42841134D01*
X126891175Y-42763156D01*
X126753819Y-42722078D01*
X126744843Y-42722023D01*
X126744842Y-42722023D01*
X126684635Y-42721655D01*
X126610456Y-42721202D01*
X126472609Y-42760599D01*
X126351360Y-42837101D01*
X126256457Y-42944559D01*
X126195527Y-43074334D01*
X126173471Y-43215994D01*
X123196580Y-43215994D01*
X123196580Y-42580994D01*
X123760471Y-42580994D01*
X123761635Y-42589896D01*
X123761635Y-42589899D01*
X123762886Y-42599465D01*
X123779060Y-42723150D01*
X123782677Y-42731370D01*
X123832161Y-42843830D01*
X123836800Y-42854374D01*
X123842577Y-42861247D01*
X123842578Y-42861248D01*
X123849872Y-42869925D01*
X123929050Y-42964119D01*
X124048393Y-43043561D01*
X124185237Y-43086313D01*
X124194209Y-43086477D01*
X124194212Y-43086478D01*
X124259543Y-43087675D01*
X124328579Y-43088941D01*
X124337613Y-43086478D01*
X124458238Y-43053592D01*
X124458240Y-43053591D01*
X124466897Y-43051231D01*
X124589071Y-42976216D01*
X124685280Y-42869925D01*
X124747790Y-42740904D01*
X124771576Y-42599525D01*
X124771727Y-42587171D01*
X124756415Y-42480248D01*
X124752676Y-42454139D01*
X124752675Y-42454136D01*
X124751403Y-42445253D01*
X124692064Y-42314743D01*
X124665781Y-42284240D01*
X124604340Y-42212934D01*
X124604337Y-42212931D01*
X124598480Y-42206134D01*
X124478175Y-42128156D01*
X124340819Y-42087078D01*
X124331843Y-42087023D01*
X124331842Y-42087023D01*
X124271635Y-42086655D01*
X124197456Y-42086202D01*
X124059609Y-42125599D01*
X123938360Y-42202101D01*
X123843457Y-42309559D01*
X123782527Y-42439334D01*
X123760471Y-42580994D01*
X123196580Y-42580994D01*
X123196580Y-41818994D01*
X127189471Y-41818994D01*
X127190635Y-41827896D01*
X127190635Y-41827899D01*
X127191894Y-41837525D01*
X127208060Y-41961150D01*
X127265800Y-42092374D01*
X127271577Y-42099247D01*
X127271578Y-42099248D01*
X127292376Y-42123990D01*
X127358050Y-42202119D01*
X127477393Y-42281561D01*
X127614237Y-42324313D01*
X127623209Y-42324477D01*
X127623212Y-42324478D01*
X127688543Y-42325675D01*
X127757579Y-42326941D01*
X127766613Y-42324478D01*
X127887238Y-42291592D01*
X127887240Y-42291591D01*
X127895897Y-42289231D01*
X128018071Y-42214216D01*
X128025387Y-42206134D01*
X128099739Y-42123990D01*
X128114280Y-42107925D01*
X128176790Y-41978904D01*
X128200576Y-41837525D01*
X128200727Y-41825171D01*
X128187850Y-41735254D01*
X128181676Y-41692139D01*
X128181675Y-41692136D01*
X128180403Y-41683253D01*
X128174607Y-41670504D01*
X128161259Y-41641148D01*
X128121064Y-41552743D01*
X128099324Y-41527513D01*
X128043036Y-41462187D01*
X128013722Y-41397524D01*
X128024021Y-41327279D01*
X128045074Y-41295384D01*
X128108256Y-41225582D01*
X128108261Y-41225575D01*
X128114280Y-41218925D01*
X128176790Y-41089904D01*
X128200576Y-40948525D01*
X128200727Y-40936171D01*
X128182672Y-40810096D01*
X128181676Y-40803139D01*
X128181675Y-40803136D01*
X128180403Y-40794253D01*
X128121064Y-40663743D01*
X128050547Y-40581904D01*
X128033340Y-40561934D01*
X128033337Y-40561931D01*
X128027480Y-40555134D01*
X127907175Y-40477156D01*
X127769819Y-40436078D01*
X127760843Y-40436023D01*
X127760842Y-40436023D01*
X127700635Y-40435655D01*
X127626456Y-40435202D01*
X127488609Y-40474599D01*
X127367360Y-40551101D01*
X127361418Y-40557829D01*
X127361417Y-40557830D01*
X127348576Y-40572370D01*
X127272457Y-40658559D01*
X127211527Y-40788334D01*
X127209704Y-40800042D01*
X127192132Y-40912905D01*
X127189471Y-40929994D01*
X127190635Y-40938896D01*
X127190635Y-40938899D01*
X127191894Y-40948525D01*
X127208060Y-41072150D01*
X127265800Y-41203374D01*
X127271577Y-41210247D01*
X127271578Y-41210248D01*
X127347419Y-41300472D01*
X127375940Y-41365488D01*
X127364784Y-41435602D01*
X127345410Y-41464954D01*
X127292285Y-41525107D01*
X127272457Y-41547559D01*
X127211527Y-41677334D01*
X127207060Y-41706023D01*
X127191754Y-41804334D01*
X127189471Y-41818994D01*
X123196580Y-41818994D01*
X123196580Y-41735254D01*
X123198546Y-41717933D01*
X123198556Y-41712362D01*
X123201736Y-41698532D01*
X123198603Y-41684690D01*
X123198628Y-41670503D01*
X123199125Y-41670504D01*
X123198446Y-41662558D01*
X123203239Y-41571134D01*
X123213227Y-41380578D01*
X123214605Y-41367464D01*
X123238132Y-41218925D01*
X123263329Y-41059847D01*
X123266071Y-41046950D01*
X123270086Y-41031969D01*
X123333783Y-40794253D01*
X123346675Y-40746143D01*
X123350750Y-40733600D01*
X123462360Y-40442850D01*
X123467725Y-40430801D01*
X123472212Y-40421994D01*
X124141471Y-40421994D01*
X124142635Y-40430896D01*
X124142635Y-40430899D01*
X124143649Y-40438651D01*
X124160060Y-40564150D01*
X124163677Y-40572370D01*
X124205177Y-40666685D01*
X124217800Y-40695374D01*
X124223577Y-40702247D01*
X124223578Y-40702248D01*
X124300916Y-40794253D01*
X124310050Y-40805119D01*
X124429393Y-40884561D01*
X124566237Y-40927313D01*
X124575209Y-40927477D01*
X124575212Y-40927478D01*
X124640543Y-40928675D01*
X124709579Y-40929941D01*
X124718613Y-40927478D01*
X124839238Y-40894592D01*
X124839240Y-40894591D01*
X124847897Y-40892231D01*
X124970071Y-40817216D01*
X124992931Y-40791961D01*
X125060258Y-40717578D01*
X125066280Y-40710925D01*
X125104494Y-40632051D01*
X125536920Y-40632051D01*
X125538084Y-40640953D01*
X125538084Y-40640956D01*
X125545200Y-40695374D01*
X125555509Y-40774207D01*
X125565629Y-40797206D01*
X125605375Y-40887535D01*
X125613249Y-40905431D01*
X125619026Y-40912304D01*
X125619027Y-40912305D01*
X125641382Y-40938899D01*
X125705499Y-41015176D01*
X125824842Y-41094618D01*
X125961686Y-41137370D01*
X125970658Y-41137534D01*
X125970661Y-41137535D01*
X126035992Y-41138732D01*
X126105028Y-41139998D01*
X126114062Y-41137535D01*
X126234687Y-41104649D01*
X126234689Y-41104648D01*
X126243346Y-41102288D01*
X126365520Y-41027273D01*
X126461729Y-40920982D01*
X126517864Y-40805119D01*
X126520324Y-40800042D01*
X126520324Y-40800041D01*
X126524239Y-40791961D01*
X126548025Y-40650582D01*
X126548176Y-40638228D01*
X126527852Y-40496310D01*
X126517974Y-40474583D01*
X126499080Y-40433030D01*
X126468513Y-40365800D01*
X126413622Y-40302096D01*
X126380789Y-40263991D01*
X126380786Y-40263988D01*
X126374929Y-40257191D01*
X126254624Y-40179213D01*
X126117268Y-40138135D01*
X126108292Y-40138080D01*
X126108291Y-40138080D01*
X126048084Y-40137712D01*
X125973905Y-40137259D01*
X125836058Y-40176656D01*
X125714809Y-40253158D01*
X125708867Y-40259886D01*
X125708866Y-40259887D01*
X125692795Y-40278084D01*
X125619906Y-40360616D01*
X125558976Y-40490391D01*
X125557595Y-40499263D01*
X125543470Y-40589985D01*
X125536920Y-40632051D01*
X125104494Y-40632051D01*
X125128790Y-40581904D01*
X125152576Y-40440525D01*
X125152727Y-40428171D01*
X125143795Y-40365800D01*
X125133676Y-40295139D01*
X125133675Y-40295136D01*
X125132403Y-40286253D01*
X125117318Y-40253074D01*
X125090571Y-40194248D01*
X125073064Y-40155743D01*
X125022527Y-40097092D01*
X124985340Y-40053934D01*
X124985337Y-40053931D01*
X124979480Y-40047134D01*
X124859175Y-39969156D01*
X124721819Y-39928078D01*
X124712843Y-39928023D01*
X124712842Y-39928023D01*
X124652635Y-39927655D01*
X124578456Y-39927202D01*
X124440609Y-39966599D01*
X124319360Y-40043101D01*
X124313418Y-40049829D01*
X124313417Y-40049830D01*
X124300576Y-40064370D01*
X124224457Y-40150559D01*
X124163527Y-40280334D01*
X124161222Y-40295139D01*
X124147351Y-40384231D01*
X124141471Y-40421994D01*
X123472212Y-40421994D01*
X123609116Y-40153310D01*
X123615710Y-40141889D01*
X123755094Y-39927257D01*
X123785327Y-39880702D01*
X123793077Y-39870035D01*
X123870141Y-39774870D01*
X123989070Y-39628005D01*
X123992231Y-39624494D01*
X128168140Y-39624494D01*
X128169304Y-39633396D01*
X128169304Y-39633399D01*
X128170141Y-39639796D01*
X128186729Y-39766650D01*
X128193134Y-39781206D01*
X128232220Y-39870035D01*
X128244469Y-39897874D01*
X128250246Y-39904747D01*
X128250247Y-39904748D01*
X128306264Y-39971388D01*
X128336719Y-40007619D01*
X128456062Y-40087061D01*
X128592906Y-40129813D01*
X128601878Y-40129977D01*
X128601881Y-40129978D01*
X128667212Y-40131175D01*
X128736248Y-40132441D01*
X128745282Y-40129978D01*
X128865907Y-40097092D01*
X128865909Y-40097091D01*
X128874566Y-40094731D01*
X128996740Y-40019716D01*
X129092949Y-39913425D01*
X129155459Y-39784404D01*
X129179245Y-39643025D01*
X129179396Y-39630671D01*
X129166862Y-39543147D01*
X129160345Y-39497639D01*
X129160344Y-39497636D01*
X129159072Y-39488753D01*
X129155357Y-39480581D01*
X129127910Y-39420216D01*
X129099733Y-39358243D01*
X129061546Y-39313925D01*
X129012009Y-39256434D01*
X129012006Y-39256431D01*
X129006149Y-39249634D01*
X128885844Y-39171656D01*
X128748488Y-39130578D01*
X128739512Y-39130523D01*
X128739511Y-39130523D01*
X128679304Y-39130155D01*
X128605125Y-39129702D01*
X128467278Y-39169099D01*
X128346029Y-39245601D01*
X128251126Y-39353059D01*
X128190196Y-39482834D01*
X128183221Y-39527635D01*
X128169540Y-39615505D01*
X128168140Y-39624494D01*
X123992231Y-39624494D01*
X123997895Y-39618204D01*
X124218115Y-39397985D01*
X124227916Y-39389161D01*
X124272498Y-39353059D01*
X124469940Y-39193174D01*
X124480600Y-39185428D01*
X124741801Y-39015802D01*
X124753217Y-39009211D01*
X125030710Y-38867820D01*
X125042758Y-38862456D01*
X125251179Y-38782450D01*
X125333500Y-38750850D01*
X125346043Y-38746774D01*
X125646870Y-38666167D01*
X125659770Y-38663425D01*
X125967371Y-38614704D01*
X125980487Y-38613326D01*
X125987789Y-38612943D01*
X126120885Y-38605968D01*
X126189959Y-38622377D01*
X126239196Y-38673526D01*
X126252964Y-38743175D01*
X126241534Y-38785343D01*
X126195527Y-38883334D01*
X126194146Y-38892206D01*
X126174902Y-39015805D01*
X126173471Y-39024994D01*
X126174635Y-39033896D01*
X126174635Y-39033899D01*
X126175894Y-39043525D01*
X126192060Y-39167150D01*
X126249800Y-39298374D01*
X126255577Y-39305247D01*
X126255578Y-39305248D01*
X126336270Y-39401243D01*
X126342050Y-39408119D01*
X126349527Y-39413096D01*
X126450912Y-39480584D01*
X126461393Y-39487561D01*
X126598237Y-39530313D01*
X126607209Y-39530477D01*
X126607212Y-39530478D01*
X126672543Y-39531675D01*
X126741579Y-39532941D01*
X126750613Y-39530478D01*
X126871238Y-39497592D01*
X126871240Y-39497591D01*
X126879897Y-39495231D01*
X127002071Y-39420216D01*
X127098280Y-39313925D01*
X127160790Y-39184904D01*
X127184576Y-39043525D01*
X127184727Y-39031171D01*
X127164403Y-38889253D01*
X127154658Y-38867820D01*
X127112375Y-38774822D01*
X127102389Y-38704531D01*
X127131990Y-38640000D01*
X127191780Y-38601716D01*
X127227076Y-38596671D01*
X134173080Y-38596671D01*
X134241201Y-38616673D01*
G37*
G04 #@! TD.AperFunction*
G04 #@! TD*
M02*
