G04 #@! TF.GenerationSoftware,KiCad,Pcbnew,6.0.5-a6ca702e91~116~ubuntu20.04.1*
G04 #@! TF.CreationDate,2022-07-03T11:06:06+00:00*
G04 #@! TF.ProjectId,PlantBuddy,506c616e-7442-4756-9464-792e6b696361,rev?*
G04 #@! TF.SameCoordinates,Original*
G04 #@! TF.FileFunction,Legend,Bot*
G04 #@! TF.FilePolarity,Positive*
%FSLAX46Y46*%
G04 Gerber Fmt 4.6, Leading zero omitted, Abs format (unit mm)*
G04 Created by KiCad (PCBNEW 6.0.5-a6ca702e91~116~ubuntu20.04.1) date 2022-07-03 11:06:06*
%MOMM*%
%LPD*%
G01*
G04 APERTURE LIST*
%ADD10C,0.150000*%
%ADD11C,0.240000*%
%ADD12C,0.300000*%
%ADD13C,0.120000*%
G04 APERTURE END LIST*
D10*
X147525746Y-73209742D02*
X147382889Y-73257361D01*
X147335270Y-73304980D01*
X147287651Y-73400218D01*
X147287651Y-73543075D01*
X147335270Y-73638313D01*
X147382889Y-73685932D01*
X147478127Y-73733551D01*
X147859080Y-73733551D01*
X147859080Y-72733551D01*
X147525746Y-72733551D01*
X147430508Y-72781171D01*
X147382889Y-72828790D01*
X147335270Y-72924028D01*
X147335270Y-73019266D01*
X147382889Y-73114504D01*
X147430508Y-73162123D01*
X147525746Y-73209742D01*
X147859080Y-73209742D01*
X146430508Y-73733551D02*
X146430508Y-73209742D01*
X146478127Y-73114504D01*
X146573365Y-73066885D01*
X146763841Y-73066885D01*
X146859080Y-73114504D01*
X146430508Y-73685932D02*
X146525746Y-73733551D01*
X146763841Y-73733551D01*
X146859080Y-73685932D01*
X146906699Y-73590694D01*
X146906699Y-73495456D01*
X146859080Y-73400218D01*
X146763841Y-73352599D01*
X146525746Y-73352599D01*
X146430508Y-73304980D01*
X146097175Y-73066885D02*
X145716222Y-73066885D01*
X145954318Y-72733551D02*
X145954318Y-73590694D01*
X145906699Y-73685932D01*
X145811460Y-73733551D01*
X145716222Y-73733551D01*
D11*
X152407562Y-46298313D02*
X152461133Y-46345932D01*
X152609943Y-46393551D01*
X152705181Y-46393551D01*
X152842085Y-46345932D01*
X152925419Y-46250694D01*
X152961133Y-46155456D01*
X152984943Y-45964980D01*
X152967085Y-45822123D01*
X152895657Y-45631647D01*
X152836133Y-45536409D01*
X152728990Y-45441171D01*
X152580181Y-45393551D01*
X152484943Y-45393551D01*
X152348038Y-45441171D01*
X152306371Y-45488790D01*
X151848038Y-46393551D02*
X151937324Y-46345932D01*
X151978990Y-46298313D01*
X152014705Y-46203075D01*
X151978990Y-45917361D01*
X151919466Y-45822123D01*
X151865895Y-45774504D01*
X151764705Y-45726885D01*
X151621847Y-45726885D01*
X151532562Y-45774504D01*
X151490895Y-45822123D01*
X151455181Y-45917361D01*
X151490895Y-46203075D01*
X151550419Y-46298313D01*
X151603990Y-46345932D01*
X151705181Y-46393551D01*
X151848038Y-46393551D01*
X151002800Y-45726885D02*
X151086133Y-46393551D01*
X151014705Y-45822123D02*
X150961133Y-45774504D01*
X150859943Y-45726885D01*
X150717085Y-45726885D01*
X150627800Y-45774504D01*
X150592085Y-45869742D01*
X150657562Y-46393551D01*
X150240895Y-45726885D02*
X149859943Y-45726885D01*
X150056371Y-45393551D02*
X150163514Y-46250694D01*
X150127800Y-46345932D01*
X150038514Y-46393551D01*
X149943276Y-46393551D01*
X149181371Y-46393551D02*
X149115895Y-45869742D01*
X149151609Y-45774504D01*
X149240895Y-45726885D01*
X149431371Y-45726885D01*
X149532562Y-45774504D01*
X149175419Y-46345932D02*
X149276609Y-46393551D01*
X149514705Y-46393551D01*
X149603990Y-46345932D01*
X149639705Y-46250694D01*
X149627800Y-46155456D01*
X149568276Y-46060218D01*
X149467085Y-46012599D01*
X149228990Y-46012599D01*
X149127800Y-45964980D01*
X148270657Y-46345932D02*
X148371847Y-46393551D01*
X148562324Y-46393551D01*
X148651609Y-46345932D01*
X148693276Y-46298313D01*
X148728990Y-46203075D01*
X148693276Y-45917361D01*
X148633752Y-45822123D01*
X148580181Y-45774504D01*
X148478990Y-45726885D01*
X148288514Y-45726885D01*
X148199228Y-45774504D01*
X147907562Y-45726885D02*
X147526609Y-45726885D01*
X147723038Y-45393551D02*
X147830181Y-46250694D01*
X147794466Y-46345932D01*
X147705181Y-46393551D01*
X147609943Y-46393551D01*
X147264705Y-46298313D02*
X147223038Y-46345932D01*
X147276609Y-46393551D01*
X147318276Y-46345932D01*
X147264705Y-46298313D01*
X147276609Y-46393551D01*
X147199228Y-45774504D02*
X147157562Y-45822123D01*
X147211133Y-45869742D01*
X147252800Y-45822123D01*
X147199228Y-45774504D01*
X147211133Y-45869742D01*
D10*
X152497562Y-47903551D02*
X152432085Y-47379742D01*
X152467800Y-47284504D01*
X152557085Y-47236885D01*
X152747562Y-47236885D01*
X152848752Y-47284504D01*
X152491609Y-47855932D02*
X152592800Y-47903551D01*
X152830895Y-47903551D01*
X152920181Y-47855932D01*
X152955895Y-47760694D01*
X152943990Y-47665456D01*
X152884466Y-47570218D01*
X152783276Y-47522599D01*
X152545181Y-47522599D01*
X152443990Y-47474980D01*
X152021371Y-47903551D02*
X151938038Y-47236885D01*
X151961847Y-47427361D02*
X151902324Y-47332123D01*
X151848752Y-47284504D01*
X151747562Y-47236885D01*
X151652324Y-47236885D01*
X150973752Y-47903551D02*
X150848752Y-46903551D01*
X150967800Y-47855932D02*
X151068990Y-47903551D01*
X151259466Y-47903551D01*
X151348752Y-47855932D01*
X151390419Y-47808313D01*
X151426133Y-47713075D01*
X151390419Y-47427361D01*
X151330895Y-47332123D01*
X151277324Y-47284504D01*
X151176133Y-47236885D01*
X150985657Y-47236885D01*
X150896371Y-47284504D01*
X150110657Y-47855932D02*
X150211847Y-47903551D01*
X150402324Y-47903551D01*
X150491609Y-47855932D01*
X150527324Y-47760694D01*
X150479705Y-47379742D01*
X150420181Y-47284504D01*
X150318990Y-47236885D01*
X150128514Y-47236885D01*
X150039228Y-47284504D01*
X150003514Y-47379742D01*
X150015419Y-47474980D01*
X150503514Y-47570218D01*
X149497562Y-47903551D02*
X149586847Y-47855932D01*
X149622562Y-47760694D01*
X149515419Y-46903551D01*
X148729705Y-47855932D02*
X148830895Y-47903551D01*
X149021371Y-47903551D01*
X149110657Y-47855932D01*
X149146371Y-47760694D01*
X149098752Y-47379742D01*
X149039228Y-47284504D01*
X148938038Y-47236885D01*
X148747562Y-47236885D01*
X148658276Y-47284504D01*
X148622562Y-47379742D01*
X148634466Y-47474980D01*
X149122562Y-47570218D01*
X147830895Y-47903551D02*
X147765419Y-47379742D01*
X147801133Y-47284504D01*
X147890419Y-47236885D01*
X148080895Y-47236885D01*
X148182085Y-47284504D01*
X147824943Y-47855932D02*
X147926133Y-47903551D01*
X148164228Y-47903551D01*
X148253514Y-47855932D01*
X148289228Y-47760694D01*
X148277324Y-47665456D01*
X148217800Y-47570218D01*
X148116609Y-47522599D01*
X147878514Y-47522599D01*
X147777324Y-47474980D01*
X147271371Y-47236885D02*
X147354705Y-47903551D01*
X147283276Y-47332123D02*
X147229705Y-47284504D01*
X147128514Y-47236885D01*
X146985657Y-47236885D01*
X146896371Y-47284504D01*
X146860657Y-47379742D01*
X146926133Y-47903551D01*
X146438038Y-47808313D02*
X146396371Y-47855932D01*
X146449943Y-47903551D01*
X146491609Y-47855932D01*
X146438038Y-47808313D01*
X146449943Y-47903551D01*
X145539228Y-47855932D02*
X145640419Y-47903551D01*
X145830895Y-47903551D01*
X145920181Y-47855932D01*
X145961847Y-47808313D01*
X145997562Y-47713075D01*
X145961847Y-47427361D01*
X145902324Y-47332123D01*
X145848752Y-47284504D01*
X145747562Y-47236885D01*
X145557085Y-47236885D01*
X145467800Y-47284504D01*
X144688038Y-47903551D02*
X144622562Y-47379742D01*
X144658276Y-47284504D01*
X144747562Y-47236885D01*
X144938038Y-47236885D01*
X145039228Y-47284504D01*
X144682085Y-47855932D02*
X144783276Y-47903551D01*
X145021371Y-47903551D01*
X145110657Y-47855932D01*
X145146371Y-47760694D01*
X145134466Y-47665456D01*
X145074943Y-47570218D01*
X144973752Y-47522599D01*
X144735657Y-47522599D01*
X144634466Y-47474980D01*
X144068990Y-47903551D02*
X144158276Y-47855932D01*
X144193990Y-47760694D01*
X144086847Y-46903551D01*
X143688038Y-47903551D02*
X143604705Y-47236885D01*
X143563038Y-46903551D02*
X143616609Y-46951171D01*
X143574943Y-46998790D01*
X143521371Y-46951171D01*
X143563038Y-46903551D01*
X143574943Y-46998790D01*
X143128514Y-47236885D02*
X143211847Y-47903551D01*
X143140419Y-47332123D02*
X143086847Y-47284504D01*
X142985657Y-47236885D01*
X142842800Y-47236885D01*
X142753514Y-47284504D01*
X142717800Y-47379742D01*
X142783276Y-47903551D01*
X141628514Y-47427361D02*
X141670181Y-47379742D01*
X141759466Y-47332123D01*
X141854705Y-47332123D01*
X141955895Y-47379742D01*
X142009466Y-47427361D01*
X142068990Y-47522599D01*
X142080895Y-47617837D01*
X142045181Y-47713075D01*
X142003514Y-47760694D01*
X141914228Y-47808313D01*
X141818990Y-47808313D01*
X141717800Y-47760694D01*
X141664228Y-47713075D01*
X141616609Y-47332123D02*
X141664228Y-47713075D01*
X141622562Y-47760694D01*
X141574943Y-47760694D01*
X141473752Y-47713075D01*
X141414228Y-47617837D01*
X141384466Y-47379742D01*
X141461847Y-47236885D01*
X141592800Y-47141647D01*
X141777324Y-47094028D01*
X141973752Y-47141647D01*
X142128514Y-47236885D01*
X142241609Y-47379742D01*
X142313038Y-47570218D01*
X142289228Y-47760694D01*
X142211847Y-47903551D01*
X142080895Y-47998790D01*
X141896371Y-48046409D01*
X141699943Y-47998790D01*
X141545181Y-47903551D01*
X140938038Y-47236885D02*
X141063038Y-48236885D01*
X140943990Y-47284504D02*
X140842800Y-47236885D01*
X140652324Y-47236885D01*
X140563038Y-47284504D01*
X140521371Y-47332123D01*
X140485657Y-47427361D01*
X140521371Y-47713075D01*
X140580895Y-47808313D01*
X140634466Y-47855932D01*
X140735657Y-47903551D01*
X140926133Y-47903551D01*
X141015419Y-47855932D01*
X140116609Y-47903551D02*
X140033276Y-47236885D01*
X140057085Y-47427361D02*
X139997562Y-47332123D01*
X139943990Y-47284504D01*
X139842800Y-47236885D01*
X139747562Y-47236885D01*
X139354705Y-47903551D02*
X139443990Y-47855932D01*
X139485657Y-47808313D01*
X139521371Y-47713075D01*
X139485657Y-47427361D01*
X139426133Y-47332123D01*
X139372562Y-47284504D01*
X139271371Y-47236885D01*
X139128514Y-47236885D01*
X139039228Y-47284504D01*
X138997562Y-47332123D01*
X138961847Y-47427361D01*
X138997562Y-47713075D01*
X139057085Y-47808313D01*
X139110657Y-47855932D01*
X139211847Y-47903551D01*
X139354705Y-47903551D01*
X138652324Y-47236885D02*
X138271371Y-47236885D01*
X138467800Y-46903551D02*
X138574943Y-47760694D01*
X138539228Y-47855932D01*
X138449943Y-47903551D01*
X138354705Y-47903551D01*
X137878514Y-47903551D02*
X137967800Y-47855932D01*
X138009466Y-47808313D01*
X138045181Y-47713075D01*
X138009466Y-47427361D01*
X137949943Y-47332123D01*
X137896371Y-47284504D01*
X137795181Y-47236885D01*
X137652324Y-47236885D01*
X137563038Y-47284504D01*
X137521371Y-47332123D01*
X137485657Y-47427361D01*
X137521371Y-47713075D01*
X137580895Y-47808313D01*
X137634466Y-47855932D01*
X137735657Y-47903551D01*
X137878514Y-47903551D01*
X137033276Y-47236885D02*
X137116609Y-47903551D01*
X137045181Y-47332123D02*
X136991609Y-47284504D01*
X136890419Y-47236885D01*
X136747562Y-47236885D01*
X136658276Y-47284504D01*
X136622562Y-47379742D01*
X136688038Y-47903551D01*
X136199943Y-47808313D02*
X136158276Y-47855932D01*
X136211847Y-47903551D01*
X136253514Y-47855932D01*
X136199943Y-47808313D01*
X136211847Y-47903551D01*
X135735657Y-47903551D02*
X135652324Y-47236885D01*
X135664228Y-47332123D02*
X135610657Y-47284504D01*
X135509466Y-47236885D01*
X135366609Y-47236885D01*
X135277324Y-47284504D01*
X135241609Y-47379742D01*
X135307085Y-47903551D01*
X135241609Y-47379742D02*
X135182085Y-47284504D01*
X135080895Y-47236885D01*
X134938038Y-47236885D01*
X134848752Y-47284504D01*
X134813038Y-47379742D01*
X134878514Y-47903551D01*
X134015419Y-47855932D02*
X134116609Y-47903551D01*
X134307085Y-47903551D01*
X134396371Y-47855932D01*
X134432085Y-47760694D01*
X134384466Y-47379742D01*
X134324943Y-47284504D01*
X134223752Y-47236885D01*
X134033276Y-47236885D01*
X133943990Y-47284504D01*
X133908276Y-47379742D01*
X133920181Y-47474980D01*
X134408276Y-47570218D01*
X144520984Y-54731171D02*
X144616222Y-54683551D01*
X144759080Y-54683551D01*
X144901937Y-54731171D01*
X144997175Y-54826409D01*
X145044794Y-54921647D01*
X145092413Y-55112123D01*
X145092413Y-55254980D01*
X145044794Y-55445456D01*
X144997175Y-55540694D01*
X144901937Y-55635932D01*
X144759080Y-55683551D01*
X144663841Y-55683551D01*
X144520984Y-55635932D01*
X144473365Y-55588313D01*
X144473365Y-55254980D01*
X144663841Y-55254980D01*
X144044794Y-55683551D02*
X144044794Y-54683551D01*
X143473365Y-55683551D01*
X143473365Y-54683551D01*
X142997175Y-55683551D02*
X142997175Y-54683551D01*
X142759080Y-54683551D01*
X142616222Y-54731171D01*
X142520984Y-54826409D01*
X142473365Y-54921647D01*
X142425746Y-55112123D01*
X142425746Y-55254980D01*
X142473365Y-55445456D01*
X142520984Y-55540694D01*
X142616222Y-55635932D01*
X142759080Y-55683551D01*
X142997175Y-55683551D01*
X150712056Y-42953313D02*
X150759675Y-43000932D01*
X150902532Y-43048551D01*
X150997770Y-43048551D01*
X151140627Y-43000932D01*
X151235865Y-42905694D01*
X151283484Y-42810456D01*
X151331103Y-42619980D01*
X151331103Y-42477123D01*
X151283484Y-42286647D01*
X151235865Y-42191409D01*
X151140627Y-42096171D01*
X150997770Y-42048551D01*
X150902532Y-42048551D01*
X150759675Y-42096171D01*
X150712056Y-42143790D01*
X149854913Y-43048551D02*
X149854913Y-42524742D01*
X149902532Y-42429504D01*
X149997770Y-42381885D01*
X150188246Y-42381885D01*
X150283484Y-42429504D01*
X149854913Y-43000932D02*
X149950151Y-43048551D01*
X150188246Y-43048551D01*
X150283484Y-43000932D01*
X150331103Y-42905694D01*
X150331103Y-42810456D01*
X150283484Y-42715218D01*
X150188246Y-42667599D01*
X149950151Y-42667599D01*
X149854913Y-42619980D01*
X150283484Y-42000932D02*
X150235865Y-42096171D01*
X150140627Y-42143790D01*
X150045389Y-42143790D01*
X149950151Y-42096171D01*
X149902532Y-42000932D01*
X149235865Y-43048551D02*
X149331103Y-43000932D01*
X149378722Y-42905694D01*
X149378722Y-42048551D01*
X148854913Y-43048551D02*
X148854913Y-42381885D01*
X148854913Y-42048551D02*
X148902532Y-42096171D01*
X148854913Y-42143790D01*
X148807294Y-42096171D01*
X148854913Y-42048551D01*
X148854913Y-42143790D01*
X148378722Y-42381885D02*
X148378722Y-43048551D01*
X148378722Y-42477123D02*
X148331103Y-42429504D01*
X148235865Y-42381885D01*
X148093008Y-42381885D01*
X147997770Y-42429504D01*
X147950151Y-42524742D01*
X147950151Y-43048551D01*
X147473960Y-42667599D02*
X146712056Y-42667599D01*
X146235865Y-43048551D02*
X146235865Y-42048551D01*
X145854913Y-42048551D01*
X145759675Y-42096171D01*
X145712056Y-42143790D01*
X145664437Y-42239028D01*
X145664437Y-42381885D01*
X145712056Y-42477123D01*
X145759675Y-42524742D01*
X145854913Y-42572361D01*
X146235865Y-42572361D01*
X144854913Y-43000932D02*
X144950151Y-43048551D01*
X145140627Y-43048551D01*
X145235865Y-43000932D01*
X145283484Y-42905694D01*
X145283484Y-42524742D01*
X145235865Y-42429504D01*
X145140627Y-42381885D01*
X144950151Y-42381885D01*
X144854913Y-42429504D01*
X144807294Y-42524742D01*
X144807294Y-42619980D01*
X145283484Y-42715218D01*
X144521580Y-42381885D02*
X144140627Y-42381885D01*
X144378722Y-42048551D02*
X144378722Y-42905694D01*
X144331103Y-43000932D01*
X144235865Y-43048551D01*
X144140627Y-43048551D01*
X143807294Y-43048551D02*
X143807294Y-42381885D01*
X143807294Y-42572361D02*
X143759675Y-42477123D01*
X143712056Y-42429504D01*
X143616818Y-42381885D01*
X143521580Y-42381885D01*
X142759675Y-42381885D02*
X142759675Y-43048551D01*
X143188246Y-42381885D02*
X143188246Y-42905694D01*
X143140627Y-43000932D01*
X143045389Y-43048551D01*
X142902532Y-43048551D01*
X142807294Y-43000932D01*
X142759675Y-42953313D01*
X151331103Y-44372837D02*
X150854913Y-44372837D01*
X151426341Y-44658551D02*
X151093008Y-43658551D01*
X150759675Y-44658551D01*
X150426341Y-44658551D02*
X150426341Y-43991885D01*
X150426341Y-44182361D02*
X150378722Y-44087123D01*
X150331103Y-44039504D01*
X150235865Y-43991885D01*
X150140627Y-43991885D01*
X149378722Y-44658551D02*
X149378722Y-43658551D01*
X149378722Y-44610932D02*
X149473960Y-44658551D01*
X149664437Y-44658551D01*
X149759675Y-44610932D01*
X149807294Y-44563313D01*
X149854913Y-44468075D01*
X149854913Y-44182361D01*
X149807294Y-44087123D01*
X149759675Y-44039504D01*
X149664437Y-43991885D01*
X149473960Y-43991885D01*
X149378722Y-44039504D01*
X148521580Y-44610932D02*
X148616818Y-44658551D01*
X148807294Y-44658551D01*
X148902532Y-44610932D01*
X148950151Y-44515694D01*
X148950151Y-44134742D01*
X148902532Y-44039504D01*
X148807294Y-43991885D01*
X148616818Y-43991885D01*
X148521580Y-44039504D01*
X148473960Y-44134742D01*
X148473960Y-44229980D01*
X148950151Y-44325218D01*
X147902532Y-44658551D02*
X147997770Y-44610932D01*
X148045389Y-44515694D01*
X148045389Y-43658551D01*
X147140627Y-44610932D02*
X147235865Y-44658551D01*
X147426341Y-44658551D01*
X147521580Y-44610932D01*
X147569199Y-44515694D01*
X147569199Y-44134742D01*
X147521580Y-44039504D01*
X147426341Y-43991885D01*
X147235865Y-43991885D01*
X147140627Y-44039504D01*
X147093008Y-44134742D01*
X147093008Y-44229980D01*
X147569199Y-44325218D01*
X146235865Y-44658551D02*
X146235865Y-44134742D01*
X146283484Y-44039504D01*
X146378722Y-43991885D01*
X146569199Y-43991885D01*
X146664437Y-44039504D01*
X146235865Y-44610932D02*
X146331103Y-44658551D01*
X146569199Y-44658551D01*
X146664437Y-44610932D01*
X146712056Y-44515694D01*
X146712056Y-44420456D01*
X146664437Y-44325218D01*
X146569199Y-44277599D01*
X146331103Y-44277599D01*
X146235865Y-44229980D01*
X145759675Y-43991885D02*
X145759675Y-44658551D01*
X145759675Y-44087123D02*
X145712056Y-44039504D01*
X145616818Y-43991885D01*
X145473960Y-43991885D01*
X145378722Y-44039504D01*
X145331103Y-44134742D01*
X145331103Y-44658551D01*
X148793080Y-66264742D02*
X149554984Y-66264742D01*
X149174032Y-65883790D02*
X149174032Y-66645694D01*
X150031175Y-66264742D02*
X150793080Y-66264742D01*
D11*
X152970937Y-40787837D02*
X152494746Y-40787837D01*
X153101889Y-41073551D02*
X152643556Y-40073551D01*
X152435222Y-41073551D01*
X151589984Y-40406885D02*
X151673318Y-41073551D01*
X152018556Y-40406885D02*
X152084032Y-40930694D01*
X152048318Y-41025932D01*
X151959032Y-41073551D01*
X151816175Y-41073551D01*
X151714984Y-41025932D01*
X151661413Y-40978313D01*
X151256651Y-40406885D02*
X150875699Y-40406885D01*
X151072127Y-40073551D02*
X151179270Y-40930694D01*
X151143556Y-41025932D01*
X151054270Y-41073551D01*
X150959032Y-41073551D01*
X150625699Y-41073551D02*
X150500699Y-40073551D01*
X150197127Y-41073551D02*
X150131651Y-40549742D01*
X150167365Y-40454504D01*
X150256651Y-40406885D01*
X150399508Y-40406885D01*
X150500699Y-40454504D01*
X150554270Y-40502123D01*
X149578080Y-41073551D02*
X149667365Y-41025932D01*
X149709032Y-40978313D01*
X149744746Y-40883075D01*
X149709032Y-40597361D01*
X149649508Y-40502123D01*
X149595937Y-40454504D01*
X149494746Y-40406885D01*
X149351889Y-40406885D01*
X149262603Y-40454504D01*
X149220937Y-40502123D01*
X149185222Y-40597361D01*
X149220937Y-40883075D01*
X149280460Y-40978313D01*
X149334032Y-41025932D01*
X149435222Y-41073551D01*
X149578080Y-41073551D01*
X148816175Y-41073551D02*
X148732841Y-40406885D01*
X148756651Y-40597361D02*
X148697127Y-40502123D01*
X148643556Y-40454504D01*
X148542365Y-40406885D01*
X148447127Y-40406885D01*
X148185222Y-40978313D02*
X148143556Y-41025932D01*
X148197127Y-41073551D01*
X148238794Y-41025932D01*
X148185222Y-40978313D01*
X148197127Y-41073551D01*
X148119746Y-40454504D02*
X148078080Y-40502123D01*
X148131651Y-40549742D01*
X148173318Y-40502123D01*
X148119746Y-40454504D01*
X148131651Y-40549742D01*
D10*
X138389556Y-64708313D02*
X138437175Y-64755932D01*
X138580032Y-64803551D01*
X138675270Y-64803551D01*
X138818127Y-64755932D01*
X138913365Y-64660694D01*
X138960984Y-64565456D01*
X139008603Y-64374980D01*
X139008603Y-64232123D01*
X138960984Y-64041647D01*
X138913365Y-63946409D01*
X138818127Y-63851171D01*
X138675270Y-63803551D01*
X138580032Y-63803551D01*
X138437175Y-63851171D01*
X138389556Y-63898790D01*
X126172413Y-48433551D02*
X125839080Y-49433551D01*
X125505746Y-48433551D01*
X124600984Y-49338313D02*
X124648603Y-49385932D01*
X124791460Y-49433551D01*
X124886699Y-49433551D01*
X125029556Y-49385932D01*
X125124794Y-49290694D01*
X125172413Y-49195456D01*
X125220032Y-49004980D01*
X125220032Y-48862123D01*
X125172413Y-48671647D01*
X125124794Y-48576409D01*
X125029556Y-48481171D01*
X124886699Y-48433551D01*
X124791460Y-48433551D01*
X124648603Y-48481171D01*
X124600984Y-48528790D01*
X123600984Y-49338313D02*
X123648603Y-49385932D01*
X123791460Y-49433551D01*
X123886699Y-49433551D01*
X124029556Y-49385932D01*
X124124794Y-49290694D01*
X124172413Y-49195456D01*
X124220032Y-49004980D01*
X124220032Y-48862123D01*
X124172413Y-48671647D01*
X124124794Y-48576409D01*
X124029556Y-48481171D01*
X123886699Y-48433551D01*
X123791460Y-48433551D01*
X123648603Y-48481171D01*
X123600984Y-48528790D01*
X145047175Y-58313551D02*
X144428127Y-58313551D01*
X144761460Y-58694504D01*
X144618603Y-58694504D01*
X144523365Y-58742123D01*
X144475746Y-58789742D01*
X144428127Y-58884980D01*
X144428127Y-59123075D01*
X144475746Y-59218313D01*
X144523365Y-59265932D01*
X144618603Y-59313551D01*
X144904318Y-59313551D01*
X144999556Y-59265932D01*
X145047175Y-59218313D01*
X144142413Y-58313551D02*
X143809080Y-59313551D01*
X143475746Y-58313551D01*
X143237651Y-58313551D02*
X142618603Y-58313551D01*
X142951937Y-58694504D01*
X142809080Y-58694504D01*
X142713841Y-58742123D01*
X142666222Y-58789742D01*
X142618603Y-58884980D01*
X142618603Y-59123075D01*
X142666222Y-59218313D01*
X142713841Y-59265932D01*
X142809080Y-59313551D01*
X143094794Y-59313551D01*
X143190032Y-59265932D01*
X143237651Y-59218313D01*
D12*
X128599437Y-55974028D02*
X128528008Y-55759742D01*
X128528008Y-55402599D01*
X128599437Y-55259742D01*
X128670865Y-55188313D01*
X128813722Y-55116885D01*
X128956580Y-55116885D01*
X129099437Y-55188313D01*
X129170865Y-55259742D01*
X129242294Y-55402599D01*
X129313722Y-55688313D01*
X129385151Y-55831171D01*
X129456580Y-55902599D01*
X129599437Y-55974028D01*
X129742294Y-55974028D01*
X129885151Y-55902599D01*
X129956580Y-55831171D01*
X130028008Y-55688313D01*
X130028008Y-55331171D01*
X129956580Y-55116885D01*
X128528008Y-54474028D02*
X130028008Y-54474028D01*
X128528008Y-53831171D02*
X129313722Y-53831171D01*
X129456580Y-53902599D01*
X129528008Y-54045456D01*
X129528008Y-54259742D01*
X129456580Y-54402599D01*
X129385151Y-54474028D01*
X129528008Y-52474028D02*
X128528008Y-52474028D01*
X129528008Y-53116885D02*
X128742294Y-53116885D01*
X128599437Y-53045456D01*
X128528008Y-52902599D01*
X128528008Y-52688313D01*
X128599437Y-52545456D01*
X128670865Y-52474028D01*
X129528008Y-51759742D02*
X128528008Y-51759742D01*
X129385151Y-51759742D02*
X129456580Y-51688313D01*
X129528008Y-51545456D01*
X129528008Y-51331171D01*
X129456580Y-51188313D01*
X129313722Y-51116885D01*
X128528008Y-51116885D01*
X129528008Y-50616885D02*
X129528008Y-50045456D01*
X130028008Y-50402599D02*
X128742294Y-50402599D01*
X128599437Y-50331171D01*
X128528008Y-50188313D01*
X128528008Y-50045456D01*
X126684437Y-56295456D02*
X126684437Y-55152599D01*
X126684437Y-51009742D02*
X126684437Y-49866885D01*
X126113008Y-50438313D02*
X127255865Y-50438313D01*
D13*
G04 #@! TO.C,TP2*
X148109080Y-55261171D02*
G75*
G03*
X148109080Y-55261171I-1200000J0D01*
G01*
G04 #@! TO.C,TP1*
X148059080Y-58831171D02*
G75*
G03*
X148059080Y-58831171I-1200000J0D01*
G01*
G04 #@! TO.C,J2*
X123579080Y-54711171D02*
X123579080Y-56611171D01*
X125479080Y-56611171D02*
X125479080Y-54711171D01*
X125479080Y-54711171D02*
X123579080Y-54711171D01*
X123579080Y-56611171D02*
X125479080Y-56611171D01*
G04 #@! TO.C,J3*
X125470080Y-49765171D02*
X123570080Y-49765171D01*
X125470080Y-51665171D02*
X125470080Y-49765171D01*
X123570080Y-51665171D02*
X125470080Y-51665171D01*
X123570080Y-49765171D02*
X123570080Y-51665171D01*
G04 #@! TO.C,BT1*
X147558080Y-67428171D02*
X152028080Y-67428171D01*
X152028080Y-71398171D02*
X152028080Y-71848171D01*
X152028080Y-71848171D02*
X151078080Y-71848171D01*
X147558080Y-71848171D02*
X148508080Y-71848171D01*
X152028080Y-67428171D02*
X152028080Y-67878171D01*
X148508080Y-71848171D02*
X148508080Y-73338171D01*
X147558080Y-71398171D02*
X147558080Y-71848171D01*
X147558080Y-67878171D02*
X147558080Y-67428171D01*
G04 #@! TO.C,TP3*
X141939080Y-64331171D02*
G75*
G03*
X141939080Y-64331171I-1200000J0D01*
G01*
G04 #@! TD*
M02*
