G04 #@! TF.GenerationSoftware,KiCad,Pcbnew,6.0.5-a6ca702e91~116~ubuntu20.04.1*
G04 #@! TF.CreationDate,2022-06-15T15:16:03+00:00*
G04 #@! TF.ProjectId,PlantBuddy,506c616e-7442-4756-9464-792e6b696361,rev?*
G04 #@! TF.SameCoordinates,Original*
G04 #@! TF.FileFunction,Copper,L2,Inr*
G04 #@! TF.FilePolarity,Positive*
%FSLAX46Y46*%
G04 Gerber Fmt 4.6, Leading zero omitted, Abs format (unit mm)*
G04 Created by KiCad (PCBNEW 6.0.5-a6ca702e91~116~ubuntu20.04.1) date 2022-06-15 15:16:03*
%MOMM*%
%LPD*%
G01*
G04 APERTURE LIST*
G04 Aperture macros list*
%AMFreePoly0*
4,1,113,0.499682,0.503916,0.501146,0.500380,0.501146,-47.971286,0.499682,-47.974822,0.496146,-47.976286,-0.502921,-47.976286,-0.506457,-47.974822,-0.507921,-47.971286,-0.507921,-45.774953,-7.098454,-45.774953,-7.101990,-45.773489,-7.103454,-45.769953,-7.103454,-43.763353,-7.101990,-43.759817,-7.098454,-43.758353,-0.507871,-43.758353,-0.512145,-41.368050,-7.098457,-41.363798,-7.101992,-41.362332,-7.103454,-41.358798,
-7.103454,-39.360686,-7.101990,-39.357150,-7.098454,-39.355686,-0.507921,-39.355686,-0.507921,-36.961153,-7.098523,-36.961153,-7.098528,-36.961151,-7.098534,-36.961153,-7.100275,-36.960428,-7.102059,-36.959689,-7.102061,-36.959683,-7.102067,-36.959681,-7.102806,-36.957886,-7.103523,-36.956153,-7.103521,-36.956148,-7.103523,-36.956142,-7.099220,-34.953776,-7.098541,-34.952147,-7.097758,-34.950252,-7.097750,-34.950249,
-7.097748,-34.950243,-7.096019,-34.949531,-7.094223,-34.948786,-0.507921,-34.944534,-0.507921,-32.558486,-7.098454,-32.558486,-7.101990,-32.557022,-7.103454,-32.553486,-7.103454,-30.546886,-7.101990,-30.543350,-7.098454,-30.541886,-0.507921,-30.541886,-0.507921,-28.147353,-7.098454,-28.147353,-7.101990,-28.145889,-7.103454,-28.142353,-7.103454,-26.144241,-7.101990,-26.140705,-7.098457,-26.139241,-0.512145,-26.134989,
-0.507871,-23.744686,-7.098454,-23.744686,-7.101990,-23.743222,-7.103454,-23.739686,-7.103454,-21.733086,-7.101990,-21.729550,-7.098454,-21.728086,-0.507921,-21.728086,-0.507921,-19.333553,-7.098454,-19.333553,-7.101990,-19.332089,-7.103454,-19.328553,-7.103454,-17.330420,-7.101990,-17.326884,-7.098454,-17.325420,-0.507921,-17.325420,-0.507921,-14.930886,-7.098454,-14.930886,-7.101990,-14.929422,-7.103454,-14.925886,
-7.103454,-12.919286,-7.101990,-12.915750,-7.098454,-12.914286,-0.507921,-12.914286,-0.507921,-10.519753,-7.098454,-10.519753,-7.101990,-10.518289,-7.103454,-10.514753,-7.103454,-8.516620,-7.101990,-8.513084,-7.098454,-8.511620,-0.507921,-8.511620,-0.507921,-6.117086,-7.098454,-6.117086,-7.101990,-6.115622,-7.103454,-6.112086,-7.103454,-4.105486,-7.101990,-4.101950,-7.098454,-4.100486,-0.507921,-4.100486,
-0.507921,-1.705953,-7.098454,-1.705953,-7.101990,-1.704489,-7.103454,-1.700953,-7.103454,0.297180,-7.101990,0.300716,-7.098454,0.302180,-0.507921,0.302180,-0.507921,0.500380,-0.506457,0.503916,-0.502921,0.505380,0.496146,0.505380,0.499682,0.503916,0.499682,0.503916,$1*%
%AMFreePoly1*
4,1,113,0.498682,0.503916,0.500146,0.500380,0.500146,-1.899153,7.090679,-1.899153,7.094215,-1.900617,7.095679,-1.904153,7.095679,-3.910753,7.094215,-3.914289,7.090679,-3.915753,0.500097,-3.915753,0.504370,-6.306056,7.090684,-6.310308,7.094219,-6.311774,7.095148,-6.314024,7.095680,-6.315308,7.095679,-8.313420,7.094215,-8.316956,7.090679,-8.318420,0.500146,-8.318420,0.500146,-10.712953,
7.090749,-10.712953,7.090754,-10.712955,7.090760,-10.712953,7.092501,-10.713678,7.094285,-10.714417,7.094287,-10.714423,7.094293,-10.714425,7.095032,-10.716220,7.095749,-10.717953,7.095747,-10.717958,7.095749,-10.717964,7.091446,-12.720330,7.090773,-12.721945,7.089985,-12.723853,7.089977,-12.723856,7.089974,-12.723863,7.088323,-12.724542,7.086450,-12.725319,0.500146,-12.729571,0.500146,-15.115619,
7.090679,-15.115619,7.094215,-15.117083,7.095679,-15.120619,7.095679,-17.127220,7.094215,-17.130756,7.090679,-17.132220,0.500146,-17.132220,0.500146,-19.526753,7.090679,-19.526753,7.094215,-19.528217,7.095679,-19.531753,7.095680,-21.529865,7.095148,-21.531149,7.094219,-21.533399,7.094216,-21.533401,7.093109,-21.533859,7.090684,-21.534865,0.504370,-21.539117,0.500097,-23.929420,7.090679,-23.929420,
7.094215,-23.930884,7.095679,-23.934420,7.095679,-25.941019,7.094215,-25.944555,7.090679,-25.946019,0.500146,-25.946019,0.500146,-28.340553,7.090679,-28.340553,7.094215,-28.342017,7.095679,-28.345553,7.095679,-30.343686,7.094215,-30.347222,7.090679,-30.348686,0.500146,-30.348686,0.500146,-32.743219,7.090679,-32.743219,7.094215,-32.744683,7.095679,-32.748219,7.095679,-34.754820,7.094215,-34.758356,
7.090679,-34.759820,0.500146,-34.759820,0.500146,-37.154353,7.090679,-37.154353,7.094215,-37.155817,7.095679,-37.159353,7.095679,-39.157486,7.094215,-39.161022,7.090679,-39.162486,0.500146,-39.162486,0.500146,-41.557020,7.090679,-41.557020,7.094215,-41.558484,7.095679,-41.562020,7.095679,-43.568620,7.094215,-43.572156,7.090679,-43.573620,0.500146,-43.573620,0.500146,-45.968153,7.090679,-45.968153,
7.094215,-45.969617,7.095679,-45.973153,7.095679,-47.971286,7.094215,-47.974822,7.090679,-47.976286,-0.503920,-47.976286,-0.507456,-47.974822,-0.508920,-47.971286,-0.508920,0.500380,-0.507456,0.503916,-0.503920,0.505380,0.495146,0.505380,0.498682,0.503916,0.498682,0.503916,$1*%
G04 Aperture macros list end*
G04 #@! TA.AperFunction,ComponentPad*
%ADD10O,2.100000X1.000000*%
G04 #@! TD*
G04 #@! TA.AperFunction,ComponentPad*
%ADD11O,1.600000X1.000000*%
G04 #@! TD*
G04 #@! TA.AperFunction,ComponentPad*
%ADD12FreePoly0,0.000000*%
G04 #@! TD*
G04 #@! TA.AperFunction,ComponentPad*
%ADD13FreePoly1,0.000000*%
G04 #@! TD*
G04 #@! TA.AperFunction,ViaPad*
%ADD14C,0.600000*%
G04 #@! TD*
G04 APERTURE END LIST*
D10*
G04 #@! TO.N,GND*
G04 #@! TO.C,J1*
X99800080Y-54781171D03*
X99800080Y-46141171D03*
D11*
X103980080Y-54781171D03*
X103980080Y-46141171D03*
G04 #@! TD*
D12*
G04 #@! TO.N,/capsense*
G04 #@! TO.C,C4*
X91952200Y-70544951D03*
D13*
G04 #@! TO.N,GND*
X83952200Y-70544951D03*
G04 #@! TD*
D14*
G04 #@! TO.N,+3V3*
X98612080Y-41698171D03*
X77412140Y-61812749D03*
X76133080Y-40936171D03*
X76260080Y-48556171D03*
X84409655Y-61466570D03*
X85327880Y-63110371D03*
X83702280Y-61484771D03*
X83702280Y-60671971D03*
X77149080Y-45000171D03*
X77203166Y-52180060D03*
G04 #@! TO.N,/pulse*
X77200880Y-50879913D03*
G04 #@! TO.N,/SDA*
X76260080Y-50842171D03*
X78281263Y-65918222D03*
G04 #@! TO.N,/SCL*
X78201776Y-56255383D03*
X77203166Y-53001171D03*
X76895080Y-56658771D03*
X75402576Y-63585927D03*
G04 #@! TO.N,GND*
X89849080Y-45381171D03*
X77276080Y-48429171D03*
X87874080Y-43419171D03*
X78437715Y-50468139D03*
X80832080Y-39412171D03*
X91881080Y-39539171D03*
X92262080Y-54490191D03*
X94548080Y-55033171D03*
X94035957Y-58164174D03*
X84769080Y-47286171D03*
X80324080Y-55795171D03*
X93786080Y-49191171D03*
X85899080Y-45381171D03*
X88706080Y-39539171D03*
X94929080Y-38396171D03*
X85899080Y-43362171D03*
X85404080Y-39539171D03*
X86293080Y-55922171D03*
X76133080Y-39412171D03*
X91500080Y-59605171D03*
X83880080Y-39539171D03*
X92516080Y-56684171D03*
X85277080Y-59605171D03*
X90992080Y-58081171D03*
X87874080Y-41431171D03*
X81576093Y-49001504D03*
X89849080Y-41431171D03*
X80324080Y-54271171D03*
X87874080Y-45324171D03*
X73466080Y-46524171D03*
X97469080Y-43984171D03*
X77276080Y-46651171D03*
X89849080Y-43406171D03*
X90230080Y-39539171D03*
X94929080Y-49338171D03*
X87055080Y-39539171D03*
X85899080Y-41431171D03*
X85150080Y-53636171D03*
X72704080Y-54398171D03*
X100898080Y-56684171D03*
X79888679Y-63890812D03*
G04 #@! TO.N,/~PGOOD*
X97435488Y-54950350D03*
X94421080Y-58970171D03*
G04 #@! TO.N,/~CHG*
X98110129Y-54521324D03*
X96820544Y-57916663D03*
G04 #@! TO.N,/piezo_p*
X96453080Y-40936171D03*
G04 #@! TO.N,/piezo_l*
X95564080Y-40936171D03*
G04 #@! TO.N,/vbat*
X72577080Y-51477171D03*
X72577080Y-50461171D03*
G04 #@! TO.N,/status*
X92643080Y-40809171D03*
X96580080Y-42079171D03*
G04 #@! TO.N,Net-(JP1-Pad1)*
X85785080Y-67987171D03*
G04 #@! TD*
G04 #@! TA.AperFunction,Conductor*
G04 #@! TO.N,GND*
G36*
X95419506Y-32384138D02*
G01*
X96134590Y-32695353D01*
X96139541Y-32697636D01*
X96895354Y-33066244D01*
X96900200Y-33068739D01*
X97639340Y-33469680D01*
X97644074Y-33472382D01*
X98365199Y-33904928D01*
X98369812Y-33907833D01*
X99071531Y-34371149D01*
X99076006Y-34374245D01*
X99263507Y-34510043D01*
X99757046Y-34867491D01*
X99761391Y-34870783D01*
X99913433Y-34991260D01*
X100145013Y-35174762D01*
X100420463Y-35393027D01*
X100424654Y-35396498D01*
X101060542Y-35946778D01*
X101064552Y-35950404D01*
X101392153Y-36259670D01*
X101676016Y-36527647D01*
X101679898Y-36531473D01*
X102265841Y-37134641D01*
X102269553Y-37138632D01*
X102828842Y-37766558D01*
X102832379Y-37770707D01*
X103363977Y-38422229D01*
X103367331Y-38426526D01*
X103870260Y-39100439D01*
X103873423Y-39104874D01*
X103894879Y-39136381D01*
X104346738Y-39799918D01*
X104349708Y-39804489D01*
X104792506Y-40519336D01*
X104795276Y-40524031D01*
X105206759Y-41257393D01*
X105209322Y-41262203D01*
X105588679Y-42012634D01*
X105591033Y-42017551D01*
X105937595Y-42783728D01*
X105939733Y-42788742D01*
X106252819Y-43569157D01*
X106254739Y-43574259D01*
X106533785Y-44367510D01*
X106535482Y-44372689D01*
X106767433Y-45136047D01*
X106767806Y-45137276D01*
X106773249Y-45173968D01*
X106771631Y-48563664D01*
X106768361Y-55416771D01*
X106768203Y-55746856D01*
X106762771Y-55783393D01*
X106705811Y-55971042D01*
X106528364Y-56555617D01*
X106526651Y-56560847D01*
X106244998Y-57361170D01*
X106243058Y-57366320D01*
X105926720Y-58153599D01*
X105924577Y-58158613D01*
X105676384Y-58705917D01*
X105574165Y-58931325D01*
X105571783Y-58936286D01*
X105490138Y-59097245D01*
X105210890Y-59647766D01*
X105187978Y-59692935D01*
X105185397Y-59697759D01*
X104856149Y-60282111D01*
X104768910Y-60436943D01*
X104766105Y-60441677D01*
X104317730Y-61161984D01*
X104314720Y-61166591D01*
X103835346Y-61866593D01*
X103832138Y-61871065D01*
X103322642Y-62549485D01*
X103319255Y-62553797D01*
X102780602Y-63209347D01*
X102777031Y-63213504D01*
X102623049Y-63385048D01*
X102229464Y-63823522D01*
X102210284Y-63844889D01*
X102206522Y-63848900D01*
X101951832Y-64108848D01*
X101612760Y-64454921D01*
X101608824Y-64458767D01*
X100989157Y-65038292D01*
X100985056Y-65041963D01*
X100355069Y-65581550D01*
X100340674Y-65593879D01*
X100336424Y-65597361D01*
X99680868Y-66110968D01*
X99668562Y-66120609D01*
X99664164Y-66123903D01*
X99212314Y-66447096D01*
X98974074Y-66617501D01*
X98969530Y-66620603D01*
X98266007Y-67078739D01*
X98258568Y-67083583D01*
X98253892Y-67086485D01*
X97523360Y-67517997D01*
X97518561Y-67520691D01*
X96769939Y-67919864D01*
X96765028Y-67922347D01*
X96308135Y-68140904D01*
X96000500Y-68288063D01*
X95999653Y-68288468D01*
X95994643Y-68290732D01*
X95838420Y-68357243D01*
X95213998Y-68623088D01*
X95208889Y-68625132D01*
X94414512Y-68923071D01*
X94409318Y-68924891D01*
X94401800Y-68927342D01*
X93634763Y-69177403D01*
X93623561Y-69179571D01*
X93621735Y-69180119D01*
X93612451Y-69180111D01*
X93606022Y-69183198D01*
X93598903Y-69183678D01*
X93568769Y-69200765D01*
X93561209Y-69204718D01*
X93529991Y-69219710D01*
X93525536Y-69225281D01*
X93519330Y-69228800D01*
X93511242Y-69240461D01*
X93499605Y-69257239D01*
X93494475Y-69264122D01*
X93472860Y-69291151D01*
X93471261Y-69298104D01*
X93467196Y-69303965D01*
X93464966Y-69317975D01*
X93461754Y-69338150D01*
X93460121Y-69346558D01*
X93457518Y-69357878D01*
X93457518Y-69364389D01*
X93457170Y-69366942D01*
X93456491Y-69371212D01*
X93452815Y-69394302D01*
X93456880Y-69407891D01*
X93457241Y-69413319D01*
X93457519Y-69421675D01*
X93457550Y-70858174D01*
X93437549Y-70926295D01*
X93383895Y-70972790D01*
X93331219Y-70984177D01*
X92709011Y-70982540D01*
X92640945Y-70962358D01*
X92594593Y-70908581D01*
X92583344Y-70856540D01*
X92583344Y-70046649D01*
X92583756Y-70044577D01*
X92573863Y-69994828D01*
X92572278Y-69991001D01*
X92568844Y-69985861D01*
X92568841Y-69985856D01*
X92550989Y-69959139D01*
X92550988Y-69959138D01*
X92544094Y-69948820D01*
X92501919Y-69920641D01*
X92499087Y-69919468D01*
X92499074Y-69919462D01*
X92498079Y-69919050D01*
X92448362Y-69909161D01*
X92446289Y-69909573D01*
X91451366Y-69909573D01*
X91449295Y-69909161D01*
X91399546Y-69919050D01*
X91398551Y-69919462D01*
X91398538Y-69919468D01*
X91395706Y-69920641D01*
X91377754Y-69932636D01*
X91363844Y-69941931D01*
X91363843Y-69941932D01*
X91353526Y-69948826D01*
X91325347Y-69991001D01*
X91323762Y-69994828D01*
X91320473Y-70011361D01*
X91287562Y-70074269D01*
X91225865Y-70109397D01*
X91196895Y-70112773D01*
X85088162Y-70112773D01*
X85020041Y-70092771D01*
X84973548Y-70039115D01*
X84962884Y-70000240D01*
X84960816Y-69981000D01*
X84928038Y-69852555D01*
X84925707Y-69845549D01*
X84923723Y-69841403D01*
X84876517Y-69754949D01*
X84867374Y-69742270D01*
X84779340Y-69647717D01*
X84765447Y-69636522D01*
X84651440Y-69568881D01*
X84644819Y-69565567D01*
X84640457Y-69564029D01*
X84546090Y-69536320D01*
X84530660Y-69533819D01*
X84465885Y-69531497D01*
X84443617Y-69528699D01*
X84432804Y-69526347D01*
X84224315Y-69526347D01*
X84209076Y-69530822D01*
X84207871Y-69532212D01*
X84206200Y-69539895D01*
X84206200Y-70672951D01*
X84186198Y-70741072D01*
X84132542Y-70787565D01*
X84080200Y-70798951D01*
X82948171Y-70798951D01*
X82932932Y-70803426D01*
X82931727Y-70804816D01*
X82930056Y-70812499D01*
X82930056Y-70830473D01*
X82910054Y-70898594D01*
X82856398Y-70945087D01*
X82803727Y-70956472D01*
X82555246Y-70955818D01*
X82487181Y-70935637D01*
X82440829Y-70881859D01*
X82429580Y-70829819D01*
X82429580Y-70272836D01*
X82930056Y-70272836D01*
X82934531Y-70288075D01*
X82935921Y-70289280D01*
X82943604Y-70290951D01*
X83680085Y-70290951D01*
X83695324Y-70286476D01*
X83696529Y-70285086D01*
X83698200Y-70277403D01*
X83698200Y-69544462D01*
X83693725Y-69529223D01*
X83692335Y-69528018D01*
X83684652Y-69526347D01*
X83462164Y-69526347D01*
X83431281Y-69530224D01*
X83402489Y-69529192D01*
X83384748Y-69531097D01*
X83256290Y-69563867D01*
X83249277Y-69566200D01*
X83245107Y-69568196D01*
X83158649Y-69615406D01*
X83145960Y-69624557D01*
X83051420Y-69712585D01*
X83040222Y-69726482D01*
X82972580Y-69840497D01*
X82969282Y-69847087D01*
X82967753Y-69851420D01*
X82940030Y-69945825D01*
X82937528Y-69961259D01*
X82935206Y-70026032D01*
X82932408Y-70048300D01*
X82930056Y-70059113D01*
X82930056Y-70272836D01*
X82429580Y-70272836D01*
X82429580Y-69424230D01*
X82429888Y-69415428D01*
X82430120Y-69412112D01*
X82434234Y-69398534D01*
X82432053Y-69384517D01*
X82432053Y-69384513D01*
X82429983Y-69371212D01*
X82429580Y-69368209D01*
X82429580Y-69361568D01*
X82427103Y-69350712D01*
X82425446Y-69342065D01*
X82422350Y-69322168D01*
X82420168Y-69308146D01*
X82416019Y-69302120D01*
X82414392Y-69294986D01*
X82393002Y-69268143D01*
X82387759Y-69261069D01*
X82376344Y-69244488D01*
X82376342Y-69244486D01*
X82368297Y-69232800D01*
X82361944Y-69229168D01*
X82357385Y-69223447D01*
X82344609Y-69217285D01*
X82344606Y-69217282D01*
X82326477Y-69208538D01*
X82318695Y-69204444D01*
X82288882Y-69187401D01*
X82281581Y-69186883D01*
X82274993Y-69183706D01*
X82265851Y-69183698D01*
X82265199Y-69183500D01*
X82252889Y-69181094D01*
X81474707Y-68927342D01*
X81469498Y-68925516D01*
X80882856Y-68705356D01*
X80672138Y-68626276D01*
X80667018Y-68624226D01*
X80664348Y-68623088D01*
X79883488Y-68290333D01*
X79878482Y-68288068D01*
X79276003Y-67999525D01*
X79237310Y-67980994D01*
X85279471Y-67980994D01*
X85280635Y-67989896D01*
X85280635Y-67989899D01*
X85281894Y-67999525D01*
X85298060Y-68123150D01*
X85355800Y-68254374D01*
X85361577Y-68261247D01*
X85361578Y-68261248D01*
X85385459Y-68289658D01*
X85448050Y-68364119D01*
X85567393Y-68443561D01*
X85704237Y-68486313D01*
X85713209Y-68486477D01*
X85713212Y-68486478D01*
X85778543Y-68487675D01*
X85847579Y-68488941D01*
X85856613Y-68486478D01*
X85977238Y-68453592D01*
X85977240Y-68453591D01*
X85985897Y-68451231D01*
X86108071Y-68376216D01*
X86132802Y-68348894D01*
X86198258Y-68276578D01*
X86204280Y-68269925D01*
X86266790Y-68140904D01*
X86290576Y-67999525D01*
X86290727Y-67987171D01*
X86270403Y-67845253D01*
X86211064Y-67714743D01*
X86192678Y-67693405D01*
X86123340Y-67612934D01*
X86123337Y-67612931D01*
X86117480Y-67606134D01*
X85997175Y-67528156D01*
X85859819Y-67487078D01*
X85850843Y-67487023D01*
X85850842Y-67487023D01*
X85790635Y-67486655D01*
X85716456Y-67486202D01*
X85578609Y-67525599D01*
X85457360Y-67602101D01*
X85362457Y-67709559D01*
X85301527Y-67839334D01*
X85300146Y-67848206D01*
X85282581Y-67961022D01*
X85279471Y-67980994D01*
X79237310Y-67980994D01*
X79110371Y-67920199D01*
X79105446Y-67917707D01*
X78527001Y-67608830D01*
X78354151Y-67516532D01*
X78349348Y-67513829D01*
X77616353Y-67080136D01*
X77611665Y-67077222D01*
X76898406Y-66611867D01*
X76893850Y-66608751D01*
X76201609Y-66112569D01*
X76197194Y-66109255D01*
X75946065Y-65912045D01*
X77775654Y-65912045D01*
X77776818Y-65920947D01*
X77776818Y-65920950D01*
X77782929Y-65967681D01*
X77794243Y-66054201D01*
X77851983Y-66185425D01*
X77857760Y-66192298D01*
X77857761Y-66192299D01*
X77865055Y-66200976D01*
X77944233Y-66295170D01*
X78063576Y-66374612D01*
X78200420Y-66417364D01*
X78209392Y-66417528D01*
X78209395Y-66417529D01*
X78274726Y-66418726D01*
X78343762Y-66419992D01*
X78352796Y-66417529D01*
X78473421Y-66384643D01*
X78473423Y-66384642D01*
X78482080Y-66382282D01*
X78604254Y-66307267D01*
X78700463Y-66200976D01*
X78762973Y-66071955D01*
X78786759Y-65930576D01*
X78786910Y-65918222D01*
X78776336Y-65844387D01*
X78767859Y-65785190D01*
X78767858Y-65785187D01*
X78766586Y-65776304D01*
X78707247Y-65645794D01*
X78665519Y-65597366D01*
X78619523Y-65543985D01*
X78619520Y-65543982D01*
X78613663Y-65537185D01*
X78493358Y-65459207D01*
X78356002Y-65418129D01*
X78347026Y-65418074D01*
X78347025Y-65418074D01*
X78286818Y-65417706D01*
X78212639Y-65417253D01*
X78074792Y-65456650D01*
X77953543Y-65533152D01*
X77858640Y-65640610D01*
X77797710Y-65770385D01*
X77793360Y-65798327D01*
X77782598Y-65867448D01*
X77775654Y-65912045D01*
X75946065Y-65912045D01*
X75643891Y-65674749D01*
X75527379Y-65583252D01*
X75523117Y-65579752D01*
X75481465Y-65543985D01*
X74876974Y-65024910D01*
X74872866Y-65021223D01*
X74251656Y-64438624D01*
X74247713Y-64434761D01*
X73803189Y-63979668D01*
X73652592Y-63825489D01*
X73648826Y-63821461D01*
X73567116Y-63730126D01*
X73432586Y-63579750D01*
X74896967Y-63579750D01*
X74898131Y-63588652D01*
X74898131Y-63588655D01*
X74906261Y-63650828D01*
X74915556Y-63721906D01*
X74973296Y-63853130D01*
X74979073Y-63860003D01*
X74979074Y-63860004D01*
X74986368Y-63868681D01*
X75065546Y-63962875D01*
X75184889Y-64042317D01*
X75321733Y-64085069D01*
X75330705Y-64085233D01*
X75330708Y-64085234D01*
X75396039Y-64086431D01*
X75465075Y-64087697D01*
X75474109Y-64085234D01*
X75594734Y-64052348D01*
X75594736Y-64052347D01*
X75603393Y-64049987D01*
X75725567Y-63974972D01*
X75821776Y-63868681D01*
X75884286Y-63739660D01*
X75908072Y-63598281D01*
X75908223Y-63585927D01*
X75894814Y-63492296D01*
X75889172Y-63452895D01*
X75889171Y-63452892D01*
X75887899Y-63444009D01*
X75828560Y-63313499D01*
X75810174Y-63292161D01*
X75740836Y-63211690D01*
X75740833Y-63211687D01*
X75734976Y-63204890D01*
X75614671Y-63126912D01*
X75477315Y-63085834D01*
X75468339Y-63085779D01*
X75468338Y-63085779D01*
X75408131Y-63085411D01*
X75333952Y-63084958D01*
X75196105Y-63124355D01*
X75074856Y-63200857D01*
X75068914Y-63207585D01*
X75068913Y-63207586D01*
X75042543Y-63237445D01*
X74979953Y-63308315D01*
X74919023Y-63438090D01*
X74896967Y-63579750D01*
X73432586Y-63579750D01*
X73080975Y-63186724D01*
X73077389Y-63182535D01*
X73029746Y-63124339D01*
X72537877Y-62523528D01*
X72534475Y-62519181D01*
X72389184Y-62324938D01*
X72024345Y-61837177D01*
X72021159Y-61832717D01*
X71749825Y-61434744D01*
X74471269Y-61434744D01*
X74474062Y-61448657D01*
X74473930Y-61453690D01*
X74474619Y-61461654D01*
X74475615Y-61466592D01*
X74475256Y-61480774D01*
X74481084Y-61493712D01*
X74482153Y-61499012D01*
X74484265Y-61505592D01*
X74486480Y-61510520D01*
X74489272Y-61524430D01*
X74497820Y-61535754D01*
X74499885Y-61540348D01*
X74503963Y-61547229D01*
X74506999Y-61551243D01*
X74512826Y-61564178D01*
X74530484Y-61579021D01*
X74529181Y-61580571D01*
X74529223Y-61580628D01*
X74530525Y-61579076D01*
X74543712Y-61590141D01*
X74543778Y-61590240D01*
X74543799Y-61590214D01*
X74582849Y-61623040D01*
X74579757Y-61626718D01*
X74579829Y-61626786D01*
X74582950Y-61623066D01*
X75369285Y-62282879D01*
X75408362Y-62315727D01*
X75422106Y-62319243D01*
X75426582Y-62321544D01*
X75434079Y-62324384D01*
X75438949Y-62325625D01*
X75451573Y-62332099D01*
X75465755Y-62332458D01*
X75470992Y-62333793D01*
X75477820Y-62334741D01*
X75483236Y-62334883D01*
X75496983Y-62338400D01*
X75510894Y-62335608D01*
X75515926Y-62335740D01*
X75523913Y-62335048D01*
X75528836Y-62334055D01*
X75543018Y-62334414D01*
X75555954Y-62328586D01*
X75561257Y-62327517D01*
X75567818Y-62325411D01*
X75572758Y-62323191D01*
X75586670Y-62320399D01*
X75597996Y-62311849D01*
X75602592Y-62309783D01*
X75609465Y-62305710D01*
X75613484Y-62302671D01*
X75626422Y-62296843D01*
X75635553Y-62285981D01*
X75639864Y-62282721D01*
X75644875Y-62277965D01*
X75648353Y-62273834D01*
X75659678Y-62265285D01*
X75666175Y-62252671D01*
X75675312Y-62241821D01*
X75675831Y-62242258D01*
X75680436Y-62235753D01*
X75864246Y-62040930D01*
X75874904Y-62030875D01*
X76101801Y-61840490D01*
X76113546Y-61831746D01*
X76361009Y-61668991D01*
X76373698Y-61661665D01*
X76638376Y-61528742D01*
X76651830Y-61522939D01*
X76779114Y-61476612D01*
X76849968Y-61472109D01*
X76912008Y-61506628D01*
X76945537Y-61569208D01*
X76939910Y-61639981D01*
X76936264Y-61648560D01*
X76928587Y-61664912D01*
X76927206Y-61673784D01*
X76916312Y-61743754D01*
X76906531Y-61806572D01*
X76907695Y-61815474D01*
X76907695Y-61815477D01*
X76911888Y-61847537D01*
X76925120Y-61948728D01*
X76982860Y-62079952D01*
X76988637Y-62086825D01*
X76988638Y-62086826D01*
X77069330Y-62182821D01*
X77075110Y-62189697D01*
X77082587Y-62194674D01*
X77183308Y-62261720D01*
X77194453Y-62269139D01*
X77331297Y-62311891D01*
X77340269Y-62312055D01*
X77340272Y-62312056D01*
X77405603Y-62313253D01*
X77474639Y-62314519D01*
X77483673Y-62312056D01*
X77604298Y-62279170D01*
X77604300Y-62279169D01*
X77612957Y-62276809D01*
X77735131Y-62201794D01*
X77831340Y-62095503D01*
X77884132Y-61986541D01*
X77889935Y-61974563D01*
X77889935Y-61974562D01*
X77893850Y-61966482D01*
X77917636Y-61825103D01*
X77917787Y-61812749D01*
X77897463Y-61670831D01*
X77893296Y-61661665D01*
X77870465Y-61611451D01*
X77838124Y-61540321D01*
X77832264Y-61533520D01*
X77832260Y-61533514D01*
X77827432Y-61527911D01*
X77798120Y-61463248D01*
X77808420Y-61393003D01*
X77855064Y-61339478D01*
X77923240Y-61319666D01*
X77937506Y-61320517D01*
X78160625Y-61346597D01*
X78175037Y-61349139D01*
X78455407Y-61415590D01*
X78463238Y-61417446D01*
X78477274Y-61421648D01*
X78755593Y-61522948D01*
X78769047Y-61528751D01*
X79033734Y-61661683D01*
X79046418Y-61669006D01*
X79293884Y-61831767D01*
X79305622Y-61840507D01*
X79532513Y-62030892D01*
X79543171Y-62040946D01*
X79746424Y-62256381D01*
X79755843Y-62267606D01*
X79932711Y-62505181D01*
X79940762Y-62517422D01*
X80088855Y-62773923D01*
X80095431Y-62787016D01*
X80174970Y-62971406D01*
X80212742Y-63058971D01*
X80217754Y-63072741D01*
X80302702Y-63356485D01*
X80306081Y-63370740D01*
X80345347Y-63593420D01*
X80357514Y-63662422D01*
X80359215Y-63676975D01*
X80376438Y-63972654D01*
X80376438Y-63987306D01*
X80359220Y-64282987D01*
X80357519Y-64297541D01*
X80306089Y-64589225D01*
X80302710Y-64603482D01*
X80217768Y-64887218D01*
X80212757Y-64900987D01*
X80095447Y-65172950D01*
X80088871Y-65186044D01*
X79998915Y-65341856D01*
X79953395Y-65420702D01*
X79940785Y-65442543D01*
X79932733Y-65454785D01*
X79773055Y-65669275D01*
X79767623Y-65674749D01*
X79768253Y-65675279D01*
X79759113Y-65686134D01*
X79747790Y-65694682D01*
X79741294Y-65707296D01*
X79738055Y-65711142D01*
X79733621Y-65717802D01*
X79731318Y-65722283D01*
X79722189Y-65733144D01*
X79718673Y-65746889D01*
X79716202Y-65751697D01*
X79713747Y-65758161D01*
X79712403Y-65763394D01*
X79705908Y-65776006D01*
X79705524Y-65790186D01*
X79704273Y-65795059D01*
X79703165Y-65802988D01*
X79703033Y-65808020D01*
X79699517Y-65821765D01*
X79702309Y-65835676D01*
X79702168Y-65841079D01*
X79702758Y-65847966D01*
X79703818Y-65853269D01*
X79703434Y-65867448D01*
X79709238Y-65880392D01*
X79710225Y-65885332D01*
X79712662Y-65892944D01*
X79714728Y-65897540D01*
X79717520Y-65911451D01*
X79726068Y-65922774D01*
X79728283Y-65927703D01*
X79731802Y-65933653D01*
X79735054Y-65937968D01*
X79740860Y-65950917D01*
X79758629Y-65965906D01*
X79757297Y-65967485D01*
X79757446Y-65967681D01*
X79758774Y-65966098D01*
X79774238Y-65979074D01*
X79774488Y-65979285D01*
X79810780Y-66009899D01*
X79807745Y-66013497D01*
X79807943Y-66013686D01*
X79811060Y-66009971D01*
X80599980Y-66671952D01*
X80636296Y-66702587D01*
X80650040Y-66706129D01*
X80654193Y-66708272D01*
X80662664Y-66711490D01*
X80667194Y-66712645D01*
X80679821Y-66719120D01*
X80694006Y-66719479D01*
X80699609Y-66720907D01*
X80705353Y-66721710D01*
X80711138Y-66721871D01*
X80724878Y-66725412D01*
X80738796Y-66722644D01*
X80743468Y-66722774D01*
X80752503Y-66721999D01*
X80757083Y-66721075D01*
X80771267Y-66721434D01*
X80784202Y-66715607D01*
X80789875Y-66714463D01*
X80795408Y-66712691D01*
X80800680Y-66710333D01*
X80814595Y-66707565D01*
X80825933Y-66699037D01*
X80830196Y-66697130D01*
X80837999Y-66692515D01*
X80841732Y-66689692D01*
X80854671Y-66683863D01*
X80863802Y-66673000D01*
X80868421Y-66669507D01*
X80880871Y-66657713D01*
X80882001Y-66656863D01*
X80887699Y-66652577D01*
X80888161Y-66652028D01*
X80889155Y-66650090D01*
X80889555Y-66649711D01*
X80889407Y-66649598D01*
X81125520Y-66339343D01*
X81125525Y-66339335D01*
X81127336Y-66336956D01*
X81335876Y-66000848D01*
X81451209Y-65768135D01*
X81510193Y-65649121D01*
X81510195Y-65649117D01*
X81511522Y-65646439D01*
X81652684Y-65276939D01*
X81758084Y-64895694D01*
X81759579Y-64887218D01*
X81826247Y-64509105D01*
X81826767Y-64506157D01*
X81858112Y-64111854D01*
X81853874Y-63844889D01*
X81851882Y-63719364D01*
X81851882Y-63719358D01*
X81851834Y-63716357D01*
X81815784Y-63393125D01*
X81808324Y-63326233D01*
X81808324Y-63326231D01*
X81807991Y-63323248D01*
X81762155Y-63104194D01*
X84822271Y-63104194D01*
X84823435Y-63113096D01*
X84823435Y-63113099D01*
X84831566Y-63175272D01*
X84840860Y-63246350D01*
X84844477Y-63254570D01*
X84892413Y-63363512D01*
X84898600Y-63377574D01*
X84904377Y-63384447D01*
X84904378Y-63384448D01*
X84985070Y-63480443D01*
X84990850Y-63487319D01*
X85110193Y-63566761D01*
X85247037Y-63609513D01*
X85256009Y-63609677D01*
X85256012Y-63609678D01*
X85321343Y-63610875D01*
X85390379Y-63612141D01*
X85399413Y-63609678D01*
X85520038Y-63576792D01*
X85520040Y-63576791D01*
X85528697Y-63574431D01*
X85650871Y-63499416D01*
X85701023Y-63444009D01*
X85741058Y-63399778D01*
X85747080Y-63393125D01*
X85809590Y-63264104D01*
X85833376Y-63122725D01*
X85833527Y-63110371D01*
X85813203Y-62968453D01*
X85753864Y-62837943D01*
X85709983Y-62787017D01*
X85666140Y-62736134D01*
X85666137Y-62736131D01*
X85660280Y-62729334D01*
X85539975Y-62651356D01*
X85402619Y-62610278D01*
X85393643Y-62610223D01*
X85393642Y-62610223D01*
X85333435Y-62609855D01*
X85259256Y-62609402D01*
X85121409Y-62648799D01*
X85000160Y-62725301D01*
X84905257Y-62832759D01*
X84844327Y-62962534D01*
X84842946Y-62971406D01*
X84824882Y-63087425D01*
X84822271Y-63104194D01*
X81762155Y-63104194D01*
X81726979Y-62936087D01*
X81609531Y-62558379D01*
X81456713Y-62193546D01*
X81391447Y-62071732D01*
X81318821Y-61936184D01*
X81269907Y-61844890D01*
X81133577Y-61639981D01*
X81052464Y-61518064D01*
X81052460Y-61518059D01*
X81050805Y-61515571D01*
X81020764Y-61478594D01*
X83196671Y-61478594D01*
X83197835Y-61487496D01*
X83197835Y-61487499D01*
X83204065Y-61535137D01*
X83215260Y-61620750D01*
X83273000Y-61751974D01*
X83278777Y-61758847D01*
X83278778Y-61758848D01*
X83351104Y-61844890D01*
X83365250Y-61861719D01*
X83372727Y-61866696D01*
X83468773Y-61930630D01*
X83484593Y-61941161D01*
X83621437Y-61983913D01*
X83630409Y-61984077D01*
X83630412Y-61984078D01*
X83695743Y-61985275D01*
X83764779Y-61986541D01*
X83773813Y-61984078D01*
X83894438Y-61951192D01*
X83894440Y-61951191D01*
X83903097Y-61948831D01*
X84004911Y-61886317D01*
X84073429Y-61867719D01*
X84140659Y-61888806D01*
X84191968Y-61922960D01*
X84328812Y-61965712D01*
X84337784Y-61965876D01*
X84337787Y-61965877D01*
X84403118Y-61967074D01*
X84472154Y-61968340D01*
X84481188Y-61965877D01*
X84601813Y-61932991D01*
X84601815Y-61932990D01*
X84610472Y-61930630D01*
X84732646Y-61855615D01*
X84754257Y-61831740D01*
X84822833Y-61755977D01*
X84828855Y-61749324D01*
X84891365Y-61620303D01*
X84915151Y-61478924D01*
X84915302Y-61466570D01*
X84899143Y-61353734D01*
X84896251Y-61333538D01*
X84896250Y-61333535D01*
X84894978Y-61324652D01*
X84886393Y-61305769D01*
X84843258Y-61210900D01*
X84835639Y-61194142D01*
X84782405Y-61132361D01*
X84747915Y-61092333D01*
X84747912Y-61092330D01*
X84742055Y-61085533D01*
X84621750Y-61007555D01*
X84484394Y-60966477D01*
X84475418Y-60966422D01*
X84475417Y-60966422D01*
X84416385Y-60966061D01*
X84341031Y-60965601D01*
X84332402Y-60968067D01*
X84325760Y-60968977D01*
X84255554Y-60958405D01*
X84202210Y-60911556D01*
X84182662Y-60843304D01*
X84184405Y-60823238D01*
X84206969Y-60689120D01*
X84207776Y-60684325D01*
X84207927Y-60671971D01*
X84187603Y-60530053D01*
X84183568Y-60521177D01*
X84163739Y-60477566D01*
X84128264Y-60399543D01*
X84056470Y-60316222D01*
X84040540Y-60297734D01*
X84040537Y-60297731D01*
X84034680Y-60290934D01*
X83914375Y-60212956D01*
X83777019Y-60171878D01*
X83768043Y-60171823D01*
X83768042Y-60171823D01*
X83707835Y-60171455D01*
X83633656Y-60171002D01*
X83495809Y-60210399D01*
X83374560Y-60286901D01*
X83279657Y-60394359D01*
X83218727Y-60524134D01*
X83196671Y-60665794D01*
X83197835Y-60674696D01*
X83197835Y-60674699D01*
X83199094Y-60684325D01*
X83215260Y-60807950D01*
X83273000Y-60939174D01*
X83278777Y-60946047D01*
X83278778Y-60946048D01*
X83321802Y-60997231D01*
X83350323Y-61062246D01*
X83339167Y-61132361D01*
X83319793Y-61161713D01*
X83315485Y-61166591D01*
X83279657Y-61207159D01*
X83218727Y-61336934D01*
X83213790Y-61368643D01*
X83199293Y-61461754D01*
X83196671Y-61478594D01*
X81020764Y-61478594D01*
X80868114Y-61290697D01*
X80803286Y-61210900D01*
X80803283Y-61210897D01*
X80801392Y-61208569D01*
X80799290Y-61206433D01*
X80526019Y-60928791D01*
X80526014Y-60928786D01*
X80523926Y-60926665D01*
X80512910Y-60917421D01*
X80223220Y-60674343D01*
X80220920Y-60672413D01*
X79895117Y-60448114D01*
X79612615Y-60290934D01*
X79552096Y-60257262D01*
X79552095Y-60257261D01*
X79549470Y-60255801D01*
X79546728Y-60254601D01*
X79546722Y-60254598D01*
X79355709Y-60171002D01*
X79187106Y-60097213D01*
X78811309Y-59973789D01*
X78535965Y-59911599D01*
X78428414Y-59887307D01*
X78428409Y-59887306D01*
X78425482Y-59886645D01*
X78422509Y-59886266D01*
X78422500Y-59886264D01*
X78201635Y-59858077D01*
X78033118Y-59836570D01*
X78030130Y-59836475D01*
X78030128Y-59836475D01*
X77699122Y-59825967D01*
X77637771Y-59824019D01*
X77634783Y-59824209D01*
X77634775Y-59824209D01*
X77265626Y-59847667D01*
X77243020Y-59849104D01*
X76852442Y-59911599D01*
X76469573Y-60010938D01*
X76466761Y-60011961D01*
X76466756Y-60011963D01*
X76247796Y-60091656D01*
X76097880Y-60146220D01*
X76095176Y-60147507D01*
X76095169Y-60147510D01*
X75947412Y-60217842D01*
X75740729Y-60316222D01*
X75738152Y-60317765D01*
X75738148Y-60317767D01*
X75403934Y-60517858D01*
X75403925Y-60517864D01*
X75401356Y-60519402D01*
X75249350Y-60631320D01*
X75085242Y-60752148D01*
X75085234Y-60752154D01*
X75082832Y-60753923D01*
X75002599Y-60825704D01*
X74799336Y-61007555D01*
X74788043Y-61017658D01*
X74521923Y-61305769D01*
X74521795Y-61305650D01*
X74521509Y-61306080D01*
X74519777Y-61307383D01*
X74519315Y-61307932D01*
X74516065Y-61314270D01*
X74515285Y-61315790D01*
X74505542Y-61330454D01*
X74503072Y-61335261D01*
X74493941Y-61346123D01*
X74490424Y-61359870D01*
X74488122Y-61364350D01*
X74485290Y-61371825D01*
X74484046Y-61376703D01*
X74477571Y-61389329D01*
X74477212Y-61403512D01*
X74475876Y-61408752D01*
X74474927Y-61415590D01*
X74474785Y-61420999D01*
X74471269Y-61434744D01*
X71749825Y-61434744D01*
X71541390Y-61129026D01*
X71538381Y-61124399D01*
X71089882Y-60400354D01*
X71087079Y-60395599D01*
X71085477Y-60392740D01*
X70670727Y-59652611D01*
X70668150Y-59647766D01*
X70323427Y-58963994D01*
X93915471Y-58963994D01*
X93916635Y-58972896D01*
X93916635Y-58972899D01*
X93917894Y-58982525D01*
X93934060Y-59106150D01*
X93991800Y-59237374D01*
X93997577Y-59244247D01*
X93997578Y-59244248D01*
X94004872Y-59252925D01*
X94084050Y-59347119D01*
X94203393Y-59426561D01*
X94340237Y-59469313D01*
X94349209Y-59469477D01*
X94349212Y-59469478D01*
X94414543Y-59470675D01*
X94483579Y-59471941D01*
X94492613Y-59469478D01*
X94613238Y-59436592D01*
X94613240Y-59436591D01*
X94621897Y-59434231D01*
X94744071Y-59359216D01*
X94840280Y-59252925D01*
X94902790Y-59123904D01*
X94926576Y-58982525D01*
X94926727Y-58970171D01*
X94906403Y-58828253D01*
X94847064Y-58697743D01*
X94828678Y-58676405D01*
X94759340Y-58595934D01*
X94759337Y-58595931D01*
X94753480Y-58589134D01*
X94633175Y-58511156D01*
X94495819Y-58470078D01*
X94486843Y-58470023D01*
X94486842Y-58470023D01*
X94426635Y-58469655D01*
X94352456Y-58469202D01*
X94214609Y-58508599D01*
X94093360Y-58585101D01*
X93998457Y-58692559D01*
X93937527Y-58822334D01*
X93915471Y-58963994D01*
X70323427Y-58963994D01*
X70284756Y-58887289D01*
X70282379Y-58882307D01*
X69932646Y-58105738D01*
X69930490Y-58100656D01*
X69854680Y-57910486D01*
X96314935Y-57910486D01*
X96316099Y-57919388D01*
X96316099Y-57919391D01*
X96317358Y-57929017D01*
X96333524Y-58052642D01*
X96337141Y-58060862D01*
X96380163Y-58158636D01*
X96391264Y-58183866D01*
X96397041Y-58190739D01*
X96397042Y-58190740D01*
X96397636Y-58191447D01*
X96483514Y-58293611D01*
X96602857Y-58373053D01*
X96739701Y-58415805D01*
X96748673Y-58415969D01*
X96748676Y-58415970D01*
X96814007Y-58417167D01*
X96883043Y-58418433D01*
X96892077Y-58415970D01*
X97012702Y-58383084D01*
X97012704Y-58383083D01*
X97021361Y-58380723D01*
X97143535Y-58305708D01*
X97239744Y-58199417D01*
X97302254Y-58070396D01*
X97326040Y-57929017D01*
X97326191Y-57916663D01*
X97305867Y-57774745D01*
X97246528Y-57644235D01*
X97228142Y-57622897D01*
X97158804Y-57542426D01*
X97158801Y-57542423D01*
X97152944Y-57535626D01*
X97032639Y-57457648D01*
X96895283Y-57416570D01*
X96886307Y-57416515D01*
X96886306Y-57416515D01*
X96826099Y-57416147D01*
X96751920Y-57415694D01*
X96614073Y-57455091D01*
X96492824Y-57531593D01*
X96397921Y-57639051D01*
X96336991Y-57768826D01*
X96314935Y-57910486D01*
X69854680Y-57910486D01*
X69615102Y-57309505D01*
X69613187Y-57304376D01*
X69385905Y-56652594D01*
X76389471Y-56652594D01*
X76390635Y-56661496D01*
X76390635Y-56661499D01*
X76397560Y-56714452D01*
X76408060Y-56794750D01*
X76465800Y-56925974D01*
X76471577Y-56932847D01*
X76471578Y-56932848D01*
X76478872Y-56941525D01*
X76558050Y-57035719D01*
X76677393Y-57115161D01*
X76814237Y-57157913D01*
X76823209Y-57158077D01*
X76823212Y-57158078D01*
X76888543Y-57159275D01*
X76957579Y-57160541D01*
X76966613Y-57158078D01*
X77087238Y-57125192D01*
X77087240Y-57125191D01*
X77095897Y-57122831D01*
X77218071Y-57047816D01*
X77314280Y-56941525D01*
X77376790Y-56812504D01*
X77400576Y-56671125D01*
X77400727Y-56658771D01*
X77389722Y-56581925D01*
X77381676Y-56525739D01*
X77381675Y-56525736D01*
X77380403Y-56516853D01*
X77321064Y-56386343D01*
X77302678Y-56365005D01*
X77233340Y-56284534D01*
X77233337Y-56284531D01*
X77227480Y-56277734D01*
X77183467Y-56249206D01*
X77696167Y-56249206D01*
X77697331Y-56258108D01*
X77697331Y-56258111D01*
X77705462Y-56320284D01*
X77714756Y-56391362D01*
X77772496Y-56522586D01*
X77778273Y-56529459D01*
X77778274Y-56529460D01*
X77810716Y-56568054D01*
X77864746Y-56632331D01*
X77984089Y-56711773D01*
X78120933Y-56754525D01*
X78129905Y-56754689D01*
X78129908Y-56754690D01*
X78195239Y-56755887D01*
X78264275Y-56757153D01*
X78273309Y-56754690D01*
X78393934Y-56721804D01*
X78393936Y-56721803D01*
X78402593Y-56719443D01*
X78524767Y-56644428D01*
X78544269Y-56622883D01*
X78614954Y-56544790D01*
X78620976Y-56538137D01*
X78683486Y-56409116D01*
X78707272Y-56267737D01*
X78707423Y-56255383D01*
X78698737Y-56194733D01*
X78688372Y-56122351D01*
X78688371Y-56122348D01*
X78687099Y-56113465D01*
X78627760Y-55982955D01*
X78609374Y-55961617D01*
X78540036Y-55881146D01*
X78540033Y-55881143D01*
X78534176Y-55874346D01*
X78413871Y-55796368D01*
X78276515Y-55755290D01*
X78267539Y-55755235D01*
X78267538Y-55755235D01*
X78207331Y-55754867D01*
X78133152Y-55754414D01*
X77995305Y-55793811D01*
X77874056Y-55870313D01*
X77779153Y-55977771D01*
X77718223Y-56107546D01*
X77710262Y-56158678D01*
X77703519Y-56201988D01*
X77696167Y-56249206D01*
X77183467Y-56249206D01*
X77107175Y-56199756D01*
X76969819Y-56158678D01*
X76960843Y-56158623D01*
X76960842Y-56158623D01*
X76900635Y-56158255D01*
X76826456Y-56157802D01*
X76688609Y-56197199D01*
X76567360Y-56273701D01*
X76472457Y-56381159D01*
X76411527Y-56510934D01*
X76403756Y-56560847D01*
X76392626Y-56632331D01*
X76389471Y-56652594D01*
X69385905Y-56652594D01*
X69348652Y-56545764D01*
X69341626Y-56504207D01*
X69341681Y-56409116D01*
X69342520Y-54944173D01*
X96929879Y-54944173D01*
X96948468Y-55086329D01*
X96952085Y-55094549D01*
X96983551Y-55166060D01*
X97006208Y-55217553D01*
X97011985Y-55224426D01*
X97011986Y-55224427D01*
X97019280Y-55233104D01*
X97098458Y-55327298D01*
X97217801Y-55406740D01*
X97354645Y-55449492D01*
X97363617Y-55449656D01*
X97363620Y-55449657D01*
X97428951Y-55450854D01*
X97497987Y-55452120D01*
X97507021Y-55449657D01*
X97627646Y-55416771D01*
X97627648Y-55416770D01*
X97636305Y-55414410D01*
X97758479Y-55339395D01*
X97854688Y-55233104D01*
X97917198Y-55104083D01*
X97917319Y-55104142D01*
X97954289Y-55049462D01*
X98019539Y-55021482D01*
X98036869Y-55020605D01*
X98172628Y-55023094D01*
X98172587Y-55025311D01*
X98230513Y-55034761D01*
X98283280Y-55082261D01*
X98296885Y-55112789D01*
X98309215Y-55154682D01*
X98313814Y-55166066D01*
X98399687Y-55330325D01*
X98406401Y-55340586D01*
X98522548Y-55485044D01*
X98531126Y-55493803D01*
X98673119Y-55612949D01*
X98683239Y-55619879D01*
X98845665Y-55709173D01*
X98856938Y-55714005D01*
X99033618Y-55770051D01*
X99045612Y-55772601D01*
X99189841Y-55788778D01*
X99196865Y-55789171D01*
X99527965Y-55789171D01*
X99543204Y-55784696D01*
X99544409Y-55783306D01*
X99546080Y-55775623D01*
X99546080Y-55771056D01*
X100054080Y-55771056D01*
X100058555Y-55786295D01*
X100059945Y-55787500D01*
X100067628Y-55789171D01*
X100396737Y-55789171D01*
X100402885Y-55788870D01*
X100540683Y-55775359D01*
X100552718Y-55772976D01*
X100730156Y-55719404D01*
X100741496Y-55714730D01*
X100905157Y-55627711D01*
X100915374Y-55620922D01*
X101059013Y-55503774D01*
X101067717Y-55495130D01*
X101185864Y-55352315D01*
X101192724Y-55342144D01*
X101280884Y-55179095D01*
X101285636Y-55167790D01*
X101321330Y-55052479D01*
X101321411Y-55046939D01*
X102707505Y-55046939D01*
X102739218Y-55154692D01*
X102743811Y-55166060D01*
X102829687Y-55330325D01*
X102836401Y-55340586D01*
X102952548Y-55485044D01*
X102961126Y-55493803D01*
X103103119Y-55612949D01*
X103113239Y-55619879D01*
X103275665Y-55709173D01*
X103286938Y-55714005D01*
X103463618Y-55770051D01*
X103475612Y-55772601D01*
X103619841Y-55788778D01*
X103626865Y-55789171D01*
X103707965Y-55789171D01*
X103723204Y-55784696D01*
X103724409Y-55783306D01*
X103726080Y-55775623D01*
X103726080Y-55771056D01*
X104234080Y-55771056D01*
X104238555Y-55786295D01*
X104239945Y-55787500D01*
X104247628Y-55789171D01*
X104326737Y-55789171D01*
X104332885Y-55788870D01*
X104470683Y-55775359D01*
X104482718Y-55772976D01*
X104660156Y-55719404D01*
X104671496Y-55714730D01*
X104835157Y-55627711D01*
X104845374Y-55620922D01*
X104989013Y-55503774D01*
X104997717Y-55495130D01*
X105115864Y-55352315D01*
X105122724Y-55342144D01*
X105210884Y-55179095D01*
X105215636Y-55167790D01*
X105251330Y-55052479D01*
X105251536Y-55038376D01*
X105244781Y-55035171D01*
X104252195Y-55035171D01*
X104236956Y-55039646D01*
X104235751Y-55041036D01*
X104234080Y-55048719D01*
X104234080Y-55771056D01*
X103726080Y-55771056D01*
X103726080Y-55053286D01*
X103721605Y-55038047D01*
X103720215Y-55036842D01*
X103712532Y-55035171D01*
X102722156Y-55035171D01*
X102708625Y-55039144D01*
X102707505Y-55046939D01*
X101321411Y-55046939D01*
X101321536Y-55038376D01*
X101314781Y-55035171D01*
X100072195Y-55035171D01*
X100056956Y-55039646D01*
X100055751Y-55041036D01*
X100054080Y-55048719D01*
X100054080Y-55771056D01*
X99546080Y-55771056D01*
X99546080Y-54653171D01*
X99566082Y-54585050D01*
X99619738Y-54538557D01*
X99672080Y-54527171D01*
X101308004Y-54527171D01*
X101318919Y-54523966D01*
X102708624Y-54523966D01*
X102715379Y-54527171D01*
X103707965Y-54527171D01*
X103723204Y-54522696D01*
X103724409Y-54521306D01*
X103726080Y-54513623D01*
X103726080Y-54509056D01*
X104234080Y-54509056D01*
X104238555Y-54524295D01*
X104239945Y-54525500D01*
X104247628Y-54527171D01*
X105238004Y-54527171D01*
X105251535Y-54523198D01*
X105252655Y-54515403D01*
X105220942Y-54407650D01*
X105216349Y-54396282D01*
X105130473Y-54232017D01*
X105123759Y-54221756D01*
X105007612Y-54077298D01*
X104999034Y-54068539D01*
X104857041Y-53949393D01*
X104846921Y-53942463D01*
X104684495Y-53853169D01*
X104673222Y-53848337D01*
X104496542Y-53792291D01*
X104484548Y-53789741D01*
X104340319Y-53773564D01*
X104333295Y-53773171D01*
X104252195Y-53773171D01*
X104236956Y-53777646D01*
X104235751Y-53779036D01*
X104234080Y-53786719D01*
X104234080Y-54509056D01*
X103726080Y-54509056D01*
X103726080Y-53791286D01*
X103721605Y-53776047D01*
X103720215Y-53774842D01*
X103712532Y-53773171D01*
X103633423Y-53773171D01*
X103627275Y-53773472D01*
X103489477Y-53786983D01*
X103477442Y-53789366D01*
X103300004Y-53842938D01*
X103288664Y-53847612D01*
X103125003Y-53934631D01*
X103114786Y-53941420D01*
X102971147Y-54058568D01*
X102962443Y-54067212D01*
X102844296Y-54210027D01*
X102837436Y-54220198D01*
X102749276Y-54383247D01*
X102744524Y-54394552D01*
X102708830Y-54509863D01*
X102708624Y-54523966D01*
X101318919Y-54523966D01*
X101321535Y-54523198D01*
X101322655Y-54515403D01*
X101290942Y-54407650D01*
X101286349Y-54396282D01*
X101200473Y-54232017D01*
X101193759Y-54221756D01*
X101077612Y-54077298D01*
X101069034Y-54068539D01*
X100927041Y-53949393D01*
X100916928Y-53942469D01*
X100823864Y-53891306D01*
X100773805Y-53840960D01*
X100758912Y-53771543D01*
X100784601Y-53704189D01*
X100832778Y-53641404D01*
X100890767Y-53501407D01*
X100910546Y-53351171D01*
X100890767Y-53200935D01*
X100832778Y-53060938D01*
X100740531Y-52940720D01*
X100620313Y-52848473D01*
X100480316Y-52790484D01*
X100367800Y-52775671D01*
X100292360Y-52775671D01*
X100179844Y-52790484D01*
X100039847Y-52848473D01*
X99919629Y-52940720D01*
X99827382Y-53060938D01*
X99769393Y-53200935D01*
X99749614Y-53351171D01*
X99769393Y-53501407D01*
X99772553Y-53509036D01*
X99809798Y-53598953D01*
X99817387Y-53669543D01*
X99785608Y-53733030D01*
X99724550Y-53769257D01*
X99693389Y-53773171D01*
X99203423Y-53773171D01*
X99197275Y-53773472D01*
X99059477Y-53786983D01*
X99047442Y-53789366D01*
X98870004Y-53842938D01*
X98858664Y-53847612D01*
X98695003Y-53934631D01*
X98684786Y-53941420D01*
X98541147Y-54058568D01*
X98528072Y-54071553D01*
X98527005Y-54070479D01*
X98474374Y-54106031D01*
X98403396Y-54107656D01*
X98367590Y-54091714D01*
X98322224Y-54062309D01*
X98184868Y-54021231D01*
X98175892Y-54021176D01*
X98175891Y-54021176D01*
X98115684Y-54020808D01*
X98041505Y-54020355D01*
X97903658Y-54059752D01*
X97782409Y-54136254D01*
X97687506Y-54243712D01*
X97626576Y-54373487D01*
X97624262Y-54372401D01*
X97592639Y-54420424D01*
X97527735Y-54449197D01*
X97510234Y-54449051D01*
X97510227Y-54450257D01*
X97366864Y-54449381D01*
X97229017Y-54488778D01*
X97107768Y-54565280D01*
X97012865Y-54672738D01*
X96951935Y-54802513D01*
X96929879Y-54944173D01*
X69342520Y-54944173D01*
X69343637Y-52994994D01*
X76697557Y-52994994D01*
X76698721Y-53003896D01*
X76698721Y-53003899D01*
X76699980Y-53013525D01*
X76716146Y-53137150D01*
X76773886Y-53268374D01*
X76779663Y-53275247D01*
X76779664Y-53275248D01*
X76860356Y-53371243D01*
X76866136Y-53378119D01*
X76985479Y-53457561D01*
X77122323Y-53500313D01*
X77131295Y-53500477D01*
X77131298Y-53500478D01*
X77196629Y-53501675D01*
X77265665Y-53502941D01*
X77274699Y-53500478D01*
X77395324Y-53467592D01*
X77395326Y-53467591D01*
X77403983Y-53465231D01*
X77526157Y-53390216D01*
X77561499Y-53351171D01*
X77616344Y-53290578D01*
X77622366Y-53283925D01*
X77662574Y-53200935D01*
X77680961Y-53162985D01*
X77680961Y-53162984D01*
X77684876Y-53154904D01*
X77708662Y-53013525D01*
X77708813Y-53001171D01*
X77688489Y-52859253D01*
X77629150Y-52728743D01*
X77623292Y-52721944D01*
X77623289Y-52721940D01*
X77581090Y-52672967D01*
X77551776Y-52608305D01*
X77562075Y-52538059D01*
X77583126Y-52506166D01*
X77622366Y-52462814D01*
X77684876Y-52333793D01*
X77708662Y-52192414D01*
X77708813Y-52180060D01*
X77688489Y-52038142D01*
X77629150Y-51907632D01*
X77587730Y-51859562D01*
X77541426Y-51805823D01*
X77541423Y-51805820D01*
X77535566Y-51799023D01*
X77415261Y-51721045D01*
X77277905Y-51679967D01*
X77268929Y-51679912D01*
X77268928Y-51679912D01*
X77208721Y-51679544D01*
X77134542Y-51679091D01*
X76996695Y-51718488D01*
X76875446Y-51794990D01*
X76780543Y-51902448D01*
X76719613Y-52032223D01*
X76697557Y-52173883D01*
X76698721Y-52182785D01*
X76698721Y-52182788D01*
X76699980Y-52192414D01*
X76716146Y-52316039D01*
X76773886Y-52447263D01*
X76779663Y-52454136D01*
X76779664Y-52454137D01*
X76826267Y-52509578D01*
X76854788Y-52574594D01*
X76843632Y-52644708D01*
X76824258Y-52674060D01*
X76794450Y-52707812D01*
X76780543Y-52723559D01*
X76719613Y-52853334D01*
X76697557Y-52994994D01*
X69343637Y-52994994D01*
X69344510Y-51470994D01*
X72071471Y-51470994D01*
X72072635Y-51479896D01*
X72072635Y-51479899D01*
X72073894Y-51489525D01*
X72090060Y-51613150D01*
X72147800Y-51744374D01*
X72153577Y-51751247D01*
X72153578Y-51751248D01*
X72190347Y-51794990D01*
X72240050Y-51854119D01*
X72359393Y-51933561D01*
X72496237Y-51976313D01*
X72505209Y-51976477D01*
X72505212Y-51976478D01*
X72570543Y-51977675D01*
X72639579Y-51978941D01*
X72648613Y-51976478D01*
X72769238Y-51943592D01*
X72769240Y-51943591D01*
X72777897Y-51941231D01*
X72900071Y-51866216D01*
X72996280Y-51759925D01*
X73058790Y-51630904D01*
X73082576Y-51489525D01*
X73082727Y-51477171D01*
X73068714Y-51379321D01*
X73063676Y-51344139D01*
X73063675Y-51344136D01*
X73062403Y-51335253D01*
X73003064Y-51204743D01*
X72984678Y-51183405D01*
X72915340Y-51102934D01*
X72915337Y-51102931D01*
X72909480Y-51096134D01*
X72877641Y-51075497D01*
X72831357Y-51021661D01*
X72821526Y-50951349D01*
X72851270Y-50886883D01*
X72880244Y-50862390D01*
X72892422Y-50854913D01*
X72892424Y-50854911D01*
X72900071Y-50850216D01*
X72912944Y-50835994D01*
X75754471Y-50835994D01*
X75755635Y-50844896D01*
X75755635Y-50844899D01*
X75763766Y-50907072D01*
X75773060Y-50978150D01*
X75776677Y-50986370D01*
X75826161Y-51098830D01*
X75830800Y-51109374D01*
X75923050Y-51219119D01*
X76042393Y-51298561D01*
X76179237Y-51341313D01*
X76188209Y-51341477D01*
X76188212Y-51341478D01*
X76253543Y-51342675D01*
X76322579Y-51343941D01*
X76331613Y-51341478D01*
X76452238Y-51308592D01*
X76452240Y-51308591D01*
X76460897Y-51306231D01*
X76583071Y-51231216D01*
X76589092Y-51224564D01*
X76589098Y-51224559D01*
X76620549Y-51189812D01*
X76681092Y-51152731D01*
X76752072Y-51154268D01*
X76810415Y-51193292D01*
X76863850Y-51256861D01*
X76871327Y-51261838D01*
X76972724Y-51329334D01*
X76983193Y-51336303D01*
X76991768Y-51338982D01*
X77000081Y-51341579D01*
X77120037Y-51379055D01*
X77129009Y-51379219D01*
X77129012Y-51379220D01*
X77194343Y-51380417D01*
X77263379Y-51381683D01*
X77272413Y-51379220D01*
X77393038Y-51346334D01*
X77393040Y-51346333D01*
X77401697Y-51343973D01*
X77523871Y-51268958D01*
X77553783Y-51235912D01*
X77614058Y-51169320D01*
X77620080Y-51162667D01*
X77662429Y-51075258D01*
X77678675Y-51041727D01*
X77678675Y-51041726D01*
X77682590Y-51033646D01*
X77706376Y-50892267D01*
X77706527Y-50879913D01*
X77686203Y-50737995D01*
X77670386Y-50703206D01*
X77666352Y-50694334D01*
X77626864Y-50607485D01*
X77593375Y-50568619D01*
X77539140Y-50505676D01*
X77539137Y-50505673D01*
X77533280Y-50498876D01*
X77412975Y-50420898D01*
X77275619Y-50379820D01*
X77266643Y-50379765D01*
X77266642Y-50379765D01*
X77206435Y-50379397D01*
X77132256Y-50378944D01*
X76994409Y-50418341D01*
X76873160Y-50494843D01*
X76867219Y-50501570D01*
X76867213Y-50501575D01*
X76841403Y-50530800D01*
X76781318Y-50568619D01*
X76710324Y-50567949D01*
X76651509Y-50529640D01*
X76598343Y-50467937D01*
X76598338Y-50467933D01*
X76592480Y-50461134D01*
X76472175Y-50383156D01*
X76334819Y-50342078D01*
X76325843Y-50342023D01*
X76325842Y-50342023D01*
X76265635Y-50341655D01*
X76191456Y-50341202D01*
X76053609Y-50380599D01*
X75932360Y-50457101D01*
X75837457Y-50564559D01*
X75776527Y-50694334D01*
X75754471Y-50835994D01*
X72912944Y-50835994D01*
X72996280Y-50743925D01*
X73058790Y-50614904D01*
X73082576Y-50473525D01*
X73082727Y-50461171D01*
X73070835Y-50378133D01*
X73063676Y-50328139D01*
X73063675Y-50328136D01*
X73062403Y-50319253D01*
X73003064Y-50188743D01*
X72984678Y-50167405D01*
X72915340Y-50086934D01*
X72915337Y-50086931D01*
X72909480Y-50080134D01*
X72789175Y-50002156D01*
X72651819Y-49961078D01*
X72642843Y-49961023D01*
X72642842Y-49961023D01*
X72582635Y-49960655D01*
X72508456Y-49960202D01*
X72370609Y-49999599D01*
X72249360Y-50076101D01*
X72154457Y-50183559D01*
X72093527Y-50313334D01*
X72089060Y-50342023D01*
X72076780Y-50420898D01*
X72071471Y-50454994D01*
X72072635Y-50463896D01*
X72072635Y-50463899D01*
X72076682Y-50494843D01*
X72090060Y-50597150D01*
X72147800Y-50728374D01*
X72153577Y-50735247D01*
X72153578Y-50735248D01*
X72155887Y-50737995D01*
X72240050Y-50838119D01*
X72247527Y-50843096D01*
X72247529Y-50843098D01*
X72278642Y-50863809D01*
X72324264Y-50918207D01*
X72333234Y-50988634D01*
X72302704Y-51052731D01*
X72276060Y-51075255D01*
X72249360Y-51092101D01*
X72154457Y-51199559D01*
X72093527Y-51329334D01*
X72071471Y-51470994D01*
X69344510Y-51470994D01*
X69346183Y-48549994D01*
X75754471Y-48549994D01*
X75755635Y-48558896D01*
X75755635Y-48558899D01*
X75756894Y-48568525D01*
X75773060Y-48692150D01*
X75830800Y-48823374D01*
X75836577Y-48830247D01*
X75836578Y-48830248D01*
X75843872Y-48838925D01*
X75923050Y-48933119D01*
X76042393Y-49012561D01*
X76179237Y-49055313D01*
X76188209Y-49055477D01*
X76188212Y-49055478D01*
X76253543Y-49056675D01*
X76322579Y-49057941D01*
X76331613Y-49055478D01*
X76452238Y-49022592D01*
X76452240Y-49022591D01*
X76460897Y-49020231D01*
X76583071Y-48945216D01*
X76679280Y-48838925D01*
X76741790Y-48709904D01*
X76765576Y-48568525D01*
X76765727Y-48556171D01*
X76745403Y-48414253D01*
X76686064Y-48283743D01*
X76667678Y-48262405D01*
X76598340Y-48181934D01*
X76598337Y-48181931D01*
X76592480Y-48175134D01*
X76472175Y-48097156D01*
X76334819Y-48056078D01*
X76325843Y-48056023D01*
X76325842Y-48056023D01*
X76265635Y-48055655D01*
X76191456Y-48055202D01*
X76053609Y-48094599D01*
X75932360Y-48171101D01*
X75837457Y-48278559D01*
X75776527Y-48408334D01*
X75754471Y-48549994D01*
X69346183Y-48549994D01*
X69346336Y-48283743D01*
X69347411Y-46406939D01*
X98277505Y-46406939D01*
X98309218Y-46514692D01*
X98313811Y-46526060D01*
X98399687Y-46690325D01*
X98406401Y-46700586D01*
X98522548Y-46845044D01*
X98531126Y-46853803D01*
X98673119Y-46972949D01*
X98683239Y-46979879D01*
X98845665Y-47069173D01*
X98856938Y-47074005D01*
X99033618Y-47130051D01*
X99045612Y-47132601D01*
X99189841Y-47148778D01*
X99196865Y-47149171D01*
X99693389Y-47149171D01*
X99761510Y-47169173D01*
X99808003Y-47222829D01*
X99818107Y-47293103D01*
X99809798Y-47323389D01*
X99769393Y-47420935D01*
X99749614Y-47571171D01*
X99769393Y-47721407D01*
X99827382Y-47861404D01*
X99919629Y-47981622D01*
X100039847Y-48073869D01*
X100179844Y-48131858D01*
X100292360Y-48146671D01*
X100367800Y-48146671D01*
X100480316Y-48131858D01*
X100620313Y-48073869D01*
X100740531Y-47981622D01*
X100832778Y-47861404D01*
X100890767Y-47721407D01*
X100910546Y-47571171D01*
X100890767Y-47420935D01*
X100832778Y-47280938D01*
X100784555Y-47218093D01*
X100758954Y-47151873D01*
X100773219Y-47082324D01*
X100825364Y-47030137D01*
X100905157Y-46987711D01*
X100915374Y-46980922D01*
X101059013Y-46863774D01*
X101067717Y-46855130D01*
X101185864Y-46712315D01*
X101192724Y-46702144D01*
X101280884Y-46539095D01*
X101285636Y-46527790D01*
X101321330Y-46412479D01*
X101321411Y-46406939D01*
X102707505Y-46406939D01*
X102739218Y-46514692D01*
X102743811Y-46526060D01*
X102829687Y-46690325D01*
X102836401Y-46700586D01*
X102952548Y-46845044D01*
X102961126Y-46853803D01*
X103103119Y-46972949D01*
X103113239Y-46979879D01*
X103275665Y-47069173D01*
X103286938Y-47074005D01*
X103463618Y-47130051D01*
X103475612Y-47132601D01*
X103619841Y-47148778D01*
X103626865Y-47149171D01*
X103707965Y-47149171D01*
X103723204Y-47144696D01*
X103724409Y-47143306D01*
X103726080Y-47135623D01*
X103726080Y-47131056D01*
X104234080Y-47131056D01*
X104238555Y-47146295D01*
X104239945Y-47147500D01*
X104247628Y-47149171D01*
X104326737Y-47149171D01*
X104332885Y-47148870D01*
X104470683Y-47135359D01*
X104482718Y-47132976D01*
X104660156Y-47079404D01*
X104671496Y-47074730D01*
X104835157Y-46987711D01*
X104845374Y-46980922D01*
X104989013Y-46863774D01*
X104997717Y-46855130D01*
X105115864Y-46712315D01*
X105122724Y-46702144D01*
X105210884Y-46539095D01*
X105215636Y-46527790D01*
X105251330Y-46412479D01*
X105251536Y-46398376D01*
X105244781Y-46395171D01*
X104252195Y-46395171D01*
X104236956Y-46399646D01*
X104235751Y-46401036D01*
X104234080Y-46408719D01*
X104234080Y-47131056D01*
X103726080Y-47131056D01*
X103726080Y-46413286D01*
X103721605Y-46398047D01*
X103720215Y-46396842D01*
X103712532Y-46395171D01*
X102722156Y-46395171D01*
X102708625Y-46399144D01*
X102707505Y-46406939D01*
X101321411Y-46406939D01*
X101321536Y-46398376D01*
X101314781Y-46395171D01*
X98292156Y-46395171D01*
X98278625Y-46399144D01*
X98277505Y-46406939D01*
X69347411Y-46406939D01*
X69347710Y-45883966D01*
X98278624Y-45883966D01*
X98285379Y-45887171D01*
X99527965Y-45887171D01*
X99543204Y-45882696D01*
X99544409Y-45881306D01*
X99546080Y-45873623D01*
X99546080Y-45869056D01*
X100054080Y-45869056D01*
X100058555Y-45884295D01*
X100059945Y-45885500D01*
X100067628Y-45887171D01*
X101308004Y-45887171D01*
X101318919Y-45883966D01*
X102708624Y-45883966D01*
X102715379Y-45887171D01*
X103707965Y-45887171D01*
X103723204Y-45882696D01*
X103724409Y-45881306D01*
X103726080Y-45873623D01*
X103726080Y-45869056D01*
X104234080Y-45869056D01*
X104238555Y-45884295D01*
X104239945Y-45885500D01*
X104247628Y-45887171D01*
X105238004Y-45887171D01*
X105251535Y-45883198D01*
X105252655Y-45875403D01*
X105220942Y-45767650D01*
X105216349Y-45756282D01*
X105130473Y-45592017D01*
X105123759Y-45581756D01*
X105007612Y-45437298D01*
X104999034Y-45428539D01*
X104857041Y-45309393D01*
X104846921Y-45302463D01*
X104684495Y-45213169D01*
X104673222Y-45208337D01*
X104496542Y-45152291D01*
X104484548Y-45149741D01*
X104340319Y-45133564D01*
X104333295Y-45133171D01*
X104252195Y-45133171D01*
X104236956Y-45137646D01*
X104235751Y-45139036D01*
X104234080Y-45146719D01*
X104234080Y-45869056D01*
X103726080Y-45869056D01*
X103726080Y-45151286D01*
X103721605Y-45136047D01*
X103720215Y-45134842D01*
X103712532Y-45133171D01*
X103633423Y-45133171D01*
X103627275Y-45133472D01*
X103489477Y-45146983D01*
X103477442Y-45149366D01*
X103300004Y-45202938D01*
X103288664Y-45207612D01*
X103125003Y-45294631D01*
X103114786Y-45301420D01*
X102971147Y-45418568D01*
X102962443Y-45427212D01*
X102844296Y-45570027D01*
X102837436Y-45580198D01*
X102749276Y-45743247D01*
X102744524Y-45754552D01*
X102708830Y-45869863D01*
X102708624Y-45883966D01*
X101318919Y-45883966D01*
X101321535Y-45883198D01*
X101322655Y-45875403D01*
X101290942Y-45767650D01*
X101286349Y-45756282D01*
X101200473Y-45592017D01*
X101193759Y-45581756D01*
X101077612Y-45437298D01*
X101069034Y-45428539D01*
X100927041Y-45309393D01*
X100916921Y-45302463D01*
X100754495Y-45213169D01*
X100743222Y-45208337D01*
X100566542Y-45152291D01*
X100554548Y-45149741D01*
X100410319Y-45133564D01*
X100403295Y-45133171D01*
X100072195Y-45133171D01*
X100056956Y-45137646D01*
X100055751Y-45139036D01*
X100054080Y-45146719D01*
X100054080Y-45869056D01*
X99546080Y-45869056D01*
X99546080Y-45151286D01*
X99541605Y-45136047D01*
X99540215Y-45134842D01*
X99532532Y-45133171D01*
X99203423Y-45133171D01*
X99197275Y-45133472D01*
X99059477Y-45146983D01*
X99047442Y-45149366D01*
X98870004Y-45202938D01*
X98858664Y-45207612D01*
X98695003Y-45294631D01*
X98684786Y-45301420D01*
X98541147Y-45418568D01*
X98532443Y-45427212D01*
X98414296Y-45570027D01*
X98407436Y-45580198D01*
X98319276Y-45743247D01*
X98314524Y-45754552D01*
X98278830Y-45869863D01*
X98278624Y-45883966D01*
X69347710Y-45883966D01*
X69348220Y-44993994D01*
X76643471Y-44993994D01*
X76644635Y-45002896D01*
X76644635Y-45002899D01*
X76645894Y-45012525D01*
X76662060Y-45136150D01*
X76719800Y-45267374D01*
X76725577Y-45274247D01*
X76725578Y-45274248D01*
X76806270Y-45370243D01*
X76812050Y-45377119D01*
X76819527Y-45382096D01*
X76889297Y-45428539D01*
X76931393Y-45456561D01*
X77068237Y-45499313D01*
X77077209Y-45499477D01*
X77077212Y-45499478D01*
X77142543Y-45500675D01*
X77211579Y-45501941D01*
X77220613Y-45499478D01*
X77341238Y-45466592D01*
X77341240Y-45466591D01*
X77349897Y-45464231D01*
X77472071Y-45389216D01*
X77568280Y-45282925D01*
X77603169Y-45210914D01*
X77626875Y-45161985D01*
X77626875Y-45161984D01*
X77630790Y-45153904D01*
X77654576Y-45012525D01*
X77654727Y-45000171D01*
X77634403Y-44858253D01*
X77575064Y-44727743D01*
X77556678Y-44706405D01*
X77487340Y-44625934D01*
X77487337Y-44625931D01*
X77481480Y-44619134D01*
X77361175Y-44541156D01*
X77223819Y-44500078D01*
X77214843Y-44500023D01*
X77214842Y-44500023D01*
X77154635Y-44499655D01*
X77080456Y-44499202D01*
X76942609Y-44538599D01*
X76821360Y-44615101D01*
X76726457Y-44722559D01*
X76665527Y-44852334D01*
X76643471Y-44993994D01*
X69348220Y-44993994D01*
X69348549Y-44420234D01*
X69355548Y-44378897D01*
X69617029Y-43627462D01*
X69618940Y-43622332D01*
X69930577Y-42838262D01*
X69932708Y-42833221D01*
X70278118Y-42063389D01*
X70280467Y-42058445D01*
X70658972Y-41304364D01*
X70661533Y-41299527D01*
X70867576Y-40929994D01*
X75627471Y-40929994D01*
X75628635Y-40938896D01*
X75628635Y-40938899D01*
X75630617Y-40954052D01*
X75646060Y-41072150D01*
X75649677Y-41080370D01*
X75698603Y-41191562D01*
X75703800Y-41203374D01*
X75709577Y-41210247D01*
X75709578Y-41210248D01*
X75751203Y-41259767D01*
X75796050Y-41313119D01*
X75804227Y-41318562D01*
X75885901Y-41372929D01*
X75915393Y-41392561D01*
X76052237Y-41435313D01*
X76061209Y-41435477D01*
X76061212Y-41435478D01*
X76126543Y-41436675D01*
X76195579Y-41437941D01*
X76204613Y-41435478D01*
X76325238Y-41402592D01*
X76325240Y-41402591D01*
X76333897Y-41400231D01*
X76456071Y-41325216D01*
X76463387Y-41317134D01*
X76536297Y-41236583D01*
X76552280Y-41218925D01*
X76604038Y-41112097D01*
X76610875Y-41097985D01*
X76610875Y-41097984D01*
X76614790Y-41089904D01*
X76638576Y-40948525D01*
X76638727Y-40936171D01*
X76630553Y-40879095D01*
X76619676Y-40803139D01*
X76619675Y-40803136D01*
X76619655Y-40802994D01*
X92137471Y-40802994D01*
X92138635Y-40811896D01*
X92138635Y-40811899D01*
X92139894Y-40821525D01*
X92156060Y-40945150D01*
X92213800Y-41076374D01*
X92219577Y-41083247D01*
X92219578Y-41083248D01*
X92225173Y-41089904D01*
X92306050Y-41186119D01*
X92425393Y-41265561D01*
X92562237Y-41308313D01*
X92571209Y-41308477D01*
X92571212Y-41308478D01*
X92636543Y-41309675D01*
X92705579Y-41310941D01*
X92714613Y-41308478D01*
X92835238Y-41275592D01*
X92835240Y-41275591D01*
X92843897Y-41273231D01*
X92966071Y-41198216D01*
X93062280Y-41091925D01*
X93124790Y-40962904D01*
X93130327Y-40929994D01*
X95058471Y-40929994D01*
X95059635Y-40938896D01*
X95059635Y-40938899D01*
X95061617Y-40954052D01*
X95077060Y-41072150D01*
X95080677Y-41080370D01*
X95129603Y-41191562D01*
X95134800Y-41203374D01*
X95140577Y-41210247D01*
X95140578Y-41210248D01*
X95182203Y-41259767D01*
X95227050Y-41313119D01*
X95235227Y-41318562D01*
X95316901Y-41372929D01*
X95346393Y-41392561D01*
X95483237Y-41435313D01*
X95492209Y-41435477D01*
X95492212Y-41435478D01*
X95557543Y-41436675D01*
X95626579Y-41437941D01*
X95635613Y-41435478D01*
X95756238Y-41402592D01*
X95756240Y-41402591D01*
X95764897Y-41400231D01*
X95887071Y-41325216D01*
X95893516Y-41318096D01*
X95914139Y-41295312D01*
X95974682Y-41258230D01*
X96045662Y-41259767D01*
X96104004Y-41298789D01*
X96116050Y-41313119D01*
X96124227Y-41318562D01*
X96205901Y-41372929D01*
X96235393Y-41392561D01*
X96306101Y-41414651D01*
X96365156Y-41454055D01*
X96393533Y-41519133D01*
X96382222Y-41589223D01*
X96335761Y-41641479D01*
X96252360Y-41694101D01*
X96157457Y-41801559D01*
X96096527Y-41931334D01*
X96088806Y-41980925D01*
X96083489Y-42015076D01*
X96074471Y-42072994D01*
X96075635Y-42081896D01*
X96075635Y-42081899D01*
X96077521Y-42096320D01*
X96093060Y-42215150D01*
X96150800Y-42346374D01*
X96156577Y-42353247D01*
X96156578Y-42353248D01*
X96163872Y-42361925D01*
X96243050Y-42456119D01*
X96362393Y-42535561D01*
X96499237Y-42578313D01*
X96508209Y-42578477D01*
X96508212Y-42578478D01*
X96573543Y-42579675D01*
X96642579Y-42580941D01*
X96651613Y-42578478D01*
X96772238Y-42545592D01*
X96772240Y-42545591D01*
X96780897Y-42543231D01*
X96903071Y-42468216D01*
X96999280Y-42361925D01*
X97061790Y-42232904D01*
X97085576Y-42091525D01*
X97085727Y-42079171D01*
X97070415Y-41972248D01*
X97066676Y-41946139D01*
X97066675Y-41946136D01*
X97065403Y-41937253D01*
X97006064Y-41806743D01*
X96987678Y-41785405D01*
X96918340Y-41704934D01*
X96918337Y-41704931D01*
X96912480Y-41698134D01*
X96903007Y-41691994D01*
X98106471Y-41691994D01*
X98107635Y-41700896D01*
X98107635Y-41700899D01*
X98108894Y-41710525D01*
X98125060Y-41834150D01*
X98182800Y-41965374D01*
X98188577Y-41972247D01*
X98188578Y-41972248D01*
X98195872Y-41980925D01*
X98275050Y-42075119D01*
X98394393Y-42154561D01*
X98531237Y-42197313D01*
X98540209Y-42197477D01*
X98540212Y-42197478D01*
X98605543Y-42198675D01*
X98674579Y-42199941D01*
X98683613Y-42197478D01*
X98804238Y-42164592D01*
X98804240Y-42164591D01*
X98812897Y-42162231D01*
X98935071Y-42087216D01*
X99031280Y-41980925D01*
X99093790Y-41851904D01*
X99117576Y-41710525D01*
X99117727Y-41698171D01*
X99100672Y-41579078D01*
X99098676Y-41565139D01*
X99098675Y-41565136D01*
X99097403Y-41556253D01*
X99038064Y-41425743D01*
X99011779Y-41395238D01*
X98950340Y-41323934D01*
X98950337Y-41323931D01*
X98944480Y-41317134D01*
X98824175Y-41239156D01*
X98686819Y-41198078D01*
X98677843Y-41198023D01*
X98677842Y-41198023D01*
X98617635Y-41197655D01*
X98543456Y-41197202D01*
X98405609Y-41236599D01*
X98284360Y-41313101D01*
X98189457Y-41420559D01*
X98128527Y-41550334D01*
X98106471Y-41691994D01*
X96903007Y-41691994D01*
X96792175Y-41620156D01*
X96783571Y-41617583D01*
X96783569Y-41617582D01*
X96751868Y-41608102D01*
X96728190Y-41601021D01*
X96668657Y-41562340D01*
X96639487Y-41497613D01*
X96649941Y-41427390D01*
X96698363Y-41372929D01*
X96717289Y-41361308D01*
X96776071Y-41325216D01*
X96783387Y-41317134D01*
X96856297Y-41236583D01*
X96872280Y-41218925D01*
X96924038Y-41112097D01*
X96930875Y-41097985D01*
X96930875Y-41097984D01*
X96934790Y-41089904D01*
X96958576Y-40948525D01*
X96958727Y-40936171D01*
X96950553Y-40879095D01*
X96939676Y-40803139D01*
X96939675Y-40803136D01*
X96938403Y-40794253D01*
X96879064Y-40663743D01*
X96860678Y-40642405D01*
X96791340Y-40561934D01*
X96791337Y-40561931D01*
X96785480Y-40555134D01*
X96665175Y-40477156D01*
X96527819Y-40436078D01*
X96518843Y-40436023D01*
X96518842Y-40436023D01*
X96458635Y-40435655D01*
X96384456Y-40435202D01*
X96246609Y-40474599D01*
X96125360Y-40551101D01*
X96119419Y-40557828D01*
X96119413Y-40557833D01*
X96103362Y-40576008D01*
X96043277Y-40613827D01*
X95972283Y-40613157D01*
X95913469Y-40574850D01*
X95902341Y-40561935D01*
X95902338Y-40561932D01*
X95896480Y-40555134D01*
X95776175Y-40477156D01*
X95638819Y-40436078D01*
X95629843Y-40436023D01*
X95629842Y-40436023D01*
X95569635Y-40435655D01*
X95495456Y-40435202D01*
X95357609Y-40474599D01*
X95236360Y-40551101D01*
X95230418Y-40557829D01*
X95230417Y-40557830D01*
X95230383Y-40557869D01*
X95141457Y-40658559D01*
X95080527Y-40788334D01*
X95058471Y-40929994D01*
X93130327Y-40929994D01*
X93148576Y-40821525D01*
X93148727Y-40809171D01*
X93140553Y-40752095D01*
X93129676Y-40676139D01*
X93129675Y-40676136D01*
X93128403Y-40667253D01*
X93069064Y-40536743D01*
X93050678Y-40515405D01*
X92981340Y-40434934D01*
X92981337Y-40434931D01*
X92975480Y-40428134D01*
X92855175Y-40350156D01*
X92717819Y-40309078D01*
X92708843Y-40309023D01*
X92708842Y-40309023D01*
X92648635Y-40308655D01*
X92574456Y-40308202D01*
X92436609Y-40347599D01*
X92315360Y-40424101D01*
X92220457Y-40531559D01*
X92159527Y-40661334D01*
X92157222Y-40676139D01*
X92139754Y-40788334D01*
X92137471Y-40802994D01*
X76619655Y-40802994D01*
X76618403Y-40794253D01*
X76559064Y-40663743D01*
X76540678Y-40642405D01*
X76471340Y-40561934D01*
X76471337Y-40561931D01*
X76465480Y-40555134D01*
X76345175Y-40477156D01*
X76207819Y-40436078D01*
X76198843Y-40436023D01*
X76198842Y-40436023D01*
X76138635Y-40435655D01*
X76064456Y-40435202D01*
X75926609Y-40474599D01*
X75805360Y-40551101D01*
X75799418Y-40557829D01*
X75799417Y-40557830D01*
X75799383Y-40557869D01*
X75710457Y-40658559D01*
X75649527Y-40788334D01*
X75627471Y-40929994D01*
X70867576Y-40929994D01*
X71072432Y-40562591D01*
X71075201Y-40557869D01*
X71517722Y-39839466D01*
X71520693Y-39834870D01*
X71542851Y-39802169D01*
X71993995Y-39136365D01*
X71997140Y-39131933D01*
X72500342Y-38454629D01*
X72503699Y-38450309D01*
X73035835Y-37795503D01*
X73039379Y-37791331D01*
X73599433Y-37160273D01*
X73603154Y-37156259D01*
X74190103Y-36550101D01*
X74193995Y-36546253D01*
X74806693Y-35966178D01*
X74810748Y-35962502D01*
X75448081Y-35409566D01*
X75452292Y-35406070D01*
X75464338Y-35396504D01*
X75743554Y-35174762D01*
X87114002Y-35174762D01*
X87123401Y-35354092D01*
X87171088Y-35527220D01*
X87254840Y-35686069D01*
X87370748Y-35823229D01*
X87376171Y-35827376D01*
X87376173Y-35827377D01*
X87507985Y-35928155D01*
X87507989Y-35928158D01*
X87513406Y-35932299D01*
X87519586Y-35935181D01*
X87519588Y-35935182D01*
X87669980Y-36005311D01*
X87669983Y-36005312D01*
X87676157Y-36008191D01*
X87682805Y-36009677D01*
X87682808Y-36009678D01*
X87846370Y-36046238D01*
X87846371Y-36046238D01*
X87851408Y-36047364D01*
X87856899Y-36047671D01*
X87988946Y-36047671D01*
X88122605Y-36033151D01*
X88205331Y-36005311D01*
X88286337Y-35978050D01*
X88286339Y-35978049D01*
X88292802Y-35975874D01*
X88446728Y-35883385D01*
X88505955Y-35827377D01*
X88572245Y-35764690D01*
X88572247Y-35764688D01*
X88577203Y-35760001D01*
X88678140Y-35611477D01*
X88744828Y-35444744D01*
X88752815Y-35396504D01*
X88773043Y-35274317D01*
X88773043Y-35274314D01*
X88774158Y-35267580D01*
X88764759Y-35088250D01*
X88717072Y-34915122D01*
X88633320Y-34756273D01*
X88517412Y-34619113D01*
X88511987Y-34614965D01*
X88380175Y-34514187D01*
X88380171Y-34514184D01*
X88374754Y-34510043D01*
X88368574Y-34507161D01*
X88368572Y-34507160D01*
X88218180Y-34437031D01*
X88218177Y-34437030D01*
X88212003Y-34434151D01*
X88205355Y-34432665D01*
X88205352Y-34432664D01*
X88041790Y-34396104D01*
X88041789Y-34396104D01*
X88036752Y-34394978D01*
X88031261Y-34394671D01*
X87899214Y-34394671D01*
X87765555Y-34409191D01*
X87695806Y-34432664D01*
X87601823Y-34464292D01*
X87601821Y-34464293D01*
X87595358Y-34466468D01*
X87441432Y-34558957D01*
X87436472Y-34563648D01*
X87436470Y-34563649D01*
X87377819Y-34619113D01*
X87310957Y-34682341D01*
X87210020Y-34830865D01*
X87143332Y-34997598D01*
X87142218Y-35004328D01*
X87142217Y-35004331D01*
X87128324Y-35088250D01*
X87114002Y-35174762D01*
X75743554Y-35174762D01*
X75974619Y-34991260D01*
X76113040Y-34881332D01*
X76117400Y-34878022D01*
X76561949Y-34555441D01*
X76800283Y-34382497D01*
X76804776Y-34379383D01*
X76812538Y-34374250D01*
X77508591Y-33913946D01*
X77513191Y-33911046D01*
X78082252Y-33569284D01*
X78236534Y-33476627D01*
X78241286Y-33473912D01*
X78982785Y-33071331D01*
X78987651Y-33068824D01*
X78992939Y-33066244D01*
X79745962Y-32698813D01*
X79750910Y-32696530D01*
X80468656Y-32384139D01*
X80518940Y-32373671D01*
X95369225Y-32373671D01*
X95419506Y-32384138D01*
G37*
G04 #@! TD.AperFunction*
G04 #@! TD*
M02*
