M48
; DRILL file {KiCad 6.0.0-d3dd2cf0fa~116~ubuntu20.04.1} date Fri May  6 06:53:09 2022
; FORMAT={-:-/ absolute / metric / decimal}
; #@! TF.CreationDate,2022-05-06T06:53:09+00:00
; #@! TF.GenerationSoftware,Kicad,Pcbnew,6.0.0-d3dd2cf0fa~116~ubuntu20.04.1
; #@! TF.FileFunction,MixedPlating,1,4
FMAT,2
METRIC
; #@! TA.AperFunction,Plated,PTH,ViaDrill
T1C0.250
; #@! TA.AperFunction,Plated,PTH,ComponentDrill
T2C0.500
; #@! TA.AperFunction,Plated,PTH,ComponentDrill
T3C0.600
; #@! TA.AperFunction,NonPlated,NPTH,ComponentDrill
T4C0.650
; #@! TA.AperFunction,NonPlated,NPTH,ComponentDrill
T5C1.152
%
G90
G05
T1
X72.644Y-50.461
X72.704Y-54.398
X73.466Y-46.524
X76.133Y-39.412
X76.133Y-40.936
X76.26Y-48.556
X76.864Y-51.716
X77.149Y-45.0
X77.149Y-50.969
X77.276Y-46.651
X78.455Y-50.665
X80.324Y-54.271
X80.324Y-55.795
X80.832Y-39.412
X81.576Y-49.002
X83.626Y-53.001
X83.88Y-39.539
X84.134Y-62.145
X84.769Y-47.286
X85.277Y-59.605
X85.277Y-63.288
X85.404Y-39.539
X85.899Y-41.431
X85.899Y-43.362
X85.899Y-45.381
X86.293Y-55.922
X87.055Y-39.539
X87.563Y-63.669
X87.874Y-41.431
X87.874Y-43.419
X87.874Y-45.324
X88.579Y-68.241
X88.706Y-39.539
X89.849Y-41.431
X89.849Y-43.406
X89.849Y-45.381
X89.976Y-64.177
X90.23Y-39.539
X90.992Y-58.081
X91.5Y-59.605
X91.754Y-53.001
X91.881Y-39.539
X92.262Y-54.398
X92.516Y-56.684
X92.643Y-40.809
X93.674Y-59.717
X93.786Y-49.191
X94.167Y-58.208
X94.571Y-58.966
X94.806Y-60.851
X94.929Y-38.396
X94.929Y-49.953
X95.564Y-40.936
X95.691Y-60.113
X96.453Y-40.936
X96.58Y-42.079
X96.961Y-55.033
X97.469Y-43.984
X98.612Y-41.698
X100.898Y-56.684
T2
X83.952Y-70.545
X91.952Y-70.545
T4
X100.33Y-47.571
X100.33Y-53.351
T5
X87.944Y-35.221
X87.944Y-121.073
T3
X99.25Y-46.141G85X100.35Y-46.141
G05
X99.25Y-54.781G85X100.35Y-54.781
G05
X103.68Y-46.141G85X104.28Y-46.141
G05
X103.68Y-54.781G85X104.28Y-54.781
G05
T0
M30
