G04 #@! TF.GenerationSoftware,KiCad,Pcbnew,6.0.5-a6ca702e91~116~ubuntu20.04.1*
G04 #@! TF.CreationDate,2022-06-15T15:16:03+00:00*
G04 #@! TF.ProjectId,PlantBuddy,506c616e-7442-4756-9464-792e6b696361,rev?*
G04 #@! TF.SameCoordinates,Original*
G04 #@! TF.FileFunction,Legend,Top*
G04 #@! TF.FilePolarity,Positive*
%FSLAX46Y46*%
G04 Gerber Fmt 4.6, Leading zero omitted, Abs format (unit mm)*
G04 Created by KiCad (PCBNEW 6.0.5-a6ca702e91~116~ubuntu20.04.1) date 2022-06-15 15:16:03*
%MOMM*%
%LPD*%
G01*
G04 APERTURE LIST*
%ADD10C,0.150000*%
%ADD11C,0.120000*%
%ADD12C,0.127000*%
%ADD13C,0.200000*%
G04 APERTURE END LIST*
D10*
X98195946Y-62587289D02*
X97657198Y-63126037D01*
X99841598Y-60300704D02*
X100380346Y-60839452D01*
X99841598Y-60839452D02*
X100380346Y-60300704D01*
X70037318Y-44393551D02*
X70037318Y-43393551D01*
X70370651Y-44107837D01*
X70703984Y-43393551D01*
X70703984Y-44393551D01*
X71608746Y-44393551D02*
X71608746Y-43869742D01*
X71561127Y-43774504D01*
X71465889Y-43726885D01*
X71275413Y-43726885D01*
X71180175Y-43774504D01*
X71608746Y-44345932D02*
X71513508Y-44393551D01*
X71275413Y-44393551D01*
X71180175Y-44345932D01*
X71132556Y-44250694D01*
X71132556Y-44155456D01*
X71180175Y-44060218D01*
X71275413Y-44012599D01*
X71513508Y-44012599D01*
X71608746Y-43964980D01*
X72513508Y-43726885D02*
X72513508Y-44536409D01*
X72465889Y-44631647D01*
X72418270Y-44679266D01*
X72323032Y-44726885D01*
X72180175Y-44726885D01*
X72084937Y-44679266D01*
X72513508Y-44345932D02*
X72418270Y-44393551D01*
X72227794Y-44393551D01*
X72132556Y-44345932D01*
X72084937Y-44298313D01*
X72037318Y-44203075D01*
X72037318Y-43917361D01*
X72084937Y-43822123D01*
X72132556Y-43774504D01*
X72227794Y-43726885D01*
X72418270Y-43726885D01*
X72513508Y-43774504D01*
X72989699Y-44393551D02*
X72989699Y-43726885D01*
X72989699Y-43393551D02*
X72942080Y-43441171D01*
X72989699Y-43488790D01*
X73037318Y-43441171D01*
X72989699Y-43393551D01*
X72989699Y-43488790D01*
X73894460Y-44345932D02*
X73799222Y-44393551D01*
X73608746Y-44393551D01*
X73513508Y-44345932D01*
X73465889Y-44298313D01*
X73418270Y-44203075D01*
X73418270Y-43917361D01*
X73465889Y-43822123D01*
X73513508Y-43774504D01*
X73608746Y-43726885D01*
X73799222Y-43726885D01*
X73894460Y-43774504D01*
X70084937Y-45479742D02*
X70227794Y-45527361D01*
X70275413Y-45574980D01*
X70323032Y-45670218D01*
X70323032Y-45813075D01*
X70275413Y-45908313D01*
X70227794Y-45955932D01*
X70132556Y-46003551D01*
X69751603Y-46003551D01*
X69751603Y-45003551D01*
X70084937Y-45003551D01*
X70180175Y-45051171D01*
X70227794Y-45098790D01*
X70275413Y-45194028D01*
X70275413Y-45289266D01*
X70227794Y-45384504D01*
X70180175Y-45432123D01*
X70084937Y-45479742D01*
X69751603Y-45479742D01*
X71180175Y-45336885D02*
X71180175Y-46003551D01*
X70751603Y-45336885D02*
X70751603Y-45860694D01*
X70799222Y-45955932D01*
X70894460Y-46003551D01*
X71037318Y-46003551D01*
X71132556Y-45955932D01*
X71180175Y-45908313D01*
X71513508Y-45336885D02*
X71894460Y-45336885D01*
X71656365Y-45003551D02*
X71656365Y-45860694D01*
X71703984Y-45955932D01*
X71799222Y-46003551D01*
X71894460Y-46003551D01*
X72084937Y-45336885D02*
X72465889Y-45336885D01*
X72227794Y-45003551D02*
X72227794Y-45860694D01*
X72275413Y-45955932D01*
X72370651Y-46003551D01*
X72465889Y-46003551D01*
X72942080Y-46003551D02*
X72846841Y-45955932D01*
X72799222Y-45908313D01*
X72751603Y-45813075D01*
X72751603Y-45527361D01*
X72799222Y-45432123D01*
X72846841Y-45384504D01*
X72942080Y-45336885D01*
X73084937Y-45336885D01*
X73180175Y-45384504D01*
X73227794Y-45432123D01*
X73275413Y-45527361D01*
X73275413Y-45813075D01*
X73227794Y-45908313D01*
X73180175Y-45955932D01*
X73084937Y-46003551D01*
X72942080Y-46003551D01*
X73703984Y-45336885D02*
X73703984Y-46003551D01*
X73703984Y-45432123D02*
X73751603Y-45384504D01*
X73846841Y-45336885D01*
X73989699Y-45336885D01*
X74084937Y-45384504D01*
X74132556Y-45479742D01*
X74132556Y-46003551D01*
D11*
G04 #@! TO.C,R6*
X87706822Y-55682671D02*
X88181338Y-55682671D01*
X87706822Y-54637671D02*
X88181338Y-54637671D01*
G04 #@! TO.C,C9*
X76893080Y-40314751D02*
X76893080Y-40033591D01*
X77913080Y-40314751D02*
X77913080Y-40033591D01*
G04 #@! TO.C,C11*
X84767080Y-61536751D02*
X84767080Y-61255591D01*
X85787080Y-61536751D02*
X85787080Y-61255591D01*
G04 #@! TO.C,C8*
X78671080Y-40314751D02*
X78671080Y-40033591D01*
X79691080Y-40314751D02*
X79691080Y-40033591D01*
G04 #@! TO.C,R10*
X88181338Y-56288671D02*
X87706822Y-56288671D01*
X88181338Y-57333671D02*
X87706822Y-57333671D01*
G04 #@! TO.C,R13*
X74594580Y-51112913D02*
X74594580Y-51587429D01*
X75639580Y-51112913D02*
X75639580Y-51587429D01*
G04 #@! TO.C,U4*
X93651080Y-55074171D02*
X94126080Y-55074171D01*
X91381080Y-55074171D02*
X90906080Y-55074171D01*
X90906080Y-58294171D02*
X90906080Y-57819171D01*
X91381080Y-58294171D02*
X90906080Y-58294171D01*
X93651080Y-58294171D02*
X94126080Y-58294171D01*
X94126080Y-58294171D02*
X94126080Y-57819171D01*
X94126080Y-55074171D02*
X94126080Y-55549171D01*
G04 #@! TO.C,U6*
X88269080Y-63006171D02*
X87469080Y-63006171D01*
X88269080Y-59886171D02*
X89069080Y-59886171D01*
X88269080Y-63006171D02*
X90069080Y-63006171D01*
X88269080Y-59886171D02*
X87469080Y-59886171D01*
G04 #@! TO.C,J1*
X104930080Y-55161171D02*
X106830080Y-55161171D01*
X106830080Y-55161171D02*
X106830080Y-45761171D01*
X101030080Y-55161171D02*
X103030080Y-55161171D01*
X101030080Y-45761171D02*
X103030080Y-45761171D01*
X104930080Y-45761171D02*
X106830080Y-45761171D01*
G04 #@! TO.C,SW1*
X72090080Y-48011171D02*
X71540080Y-48011171D01*
X72090080Y-52911171D02*
X71540080Y-52911171D01*
X73665080Y-48111171D02*
X73665080Y-52811171D01*
X69965080Y-48111171D02*
X69965080Y-49036171D01*
X69965080Y-51886171D02*
X69965080Y-52811171D01*
G04 #@! TO.C,R3*
X91739580Y-52128913D02*
X91739580Y-52603429D01*
X92784580Y-52128913D02*
X92784580Y-52603429D01*
G04 #@! TO.C,R8*
X79418338Y-45522671D02*
X78943822Y-45522671D01*
X79418338Y-44477671D02*
X78943822Y-44477671D01*
G04 #@! TO.C,D4*
X101444080Y-39439171D02*
X99159080Y-39439171D01*
X99159080Y-39439171D02*
X99159080Y-40909171D01*
X99159080Y-40909171D02*
X101444080Y-40909171D01*
G04 #@! TO.C,R17*
X79703580Y-56319913D02*
X79703580Y-56794429D01*
X78658580Y-56319913D02*
X78658580Y-56794429D01*
G04 #@! TO.C,R12*
X95705580Y-64701913D02*
X95705580Y-65176429D01*
X94660580Y-64701913D02*
X94660580Y-65176429D01*
D12*
G04 #@! TO.C,U5*
X81274080Y-32406171D02*
X94474080Y-32406171D01*
X94474080Y-32406171D02*
X94474080Y-37786171D01*
X81274080Y-37786171D02*
X81274080Y-32406171D01*
D13*
X80724080Y-39406171D02*
G75*
G03*
X80724080Y-39406171I-100000J0D01*
G01*
D11*
G04 #@! TO.C,C5*
X94927080Y-54130591D02*
X94927080Y-54411751D01*
X95947080Y-54130591D02*
X95947080Y-54411751D01*
G04 #@! TO.C,J3*
X99120080Y-65393674D02*
X97776577Y-64050171D01*
X100463583Y-64050171D02*
X99120080Y-65393674D01*
X97776577Y-64050171D02*
X99120080Y-62706668D01*
X99120080Y-62706668D02*
X100463583Y-64050171D01*
G04 #@! TO.C,R1*
X95422580Y-49989913D02*
X95422580Y-50464429D01*
X96467580Y-49989913D02*
X96467580Y-50464429D01*
G04 #@! TO.C,R18*
X100406822Y-42347671D02*
X100881338Y-42347671D01*
X100406822Y-41302671D02*
X100881338Y-41302671D01*
G04 #@! TO.C,R9*
X92880338Y-64699671D02*
X92405822Y-64699671D01*
X92880338Y-63654671D02*
X92405822Y-63654671D01*
G04 #@! TO.C,U3*
X86293080Y-63649171D02*
X82843080Y-63649171D01*
X86293080Y-68769171D02*
X84343080Y-68769171D01*
X86293080Y-68769171D02*
X88243080Y-68769171D01*
X86293080Y-63649171D02*
X88243080Y-63649171D01*
G04 #@! TO.C,R11*
X96467580Y-58064429D02*
X96467580Y-57589913D01*
X95422580Y-58064429D02*
X95422580Y-57589913D01*
G04 #@! TO.C,R4*
X83611580Y-52001913D02*
X83611580Y-52476429D01*
X84656580Y-52001913D02*
X84656580Y-52476429D01*
G04 #@! TO.C,J2*
X99935577Y-61891171D02*
X101279080Y-60547668D01*
X102622583Y-61891171D02*
X101279080Y-63234674D01*
X101279080Y-60547668D02*
X102622583Y-61891171D01*
X101279080Y-63234674D02*
X99935577Y-61891171D01*
G04 #@! TO.C,U1*
X87390080Y-51647171D02*
X89590080Y-51647171D01*
X87610080Y-53847171D02*
X89580080Y-53847171D01*
G04 #@! TO.C,C3*
X79321660Y-47161171D02*
X79040500Y-47161171D01*
X79321660Y-46141171D02*
X79040500Y-46141171D01*
G04 #@! TO.C,R14*
X79418338Y-48951671D02*
X78943822Y-48951671D01*
X79418338Y-47906671D02*
X78943822Y-47906671D01*
G04 #@! TO.C,R7*
X75639580Y-47937913D02*
X75639580Y-48412429D01*
X74594580Y-47937913D02*
X74594580Y-48412429D01*
G04 #@! TO.C,C2*
X78171555Y-63115731D02*
X78386936Y-63296457D01*
X78827198Y-62334365D02*
X79042579Y-62515091D01*
G04 #@! TO.C,C1*
X86687080Y-52606591D02*
X86687080Y-52887751D01*
X85667080Y-52606591D02*
X85667080Y-52887751D01*
G04 #@! TO.C,R5*
X99357338Y-56415671D02*
X98882822Y-56415671D01*
X99357338Y-57460671D02*
X98882822Y-57460671D01*
G04 #@! TO.C,Q2*
X92135080Y-68785171D02*
X91485080Y-68785171D01*
X92135080Y-65665171D02*
X92785080Y-65665171D01*
X92135080Y-68785171D02*
X92785080Y-68785171D01*
X92135080Y-65665171D02*
X90460080Y-65665171D01*
G04 #@! TO.C,C10*
X90990080Y-61536751D02*
X90990080Y-61255591D01*
X92010080Y-61536751D02*
X92010080Y-61255591D01*
G04 #@! TO.C,R2*
X96848580Y-44508913D02*
X96848580Y-44983429D01*
X95803580Y-44508913D02*
X95803580Y-44983429D01*
D12*
G04 #@! TO.C,U2*
X75733320Y-64684481D02*
X77265409Y-65970056D01*
X77173165Y-62968542D02*
X78705254Y-64254117D01*
D13*
X76139234Y-62826413D02*
G75*
G03*
X76139234Y-62826413I-100000J0D01*
G01*
D11*
G04 #@! TO.C,C6*
X78559660Y-54527171D02*
X78278500Y-54527171D01*
X78559660Y-53507171D02*
X78278500Y-53507171D01*
G04 #@! TO.C,Q1*
X76260080Y-54997171D02*
X75610080Y-54997171D01*
X76260080Y-58117171D02*
X75610080Y-58117171D01*
X76260080Y-54997171D02*
X76910080Y-54997171D01*
X76260080Y-58117171D02*
X77935080Y-58117171D01*
G04 #@! TD*
M02*
