G04 #@! TF.GenerationSoftware,KiCad,Pcbnew,6.0.5-a6ca702e91~116~ubuntu20.04.1*
G04 #@! TF.CreationDate,2022-06-28T17:03:59+00:00*
G04 #@! TF.ProjectId,PlantBuddy,506c616e-7442-4756-9464-792e6b696361,rev?*
G04 #@! TF.SameCoordinates,Original*
G04 #@! TF.FileFunction,Soldermask,Bot*
G04 #@! TF.FilePolarity,Negative*
%FSLAX46Y46*%
G04 Gerber Fmt 4.6, Leading zero omitted, Abs format (unit mm)*
G04 Created by KiCad (PCBNEW 6.0.5-a6ca702e91~116~ubuntu20.04.1) date 2022-06-28 17:03:59*
%MOMM*%
%LPD*%
G01*
G04 APERTURE LIST*
G04 Aperture macros list*
%AMRoundRect*
0 Rectangle with rounded corners*
0 $1 Rounding radius*
0 $2 $3 $4 $5 $6 $7 $8 $9 X,Y pos of 4 corners*
0 Add a 4 corners polygon primitive as box body*
4,1,4,$2,$3,$4,$5,$6,$7,$8,$9,$2,$3,0*
0 Add four circle primitives for the rounded corners*
1,1,$1+$1,$2,$3*
1,1,$1+$1,$4,$5*
1,1,$1+$1,$6,$7*
1,1,$1+$1,$8,$9*
0 Add four rect primitives between the rounded corners*
20,1,$1+$1,$2,$3,$4,$5,0*
20,1,$1+$1,$4,$5,$6,$7,0*
20,1,$1+$1,$6,$7,$8,$9,0*
20,1,$1+$1,$8,$9,$2,$3,0*%
G04 Aperture macros list end*
%ADD10C,0.010000*%
%ADD11C,1.300000*%
%ADD12O,2.500000X1.400000*%
%ADD13O,2.000000X1.400000*%
%ADD14C,2.400000*%
%ADD15RoundRect,0.517500X0.317500X-0.317500X0.317500X0.317500X-0.317500X0.317500X-0.317500X-0.317500X0*%
%ADD16RoundRect,0.200000X0.750000X0.750000X-0.750000X0.750000X-0.750000X-0.750000X0.750000X-0.750000X0*%
%ADD17RoundRect,0.200000X0.400000X0.900000X-0.400000X0.900000X-0.400000X-0.900000X0.400000X-0.900000X0*%
%ADD18RoundRect,0.400000X-0.200000X-0.600000X0.200000X-0.600000X0.200000X0.600000X-0.200000X0.600000X0*%
%ADD19RoundRect,0.450001X-0.799999X-1.249999X0.799999X-1.249999X0.799999X1.249999X-0.799999X1.249999X0*%
G04 APERTURE END LIST*
G04 #@! TO.C,J4*
G36*
X139821080Y-73939171D02*
G01*
X139421080Y-73939171D01*
X139421080Y-72239171D01*
X139821080Y-72239171D01*
X139821080Y-73939171D01*
G37*
D10*
X139821080Y-73939171D02*
X139421080Y-73939171D01*
X139421080Y-72239171D01*
X139821080Y-72239171D01*
X139821080Y-73939171D01*
G36*
X138321080Y-73939171D02*
G01*
X137921080Y-73939171D01*
X137921080Y-72239171D01*
X138321080Y-72239171D01*
X138321080Y-73939171D01*
G37*
X138321080Y-73939171D02*
X137921080Y-73939171D01*
X137921080Y-72239171D01*
X138321080Y-72239171D01*
X138321080Y-73939171D01*
G36*
X136821080Y-73939171D02*
G01*
X136421080Y-73939171D01*
X136421080Y-72239171D01*
X136821080Y-72239171D01*
X136821080Y-73939171D01*
G37*
X136821080Y-73939171D02*
X136421080Y-73939171D01*
X136421080Y-72239171D01*
X136821080Y-72239171D01*
X136821080Y-73939171D01*
G36*
X141321080Y-73939171D02*
G01*
X140921080Y-73939171D01*
X140921080Y-72239171D01*
X141321080Y-72239171D01*
X141321080Y-73939171D01*
G37*
X141321080Y-73939171D02*
X140921080Y-73939171D01*
X140921080Y-72239171D01*
X141321080Y-72239171D01*
X141321080Y-73939171D01*
G36*
X138821080Y-70339171D02*
G01*
X138421080Y-70339171D01*
X138421080Y-68639171D01*
X138821080Y-68639171D01*
X138821080Y-70339171D01*
G37*
X138821080Y-70339171D02*
X138421080Y-70339171D01*
X138421080Y-68639171D01*
X138821080Y-68639171D01*
X138821080Y-70339171D01*
G36*
X140821080Y-70339171D02*
G01*
X140421080Y-70339171D01*
X140421080Y-68639171D01*
X140821080Y-68639171D01*
X140821080Y-70339171D01*
G37*
X140821080Y-70339171D02*
X140421080Y-70339171D01*
X140421080Y-68639171D01*
X140821080Y-68639171D01*
X140821080Y-70339171D01*
G36*
X138321080Y-70339171D02*
G01*
X137921080Y-70339171D01*
X137921080Y-68639171D01*
X138321080Y-68639171D01*
X138321080Y-70339171D01*
G37*
X138321080Y-70339171D02*
X137921080Y-70339171D01*
X137921080Y-68639171D01*
X138321080Y-68639171D01*
X138321080Y-70339171D01*
G36*
X137321080Y-70339171D02*
G01*
X136921080Y-70339171D01*
X136921080Y-68639171D01*
X137321080Y-68639171D01*
X137321080Y-70339171D01*
G37*
X137321080Y-70339171D02*
X136921080Y-70339171D01*
X136921080Y-68639171D01*
X137321080Y-68639171D01*
X137321080Y-70339171D01*
G36*
X139321080Y-70339171D02*
G01*
X138921080Y-70339171D01*
X138921080Y-68639171D01*
X139321080Y-68639171D01*
X139321080Y-70339171D01*
G37*
X139321080Y-70339171D02*
X138921080Y-70339171D01*
X138921080Y-68639171D01*
X139321080Y-68639171D01*
X139321080Y-70339171D01*
G36*
X137321080Y-73939171D02*
G01*
X136921080Y-73939171D01*
X136921080Y-72239171D01*
X137321080Y-72239171D01*
X137321080Y-73939171D01*
G37*
X137321080Y-73939171D02*
X136921080Y-73939171D01*
X136921080Y-72239171D01*
X137321080Y-72239171D01*
X137321080Y-73939171D01*
G36*
X137821080Y-70339171D02*
G01*
X137421080Y-70339171D01*
X137421080Y-68639171D01*
X137821080Y-68639171D01*
X137821080Y-70339171D01*
G37*
X137821080Y-70339171D02*
X137421080Y-70339171D01*
X137421080Y-68639171D01*
X137821080Y-68639171D01*
X137821080Y-70339171D01*
G36*
X140321080Y-73939171D02*
G01*
X139921080Y-73939171D01*
X139921080Y-72239171D01*
X140321080Y-72239171D01*
X140321080Y-73939171D01*
G37*
X140321080Y-73939171D02*
X139921080Y-73939171D01*
X139921080Y-72239171D01*
X140321080Y-72239171D01*
X140321080Y-73939171D01*
G36*
X140321080Y-70339171D02*
G01*
X139921080Y-70339171D01*
X139921080Y-68639171D01*
X140321080Y-68639171D01*
X140321080Y-70339171D01*
G37*
X140321080Y-70339171D02*
X139921080Y-70339171D01*
X139921080Y-68639171D01*
X140321080Y-68639171D01*
X140321080Y-70339171D01*
G36*
X139821080Y-70339171D02*
G01*
X139421080Y-70339171D01*
X139421080Y-68639171D01*
X139821080Y-68639171D01*
X139821080Y-70339171D01*
G37*
X139821080Y-70339171D02*
X139421080Y-70339171D01*
X139421080Y-68639171D01*
X139821080Y-68639171D01*
X139821080Y-70339171D01*
G36*
X136821080Y-70339171D02*
G01*
X136421080Y-70339171D01*
X136421080Y-68639171D01*
X136821080Y-68639171D01*
X136821080Y-70339171D01*
G37*
X136821080Y-70339171D02*
X136421080Y-70339171D01*
X136421080Y-68639171D01*
X136821080Y-68639171D01*
X136821080Y-70339171D01*
G36*
X137821080Y-73939171D02*
G01*
X137421080Y-73939171D01*
X137421080Y-72239171D01*
X137821080Y-72239171D01*
X137821080Y-73939171D01*
G37*
X137821080Y-73939171D02*
X137421080Y-73939171D01*
X137421080Y-72239171D01*
X137821080Y-72239171D01*
X137821080Y-73939171D01*
G36*
X138821080Y-73939171D02*
G01*
X138421080Y-73939171D01*
X138421080Y-72239171D01*
X138821080Y-72239171D01*
X138821080Y-73939171D01*
G37*
X138821080Y-73939171D02*
X138421080Y-73939171D01*
X138421080Y-72239171D01*
X138821080Y-72239171D01*
X138821080Y-73939171D01*
G36*
X139321080Y-73939171D02*
G01*
X138921080Y-73939171D01*
X138921080Y-72239171D01*
X139321080Y-72239171D01*
X139321080Y-73939171D01*
G37*
X139321080Y-73939171D02*
X138921080Y-73939171D01*
X138921080Y-72239171D01*
X139321080Y-72239171D01*
X139321080Y-73939171D01*
G36*
X141321080Y-70339171D02*
G01*
X140921080Y-70339171D01*
X140921080Y-68639171D01*
X141321080Y-68639171D01*
X141321080Y-70339171D01*
G37*
X141321080Y-70339171D02*
X140921080Y-70339171D01*
X140921080Y-68639171D01*
X141321080Y-68639171D01*
X141321080Y-70339171D01*
G36*
X140821080Y-73939171D02*
G01*
X140421080Y-73939171D01*
X140421080Y-72239171D01*
X140821080Y-72239171D01*
X140821080Y-73939171D01*
G37*
X140821080Y-73939171D02*
X140421080Y-73939171D01*
X140421080Y-72239171D01*
X140821080Y-72239171D01*
X140821080Y-73939171D01*
G04 #@! TD*
D11*
G04 #@! TO.C,H2*
X138363080Y-40174171D03*
G04 #@! TD*
D12*
G04 #@! TO.C,J1*
X129999580Y-60936671D03*
X129999580Y-69576671D03*
D13*
X125819580Y-60936671D03*
X125819580Y-69576671D03*
G04 #@! TD*
D11*
G04 #@! TO.C,H3*
X146364080Y-73067171D03*
G04 #@! TD*
G04 #@! TO.C,H1*
X133283080Y-72940171D03*
G04 #@! TD*
D14*
G04 #@! TO.C,TP2*
X146909080Y-55261171D03*
G04 #@! TD*
D15*
G04 #@! TO.C,LS1*
X151952080Y-55795171D03*
X151952080Y-53255171D03*
G04 #@! TD*
D14*
G04 #@! TO.C,TP1*
X146859080Y-58831171D03*
G04 #@! TD*
D16*
G04 #@! TO.C,J2*
X124529080Y-55661171D03*
G04 #@! TD*
D17*
G04 #@! TO.C,J4*
X134921080Y-71289171D03*
X142821080Y-71289171D03*
G04 #@! TD*
D16*
G04 #@! TO.C,J3*
X124520080Y-50715171D03*
G04 #@! TD*
D18*
G04 #@! TO.C,BT1*
X149168080Y-72538171D03*
X150418080Y-72538171D03*
D19*
X152968080Y-69638171D03*
X146618080Y-69638171D03*
G04 #@! TD*
D14*
G04 #@! TO.C,TP3*
X140739080Y-64331171D03*
G04 #@! TD*
M02*
