G04 #@! TF.GenerationSoftware,KiCad,Pcbnew,6.0.5-a6ca702e91~116~ubuntu20.04.1*
G04 #@! TF.CreationDate,2022-06-28T17:03:59+00:00*
G04 #@! TF.ProjectId,PlantBuddy,506c616e-7442-4756-9464-792e6b696361,rev?*
G04 #@! TF.SameCoordinates,Original*
G04 #@! TF.FileFunction,Other,Comment*
%FSLAX46Y46*%
G04 Gerber Fmt 4.6, Leading zero omitted, Abs format (unit mm)*
G04 Created by KiCad (PCBNEW 6.0.5-a6ca702e91~116~ubuntu20.04.1) date 2022-06-28 17:03:59*
%MOMM*%
%LPD*%
G01*
G04 APERTURE LIST*
%ADD10C,0.100000*%
%ADD11C,0.150000*%
G04 APERTURE END LIST*
D10*
X154365080Y-63288171D02*
X154365080Y-39412171D01*
X135569080Y-63288171D02*
X154365080Y-63288171D01*
X135569080Y-39412171D02*
X135569080Y-63288171D01*
X154365080Y-39412171D02*
X135569080Y-39412171D01*
D11*
X33828699Y-67666313D02*
X33781080Y-67713932D01*
X33638222Y-67761551D01*
X33542984Y-67761551D01*
X33400127Y-67713932D01*
X33304889Y-67618694D01*
X33257270Y-67523456D01*
X33209651Y-67332980D01*
X33209651Y-67190123D01*
X33257270Y-66999647D01*
X33304889Y-66904409D01*
X33400127Y-66809171D01*
X33542984Y-66761551D01*
X33638222Y-66761551D01*
X33781080Y-66809171D01*
X33828699Y-66856790D01*
X34257270Y-67761551D02*
X34257270Y-66761551D01*
X34685841Y-67761551D02*
X34685841Y-67237742D01*
X34638222Y-67142504D01*
X34542984Y-67094885D01*
X34400127Y-67094885D01*
X34304889Y-67142504D01*
X34257270Y-67190123D01*
X35590603Y-67761551D02*
X35590603Y-67237742D01*
X35542984Y-67142504D01*
X35447746Y-67094885D01*
X35257270Y-67094885D01*
X35162032Y-67142504D01*
X35590603Y-67713932D02*
X35495365Y-67761551D01*
X35257270Y-67761551D01*
X35162032Y-67713932D01*
X35114413Y-67618694D01*
X35114413Y-67523456D01*
X35162032Y-67428218D01*
X35257270Y-67380599D01*
X35495365Y-67380599D01*
X35590603Y-67332980D01*
X36066794Y-67094885D02*
X36066794Y-67761551D01*
X36066794Y-67190123D02*
X36114413Y-67142504D01*
X36209651Y-67094885D01*
X36352508Y-67094885D01*
X36447746Y-67142504D01*
X36495365Y-67237742D01*
X36495365Y-67761551D01*
X36971556Y-67094885D02*
X36971556Y-67761551D01*
X36971556Y-67190123D02*
X37019175Y-67142504D01*
X37114413Y-67094885D01*
X37257270Y-67094885D01*
X37352508Y-67142504D01*
X37400127Y-67237742D01*
X37400127Y-67761551D01*
X38257270Y-67713932D02*
X38162032Y-67761551D01*
X37971556Y-67761551D01*
X37876318Y-67713932D01*
X37828699Y-67618694D01*
X37828699Y-67237742D01*
X37876318Y-67142504D01*
X37971556Y-67094885D01*
X38162032Y-67094885D01*
X38257270Y-67142504D01*
X38304889Y-67237742D01*
X38304889Y-67332980D01*
X37828699Y-67428218D01*
X38876318Y-67761551D02*
X38781080Y-67713932D01*
X38733460Y-67618694D01*
X38733460Y-66761551D01*
X40019175Y-67761551D02*
X40019175Y-66761551D01*
X40019175Y-67142504D02*
X40114413Y-67094885D01*
X40304889Y-67094885D01*
X40400127Y-67142504D01*
X40447746Y-67190123D01*
X40495365Y-67285361D01*
X40495365Y-67571075D01*
X40447746Y-67666313D01*
X40400127Y-67713932D01*
X40304889Y-67761551D01*
X40114413Y-67761551D01*
X40019175Y-67713932D01*
X41304889Y-67713932D02*
X41209651Y-67761551D01*
X41019175Y-67761551D01*
X40923937Y-67713932D01*
X40876318Y-67618694D01*
X40876318Y-67237742D01*
X40923937Y-67142504D01*
X41019175Y-67094885D01*
X41209651Y-67094885D01*
X41304889Y-67142504D01*
X41352508Y-67237742D01*
X41352508Y-67332980D01*
X40876318Y-67428218D01*
X41638222Y-67094885D02*
X42019175Y-67094885D01*
X41781080Y-66761551D02*
X41781080Y-67618694D01*
X41828699Y-67713932D01*
X41923937Y-67761551D01*
X42019175Y-67761551D01*
X42257270Y-67094885D02*
X42447746Y-67761551D01*
X42638222Y-67285361D01*
X42828699Y-67761551D01*
X43019175Y-67094885D01*
X43781079Y-67713932D02*
X43685841Y-67761551D01*
X43495365Y-67761551D01*
X43400127Y-67713932D01*
X43352508Y-67618694D01*
X43352508Y-67237742D01*
X43400127Y-67142504D01*
X43495365Y-67094885D01*
X43685841Y-67094885D01*
X43781079Y-67142504D01*
X43828699Y-67237742D01*
X43828699Y-67332980D01*
X43352508Y-67428218D01*
X44638222Y-67713932D02*
X44542984Y-67761551D01*
X44352508Y-67761551D01*
X44257270Y-67713932D01*
X44209651Y-67618694D01*
X44209651Y-67237742D01*
X44257270Y-67142504D01*
X44352508Y-67094885D01*
X44542984Y-67094885D01*
X44638222Y-67142504D01*
X44685841Y-67237742D01*
X44685841Y-67332980D01*
X44209651Y-67428218D01*
X45114413Y-67094885D02*
X45114413Y-67761551D01*
X45114413Y-67190123D02*
X45162032Y-67142504D01*
X45257270Y-67094885D01*
X45400127Y-67094885D01*
X45495365Y-67142504D01*
X45542984Y-67237742D01*
X45542984Y-67761551D01*
X46638222Y-67094885D02*
X47019175Y-67094885D01*
X46781079Y-66761551D02*
X46781079Y-67618694D01*
X46828699Y-67713932D01*
X46923937Y-67761551D01*
X47019175Y-67761551D01*
X47733460Y-67713932D02*
X47638222Y-67761551D01*
X47447746Y-67761551D01*
X47352508Y-67713932D01*
X47304889Y-67618694D01*
X47304889Y-67237742D01*
X47352508Y-67142504D01*
X47447746Y-67094885D01*
X47638222Y-67094885D01*
X47733460Y-67142504D01*
X47781079Y-67237742D01*
X47781079Y-67332980D01*
X47304889Y-67428218D01*
X48209651Y-67761551D02*
X48209651Y-67094885D01*
X48209651Y-67190123D02*
X48257270Y-67142504D01*
X48352508Y-67094885D01*
X48495365Y-67094885D01*
X48590603Y-67142504D01*
X48638222Y-67237742D01*
X48638222Y-67761551D01*
X48638222Y-67237742D02*
X48685841Y-67142504D01*
X48781079Y-67094885D01*
X48923937Y-67094885D01*
X49019175Y-67142504D01*
X49066794Y-67237742D01*
X49066794Y-67761551D01*
X49542984Y-67094885D02*
X49542984Y-68094885D01*
X49542984Y-67142504D02*
X49638222Y-67094885D01*
X49828699Y-67094885D01*
X49923937Y-67142504D01*
X49971556Y-67190123D01*
X50019175Y-67285361D01*
X50019175Y-67571075D01*
X49971556Y-67666313D01*
X49923937Y-67713932D01*
X49828699Y-67761551D01*
X49638222Y-67761551D01*
X49542984Y-67713932D01*
X50828699Y-67713932D02*
X50733460Y-67761551D01*
X50542984Y-67761551D01*
X50447746Y-67713932D01*
X50400127Y-67618694D01*
X50400127Y-67237742D01*
X50447746Y-67142504D01*
X50542984Y-67094885D01*
X50733460Y-67094885D01*
X50828699Y-67142504D01*
X50876318Y-67237742D01*
X50876318Y-67332980D01*
X50400127Y-67428218D01*
X51304889Y-67761551D02*
X51304889Y-67094885D01*
X51304889Y-67285361D02*
X51352508Y-67190123D01*
X51400127Y-67142504D01*
X51495365Y-67094885D01*
X51590603Y-67094885D01*
X52352508Y-67761551D02*
X52352508Y-67237742D01*
X52304889Y-67142504D01*
X52209651Y-67094885D01*
X52019175Y-67094885D01*
X51923937Y-67142504D01*
X52352508Y-67713932D02*
X52257270Y-67761551D01*
X52019175Y-67761551D01*
X51923937Y-67713932D01*
X51876318Y-67618694D01*
X51876318Y-67523456D01*
X51923937Y-67428218D01*
X52019175Y-67380599D01*
X52257270Y-67380599D01*
X52352508Y-67332980D01*
X52685841Y-67094885D02*
X53066794Y-67094885D01*
X52828699Y-66761551D02*
X52828699Y-67618694D01*
X52876318Y-67713932D01*
X52971556Y-67761551D01*
X53066794Y-67761551D01*
X53828699Y-67094885D02*
X53828699Y-67761551D01*
X53400127Y-67094885D02*
X53400127Y-67618694D01*
X53447746Y-67713932D01*
X53542984Y-67761551D01*
X53685841Y-67761551D01*
X53781079Y-67713932D01*
X53828699Y-67666313D01*
X54304889Y-67761551D02*
X54304889Y-67094885D01*
X54304889Y-67285361D02*
X54352508Y-67190123D01*
X54400127Y-67142504D01*
X54495365Y-67094885D01*
X54590603Y-67094885D01*
X55304889Y-67713932D02*
X55209651Y-67761551D01*
X55019175Y-67761551D01*
X54923937Y-67713932D01*
X54876318Y-67618694D01*
X54876318Y-67237742D01*
X54923937Y-67142504D01*
X55019175Y-67094885D01*
X55209651Y-67094885D01*
X55304889Y-67142504D01*
X55352508Y-67237742D01*
X55352508Y-67332980D01*
X54876318Y-67428218D01*
X56495365Y-67713932D02*
X56590603Y-67761551D01*
X56781079Y-67761551D01*
X56876318Y-67713932D01*
X56923937Y-67618694D01*
X56923937Y-67571075D01*
X56876318Y-67475837D01*
X56781079Y-67428218D01*
X56638222Y-67428218D01*
X56542984Y-67380599D01*
X56495365Y-67285361D01*
X56495365Y-67237742D01*
X56542984Y-67142504D01*
X56638222Y-67094885D01*
X56781079Y-67094885D01*
X56876318Y-67142504D01*
X57733460Y-67713932D02*
X57638222Y-67761551D01*
X57447746Y-67761551D01*
X57352508Y-67713932D01*
X57304889Y-67618694D01*
X57304889Y-67237742D01*
X57352508Y-67142504D01*
X57447746Y-67094885D01*
X57638222Y-67094885D01*
X57733460Y-67142504D01*
X57781079Y-67237742D01*
X57781079Y-67332980D01*
X57304889Y-67428218D01*
X58209651Y-67094885D02*
X58209651Y-67761551D01*
X58209651Y-67190123D02*
X58257270Y-67142504D01*
X58352508Y-67094885D01*
X58495365Y-67094885D01*
X58590603Y-67142504D01*
X58638222Y-67237742D01*
X58638222Y-67761551D01*
X59066794Y-67713932D02*
X59162032Y-67761551D01*
X59352508Y-67761551D01*
X59447746Y-67713932D01*
X59495365Y-67618694D01*
X59495365Y-67571075D01*
X59447746Y-67475837D01*
X59352508Y-67428218D01*
X59209651Y-67428218D01*
X59114413Y-67380599D01*
X59066794Y-67285361D01*
X59066794Y-67237742D01*
X59114413Y-67142504D01*
X59209651Y-67094885D01*
X59352508Y-67094885D01*
X59447746Y-67142504D01*
X60066794Y-67761551D02*
X59971556Y-67713932D01*
X59923937Y-67666313D01*
X59876318Y-67571075D01*
X59876318Y-67285361D01*
X59923937Y-67190123D01*
X59971556Y-67142504D01*
X60066794Y-67094885D01*
X60209651Y-67094885D01*
X60304889Y-67142504D01*
X60352508Y-67190123D01*
X60400127Y-67285361D01*
X60400127Y-67571075D01*
X60352508Y-67666313D01*
X60304889Y-67713932D01*
X60209651Y-67761551D01*
X60066794Y-67761551D01*
X60828699Y-67761551D02*
X60828699Y-67094885D01*
X60828699Y-67285361D02*
X60876318Y-67190123D01*
X60923937Y-67142504D01*
X61019175Y-67094885D01*
X61114413Y-67094885D01*
X63019175Y-67761551D02*
X62971556Y-67761551D01*
X62876318Y-67713932D01*
X62733460Y-67571075D01*
X62495365Y-67285361D01*
X62400127Y-67142504D01*
X62352508Y-66999647D01*
X62352508Y-66904409D01*
X62400127Y-66809171D01*
X62495365Y-66761551D01*
X62542984Y-66761551D01*
X62638222Y-66809171D01*
X62685841Y-66904409D01*
X62685841Y-66952028D01*
X62638222Y-67047266D01*
X62590603Y-67094885D01*
X62304889Y-67285361D01*
X62257270Y-67332980D01*
X62209651Y-67428218D01*
X62209651Y-67571075D01*
X62257270Y-67666313D01*
X62304889Y-67713932D01*
X62400127Y-67761551D01*
X62542984Y-67761551D01*
X62638222Y-67713932D01*
X62685841Y-67666313D01*
X62828699Y-67475837D01*
X62876318Y-67332980D01*
X62876318Y-67237742D01*
X64209651Y-67761551D02*
X64209651Y-67094885D01*
X64209651Y-67285361D02*
X64257270Y-67190123D01*
X64304889Y-67142504D01*
X64400127Y-67094885D01*
X64495365Y-67094885D01*
X65209651Y-67713932D02*
X65114413Y-67761551D01*
X64923937Y-67761551D01*
X64828699Y-67713932D01*
X64781079Y-67618694D01*
X64781079Y-67237742D01*
X64828699Y-67142504D01*
X64923937Y-67094885D01*
X65114413Y-67094885D01*
X65209651Y-67142504D01*
X65257270Y-67237742D01*
X65257270Y-67332980D01*
X64781079Y-67428218D01*
X65638222Y-67713932D02*
X65733460Y-67761551D01*
X65923937Y-67761551D01*
X66019175Y-67713932D01*
X66066794Y-67618694D01*
X66066794Y-67571075D01*
X66019175Y-67475837D01*
X65923937Y-67428218D01*
X65781079Y-67428218D01*
X65685841Y-67380599D01*
X65638222Y-67285361D01*
X65638222Y-67237742D01*
X65685841Y-67142504D01*
X65781079Y-67094885D01*
X65923937Y-67094885D01*
X66019175Y-67142504D01*
X66352508Y-67094885D02*
X66733460Y-67094885D01*
X66495365Y-66761551D02*
X66495365Y-67618694D01*
X66542984Y-67713932D01*
X66638222Y-67761551D01*
X66733460Y-67761551D01*
X67971556Y-67761551D02*
X67876318Y-67713932D01*
X67828699Y-67666313D01*
X67781079Y-67571075D01*
X67781079Y-67285361D01*
X67828699Y-67190123D01*
X67876318Y-67142504D01*
X67971556Y-67094885D01*
X68114413Y-67094885D01*
X68209651Y-67142504D01*
X68257270Y-67190123D01*
X68304889Y-67285361D01*
X68304889Y-67571075D01*
X68257270Y-67666313D01*
X68209651Y-67713932D01*
X68114413Y-67761551D01*
X67971556Y-67761551D01*
X68590603Y-67094885D02*
X68971556Y-67094885D01*
X68733460Y-67761551D02*
X68733460Y-66904409D01*
X68781079Y-66809171D01*
X68876318Y-66761551D01*
X68971556Y-66761551D01*
X70066794Y-67761551D02*
X70066794Y-66761551D01*
X70066794Y-67142504D02*
X70162032Y-67094885D01*
X70352508Y-67094885D01*
X70447746Y-67142504D01*
X70495365Y-67190123D01*
X70542984Y-67285361D01*
X70542984Y-67571075D01*
X70495365Y-67666313D01*
X70447746Y-67713932D01*
X70352508Y-67761551D01*
X70162032Y-67761551D01*
X70066794Y-67713932D01*
X71114413Y-67761551D02*
X71019175Y-67713932D01*
X70971556Y-67666313D01*
X70923937Y-67571075D01*
X70923937Y-67285361D01*
X70971556Y-67190123D01*
X71019175Y-67142504D01*
X71114413Y-67094885D01*
X71257270Y-67094885D01*
X71352508Y-67142504D01*
X71400127Y-67190123D01*
X71447746Y-67285361D01*
X71447746Y-67571075D01*
X71400127Y-67666313D01*
X71352508Y-67713932D01*
X71257270Y-67761551D01*
X71114413Y-67761551D01*
X72304889Y-67761551D02*
X72304889Y-67237742D01*
X72257270Y-67142504D01*
X72162032Y-67094885D01*
X71971556Y-67094885D01*
X71876318Y-67142504D01*
X72304889Y-67713932D02*
X72209651Y-67761551D01*
X71971556Y-67761551D01*
X71876318Y-67713932D01*
X71828699Y-67618694D01*
X71828699Y-67523456D01*
X71876318Y-67428218D01*
X71971556Y-67380599D01*
X72209651Y-67380599D01*
X72304889Y-67332980D01*
X72781079Y-67761551D02*
X72781079Y-67094885D01*
X72781079Y-67285361D02*
X72828699Y-67190123D01*
X72876318Y-67142504D01*
X72971556Y-67094885D01*
X73066794Y-67094885D01*
X73828699Y-67761551D02*
X73828699Y-66761551D01*
X73828699Y-67713932D02*
X73733460Y-67761551D01*
X73542984Y-67761551D01*
X73447746Y-67713932D01*
X73400127Y-67666313D01*
X73352508Y-67571075D01*
X73352508Y-67285361D01*
X73400127Y-67190123D01*
X73447746Y-67142504D01*
X73542984Y-67094885D01*
X73733460Y-67094885D01*
X73828699Y-67142504D01*
X74304889Y-67666313D02*
X74352508Y-67713932D01*
X74304889Y-67761551D01*
X74257270Y-67713932D01*
X74304889Y-67666313D01*
X74304889Y-67761551D01*
X34233460Y-68704885D02*
X34423937Y-69371551D01*
X34614413Y-68895361D01*
X34804889Y-69371551D01*
X34995365Y-68704885D01*
X35376318Y-69371551D02*
X35376318Y-68371551D01*
X35804889Y-69371551D02*
X35804889Y-68847742D01*
X35757270Y-68752504D01*
X35662032Y-68704885D01*
X35519175Y-68704885D01*
X35423937Y-68752504D01*
X35376318Y-68800123D01*
X36185841Y-68704885D02*
X36423937Y-69371551D01*
X36662032Y-68704885D02*
X36423937Y-69371551D01*
X36328699Y-69609647D01*
X36281079Y-69657266D01*
X36185841Y-69704885D01*
X37185841Y-69276313D02*
X37233460Y-69323932D01*
X37185841Y-69371551D01*
X37138222Y-69323932D01*
X37185841Y-69276313D01*
X37185841Y-69371551D01*
X36995365Y-68419171D02*
X37090603Y-68371551D01*
X37328699Y-68371551D01*
X37423937Y-68419171D01*
X37471556Y-68514409D01*
X37471556Y-68609647D01*
X37423937Y-68704885D01*
X37376318Y-68752504D01*
X37281079Y-68800123D01*
X37233460Y-68847742D01*
X37185841Y-68942980D01*
X37185841Y-68990599D01*
X38519175Y-68371551D02*
X39090603Y-68371551D01*
X38804889Y-69371551D02*
X38804889Y-68371551D01*
X39804889Y-69323932D02*
X39709651Y-69371551D01*
X39519175Y-69371551D01*
X39423937Y-69323932D01*
X39376318Y-69228694D01*
X39376318Y-68847742D01*
X39423937Y-68752504D01*
X39519175Y-68704885D01*
X39709651Y-68704885D01*
X39804889Y-68752504D01*
X39852508Y-68847742D01*
X39852508Y-68942980D01*
X39376318Y-69038218D01*
X40281080Y-69371551D02*
X40281080Y-68704885D01*
X40281080Y-68800123D02*
X40328699Y-68752504D01*
X40423937Y-68704885D01*
X40566794Y-68704885D01*
X40662032Y-68752504D01*
X40709651Y-68847742D01*
X40709651Y-69371551D01*
X40709651Y-68847742D02*
X40757270Y-68752504D01*
X40852508Y-68704885D01*
X40995365Y-68704885D01*
X41090603Y-68752504D01*
X41138222Y-68847742D01*
X41138222Y-69371551D01*
X41614413Y-68704885D02*
X41614413Y-69704885D01*
X41614413Y-68752504D02*
X41709651Y-68704885D01*
X41900127Y-68704885D01*
X41995365Y-68752504D01*
X42042984Y-68800123D01*
X42090603Y-68895361D01*
X42090603Y-69181075D01*
X42042984Y-69276313D01*
X41995365Y-69323932D01*
X41900127Y-69371551D01*
X41709651Y-69371551D01*
X41614413Y-69323932D01*
X42900127Y-69323932D02*
X42804889Y-69371551D01*
X42614413Y-69371551D01*
X42519175Y-69323932D01*
X42471556Y-69228694D01*
X42471556Y-68847742D01*
X42519175Y-68752504D01*
X42614413Y-68704885D01*
X42804889Y-68704885D01*
X42900127Y-68752504D01*
X42947746Y-68847742D01*
X42947746Y-68942980D01*
X42471556Y-69038218D01*
X43376318Y-69371551D02*
X43376318Y-68704885D01*
X43376318Y-68895361D02*
X43423937Y-68800123D01*
X43471556Y-68752504D01*
X43566794Y-68704885D01*
X43662032Y-68704885D01*
X44423937Y-69371551D02*
X44423937Y-68847742D01*
X44376318Y-68752504D01*
X44281080Y-68704885D01*
X44090603Y-68704885D01*
X43995365Y-68752504D01*
X44423937Y-69323932D02*
X44328699Y-69371551D01*
X44090603Y-69371551D01*
X43995365Y-69323932D01*
X43947746Y-69228694D01*
X43947746Y-69133456D01*
X43995365Y-69038218D01*
X44090603Y-68990599D01*
X44328699Y-68990599D01*
X44423937Y-68942980D01*
X44757270Y-68704885D02*
X45138222Y-68704885D01*
X44900127Y-68371551D02*
X44900127Y-69228694D01*
X44947746Y-69323932D01*
X45042984Y-69371551D01*
X45138222Y-69371551D01*
X45900127Y-68704885D02*
X45900127Y-69371551D01*
X45471556Y-68704885D02*
X45471556Y-69228694D01*
X45519175Y-69323932D01*
X45614413Y-69371551D01*
X45757270Y-69371551D01*
X45852508Y-69323932D01*
X45900127Y-69276313D01*
X46376318Y-69371551D02*
X46376318Y-68704885D01*
X46376318Y-68895361D02*
X46423937Y-68800123D01*
X46471556Y-68752504D01*
X46566794Y-68704885D01*
X46662032Y-68704885D01*
X47376318Y-69323932D02*
X47281080Y-69371551D01*
X47090603Y-69371551D01*
X46995365Y-69323932D01*
X46947746Y-69228694D01*
X46947746Y-68847742D01*
X46995365Y-68752504D01*
X47090603Y-68704885D01*
X47281080Y-68704885D01*
X47376318Y-68752504D01*
X47423937Y-68847742D01*
X47423937Y-68942980D01*
X46947746Y-69038218D01*
X48566794Y-69323932D02*
X48662032Y-69371551D01*
X48852508Y-69371551D01*
X48947746Y-69323932D01*
X48995365Y-69228694D01*
X48995365Y-69181075D01*
X48947746Y-69085837D01*
X48852508Y-69038218D01*
X48709651Y-69038218D01*
X48614413Y-68990599D01*
X48566794Y-68895361D01*
X48566794Y-68847742D01*
X48614413Y-68752504D01*
X48709651Y-68704885D01*
X48852508Y-68704885D01*
X48947746Y-68752504D01*
X49804889Y-69323932D02*
X49709651Y-69371551D01*
X49519175Y-69371551D01*
X49423937Y-69323932D01*
X49376318Y-69228694D01*
X49376318Y-68847742D01*
X49423937Y-68752504D01*
X49519175Y-68704885D01*
X49709651Y-68704885D01*
X49804889Y-68752504D01*
X49852508Y-68847742D01*
X49852508Y-68942980D01*
X49376318Y-69038218D01*
X50281079Y-68704885D02*
X50281079Y-69371551D01*
X50281079Y-68800123D02*
X50328699Y-68752504D01*
X50423937Y-68704885D01*
X50566794Y-68704885D01*
X50662032Y-68752504D01*
X50709651Y-68847742D01*
X50709651Y-69371551D01*
X51138222Y-69323932D02*
X51233460Y-69371551D01*
X51423937Y-69371551D01*
X51519175Y-69323932D01*
X51566794Y-69228694D01*
X51566794Y-69181075D01*
X51519175Y-69085837D01*
X51423937Y-69038218D01*
X51281079Y-69038218D01*
X51185841Y-68990599D01*
X51138222Y-68895361D01*
X51138222Y-68847742D01*
X51185841Y-68752504D01*
X51281079Y-68704885D01*
X51423937Y-68704885D01*
X51519175Y-68752504D01*
X52138222Y-69371551D02*
X52042984Y-69323932D01*
X51995365Y-69276313D01*
X51947746Y-69181075D01*
X51947746Y-68895361D01*
X51995365Y-68800123D01*
X52042984Y-68752504D01*
X52138222Y-68704885D01*
X52281079Y-68704885D01*
X52376318Y-68752504D01*
X52423937Y-68800123D01*
X52471556Y-68895361D01*
X52471556Y-69181075D01*
X52423937Y-69276313D01*
X52376318Y-69323932D01*
X52281079Y-69371551D01*
X52138222Y-69371551D01*
X52900127Y-69371551D02*
X52900127Y-68704885D01*
X52900127Y-68895361D02*
X52947746Y-68800123D01*
X52995365Y-68752504D01*
X53090603Y-68704885D01*
X53185841Y-68704885D01*
X54709651Y-68704885D02*
X54709651Y-69514409D01*
X54662032Y-69609647D01*
X54614413Y-69657266D01*
X54519175Y-69704885D01*
X54376318Y-69704885D01*
X54281079Y-69657266D01*
X54709651Y-69323932D02*
X54614413Y-69371551D01*
X54423937Y-69371551D01*
X54328699Y-69323932D01*
X54281079Y-69276313D01*
X54233460Y-69181075D01*
X54233460Y-68895361D01*
X54281079Y-68800123D01*
X54328699Y-68752504D01*
X54423937Y-68704885D01*
X54614413Y-68704885D01*
X54709651Y-68752504D01*
X55566794Y-69323932D02*
X55471556Y-69371551D01*
X55281079Y-69371551D01*
X55185841Y-69323932D01*
X55138222Y-69228694D01*
X55138222Y-68847742D01*
X55185841Y-68752504D01*
X55281079Y-68704885D01*
X55471556Y-68704885D01*
X55566794Y-68752504D01*
X55614413Y-68847742D01*
X55614413Y-68942980D01*
X55138222Y-69038218D01*
X55900127Y-68704885D02*
X56281079Y-68704885D01*
X56042984Y-68371551D02*
X56042984Y-69228694D01*
X56090603Y-69323932D01*
X56185841Y-69371551D01*
X56281079Y-69371551D01*
X56566794Y-69323932D02*
X56662032Y-69371551D01*
X56852508Y-69371551D01*
X56947746Y-69323932D01*
X56995365Y-69228694D01*
X56995365Y-69181075D01*
X56947746Y-69085837D01*
X56852508Y-69038218D01*
X56709651Y-69038218D01*
X56614413Y-68990599D01*
X56566794Y-68895361D01*
X56566794Y-68847742D01*
X56614413Y-68752504D01*
X56709651Y-68704885D01*
X56852508Y-68704885D01*
X56947746Y-68752504D01*
X58185841Y-69371551D02*
X58185841Y-68371551D01*
X58614413Y-69371551D02*
X58614413Y-68847742D01*
X58566794Y-68752504D01*
X58471556Y-68704885D01*
X58328699Y-68704885D01*
X58233460Y-68752504D01*
X58185841Y-68800123D01*
X59471556Y-69323932D02*
X59376318Y-69371551D01*
X59185841Y-69371551D01*
X59090603Y-69323932D01*
X59042984Y-69228694D01*
X59042984Y-68847742D01*
X59090603Y-68752504D01*
X59185841Y-68704885D01*
X59376318Y-68704885D01*
X59471556Y-68752504D01*
X59519175Y-68847742D01*
X59519175Y-68942980D01*
X59042984Y-69038218D01*
X60376318Y-69371551D02*
X60376318Y-68847742D01*
X60328699Y-68752504D01*
X60233460Y-68704885D01*
X60042984Y-68704885D01*
X59947746Y-68752504D01*
X60376318Y-69323932D02*
X60281079Y-69371551D01*
X60042984Y-69371551D01*
X59947746Y-69323932D01*
X59900127Y-69228694D01*
X59900127Y-69133456D01*
X59947746Y-69038218D01*
X60042984Y-68990599D01*
X60281079Y-68990599D01*
X60376318Y-68942980D01*
X60709651Y-68704885D02*
X61090603Y-68704885D01*
X60852508Y-68371551D02*
X60852508Y-69228694D01*
X60900127Y-69323932D01*
X60995365Y-69371551D01*
X61090603Y-69371551D01*
X61804889Y-69323932D02*
X61709651Y-69371551D01*
X61519175Y-69371551D01*
X61423937Y-69323932D01*
X61376318Y-69228694D01*
X61376318Y-68847742D01*
X61423937Y-68752504D01*
X61519175Y-68704885D01*
X61709651Y-68704885D01*
X61804889Y-68752504D01*
X61852508Y-68847742D01*
X61852508Y-68942980D01*
X61376318Y-69038218D01*
X62709651Y-69371551D02*
X62709651Y-68371551D01*
X62709651Y-69323932D02*
X62614413Y-69371551D01*
X62423937Y-69371551D01*
X62328699Y-69323932D01*
X62281079Y-69276313D01*
X62233460Y-69181075D01*
X62233460Y-68895361D01*
X62281079Y-68800123D01*
X62328699Y-68752504D01*
X62423937Y-68704885D01*
X62614413Y-68704885D01*
X62709651Y-68752504D01*
X64376318Y-68704885D02*
X64376318Y-69371551D01*
X63947746Y-68704885D02*
X63947746Y-69228694D01*
X63995365Y-69323932D01*
X64090603Y-69371551D01*
X64233460Y-69371551D01*
X64328699Y-69323932D01*
X64376318Y-69276313D01*
X64852508Y-68704885D02*
X64852508Y-69704885D01*
X64852508Y-68752504D02*
X64947746Y-68704885D01*
X65138222Y-68704885D01*
X65233460Y-68752504D01*
X65281079Y-68800123D01*
X65328699Y-68895361D01*
X65328699Y-69181075D01*
X65281079Y-69276313D01*
X65233460Y-69323932D01*
X65138222Y-69371551D01*
X64947746Y-69371551D01*
X64852508Y-69323932D01*
X66519175Y-69371551D02*
X66519175Y-68371551D01*
X66519175Y-68752504D02*
X66614413Y-68704885D01*
X66804889Y-68704885D01*
X66900127Y-68752504D01*
X66947746Y-68800123D01*
X66995365Y-68895361D01*
X66995365Y-69181075D01*
X66947746Y-69276313D01*
X66900127Y-69323932D01*
X66804889Y-69371551D01*
X66614413Y-69371551D01*
X66519175Y-69323932D01*
X67328699Y-68704885D02*
X67566794Y-69371551D01*
X67804889Y-68704885D02*
X67566794Y-69371551D01*
X67471556Y-69609647D01*
X67423937Y-69657266D01*
X67328699Y-69704885D01*
X68947746Y-68847742D02*
X69281079Y-68847742D01*
X69423937Y-69371551D02*
X68947746Y-69371551D01*
X68947746Y-68371551D01*
X69423937Y-68371551D01*
X69804889Y-69323932D02*
X69947746Y-69371551D01*
X70185841Y-69371551D01*
X70281079Y-69323932D01*
X70328699Y-69276313D01*
X70376318Y-69181075D01*
X70376318Y-69085837D01*
X70328699Y-68990599D01*
X70281079Y-68942980D01*
X70185841Y-68895361D01*
X69995365Y-68847742D01*
X69900127Y-68800123D01*
X69852508Y-68752504D01*
X69804889Y-68657266D01*
X69804889Y-68562028D01*
X69852508Y-68466790D01*
X69900127Y-68419171D01*
X69995365Y-68371551D01*
X70233460Y-68371551D01*
X70376318Y-68419171D01*
X70804889Y-69371551D02*
X70804889Y-68371551D01*
X71185841Y-68371551D01*
X71281079Y-68419171D01*
X71328699Y-68466790D01*
X71376318Y-68562028D01*
X71376318Y-68704885D01*
X71328699Y-68800123D01*
X71281079Y-68847742D01*
X71185841Y-68895361D01*
X70804889Y-68895361D01*
X71709651Y-68371551D02*
X72328699Y-68371551D01*
X71995365Y-68752504D01*
X72138222Y-68752504D01*
X72233460Y-68800123D01*
X72281079Y-68847742D01*
X72328699Y-68942980D01*
X72328699Y-69181075D01*
X72281079Y-69276313D01*
X72233460Y-69323932D01*
X72138222Y-69371551D01*
X71852508Y-69371551D01*
X71757270Y-69323932D01*
X71709651Y-69276313D01*
X72709651Y-68466790D02*
X72757270Y-68419171D01*
X72852508Y-68371551D01*
X73090603Y-68371551D01*
X73185841Y-68419171D01*
X73233460Y-68466790D01*
X73281079Y-68562028D01*
X73281079Y-68657266D01*
X73233460Y-68800123D01*
X72662032Y-69371551D01*
X73281079Y-69371551D01*
X135879008Y-26776551D02*
X135307580Y-26776551D01*
X135593294Y-26776551D02*
X135593294Y-25776551D01*
X135498056Y-25919409D01*
X135402818Y-26014647D01*
X135307580Y-26062266D01*
X136307580Y-26681313D02*
X136355199Y-26728932D01*
X136307580Y-26776551D01*
X136259960Y-26728932D01*
X136307580Y-26681313D01*
X136307580Y-26776551D01*
X136736151Y-25871790D02*
X136783770Y-25824171D01*
X136879008Y-25776551D01*
X137117103Y-25776551D01*
X137212341Y-25824171D01*
X137259960Y-25871790D01*
X137307580Y-25967028D01*
X137307580Y-26062266D01*
X137259960Y-26205123D01*
X136688532Y-26776551D01*
X137307580Y-26776551D01*
X138164722Y-26109885D02*
X138164722Y-26776551D01*
X137926627Y-25728932D02*
X137688532Y-26443218D01*
X138307580Y-26443218D01*
X139164722Y-25776551D02*
X138688532Y-25776551D01*
X138640913Y-26252742D01*
X138688532Y-26205123D01*
X138783770Y-26157504D01*
X139021865Y-26157504D01*
X139117103Y-26205123D01*
X139164722Y-26252742D01*
X139212341Y-26347980D01*
X139212341Y-26586075D01*
X139164722Y-26681313D01*
X139117103Y-26728932D01*
X139021865Y-26776551D01*
X138783770Y-26776551D01*
X138688532Y-26728932D01*
X138640913Y-26681313D01*
X139831389Y-25776551D02*
X139926627Y-25776551D01*
X140021865Y-25824171D01*
X140069484Y-25871790D01*
X140117103Y-25967028D01*
X140164722Y-26157504D01*
X140164722Y-26395599D01*
X140117103Y-26586075D01*
X140069484Y-26681313D01*
X140021865Y-26728932D01*
X139926627Y-26776551D01*
X139831389Y-26776551D01*
X139736151Y-26728932D01*
X139688532Y-26681313D01*
X139640913Y-26586075D01*
X139593294Y-26395599D01*
X139593294Y-26157504D01*
X139640913Y-25967028D01*
X139688532Y-25871790D01*
X139736151Y-25824171D01*
X139831389Y-25776551D01*
X141355199Y-26776551D02*
X141355199Y-26109885D01*
X141355199Y-25776551D02*
X141307580Y-25824171D01*
X141355199Y-25871790D01*
X141402818Y-25824171D01*
X141355199Y-25776551D01*
X141355199Y-25871790D01*
X141831389Y-26109885D02*
X141831389Y-26776551D01*
X141831389Y-26205123D02*
X141879008Y-26157504D01*
X141974246Y-26109885D01*
X142117103Y-26109885D01*
X142212341Y-26157504D01*
X142259960Y-26252742D01*
X142259960Y-26776551D01*
D10*
X122996080Y-47802171D02*
X122996080Y-26887751D01*
X154619080Y-47802171D02*
X154619080Y-26887751D01*
X122996080Y-27474171D02*
X154619080Y-27474171D01*
X122996080Y-27474171D02*
X154619080Y-27474171D01*
X122996080Y-27474171D02*
X124122584Y-28060592D01*
X122996080Y-27474171D02*
X124122584Y-26887750D01*
X154619080Y-27474171D02*
X153492576Y-26887750D01*
X154619080Y-27474171D02*
X153492576Y-28060592D01*
D11*
X176273460Y-59358742D02*
X176273460Y-59930171D01*
X176273460Y-59644456D02*
X175273460Y-59644456D01*
X175416318Y-59739694D01*
X175511556Y-59834932D01*
X175559175Y-59930171D01*
X176178222Y-58930171D02*
X176225841Y-58882551D01*
X176273460Y-58930171D01*
X176225841Y-58977790D01*
X176178222Y-58930171D01*
X176273460Y-58930171D01*
X175606794Y-58025409D02*
X176273460Y-58025409D01*
X175225841Y-58263504D02*
X175940127Y-58501599D01*
X175940127Y-57882551D01*
X175368699Y-57549218D02*
X175321080Y-57501599D01*
X175273460Y-57406361D01*
X175273460Y-57168266D01*
X175321080Y-57073028D01*
X175368699Y-57025409D01*
X175463937Y-56977790D01*
X175559175Y-56977790D01*
X175702032Y-57025409D01*
X176273460Y-57596837D01*
X176273460Y-56977790D01*
X175273460Y-56358742D02*
X175273460Y-56263504D01*
X175321080Y-56168266D01*
X175368699Y-56120647D01*
X175463937Y-56073028D01*
X175654413Y-56025409D01*
X175892508Y-56025409D01*
X176082984Y-56073028D01*
X176178222Y-56120647D01*
X176225841Y-56168266D01*
X176273460Y-56263504D01*
X176273460Y-56358742D01*
X176225841Y-56453980D01*
X176178222Y-56501599D01*
X176082984Y-56549218D01*
X175892508Y-56596837D01*
X175654413Y-56596837D01*
X175463937Y-56549218D01*
X175368699Y-56501599D01*
X175321080Y-56453980D01*
X175273460Y-56358742D01*
X175273460Y-55406361D02*
X175273460Y-55311123D01*
X175321080Y-55215885D01*
X175368699Y-55168266D01*
X175463937Y-55120647D01*
X175654413Y-55073028D01*
X175892508Y-55073028D01*
X176082984Y-55120647D01*
X176178222Y-55168266D01*
X176225841Y-55215885D01*
X176273460Y-55311123D01*
X176273460Y-55406361D01*
X176225841Y-55501599D01*
X176178222Y-55549218D01*
X176082984Y-55596837D01*
X175892508Y-55644456D01*
X175654413Y-55644456D01*
X175463937Y-55596837D01*
X175368699Y-55549218D01*
X175321080Y-55501599D01*
X175273460Y-55406361D01*
X176273460Y-53882551D02*
X175606794Y-53882551D01*
X175273460Y-53882551D02*
X175321080Y-53930171D01*
X175368699Y-53882551D01*
X175321080Y-53834932D01*
X175273460Y-53882551D01*
X175368699Y-53882551D01*
X175606794Y-53406361D02*
X176273460Y-53406361D01*
X175702032Y-53406361D02*
X175654413Y-53358742D01*
X175606794Y-53263504D01*
X175606794Y-53120647D01*
X175654413Y-53025409D01*
X175749651Y-52977790D01*
X176273460Y-52977790D01*
D10*
X149023080Y-38396171D02*
X177557500Y-38396171D01*
X149023080Y-74464171D02*
X177557500Y-74464171D01*
X176971080Y-38396171D02*
X176971080Y-74464171D01*
X176971080Y-38396171D02*
X176971080Y-74464171D01*
X176971080Y-38396171D02*
X176384659Y-39522675D01*
X176971080Y-38396171D02*
X177557501Y-39522675D01*
X176971080Y-74464171D02*
X177557501Y-73337667D01*
X176971080Y-74464171D02*
X176384659Y-73337667D01*
M02*
