G04 #@! TF.GenerationSoftware,KiCad,Pcbnew,6.0.5-a6ca702e91~116~ubuntu20.04.1*
G04 #@! TF.CreationDate,2022-07-03T11:06:06+00:00*
G04 #@! TF.ProjectId,PlantBuddy,506c616e-7442-4756-9464-792e6b696361,rev?*
G04 #@! TF.SameCoordinates,Original*
G04 #@! TF.FileFunction,Copper,L2,Bot*
G04 #@! TF.FilePolarity,Positive*
%FSLAX46Y46*%
G04 Gerber Fmt 4.6, Leading zero omitted, Abs format (unit mm)*
G04 Created by KiCad (PCBNEW 6.0.5-a6ca702e91~116~ubuntu20.04.1) date 2022-07-03 11:06:06*
%MOMM*%
%LPD*%
G01*
G04 APERTURE LIST*
G04 Aperture macros list*
%AMRoundRect*
0 Rectangle with rounded corners*
0 $1 Rounding radius*
0 $2 $3 $4 $5 $6 $7 $8 $9 X,Y pos of 4 corners*
0 Add a 4 corners polygon primitive as box body*
4,1,4,$2,$3,$4,$5,$6,$7,$8,$9,$2,$3,0*
0 Add four circle primitives for the rounded corners*
1,1,$1+$1,$2,$3*
1,1,$1+$1,$4,$5*
1,1,$1+$1,$6,$7*
1,1,$1+$1,$8,$9*
0 Add four rect primitives between the rounded corners*
20,1,$1+$1,$2,$3,$4,$5,0*
20,1,$1+$1,$4,$5,$6,$7,0*
20,1,$1+$1,$6,$7,$8,$9,0*
20,1,$1+$1,$8,$9,$2,$3,0*%
G04 Aperture macros list end*
G04 #@! TA.AperFunction,ComponentPad*
%ADD10C,0.400000*%
G04 #@! TD*
G04 #@! TA.AperFunction,ComponentPad*
%ADD11O,2.100000X1.000000*%
G04 #@! TD*
G04 #@! TA.AperFunction,ComponentPad*
%ADD12O,1.600000X1.000000*%
G04 #@! TD*
G04 #@! TA.AperFunction,SMDPad,CuDef*
%ADD13C,2.000000*%
G04 #@! TD*
G04 #@! TA.AperFunction,SMDPad,CuDef*
%ADD14RoundRect,0.317500X0.317500X-0.317500X0.317500X0.317500X-0.317500X0.317500X-0.317500X-0.317500X0*%
G04 #@! TD*
G04 #@! TA.AperFunction,SMDPad,CuDef*
%ADD15R,1.500000X1.500000*%
G04 #@! TD*
G04 #@! TA.AperFunction,SMDPad,CuDef*
%ADD16RoundRect,0.200000X-0.200000X-0.600000X0.200000X-0.600000X0.200000X0.600000X-0.200000X0.600000X0*%
G04 #@! TD*
G04 #@! TA.AperFunction,SMDPad,CuDef*
%ADD17RoundRect,0.250001X-0.799999X-1.249999X0.799999X-1.249999X0.799999X1.249999X-0.799999X1.249999X0*%
G04 #@! TD*
G04 #@! TA.AperFunction,ViaPad*
%ADD18C,0.600000*%
G04 #@! TD*
G04 #@! TA.AperFunction,Conductor*
%ADD19C,1.050000*%
G04 #@! TD*
G04 #@! TA.AperFunction,Conductor*
%ADD20C,0.200000*%
G04 #@! TD*
G04 #@! TA.AperFunction,Conductor*
%ADD21C,0.300000*%
G04 #@! TD*
G04 APERTURE END LIST*
D10*
G04 #@! TO.P,U3,41_1,GND*
G04 #@! TO.N,GND*
X141174580Y-55337171D03*
X141874580Y-53237171D03*
X141874580Y-54637171D03*
X140474580Y-54637171D03*
X142574580Y-52537171D03*
X142574580Y-53937171D03*
X140474580Y-53237171D03*
X143274580Y-53237171D03*
X142574580Y-55337171D03*
X141174580Y-53937171D03*
X143274580Y-54637171D03*
X141174580Y-52537171D03*
G04 #@! TD*
D11*
G04 #@! TO.P,J1,S1,SHIELD*
G04 #@! TO.N,GND*
X129999580Y-60936671D03*
X129999580Y-69576671D03*
D12*
X125819580Y-60936671D03*
X125819580Y-69576671D03*
G04 #@! TD*
D13*
G04 #@! TO.P,TP2,1,1*
G04 #@! TO.N,GND*
X146909080Y-55261171D03*
G04 #@! TD*
D14*
G04 #@! TO.P,LS1,1,1*
G04 #@! TO.N,/piezo_p*
X151952080Y-55795171D03*
G04 #@! TO.P,LS1,2,2*
G04 #@! TO.N,/piezo_l*
X151952080Y-53255171D03*
G04 #@! TD*
D13*
G04 #@! TO.P,TP1,1,1*
G04 #@! TO.N,+3V3*
X146859080Y-58831171D03*
G04 #@! TD*
D15*
G04 #@! TO.P,J2,1,Pin_1*
G04 #@! TO.N,Net-(J2-Pad1)*
X124529080Y-55661171D03*
G04 #@! TD*
G04 #@! TO.P,J3,1,Pin_1*
G04 #@! TO.N,VCC*
X124520080Y-50715171D03*
G04 #@! TD*
D16*
G04 #@! TO.P,BT1,1,+*
G04 #@! TO.N,+BATT*
X149168080Y-72538171D03*
G04 #@! TO.P,BT1,2,-*
G04 #@! TO.N,GND*
X150418080Y-72538171D03*
D17*
G04 #@! TO.P,BT1,MP*
G04 #@! TO.N,N/C*
X152968080Y-69638171D03*
X146618080Y-69638171D03*
G04 #@! TD*
D13*
G04 #@! TO.P,TP3,1,1*
G04 #@! TO.N,/csense*
X140739080Y-64331171D03*
G04 #@! TD*
D18*
G04 #@! TO.N,+BATT*
X131617080Y-56606171D03*
X130844080Y-56606171D03*
G04 #@! TO.N,+3V3*
X146859080Y-58831171D03*
G04 #@! TO.N,/SDA*
X127844080Y-41531171D03*
X136679080Y-48561171D03*
X130919080Y-40256171D03*
X136686680Y-46549571D03*
G04 #@! TO.N,/SCL*
X127869080Y-42331171D03*
X126933080Y-40571671D03*
X130743080Y-41952171D03*
X137474080Y-46524171D03*
X137479080Y-48601171D03*
X133791080Y-42206171D03*
G04 #@! TO.N,GND*
X127441080Y-44111171D03*
X129854080Y-53636171D03*
X131632080Y-58208171D03*
X126759453Y-54079370D03*
X130362080Y-43222171D03*
X136469080Y-72211171D03*
X128673749Y-39630671D03*
X131759080Y-72686171D03*
X135823080Y-46270171D03*
X125980580Y-56112671D03*
X152079080Y-67580605D03*
X129854080Y-59605171D03*
X129854080Y-46905171D03*
X124266080Y-42587171D03*
X125764680Y-50003971D03*
X152206080Y-72597171D03*
X130122185Y-51512671D03*
X126171080Y-72305171D03*
X150809080Y-46143171D03*
X126173512Y-47988360D03*
X131632080Y-46905171D03*
X128584080Y-72686171D03*
X123644080Y-52081171D03*
X127695080Y-59859171D03*
X127695080Y-72305171D03*
X136639080Y-66761171D03*
G04 #@! TO.N,VCC*
X126806080Y-51350171D03*
G04 #@! TO.N,/~PGOOD*
X128457080Y-53874170D03*
X125340034Y-53698204D03*
X133219080Y-54481171D03*
X128457080Y-55160169D03*
G04 #@! TO.N,/~CHG*
X133483567Y-51349719D03*
X124669080Y-54156171D03*
G04 #@! TO.N,Net-(J1-PadA5)*
X128330080Y-67733171D03*
X128889218Y-66357777D03*
G04 #@! TO.N,Net-(J2-Pad1)*
X124069080Y-54631171D03*
G04 #@! TO.N,/piezo_p*
X150682080Y-55033171D03*
G04 #@! TO.N,/piezo_l*
X150428080Y-52620171D03*
G04 #@! TO.N,Net-(R6-Pad2)*
X128076080Y-57446171D03*
X127314080Y-70273171D03*
G04 #@! TO.N,/btn*
X153544080Y-65056171D03*
X150844080Y-62406171D03*
G04 #@! TO.N,Net-(D4-Pad2)*
X126679080Y-39031171D03*
X124647080Y-40428171D03*
X133238026Y-52926445D03*
X123631080Y-47032171D03*
G04 #@! TO.N,/status*
X139440264Y-56015987D03*
X125967202Y-40452004D03*
X137719080Y-51181171D03*
X126145680Y-47235371D03*
X127771280Y-48117671D03*
X139944080Y-57531171D03*
G04 #@! TO.N,/EXT6*
X134010497Y-64906171D03*
X135879080Y-61331171D03*
G04 #@! TO.N,/charge_disable*
X127632080Y-54525171D03*
X133270005Y-53679268D03*
G04 #@! TO.N,/csense*
X141939080Y-66791171D03*
G04 #@! TO.N,/EXT7*
X136389080Y-60521171D03*
X134563997Y-64311450D03*
G04 #@! TO.N,/EXT8*
X136986080Y-61384009D03*
X135132080Y-63816427D03*
G04 #@! TO.N,/tEN_Soil*
X137559080Y-65781171D03*
X140109080Y-71981171D03*
G04 #@! TD*
D19*
G04 #@! TO.N,+BATT*
X149168080Y-72538171D02*
X149168080Y-64695171D01*
X141538080Y-62399171D02*
X135745080Y-56606171D01*
X146872080Y-62399171D02*
X141538080Y-62399171D01*
X149168080Y-64695171D02*
X146872080Y-62399171D01*
X135745080Y-56606171D02*
X130844080Y-56606171D01*
D20*
G04 #@! TO.N,/SDA*
X136712080Y-46574971D02*
X136712080Y-48528171D01*
X129644080Y-41531171D02*
X127844080Y-41531171D01*
X136712080Y-48528171D02*
X136679080Y-48561171D01*
X130919080Y-40256171D02*
X129644080Y-41531171D01*
X136686680Y-46549571D02*
X136712080Y-46574971D01*
G04 #@! TO.N,/SCL*
X132952880Y-38954971D02*
X127603102Y-38954971D01*
X133791080Y-42206171D02*
X133791080Y-39793171D01*
X133791080Y-39793171D02*
X132952880Y-38954971D01*
X126933080Y-40571671D02*
X126933080Y-39624993D01*
X130743080Y-41952171D02*
X128248080Y-41952171D01*
X137479080Y-46529171D02*
X137479080Y-48601171D01*
X127603102Y-38954971D02*
X126933080Y-39624993D01*
X137474080Y-46524171D02*
X137479080Y-46529171D01*
X128248080Y-41952171D02*
X127869080Y-42331171D01*
G04 #@! TO.N,GND*
X126759453Y-54079370D02*
X126729880Y-54108943D01*
X126729880Y-54728371D02*
X126755280Y-54753771D01*
X126729880Y-54626771D02*
X126729880Y-54728371D01*
X126729880Y-54108943D02*
X126729880Y-54626771D01*
D21*
G04 #@! TO.N,VCC*
X126171080Y-50715171D02*
X126806080Y-51350171D01*
X124520080Y-50715171D02*
X126171080Y-50715171D01*
D20*
G04 #@! TO.N,/~PGOOD*
X126988721Y-53525870D02*
X127337021Y-53874170D01*
X127337021Y-53874170D02*
X128457080Y-53874170D01*
X128836078Y-54781171D02*
X132919080Y-54781171D01*
X128457080Y-55160169D02*
X128836078Y-54781171D01*
X125512368Y-53525870D02*
X126988721Y-53525870D01*
X132919080Y-54781171D02*
X133219080Y-54481171D01*
X125340034Y-53698204D02*
X125512368Y-53525870D01*
G04 #@! TO.N,/~CHG*
X133483567Y-51349719D02*
X132235115Y-52598171D01*
X125527080Y-52598171D02*
X124669080Y-53456171D01*
X132235115Y-52598171D02*
X125527080Y-52598171D01*
X124669080Y-53456171D02*
X124669080Y-54156171D01*
G04 #@! TO.N,Net-(J1-PadA5)*
X128330080Y-67733171D02*
X128889218Y-67174033D01*
X128889218Y-67174033D02*
X128889218Y-66357777D01*
D21*
G04 #@! TO.N,Net-(J2-Pad1)*
X124393080Y-55668171D02*
X124069080Y-55344171D01*
X124069080Y-55344171D02*
X124069080Y-54631171D01*
D20*
G04 #@! TO.N,/piezo_p*
X151190080Y-55033171D02*
X151952080Y-55795171D01*
X150682080Y-55033171D02*
X151190080Y-55033171D01*
G04 #@! TO.N,/piezo_l*
X151952080Y-53255171D02*
X151063080Y-53255171D01*
X151063080Y-53255171D02*
X150428080Y-52620171D01*
G04 #@! TO.N,Net-(R6-Pad2)*
X128542902Y-57446171D02*
X128076080Y-57446171D01*
X129056580Y-57959849D02*
X128542902Y-57446171D01*
X128586769Y-62142482D02*
X128586769Y-58926304D01*
X127314080Y-63415171D02*
X128586769Y-62142482D01*
X129056580Y-58456493D02*
X129056580Y-57959849D01*
X128586769Y-58926304D02*
X129056580Y-58456493D01*
X127314080Y-70273171D02*
X127314080Y-63415171D01*
G04 #@! TO.N,/btn*
X153494080Y-65056171D02*
X153544080Y-65056171D01*
X150844080Y-62406171D02*
X153494080Y-65056171D01*
G04 #@! TO.N,Net-(D4-Pad2)*
X134489080Y-51675391D02*
X133238026Y-52926445D01*
X126679080Y-39031171D02*
X126044080Y-39031171D01*
X126044080Y-39031171D02*
X124647080Y-40428171D01*
X134489080Y-51311171D02*
X134489080Y-51675391D01*
X126679080Y-50080171D02*
X133258080Y-50080171D01*
X123631080Y-47032171D02*
X126679080Y-50080171D01*
X133258080Y-50080171D02*
X134489080Y-51311171D01*
G04 #@! TO.N,/status*
X123631080Y-46184349D02*
X123631080Y-41952171D01*
X124230580Y-46783849D02*
X123631080Y-46184349D01*
X137719080Y-51181171D02*
X136218579Y-49680670D01*
X126145680Y-46916527D02*
X126013002Y-46783849D01*
X139440264Y-56015987D02*
X139944080Y-56519803D01*
X124555580Y-41027671D02*
X125391535Y-41027671D01*
X136218579Y-49680670D02*
X129193579Y-49680670D01*
X139944080Y-56519803D02*
X139944080Y-57531171D01*
X123631080Y-41952171D02*
X124555580Y-41027671D01*
X126145680Y-47235371D02*
X126145680Y-46916527D01*
X129193579Y-49680670D02*
X127771280Y-48258371D01*
X127771280Y-48258371D02*
X127771280Y-48117671D01*
X126013002Y-46783849D02*
X124230580Y-46783849D01*
X125391535Y-41027671D02*
X125967202Y-40452004D01*
G04 #@! TO.N,/EXT6*
X134010497Y-63199754D02*
X134010497Y-64906171D01*
X135879080Y-61331171D02*
X134010497Y-63199754D01*
G04 #@! TO.N,/charge_disable*
X127632080Y-54525171D02*
X127729581Y-54427670D01*
X133238215Y-53679268D02*
X133270005Y-53679268D01*
X127729581Y-54427670D02*
X132489813Y-54427670D01*
X132489813Y-54427670D02*
X133238215Y-53679268D01*
G04 #@! TO.N,/csense*
X141939080Y-65531171D02*
X141939080Y-66791171D01*
X140739080Y-64331171D02*
X141939080Y-65531171D01*
G04 #@! TO.N,/EXT7*
X134563997Y-63601742D02*
X134563997Y-64311450D01*
X136432580Y-60564671D02*
X136432580Y-61733159D01*
X136432580Y-61733159D02*
X134563997Y-63601742D01*
X136389080Y-60521171D02*
X136432580Y-60564671D01*
G04 #@! TO.N,/EXT8*
X136986080Y-61962427D02*
X135132080Y-63816427D01*
X136986080Y-61384009D02*
X136986080Y-61962427D01*
G04 #@! TO.N,/tEN_Soil*
X140109080Y-68331171D02*
X140109080Y-71981171D01*
X137559080Y-65781171D02*
X140109080Y-68331171D01*
G04 #@! TD*
G04 #@! TA.AperFunction,Conductor*
G04 #@! TO.N,GND*
G36*
X132845592Y-39274378D02*
G01*
X132857405Y-39284467D01*
X133461584Y-39888646D01*
X133489361Y-39943163D01*
X133490580Y-39958650D01*
X133490580Y-41753504D01*
X133471673Y-41811695D01*
X133463141Y-41820908D01*
X133463360Y-41821101D01*
X133373124Y-41923274D01*
X133373122Y-41923276D01*
X133368457Y-41928559D01*
X133365461Y-41934941D01*
X133365460Y-41934942D01*
X133363681Y-41938732D01*
X133307527Y-42058334D01*
X133306442Y-42065303D01*
X133306441Y-42065306D01*
X133291760Y-42159601D01*
X133285471Y-42199994D01*
X133304060Y-42342150D01*
X133306901Y-42348606D01*
X133306901Y-42348607D01*
X133355983Y-42460153D01*
X133361800Y-42473374D01*
X133374872Y-42488925D01*
X133449511Y-42577720D01*
X133449514Y-42577722D01*
X133454050Y-42583119D01*
X133573393Y-42662561D01*
X133674000Y-42693992D01*
X133703505Y-42703210D01*
X133703506Y-42703210D01*
X133710237Y-42705313D01*
X133781908Y-42706627D01*
X133846525Y-42707812D01*
X133846527Y-42707812D01*
X133853579Y-42707941D01*
X133860382Y-42706086D01*
X133860384Y-42706086D01*
X133935583Y-42685584D01*
X133991897Y-42670231D01*
X134114071Y-42595216D01*
X134126682Y-42581283D01*
X134179748Y-42550829D01*
X134240582Y-42557383D01*
X134285945Y-42598442D01*
X134299080Y-42647719D01*
X134299080Y-45266171D01*
X154317088Y-45266171D01*
X154375279Y-45285078D01*
X154411243Y-45334578D01*
X154416088Y-45365158D01*
X154418561Y-70967531D01*
X154418576Y-71123715D01*
X154416495Y-71139938D01*
X154416338Y-71145008D01*
X154413523Y-71155793D01*
X154415663Y-71166731D01*
X154415391Y-71175506D01*
X154416107Y-71188139D01*
X154404030Y-71338453D01*
X154392981Y-71475978D01*
X154391665Y-71485964D01*
X154334540Y-71796425D01*
X154332215Y-71806227D01*
X154243838Y-72109268D01*
X154240529Y-72118782D01*
X154121817Y-72411271D01*
X154117563Y-72420392D01*
X154056063Y-72536431D01*
X153969733Y-72699318D01*
X153964569Y-72707967D01*
X153789167Y-72970418D01*
X153783152Y-72978496D01*
X153602459Y-73197008D01*
X153581988Y-73221763D01*
X153575185Y-73229186D01*
X153530570Y-73273150D01*
X153350340Y-73450750D01*
X153342815Y-73457446D01*
X153096620Y-73655016D01*
X153088453Y-73660913D01*
X152823453Y-73832443D01*
X152814729Y-73837479D01*
X152771729Y-73859466D01*
X152533671Y-73981191D01*
X152524492Y-73985310D01*
X152388809Y-74038072D01*
X152230285Y-74099716D01*
X152220723Y-74102885D01*
X151916408Y-74186803D01*
X151906574Y-74188983D01*
X151595318Y-74241541D01*
X151585314Y-74242711D01*
X151541840Y-74245562D01*
X151297702Y-74261571D01*
X151286394Y-74260745D01*
X151276476Y-74260872D01*
X151265573Y-74258532D01*
X151254737Y-74261151D01*
X151253543Y-74261166D01*
X151232515Y-74263671D01*
X145952147Y-74263671D01*
X145890316Y-74241988D01*
X145865295Y-74221978D01*
X145865294Y-74221978D01*
X145856588Y-74215015D01*
X145845725Y-74212517D01*
X145845723Y-74212516D01*
X145800966Y-74202225D01*
X145789861Y-74199671D01*
X145744477Y-74199671D01*
X145677895Y-74214859D01*
X145669177Y-74221806D01*
X145643716Y-74242095D01*
X145582019Y-74263671D01*
X126457776Y-74263671D01*
X126436430Y-74261342D01*
X126434539Y-74260924D01*
X126434537Y-74260924D01*
X126423650Y-74258520D01*
X126412797Y-74261075D01*
X126403801Y-74261138D01*
X126391431Y-74262306D01*
X126098098Y-74249689D01*
X126087917Y-74248722D01*
X126047136Y-74242711D01*
X125770925Y-74201998D01*
X125760896Y-74199985D01*
X125450428Y-74120805D01*
X125440661Y-74117769D01*
X125375247Y-74093663D01*
X125140009Y-74006975D01*
X125130609Y-74002948D01*
X125098210Y-73987039D01*
X124986801Y-73932335D01*
X124842993Y-73861722D01*
X124834058Y-73856746D01*
X124562557Y-73686605D01*
X124554182Y-73680733D01*
X124301672Y-73483477D01*
X124293947Y-73476772D01*
X124282310Y-73465566D01*
X124063141Y-73254515D01*
X124056160Y-73247061D01*
X123849518Y-73002178D01*
X123843337Y-72994035D01*
X123810307Y-72945499D01*
X123775098Y-72893762D01*
X132453002Y-72893762D01*
X132453283Y-72899119D01*
X132461649Y-73058737D01*
X132462401Y-73073092D01*
X132510088Y-73246220D01*
X132593840Y-73405069D01*
X132597300Y-73409163D01*
X132597301Y-73409165D01*
X132706288Y-73538135D01*
X132709748Y-73542229D01*
X132852406Y-73651299D01*
X133015157Y-73727191D01*
X133020384Y-73728359D01*
X133020386Y-73728360D01*
X133126822Y-73752151D01*
X133190408Y-73766364D01*
X133194481Y-73766592D01*
X133194513Y-73766594D01*
X133194530Y-73766594D01*
X133195899Y-73766671D01*
X133327946Y-73766671D01*
X133357312Y-73763481D01*
X133456280Y-73752730D01*
X133456285Y-73752729D01*
X133461605Y-73752151D01*
X133631802Y-73694874D01*
X133698136Y-73655016D01*
X133781132Y-73605147D01*
X133781135Y-73605145D01*
X133785728Y-73602385D01*
X133795246Y-73593385D01*
X133868811Y-73523817D01*
X133916203Y-73479001D01*
X134017140Y-73330477D01*
X134062581Y-73216865D01*
X134081838Y-73168720D01*
X134081839Y-73168718D01*
X134083828Y-73163744D01*
X134113158Y-72986580D01*
X134107822Y-72884762D01*
X143339002Y-72884762D01*
X143348401Y-73064092D01*
X143396088Y-73237220D01*
X143479840Y-73396069D01*
X143483300Y-73400163D01*
X143483301Y-73400165D01*
X143567423Y-73499711D01*
X143595748Y-73533229D01*
X143738406Y-73642299D01*
X143901157Y-73718191D01*
X143906384Y-73719359D01*
X143906386Y-73719360D01*
X144012822Y-73743151D01*
X144076408Y-73757364D01*
X144080481Y-73757592D01*
X144080513Y-73757594D01*
X144080530Y-73757594D01*
X144081899Y-73757671D01*
X144213946Y-73757671D01*
X144243312Y-73754481D01*
X144342280Y-73743730D01*
X144342285Y-73743729D01*
X144347605Y-73743151D01*
X144517802Y-73685874D01*
X144580766Y-73648041D01*
X144667132Y-73596147D01*
X144667135Y-73596145D01*
X144671728Y-73593385D01*
X144729587Y-73538671D01*
X144764981Y-73505200D01*
X144802203Y-73470001D01*
X144903140Y-73321477D01*
X144954727Y-73192499D01*
X144967838Y-73159720D01*
X144967839Y-73159718D01*
X144969828Y-73154744D01*
X144999158Y-72977580D01*
X144992986Y-72859824D01*
X144990040Y-72803605D01*
X144990040Y-72803602D01*
X144989759Y-72798250D01*
X144942072Y-72625122D01*
X144858320Y-72466273D01*
X144840539Y-72445231D01*
X144745872Y-72333207D01*
X144745870Y-72333205D01*
X144742412Y-72329113D01*
X144599754Y-72220043D01*
X144437003Y-72144151D01*
X144431776Y-72142983D01*
X144431774Y-72142982D01*
X144305975Y-72114863D01*
X144261752Y-72104978D01*
X144257679Y-72104750D01*
X144257647Y-72104748D01*
X144257630Y-72104748D01*
X144256261Y-72104671D01*
X144124214Y-72104671D01*
X144094848Y-72107861D01*
X143995880Y-72118612D01*
X143995875Y-72118613D01*
X143990555Y-72119191D01*
X143820358Y-72176468D01*
X143815763Y-72179229D01*
X143671028Y-72266195D01*
X143671025Y-72266197D01*
X143666432Y-72268957D01*
X143662540Y-72272637D01*
X143662538Y-72272639D01*
X143606262Y-72325857D01*
X143535957Y-72392341D01*
X143435020Y-72540865D01*
X143368332Y-72707598D01*
X143339002Y-72884762D01*
X134107822Y-72884762D01*
X134106798Y-72865232D01*
X134104040Y-72812605D01*
X134104040Y-72812602D01*
X134103759Y-72807250D01*
X134056072Y-72634122D01*
X133972320Y-72475273D01*
X133964715Y-72466273D01*
X133859872Y-72342207D01*
X133859870Y-72342205D01*
X133856412Y-72338113D01*
X133713754Y-72229043D01*
X133551003Y-72153151D01*
X133545776Y-72151983D01*
X133545774Y-72151982D01*
X133379711Y-72114863D01*
X133379712Y-72114863D01*
X133375752Y-72113978D01*
X133371679Y-72113750D01*
X133371647Y-72113748D01*
X133371630Y-72113748D01*
X133370261Y-72113671D01*
X133238214Y-72113671D01*
X133208848Y-72116861D01*
X133109880Y-72127612D01*
X133109875Y-72127613D01*
X133104555Y-72128191D01*
X132934358Y-72185468D01*
X132929763Y-72188229D01*
X132785028Y-72275195D01*
X132785025Y-72275197D01*
X132780432Y-72277957D01*
X132776540Y-72281637D01*
X132776538Y-72281639D01*
X132729779Y-72325857D01*
X132649957Y-72401341D01*
X132549020Y-72549865D01*
X132518920Y-72625122D01*
X132485932Y-72707598D01*
X132482332Y-72716598D01*
X132453002Y-72893762D01*
X123775098Y-72893762D01*
X123707999Y-72795166D01*
X123663065Y-72729138D01*
X123657755Y-72720396D01*
X123528474Y-72480442D01*
X123505777Y-72438315D01*
X123501400Y-72429077D01*
X123379340Y-72132822D01*
X123375937Y-72123177D01*
X123285094Y-71815904D01*
X123282705Y-71805958D01*
X123224054Y-71490968D01*
X123222703Y-71480830D01*
X123211006Y-71336257D01*
X123199081Y-71188854D01*
X123199749Y-71177390D01*
X123199478Y-71167489D01*
X123201660Y-71156557D01*
X123198885Y-71145760D01*
X123198771Y-71141597D01*
X123196580Y-71124275D01*
X123196580Y-69845033D01*
X124547768Y-69845033D01*
X124579089Y-69951454D01*
X124582702Y-69960395D01*
X124669798Y-70126994D01*
X124675072Y-70135055D01*
X124792879Y-70281577D01*
X124799610Y-70288451D01*
X124943632Y-70409300D01*
X124951580Y-70414741D01*
X125116319Y-70505308D01*
X125125182Y-70509107D01*
X125304376Y-70565950D01*
X125313804Y-70567954D01*
X125460085Y-70584362D01*
X125465614Y-70584671D01*
X125549900Y-70584671D01*
X125562585Y-70580549D01*
X125565580Y-70576428D01*
X125565580Y-70568991D01*
X126073580Y-70568991D01*
X126077702Y-70581676D01*
X126081823Y-70584671D01*
X126166904Y-70584671D01*
X126171719Y-70584436D01*
X126311499Y-70570730D01*
X126320950Y-70568859D01*
X126500921Y-70514522D01*
X126509837Y-70510847D01*
X126675821Y-70422592D01*
X126683851Y-70417257D01*
X126691067Y-70411372D01*
X126748112Y-70389247D01*
X126807267Y-70404878D01*
X126844252Y-70448221D01*
X126869371Y-70505308D01*
X126884800Y-70540374D01*
X126930925Y-70595247D01*
X126972511Y-70644720D01*
X126972514Y-70644722D01*
X126977050Y-70650119D01*
X126982921Y-70654027D01*
X126982922Y-70654028D01*
X126995223Y-70662216D01*
X127096393Y-70729561D01*
X127197000Y-70760992D01*
X127226505Y-70770210D01*
X127226506Y-70770210D01*
X127233237Y-70772313D01*
X127304908Y-70773627D01*
X127369525Y-70774812D01*
X127369527Y-70774812D01*
X127376579Y-70774941D01*
X127383382Y-70773086D01*
X127383384Y-70773086D01*
X127458583Y-70752584D01*
X127514897Y-70737231D01*
X127637071Y-70662216D01*
X127644483Y-70654028D01*
X127728548Y-70561153D01*
X127733280Y-70555925D01*
X127795790Y-70426904D01*
X127797414Y-70417256D01*
X127818942Y-70289295D01*
X127818942Y-70289291D01*
X127819576Y-70285525D01*
X127819625Y-70281577D01*
X127819680Y-70276997D01*
X127819727Y-70273171D01*
X127799403Y-70131253D01*
X127740064Y-70000743D01*
X127693272Y-69946439D01*
X127651087Y-69897480D01*
X127651085Y-69897478D01*
X127646480Y-69892134D01*
X127646592Y-69892037D01*
X127618462Y-69845033D01*
X128477768Y-69845033D01*
X128509089Y-69951454D01*
X128512702Y-69960395D01*
X128599798Y-70126994D01*
X128605072Y-70135055D01*
X128722879Y-70281577D01*
X128729610Y-70288451D01*
X128873632Y-70409300D01*
X128881580Y-70414741D01*
X129046319Y-70505308D01*
X129055182Y-70509107D01*
X129234376Y-70565950D01*
X129243804Y-70567954D01*
X129390085Y-70584362D01*
X129395614Y-70584671D01*
X129729900Y-70584671D01*
X129742585Y-70580549D01*
X129745580Y-70576428D01*
X129745580Y-70568991D01*
X130253580Y-70568991D01*
X130257702Y-70581676D01*
X130261823Y-70584671D01*
X130596904Y-70584671D01*
X130601719Y-70584436D01*
X130741499Y-70570730D01*
X130750950Y-70568859D01*
X130930921Y-70514522D01*
X130939837Y-70510847D01*
X131105821Y-70422592D01*
X131113852Y-70417256D01*
X131259536Y-70298439D01*
X131266373Y-70291650D01*
X131386210Y-70146792D01*
X131391594Y-70138809D01*
X131481014Y-69973431D01*
X131484743Y-69964560D01*
X131521552Y-69845648D01*
X131521389Y-69834010D01*
X131510863Y-69830671D01*
X130269260Y-69830671D01*
X130256575Y-69834793D01*
X130253580Y-69838914D01*
X130253580Y-70568991D01*
X129745580Y-70568991D01*
X129745580Y-69846351D01*
X129741458Y-69833666D01*
X129737337Y-69830671D01*
X128489221Y-69830671D01*
X128477917Y-69834344D01*
X128477768Y-69845033D01*
X127618462Y-69845033D01*
X127617078Y-69842720D01*
X127614580Y-69820620D01*
X127614580Y-69307694D01*
X128477608Y-69307694D01*
X128477771Y-69319332D01*
X128488297Y-69322671D01*
X129729900Y-69322671D01*
X129742585Y-69318549D01*
X129745580Y-69314428D01*
X129745580Y-69306991D01*
X130253580Y-69306991D01*
X130257702Y-69319676D01*
X130261823Y-69322671D01*
X131509939Y-69322671D01*
X131521243Y-69318998D01*
X131521392Y-69308309D01*
X131490071Y-69201888D01*
X131486458Y-69192947D01*
X131399362Y-69026348D01*
X131394088Y-69018287D01*
X131276281Y-68871765D01*
X131269550Y-68864891D01*
X131125528Y-68744042D01*
X131117580Y-68738601D01*
X130952841Y-68648034D01*
X130943978Y-68644235D01*
X130764784Y-68587392D01*
X130755356Y-68585388D01*
X130609075Y-68568980D01*
X130603546Y-68568671D01*
X130269260Y-68568671D01*
X130256575Y-68572793D01*
X130253580Y-68576914D01*
X130253580Y-69306991D01*
X129745580Y-69306991D01*
X129745580Y-68584351D01*
X129741458Y-68571666D01*
X129737337Y-68568671D01*
X129402256Y-68568671D01*
X129397441Y-68568906D01*
X129257661Y-68582612D01*
X129248210Y-68584483D01*
X129068239Y-68638820D01*
X129059323Y-68642495D01*
X128893339Y-68730750D01*
X128885308Y-68736086D01*
X128739624Y-68854903D01*
X128732787Y-68861692D01*
X128612950Y-69006550D01*
X128607566Y-69014533D01*
X128518146Y-69179911D01*
X128514417Y-69188782D01*
X128477608Y-69307694D01*
X127614580Y-69307694D01*
X127614580Y-67726994D01*
X127824471Y-67726994D01*
X127825386Y-67733991D01*
X127825386Y-67733992D01*
X127826894Y-67745525D01*
X127843060Y-67869150D01*
X127845901Y-67875606D01*
X127845901Y-67875607D01*
X127894272Y-67985537D01*
X127900800Y-68000374D01*
X127913872Y-68015925D01*
X127988511Y-68104720D01*
X127988514Y-68104722D01*
X127993050Y-68110119D01*
X127998921Y-68114027D01*
X127998922Y-68114028D01*
X128016769Y-68125908D01*
X128112393Y-68189561D01*
X128188507Y-68213340D01*
X128242505Y-68230210D01*
X128242506Y-68230210D01*
X128249237Y-68232313D01*
X128320908Y-68233627D01*
X128385525Y-68234812D01*
X128385527Y-68234812D01*
X128392579Y-68234941D01*
X128399382Y-68233086D01*
X128399384Y-68233086D01*
X128474583Y-68212584D01*
X128530897Y-68197231D01*
X128653071Y-68122216D01*
X128660483Y-68114028D01*
X128744548Y-68021153D01*
X128749280Y-68015925D01*
X128811790Y-67886904D01*
X128815955Y-67862153D01*
X128834942Y-67749295D01*
X128834942Y-67749291D01*
X128835576Y-67745525D01*
X128835727Y-67733171D01*
X128832641Y-67711623D01*
X128843108Y-67651341D01*
X128860637Y-67627585D01*
X129063869Y-67424353D01*
X129066998Y-67421653D01*
X129071487Y-67419458D01*
X129105111Y-67383211D01*
X129107687Y-67380535D01*
X129121466Y-67366756D01*
X129124011Y-67363046D01*
X129127447Y-67359133D01*
X129141405Y-67344086D01*
X129147619Y-67337387D01*
X129151006Y-67328899D01*
X129151885Y-67326696D01*
X129162196Y-67307385D01*
X129163540Y-67305426D01*
X129163541Y-67305423D01*
X129168711Y-67297887D01*
X129171008Y-67288210D01*
X129174862Y-67271967D01*
X129179232Y-67258148D01*
X129189101Y-67233411D01*
X129189718Y-67227118D01*
X129189718Y-67220948D01*
X129192393Y-67198089D01*
X129192448Y-67197859D01*
X129194558Y-67188967D01*
X129190622Y-67160045D01*
X129189718Y-67146696D01*
X129189718Y-66809821D01*
X129208625Y-66751630D01*
X129215320Y-66743385D01*
X129303686Y-66645759D01*
X129308418Y-66640531D01*
X129370928Y-66511510D01*
X129375093Y-66486759D01*
X129394080Y-66373901D01*
X129394080Y-66373897D01*
X129394714Y-66370131D01*
X129394865Y-66357777D01*
X129374541Y-66215859D01*
X129315202Y-66085349D01*
X129221618Y-65976740D01*
X129101313Y-65898762D01*
X128963957Y-65857684D01*
X128880715Y-65857175D01*
X128827645Y-65856851D01*
X128827644Y-65856851D01*
X128820594Y-65856808D01*
X128813817Y-65858745D01*
X128813816Y-65858745D01*
X128689527Y-65894267D01*
X128689525Y-65894268D01*
X128682747Y-65896205D01*
X128561498Y-65972707D01*
X128556831Y-65977991D01*
X128556829Y-65977993D01*
X128471262Y-66074880D01*
X128471260Y-66074882D01*
X128466595Y-66080165D01*
X128405665Y-66209940D01*
X128404580Y-66216909D01*
X128404579Y-66216912D01*
X128394776Y-66279878D01*
X128383609Y-66351600D01*
X128384524Y-66358597D01*
X128384524Y-66358598D01*
X128391263Y-66410134D01*
X128402198Y-66493756D01*
X128405039Y-66500212D01*
X128405039Y-66500213D01*
X128413193Y-66518743D01*
X128459938Y-66624980D01*
X128552188Y-66734725D01*
X128556217Y-66737407D01*
X128586483Y-66789413D01*
X128588718Y-66810331D01*
X128588718Y-67008553D01*
X128569811Y-67066744D01*
X128559722Y-67078557D01*
X128434445Y-67203834D01*
X128379928Y-67231611D01*
X128363841Y-67232828D01*
X128284390Y-67232342D01*
X128268507Y-67232245D01*
X128268506Y-67232245D01*
X128261456Y-67232202D01*
X128254679Y-67234139D01*
X128254678Y-67234139D01*
X128130389Y-67269661D01*
X128130387Y-67269662D01*
X128123609Y-67271599D01*
X128002360Y-67348101D01*
X127997693Y-67353385D01*
X127997691Y-67353387D01*
X127912124Y-67450274D01*
X127912122Y-67450276D01*
X127907457Y-67455559D01*
X127846527Y-67585334D01*
X127845442Y-67592303D01*
X127845441Y-67592306D01*
X127836250Y-67651341D01*
X127824471Y-67726994D01*
X127614580Y-67726994D01*
X127614580Y-65774994D01*
X137053471Y-65774994D01*
X137054386Y-65781991D01*
X137054386Y-65781992D01*
X137063525Y-65851878D01*
X137072060Y-65917150D01*
X137074901Y-65923606D01*
X137074901Y-65923607D01*
X137100632Y-65982084D01*
X137129800Y-66048374D01*
X137166281Y-66091773D01*
X137217511Y-66152720D01*
X137217514Y-66152722D01*
X137222050Y-66158119D01*
X137341393Y-66237561D01*
X137442000Y-66268992D01*
X137471505Y-66278210D01*
X137471506Y-66278210D01*
X137478237Y-66280313D01*
X137551606Y-66281658D01*
X137596204Y-66282476D01*
X137654038Y-66302447D01*
X137664393Y-66311455D01*
X139779584Y-68426646D01*
X139807361Y-68481163D01*
X139808580Y-68496650D01*
X139808580Y-71528504D01*
X139789673Y-71586695D01*
X139781141Y-71595908D01*
X139781360Y-71596101D01*
X139691124Y-71698274D01*
X139691122Y-71698276D01*
X139686457Y-71703559D01*
X139625527Y-71833334D01*
X139624442Y-71840303D01*
X139624441Y-71840306D01*
X139609760Y-71934601D01*
X139603471Y-71974994D01*
X139604386Y-71981991D01*
X139604386Y-71981992D01*
X139605894Y-71993525D01*
X139622060Y-72117150D01*
X139624901Y-72123606D01*
X139624901Y-72123607D01*
X139672728Y-72232301D01*
X139679800Y-72248374D01*
X139725925Y-72303246D01*
X139767511Y-72352720D01*
X139767514Y-72352722D01*
X139772050Y-72358119D01*
X139777921Y-72362027D01*
X139777922Y-72362028D01*
X139790223Y-72370216D01*
X139891393Y-72437561D01*
X139970186Y-72462177D01*
X140021505Y-72478210D01*
X140021506Y-72478210D01*
X140028237Y-72480313D01*
X140099908Y-72481627D01*
X140164525Y-72482812D01*
X140164527Y-72482812D01*
X140171579Y-72482941D01*
X140178382Y-72481086D01*
X140178384Y-72481086D01*
X140253583Y-72460584D01*
X140309897Y-72445231D01*
X140432071Y-72370216D01*
X140439483Y-72362028D01*
X140523548Y-72269153D01*
X140528280Y-72263925D01*
X140590790Y-72134904D01*
X140593503Y-72118782D01*
X140613942Y-71997295D01*
X140613942Y-71997291D01*
X140614576Y-71993525D01*
X140614727Y-71981171D01*
X140594403Y-71839253D01*
X140535064Y-71708743D01*
X140475464Y-71639574D01*
X140446087Y-71605480D01*
X140446085Y-71605478D01*
X140441480Y-71600134D01*
X140441592Y-71600037D01*
X140412078Y-71550720D01*
X140409580Y-71528620D01*
X140409580Y-68384685D01*
X140409883Y-68380556D01*
X140411506Y-68375829D01*
X140409948Y-68334338D01*
X145367580Y-68334338D01*
X145367581Y-70942003D01*
X145370561Y-70973539D01*
X145372558Y-70979226D01*
X145372559Y-70979230D01*
X145392557Y-71036175D01*
X145415446Y-71101354D01*
X145419841Y-71107305D01*
X145419842Y-71107306D01*
X145470215Y-71175506D01*
X145495930Y-71210321D01*
X145501887Y-71214721D01*
X145598897Y-71286373D01*
X145604897Y-71290805D01*
X145732712Y-71335690D01*
X145738719Y-71336258D01*
X145738720Y-71336258D01*
X145761936Y-71338453D01*
X145761946Y-71338453D01*
X145764247Y-71338671D01*
X146617712Y-71338671D01*
X147471912Y-71338670D01*
X147503448Y-71335690D01*
X147509135Y-71333693D01*
X147509139Y-71333692D01*
X147566084Y-71313694D01*
X147631263Y-71290805D01*
X147637264Y-71286373D01*
X147734273Y-71214721D01*
X147740230Y-71210321D01*
X147765945Y-71175506D01*
X147816318Y-71107306D01*
X147816319Y-71107305D01*
X147820714Y-71101354D01*
X147865599Y-70973539D01*
X147866167Y-70967531D01*
X147868362Y-70944315D01*
X147868362Y-70944305D01*
X147868580Y-70942004D01*
X147868579Y-68334339D01*
X147865599Y-68302803D01*
X147863602Y-68297116D01*
X147863601Y-68297112D01*
X147840068Y-68230100D01*
X147820714Y-68174988D01*
X147803629Y-68151856D01*
X147744630Y-68071978D01*
X147740230Y-68066021D01*
X147734273Y-68061621D01*
X147637215Y-67989933D01*
X147637214Y-67989932D01*
X147631263Y-67985537D01*
X147503448Y-67940652D01*
X147497441Y-67940084D01*
X147497440Y-67940084D01*
X147474224Y-67937889D01*
X147474214Y-67937889D01*
X147471913Y-67937671D01*
X146618448Y-67937671D01*
X145764248Y-67937672D01*
X145732712Y-67940652D01*
X145727025Y-67942649D01*
X145727021Y-67942650D01*
X145670076Y-67962648D01*
X145604897Y-67985537D01*
X145598946Y-67989932D01*
X145598945Y-67989933D01*
X145501887Y-68061621D01*
X145495930Y-68066021D01*
X145491530Y-68071978D01*
X145432532Y-68151856D01*
X145415446Y-68174988D01*
X145370561Y-68302803D01*
X145369993Y-68308810D01*
X145369993Y-68308811D01*
X145367799Y-68332023D01*
X145367580Y-68334338D01*
X140409948Y-68334338D01*
X140409650Y-68326394D01*
X140409580Y-68322680D01*
X140409580Y-68303223D01*
X140408755Y-68298793D01*
X140408419Y-68293607D01*
X140407649Y-68273096D01*
X140407649Y-68273095D01*
X140407306Y-68263963D01*
X140403700Y-68255569D01*
X140403699Y-68255566D01*
X140402763Y-68253388D01*
X140396397Y-68232437D01*
X140394289Y-68221118D01*
X140380310Y-68198440D01*
X140373630Y-68185580D01*
X140365872Y-68167523D01*
X140365871Y-68167522D01*
X140363116Y-68161109D01*
X140359103Y-68156222D01*
X140354737Y-68151856D01*
X140340465Y-68133800D01*
X140340344Y-68133603D01*
X140340343Y-68133602D01*
X140335548Y-68125823D01*
X140323926Y-68116985D01*
X140312325Y-68108164D01*
X140302245Y-68099364D01*
X138090851Y-65887971D01*
X138063074Y-65833454D01*
X138063228Y-65801537D01*
X138063942Y-65797296D01*
X138063943Y-65797290D01*
X138064576Y-65793525D01*
X138064727Y-65781171D01*
X138044403Y-65639253D01*
X138007374Y-65557812D01*
X137987985Y-65515167D01*
X137987984Y-65515166D01*
X137985064Y-65508743D01*
X137907547Y-65418780D01*
X137896085Y-65405478D01*
X137896084Y-65405477D01*
X137891480Y-65400134D01*
X137771175Y-65322156D01*
X137633819Y-65281078D01*
X137550577Y-65280569D01*
X137497507Y-65280245D01*
X137497506Y-65280245D01*
X137490456Y-65280202D01*
X137483679Y-65282139D01*
X137483678Y-65282139D01*
X137359389Y-65317661D01*
X137359387Y-65317662D01*
X137352609Y-65319599D01*
X137231360Y-65396101D01*
X137226693Y-65401385D01*
X137226691Y-65401387D01*
X137141124Y-65498274D01*
X137141122Y-65498276D01*
X137136457Y-65503559D01*
X137133461Y-65509941D01*
X137133460Y-65509942D01*
X137121925Y-65534510D01*
X137075527Y-65633334D01*
X137074442Y-65640303D01*
X137074441Y-65640306D01*
X137068080Y-65681163D01*
X137053471Y-65774994D01*
X127614580Y-65774994D01*
X127614580Y-64899994D01*
X133504888Y-64899994D01*
X133505803Y-64906991D01*
X133505803Y-64906992D01*
X133506812Y-64914705D01*
X133523477Y-65042150D01*
X133526318Y-65048606D01*
X133526318Y-65048607D01*
X133553539Y-65110470D01*
X133581217Y-65173374D01*
X133627342Y-65228247D01*
X133668928Y-65277720D01*
X133668931Y-65277722D01*
X133673467Y-65283119D01*
X133679338Y-65287027D01*
X133679339Y-65287028D01*
X133691640Y-65295216D01*
X133792810Y-65362561D01*
X133874842Y-65388189D01*
X133922922Y-65403210D01*
X133922923Y-65403210D01*
X133929654Y-65405313D01*
X134001325Y-65406627D01*
X134065942Y-65407812D01*
X134065944Y-65407812D01*
X134072996Y-65407941D01*
X134079799Y-65406086D01*
X134079801Y-65406086D01*
X134155033Y-65385575D01*
X134211314Y-65370231D01*
X134333488Y-65295216D01*
X134340900Y-65287028D01*
X134424965Y-65194153D01*
X134429697Y-65188925D01*
X134492207Y-65059904D01*
X134493875Y-65049994D01*
X134515359Y-64922295D01*
X134515359Y-64922291D01*
X134515993Y-64918525D01*
X134516087Y-64910819D01*
X134535703Y-64852864D01*
X134585638Y-64817506D01*
X134616895Y-64813044D01*
X134619442Y-64813091D01*
X134619444Y-64813091D01*
X134626496Y-64813220D01*
X134633299Y-64811365D01*
X134633301Y-64811365D01*
X134734616Y-64783743D01*
X134764814Y-64775510D01*
X134886988Y-64700495D01*
X134909944Y-64675134D01*
X134978465Y-64599432D01*
X134983197Y-64594204D01*
X135045707Y-64465183D01*
X135056665Y-64400050D01*
X135084965Y-64345803D01*
X135139745Y-64318550D01*
X135156107Y-64317492D01*
X135187525Y-64318068D01*
X135187527Y-64318068D01*
X135194579Y-64318197D01*
X135201382Y-64316342D01*
X135201384Y-64316342D01*
X135279272Y-64295107D01*
X135332897Y-64280487D01*
X135455071Y-64205472D01*
X135482179Y-64175524D01*
X135546548Y-64104409D01*
X135551280Y-64099181D01*
X135613790Y-63970160D01*
X135630677Y-63869791D01*
X135636942Y-63832551D01*
X135636942Y-63832547D01*
X135637576Y-63828781D01*
X135637727Y-63816427D01*
X135634641Y-63794879D01*
X135645108Y-63734597D01*
X135662637Y-63710841D01*
X137160731Y-62212747D01*
X137163860Y-62210047D01*
X137168349Y-62207852D01*
X137201973Y-62171605D01*
X137204549Y-62168929D01*
X137218328Y-62155150D01*
X137220873Y-62151440D01*
X137224309Y-62147527D01*
X137238265Y-62132482D01*
X137244481Y-62125781D01*
X137248746Y-62115091D01*
X137259060Y-62095775D01*
X137260401Y-62093820D01*
X137260402Y-62093817D01*
X137265572Y-62086281D01*
X137271721Y-62060368D01*
X137276094Y-62046543D01*
X137283374Y-62028295D01*
X137283374Y-62028293D01*
X137285963Y-62021805D01*
X137286580Y-62015512D01*
X137286580Y-62009343D01*
X137289255Y-61986484D01*
X137289310Y-61986254D01*
X137289310Y-61986252D01*
X137291420Y-61977361D01*
X137287484Y-61948439D01*
X137286580Y-61935090D01*
X137286580Y-61836053D01*
X137305487Y-61777862D01*
X137312182Y-61769617D01*
X137400548Y-61671991D01*
X137405280Y-61666763D01*
X137467790Y-61537742D01*
X137474341Y-61498809D01*
X137490942Y-61400133D01*
X137490942Y-61400129D01*
X137491576Y-61396363D01*
X137491727Y-61384009D01*
X137471403Y-61242091D01*
X137412064Y-61111581D01*
X137318480Y-61002972D01*
X137198175Y-60924994D01*
X137060819Y-60883916D01*
X136974089Y-60883386D01*
X136927287Y-60883100D01*
X136869213Y-60863838D01*
X136833552Y-60814119D01*
X136833926Y-60752935D01*
X136838798Y-60740937D01*
X136867713Y-60681256D01*
X136867714Y-60681253D01*
X136870790Y-60674904D01*
X136872122Y-60666991D01*
X136893942Y-60537295D01*
X136893942Y-60537291D01*
X136894576Y-60533525D01*
X136894727Y-60521171D01*
X136874403Y-60379253D01*
X136815064Y-60248743D01*
X136721480Y-60140134D01*
X136601175Y-60062156D01*
X136463819Y-60021078D01*
X136380577Y-60020569D01*
X136327507Y-60020245D01*
X136327506Y-60020245D01*
X136320456Y-60020202D01*
X136313679Y-60022139D01*
X136313678Y-60022139D01*
X136189389Y-60057661D01*
X136189387Y-60057662D01*
X136182609Y-60059599D01*
X136061360Y-60136101D01*
X136056693Y-60141385D01*
X136056691Y-60141387D01*
X135971124Y-60238274D01*
X135971122Y-60238276D01*
X135966457Y-60243559D01*
X135905527Y-60373334D01*
X135904442Y-60380303D01*
X135904441Y-60380306D01*
X135889760Y-60474601D01*
X135883471Y-60514994D01*
X135884386Y-60521991D01*
X135884386Y-60521992D01*
X135885894Y-60533525D01*
X135902060Y-60657150D01*
X135904901Y-60663606D01*
X135904901Y-60663607D01*
X135917142Y-60691426D01*
X135923272Y-60752303D01*
X135892449Y-60805157D01*
X135836445Y-60829800D01*
X135825924Y-60830296D01*
X135817509Y-60830245D01*
X135817508Y-60830245D01*
X135810456Y-60830202D01*
X135803679Y-60832139D01*
X135803678Y-60832139D01*
X135679389Y-60867661D01*
X135679387Y-60867662D01*
X135672609Y-60869599D01*
X135551360Y-60946101D01*
X135546693Y-60951385D01*
X135546691Y-60951387D01*
X135461124Y-61048274D01*
X135461122Y-61048276D01*
X135456457Y-61053559D01*
X135395527Y-61183334D01*
X135394442Y-61190303D01*
X135394441Y-61190306D01*
X135386379Y-61242091D01*
X135373471Y-61324994D01*
X135374386Y-61331991D01*
X135374386Y-61331993D01*
X135377187Y-61353413D01*
X135365985Y-61413564D01*
X135349027Y-61436253D01*
X133835846Y-62949434D01*
X133832717Y-62952134D01*
X133828228Y-62954329D01*
X133822010Y-62961032D01*
X133794604Y-62990576D01*
X133792028Y-62993252D01*
X133778249Y-63007031D01*
X133775704Y-63010741D01*
X133772268Y-63014654D01*
X133752096Y-63036400D01*
X133748709Y-63044888D01*
X133748709Y-63044889D01*
X133747831Y-63047090D01*
X133737517Y-63066406D01*
X133736176Y-63068361D01*
X133736175Y-63068364D01*
X133731005Y-63075900D01*
X133728895Y-63084792D01*
X133724856Y-63101812D01*
X133720483Y-63115638D01*
X133713549Y-63133019D01*
X133710614Y-63140376D01*
X133709997Y-63146669D01*
X133709997Y-63152838D01*
X133707322Y-63175697D01*
X133705157Y-63184820D01*
X133708227Y-63207375D01*
X133709093Y-63213741D01*
X133709997Y-63227091D01*
X133709997Y-64453504D01*
X133691090Y-64511695D01*
X133682558Y-64520908D01*
X133682777Y-64521101D01*
X133592541Y-64623274D01*
X133592539Y-64623276D01*
X133587874Y-64628559D01*
X133526944Y-64758334D01*
X133525859Y-64765303D01*
X133525858Y-64765306D01*
X133518398Y-64813220D01*
X133504888Y-64899994D01*
X127614580Y-64899994D01*
X127614580Y-63580650D01*
X127633487Y-63522459D01*
X127643576Y-63510646D01*
X128761420Y-62392802D01*
X128764549Y-62390102D01*
X128769038Y-62387907D01*
X128802662Y-62351660D01*
X128805238Y-62348984D01*
X128819017Y-62335205D01*
X128821562Y-62331495D01*
X128824998Y-62327582D01*
X128838954Y-62312537D01*
X128845170Y-62305836D01*
X128849435Y-62295146D01*
X128859749Y-62275830D01*
X128861090Y-62273875D01*
X128861091Y-62273872D01*
X128866261Y-62266336D01*
X128872410Y-62240423D01*
X128876783Y-62226598D01*
X128884063Y-62208350D01*
X128884063Y-62208348D01*
X128886652Y-62201860D01*
X128887269Y-62195567D01*
X128887269Y-62189398D01*
X128889944Y-62166539D01*
X128889999Y-62166309D01*
X128889999Y-62166307D01*
X128892109Y-62157416D01*
X128888173Y-62128494D01*
X128887269Y-62115145D01*
X128887269Y-61945269D01*
X128906176Y-61887078D01*
X128955676Y-61851114D01*
X129016862Y-61851114D01*
X129033963Y-61858515D01*
X129046318Y-61865307D01*
X129055182Y-61869107D01*
X129234376Y-61925950D01*
X129243804Y-61927954D01*
X129390085Y-61944362D01*
X129395614Y-61944671D01*
X129729900Y-61944671D01*
X129742585Y-61940549D01*
X129745580Y-61936428D01*
X129745580Y-61928991D01*
X130253580Y-61928991D01*
X130257702Y-61941676D01*
X130261823Y-61944671D01*
X130596904Y-61944671D01*
X130601719Y-61944436D01*
X130741499Y-61930730D01*
X130750950Y-61928859D01*
X130930921Y-61874522D01*
X130939837Y-61870847D01*
X131105821Y-61782592D01*
X131113852Y-61777256D01*
X131259536Y-61658439D01*
X131266373Y-61651650D01*
X131386210Y-61506792D01*
X131391594Y-61498809D01*
X131481014Y-61333431D01*
X131484743Y-61324560D01*
X131521552Y-61205648D01*
X131521389Y-61194010D01*
X131510863Y-61190671D01*
X130269260Y-61190671D01*
X130256575Y-61194793D01*
X130253580Y-61198914D01*
X130253580Y-61928991D01*
X129745580Y-61928991D01*
X129745580Y-60666991D01*
X130253580Y-60666991D01*
X130257702Y-60679676D01*
X130261823Y-60682671D01*
X131509939Y-60682671D01*
X131521243Y-60678998D01*
X131521392Y-60668309D01*
X131490071Y-60561888D01*
X131486458Y-60552947D01*
X131399362Y-60386348D01*
X131394088Y-60378287D01*
X131276281Y-60231765D01*
X131269550Y-60224891D01*
X131125528Y-60104042D01*
X131117580Y-60098601D01*
X130952841Y-60008034D01*
X130943978Y-60004235D01*
X130764784Y-59947392D01*
X130755356Y-59945388D01*
X130609075Y-59928980D01*
X130603546Y-59928671D01*
X130269260Y-59928671D01*
X130256575Y-59932793D01*
X130253580Y-59936914D01*
X130253580Y-60666991D01*
X129745580Y-60666991D01*
X129745580Y-59944351D01*
X129741458Y-59931666D01*
X129737337Y-59928671D01*
X129402256Y-59928671D01*
X129397441Y-59928906D01*
X129257661Y-59942612D01*
X129248210Y-59944483D01*
X129068239Y-59998820D01*
X129059328Y-60002493D01*
X129032747Y-60016627D01*
X128972491Y-60027252D01*
X128917498Y-60000430D01*
X128888773Y-59946406D01*
X128887269Y-59929215D01*
X128887269Y-59091783D01*
X128906176Y-59033592D01*
X128916265Y-59021779D01*
X129231231Y-58706813D01*
X129234360Y-58704113D01*
X129238849Y-58701918D01*
X129272473Y-58665671D01*
X129275049Y-58662995D01*
X129288828Y-58649216D01*
X129291373Y-58645506D01*
X129294809Y-58641593D01*
X129308765Y-58626548D01*
X129314981Y-58619847D01*
X129319246Y-58609157D01*
X129329560Y-58589841D01*
X129330901Y-58587886D01*
X129330902Y-58587883D01*
X129336072Y-58580347D01*
X129342221Y-58554434D01*
X129346594Y-58540609D01*
X129353874Y-58522361D01*
X129353874Y-58522359D01*
X129356463Y-58515871D01*
X129357080Y-58509578D01*
X129357080Y-58503409D01*
X129359755Y-58480550D01*
X129359810Y-58480320D01*
X129359810Y-58480318D01*
X129361920Y-58471427D01*
X129357984Y-58442505D01*
X129357080Y-58429156D01*
X129357080Y-58013357D01*
X129357383Y-58009232D01*
X129359005Y-58004507D01*
X129357150Y-57955087D01*
X129357080Y-57951374D01*
X129357080Y-57931901D01*
X129356255Y-57927471D01*
X129355918Y-57922266D01*
X129355149Y-57901775D01*
X129354806Y-57892640D01*
X129350261Y-57882061D01*
X129343897Y-57861112D01*
X129343464Y-57858785D01*
X129343462Y-57858780D01*
X129341789Y-57849796D01*
X129327812Y-57827120D01*
X129321128Y-57814253D01*
X129313375Y-57796207D01*
X129313374Y-57796206D01*
X129310616Y-57789786D01*
X129306602Y-57784900D01*
X129302238Y-57780536D01*
X129287967Y-57762481D01*
X129287844Y-57762282D01*
X129283048Y-57754501D01*
X129259811Y-57736831D01*
X129249741Y-57728039D01*
X128793222Y-57271520D01*
X128790522Y-57268391D01*
X128788327Y-57263902D01*
X128752080Y-57230278D01*
X128749404Y-57227702D01*
X128735625Y-57213923D01*
X128731915Y-57211378D01*
X128728002Y-57207942D01*
X128712957Y-57193986D01*
X128706256Y-57187770D01*
X128695566Y-57183505D01*
X128676250Y-57173191D01*
X128674295Y-57171850D01*
X128674292Y-57171849D01*
X128666756Y-57166679D01*
X128640843Y-57160530D01*
X128627018Y-57156157D01*
X128608770Y-57148877D01*
X128608768Y-57148877D01*
X128602280Y-57146288D01*
X128595987Y-57145671D01*
X128589818Y-57145671D01*
X128566959Y-57142996D01*
X128566729Y-57142941D01*
X128566727Y-57142941D01*
X128557836Y-57140831D01*
X128548782Y-57142063D01*
X128548777Y-57142063D01*
X128535794Y-57143830D01*
X128475585Y-57132941D01*
X128447447Y-57110358D01*
X128442253Y-57104329D01*
X128408480Y-57065134D01*
X128288175Y-56987156D01*
X128150819Y-56946078D01*
X128067577Y-56945569D01*
X128014507Y-56945245D01*
X128014506Y-56945245D01*
X128007456Y-56945202D01*
X128000679Y-56947139D01*
X128000678Y-56947139D01*
X127876389Y-56982661D01*
X127876387Y-56982662D01*
X127869609Y-56984599D01*
X127748360Y-57061101D01*
X127743693Y-57066385D01*
X127743691Y-57066387D01*
X127658124Y-57163274D01*
X127658122Y-57163276D01*
X127653457Y-57168559D01*
X127650461Y-57174941D01*
X127650460Y-57174942D01*
X127644437Y-57187770D01*
X127592527Y-57298334D01*
X127591442Y-57305303D01*
X127591441Y-57305306D01*
X127584393Y-57350578D01*
X127570471Y-57439994D01*
X127589060Y-57582150D01*
X127591901Y-57588606D01*
X127591901Y-57588607D01*
X127637067Y-57691253D01*
X127646800Y-57713374D01*
X127681371Y-57754501D01*
X127734511Y-57817720D01*
X127734514Y-57817722D01*
X127739050Y-57823119D01*
X127858393Y-57902561D01*
X127952307Y-57931901D01*
X127988505Y-57943210D01*
X127988506Y-57943210D01*
X127995237Y-57945313D01*
X128066908Y-57946627D01*
X128131525Y-57947812D01*
X128131527Y-57947812D01*
X128138579Y-57947941D01*
X128145382Y-57946086D01*
X128145384Y-57946086D01*
X128232753Y-57922266D01*
X128276897Y-57910231D01*
X128399071Y-57835216D01*
X128400814Y-57838055D01*
X128444747Y-57820578D01*
X128504035Y-57835697D01*
X128521128Y-57849368D01*
X128624981Y-57953222D01*
X128727084Y-58055325D01*
X128754861Y-58109841D01*
X128756080Y-58125328D01*
X128756080Y-58291014D01*
X128737173Y-58349205D01*
X128727084Y-58361018D01*
X128412118Y-58675984D01*
X128408989Y-58678684D01*
X128404500Y-58680879D01*
X128398282Y-58687582D01*
X128370876Y-58717126D01*
X128368300Y-58719802D01*
X128354521Y-58733581D01*
X128351976Y-58737291D01*
X128348540Y-58741204D01*
X128328368Y-58762950D01*
X128324981Y-58771438D01*
X128324981Y-58771439D01*
X128324103Y-58773640D01*
X128313789Y-58792956D01*
X128312448Y-58794911D01*
X128312447Y-58794914D01*
X128307277Y-58802450D01*
X128305167Y-58811342D01*
X128301128Y-58828362D01*
X128296755Y-58842188D01*
X128289475Y-58860436D01*
X128286886Y-58866926D01*
X128286269Y-58873219D01*
X128286269Y-58879388D01*
X128283594Y-58902247D01*
X128281429Y-58911370D01*
X128285365Y-58940291D01*
X128286269Y-58953641D01*
X128286269Y-61977003D01*
X128267362Y-62035194D01*
X128257273Y-62047007D01*
X127139429Y-63164851D01*
X127136300Y-63167551D01*
X127131811Y-63169746D01*
X127125593Y-63176449D01*
X127098187Y-63205993D01*
X127095611Y-63208669D01*
X127081832Y-63222448D01*
X127079287Y-63226158D01*
X127075851Y-63230071D01*
X127055679Y-63251817D01*
X127052292Y-63260305D01*
X127052292Y-63260306D01*
X127051414Y-63262507D01*
X127041100Y-63281823D01*
X127039759Y-63283778D01*
X127039758Y-63283781D01*
X127034588Y-63291317D01*
X127032478Y-63300209D01*
X127028439Y-63317229D01*
X127024066Y-63331055D01*
X127016786Y-63349303D01*
X127014197Y-63355793D01*
X127013580Y-63362086D01*
X127013580Y-63368255D01*
X127010905Y-63391114D01*
X127008740Y-63400237D01*
X127012676Y-63429158D01*
X127013580Y-63442508D01*
X127013580Y-68800013D01*
X126994673Y-68858204D01*
X126945173Y-68894168D01*
X126883987Y-68894168D01*
X126843846Y-68869279D01*
X126839544Y-68864886D01*
X126695528Y-68744042D01*
X126687580Y-68738601D01*
X126522841Y-68648034D01*
X126513978Y-68644235D01*
X126334784Y-68587392D01*
X126325356Y-68585388D01*
X126179075Y-68568980D01*
X126173546Y-68568671D01*
X126089260Y-68568671D01*
X126076575Y-68572793D01*
X126073580Y-68576914D01*
X126073580Y-70568991D01*
X125565580Y-70568991D01*
X125565580Y-69846351D01*
X125561458Y-69833666D01*
X125557337Y-69830671D01*
X124559221Y-69830671D01*
X124547917Y-69834344D01*
X124547768Y-69845033D01*
X123196580Y-69845033D01*
X123196580Y-69307694D01*
X124547608Y-69307694D01*
X124547771Y-69319332D01*
X124558297Y-69322671D01*
X125549900Y-69322671D01*
X125562585Y-69318549D01*
X125565580Y-69314428D01*
X125565580Y-68584351D01*
X125561458Y-68571666D01*
X125557337Y-68568671D01*
X125472256Y-68568671D01*
X125467441Y-68568906D01*
X125327661Y-68582612D01*
X125318210Y-68584483D01*
X125138239Y-68638820D01*
X125129323Y-68642495D01*
X124963339Y-68730750D01*
X124955308Y-68736086D01*
X124809624Y-68854903D01*
X124802787Y-68861692D01*
X124682950Y-69006550D01*
X124677566Y-69014533D01*
X124588146Y-69179911D01*
X124584417Y-69188782D01*
X124547608Y-69307694D01*
X123196580Y-69307694D01*
X123196580Y-61205033D01*
X124547768Y-61205033D01*
X124579089Y-61311454D01*
X124582702Y-61320395D01*
X124669798Y-61486994D01*
X124675072Y-61495055D01*
X124792879Y-61641577D01*
X124799610Y-61648451D01*
X124943632Y-61769300D01*
X124951580Y-61774741D01*
X125116319Y-61865308D01*
X125125182Y-61869107D01*
X125304376Y-61925950D01*
X125313804Y-61927954D01*
X125460085Y-61944362D01*
X125465614Y-61944671D01*
X125549900Y-61944671D01*
X125562585Y-61940549D01*
X125565580Y-61936428D01*
X125565580Y-61928991D01*
X126073580Y-61928991D01*
X126077702Y-61941676D01*
X126081823Y-61944671D01*
X126166904Y-61944671D01*
X126171719Y-61944436D01*
X126311499Y-61930730D01*
X126320950Y-61928859D01*
X126500921Y-61874522D01*
X126509837Y-61870847D01*
X126675821Y-61782592D01*
X126683852Y-61777256D01*
X126829536Y-61658439D01*
X126836373Y-61651650D01*
X126956210Y-61506792D01*
X126961594Y-61498809D01*
X127051014Y-61333431D01*
X127054743Y-61324560D01*
X127091552Y-61205648D01*
X127091389Y-61194010D01*
X127080863Y-61190671D01*
X126089260Y-61190671D01*
X126076575Y-61194793D01*
X126073580Y-61198914D01*
X126073580Y-61928991D01*
X125565580Y-61928991D01*
X125565580Y-61206351D01*
X125561458Y-61193666D01*
X125557337Y-61190671D01*
X124559221Y-61190671D01*
X124547917Y-61194344D01*
X124547768Y-61205033D01*
X123196580Y-61205033D01*
X123196580Y-60667694D01*
X124547608Y-60667694D01*
X124547771Y-60679332D01*
X124558297Y-60682671D01*
X125549900Y-60682671D01*
X125562585Y-60678549D01*
X125565580Y-60674428D01*
X125565580Y-60666991D01*
X126073580Y-60666991D01*
X126077702Y-60679676D01*
X126081823Y-60682671D01*
X127079939Y-60682671D01*
X127091243Y-60678998D01*
X127091392Y-60668309D01*
X127060071Y-60561888D01*
X127056458Y-60552947D01*
X126969362Y-60386348D01*
X126964088Y-60378287D01*
X126846281Y-60231765D01*
X126839550Y-60224891D01*
X126695528Y-60104042D01*
X126687580Y-60098601D01*
X126522841Y-60008034D01*
X126513978Y-60004235D01*
X126334784Y-59947392D01*
X126325356Y-59945388D01*
X126179075Y-59928980D01*
X126173546Y-59928671D01*
X126089260Y-59928671D01*
X126076575Y-59932793D01*
X126073580Y-59936914D01*
X126073580Y-60666991D01*
X125565580Y-60666991D01*
X125565580Y-59944351D01*
X125561458Y-59931666D01*
X125557337Y-59928671D01*
X125472256Y-59928671D01*
X125467441Y-59928906D01*
X125327661Y-59942612D01*
X125318210Y-59944483D01*
X125138239Y-59998820D01*
X125129323Y-60002495D01*
X124963339Y-60090750D01*
X124955308Y-60096086D01*
X124809624Y-60214903D01*
X124802787Y-60221692D01*
X124682950Y-60366550D01*
X124677566Y-60374533D01*
X124588146Y-60539911D01*
X124584417Y-60548782D01*
X124547608Y-60667694D01*
X123196580Y-60667694D01*
X123196580Y-56645672D01*
X130114710Y-56645672D01*
X130143360Y-56812404D01*
X130145613Y-56817699D01*
X130199885Y-56945245D01*
X130209598Y-56968073D01*
X130309871Y-57104329D01*
X130314253Y-57108052D01*
X130314255Y-57108054D01*
X130434414Y-57210137D01*
X130438800Y-57213863D01*
X130589469Y-57290798D01*
X130595054Y-57292165D01*
X130595055Y-57292165D01*
X130749517Y-57329962D01*
X130749520Y-57329963D01*
X130753797Y-57331009D01*
X130758195Y-57331282D01*
X130758196Y-57331282D01*
X130762952Y-57331577D01*
X130762954Y-57331577D01*
X130764468Y-57331671D01*
X135403560Y-57331671D01*
X135461751Y-57350578D01*
X135473564Y-57360667D01*
X140980869Y-62867972D01*
X140990601Y-62879297D01*
X141003871Y-62897329D01*
X141008253Y-62901052D01*
X141008255Y-62901054D01*
X141043045Y-62930610D01*
X141048951Y-62936054D01*
X141055029Y-62942132D01*
X141076652Y-62959239D01*
X141079304Y-62961415D01*
X141116478Y-62992997D01*
X141148584Y-63045082D01*
X141143943Y-63106092D01*
X141104328Y-63152721D01*
X141044870Y-63167160D01*
X141033071Y-63165544D01*
X140865104Y-63132133D01*
X140756427Y-63130710D01*
X140649026Y-63129304D01*
X140649021Y-63129304D01*
X140644486Y-63129245D01*
X140640013Y-63130014D01*
X140640008Y-63130014D01*
X140431515Y-63165839D01*
X140431509Y-63165841D01*
X140427037Y-63166609D01*
X140377674Y-63184820D01*
X140224300Y-63241402D01*
X140224297Y-63241403D01*
X140220037Y-63242975D01*
X140030421Y-63355785D01*
X140027006Y-63358780D01*
X140027003Y-63358782D01*
X139964572Y-63413533D01*
X139864537Y-63501261D01*
X139727943Y-63674531D01*
X139725829Y-63678549D01*
X139646788Y-63828781D01*
X139625211Y-63869791D01*
X139559783Y-64080504D01*
X139559249Y-64085014D01*
X139559249Y-64085015D01*
X139556119Y-64111460D01*
X139533850Y-64299611D01*
X139536878Y-64345803D01*
X139544437Y-64461134D01*
X139548280Y-64519775D01*
X139549396Y-64524168D01*
X139549396Y-64524170D01*
X139600744Y-64726352D01*
X139602591Y-64733623D01*
X139694963Y-64933992D01*
X139822302Y-65114173D01*
X139980344Y-65268132D01*
X140163797Y-65390711D01*
X140366516Y-65477806D01*
X140436262Y-65493588D01*
X140577286Y-65525499D01*
X140577291Y-65525500D01*
X140581712Y-65526500D01*
X140691945Y-65530831D01*
X140797645Y-65534984D01*
X140797646Y-65534984D01*
X140802178Y-65535162D01*
X141020532Y-65503502D01*
X141024831Y-65502043D01*
X141024834Y-65502042D01*
X141225158Y-65434041D01*
X141229459Y-65432581D01*
X141254103Y-65418780D01*
X141283340Y-65402406D01*
X141343350Y-65390469D01*
X141401718Y-65418780D01*
X141507481Y-65524544D01*
X141609584Y-65626647D01*
X141637361Y-65681163D01*
X141638580Y-65696650D01*
X141638580Y-66338504D01*
X141619673Y-66396695D01*
X141611141Y-66405908D01*
X141611360Y-66406101D01*
X141521124Y-66508274D01*
X141521122Y-66508276D01*
X141516457Y-66513559D01*
X141455527Y-66643334D01*
X141454442Y-66650303D01*
X141454441Y-66650306D01*
X141439949Y-66743385D01*
X141433471Y-66784994D01*
X141434386Y-66791991D01*
X141434386Y-66791992D01*
X141435894Y-66803525D01*
X141452060Y-66927150D01*
X141454901Y-66933606D01*
X141454901Y-66933607D01*
X141462666Y-66951253D01*
X141509800Y-67058374D01*
X141522872Y-67073925D01*
X141597511Y-67162720D01*
X141597514Y-67162722D01*
X141602050Y-67168119D01*
X141607921Y-67172027D01*
X141607922Y-67172028D01*
X141620223Y-67180216D01*
X141721393Y-67247561D01*
X141798336Y-67271599D01*
X141851505Y-67288210D01*
X141851506Y-67288210D01*
X141858237Y-67290313D01*
X141929908Y-67291627D01*
X141994525Y-67292812D01*
X141994527Y-67292812D01*
X142001579Y-67292941D01*
X142008382Y-67291086D01*
X142008384Y-67291086D01*
X142104446Y-67264896D01*
X142139897Y-67255231D01*
X142262071Y-67180216D01*
X142269483Y-67172028D01*
X142353548Y-67079153D01*
X142358280Y-67073925D01*
X142420790Y-66944904D01*
X142424955Y-66920153D01*
X142443942Y-66807295D01*
X142443942Y-66807291D01*
X142444576Y-66803525D01*
X142444727Y-66791171D01*
X142424403Y-66649253D01*
X142365064Y-66518743D01*
X142318272Y-66464439D01*
X142276087Y-66415480D01*
X142276085Y-66415478D01*
X142271480Y-66410134D01*
X142271592Y-66410037D01*
X142242078Y-66360720D01*
X142239580Y-66338620D01*
X142239580Y-65584679D01*
X142239883Y-65580554D01*
X142241505Y-65575829D01*
X142239650Y-65526409D01*
X142239580Y-65522696D01*
X142239580Y-65503223D01*
X142238755Y-65498793D01*
X142238418Y-65493588D01*
X142237649Y-65473097D01*
X142237306Y-65463962D01*
X142232761Y-65453383D01*
X142226397Y-65432434D01*
X142225964Y-65430107D01*
X142225962Y-65430102D01*
X142224289Y-65421118D01*
X142210312Y-65398442D01*
X142203628Y-65385575D01*
X142195875Y-65367529D01*
X142195874Y-65367528D01*
X142193116Y-65361108D01*
X142189102Y-65356222D01*
X142184738Y-65351858D01*
X142170467Y-65333803D01*
X142170344Y-65333604D01*
X142165548Y-65325823D01*
X142142311Y-65308153D01*
X142132241Y-65299361D01*
X141826688Y-64993808D01*
X141798911Y-64939291D01*
X141810315Y-64875432D01*
X141840490Y-64821550D01*
X141853324Y-64783743D01*
X141909951Y-64616925D01*
X141909952Y-64616922D01*
X141911411Y-64612623D01*
X141919616Y-64556035D01*
X141942651Y-64397168D01*
X141942651Y-64397162D01*
X141943071Y-64394269D01*
X141943422Y-64380886D01*
X141944647Y-64334085D01*
X141944647Y-64334080D01*
X141944723Y-64331171D01*
X141943564Y-64318550D01*
X141924949Y-64115980D01*
X141924534Y-64111460D01*
X141884684Y-63970160D01*
X141865879Y-63903482D01*
X141865878Y-63903481D01*
X141864645Y-63899107D01*
X141862637Y-63895035D01*
X141862635Y-63895030D01*
X141769068Y-63705296D01*
X141767060Y-63701224D01*
X141635047Y-63524438D01*
X141539160Y-63435801D01*
X141476359Y-63377748D01*
X141476358Y-63377747D01*
X141473029Y-63374670D01*
X141456916Y-63364503D01*
X141354164Y-63299672D01*
X141315040Y-63252630D01*
X141311038Y-63191576D01*
X141343687Y-63139830D01*
X141400517Y-63117157D01*
X141430523Y-63119782D01*
X141443517Y-63122962D01*
X141443521Y-63122963D01*
X141447797Y-63124009D01*
X141452193Y-63124282D01*
X141452195Y-63124282D01*
X141458287Y-63124660D01*
X141461782Y-63125129D01*
X141461790Y-63125035D01*
X141467512Y-63125546D01*
X141473148Y-63126718D01*
X141547467Y-63124707D01*
X141550146Y-63124671D01*
X146530560Y-63124671D01*
X146588751Y-63143578D01*
X146600564Y-63153667D01*
X148413584Y-64966687D01*
X148441361Y-65021204D01*
X148442580Y-65036691D01*
X148442580Y-72580534D01*
X148457232Y-72706208D01*
X148459194Y-72711614D01*
X148459195Y-72711617D01*
X148494127Y-72807851D01*
X148514955Y-72865232D01*
X148518110Y-72870044D01*
X148551373Y-72920778D01*
X148567581Y-72975059D01*
X148567581Y-73169689D01*
X148568190Y-73173532D01*
X148568190Y-73173537D01*
X148574027Y-73210388D01*
X148582434Y-73263475D01*
X148640030Y-73376513D01*
X148729738Y-73466221D01*
X148736675Y-73469756D01*
X148736677Y-73469757D01*
X148806238Y-73505200D01*
X148842776Y-73523817D01*
X148850470Y-73525036D01*
X148850471Y-73525036D01*
X148932715Y-73538062D01*
X148932717Y-73538062D01*
X148936561Y-73538671D01*
X149168050Y-73538671D01*
X149399598Y-73538670D01*
X149403441Y-73538061D01*
X149403446Y-73538061D01*
X149485689Y-73525036D01*
X149485691Y-73525035D01*
X149493384Y-73523817D01*
X149511138Y-73514771D01*
X149571568Y-73505200D01*
X149626085Y-73532978D01*
X149640762Y-73551697D01*
X149653744Y-73573133D01*
X149661056Y-73582459D01*
X149773792Y-73695195D01*
X149783115Y-73702504D01*
X149919483Y-73785092D01*
X149930283Y-73789969D01*
X150083101Y-73837858D01*
X150093337Y-73839908D01*
X150151286Y-73845233D01*
X150161085Y-73842049D01*
X150164080Y-73837928D01*
X150164080Y-73830490D01*
X150672080Y-73830490D01*
X150676202Y-73843175D01*
X150679689Y-73845709D01*
X150742824Y-73839908D01*
X150753058Y-73837859D01*
X150905877Y-73789969D01*
X150916677Y-73785092D01*
X151053045Y-73702504D01*
X151062368Y-73695195D01*
X151175104Y-73582459D01*
X151182413Y-73573136D01*
X151265001Y-73436768D01*
X151269878Y-73425968D01*
X151317767Y-73273150D01*
X151319817Y-73262914D01*
X151325873Y-73197008D01*
X151326080Y-73192499D01*
X151326080Y-72807851D01*
X151321958Y-72795166D01*
X151317837Y-72792171D01*
X150687760Y-72792171D01*
X150675075Y-72796293D01*
X150672080Y-72800414D01*
X150672080Y-73830490D01*
X150164080Y-73830490D01*
X150164080Y-72268491D01*
X150672080Y-72268491D01*
X150676202Y-72281176D01*
X150680323Y-72284171D01*
X151310399Y-72284171D01*
X151323084Y-72280049D01*
X151326079Y-72275928D01*
X151326079Y-71883844D01*
X151325872Y-71879334D01*
X151319817Y-71813427D01*
X151317768Y-71803193D01*
X151269878Y-71650374D01*
X151265001Y-71639574D01*
X151182413Y-71503206D01*
X151175104Y-71493883D01*
X151062368Y-71381147D01*
X151053045Y-71373838D01*
X150916677Y-71291250D01*
X150905877Y-71286373D01*
X150753059Y-71238484D01*
X150742823Y-71236434D01*
X150684874Y-71231109D01*
X150675075Y-71234293D01*
X150672080Y-71238414D01*
X150672080Y-72268491D01*
X150164080Y-72268491D01*
X150164080Y-71245852D01*
X150159958Y-71233167D01*
X150156471Y-71230633D01*
X150093336Y-71236434D01*
X150083099Y-71238484D01*
X150022184Y-71257573D01*
X149961002Y-71256932D01*
X149911882Y-71220451D01*
X149893580Y-71163103D01*
X149893580Y-68334338D01*
X151717580Y-68334338D01*
X151717581Y-70942003D01*
X151720561Y-70973539D01*
X151722558Y-70979226D01*
X151722559Y-70979230D01*
X151742557Y-71036175D01*
X151765446Y-71101354D01*
X151769841Y-71107305D01*
X151769842Y-71107306D01*
X151820215Y-71175506D01*
X151845930Y-71210321D01*
X151851887Y-71214721D01*
X151948897Y-71286373D01*
X151954897Y-71290805D01*
X152082712Y-71335690D01*
X152088719Y-71336258D01*
X152088720Y-71336258D01*
X152111936Y-71338453D01*
X152111946Y-71338453D01*
X152114247Y-71338671D01*
X152967712Y-71338671D01*
X153821912Y-71338670D01*
X153853448Y-71335690D01*
X153859135Y-71333693D01*
X153859139Y-71333692D01*
X153916084Y-71313694D01*
X153981263Y-71290805D01*
X153987264Y-71286373D01*
X154084273Y-71214721D01*
X154090230Y-71210321D01*
X154115945Y-71175506D01*
X154166318Y-71107306D01*
X154166319Y-71107305D01*
X154170714Y-71101354D01*
X154215599Y-70973539D01*
X154216167Y-70967531D01*
X154218362Y-70944315D01*
X154218362Y-70944305D01*
X154218580Y-70942004D01*
X154218579Y-68334339D01*
X154215599Y-68302803D01*
X154213602Y-68297116D01*
X154213601Y-68297112D01*
X154190068Y-68230100D01*
X154170714Y-68174988D01*
X154153629Y-68151856D01*
X154094630Y-68071978D01*
X154090230Y-68066021D01*
X154084273Y-68061621D01*
X153987215Y-67989933D01*
X153987214Y-67989932D01*
X153981263Y-67985537D01*
X153853448Y-67940652D01*
X153847441Y-67940084D01*
X153847440Y-67940084D01*
X153824224Y-67937889D01*
X153824214Y-67937889D01*
X153821913Y-67937671D01*
X152968448Y-67937671D01*
X152114248Y-67937672D01*
X152082712Y-67940652D01*
X152077025Y-67942649D01*
X152077021Y-67942650D01*
X152020076Y-67962648D01*
X151954897Y-67985537D01*
X151948946Y-67989932D01*
X151948945Y-67989933D01*
X151851887Y-68061621D01*
X151845930Y-68066021D01*
X151841530Y-68071978D01*
X151782532Y-68151856D01*
X151765446Y-68174988D01*
X151720561Y-68302803D01*
X151719993Y-68308810D01*
X151719993Y-68308811D01*
X151717799Y-68332023D01*
X151717580Y-68334338D01*
X149893580Y-68334338D01*
X149893580Y-64757685D01*
X149894706Y-64742796D01*
X149897208Y-64726352D01*
X149897208Y-64726348D01*
X149898073Y-64720663D01*
X149893906Y-64669428D01*
X149893580Y-64661403D01*
X149893580Y-64652808D01*
X149890386Y-64625415D01*
X149890047Y-64621982D01*
X149884852Y-64558100D01*
X149884359Y-64552044D01*
X149882587Y-64546574D01*
X149881460Y-64540932D01*
X149881626Y-64540899D01*
X149881083Y-64538406D01*
X149880918Y-64538445D01*
X149879594Y-64532844D01*
X149878928Y-64527134D01*
X149876966Y-64521730D01*
X149876965Y-64521724D01*
X149854972Y-64461134D01*
X149853850Y-64457868D01*
X149835119Y-64400050D01*
X149832221Y-64391104D01*
X149829237Y-64386187D01*
X149826842Y-64380956D01*
X149826995Y-64380886D01*
X149825893Y-64378586D01*
X149825743Y-64378661D01*
X149823168Y-64373518D01*
X149821205Y-64368110D01*
X149782686Y-64309359D01*
X149780868Y-64306476D01*
X149746743Y-64250240D01*
X149746742Y-64250239D01*
X149744457Y-64246473D01*
X149737502Y-64238597D01*
X149735362Y-64235794D01*
X149735291Y-64235854D01*
X149731599Y-64231439D01*
X149728447Y-64226631D01*
X149674497Y-64175524D01*
X149672577Y-64173656D01*
X147898915Y-62399994D01*
X150338471Y-62399994D01*
X150339386Y-62406991D01*
X150339386Y-62406992D01*
X150348525Y-62476878D01*
X150357060Y-62542150D01*
X150414800Y-62673374D01*
X150460925Y-62728246D01*
X150502511Y-62777720D01*
X150502514Y-62777722D01*
X150507050Y-62783119D01*
X150626393Y-62862561D01*
X150722855Y-62892697D01*
X150756505Y-62903210D01*
X150756506Y-62903210D01*
X150763237Y-62905313D01*
X150836606Y-62906658D01*
X150881204Y-62907476D01*
X150939038Y-62927447D01*
X150949393Y-62936455D01*
X153010995Y-64998057D01*
X153039155Y-65055225D01*
X153057060Y-65192150D01*
X153059901Y-65198606D01*
X153059901Y-65198607D01*
X153108107Y-65308162D01*
X153114800Y-65323374D01*
X153151916Y-65367529D01*
X153202511Y-65427720D01*
X153202514Y-65427722D01*
X153207050Y-65433119D01*
X153212921Y-65437027D01*
X153212922Y-65437028D01*
X153222290Y-65443264D01*
X153326393Y-65512561D01*
X153427000Y-65543992D01*
X153456505Y-65553210D01*
X153456506Y-65553210D01*
X153463237Y-65555313D01*
X153534908Y-65556627D01*
X153599525Y-65557812D01*
X153599527Y-65557812D01*
X153606579Y-65557941D01*
X153613382Y-65556086D01*
X153613384Y-65556086D01*
X153692522Y-65534510D01*
X153744897Y-65520231D01*
X153867071Y-65445216D01*
X153874483Y-65437028D01*
X153958548Y-65344153D01*
X153963280Y-65338925D01*
X154025790Y-65209904D01*
X154029955Y-65185153D01*
X154048942Y-65072295D01*
X154048942Y-65072291D01*
X154049576Y-65068525D01*
X154049727Y-65056171D01*
X154029403Y-64914253D01*
X153970064Y-64783743D01*
X153876480Y-64675134D01*
X153756175Y-64597156D01*
X153618819Y-64556078D01*
X153533236Y-64555555D01*
X153482506Y-64555245D01*
X153482505Y-64555245D01*
X153475456Y-64555202D01*
X153472687Y-64555993D01*
X153414351Y-64545496D01*
X153391132Y-64528252D01*
X151375851Y-62512971D01*
X151348074Y-62458454D01*
X151348228Y-62426537D01*
X151348942Y-62422296D01*
X151348943Y-62422290D01*
X151349576Y-62418525D01*
X151349727Y-62406171D01*
X151329403Y-62264253D01*
X151301035Y-62201860D01*
X151272985Y-62140167D01*
X151272984Y-62140166D01*
X151270064Y-62133743D01*
X151194927Y-62046543D01*
X151181085Y-62030478D01*
X151181084Y-62030477D01*
X151176480Y-62025134D01*
X151056175Y-61947156D01*
X150918819Y-61906078D01*
X150835577Y-61905569D01*
X150782507Y-61905245D01*
X150782506Y-61905245D01*
X150775456Y-61905202D01*
X150768679Y-61907139D01*
X150768678Y-61907139D01*
X150644389Y-61942661D01*
X150644387Y-61942662D01*
X150637609Y-61944599D01*
X150516360Y-62021101D01*
X150511693Y-62026385D01*
X150511691Y-62026387D01*
X150426124Y-62123274D01*
X150426122Y-62123276D01*
X150421457Y-62128559D01*
X150360527Y-62258334D01*
X150359442Y-62265303D01*
X150359441Y-62265306D01*
X150353131Y-62305836D01*
X150338471Y-62399994D01*
X147898915Y-62399994D01*
X147429291Y-61930370D01*
X147419559Y-61919045D01*
X147409698Y-61905645D01*
X147409697Y-61905644D01*
X147406289Y-61901013D01*
X147401907Y-61897290D01*
X147401905Y-61897288D01*
X147367115Y-61867732D01*
X147361209Y-61862288D01*
X147355131Y-61856210D01*
X147333524Y-61839115D01*
X147330852Y-61836924D01*
X147281744Y-61795203D01*
X147281741Y-61795201D01*
X147277360Y-61791479D01*
X147272239Y-61788864D01*
X147267451Y-61785671D01*
X147267545Y-61785531D01*
X147265398Y-61784152D01*
X147265309Y-61784296D01*
X147260415Y-61781273D01*
X147255905Y-61777705D01*
X147250698Y-61775271D01*
X147250694Y-61775269D01*
X147192304Y-61747980D01*
X147189199Y-61746462D01*
X147181598Y-61742581D01*
X147126691Y-61714544D01*
X147121100Y-61713176D01*
X147115715Y-61711173D01*
X147115774Y-61711015D01*
X147113365Y-61710167D01*
X147113312Y-61710326D01*
X147107852Y-61708510D01*
X147102642Y-61706075D01*
X147097009Y-61704903D01*
X147097008Y-61704903D01*
X147033936Y-61691784D01*
X147030566Y-61691022D01*
X146966643Y-61675380D01*
X146966640Y-61675380D01*
X146962363Y-61674333D01*
X146957967Y-61674060D01*
X146957965Y-61674060D01*
X146951872Y-61673682D01*
X146948377Y-61673213D01*
X146948369Y-61673307D01*
X146942647Y-61672796D01*
X146937011Y-61671624D01*
X146864726Y-61673580D01*
X146862691Y-61673635D01*
X146860013Y-61673671D01*
X141879600Y-61673671D01*
X141821409Y-61654764D01*
X141809596Y-61644675D01*
X138964532Y-58799611D01*
X145653850Y-58799611D01*
X145668280Y-59019775D01*
X145669396Y-59024168D01*
X145669396Y-59024170D01*
X145692953Y-59116925D01*
X145722591Y-59233623D01*
X145814963Y-59433992D01*
X145942302Y-59614173D01*
X146100344Y-59768132D01*
X146283797Y-59890711D01*
X146486516Y-59977806D01*
X146564245Y-59995394D01*
X146697286Y-60025499D01*
X146697291Y-60025500D01*
X146701712Y-60026500D01*
X146811945Y-60030831D01*
X146917645Y-60034984D01*
X146917646Y-60034984D01*
X146922178Y-60035162D01*
X147140532Y-60003502D01*
X147144831Y-60002043D01*
X147144834Y-60002042D01*
X147345158Y-59934041D01*
X147349459Y-59932581D01*
X147355470Y-59929215D01*
X147538005Y-59826990D01*
X147541964Y-59824773D01*
X147711598Y-59683689D01*
X147852682Y-59514055D01*
X147960490Y-59321550D01*
X148031411Y-59112623D01*
X148044583Y-59021779D01*
X148062651Y-58897168D01*
X148062651Y-58897162D01*
X148063071Y-58894269D01*
X148063158Y-58890975D01*
X148064647Y-58834085D01*
X148064647Y-58834080D01*
X148064723Y-58831171D01*
X148061212Y-58792956D01*
X148051529Y-58687582D01*
X148044534Y-58611460D01*
X148033252Y-58571455D01*
X147985879Y-58403482D01*
X147985878Y-58403481D01*
X147984645Y-58399107D01*
X147982637Y-58395035D01*
X147982635Y-58395030D01*
X147889068Y-58205296D01*
X147887060Y-58201224D01*
X147760011Y-58031086D01*
X147757763Y-58028075D01*
X147757762Y-58028074D01*
X147755047Y-58024438D01*
X147644518Y-57922266D01*
X147596359Y-57877748D01*
X147596358Y-57877747D01*
X147593029Y-57874670D01*
X147588706Y-57871942D01*
X147410267Y-57759356D01*
X147406430Y-57756935D01*
X147201501Y-57675177D01*
X146985104Y-57632133D01*
X146876427Y-57630710D01*
X146769026Y-57629304D01*
X146769021Y-57629304D01*
X146764486Y-57629245D01*
X146760013Y-57630014D01*
X146760008Y-57630014D01*
X146551515Y-57665839D01*
X146551509Y-57665841D01*
X146547037Y-57666609D01*
X146443537Y-57704792D01*
X146344300Y-57741402D01*
X146344297Y-57741403D01*
X146340037Y-57742975D01*
X146336134Y-57745297D01*
X146336132Y-57745298D01*
X146316572Y-57756935D01*
X146150421Y-57855785D01*
X146147006Y-57858780D01*
X146147003Y-57858782D01*
X146047452Y-57946086D01*
X145984537Y-58001261D01*
X145847943Y-58174531D01*
X145845829Y-58178549D01*
X145749827Y-58361018D01*
X145745211Y-58369791D01*
X145743867Y-58374120D01*
X145687878Y-58554435D01*
X145679783Y-58580504D01*
X145679249Y-58585014D01*
X145679249Y-58585015D01*
X145664833Y-58706813D01*
X145653850Y-58799611D01*
X138964532Y-58799611D01*
X136302291Y-56137370D01*
X136292559Y-56126045D01*
X136282698Y-56112645D01*
X136282697Y-56112644D01*
X136279289Y-56108013D01*
X136274907Y-56104290D01*
X136274905Y-56104288D01*
X136240115Y-56074732D01*
X136234209Y-56069288D01*
X136228131Y-56063210D01*
X136206524Y-56046115D01*
X136203852Y-56043924D01*
X136163698Y-56009810D01*
X138934655Y-56009810D01*
X138935570Y-56016807D01*
X138935570Y-56016808D01*
X138944709Y-56086694D01*
X138953244Y-56151966D01*
X138956085Y-56158422D01*
X138956085Y-56158423D01*
X138988055Y-56231079D01*
X139010984Y-56283190D01*
X139043973Y-56322435D01*
X139098695Y-56387536D01*
X139098698Y-56387538D01*
X139103234Y-56392935D01*
X139109105Y-56396843D01*
X139109106Y-56396844D01*
X139140808Y-56417947D01*
X139222577Y-56472377D01*
X139299517Y-56496414D01*
X139352689Y-56513026D01*
X139352690Y-56513026D01*
X139359421Y-56515129D01*
X139430635Y-56516435D01*
X139477387Y-56517292D01*
X139535221Y-56537263D01*
X139545576Y-56546271D01*
X139614584Y-56615279D01*
X139642361Y-56669796D01*
X139643580Y-56685283D01*
X139643580Y-57078504D01*
X139624673Y-57136695D01*
X139616141Y-57145908D01*
X139616360Y-57146101D01*
X139526124Y-57248274D01*
X139526122Y-57248276D01*
X139521457Y-57253559D01*
X139518461Y-57259941D01*
X139518460Y-57259942D01*
X139516601Y-57263902D01*
X139460527Y-57383334D01*
X139459442Y-57390303D01*
X139459441Y-57390306D01*
X139444760Y-57484601D01*
X139438471Y-57524994D01*
X139439386Y-57531991D01*
X139439386Y-57531992D01*
X139440894Y-57543525D01*
X139457060Y-57667150D01*
X139459901Y-57673606D01*
X139459901Y-57673607D01*
X139508945Y-57785067D01*
X139514800Y-57798374D01*
X139545769Y-57835216D01*
X139602511Y-57902720D01*
X139602514Y-57902722D01*
X139607050Y-57908119D01*
X139612921Y-57912027D01*
X139612922Y-57912028D01*
X139630769Y-57923908D01*
X139726393Y-57987561D01*
X139808963Y-58013357D01*
X139856505Y-58028210D01*
X139856506Y-58028210D01*
X139863237Y-58030313D01*
X139934908Y-58031627D01*
X139999525Y-58032812D01*
X139999527Y-58032812D01*
X140006579Y-58032941D01*
X140013382Y-58031086D01*
X140013384Y-58031086D01*
X140122779Y-58001261D01*
X140144897Y-57995231D01*
X140267071Y-57920216D01*
X140274483Y-57912028D01*
X140358548Y-57819153D01*
X140363280Y-57813925D01*
X140425790Y-57684904D01*
X140427427Y-57675177D01*
X140448942Y-57547295D01*
X140448942Y-57547291D01*
X140449576Y-57543525D01*
X140449727Y-57531171D01*
X140429403Y-57389253D01*
X140385161Y-57291947D01*
X140372985Y-57265167D01*
X140372984Y-57265166D01*
X140370064Y-57258743D01*
X140314266Y-57193986D01*
X140281087Y-57155480D01*
X140281085Y-57155478D01*
X140276480Y-57150134D01*
X140276592Y-57150037D01*
X140247078Y-57100720D01*
X140244580Y-57078620D01*
X140244580Y-56573311D01*
X140244883Y-56569186D01*
X140246505Y-56564461D01*
X140244650Y-56515041D01*
X140244580Y-56511328D01*
X140244580Y-56494536D01*
X146040492Y-56494536D01*
X146046863Y-56501427D01*
X146219030Y-56606933D01*
X146225936Y-56610452D01*
X146438050Y-56698312D01*
X146445418Y-56700706D01*
X146668674Y-56754305D01*
X146676317Y-56755516D01*
X146905205Y-56773529D01*
X146912955Y-56773529D01*
X147141843Y-56755516D01*
X147149486Y-56754305D01*
X147372742Y-56700706D01*
X147380110Y-56698312D01*
X147592224Y-56610452D01*
X147599130Y-56606933D01*
X147769603Y-56502465D01*
X147777876Y-56492779D01*
X147773292Y-56484593D01*
X146920166Y-55631467D01*
X146908283Y-55625413D01*
X146903252Y-55626209D01*
X146046274Y-56483187D01*
X146040492Y-56494536D01*
X140244580Y-56494536D01*
X140244580Y-56491855D01*
X140243755Y-56487425D01*
X140243418Y-56482220D01*
X140243216Y-56476821D01*
X140242306Y-56452594D01*
X140237761Y-56442015D01*
X140231397Y-56421066D01*
X140230964Y-56418739D01*
X140230962Y-56418734D01*
X140229289Y-56409750D01*
X140215312Y-56387074D01*
X140208628Y-56374207D01*
X140200875Y-56356161D01*
X140200874Y-56356160D01*
X140198116Y-56349740D01*
X140194102Y-56344854D01*
X140189738Y-56340490D01*
X140175467Y-56322435D01*
X140175344Y-56322236D01*
X140170548Y-56314455D01*
X140147311Y-56296785D01*
X140137241Y-56287993D01*
X139972035Y-56122787D01*
X139944258Y-56068270D01*
X139944412Y-56036353D01*
X139945126Y-56032112D01*
X139945127Y-56032106D01*
X139945760Y-56028341D01*
X139945911Y-56015987D01*
X139937655Y-55958336D01*
X140841439Y-55958336D01*
X140848929Y-55966025D01*
X140906788Y-55997440D01*
X140917807Y-56001802D01*
X141072019Y-56042259D01*
X141083752Y-56043866D01*
X141243166Y-56046370D01*
X141254946Y-56045132D01*
X141410349Y-56009540D01*
X141421499Y-56005526D01*
X141499706Y-55966192D01*
X141507644Y-55958336D01*
X142241439Y-55958336D01*
X142248929Y-55966025D01*
X142306788Y-55997440D01*
X142317807Y-56001802D01*
X142472019Y-56042259D01*
X142483752Y-56043866D01*
X142643166Y-56046370D01*
X142654946Y-56045132D01*
X142810349Y-56009540D01*
X142821499Y-56005526D01*
X142899706Y-55966192D01*
X142907736Y-55958245D01*
X142902534Y-55947968D01*
X142585666Y-55631100D01*
X142573783Y-55625046D01*
X142568751Y-55625842D01*
X142246822Y-55947771D01*
X142241439Y-55958336D01*
X141507644Y-55958336D01*
X141507736Y-55958245D01*
X141502534Y-55947968D01*
X141185666Y-55631100D01*
X141173783Y-55625046D01*
X141168751Y-55625842D01*
X140846822Y-55947771D01*
X140841439Y-55958336D01*
X139937655Y-55958336D01*
X139925587Y-55874069D01*
X139866248Y-55743559D01*
X139790244Y-55655352D01*
X139777269Y-55640294D01*
X139777268Y-55640293D01*
X139772664Y-55634950D01*
X139652359Y-55556972D01*
X139515003Y-55515894D01*
X139431761Y-55515385D01*
X139378691Y-55515061D01*
X139378690Y-55515061D01*
X139371640Y-55515018D01*
X139364863Y-55516955D01*
X139364862Y-55516955D01*
X139240573Y-55552477D01*
X139240571Y-55552478D01*
X139233793Y-55554415D01*
X139112544Y-55630917D01*
X139107877Y-55636201D01*
X139107875Y-55636203D01*
X139022308Y-55733090D01*
X139022306Y-55733092D01*
X139017641Y-55738375D01*
X138956711Y-55868150D01*
X138955626Y-55875119D01*
X138955625Y-55875122D01*
X138942669Y-55958336D01*
X138934655Y-56009810D01*
X136163698Y-56009810D01*
X136154744Y-56002203D01*
X136154741Y-56002201D01*
X136150360Y-55998479D01*
X136145239Y-55995864D01*
X136140451Y-55992671D01*
X136140545Y-55992531D01*
X136138398Y-55991152D01*
X136138309Y-55991296D01*
X136133415Y-55988273D01*
X136128905Y-55984705D01*
X136123698Y-55982271D01*
X136123694Y-55982269D01*
X136065304Y-55954980D01*
X136062199Y-55953462D01*
X136044285Y-55944315D01*
X135999691Y-55921544D01*
X135994100Y-55920176D01*
X135988715Y-55918173D01*
X135988774Y-55918015D01*
X135986365Y-55917167D01*
X135986312Y-55917326D01*
X135980852Y-55915510D01*
X135975642Y-55913075D01*
X135970009Y-55911903D01*
X135970008Y-55911903D01*
X135906936Y-55898784D01*
X135903566Y-55898022D01*
X135839643Y-55882380D01*
X135839640Y-55882380D01*
X135835363Y-55881333D01*
X135830967Y-55881060D01*
X135830965Y-55881060D01*
X135824872Y-55880682D01*
X135821377Y-55880213D01*
X135821369Y-55880307D01*
X135815647Y-55879796D01*
X135810011Y-55878624D01*
X135737726Y-55880580D01*
X135735691Y-55880635D01*
X135733013Y-55880671D01*
X130801717Y-55880671D01*
X130676043Y-55895323D01*
X130670637Y-55897285D01*
X130670634Y-55897286D01*
X130541072Y-55944315D01*
X130517019Y-55953046D01*
X130512210Y-55956199D01*
X130512206Y-55956201D01*
X130456607Y-55992654D01*
X130375540Y-56045804D01*
X130259195Y-56168621D01*
X130174224Y-56314909D01*
X130157735Y-56369350D01*
X130127715Y-56468469D01*
X130125185Y-56476821D01*
X130114710Y-56645672D01*
X123196580Y-56645672D01*
X123196580Y-47529065D01*
X123215487Y-47470874D01*
X123264987Y-47434910D01*
X123326173Y-47434910D01*
X123350436Y-47446653D01*
X123413393Y-47488561D01*
X123508024Y-47518125D01*
X123543505Y-47529210D01*
X123543506Y-47529210D01*
X123550237Y-47531313D01*
X123623606Y-47532658D01*
X123668204Y-47533476D01*
X123726038Y-47553447D01*
X123736393Y-47562455D01*
X126396341Y-50222403D01*
X126424118Y-50276920D01*
X126414547Y-50337352D01*
X126371282Y-50380617D01*
X126310850Y-50390188D01*
X126297969Y-50387255D01*
X126281663Y-50382378D01*
X126277229Y-50380938D01*
X126238047Y-50367178D01*
X126238044Y-50367177D01*
X126232174Y-50365116D01*
X126227036Y-50364671D01*
X126224898Y-50364671D01*
X126223179Y-50364597D01*
X126221818Y-50364482D01*
X126215616Y-50362627D01*
X126207445Y-50362948D01*
X126165526Y-50364595D01*
X126161639Y-50364671D01*
X125569580Y-50364671D01*
X125511389Y-50345764D01*
X125475425Y-50296264D01*
X125470580Y-50265671D01*
X125470580Y-49945423D01*
X125458947Y-49886940D01*
X125414632Y-49820619D01*
X125348311Y-49776304D01*
X125338748Y-49774402D01*
X125338746Y-49774401D01*
X125310993Y-49768881D01*
X125289828Y-49764671D01*
X123750332Y-49764671D01*
X123729167Y-49768881D01*
X123701414Y-49774401D01*
X123701412Y-49774402D01*
X123691849Y-49776304D01*
X123625528Y-49820619D01*
X123581213Y-49886940D01*
X123569580Y-49945423D01*
X123569580Y-51484919D01*
X123581213Y-51543402D01*
X123625528Y-51609723D01*
X123691849Y-51654038D01*
X123701412Y-51655940D01*
X123701414Y-51655941D01*
X123724085Y-51660450D01*
X123750332Y-51665671D01*
X125289828Y-51665671D01*
X125316075Y-51660450D01*
X125338746Y-51655941D01*
X125338748Y-51655940D01*
X125348311Y-51654038D01*
X125414632Y-51609723D01*
X125458947Y-51543402D01*
X125470580Y-51484919D01*
X125470580Y-51164671D01*
X125489487Y-51106480D01*
X125538987Y-51070516D01*
X125569580Y-51065671D01*
X125984890Y-51065671D01*
X126043081Y-51084578D01*
X126054894Y-51094667D01*
X126276111Y-51315884D01*
X126304271Y-51373051D01*
X126319060Y-51486150D01*
X126321901Y-51492606D01*
X126321901Y-51492607D01*
X126348352Y-51552720D01*
X126376800Y-51617374D01*
X126401775Y-51647085D01*
X126464511Y-51721720D01*
X126464514Y-51721722D01*
X126469050Y-51727119D01*
X126474921Y-51731027D01*
X126474922Y-51731028D01*
X126492769Y-51742908D01*
X126588393Y-51806561D01*
X126689000Y-51837992D01*
X126718505Y-51847210D01*
X126718506Y-51847210D01*
X126725237Y-51849313D01*
X126796908Y-51850627D01*
X126861525Y-51851812D01*
X126861527Y-51851812D01*
X126868579Y-51851941D01*
X126875382Y-51850086D01*
X126875384Y-51850086D01*
X126993718Y-51817824D01*
X127006897Y-51814231D01*
X127129071Y-51739216D01*
X127136483Y-51731028D01*
X127220548Y-51638153D01*
X127225280Y-51632925D01*
X127287790Y-51503904D01*
X127291802Y-51480061D01*
X127310942Y-51366295D01*
X127310942Y-51366291D01*
X127311576Y-51362525D01*
X127311727Y-51350171D01*
X127291403Y-51208253D01*
X127257878Y-51134518D01*
X127234985Y-51084167D01*
X127234984Y-51084166D01*
X127232064Y-51077743D01*
X127138480Y-50969134D01*
X127018175Y-50891156D01*
X126880819Y-50850078D01*
X126841836Y-50849840D01*
X126783762Y-50830578D01*
X126772437Y-50820846D01*
X126482318Y-50530727D01*
X126454541Y-50476210D01*
X126464112Y-50415778D01*
X126507377Y-50372513D01*
X126567809Y-50362942D01*
X126575170Y-50364396D01*
X126581146Y-50365814D01*
X126594964Y-50370185D01*
X126613212Y-50377465D01*
X126613214Y-50377465D01*
X126619702Y-50380054D01*
X126625995Y-50380671D01*
X126632164Y-50380671D01*
X126655023Y-50383346D01*
X126655253Y-50383401D01*
X126655255Y-50383401D01*
X126664146Y-50385511D01*
X126693068Y-50381575D01*
X126706417Y-50380671D01*
X133092601Y-50380671D01*
X133150792Y-50399578D01*
X133162605Y-50409667D01*
X133441218Y-50688280D01*
X133468995Y-50742797D01*
X133459424Y-50803229D01*
X133416159Y-50846494D01*
X133398423Y-50853472D01*
X133345808Y-50868509D01*
X133283876Y-50886209D01*
X133283874Y-50886210D01*
X133277096Y-50888147D01*
X133155847Y-50964649D01*
X133151180Y-50969933D01*
X133151178Y-50969935D01*
X133065611Y-51066822D01*
X133065609Y-51066824D01*
X133060944Y-51072107D01*
X133057948Y-51078489D01*
X133057947Y-51078490D01*
X133045114Y-51105823D01*
X133000014Y-51201882D01*
X132998929Y-51208851D01*
X132998928Y-51208854D01*
X132988187Y-51277841D01*
X132977958Y-51343542D01*
X132978873Y-51350540D01*
X132981674Y-51371960D01*
X132970472Y-51432111D01*
X132953514Y-51454800D01*
X132139640Y-52268675D01*
X132085123Y-52296452D01*
X132069636Y-52297671D01*
X125580588Y-52297671D01*
X125576463Y-52297368D01*
X125571738Y-52295746D01*
X125522318Y-52297601D01*
X125518605Y-52297671D01*
X125499132Y-52297671D01*
X125494702Y-52298496D01*
X125489509Y-52298832D01*
X125470378Y-52299550D01*
X125469006Y-52299602D01*
X125459871Y-52299945D01*
X125451474Y-52303553D01*
X125451473Y-52303553D01*
X125449292Y-52304490D01*
X125428343Y-52310854D01*
X125426016Y-52311287D01*
X125426011Y-52311289D01*
X125417027Y-52312962D01*
X125394352Y-52326939D01*
X125381484Y-52333623D01*
X125363438Y-52341376D01*
X125363437Y-52341377D01*
X125357017Y-52344135D01*
X125352131Y-52348149D01*
X125347767Y-52352513D01*
X125329712Y-52366784D01*
X125321732Y-52371703D01*
X125304062Y-52394940D01*
X125295270Y-52405010D01*
X124494429Y-53205851D01*
X124491300Y-53208551D01*
X124486811Y-53210746D01*
X124480593Y-53217449D01*
X124453187Y-53246993D01*
X124450611Y-53249669D01*
X124436832Y-53263448D01*
X124434287Y-53267158D01*
X124430851Y-53271071D01*
X124410679Y-53292817D01*
X124407292Y-53301305D01*
X124407292Y-53301306D01*
X124406414Y-53303507D01*
X124396100Y-53322823D01*
X124394759Y-53324778D01*
X124394758Y-53324781D01*
X124389588Y-53332317D01*
X124387478Y-53341209D01*
X124383439Y-53358229D01*
X124379066Y-53372055D01*
X124377453Y-53376099D01*
X124369197Y-53396793D01*
X124368580Y-53403086D01*
X124368580Y-53409255D01*
X124365905Y-53432113D01*
X124363740Y-53441237D01*
X124367676Y-53470158D01*
X124368580Y-53483508D01*
X124368580Y-53703504D01*
X124349673Y-53761695D01*
X124341141Y-53770908D01*
X124341360Y-53771101D01*
X124251124Y-53873274D01*
X124251122Y-53873276D01*
X124246457Y-53878559D01*
X124243461Y-53884941D01*
X124243460Y-53884942D01*
X124230808Y-53911890D01*
X124185527Y-54008334D01*
X124182222Y-54029563D01*
X124179518Y-54046928D01*
X124151884Y-54101517D01*
X124097440Y-54129437D01*
X124081095Y-54130695D01*
X124024296Y-54130348D01*
X124007507Y-54130245D01*
X124007506Y-54130245D01*
X124000456Y-54130202D01*
X123993679Y-54132139D01*
X123993678Y-54132139D01*
X123869389Y-54167661D01*
X123869387Y-54167662D01*
X123862609Y-54169599D01*
X123741360Y-54246101D01*
X123736693Y-54251385D01*
X123736691Y-54251387D01*
X123651124Y-54348274D01*
X123651122Y-54348276D01*
X123646457Y-54353559D01*
X123643461Y-54359941D01*
X123643460Y-54359942D01*
X123632021Y-54384306D01*
X123585527Y-54483334D01*
X123584442Y-54490303D01*
X123584441Y-54490306D01*
X123570789Y-54577994D01*
X123563471Y-54624994D01*
X123564386Y-54631991D01*
X123564386Y-54631992D01*
X123567020Y-54652134D01*
X123582060Y-54767150D01*
X123584902Y-54773610D01*
X123586798Y-54780399D01*
X123585190Y-54780848D01*
X123590405Y-54832653D01*
X123590213Y-54832940D01*
X123578580Y-54891423D01*
X123578580Y-56430919D01*
X123583801Y-56457166D01*
X123587749Y-56477013D01*
X123590213Y-56489402D01*
X123634528Y-56555723D01*
X123700849Y-56600038D01*
X123710412Y-56601940D01*
X123710414Y-56601941D01*
X123733085Y-56606450D01*
X123759332Y-56611671D01*
X125298828Y-56611671D01*
X125325075Y-56606450D01*
X125347746Y-56601941D01*
X125347748Y-56601940D01*
X125357311Y-56600038D01*
X125423632Y-56555723D01*
X125467947Y-56489402D01*
X125470412Y-56477013D01*
X125474359Y-56457166D01*
X125479580Y-56430919D01*
X125479580Y-54891423D01*
X125473035Y-54858520D01*
X125469850Y-54842505D01*
X125469849Y-54842503D01*
X125467947Y-54832940D01*
X125423632Y-54766619D01*
X125357311Y-54722304D01*
X125347748Y-54720402D01*
X125347746Y-54720401D01*
X125325075Y-54715892D01*
X125298828Y-54710671D01*
X125065446Y-54710671D01*
X125007255Y-54691764D01*
X124971291Y-54642264D01*
X124971291Y-54581078D01*
X124994306Y-54547239D01*
X124992071Y-54545216D01*
X125083548Y-54444153D01*
X125088280Y-54438925D01*
X125150790Y-54309904D01*
X125152064Y-54302336D01*
X125155941Y-54279287D01*
X125184241Y-54225040D01*
X125239021Y-54197787D01*
X125259180Y-54197920D01*
X125259191Y-54197346D01*
X125395479Y-54199845D01*
X125395481Y-54199845D01*
X125402533Y-54199974D01*
X125409336Y-54198119D01*
X125409338Y-54198119D01*
X125500144Y-54173362D01*
X125540851Y-54162264D01*
X125663025Y-54087249D01*
X125668490Y-54081212D01*
X125754502Y-53986186D01*
X125759234Y-53980958D01*
X125807080Y-53882204D01*
X125849468Y-53838080D01*
X125896174Y-53826370D01*
X126823242Y-53826370D01*
X126881433Y-53845277D01*
X126893246Y-53855366D01*
X127086701Y-54048821D01*
X127089401Y-54051950D01*
X127091596Y-54056439D01*
X127098299Y-54062657D01*
X127127843Y-54090063D01*
X127130519Y-54092639D01*
X127144298Y-54106418D01*
X127148008Y-54108963D01*
X127151921Y-54112399D01*
X127172766Y-54131735D01*
X127173667Y-54132571D01*
X127173558Y-54132689D01*
X127208856Y-54175204D01*
X127212806Y-54236262D01*
X127206487Y-54253884D01*
X127148527Y-54377334D01*
X127147442Y-54384303D01*
X127147441Y-54384306D01*
X127144897Y-54400648D01*
X127126471Y-54518994D01*
X127145060Y-54661150D01*
X127147901Y-54667606D01*
X127147901Y-54667607D01*
X127193564Y-54771383D01*
X127202800Y-54792374D01*
X127223734Y-54817278D01*
X127290511Y-54896720D01*
X127290514Y-54896722D01*
X127295050Y-54902119D01*
X127414393Y-54981561D01*
X127495580Y-55006925D01*
X127544505Y-55022210D01*
X127544506Y-55022210D01*
X127551237Y-55024313D01*
X127622908Y-55025627D01*
X127687525Y-55026812D01*
X127687527Y-55026812D01*
X127694579Y-55026941D01*
X127701382Y-55025086D01*
X127701384Y-55025086D01*
X127832897Y-54989231D01*
X127833500Y-54991442D01*
X127883888Y-54986682D01*
X127936551Y-55017831D01*
X127960847Y-55073985D01*
X127960107Y-55098525D01*
X127951471Y-55153992D01*
X127952386Y-55160989D01*
X127952386Y-55160990D01*
X127965382Y-55260374D01*
X127970060Y-55296148D01*
X127972901Y-55302604D01*
X127972901Y-55302605D01*
X128011506Y-55390340D01*
X128027800Y-55427372D01*
X128045267Y-55448151D01*
X128115511Y-55531718D01*
X128115514Y-55531720D01*
X128120050Y-55537117D01*
X128125921Y-55541025D01*
X128125922Y-55541026D01*
X128138223Y-55549214D01*
X128239393Y-55616559D01*
X128315366Y-55640294D01*
X128369505Y-55657208D01*
X128369506Y-55657208D01*
X128376237Y-55659311D01*
X128447908Y-55660625D01*
X128512525Y-55661810D01*
X128512527Y-55661810D01*
X128519579Y-55661939D01*
X128526382Y-55660084D01*
X128526384Y-55660084D01*
X128632647Y-55631113D01*
X128657897Y-55624229D01*
X128780071Y-55549214D01*
X128787483Y-55541026D01*
X128871548Y-55448151D01*
X128876280Y-55442923D01*
X128923411Y-55345645D01*
X128935714Y-55320251D01*
X128938790Y-55313902D01*
X128940200Y-55305526D01*
X128948139Y-55258336D01*
X140141439Y-55258336D01*
X140148929Y-55266025D01*
X140206788Y-55297440D01*
X140217807Y-55301802D01*
X140372020Y-55342259D01*
X140387704Y-55344407D01*
X140442791Y-55371036D01*
X140471705Y-55424958D01*
X140472672Y-55431627D01*
X140479569Y-55494097D01*
X140482276Y-55505638D01*
X140537063Y-55655352D01*
X140542153Y-55665343D01*
X140552455Y-55673421D01*
X140552569Y-55673425D01*
X140559641Y-55669268D01*
X140880649Y-55348259D01*
X140885892Y-55337968D01*
X141462455Y-55337968D01*
X141463252Y-55343000D01*
X141788888Y-55668637D01*
X141799040Y-55673810D01*
X141804640Y-55668210D01*
X141859157Y-55640433D01*
X141919589Y-55650004D01*
X141935730Y-55660307D01*
X141952455Y-55673421D01*
X141952569Y-55673425D01*
X141959641Y-55669268D01*
X142280649Y-55348259D01*
X142285892Y-55337968D01*
X142862455Y-55337968D01*
X142863252Y-55343000D01*
X143188888Y-55668637D01*
X143199040Y-55673810D01*
X143204584Y-55668266D01*
X143261252Y-55527298D01*
X143264319Y-55515851D01*
X143276795Y-55428196D01*
X143303713Y-55373250D01*
X143352705Y-55345645D01*
X143510349Y-55309540D01*
X143521499Y-55305526D01*
X143599706Y-55266192D01*
X143600864Y-55265046D01*
X145396722Y-55265046D01*
X145414735Y-55493934D01*
X145415946Y-55501577D01*
X145469545Y-55724833D01*
X145471939Y-55732201D01*
X145559799Y-55944315D01*
X145563318Y-55951221D01*
X145667786Y-56121694D01*
X145677472Y-56129967D01*
X145685658Y-56125383D01*
X146538784Y-55272257D01*
X146544026Y-55261968D01*
X147273322Y-55261968D01*
X147274118Y-55266999D01*
X148131096Y-56123977D01*
X148142445Y-56129759D01*
X148149336Y-56123388D01*
X148254842Y-55951221D01*
X148258361Y-55944315D01*
X148346221Y-55732201D01*
X148348615Y-55724833D01*
X148402214Y-55501577D01*
X148403425Y-55493934D01*
X148421438Y-55265046D01*
X148421438Y-55257296D01*
X148403425Y-55028408D01*
X148403201Y-55026994D01*
X150176471Y-55026994D01*
X150177386Y-55033991D01*
X150177386Y-55033992D01*
X150185825Y-55098527D01*
X150195060Y-55169150D01*
X150197901Y-55175606D01*
X150197901Y-55175607D01*
X150247862Y-55289151D01*
X150252800Y-55300374D01*
X150296994Y-55352949D01*
X150340511Y-55404720D01*
X150340514Y-55404722D01*
X150345050Y-55410119D01*
X150350921Y-55414027D01*
X150350922Y-55414028D01*
X150372206Y-55428196D01*
X150464393Y-55489561D01*
X150548544Y-55515851D01*
X150594505Y-55530210D01*
X150594506Y-55530210D01*
X150601237Y-55532313D01*
X150672908Y-55533627D01*
X150737525Y-55534812D01*
X150737527Y-55534812D01*
X150744579Y-55534941D01*
X150751382Y-55533086D01*
X150751384Y-55533086D01*
X150845187Y-55507512D01*
X150882897Y-55497231D01*
X150965780Y-55446341D01*
X151025261Y-55432005D01*
X151081809Y-55455371D01*
X151113824Y-55507512D01*
X151116580Y-55530707D01*
X151116580Y-56152915D01*
X151126803Y-56237393D01*
X151179048Y-56369350D01*
X151183128Y-56374725D01*
X151183129Y-56374727D01*
X151226523Y-56431896D01*
X151264855Y-56482396D01*
X151270238Y-56486482D01*
X151372524Y-56564122D01*
X151372526Y-56564123D01*
X151377901Y-56568203D01*
X151509858Y-56620448D01*
X151594336Y-56630671D01*
X152309824Y-56630671D01*
X152394302Y-56620448D01*
X152526259Y-56568203D01*
X152531634Y-56564123D01*
X152531636Y-56564122D01*
X152633922Y-56486482D01*
X152639305Y-56482396D01*
X152677637Y-56431896D01*
X152721031Y-56374727D01*
X152721032Y-56374725D01*
X152725112Y-56369350D01*
X152777357Y-56237393D01*
X152787580Y-56152915D01*
X152787580Y-55437427D01*
X152777357Y-55352949D01*
X152725112Y-55220992D01*
X152639305Y-55107946D01*
X152607225Y-55083596D01*
X152531636Y-55026220D01*
X152531634Y-55026219D01*
X152526259Y-55022139D01*
X152394302Y-54969894D01*
X152309824Y-54959671D01*
X151594336Y-54959671D01*
X151591377Y-54960029D01*
X151589190Y-54960161D01*
X151529966Y-54944792D01*
X151513225Y-54931345D01*
X151440400Y-54858520D01*
X151437700Y-54855391D01*
X151435505Y-54850902D01*
X151399258Y-54817278D01*
X151396582Y-54814702D01*
X151382803Y-54800923D01*
X151379093Y-54798378D01*
X151375180Y-54794942D01*
X151360135Y-54780986D01*
X151353434Y-54774770D01*
X151342744Y-54770505D01*
X151323428Y-54760191D01*
X151321473Y-54758850D01*
X151321470Y-54758849D01*
X151313934Y-54753679D01*
X151288021Y-54747530D01*
X151274196Y-54743157D01*
X151255948Y-54735877D01*
X151255946Y-54735877D01*
X151249458Y-54733288D01*
X151243165Y-54732671D01*
X151236996Y-54732671D01*
X151214137Y-54729996D01*
X151213907Y-54729941D01*
X151213905Y-54729941D01*
X151205014Y-54727831D01*
X151176093Y-54731767D01*
X151162743Y-54732671D01*
X151129253Y-54732671D01*
X151071062Y-54713764D01*
X151054254Y-54698294D01*
X151019085Y-54657478D01*
X151019084Y-54657477D01*
X151014480Y-54652134D01*
X150894175Y-54574156D01*
X150756819Y-54533078D01*
X150673577Y-54532569D01*
X150620507Y-54532245D01*
X150620506Y-54532245D01*
X150613456Y-54532202D01*
X150606679Y-54534139D01*
X150606678Y-54534139D01*
X150482389Y-54569661D01*
X150482387Y-54569662D01*
X150475609Y-54571599D01*
X150354360Y-54648101D01*
X150349693Y-54653385D01*
X150349691Y-54653387D01*
X150264124Y-54750274D01*
X150264122Y-54750276D01*
X150259457Y-54755559D01*
X150256461Y-54761941D01*
X150256460Y-54761942D01*
X150250437Y-54774770D01*
X150198527Y-54885334D01*
X150197442Y-54892303D01*
X150197441Y-54892306D01*
X150184752Y-54973810D01*
X150176471Y-55026994D01*
X148403201Y-55026994D01*
X148402214Y-55020765D01*
X148348615Y-54797509D01*
X148346221Y-54790141D01*
X148258361Y-54578027D01*
X148254842Y-54571121D01*
X148150374Y-54400648D01*
X148140688Y-54392375D01*
X148132502Y-54396959D01*
X147279376Y-55250085D01*
X147273322Y-55261968D01*
X146544026Y-55261968D01*
X146544838Y-55260374D01*
X146544042Y-55255343D01*
X145687064Y-54398365D01*
X145675715Y-54392583D01*
X145668824Y-54398954D01*
X145563318Y-54571121D01*
X145559799Y-54578027D01*
X145471939Y-54790141D01*
X145469545Y-54797509D01*
X145415946Y-55020765D01*
X145414735Y-55028408D01*
X145396722Y-55257296D01*
X145396722Y-55265046D01*
X143600864Y-55265046D01*
X143607736Y-55258245D01*
X143602534Y-55247968D01*
X143285666Y-54931100D01*
X143273783Y-54925046D01*
X143268751Y-54925843D01*
X143214154Y-54980439D01*
X142868511Y-55326083D01*
X142862455Y-55337968D01*
X142285892Y-55337968D01*
X142286705Y-55336373D01*
X142285909Y-55331342D01*
X141935006Y-54980439D01*
X141885669Y-54931103D01*
X141873782Y-54925046D01*
X141868751Y-54925843D01*
X141814154Y-54980439D01*
X141468511Y-55326083D01*
X141462455Y-55337968D01*
X140885892Y-55337968D01*
X140886705Y-55336373D01*
X140885909Y-55331342D01*
X140535006Y-54980439D01*
X140485669Y-54931103D01*
X140473782Y-54925046D01*
X140468751Y-54925842D01*
X140146822Y-55247771D01*
X140141439Y-55258336D01*
X128948139Y-55258336D01*
X128961941Y-55176296D01*
X128962576Y-55172523D01*
X128962592Y-55171238D01*
X128986378Y-55115552D01*
X129038895Y-55084158D01*
X129060947Y-55081671D01*
X132865572Y-55081671D01*
X132869697Y-55081974D01*
X132874422Y-55083596D01*
X132923841Y-55081741D01*
X132927554Y-55081671D01*
X132947028Y-55081671D01*
X132951458Y-55080846D01*
X132956651Y-55080510D01*
X132972682Y-55079908D01*
X132977155Y-55079740D01*
X132986288Y-55079397D01*
X132994682Y-55075791D01*
X132994685Y-55075790D01*
X132996863Y-55074854D01*
X133017814Y-55068488D01*
X133029133Y-55066380D01*
X133051809Y-55052403D01*
X133064676Y-55045719D01*
X133082722Y-55037966D01*
X133082723Y-55037965D01*
X133089143Y-55035207D01*
X133094029Y-55031193D01*
X133098393Y-55026829D01*
X133116448Y-55012558D01*
X133124428Y-55007639D01*
X133126137Y-55005391D01*
X133178532Y-54981843D01*
X133191039Y-54981281D01*
X133204108Y-54981521D01*
X133274525Y-54982812D01*
X133274527Y-54982812D01*
X133281579Y-54982941D01*
X133288382Y-54981086D01*
X133288384Y-54981086D01*
X133382774Y-54955352D01*
X133419897Y-54945231D01*
X133542071Y-54870216D01*
X133562593Y-54847544D01*
X133633548Y-54769153D01*
X133638280Y-54763925D01*
X133700433Y-54635640D01*
X139762074Y-54635640D01*
X139779569Y-54794097D01*
X139782276Y-54805638D01*
X139837063Y-54955352D01*
X139842153Y-54965343D01*
X139852455Y-54973421D01*
X139852569Y-54973425D01*
X139859641Y-54969268D01*
X140180649Y-54648259D01*
X140185892Y-54637968D01*
X140762455Y-54637968D01*
X140763252Y-54643000D01*
X140830922Y-54710671D01*
X141163492Y-55043240D01*
X141175377Y-55049296D01*
X141180409Y-55048499D01*
X141518238Y-54710671D01*
X141580648Y-54648260D01*
X141585892Y-54637968D01*
X142162455Y-54637968D01*
X142163252Y-54643000D01*
X142230922Y-54710671D01*
X142563492Y-55043240D01*
X142575377Y-55049296D01*
X142580409Y-55048499D01*
X142918238Y-54710671D01*
X142980648Y-54648260D01*
X142985892Y-54637969D01*
X143562455Y-54637969D01*
X143563251Y-54643000D01*
X143888888Y-54968637D01*
X143899040Y-54973810D01*
X143904584Y-54968266D01*
X143961252Y-54827298D01*
X143964319Y-54815851D01*
X143987166Y-54655325D01*
X143987658Y-54648862D01*
X143987746Y-54640403D01*
X143987391Y-54633959D01*
X143967910Y-54472971D01*
X143965084Y-54461468D01*
X143908730Y-54312331D01*
X143906010Y-54307129D01*
X143897270Y-54300423D01*
X143896875Y-54300413D01*
X143890222Y-54304371D01*
X143568511Y-54626083D01*
X143562455Y-54637969D01*
X142985892Y-54637969D01*
X142986705Y-54636373D01*
X142985909Y-54631342D01*
X142654715Y-54300148D01*
X142585669Y-54231103D01*
X142573782Y-54225046D01*
X142568751Y-54225842D01*
X142494445Y-54300148D01*
X142168511Y-54626083D01*
X142162455Y-54637968D01*
X141585892Y-54637968D01*
X141586705Y-54636373D01*
X141585909Y-54631342D01*
X141254715Y-54300148D01*
X141185669Y-54231103D01*
X141173782Y-54225046D01*
X141168751Y-54225842D01*
X141094445Y-54300148D01*
X140768511Y-54626083D01*
X140762455Y-54637968D01*
X140185892Y-54637968D01*
X140186705Y-54636373D01*
X140185909Y-54631342D01*
X139860706Y-54306139D01*
X139848819Y-54300082D01*
X139848151Y-54300188D01*
X139845675Y-54302336D01*
X139843864Y-54305713D01*
X139785954Y-54454244D01*
X139783007Y-54465721D01*
X139762199Y-54623782D01*
X139762074Y-54635640D01*
X133700433Y-54635640D01*
X133700790Y-54634904D01*
X133702458Y-54624994D01*
X133723942Y-54497295D01*
X133723942Y-54497291D01*
X133724576Y-54493525D01*
X133724727Y-54481171D01*
X133704403Y-54339253D01*
X133664453Y-54251387D01*
X133647985Y-54215167D01*
X133647984Y-54215166D01*
X133645064Y-54208743D01*
X133614754Y-54173566D01*
X133591092Y-54117142D01*
X133605115Y-54057585D01*
X133616354Y-54042507D01*
X133640056Y-54016322D01*
X133689205Y-53962022D01*
X133739440Y-53858336D01*
X140141439Y-53858336D01*
X140151175Y-53868330D01*
X140178237Y-53923205D01*
X140167876Y-53983507D01*
X140150632Y-54007048D01*
X140141455Y-54016322D01*
X140146594Y-54026343D01*
X140463492Y-54343240D01*
X140475378Y-54349296D01*
X140480409Y-54348500D01*
X140820575Y-54008334D01*
X140880648Y-53948260D01*
X140885892Y-53937969D01*
X141462455Y-53937969D01*
X141463252Y-53943000D01*
X141528585Y-54008334D01*
X141863492Y-54343240D01*
X141875377Y-54349296D01*
X141880409Y-54348499D01*
X142220575Y-54008334D01*
X142280648Y-53948260D01*
X142285892Y-53937969D01*
X142862455Y-53937969D01*
X142863252Y-53943000D01*
X142928585Y-54008334D01*
X143263492Y-54343240D01*
X143275377Y-54349296D01*
X143280409Y-54348499D01*
X143599346Y-54029563D01*
X146040284Y-54029563D01*
X146044868Y-54037749D01*
X146897994Y-54890875D01*
X146909877Y-54896929D01*
X146914908Y-54896133D01*
X147771886Y-54039155D01*
X147777668Y-54027806D01*
X147771297Y-54020915D01*
X147599130Y-53915409D01*
X147592224Y-53911890D01*
X147380110Y-53824030D01*
X147372742Y-53821636D01*
X147149486Y-53768037D01*
X147141843Y-53766826D01*
X146912955Y-53748813D01*
X146905205Y-53748813D01*
X146676317Y-53766826D01*
X146668674Y-53768037D01*
X146445418Y-53821636D01*
X146438050Y-53824030D01*
X146225936Y-53911890D01*
X146219030Y-53915409D01*
X146048557Y-54019877D01*
X146040284Y-54029563D01*
X143599346Y-54029563D01*
X143602376Y-54026533D01*
X143607676Y-54016131D01*
X143598245Y-54006551D01*
X143570897Y-53951818D01*
X143580943Y-53891463D01*
X143599160Y-53866732D01*
X143607736Y-53858245D01*
X143602534Y-53847968D01*
X143285666Y-53531100D01*
X143273783Y-53525046D01*
X143268751Y-53525843D01*
X143220923Y-53573670D01*
X143220922Y-53573671D01*
X142868511Y-53926083D01*
X142862455Y-53937969D01*
X142285892Y-53937969D01*
X142286705Y-53936373D01*
X142285909Y-53931342D01*
X141885668Y-53531101D01*
X141873783Y-53525046D01*
X141868750Y-53525843D01*
X141820922Y-53573671D01*
X141468511Y-53926083D01*
X141462455Y-53937969D01*
X140885892Y-53937969D01*
X140886705Y-53936373D01*
X140885909Y-53931342D01*
X140485668Y-53531101D01*
X140473783Y-53525046D01*
X140468751Y-53525843D01*
X140146822Y-53847771D01*
X140141439Y-53858336D01*
X133739440Y-53858336D01*
X133751715Y-53833001D01*
X133753225Y-53824030D01*
X133774867Y-53695392D01*
X133774867Y-53695388D01*
X133775501Y-53691622D01*
X133775557Y-53687096D01*
X133775605Y-53683094D01*
X133775652Y-53679268D01*
X133755328Y-53537350D01*
X133695989Y-53406840D01*
X133646911Y-53349882D01*
X133623251Y-53293460D01*
X133636865Y-53235640D01*
X139762074Y-53235640D01*
X139779569Y-53394097D01*
X139782276Y-53405638D01*
X139837063Y-53555352D01*
X139842153Y-53565343D01*
X139852455Y-53573421D01*
X139852569Y-53573425D01*
X139859641Y-53569268D01*
X140180649Y-53248259D01*
X140185892Y-53237968D01*
X140762455Y-53237968D01*
X140763252Y-53243000D01*
X140810776Y-53290525D01*
X141163492Y-53643240D01*
X141175378Y-53649296D01*
X141180409Y-53648500D01*
X141580650Y-53248259D01*
X141585893Y-53237968D01*
X142162455Y-53237968D01*
X142163252Y-53243000D01*
X142210776Y-53290525D01*
X142563492Y-53643240D01*
X142575378Y-53649296D01*
X142580409Y-53648500D01*
X142980650Y-53248259D01*
X142985892Y-53237969D01*
X143562455Y-53237969D01*
X143563251Y-53243000D01*
X143888888Y-53568637D01*
X143899040Y-53573810D01*
X143904584Y-53568266D01*
X143961252Y-53427298D01*
X143964319Y-53415851D01*
X143987166Y-53255325D01*
X143987658Y-53248862D01*
X143987746Y-53240403D01*
X143987391Y-53233959D01*
X143967910Y-53072971D01*
X143965084Y-53061468D01*
X143908730Y-52912331D01*
X143906010Y-52907129D01*
X143897270Y-52900423D01*
X143896875Y-52900413D01*
X143890222Y-52904371D01*
X143568511Y-53226083D01*
X143562455Y-53237969D01*
X142985892Y-53237969D01*
X142986705Y-53236374D01*
X142985908Y-53231342D01*
X142637947Y-52883380D01*
X142585669Y-52831103D01*
X142573782Y-52825046D01*
X142568751Y-52825843D01*
X142511213Y-52883380D01*
X142168511Y-53226083D01*
X142162455Y-53237968D01*
X141585893Y-53237968D01*
X141586705Y-53236374D01*
X141585908Y-53231342D01*
X141237947Y-52883380D01*
X141185669Y-52831103D01*
X141173782Y-52825046D01*
X141168751Y-52825843D01*
X141111213Y-52883380D01*
X140768511Y-53226083D01*
X140762455Y-53237968D01*
X140185892Y-53237968D01*
X140186705Y-53236373D01*
X140185909Y-53231342D01*
X139860706Y-52906139D01*
X139848819Y-52900082D01*
X139848151Y-52900188D01*
X139845675Y-52902336D01*
X139843864Y-52905713D01*
X139785954Y-53054244D01*
X139783007Y-53065721D01*
X139762199Y-53223782D01*
X139762074Y-53235640D01*
X133636865Y-53235640D01*
X133637274Y-53233903D01*
X133648513Y-53218825D01*
X133652494Y-53214427D01*
X133652494Y-53214426D01*
X133657226Y-53209199D01*
X133719736Y-53080178D01*
X133722169Y-53065721D01*
X133742888Y-52942569D01*
X133742888Y-52942565D01*
X133743522Y-52938799D01*
X133743673Y-52926445D01*
X133740587Y-52904897D01*
X133751054Y-52844615D01*
X133768583Y-52820859D01*
X133973121Y-52616321D01*
X140141454Y-52616321D01*
X140146594Y-52626343D01*
X140463492Y-52943240D01*
X140475378Y-52949296D01*
X140480409Y-52948500D01*
X140814915Y-52613994D01*
X140880648Y-52548260D01*
X140885892Y-52537969D01*
X141462455Y-52537969D01*
X141463251Y-52543000D01*
X141534245Y-52613994D01*
X141863492Y-52943240D01*
X141875377Y-52949296D01*
X141880409Y-52948499D01*
X142214915Y-52613994D01*
X142280648Y-52548260D01*
X142285892Y-52537969D01*
X142862455Y-52537969D01*
X142863251Y-52543000D01*
X142934245Y-52613994D01*
X143263492Y-52943240D01*
X143275377Y-52949296D01*
X143280409Y-52948499D01*
X143602376Y-52626533D01*
X143607676Y-52616132D01*
X143605572Y-52613994D01*
X149922471Y-52613994D01*
X149941060Y-52756150D01*
X149943901Y-52762606D01*
X149943901Y-52762607D01*
X149990893Y-52869403D01*
X149998800Y-52887374D01*
X150032333Y-52927266D01*
X150086511Y-52991720D01*
X150086514Y-52991722D01*
X150091050Y-52997119D01*
X150210393Y-53076561D01*
X150311000Y-53107992D01*
X150340505Y-53117210D01*
X150340506Y-53117210D01*
X150347237Y-53119313D01*
X150420606Y-53120658D01*
X150465204Y-53121476D01*
X150523038Y-53141447D01*
X150533393Y-53150455D01*
X150812760Y-53429822D01*
X150815460Y-53432951D01*
X150817655Y-53437440D01*
X150824358Y-53443658D01*
X150853902Y-53471064D01*
X150856578Y-53473640D01*
X150870357Y-53487419D01*
X150874067Y-53489964D01*
X150877980Y-53493400D01*
X150899726Y-53513572D01*
X150908212Y-53516958D01*
X150908214Y-53516959D01*
X150910417Y-53517838D01*
X150929728Y-53528149D01*
X150931687Y-53529493D01*
X150931690Y-53529494D01*
X150939226Y-53534664D01*
X150948118Y-53536774D01*
X150948120Y-53536775D01*
X150965146Y-53540815D01*
X150978965Y-53545185D01*
X151003702Y-53555054D01*
X151009995Y-53555671D01*
X151016165Y-53555671D01*
X151039020Y-53558345D01*
X151044942Y-53559751D01*
X151097193Y-53591584D01*
X151120364Y-53644181D01*
X151126803Y-53697393D01*
X151179048Y-53829350D01*
X151183128Y-53834725D01*
X151183129Y-53834727D01*
X151260283Y-53936373D01*
X151264855Y-53942396D01*
X151270238Y-53946482D01*
X151372524Y-54024122D01*
X151372526Y-54024123D01*
X151377901Y-54028203D01*
X151509858Y-54080448D01*
X151594336Y-54090671D01*
X152309824Y-54090671D01*
X152394302Y-54080448D01*
X152526259Y-54028203D01*
X152531634Y-54024123D01*
X152531636Y-54024122D01*
X152633922Y-53946482D01*
X152639305Y-53942396D01*
X152643877Y-53936373D01*
X152721031Y-53834727D01*
X152721032Y-53834725D01*
X152725112Y-53829350D01*
X152777357Y-53697393D01*
X152787580Y-53612915D01*
X152787580Y-52897427D01*
X152777357Y-52812949D01*
X152725112Y-52680992D01*
X152709660Y-52660634D01*
X152643391Y-52573329D01*
X152639305Y-52567946D01*
X152599812Y-52537969D01*
X152531636Y-52486220D01*
X152531634Y-52486219D01*
X152526259Y-52482139D01*
X152394302Y-52429894D01*
X152309824Y-52419671D01*
X151594336Y-52419671D01*
X151509858Y-52429894D01*
X151377901Y-52482139D01*
X151372526Y-52486219D01*
X151372524Y-52486220D01*
X151304348Y-52537969D01*
X151264855Y-52567946D01*
X151260769Y-52573329D01*
X151194501Y-52660634D01*
X151179048Y-52680992D01*
X151176564Y-52687266D01*
X151159318Y-52730825D01*
X151120317Y-52777969D01*
X151061054Y-52793186D01*
X151004165Y-52770662D01*
X150997266Y-52764385D01*
X150959851Y-52726970D01*
X150932074Y-52672453D01*
X150932227Y-52640544D01*
X150933576Y-52632525D01*
X150933727Y-52620171D01*
X150913403Y-52478253D01*
X150889805Y-52426352D01*
X150856985Y-52354167D01*
X150856984Y-52354166D01*
X150854064Y-52347743D01*
X150769236Y-52249296D01*
X150765085Y-52244478D01*
X150765084Y-52244477D01*
X150760480Y-52239134D01*
X150640175Y-52161156D01*
X150502819Y-52120078D01*
X150419577Y-52119569D01*
X150366507Y-52119245D01*
X150366506Y-52119245D01*
X150359456Y-52119202D01*
X150352679Y-52121139D01*
X150352678Y-52121139D01*
X150228389Y-52156661D01*
X150228387Y-52156662D01*
X150221609Y-52158599D01*
X150100360Y-52235101D01*
X150095693Y-52240385D01*
X150095691Y-52240387D01*
X150010124Y-52337274D01*
X150010122Y-52337276D01*
X150005457Y-52342559D01*
X150002461Y-52348941D01*
X150002460Y-52348942D01*
X150000007Y-52354167D01*
X149944527Y-52472334D01*
X149943442Y-52479303D01*
X149943441Y-52479306D01*
X149929338Y-52569887D01*
X149922471Y-52613994D01*
X143605572Y-52613994D01*
X143599960Y-52608293D01*
X143535442Y-52574134D01*
X143524378Y-52569887D01*
X143369760Y-52531050D01*
X143362348Y-52530113D01*
X143306988Y-52504058D01*
X143277514Y-52450439D01*
X143276479Y-52443787D01*
X143267910Y-52372971D01*
X143265085Y-52361470D01*
X143208730Y-52212331D01*
X143206010Y-52207129D01*
X143197270Y-52200423D01*
X143196875Y-52200413D01*
X143190222Y-52204371D01*
X142868511Y-52526083D01*
X142862455Y-52537969D01*
X142285892Y-52537969D01*
X142286705Y-52536373D01*
X142285909Y-52531342D01*
X141960706Y-52206139D01*
X141948819Y-52200082D01*
X141948151Y-52200188D01*
X141938239Y-52208789D01*
X141881897Y-52232648D01*
X141822292Y-52218833D01*
X141813088Y-52212560D01*
X141797270Y-52200423D01*
X141796875Y-52200413D01*
X141790222Y-52204371D01*
X141468511Y-52526083D01*
X141462455Y-52537969D01*
X140885892Y-52537969D01*
X140886705Y-52536373D01*
X140885909Y-52531342D01*
X140560706Y-52206139D01*
X140548819Y-52200082D01*
X140548151Y-52200188D01*
X140545675Y-52202336D01*
X140543864Y-52205713D01*
X140485954Y-52354244D01*
X140483007Y-52365721D01*
X140472599Y-52444782D01*
X140446258Y-52500007D01*
X140392488Y-52529202D01*
X140387187Y-52529999D01*
X140231780Y-52567308D01*
X140220676Y-52571437D01*
X140149533Y-52608158D01*
X140141454Y-52616321D01*
X133973121Y-52616321D01*
X134663731Y-51925711D01*
X134666860Y-51923011D01*
X134671349Y-51920816D01*
X134675519Y-51916321D01*
X140841454Y-51916321D01*
X140846594Y-51926343D01*
X141163492Y-52243240D01*
X141175378Y-52249296D01*
X141180409Y-52248500D01*
X141502376Y-51926533D01*
X141507580Y-51916321D01*
X142241454Y-51916321D01*
X142246594Y-51926343D01*
X142563492Y-52243240D01*
X142575378Y-52249296D01*
X142580409Y-52248500D01*
X142902376Y-51926533D01*
X142907676Y-51916132D01*
X142899960Y-51908293D01*
X142835442Y-51874134D01*
X142824378Y-51869887D01*
X142669758Y-51831049D01*
X142658001Y-51829564D01*
X142498573Y-51828729D01*
X142486805Y-51830091D01*
X142331780Y-51867308D01*
X142320676Y-51871437D01*
X142249533Y-51908158D01*
X142241454Y-51916321D01*
X141507580Y-51916321D01*
X141507676Y-51916132D01*
X141499960Y-51908293D01*
X141435442Y-51874134D01*
X141424378Y-51869887D01*
X141269758Y-51831049D01*
X141258001Y-51829564D01*
X141098573Y-51828729D01*
X141086805Y-51830091D01*
X140931780Y-51867308D01*
X140920676Y-51871437D01*
X140849533Y-51908158D01*
X140841454Y-51916321D01*
X134675519Y-51916321D01*
X134704973Y-51884569D01*
X134707549Y-51881893D01*
X134721328Y-51868114D01*
X134723873Y-51864404D01*
X134727309Y-51860491D01*
X134741267Y-51845444D01*
X134747481Y-51838745D01*
X134750934Y-51830091D01*
X134751747Y-51828054D01*
X134762058Y-51808743D01*
X134763402Y-51806784D01*
X134763403Y-51806781D01*
X134768573Y-51799245D01*
X134774724Y-51773325D01*
X134779094Y-51759506D01*
X134788963Y-51734769D01*
X134789580Y-51728476D01*
X134789580Y-51722306D01*
X134792255Y-51699447D01*
X134792310Y-51699217D01*
X134794420Y-51690325D01*
X134790484Y-51661403D01*
X134789580Y-51648054D01*
X134789580Y-51364679D01*
X134789883Y-51360554D01*
X134791505Y-51355829D01*
X134789650Y-51306410D01*
X134789580Y-51302697D01*
X134789580Y-51283223D01*
X134788755Y-51278793D01*
X134788418Y-51273588D01*
X134787649Y-51253096D01*
X134787306Y-51243963D01*
X134783700Y-51235569D01*
X134783699Y-51235566D01*
X134782763Y-51233388D01*
X134776397Y-51212437D01*
X134774289Y-51201118D01*
X134760312Y-51178442D01*
X134753628Y-51165575D01*
X134745875Y-51147529D01*
X134745874Y-51147528D01*
X134743116Y-51141108D01*
X134739102Y-51136222D01*
X134734738Y-51131858D01*
X134720467Y-51113803D01*
X134720344Y-51113604D01*
X134715548Y-51105823D01*
X134692311Y-51088153D01*
X134682241Y-51079361D01*
X133753054Y-50150174D01*
X133725277Y-50095657D01*
X133734848Y-50035225D01*
X133778113Y-49991960D01*
X133823058Y-49981170D01*
X136053100Y-49981170D01*
X136111291Y-50000077D01*
X136123104Y-50010166D01*
X137187949Y-51075011D01*
X137215726Y-51129528D01*
X137215767Y-51160243D01*
X137215078Y-51164671D01*
X137213471Y-51174994D01*
X137232060Y-51317150D01*
X137234901Y-51323606D01*
X137234901Y-51323607D01*
X137284198Y-51435642D01*
X137289800Y-51448374D01*
X137316436Y-51480061D01*
X137377511Y-51552720D01*
X137377514Y-51552722D01*
X137382050Y-51558119D01*
X137387921Y-51562027D01*
X137387922Y-51562028D01*
X137400223Y-51570216D01*
X137501393Y-51637561D01*
X137591370Y-51665671D01*
X137631505Y-51678210D01*
X137631506Y-51678210D01*
X137638237Y-51680313D01*
X137709908Y-51681627D01*
X137774525Y-51682812D01*
X137774527Y-51682812D01*
X137781579Y-51682941D01*
X137788382Y-51681086D01*
X137788384Y-51681086D01*
X137880613Y-51655941D01*
X137919897Y-51645231D01*
X138042071Y-51570216D01*
X138049483Y-51562028D01*
X138133548Y-51469153D01*
X138138280Y-51463925D01*
X138179429Y-51378994D01*
X138197714Y-51341253D01*
X138200790Y-51334904D01*
X138204955Y-51310153D01*
X138223942Y-51197295D01*
X138223942Y-51197291D01*
X138224576Y-51193525D01*
X138224727Y-51181171D01*
X138204403Y-51039253D01*
X138145064Y-50908743D01*
X138051480Y-50800134D01*
X137931175Y-50722156D01*
X137793819Y-50681078D01*
X137722112Y-50680640D01*
X137683690Y-50680405D01*
X137625616Y-50661143D01*
X137614291Y-50651411D01*
X136468899Y-49506019D01*
X136466199Y-49502890D01*
X136464004Y-49498401D01*
X136427757Y-49464777D01*
X136425081Y-49462201D01*
X136411302Y-49448422D01*
X136407592Y-49445877D01*
X136403679Y-49442441D01*
X136388634Y-49428485D01*
X136381933Y-49422269D01*
X136371243Y-49418004D01*
X136351927Y-49407690D01*
X136349972Y-49406349D01*
X136349969Y-49406348D01*
X136342433Y-49401178D01*
X136316520Y-49395029D01*
X136302695Y-49390656D01*
X136284447Y-49383376D01*
X136284445Y-49383376D01*
X136277957Y-49380787D01*
X136271664Y-49380170D01*
X136265495Y-49380170D01*
X136242636Y-49377495D01*
X136242406Y-49377440D01*
X136242404Y-49377440D01*
X136233513Y-49375330D01*
X136204592Y-49379266D01*
X136191242Y-49380170D01*
X129359058Y-49380170D01*
X129300867Y-49361263D01*
X129289054Y-49351174D01*
X128492874Y-48554994D01*
X136173471Y-48554994D01*
X136192060Y-48697150D01*
X136249800Y-48828374D01*
X136291162Y-48877580D01*
X136337511Y-48932720D01*
X136337514Y-48932722D01*
X136342050Y-48938119D01*
X136347921Y-48942027D01*
X136347922Y-48942028D01*
X136379624Y-48963131D01*
X136461393Y-49017561D01*
X136562000Y-49048992D01*
X136591505Y-49058210D01*
X136591506Y-49058210D01*
X136598237Y-49060313D01*
X136669908Y-49061627D01*
X136734525Y-49062812D01*
X136734527Y-49062812D01*
X136741579Y-49062941D01*
X136748382Y-49061086D01*
X136748384Y-49061086D01*
X136823583Y-49040584D01*
X136879897Y-49025231D01*
X137002071Y-48950216D01*
X137003077Y-48951854D01*
X137051201Y-48932703D01*
X137110490Y-48947817D01*
X137133368Y-48967792D01*
X137137508Y-48972716D01*
X137142050Y-48978119D01*
X137147921Y-48982027D01*
X137147922Y-48982028D01*
X137160223Y-48990216D01*
X137261393Y-49057561D01*
X137362000Y-49088992D01*
X137391505Y-49098210D01*
X137391506Y-49098210D01*
X137398237Y-49100313D01*
X137469908Y-49101627D01*
X137534525Y-49102812D01*
X137534527Y-49102812D01*
X137541579Y-49102941D01*
X137548382Y-49101086D01*
X137548384Y-49101086D01*
X137623583Y-49080584D01*
X137679897Y-49065231D01*
X137802071Y-48990216D01*
X137809483Y-48982028D01*
X137893548Y-48889153D01*
X137898280Y-48883925D01*
X137960790Y-48754904D01*
X137969421Y-48703607D01*
X137983942Y-48617295D01*
X137983942Y-48617291D01*
X137984576Y-48613525D01*
X137984727Y-48601171D01*
X137964403Y-48459253D01*
X137905064Y-48328743D01*
X137845923Y-48260107D01*
X137816087Y-48225480D01*
X137816085Y-48225478D01*
X137811480Y-48220134D01*
X137811592Y-48220037D01*
X137782078Y-48170720D01*
X137779580Y-48148620D01*
X137779580Y-46970691D01*
X137798487Y-46912500D01*
X137805182Y-46904255D01*
X137888548Y-46812153D01*
X137893280Y-46806925D01*
X137955790Y-46677904D01*
X137960973Y-46647101D01*
X137978942Y-46540295D01*
X137978942Y-46540291D01*
X137979576Y-46536525D01*
X137979636Y-46531664D01*
X137979680Y-46527997D01*
X137979727Y-46524171D01*
X137959403Y-46382253D01*
X137900064Y-46251743D01*
X137821649Y-46160738D01*
X137811085Y-46148478D01*
X137811084Y-46148477D01*
X137806480Y-46143134D01*
X137686175Y-46065156D01*
X137548819Y-46024078D01*
X137465577Y-46023569D01*
X137412507Y-46023245D01*
X137412506Y-46023245D01*
X137405456Y-46023202D01*
X137398679Y-46025139D01*
X137398678Y-46025139D01*
X137274389Y-46060661D01*
X137274387Y-46060662D01*
X137267609Y-46062599D01*
X137248847Y-46074437D01*
X137154312Y-46134084D01*
X137146360Y-46139101D01*
X137139963Y-46146344D01*
X137138100Y-46147444D01*
X137136321Y-46148958D01*
X137136058Y-46148649D01*
X137087274Y-46177446D01*
X137026365Y-46171637D01*
X137011911Y-46163887D01*
X136905364Y-46094827D01*
X136898775Y-46090556D01*
X136761419Y-46049478D01*
X136678177Y-46048969D01*
X136625107Y-46048645D01*
X136625106Y-46048645D01*
X136618056Y-46048602D01*
X136611279Y-46050539D01*
X136611278Y-46050539D01*
X136486989Y-46086061D01*
X136486987Y-46086062D01*
X136480209Y-46087999D01*
X136358960Y-46164501D01*
X136354293Y-46169785D01*
X136354291Y-46169787D01*
X136268724Y-46266674D01*
X136268722Y-46266676D01*
X136264057Y-46271959D01*
X136203127Y-46401734D01*
X136202042Y-46408703D01*
X136202041Y-46408706D01*
X136190324Y-46483966D01*
X136181071Y-46543394D01*
X136181986Y-46550391D01*
X136181986Y-46550392D01*
X136188680Y-46601580D01*
X136199660Y-46685550D01*
X136202501Y-46692006D01*
X136202501Y-46692007D01*
X136242891Y-46783799D01*
X136257400Y-46816774D01*
X136303525Y-46871646D01*
X136345111Y-46921120D01*
X136345114Y-46921122D01*
X136349650Y-46926519D01*
X136362995Y-46935402D01*
X136367439Y-46938360D01*
X136405401Y-46986344D01*
X136411580Y-47020771D01*
X136411580Y-48083510D01*
X136392673Y-48141701D01*
X136365409Y-48167236D01*
X136357326Y-48172336D01*
X136357323Y-48172339D01*
X136351360Y-48176101D01*
X136346693Y-48181385D01*
X136346691Y-48181387D01*
X136261124Y-48278274D01*
X136261122Y-48278276D01*
X136256457Y-48283559D01*
X136195527Y-48413334D01*
X136194442Y-48420303D01*
X136194441Y-48420306D01*
X136179760Y-48514601D01*
X136173471Y-48554994D01*
X128492874Y-48554994D01*
X128282788Y-48344908D01*
X128255011Y-48290391D01*
X128255164Y-48258482D01*
X128276776Y-48130025D01*
X128276927Y-48117671D01*
X128256603Y-47975753D01*
X128197264Y-47845243D01*
X128103680Y-47736634D01*
X127983375Y-47658656D01*
X127846019Y-47617578D01*
X127762777Y-47617069D01*
X127709707Y-47616745D01*
X127709706Y-47616745D01*
X127702656Y-47616702D01*
X127695879Y-47618639D01*
X127695878Y-47618639D01*
X127571589Y-47654161D01*
X127571587Y-47654162D01*
X127564809Y-47656099D01*
X127443560Y-47732601D01*
X127438893Y-47737885D01*
X127438891Y-47737887D01*
X127353324Y-47834774D01*
X127353322Y-47834776D01*
X127348657Y-47840059D01*
X127287727Y-47969834D01*
X127265671Y-48111494D01*
X127266586Y-48118491D01*
X127266586Y-48118492D01*
X127274814Y-48181411D01*
X127284260Y-48253650D01*
X127287101Y-48260106D01*
X127287101Y-48260107D01*
X127324415Y-48344908D01*
X127342000Y-48384874D01*
X127365923Y-48413334D01*
X127429711Y-48489220D01*
X127429714Y-48489222D01*
X127434250Y-48494619D01*
X127553593Y-48574061D01*
X127688000Y-48616052D01*
X127728481Y-48640543D01*
X128698605Y-49610667D01*
X128726382Y-49665184D01*
X128716811Y-49725616D01*
X128673546Y-49768881D01*
X128628601Y-49779671D01*
X126844559Y-49779671D01*
X126786368Y-49760764D01*
X126774555Y-49750675D01*
X124277233Y-47253353D01*
X124249456Y-47198836D01*
X124259027Y-47138404D01*
X124302292Y-47095139D01*
X124347237Y-47084349D01*
X125547017Y-47084349D01*
X125605208Y-47103256D01*
X125641172Y-47152756D01*
X125644838Y-47198578D01*
X125640071Y-47229194D01*
X125640986Y-47236191D01*
X125640986Y-47236192D01*
X125642494Y-47247725D01*
X125658660Y-47371350D01*
X125661501Y-47377806D01*
X125661501Y-47377807D01*
X125708515Y-47484653D01*
X125716400Y-47502574D01*
X125729472Y-47518125D01*
X125804111Y-47606920D01*
X125804114Y-47606922D01*
X125808650Y-47612319D01*
X125814521Y-47616227D01*
X125814522Y-47616228D01*
X125819588Y-47619600D01*
X125927993Y-47691761D01*
X126028600Y-47723192D01*
X126058105Y-47732410D01*
X126058106Y-47732410D01*
X126064837Y-47734513D01*
X126136508Y-47735827D01*
X126201125Y-47737012D01*
X126201127Y-47737012D01*
X126208179Y-47737141D01*
X126214982Y-47735286D01*
X126214984Y-47735286D01*
X126290183Y-47714784D01*
X126346497Y-47699431D01*
X126468671Y-47624416D01*
X126474861Y-47617578D01*
X126560148Y-47523353D01*
X126564880Y-47518125D01*
X126627390Y-47389104D01*
X126631555Y-47364353D01*
X126650542Y-47251495D01*
X126650542Y-47251491D01*
X126651176Y-47247725D01*
X126651327Y-47235371D01*
X126631003Y-47093453D01*
X126571664Y-46962943D01*
X126478080Y-46854334D01*
X126464334Y-46845424D01*
X126432101Y-46805727D01*
X126430889Y-46806474D01*
X126416912Y-46783799D01*
X126410228Y-46770931D01*
X126402475Y-46752885D01*
X126402474Y-46752884D01*
X126399716Y-46746464D01*
X126395702Y-46741578D01*
X126391338Y-46737214D01*
X126377067Y-46719159D01*
X126376944Y-46718960D01*
X126372148Y-46711179D01*
X126348911Y-46693509D01*
X126338841Y-46684717D01*
X126263322Y-46609198D01*
X126260622Y-46606069D01*
X126258427Y-46601580D01*
X126222180Y-46567956D01*
X126219504Y-46565380D01*
X126205725Y-46551601D01*
X126202015Y-46549056D01*
X126198102Y-46545620D01*
X126183057Y-46531664D01*
X126176356Y-46525448D01*
X126165666Y-46521183D01*
X126146350Y-46510869D01*
X126144395Y-46509528D01*
X126144392Y-46509527D01*
X126136856Y-46504357D01*
X126110943Y-46498208D01*
X126097118Y-46493835D01*
X126078870Y-46486555D01*
X126078868Y-46486555D01*
X126072380Y-46483966D01*
X126066087Y-46483349D01*
X126059918Y-46483349D01*
X126037059Y-46480674D01*
X126036829Y-46480619D01*
X126036827Y-46480619D01*
X126027936Y-46478509D01*
X125999015Y-46482445D01*
X125985665Y-46483349D01*
X124396059Y-46483349D01*
X124337868Y-46464442D01*
X124326055Y-46454353D01*
X123960576Y-46088874D01*
X123932799Y-46034357D01*
X123931580Y-46018870D01*
X123931580Y-45381200D01*
X124423146Y-45381200D01*
X124441020Y-45539843D01*
X124493747Y-45690532D01*
X124578683Y-45825710D01*
X124691568Y-45938600D01*
X124696279Y-45941560D01*
X124822035Y-46020583D01*
X124822038Y-46020584D01*
X124826743Y-46023541D01*
X124903892Y-46050539D01*
X124956629Y-46068994D01*
X124977429Y-46076273D01*
X125123346Y-46092720D01*
X125124867Y-46092981D01*
X125129888Y-46093559D01*
X125135354Y-46094826D01*
X125136072Y-46094827D01*
X125147881Y-46092134D01*
X125169848Y-46089656D01*
X131859818Y-46086686D01*
X131882218Y-46089244D01*
X131893357Y-46091826D01*
X131894075Y-46091827D01*
X131899518Y-46090586D01*
X131901759Y-46090335D01*
X131911493Y-46088807D01*
X132009367Y-46080246D01*
X132060633Y-46075762D01*
X132064806Y-46074644D01*
X132064811Y-46074643D01*
X132217956Y-46033610D01*
X132217960Y-46033609D01*
X132222131Y-46032491D01*
X132373661Y-45961833D01*
X132510619Y-45865935D01*
X132628842Y-45747710D01*
X132668878Y-45690532D01*
X132722262Y-45614289D01*
X132722263Y-45614287D01*
X132724739Y-45610751D01*
X132726563Y-45606839D01*
X132726566Y-45606834D01*
X132793566Y-45463142D01*
X132795395Y-45459220D01*
X132796515Y-45455041D01*
X132837545Y-45301900D01*
X132837546Y-45301896D01*
X132838664Y-45297722D01*
X132839040Y-45293423D01*
X132839041Y-45293417D01*
X132851611Y-45149679D01*
X132853200Y-45139673D01*
X132853467Y-45137351D01*
X132854735Y-45131881D01*
X132854736Y-45131163D01*
X132852079Y-45119518D01*
X132849601Y-45097445D01*
X132851559Y-41860601D01*
X132852559Y-40207482D01*
X132855117Y-40185185D01*
X132856468Y-40179357D01*
X132856469Y-40179352D01*
X132857735Y-40173889D01*
X132857736Y-40173171D01*
X132856491Y-40167714D01*
X132855923Y-40162635D01*
X132855786Y-40161828D01*
X132839811Y-40020047D01*
X132839809Y-40020039D01*
X132839187Y-40014517D01*
X132798707Y-39898834D01*
X132788293Y-39869071D01*
X132788292Y-39869069D01*
X132786455Y-39863819D01*
X132775686Y-39846679D01*
X132704471Y-39733341D01*
X132701513Y-39728633D01*
X132588618Y-39615738D01*
X132518862Y-39571908D01*
X132458142Y-39533755D01*
X132458139Y-39533754D01*
X132453432Y-39530796D01*
X132448182Y-39528959D01*
X132448180Y-39528958D01*
X132410772Y-39515869D01*
X132302734Y-39478064D01*
X132144080Y-39460188D01*
X131985426Y-39478064D01*
X131877388Y-39515869D01*
X131839980Y-39528958D01*
X131839978Y-39528959D01*
X131834728Y-39530796D01*
X131830021Y-39533754D01*
X131830018Y-39533755D01*
X131769298Y-39571908D01*
X131699542Y-39615738D01*
X131586647Y-39728633D01*
X131583689Y-39733341D01*
X131512475Y-39846679D01*
X131501705Y-39863819D01*
X131499868Y-39869069D01*
X131499867Y-39869071D01*
X131483214Y-39916662D01*
X131446148Y-39965343D01*
X131387548Y-39982939D01*
X131329796Y-39962730D01*
X131314771Y-39948587D01*
X131310098Y-39943163D01*
X131251480Y-39875134D01*
X131131175Y-39797156D01*
X130993819Y-39756078D01*
X130910577Y-39755569D01*
X130857507Y-39755245D01*
X130857506Y-39755245D01*
X130850456Y-39755202D01*
X130843679Y-39757139D01*
X130843678Y-39757139D01*
X130719389Y-39792661D01*
X130719387Y-39792662D01*
X130712609Y-39794599D01*
X130591360Y-39871101D01*
X130586693Y-39876385D01*
X130586691Y-39876387D01*
X130501124Y-39973274D01*
X130501122Y-39973276D01*
X130496457Y-39978559D01*
X130493461Y-39984941D01*
X130493460Y-39984942D01*
X130476978Y-40020047D01*
X130435527Y-40108334D01*
X130434442Y-40115303D01*
X130434441Y-40115306D01*
X130420668Y-40203767D01*
X130413471Y-40249994D01*
X130414386Y-40256991D01*
X130414386Y-40256993D01*
X130417187Y-40278413D01*
X130405985Y-40338564D01*
X130389027Y-40361253D01*
X129548605Y-41201675D01*
X129494088Y-41229452D01*
X129478601Y-41230671D01*
X128291253Y-41230671D01*
X128233062Y-41211764D01*
X128216254Y-41196294D01*
X128181085Y-41155478D01*
X128181084Y-41155477D01*
X128176480Y-41150134D01*
X128056175Y-41072156D01*
X127918819Y-41031078D01*
X127835577Y-41030569D01*
X127782507Y-41030245D01*
X127782506Y-41030245D01*
X127775456Y-41030202D01*
X127768679Y-41032139D01*
X127768678Y-41032139D01*
X127644389Y-41067661D01*
X127644387Y-41067662D01*
X127637609Y-41069599D01*
X127516360Y-41146101D01*
X127511693Y-41151385D01*
X127511691Y-41151387D01*
X127426124Y-41248274D01*
X127426122Y-41248276D01*
X127421457Y-41253559D01*
X127360527Y-41383334D01*
X127359442Y-41390303D01*
X127359441Y-41390306D01*
X127349509Y-41454100D01*
X127338471Y-41524994D01*
X127339386Y-41531991D01*
X127339386Y-41531992D01*
X127355036Y-41651671D01*
X127357060Y-41667150D01*
X127359901Y-41673606D01*
X127359901Y-41673607D01*
X127396256Y-41756229D01*
X127414800Y-41798374D01*
X127419337Y-41803772D01*
X127419338Y-41803773D01*
X127419913Y-41804457D01*
X127485252Y-41882187D01*
X127508221Y-41938895D01*
X127493471Y-41998275D01*
X127483678Y-42011414D01*
X127446457Y-42053559D01*
X127385527Y-42183334D01*
X127384442Y-42190303D01*
X127384441Y-42190306D01*
X127380048Y-42218525D01*
X127363471Y-42324994D01*
X127364386Y-42331991D01*
X127364386Y-42331992D01*
X127364799Y-42335153D01*
X127382060Y-42467150D01*
X127384901Y-42473606D01*
X127384901Y-42473607D01*
X127434808Y-42587028D01*
X127439800Y-42598374D01*
X127452872Y-42613925D01*
X127527511Y-42702720D01*
X127527514Y-42702722D01*
X127532050Y-42708119D01*
X127537921Y-42712027D01*
X127537922Y-42712028D01*
X127550223Y-42720216D01*
X127651393Y-42787561D01*
X127752000Y-42818992D01*
X127781505Y-42828210D01*
X127781506Y-42828210D01*
X127788237Y-42830313D01*
X127859908Y-42831627D01*
X127924525Y-42832812D01*
X127924527Y-42832812D01*
X127931579Y-42832941D01*
X127938382Y-42831086D01*
X127938384Y-42831086D01*
X128013583Y-42810584D01*
X128069897Y-42795231D01*
X128192071Y-42720216D01*
X128199483Y-42712028D01*
X128283548Y-42619153D01*
X128288280Y-42613925D01*
X128350790Y-42484904D01*
X128356000Y-42453941D01*
X128362964Y-42412542D01*
X128374576Y-42343525D01*
X128374592Y-42342240D01*
X128398376Y-42286554D01*
X128450893Y-42255159D01*
X128472947Y-42252671D01*
X130295677Y-42252671D01*
X130353868Y-42271578D01*
X130371460Y-42287969D01*
X130401511Y-42323720D01*
X130401514Y-42323722D01*
X130406050Y-42329119D01*
X130411921Y-42333027D01*
X130411922Y-42333028D01*
X130429769Y-42344908D01*
X130525393Y-42408561D01*
X130626000Y-42439992D01*
X130655505Y-42449210D01*
X130655506Y-42449210D01*
X130662237Y-42451313D01*
X130733908Y-42452627D01*
X130798525Y-42453812D01*
X130798527Y-42453812D01*
X130805579Y-42453941D01*
X130812382Y-42452086D01*
X130812384Y-42452086D01*
X130887583Y-42431584D01*
X130943897Y-42416231D01*
X131066071Y-42341216D01*
X131073483Y-42333028D01*
X131157548Y-42240153D01*
X131162280Y-42234925D01*
X131224790Y-42105904D01*
X131234485Y-42048278D01*
X131235611Y-42041587D01*
X131263911Y-41987340D01*
X131318692Y-41960088D01*
X131379029Y-41970239D01*
X131421876Y-42013917D01*
X131432239Y-42058187D01*
X131430865Y-42832941D01*
X131428640Y-44088203D01*
X131426121Y-44110217D01*
X131425922Y-44111080D01*
X131425922Y-44111082D01*
X131423424Y-44121945D01*
X131425884Y-44132818D01*
X131425870Y-44140971D01*
X131425247Y-44151882D01*
X131415926Y-44234602D01*
X131410993Y-44256216D01*
X131377350Y-44352358D01*
X131367731Y-44372331D01*
X131313540Y-44458574D01*
X131299723Y-44475901D01*
X131227685Y-44547936D01*
X131210364Y-44561748D01*
X131124111Y-44615941D01*
X131104143Y-44625557D01*
X131007998Y-44659198D01*
X130986389Y-44664129D01*
X130956334Y-44667515D01*
X130902871Y-44673537D01*
X130891616Y-44674159D01*
X130885310Y-44674148D01*
X130874444Y-44671649D01*
X130862546Y-44674341D01*
X130840637Y-44676780D01*
X125170394Y-44672696D01*
X125148115Y-44670140D01*
X125142256Y-44668782D01*
X125142249Y-44668781D01*
X125136790Y-44667516D01*
X125136072Y-44667515D01*
X125130621Y-44668759D01*
X125126047Y-44669271D01*
X125124220Y-44669582D01*
X125060359Y-44676780D01*
X124982955Y-44685504D01*
X124982954Y-44685504D01*
X124977429Y-44686127D01*
X124826743Y-44738859D01*
X124822038Y-44741816D01*
X124822035Y-44741817D01*
X124748730Y-44787881D01*
X124691568Y-44823800D01*
X124578683Y-44936690D01*
X124493747Y-45071868D01*
X124441020Y-45222557D01*
X124423146Y-45381200D01*
X123931580Y-45381200D01*
X123931580Y-42117650D01*
X123950487Y-42059459D01*
X123960576Y-42047646D01*
X124651055Y-41357167D01*
X124705572Y-41329390D01*
X124721059Y-41328171D01*
X125338027Y-41328171D01*
X125342152Y-41328474D01*
X125346877Y-41330096D01*
X125396296Y-41328241D01*
X125400009Y-41328171D01*
X125419483Y-41328171D01*
X125423913Y-41327346D01*
X125429106Y-41327010D01*
X125445137Y-41326408D01*
X125449610Y-41326240D01*
X125458743Y-41325897D01*
X125467137Y-41322291D01*
X125467140Y-41322290D01*
X125469318Y-41321354D01*
X125490269Y-41314988D01*
X125501588Y-41312880D01*
X125524264Y-41298903D01*
X125537131Y-41292219D01*
X125555177Y-41284466D01*
X125555178Y-41284465D01*
X125561598Y-41281707D01*
X125566484Y-41277693D01*
X125570848Y-41273329D01*
X125588903Y-41259058D01*
X125596883Y-41254139D01*
X125614553Y-41230902D01*
X125623345Y-41220832D01*
X125863161Y-40981016D01*
X125917678Y-40953239D01*
X125934976Y-40952037D01*
X125979292Y-40952850D01*
X126022648Y-40953645D01*
X126022650Y-40953645D01*
X126029701Y-40953774D01*
X126036504Y-40951919D01*
X126036506Y-40951919D01*
X126111705Y-40931417D01*
X126168019Y-40916064D01*
X126290193Y-40841049D01*
X126300400Y-40829773D01*
X126332073Y-40794780D01*
X126385141Y-40764326D01*
X126445974Y-40770880D01*
X126491336Y-40811940D01*
X126496084Y-40821338D01*
X126503800Y-40838874D01*
X126549082Y-40892744D01*
X126591511Y-40943220D01*
X126591514Y-40943222D01*
X126596050Y-40948619D01*
X126601921Y-40952527D01*
X126601922Y-40952528D01*
X126614223Y-40960716D01*
X126715393Y-41028061D01*
X126812687Y-41058457D01*
X126845505Y-41068710D01*
X126845506Y-41068710D01*
X126852237Y-41070813D01*
X126923908Y-41072127D01*
X126988525Y-41073312D01*
X126988527Y-41073312D01*
X126995579Y-41073441D01*
X127002382Y-41071586D01*
X127002384Y-41071586D01*
X127087718Y-41048321D01*
X127133897Y-41035731D01*
X127256071Y-40960716D01*
X127263483Y-40952528D01*
X127347548Y-40859653D01*
X127352280Y-40854425D01*
X127393429Y-40769494D01*
X127411714Y-40731753D01*
X127414790Y-40725404D01*
X127419843Y-40695374D01*
X127437942Y-40587795D01*
X127437942Y-40587791D01*
X127438576Y-40584025D01*
X127438727Y-40571671D01*
X127418403Y-40429753D01*
X127359064Y-40299243D01*
X127297957Y-40228325D01*
X127270087Y-40195980D01*
X127270085Y-40195978D01*
X127265480Y-40190634D01*
X127265592Y-40190537D01*
X127236078Y-40141220D01*
X127233580Y-40119120D01*
X127233580Y-39790472D01*
X127252487Y-39732281D01*
X127262577Y-39720468D01*
X127698579Y-39284467D01*
X127753095Y-39256690D01*
X127768582Y-39255471D01*
X132787401Y-39255471D01*
X132845592Y-39274378D01*
G37*
G04 #@! TD.AperFunction*
G04 #@! TA.AperFunction,Conductor*
G36*
X132712572Y-52642428D02*
G01*
X132755837Y-52685693D01*
X132765408Y-52746125D01*
X132759470Y-52765460D01*
X132759533Y-52765479D01*
X132757471Y-52772222D01*
X132754473Y-52778608D01*
X132753388Y-52785577D01*
X132753387Y-52785580D01*
X132738907Y-52878583D01*
X132732417Y-52920268D01*
X132733332Y-52927265D01*
X132733332Y-52927266D01*
X132734840Y-52938799D01*
X132751006Y-53062424D01*
X132753847Y-53068880D01*
X132753847Y-53068881D01*
X132789741Y-53150455D01*
X132808746Y-53193648D01*
X132853070Y-53246378D01*
X132862282Y-53257337D01*
X132885252Y-53314047D01*
X132870501Y-53373428D01*
X132860709Y-53386566D01*
X132847382Y-53401656D01*
X132844386Y-53408038D01*
X132844385Y-53408039D01*
X132827662Y-53443658D01*
X132786452Y-53531431D01*
X132785367Y-53538400D01*
X132785366Y-53538403D01*
X132774230Y-53609927D01*
X132764396Y-53673091D01*
X132765311Y-53680090D01*
X132765225Y-53687137D01*
X132761878Y-53687096D01*
X132753251Y-53733514D01*
X132736276Y-53756236D01*
X132394338Y-54098174D01*
X132339821Y-54125951D01*
X132324334Y-54127170D01*
X129039136Y-54127170D01*
X128980945Y-54108263D01*
X128944981Y-54058763D01*
X128941508Y-54011747D01*
X128962576Y-53886524D01*
X128962727Y-53874170D01*
X128942403Y-53732252D01*
X128904685Y-53649296D01*
X128885985Y-53608166D01*
X128885984Y-53608165D01*
X128883064Y-53601742D01*
X128822480Y-53531431D01*
X128794085Y-53498477D01*
X128794084Y-53498476D01*
X128789480Y-53493133D01*
X128669175Y-53415155D01*
X128531819Y-53374077D01*
X128448577Y-53373568D01*
X128395507Y-53373244D01*
X128395506Y-53373244D01*
X128388456Y-53373201D01*
X128381679Y-53375138D01*
X128381678Y-53375138D01*
X128257389Y-53410660D01*
X128257387Y-53410661D01*
X128250609Y-53412598D01*
X128129360Y-53489100D01*
X128124693Y-53494384D01*
X128124691Y-53494386D01*
X128097614Y-53525046D01*
X128085818Y-53538403D01*
X128084227Y-53540204D01*
X128031535Y-53571304D01*
X128010023Y-53573670D01*
X127502500Y-53573670D01*
X127444309Y-53554763D01*
X127432497Y-53544674D01*
X127239045Y-53351223D01*
X127236340Y-53348090D01*
X127234146Y-53343601D01*
X127197899Y-53309977D01*
X127195223Y-53307401D01*
X127181444Y-53293622D01*
X127177734Y-53291077D01*
X127173821Y-53287641D01*
X127158776Y-53273685D01*
X127152075Y-53267469D01*
X127141997Y-53263448D01*
X127141385Y-53263204D01*
X127122069Y-53252890D01*
X127120114Y-53251549D01*
X127120111Y-53251548D01*
X127112575Y-53246378D01*
X127086662Y-53240229D01*
X127072837Y-53235856D01*
X127054589Y-53228576D01*
X127054587Y-53228576D01*
X127048099Y-53225987D01*
X127041806Y-53225370D01*
X127035637Y-53225370D01*
X127012778Y-53222695D01*
X127012548Y-53222640D01*
X127012546Y-53222640D01*
X127003655Y-53220530D01*
X126974734Y-53224466D01*
X126961384Y-53225370D01*
X125565876Y-53225370D01*
X125561753Y-53225068D01*
X125557026Y-53223445D01*
X125549058Y-53223744D01*
X125494870Y-53196861D01*
X125466510Y-53142646D01*
X125475432Y-53082114D01*
X125494115Y-53056107D01*
X125495978Y-53054244D01*
X125622557Y-52927666D01*
X125677072Y-52899890D01*
X125692559Y-52898671D01*
X132181607Y-52898671D01*
X132185732Y-52898974D01*
X132190457Y-52900596D01*
X132239876Y-52898741D01*
X132243589Y-52898671D01*
X132263063Y-52898671D01*
X132267493Y-52897846D01*
X132272686Y-52897510D01*
X132288717Y-52896908D01*
X132293190Y-52896740D01*
X132302323Y-52896397D01*
X132310717Y-52892791D01*
X132310720Y-52892790D01*
X132312898Y-52891854D01*
X132333849Y-52885488D01*
X132345168Y-52883380D01*
X132367844Y-52869403D01*
X132380711Y-52862719D01*
X132398757Y-52854966D01*
X132398758Y-52854965D01*
X132405178Y-52852207D01*
X132410064Y-52848193D01*
X132414428Y-52843829D01*
X132432483Y-52829558D01*
X132440463Y-52824639D01*
X132458133Y-52801402D01*
X132466925Y-52791332D01*
X132597623Y-52660634D01*
X132652140Y-52632857D01*
X132712572Y-52642428D01*
G37*
G04 #@! TD.AperFunction*
G04 #@! TD*
M02*
