G04 #@! TF.GenerationSoftware,KiCad,Pcbnew,6.0.0-d3dd2cf0fa~116~ubuntu20.04.1*
G04 #@! TF.CreationDate,2022-05-06T06:53:09+00:00*
G04 #@! TF.ProjectId,PlantBuddy,506c616e-7442-4756-9464-792e6b696361,rev?*
G04 #@! TF.SameCoordinates,Original*
G04 #@! TF.FileFunction,Copper,L3,Inr*
G04 #@! TF.FilePolarity,Positive*
%FSLAX46Y46*%
G04 Gerber Fmt 4.6, Leading zero omitted, Abs format (unit mm)*
G04 Created by KiCad (PCBNEW 6.0.0-d3dd2cf0fa~116~ubuntu20.04.1) date 2022-05-06 06:53:09*
%MOMM*%
%LPD*%
G01*
G04 APERTURE LIST*
G04 Aperture macros list*
%AMFreePoly0*
4,1,124,0.499682,0.503916,0.501146,0.500380,0.501146,-47.971286,0.499682,-47.974822,0.496146,-47.976286,-0.502921,-47.976286,-0.506457,-47.974822,-0.507921,-47.971286,-0.507921,-45.774953,-7.098454,-45.774953,-7.101990,-45.773489,-7.103454,-45.769953,-7.103454,-43.763353,-7.101990,-43.759817,-7.098454,-43.758353,-0.507871,-43.758353,-0.512145,-41.368050,-3.802807,-41.365925,-7.098457,-41.363798,-7.100276,-41.363044,
-7.101990,-41.362334,-7.101992,-41.362332,-7.102702,-41.360615,-7.103454,-41.358798,-7.103454,-39.360686,-7.101990,-39.357150,-7.098454,-39.355686,-0.507921,-39.355686,-0.507921,-36.961153,-7.098523,-36.961153,-7.098528,-36.961151,-7.098534,-36.961153,-7.100275,-36.960428,-7.102059,-36.959689,-7.102061,-36.959683,-7.102067,-36.959681,-7.102806,-36.957886,-7.103523,-36.956153,-7.103521,-36.956148,-7.103523,-36.956142,
-7.101372,-35.954960,-7.101372,-35.954959,-7.099220,-34.953776,-7.098541,-34.952147,-7.097758,-34.950252,-7.097750,-34.950249,-7.097748,-34.950243,-7.096019,-34.949531,-7.094223,-34.948786,-3.798573,-34.946659,-0.507921,-34.944534,-0.507921,-32.558486,-7.098454,-32.558486,-7.101990,-32.557022,-7.103454,-32.553486,-7.103454,-30.546886,-7.101990,-30.543350,-7.098454,-30.541886,-0.507921,-30.541886,-0.507921,-28.147353,
-7.098454,-28.147353,-7.101990,-28.145889,-7.103454,-28.142353,-7.103454,-26.144241,-7.102575,-26.142117,-7.101992,-26.140707,-7.101990,-26.140705,-7.100232,-26.139977,-7.098457,-26.139241,-3.802807,-26.137114,-0.512145,-26.134989,-0.507871,-23.744686,-7.098454,-23.744686,-7.101990,-23.743222,-7.103454,-23.739686,-7.103454,-21.733086,-7.101990,-21.729550,-7.098454,-21.728086,-0.507921,-21.728086,-0.507921,-19.333553,
-7.098454,-19.333553,-7.101990,-19.332089,-7.103454,-19.328553,-7.103454,-17.330420,-7.101990,-17.326884,-7.098454,-17.325420,-0.507921,-17.325420,-0.507921,-14.930886,-7.098454,-14.930886,-7.101990,-14.929422,-7.103454,-14.925886,-7.103454,-12.919286,-7.101990,-12.915750,-7.098454,-12.914286,-0.507921,-12.914286,-0.507921,-10.519753,-7.098454,-10.519753,-7.101990,-10.518289,-7.103454,-10.514753,-7.103454,-8.516620,
-7.101990,-8.513084,-7.098454,-8.511620,-0.507921,-8.511620,-0.507921,-6.117086,-7.098454,-6.117086,-7.101990,-6.115622,-7.103454,-6.112086,-7.103454,-4.105486,-7.101990,-4.101950,-7.098454,-4.100486,-0.507921,-4.100486,-0.507921,-1.705953,-7.098454,-1.705953,-7.101990,-1.704489,-7.103454,-1.700953,-7.103454,0.297180,-7.101990,0.300716,-7.098454,0.302180,-0.507921,0.302180,-0.507921,0.500380,
-0.506457,0.503916,-0.502921,0.505380,0.496146,0.505380,0.499682,0.503916,0.499682,0.503916,$1*%
%AMFreePoly1*
4,1,125,0.498682,0.503916,0.500146,0.500380,0.500146,-1.899153,7.090679,-1.899153,7.094215,-1.900617,7.095679,-1.904153,7.095679,-3.910753,7.094215,-3.914289,7.090679,-3.915753,0.500097,-3.915753,0.502234,-5.110894,0.504370,-6.306056,3.795034,-6.308180,7.090684,-6.310308,7.093109,-6.311314,7.094216,-6.311772,7.094216,-6.311773,7.094219,-6.311774,7.095148,-6.314024,7.095680,-6.315308,
7.095679,-7.314364,7.095679,-8.313420,7.094215,-8.316956,7.090679,-8.318420,0.500146,-8.318420,0.500146,-10.712953,7.090749,-10.712953,7.090754,-10.712955,7.090760,-10.712953,7.092501,-10.713678,7.094285,-10.714417,7.094287,-10.714423,7.094293,-10.714425,7.095032,-10.716220,7.095749,-10.717953,7.095747,-10.717958,7.095749,-10.717964,7.093598,-11.719147,7.091446,-12.720330,7.090773,-12.721945,
7.089985,-12.723853,7.089977,-12.723856,7.089974,-12.723863,7.088323,-12.724542,7.086450,-12.725319,3.790800,-12.727447,0.500146,-12.729571,0.500146,-15.115619,7.090679,-15.115619,7.094215,-15.117083,7.095679,-15.120619,7.095679,-17.127220,7.094215,-17.130756,7.090679,-17.132220,0.500146,-17.132220,0.500146,-19.526753,7.090679,-19.526753,7.094215,-19.528217,7.095679,-19.531753,7.095679,-20.530809,
7.095680,-21.529865,7.095148,-21.531149,7.094219,-21.533399,7.094216,-21.533400,7.094216,-21.533401,7.093109,-21.533859,7.090684,-21.534865,3.795034,-21.536992,0.504370,-21.539117,0.502234,-22.734279,0.500097,-23.929420,7.090679,-23.929420,7.094215,-23.930884,7.095679,-23.934420,7.095679,-25.941019,7.094215,-25.944555,7.090679,-25.946019,0.500146,-25.946019,0.500146,-28.340553,7.090679,-28.340553,
7.094215,-28.342017,7.095679,-28.345553,7.095679,-30.343686,7.094215,-30.347222,7.090679,-30.348686,0.500146,-30.348686,0.500146,-32.743219,7.090679,-32.743219,7.094215,-32.744683,7.095679,-32.748219,7.095679,-34.754820,7.094215,-34.758356,7.090679,-34.759820,0.500146,-34.759820,0.500146,-37.154353,7.090679,-37.154353,7.094215,-37.155817,7.095679,-37.159353,7.095679,-39.157486,7.094215,-39.161022,
7.090679,-39.162486,0.500146,-39.162486,0.500146,-41.557020,7.090679,-41.557020,7.094215,-41.558484,7.095679,-41.562020,7.095679,-43.568620,7.094215,-43.572156,7.090679,-43.573620,0.500146,-43.573620,0.500146,-45.968153,7.090679,-45.968153,7.094215,-45.969617,7.095679,-45.973153,7.095679,-47.971286,7.094215,-47.974822,7.090679,-47.976286,-0.503920,-47.976286,-0.507456,-47.974822,-0.508920,-47.971286,
-0.508920,0.500380,-0.507456,0.503916,-0.503920,0.505380,0.495146,0.505380,0.498682,0.503916,0.498682,0.503916,$1*%
G04 Aperture macros list end*
G04 #@! TA.AperFunction,ComponentPad*
%ADD10O,2.100000X1.000000*%
G04 #@! TD*
G04 #@! TA.AperFunction,ComponentPad*
%ADD11O,1.600000X1.000000*%
G04 #@! TD*
G04 #@! TA.AperFunction,ComponentPad*
%ADD12FreePoly0,0.000000*%
G04 #@! TD*
G04 #@! TA.AperFunction,ComponentPad*
%ADD13FreePoly1,0.000000*%
G04 #@! TD*
G04 #@! TA.AperFunction,ViaPad*
%ADD14C,0.600000*%
G04 #@! TD*
G04 APERTURE END LIST*
D10*
G04 #@! TO.N,GND*
G04 #@! TO.C,J1*
X99800080Y-54781171D03*
X99800080Y-46141171D03*
D11*
X103980080Y-54781171D03*
X103980080Y-46141171D03*
G04 #@! TD*
D12*
G04 #@! TO.N,Net-(C4-Pad1)*
G04 #@! TO.C,C4*
X91952200Y-70544951D03*
D13*
G04 #@! TO.N,GND*
X83952200Y-70544951D03*
G04 #@! TD*
D14*
G04 #@! TO.N,+3V3*
X98612080Y-41698171D03*
X76133080Y-40936171D03*
X76260080Y-48556171D03*
X85277080Y-63288171D03*
X84134080Y-62145171D03*
X77149080Y-45000171D03*
X76864477Y-51716303D03*
G04 #@! TO.N,GND*
X89849080Y-45381171D03*
X87874080Y-43419171D03*
X78454939Y-50665208D03*
X80832080Y-39412171D03*
X91881080Y-39539171D03*
X92262080Y-54398171D03*
X96961080Y-55033171D03*
X94167080Y-58208171D03*
X84769080Y-47286171D03*
X80324080Y-55795171D03*
X93786080Y-49191171D03*
X85899080Y-45381171D03*
X88706080Y-39539171D03*
X94929080Y-38396171D03*
X85899080Y-43362171D03*
X85404080Y-39539171D03*
X86293080Y-55922171D03*
X76133080Y-39412171D03*
X91500080Y-59605171D03*
X83880080Y-39539171D03*
X92516080Y-56684171D03*
X85277080Y-59605171D03*
X90992080Y-58081171D03*
X87874080Y-41431171D03*
X81576093Y-49001504D03*
X89849080Y-41431171D03*
X80324080Y-54271171D03*
X87563080Y-63669171D03*
X87874080Y-45324171D03*
X73466080Y-46524171D03*
X97469080Y-43984171D03*
X77276080Y-46651171D03*
X89849080Y-43406171D03*
X90230080Y-39539171D03*
X94929080Y-49953171D03*
X87055080Y-39539171D03*
X85899080Y-41431171D03*
X83626080Y-53001171D03*
X72704080Y-54398171D03*
X100898080Y-56684171D03*
X91754080Y-53001171D03*
X89976080Y-64177171D03*
G04 #@! TO.N,/piezo_p*
X96453080Y-40936171D03*
G04 #@! TO.N,/piezo_l*
X95564080Y-40936171D03*
G04 #@! TO.N,Net-(R12-Pad2)*
X93673847Y-59717404D03*
X94805908Y-60851298D03*
G04 #@! TO.N,Net-(R15-Pad2)*
X95691080Y-60113171D03*
X94571203Y-58966094D03*
G04 #@! TO.N,Net-(BT1-Pad1)*
X72644080Y-50461171D03*
G04 #@! TO.N,/freq_gen*
X88579080Y-68241171D03*
X77149080Y-50969171D03*
G04 #@! TO.N,/status*
X92643080Y-40809171D03*
X96580080Y-42079171D03*
G04 #@! TD*
G04 #@! TA.AperFunction,Conductor*
G04 #@! TO.N,+3V3*
G36*
X95419506Y-32384138D02*
G01*
X96134590Y-32695353D01*
X96139541Y-32697636D01*
X96895354Y-33066244D01*
X96900200Y-33068739D01*
X97639340Y-33469680D01*
X97644074Y-33472382D01*
X98365199Y-33904928D01*
X98369812Y-33907833D01*
X99071531Y-34371149D01*
X99076006Y-34374245D01*
X99263507Y-34510043D01*
X99757046Y-34867491D01*
X99761391Y-34870783D01*
X99913433Y-34991260D01*
X100145013Y-35174762D01*
X100420463Y-35393027D01*
X100424654Y-35396498D01*
X101060542Y-35946778D01*
X101064552Y-35950404D01*
X101392153Y-36259670D01*
X101676016Y-36527647D01*
X101679898Y-36531473D01*
X102265841Y-37134641D01*
X102269553Y-37138632D01*
X102828842Y-37766558D01*
X102832374Y-37770701D01*
X102934003Y-37895257D01*
X103363977Y-38422229D01*
X103367331Y-38426526D01*
X103537952Y-38655154D01*
X103851375Y-39075133D01*
X103870260Y-39100439D01*
X103873423Y-39104874D01*
X103893638Y-39134559D01*
X104346738Y-39799918D01*
X104349708Y-39804489D01*
X104792506Y-40519336D01*
X104795276Y-40524031D01*
X105206759Y-41257393D01*
X105209322Y-41262203D01*
X105588679Y-42012634D01*
X105591033Y-42017551D01*
X105937595Y-42783728D01*
X105939733Y-42788742D01*
X106252819Y-43569157D01*
X106254739Y-43574259D01*
X106533785Y-44367510D01*
X106535482Y-44372689D01*
X106747432Y-45070223D01*
X106767806Y-45137276D01*
X106773249Y-45173968D01*
X106771839Y-48128698D01*
X106768252Y-55645084D01*
X106768203Y-55746856D01*
X106762771Y-55783393D01*
X106718371Y-55929664D01*
X106528364Y-56555617D01*
X106526651Y-56560847D01*
X106244998Y-57361170D01*
X106243058Y-57366320D01*
X105926720Y-58153599D01*
X105924577Y-58158613D01*
X105678233Y-58701840D01*
X105574165Y-58931325D01*
X105571783Y-58936286D01*
X105429679Y-59216435D01*
X105208954Y-59651583D01*
X105187978Y-59692935D01*
X105185397Y-59697759D01*
X104816322Y-60352796D01*
X104768910Y-60436943D01*
X104766105Y-60441677D01*
X104317730Y-61161984D01*
X104314720Y-61166591D01*
X103835346Y-61866593D01*
X103832138Y-61871065D01*
X103322642Y-62549485D01*
X103319255Y-62553797D01*
X102780602Y-63209347D01*
X102777031Y-63213504D01*
X102612551Y-63396743D01*
X102222765Y-63830985D01*
X102210284Y-63844889D01*
X102206522Y-63848900D01*
X102148926Y-63907685D01*
X101612760Y-64454921D01*
X101608824Y-64458767D01*
X100989157Y-65038292D01*
X100985056Y-65041963D01*
X100355069Y-65581550D01*
X100340674Y-65593879D01*
X100336424Y-65597361D01*
X99680868Y-66110968D01*
X99668562Y-66120609D01*
X99664157Y-66123908D01*
X98974074Y-66617501D01*
X98969530Y-66620603D01*
X98266007Y-67078739D01*
X98258568Y-67083583D01*
X98253892Y-67086485D01*
X97523360Y-67517997D01*
X97518561Y-67520691D01*
X96769939Y-67919864D01*
X96765028Y-67922347D01*
X96174258Y-68204945D01*
X96000500Y-68288063D01*
X95999653Y-68288468D01*
X95994643Y-68290732D01*
X95791662Y-68377150D01*
X95213998Y-68623088D01*
X95208889Y-68625132D01*
X94414512Y-68923071D01*
X94409318Y-68924891D01*
X94401800Y-68927342D01*
X93634763Y-69177403D01*
X93623561Y-69179571D01*
X93621735Y-69180119D01*
X93612451Y-69180111D01*
X93606022Y-69183198D01*
X93598903Y-69183678D01*
X93568769Y-69200765D01*
X93561209Y-69204718D01*
X93529991Y-69219710D01*
X93525536Y-69225281D01*
X93519330Y-69228800D01*
X93511242Y-69240461D01*
X93499605Y-69257239D01*
X93494475Y-69264122D01*
X93472860Y-69291151D01*
X93471261Y-69298104D01*
X93467196Y-69303965D01*
X93464966Y-69317975D01*
X93461754Y-69338150D01*
X93460121Y-69346558D01*
X93457518Y-69357878D01*
X93457518Y-69364389D01*
X93457170Y-69366942D01*
X93456491Y-69371212D01*
X93452815Y-69394302D01*
X93456880Y-69407891D01*
X93457241Y-69413319D01*
X93457519Y-69421675D01*
X93457550Y-70858174D01*
X93437549Y-70926295D01*
X93383895Y-70972790D01*
X93331219Y-70984177D01*
X92709011Y-70982540D01*
X92640945Y-70962358D01*
X92594593Y-70908581D01*
X92583344Y-70856540D01*
X92583344Y-70046649D01*
X92583756Y-70044577D01*
X92573863Y-69994828D01*
X92572278Y-69991001D01*
X92568844Y-69985861D01*
X92568841Y-69985856D01*
X92550989Y-69959139D01*
X92550988Y-69959138D01*
X92544094Y-69948820D01*
X92501919Y-69920641D01*
X92499087Y-69919468D01*
X92499074Y-69919462D01*
X92498079Y-69919050D01*
X92448362Y-69909161D01*
X92446289Y-69909573D01*
X91451366Y-69909573D01*
X91449295Y-69909161D01*
X91399546Y-69919050D01*
X91398551Y-69919462D01*
X91398538Y-69919468D01*
X91395706Y-69920641D01*
X91377754Y-69932636D01*
X91363844Y-69941931D01*
X91363843Y-69941932D01*
X91353526Y-69948826D01*
X91325347Y-69991001D01*
X91323762Y-69994828D01*
X91320473Y-70011361D01*
X91287562Y-70074269D01*
X91225865Y-70109397D01*
X91196895Y-70112773D01*
X84855833Y-70112773D01*
X84853762Y-70112361D01*
X84804013Y-70122250D01*
X84803018Y-70122662D01*
X84803005Y-70122668D01*
X84800173Y-70123841D01*
X84777790Y-70138798D01*
X84776339Y-70139767D01*
X84708586Y-70160982D01*
X84640119Y-70142200D01*
X84592675Y-70089383D01*
X84582640Y-70045158D01*
X84582756Y-70044577D01*
X84572863Y-69994828D01*
X84571278Y-69991001D01*
X84567844Y-69985861D01*
X84567841Y-69985856D01*
X84549989Y-69959139D01*
X84549988Y-69959138D01*
X84543094Y-69948820D01*
X84500919Y-69920641D01*
X84498087Y-69919468D01*
X84498074Y-69919462D01*
X84497079Y-69919050D01*
X84447362Y-69909161D01*
X84445289Y-69909573D01*
X83450367Y-69909573D01*
X83448296Y-69909161D01*
X83398547Y-69919050D01*
X83397552Y-69919462D01*
X83397539Y-69919468D01*
X83394707Y-69920641D01*
X83376755Y-69932636D01*
X83362845Y-69941931D01*
X83362844Y-69941932D01*
X83352527Y-69948826D01*
X83324348Y-69991001D01*
X83322763Y-69994828D01*
X83312870Y-70044555D01*
X83313282Y-70046628D01*
X83313282Y-70831481D01*
X83293280Y-70899602D01*
X83239624Y-70946095D01*
X83186951Y-70957481D01*
X82555246Y-70955818D01*
X82487181Y-70935637D01*
X82440829Y-70881860D01*
X82429580Y-70829819D01*
X82429580Y-69424230D01*
X82429888Y-69415428D01*
X82430120Y-69412112D01*
X82434234Y-69398534D01*
X82432053Y-69384517D01*
X82432053Y-69384513D01*
X82429983Y-69371212D01*
X82429580Y-69368209D01*
X82429580Y-69361568D01*
X82427103Y-69350712D01*
X82425446Y-69342065D01*
X82422350Y-69322168D01*
X82420168Y-69308146D01*
X82416019Y-69302120D01*
X82414392Y-69294986D01*
X82393002Y-69268143D01*
X82387759Y-69261069D01*
X82376344Y-69244488D01*
X82376342Y-69244486D01*
X82368297Y-69232800D01*
X82361944Y-69229168D01*
X82357385Y-69223447D01*
X82344609Y-69217285D01*
X82344606Y-69217282D01*
X82326477Y-69208538D01*
X82318695Y-69204444D01*
X82288882Y-69187401D01*
X82281581Y-69186883D01*
X82274993Y-69183706D01*
X82265851Y-69183698D01*
X82265199Y-69183500D01*
X82252889Y-69181094D01*
X81474707Y-68927342D01*
X81469498Y-68925516D01*
X81451677Y-68918828D01*
X80672138Y-68626276D01*
X80667018Y-68624226D01*
X80665460Y-68623562D01*
X79883488Y-68290333D01*
X79878482Y-68288068D01*
X79767663Y-68234994D01*
X88073471Y-68234994D01*
X88074635Y-68243896D01*
X88074635Y-68243899D01*
X88080567Y-68289260D01*
X88092060Y-68377150D01*
X88149800Y-68508374D01*
X88155577Y-68515247D01*
X88155578Y-68515248D01*
X88162872Y-68523925D01*
X88242050Y-68618119D01*
X88361393Y-68697561D01*
X88498237Y-68740313D01*
X88507209Y-68740477D01*
X88507212Y-68740478D01*
X88572543Y-68741675D01*
X88641579Y-68742941D01*
X88650613Y-68740478D01*
X88771238Y-68707592D01*
X88771240Y-68707591D01*
X88779897Y-68705231D01*
X88902071Y-68630216D01*
X88998280Y-68523925D01*
X89060790Y-68394904D01*
X89084576Y-68253525D01*
X89084727Y-68241171D01*
X89064403Y-68099253D01*
X89005064Y-67968743D01*
X88986678Y-67947405D01*
X88917340Y-67866934D01*
X88917337Y-67866931D01*
X88911480Y-67860134D01*
X88791175Y-67782156D01*
X88653819Y-67741078D01*
X88644843Y-67741023D01*
X88644842Y-67741023D01*
X88584635Y-67740655D01*
X88510456Y-67740202D01*
X88372609Y-67779599D01*
X88251360Y-67856101D01*
X88245418Y-67862829D01*
X88245417Y-67862830D01*
X88203908Y-67909830D01*
X88156457Y-67963559D01*
X88095527Y-68093334D01*
X88073471Y-68234994D01*
X79767663Y-68234994D01*
X79228798Y-67976917D01*
X79110371Y-67920199D01*
X79105446Y-67917707D01*
X78402635Y-67542421D01*
X78354151Y-67516532D01*
X78349348Y-67513829D01*
X77616353Y-67080136D01*
X77611665Y-67077222D01*
X76898406Y-66611867D01*
X76893850Y-66608751D01*
X76201609Y-66112569D01*
X76197194Y-66109255D01*
X75527382Y-65583255D01*
X75523117Y-65579752D01*
X74876974Y-65024910D01*
X74872866Y-65021223D01*
X74251656Y-64438624D01*
X74247713Y-64434761D01*
X73990072Y-64170994D01*
X89470471Y-64170994D01*
X89471635Y-64179896D01*
X89471635Y-64179899D01*
X89472894Y-64189525D01*
X89489060Y-64313150D01*
X89546800Y-64444374D01*
X89552577Y-64451247D01*
X89552578Y-64451248D01*
X89559872Y-64459925D01*
X89639050Y-64554119D01*
X89758393Y-64633561D01*
X89895237Y-64676313D01*
X89904209Y-64676477D01*
X89904212Y-64676478D01*
X89969543Y-64677675D01*
X90038579Y-64678941D01*
X90047613Y-64676478D01*
X90168238Y-64643592D01*
X90168240Y-64643591D01*
X90176897Y-64641231D01*
X90299071Y-64566216D01*
X90395280Y-64459925D01*
X90457790Y-64330904D01*
X90481576Y-64189525D01*
X90481727Y-64177171D01*
X90463672Y-64051096D01*
X90462676Y-64044139D01*
X90462675Y-64044136D01*
X90461403Y-64035253D01*
X90402064Y-63904743D01*
X90352251Y-63846932D01*
X90314340Y-63802934D01*
X90314337Y-63802931D01*
X90308480Y-63796134D01*
X90188175Y-63718156D01*
X90050819Y-63677078D01*
X90041843Y-63677023D01*
X90041842Y-63677023D01*
X89981635Y-63676655D01*
X89907456Y-63676202D01*
X89769609Y-63715599D01*
X89648360Y-63792101D01*
X89642418Y-63798829D01*
X89642417Y-63798830D01*
X89614019Y-63830985D01*
X89553457Y-63899559D01*
X89492527Y-64029334D01*
X89490222Y-64044139D01*
X89476351Y-64133231D01*
X89470471Y-64170994D01*
X73990072Y-64170994D01*
X73732878Y-63907685D01*
X73652592Y-63825489D01*
X73648826Y-63821461D01*
X73621800Y-63791251D01*
X73507058Y-63662994D01*
X87057471Y-63662994D01*
X87058635Y-63671896D01*
X87058635Y-63671899D01*
X87059649Y-63679651D01*
X87076060Y-63805150D01*
X87079677Y-63813370D01*
X87121177Y-63907685D01*
X87133800Y-63936374D01*
X87139577Y-63943247D01*
X87139578Y-63943248D01*
X87146872Y-63951925D01*
X87226050Y-64046119D01*
X87345393Y-64125561D01*
X87482237Y-64168313D01*
X87491209Y-64168477D01*
X87491212Y-64168478D01*
X87556543Y-64169675D01*
X87625579Y-64170941D01*
X87634613Y-64168478D01*
X87755238Y-64135592D01*
X87755240Y-64135591D01*
X87763897Y-64133231D01*
X87886071Y-64058216D01*
X87912214Y-64029334D01*
X87976258Y-63958578D01*
X87982280Y-63951925D01*
X88033149Y-63846932D01*
X88040875Y-63830985D01*
X88040875Y-63830984D01*
X88044790Y-63822904D01*
X88068576Y-63681525D01*
X88068727Y-63669171D01*
X88048403Y-63527253D01*
X87989064Y-63396743D01*
X87970678Y-63375405D01*
X87901340Y-63294934D01*
X87901337Y-63294931D01*
X87895480Y-63288134D01*
X87775175Y-63210156D01*
X87637819Y-63169078D01*
X87628843Y-63169023D01*
X87628842Y-63169023D01*
X87568635Y-63168655D01*
X87494456Y-63168202D01*
X87356609Y-63207599D01*
X87235360Y-63284101D01*
X87140457Y-63391559D01*
X87079527Y-63521334D01*
X87057471Y-63662994D01*
X73507058Y-63662994D01*
X73080975Y-63186724D01*
X73077389Y-63182535D01*
X72537877Y-62523528D01*
X72534475Y-62519181D01*
X72036105Y-61852899D01*
X72024345Y-61837177D01*
X72021159Y-61832717D01*
X71541390Y-61129026D01*
X71538381Y-61124399D01*
X71365386Y-60845121D01*
X94300299Y-60845121D01*
X94301463Y-60854023D01*
X94301463Y-60854026D01*
X94302722Y-60863652D01*
X94318888Y-60987277D01*
X94376628Y-61118501D01*
X94382405Y-61125374D01*
X94382406Y-61125375D01*
X94417052Y-61166591D01*
X94468878Y-61228246D01*
X94588221Y-61307688D01*
X94725065Y-61350440D01*
X94734037Y-61350604D01*
X94734040Y-61350605D01*
X94799371Y-61351802D01*
X94868407Y-61353068D01*
X94877441Y-61350605D01*
X94998066Y-61317719D01*
X94998068Y-61317718D01*
X95006725Y-61315358D01*
X95128899Y-61240343D01*
X95225108Y-61134052D01*
X95287618Y-61005031D01*
X95311404Y-60863652D01*
X95311555Y-60851298D01*
X95291231Y-60709380D01*
X95291233Y-60709380D01*
X95291310Y-60642908D01*
X95329762Y-60583226D01*
X95394377Y-60553807D01*
X95466229Y-60564792D01*
X95473393Y-60569561D01*
X95610237Y-60612313D01*
X95619209Y-60612477D01*
X95619212Y-60612478D01*
X95684543Y-60613675D01*
X95753579Y-60614941D01*
X95762613Y-60612478D01*
X95883238Y-60579592D01*
X95883240Y-60579591D01*
X95891897Y-60577231D01*
X96014071Y-60502216D01*
X96046646Y-60466228D01*
X96104258Y-60402578D01*
X96110280Y-60395925D01*
X96172790Y-60266904D01*
X96196576Y-60125525D01*
X96196727Y-60113171D01*
X96188553Y-60056095D01*
X96177676Y-59980139D01*
X96177675Y-59980136D01*
X96176403Y-59971253D01*
X96117064Y-59840743D01*
X96046547Y-59758904D01*
X96029340Y-59738934D01*
X96029337Y-59738931D01*
X96023480Y-59732134D01*
X95903175Y-59654156D01*
X95765819Y-59613078D01*
X95756843Y-59613023D01*
X95756842Y-59613023D01*
X95696635Y-59612655D01*
X95622456Y-59612202D01*
X95484609Y-59651599D01*
X95363360Y-59728101D01*
X95357418Y-59734829D01*
X95357417Y-59734830D01*
X95344576Y-59749370D01*
X95268457Y-59835559D01*
X95207527Y-59965334D01*
X95204139Y-59987096D01*
X95188510Y-60087476D01*
X95185471Y-60106994D01*
X95186635Y-60115896D01*
X95186635Y-60115899D01*
X95200140Y-60219174D01*
X95204060Y-60249150D01*
X95206111Y-60253811D01*
X95205189Y-60322848D01*
X95166012Y-60382056D01*
X95101043Y-60410685D01*
X95031927Y-60400119D01*
X95025537Y-60397166D01*
X95018003Y-60392283D01*
X95009404Y-60389711D01*
X95009401Y-60389710D01*
X94920956Y-60363260D01*
X94880647Y-60351205D01*
X94871671Y-60351150D01*
X94871670Y-60351150D01*
X94811463Y-60350782D01*
X94737284Y-60350329D01*
X94599437Y-60389726D01*
X94478188Y-60466228D01*
X94383285Y-60573686D01*
X94322355Y-60703461D01*
X94300299Y-60845121D01*
X71365386Y-60845121D01*
X71089882Y-60400354D01*
X71087079Y-60395599D01*
X71079490Y-60382056D01*
X70670727Y-59652611D01*
X70668150Y-59647766D01*
X70655322Y-59622320D01*
X70643562Y-59598994D01*
X84771471Y-59598994D01*
X84772635Y-59607896D01*
X84772635Y-59607899D01*
X84778027Y-59649133D01*
X84790060Y-59741150D01*
X84793677Y-59749370D01*
X84835177Y-59843685D01*
X84847800Y-59872374D01*
X84853577Y-59879247D01*
X84853578Y-59879248D01*
X84859923Y-59886796D01*
X84940050Y-59982119D01*
X85059393Y-60061561D01*
X85196237Y-60104313D01*
X85205209Y-60104477D01*
X85205212Y-60104478D01*
X85270543Y-60105675D01*
X85339579Y-60106941D01*
X85348613Y-60104478D01*
X85469238Y-60071592D01*
X85469240Y-60071591D01*
X85477897Y-60069231D01*
X85600071Y-59994216D01*
X85626214Y-59965334D01*
X85690258Y-59894578D01*
X85696280Y-59887925D01*
X85758790Y-59758904D01*
X85782576Y-59617525D01*
X85782727Y-59605171D01*
X85781842Y-59598994D01*
X90994471Y-59598994D01*
X90995635Y-59607896D01*
X90995635Y-59607899D01*
X91001027Y-59649133D01*
X91013060Y-59741150D01*
X91016677Y-59749370D01*
X91058177Y-59843685D01*
X91070800Y-59872374D01*
X91076577Y-59879247D01*
X91076578Y-59879248D01*
X91082923Y-59886796D01*
X91163050Y-59982119D01*
X91282393Y-60061561D01*
X91419237Y-60104313D01*
X91428209Y-60104477D01*
X91428212Y-60104478D01*
X91493543Y-60105675D01*
X91562579Y-60106941D01*
X91571613Y-60104478D01*
X91692238Y-60071592D01*
X91692240Y-60071591D01*
X91700897Y-60069231D01*
X91823071Y-59994216D01*
X91849214Y-59965334D01*
X91913258Y-59894578D01*
X91919280Y-59887925D01*
X91981790Y-59758904D01*
X91989811Y-59711227D01*
X93168238Y-59711227D01*
X93169402Y-59720129D01*
X93169402Y-59720132D01*
X93170661Y-59729758D01*
X93186827Y-59853383D01*
X93244567Y-59984607D01*
X93250344Y-59991480D01*
X93250345Y-59991481D01*
X93257639Y-60000158D01*
X93336817Y-60094352D01*
X93456160Y-60173794D01*
X93593004Y-60216546D01*
X93601976Y-60216710D01*
X93601979Y-60216711D01*
X93667310Y-60217908D01*
X93736346Y-60219174D01*
X93745380Y-60216711D01*
X93866005Y-60183825D01*
X93866007Y-60183824D01*
X93874664Y-60181464D01*
X93996838Y-60106449D01*
X94093047Y-60000158D01*
X94155557Y-59871137D01*
X94179343Y-59729758D01*
X94179494Y-59717404D01*
X94170068Y-59651583D01*
X94160443Y-59584372D01*
X94160442Y-59584369D01*
X94159170Y-59575486D01*
X94155456Y-59567318D01*
X94152935Y-59558696D01*
X94155552Y-59557931D01*
X94147551Y-59501598D01*
X94177155Y-59437068D01*
X94236946Y-59398786D01*
X94307943Y-59398908D01*
X94342059Y-59414857D01*
X94353516Y-59422484D01*
X94490360Y-59465236D01*
X94499332Y-59465400D01*
X94499335Y-59465401D01*
X94564666Y-59466598D01*
X94633702Y-59467864D01*
X94642736Y-59465401D01*
X94763361Y-59432515D01*
X94763363Y-59432514D01*
X94772020Y-59430154D01*
X94894194Y-59355139D01*
X94911186Y-59336367D01*
X94984381Y-59255501D01*
X94990403Y-59248848D01*
X95025292Y-59176837D01*
X95048998Y-59127908D01*
X95048998Y-59127907D01*
X95052913Y-59119827D01*
X95076699Y-58978448D01*
X95076850Y-58966094D01*
X95068676Y-58909018D01*
X95057799Y-58833062D01*
X95057798Y-58833059D01*
X95056526Y-58824176D01*
X94997187Y-58693666D01*
X94967820Y-58659584D01*
X94909463Y-58591857D01*
X94909460Y-58591854D01*
X94903603Y-58585057D01*
X94783298Y-58507079D01*
X94738595Y-58493710D01*
X94679061Y-58455029D01*
X94649891Y-58390302D01*
X94650442Y-58352089D01*
X94671769Y-58225322D01*
X94671769Y-58225321D01*
X94672576Y-58220525D01*
X94672727Y-58208171D01*
X94658058Y-58105738D01*
X94653676Y-58075139D01*
X94653675Y-58075136D01*
X94652403Y-58066253D01*
X94593064Y-57935743D01*
X94574678Y-57914405D01*
X94505340Y-57833934D01*
X94505337Y-57833931D01*
X94499480Y-57827134D01*
X94379175Y-57749156D01*
X94241819Y-57708078D01*
X94232843Y-57708023D01*
X94232842Y-57708023D01*
X94172635Y-57707655D01*
X94098456Y-57707202D01*
X93960609Y-57746599D01*
X93839360Y-57823101D01*
X93744457Y-57930559D01*
X93683527Y-58060334D01*
X93676458Y-58105738D01*
X93668222Y-58158636D01*
X93661471Y-58201994D01*
X93662635Y-58210896D01*
X93662635Y-58210899D01*
X93664617Y-58226052D01*
X93680060Y-58344150D01*
X93683677Y-58352370D01*
X93732603Y-58463562D01*
X93737800Y-58475374D01*
X93830050Y-58585119D01*
X93949393Y-58664561D01*
X94000428Y-58680505D01*
X94059484Y-58719911D01*
X94087862Y-58784990D01*
X94087354Y-58820156D01*
X94070046Y-58931325D01*
X94065594Y-58959917D01*
X94066758Y-58968819D01*
X94066758Y-58968822D01*
X94068017Y-58978448D01*
X94084183Y-59102073D01*
X94089821Y-59114887D01*
X94098949Y-59185292D01*
X94068563Y-59249458D01*
X94008310Y-59287009D01*
X93937320Y-59286024D01*
X93905960Y-59271364D01*
X93893480Y-59263275D01*
X93893481Y-59263275D01*
X93885942Y-59258389D01*
X93748586Y-59217311D01*
X93739610Y-59217256D01*
X93739609Y-59217256D01*
X93679402Y-59216888D01*
X93605223Y-59216435D01*
X93467376Y-59255832D01*
X93346127Y-59332334D01*
X93251224Y-59439792D01*
X93190294Y-59569567D01*
X93183272Y-59614669D01*
X93177735Y-59650233D01*
X93168238Y-59711227D01*
X91989811Y-59711227D01*
X92005576Y-59617525D01*
X92005727Y-59605171D01*
X91997553Y-59548095D01*
X91986676Y-59472139D01*
X91986675Y-59472136D01*
X91985403Y-59463253D01*
X91973498Y-59437068D01*
X91938382Y-59359835D01*
X91926064Y-59332743D01*
X91885808Y-59286024D01*
X91838340Y-59230934D01*
X91838337Y-59230931D01*
X91832480Y-59224134D01*
X91712175Y-59146156D01*
X91574819Y-59105078D01*
X91565843Y-59105023D01*
X91565842Y-59105023D01*
X91505635Y-59104655D01*
X91431456Y-59104202D01*
X91293609Y-59143599D01*
X91172360Y-59220101D01*
X91166418Y-59226829D01*
X91166417Y-59226830D01*
X91141096Y-59255501D01*
X91077457Y-59327559D01*
X91016527Y-59457334D01*
X91014888Y-59467864D01*
X90996748Y-59584372D01*
X90994471Y-59598994D01*
X85781842Y-59598994D01*
X85774553Y-59548095D01*
X85763676Y-59472139D01*
X85763675Y-59472136D01*
X85762403Y-59463253D01*
X85750498Y-59437068D01*
X85715382Y-59359835D01*
X85703064Y-59332743D01*
X85662808Y-59286024D01*
X85615340Y-59230934D01*
X85615337Y-59230931D01*
X85609480Y-59224134D01*
X85489175Y-59146156D01*
X85351819Y-59105078D01*
X85342843Y-59105023D01*
X85342842Y-59105023D01*
X85282635Y-59104655D01*
X85208456Y-59104202D01*
X85070609Y-59143599D01*
X84949360Y-59220101D01*
X84943418Y-59226829D01*
X84943417Y-59226830D01*
X84918096Y-59255501D01*
X84854457Y-59327559D01*
X84793527Y-59457334D01*
X84791888Y-59467864D01*
X84773748Y-59584372D01*
X84771471Y-59598994D01*
X70643562Y-59598994D01*
X70517268Y-59348485D01*
X70284756Y-58887289D01*
X70282379Y-58882307D01*
X69932646Y-58105738D01*
X69930490Y-58100656D01*
X69927647Y-58093525D01*
X69920260Y-58074994D01*
X90486471Y-58074994D01*
X90487635Y-58083896D01*
X90487635Y-58083899D01*
X90490162Y-58103222D01*
X90505060Y-58217150D01*
X90562800Y-58348374D01*
X90568577Y-58355247D01*
X90568578Y-58355248D01*
X90574173Y-58361904D01*
X90655050Y-58458119D01*
X90774393Y-58537561D01*
X90911237Y-58580313D01*
X90920209Y-58580477D01*
X90920212Y-58580478D01*
X90985543Y-58581675D01*
X91054579Y-58582941D01*
X91063613Y-58580478D01*
X91184238Y-58547592D01*
X91184240Y-58547591D01*
X91192897Y-58545231D01*
X91315071Y-58470216D01*
X91328818Y-58455029D01*
X91405258Y-58370578D01*
X91411280Y-58363925D01*
X91473790Y-58234904D01*
X91497576Y-58093525D01*
X91497727Y-58081171D01*
X91477403Y-57939253D01*
X91418064Y-57808743D01*
X91399678Y-57787405D01*
X91330340Y-57706934D01*
X91330337Y-57706931D01*
X91324480Y-57700134D01*
X91204175Y-57622156D01*
X91066819Y-57581078D01*
X91057843Y-57581023D01*
X91057842Y-57581023D01*
X90997635Y-57580655D01*
X90923456Y-57580202D01*
X90785609Y-57619599D01*
X90664360Y-57696101D01*
X90569457Y-57803559D01*
X90508527Y-57933334D01*
X90506222Y-57948139D01*
X90488754Y-58060334D01*
X90486471Y-58074994D01*
X69920260Y-58074994D01*
X69615102Y-57309505D01*
X69613187Y-57304376D01*
X69394762Y-56677994D01*
X92010471Y-56677994D01*
X92011635Y-56686896D01*
X92011635Y-56686899D01*
X92012894Y-56696525D01*
X92029060Y-56820150D01*
X92086800Y-56951374D01*
X92092577Y-56958247D01*
X92092578Y-56958248D01*
X92099872Y-56966925D01*
X92179050Y-57061119D01*
X92298393Y-57140561D01*
X92435237Y-57183313D01*
X92444209Y-57183477D01*
X92444212Y-57183478D01*
X92509543Y-57184675D01*
X92578579Y-57185941D01*
X92587613Y-57183478D01*
X92708238Y-57150592D01*
X92708240Y-57150591D01*
X92716897Y-57148231D01*
X92839071Y-57073216D01*
X92935280Y-56966925D01*
X92997790Y-56837904D01*
X93021576Y-56696525D01*
X93021727Y-56684171D01*
X93020842Y-56677994D01*
X100392471Y-56677994D01*
X100393635Y-56686896D01*
X100393635Y-56686899D01*
X100394894Y-56696525D01*
X100411060Y-56820150D01*
X100468800Y-56951374D01*
X100474577Y-56958247D01*
X100474578Y-56958248D01*
X100481872Y-56966925D01*
X100561050Y-57061119D01*
X100680393Y-57140561D01*
X100817237Y-57183313D01*
X100826209Y-57183477D01*
X100826212Y-57183478D01*
X100891543Y-57184675D01*
X100960579Y-57185941D01*
X100969613Y-57183478D01*
X101090238Y-57150592D01*
X101090240Y-57150591D01*
X101098897Y-57148231D01*
X101221071Y-57073216D01*
X101317280Y-56966925D01*
X101379790Y-56837904D01*
X101403576Y-56696525D01*
X101403727Y-56684171D01*
X101390301Y-56590422D01*
X101384676Y-56551139D01*
X101384675Y-56551136D01*
X101383403Y-56542253D01*
X101324064Y-56411743D01*
X101297781Y-56381240D01*
X101236340Y-56309934D01*
X101236337Y-56309931D01*
X101230480Y-56303134D01*
X101110175Y-56225156D01*
X100972819Y-56184078D01*
X100963843Y-56184023D01*
X100963842Y-56184023D01*
X100903635Y-56183655D01*
X100829456Y-56183202D01*
X100691609Y-56222599D01*
X100570360Y-56299101D01*
X100475457Y-56406559D01*
X100414527Y-56536334D01*
X100409588Y-56568054D01*
X100400516Y-56626325D01*
X100392471Y-56677994D01*
X93020842Y-56677994D01*
X93008301Y-56590422D01*
X93002676Y-56551139D01*
X93002675Y-56551136D01*
X93001403Y-56542253D01*
X92942064Y-56411743D01*
X92915781Y-56381240D01*
X92854340Y-56309934D01*
X92854337Y-56309931D01*
X92848480Y-56303134D01*
X92728175Y-56225156D01*
X92590819Y-56184078D01*
X92581843Y-56184023D01*
X92581842Y-56184023D01*
X92521635Y-56183655D01*
X92447456Y-56183202D01*
X92309609Y-56222599D01*
X92188360Y-56299101D01*
X92093457Y-56406559D01*
X92032527Y-56536334D01*
X92027588Y-56568054D01*
X92018516Y-56626325D01*
X92010471Y-56677994D01*
X69394762Y-56677994D01*
X69348652Y-56545764D01*
X69341626Y-56504207D01*
X69341674Y-56421579D01*
X69342036Y-55788994D01*
X79818471Y-55788994D01*
X79819635Y-55797896D01*
X79819635Y-55797899D01*
X79820894Y-55807525D01*
X79837060Y-55931150D01*
X79894800Y-56062374D01*
X79900577Y-56069247D01*
X79900578Y-56069248D01*
X79906173Y-56075904D01*
X79987050Y-56172119D01*
X80106393Y-56251561D01*
X80243237Y-56294313D01*
X80252209Y-56294477D01*
X80252212Y-56294478D01*
X80317543Y-56295675D01*
X80386579Y-56296941D01*
X80395613Y-56294478D01*
X80516238Y-56261592D01*
X80516240Y-56261591D01*
X80524897Y-56259231D01*
X80647071Y-56184216D01*
X80743280Y-56077925D01*
X80805790Y-55948904D01*
X80811327Y-55915994D01*
X85787471Y-55915994D01*
X85788635Y-55924896D01*
X85788635Y-55924899D01*
X85790617Y-55940052D01*
X85806060Y-56058150D01*
X85809677Y-56066370D01*
X85858603Y-56177562D01*
X85863800Y-56189374D01*
X85869577Y-56196247D01*
X85869578Y-56196248D01*
X85891715Y-56222583D01*
X85956050Y-56299119D01*
X86075393Y-56378561D01*
X86212237Y-56421313D01*
X86221209Y-56421477D01*
X86221212Y-56421478D01*
X86286543Y-56422675D01*
X86355579Y-56423941D01*
X86364613Y-56421478D01*
X86485238Y-56388592D01*
X86485240Y-56388591D01*
X86493897Y-56386231D01*
X86616071Y-56311216D01*
X86623387Y-56303134D01*
X86696297Y-56222583D01*
X86712280Y-56204925D01*
X86747169Y-56132914D01*
X86770875Y-56083985D01*
X86770875Y-56083984D01*
X86774790Y-56075904D01*
X86798576Y-55934525D01*
X86798727Y-55922171D01*
X86788576Y-55851286D01*
X86779676Y-55789139D01*
X86779675Y-55789136D01*
X86778403Y-55780253D01*
X86719064Y-55649743D01*
X86700678Y-55628405D01*
X86631340Y-55547934D01*
X86631337Y-55547931D01*
X86625480Y-55541134D01*
X86505175Y-55463156D01*
X86367819Y-55422078D01*
X86358843Y-55422023D01*
X86358842Y-55422023D01*
X86298635Y-55421655D01*
X86224456Y-55421202D01*
X86086609Y-55460599D01*
X85965360Y-55537101D01*
X85870457Y-55644559D01*
X85809527Y-55774334D01*
X85807222Y-55789139D01*
X85797654Y-55850594D01*
X85787471Y-55915994D01*
X80811327Y-55915994D01*
X80829576Y-55807525D01*
X80829652Y-55801307D01*
X80829668Y-55800030D01*
X80829668Y-55800025D01*
X80829727Y-55795171D01*
X80809403Y-55653253D01*
X80750064Y-55522743D01*
X80723781Y-55492240D01*
X80662340Y-55420934D01*
X80662337Y-55420931D01*
X80656480Y-55414134D01*
X80536175Y-55336156D01*
X80398819Y-55295078D01*
X80389843Y-55295023D01*
X80389842Y-55295023D01*
X80329635Y-55294655D01*
X80255456Y-55294202D01*
X80117609Y-55333599D01*
X79996360Y-55410101D01*
X79901457Y-55517559D01*
X79840527Y-55647334D01*
X79838222Y-55662139D01*
X79820754Y-55774334D01*
X79818471Y-55788994D01*
X69342036Y-55788994D01*
X69342473Y-55026994D01*
X96455471Y-55026994D01*
X96456635Y-55035896D01*
X96456635Y-55035899D01*
X96457271Y-55040760D01*
X96474060Y-55169150D01*
X96531800Y-55300374D01*
X96537577Y-55307247D01*
X96537578Y-55307248D01*
X96618270Y-55403243D01*
X96624050Y-55410119D01*
X96631527Y-55415096D01*
X96705966Y-55464647D01*
X96743393Y-55489561D01*
X96880237Y-55532313D01*
X96889209Y-55532477D01*
X96889212Y-55532478D01*
X96954543Y-55533675D01*
X97023579Y-55534941D01*
X97032613Y-55532478D01*
X97153238Y-55499592D01*
X97153240Y-55499591D01*
X97161897Y-55497231D01*
X97284071Y-55422216D01*
X97291387Y-55414134D01*
X97364297Y-55333583D01*
X97380280Y-55315925D01*
X97442790Y-55186904D01*
X97466576Y-55045525D01*
X97466727Y-55033171D01*
X97446403Y-54891253D01*
X97436589Y-54869667D01*
X97433228Y-54862276D01*
X98549111Y-54862276D01*
X98550885Y-54869663D01*
X98550885Y-54869667D01*
X98558201Y-54900139D01*
X98588692Y-55027139D01*
X98592173Y-55033883D01*
X98592174Y-55033886D01*
X98657393Y-55160245D01*
X98666455Y-55177802D01*
X98671447Y-55183524D01*
X98671448Y-55183526D01*
X98733888Y-55255102D01*
X98777911Y-55305567D01*
X98814288Y-55331133D01*
X98910410Y-55398689D01*
X98910412Y-55398690D01*
X98916627Y-55403058D01*
X99074593Y-55464647D01*
X99082126Y-55465639D01*
X99082127Y-55465639D01*
X99199819Y-55481133D01*
X99203906Y-55481671D01*
X100392596Y-55481671D01*
X100518400Y-55466447D01*
X100677003Y-55406516D01*
X100772268Y-55341042D01*
X100810472Y-55314785D01*
X100810473Y-55314784D01*
X100816731Y-55310483D01*
X100829039Y-55296669D01*
X100924468Y-55189563D01*
X100924470Y-55189559D01*
X100929520Y-55183892D01*
X100936318Y-55171054D01*
X100965334Y-55116251D01*
X101008856Y-55034052D01*
X101050161Y-54869612D01*
X101050199Y-54862276D01*
X102979111Y-54862276D01*
X102980885Y-54869663D01*
X102980885Y-54869667D01*
X102988201Y-54900139D01*
X103018692Y-55027139D01*
X103022173Y-55033883D01*
X103022174Y-55033886D01*
X103087393Y-55160245D01*
X103096455Y-55177802D01*
X103101447Y-55183524D01*
X103101448Y-55183526D01*
X103163888Y-55255102D01*
X103207911Y-55305567D01*
X103244288Y-55331133D01*
X103340410Y-55398689D01*
X103340412Y-55398690D01*
X103346627Y-55403058D01*
X103504593Y-55464647D01*
X103512126Y-55465639D01*
X103512127Y-55465639D01*
X103629819Y-55481133D01*
X103633906Y-55481671D01*
X104322596Y-55481671D01*
X104448400Y-55466447D01*
X104607003Y-55406516D01*
X104702268Y-55341042D01*
X104740472Y-55314785D01*
X104740473Y-55314784D01*
X104746731Y-55310483D01*
X104759039Y-55296669D01*
X104854468Y-55189563D01*
X104854470Y-55189559D01*
X104859520Y-55183892D01*
X104866318Y-55171054D01*
X104895334Y-55116251D01*
X104938856Y-55034052D01*
X104980161Y-54869612D01*
X104981049Y-54700066D01*
X104974515Y-54672848D01*
X104943241Y-54542588D01*
X104941468Y-54535203D01*
X104936329Y-54525245D01*
X104867188Y-54391288D01*
X104867188Y-54391287D01*
X104863705Y-54384540D01*
X104858393Y-54378450D01*
X104757243Y-54262500D01*
X104752249Y-54256775D01*
X104693729Y-54215646D01*
X104619750Y-54163653D01*
X104619748Y-54163652D01*
X104613533Y-54159284D01*
X104455567Y-54097695D01*
X104448034Y-54096703D01*
X104448033Y-54096703D01*
X104330341Y-54081209D01*
X104330340Y-54081209D01*
X104326254Y-54080671D01*
X103637564Y-54080671D01*
X103511760Y-54095895D01*
X103353157Y-54155826D01*
X103346899Y-54160127D01*
X103227473Y-54242207D01*
X103213429Y-54251859D01*
X103208377Y-54257529D01*
X103208376Y-54257530D01*
X103105692Y-54372779D01*
X103105690Y-54372783D01*
X103100640Y-54378450D01*
X103097088Y-54385159D01*
X103097087Y-54385160D01*
X103086231Y-54405664D01*
X103021304Y-54528290D01*
X102979999Y-54692730D01*
X102979959Y-54700328D01*
X102979959Y-54700330D01*
X102979801Y-54730535D01*
X102979111Y-54862276D01*
X101050199Y-54862276D01*
X101051049Y-54700066D01*
X101044515Y-54672848D01*
X101013241Y-54542588D01*
X101011468Y-54535203D01*
X101006329Y-54525245D01*
X100937188Y-54391288D01*
X100937188Y-54391287D01*
X100933705Y-54384540D01*
X100928393Y-54378450D01*
X100827243Y-54262500D01*
X100822249Y-54256775D01*
X100763729Y-54215646D01*
X100689750Y-54163653D01*
X100689748Y-54163652D01*
X100683533Y-54159284D01*
X100676457Y-54156525D01*
X100676453Y-54156523D01*
X100563168Y-54112355D01*
X100506966Y-54068974D01*
X100483140Y-54002095D01*
X100499254Y-53932951D01*
X100550191Y-53883495D01*
X100560713Y-53878556D01*
X100620313Y-53853869D01*
X100740531Y-53761622D01*
X100832778Y-53641404D01*
X100890767Y-53501407D01*
X100910546Y-53351171D01*
X100890767Y-53200935D01*
X100832778Y-53060938D01*
X100740531Y-52940720D01*
X100620313Y-52848473D01*
X100480316Y-52790484D01*
X100367800Y-52775671D01*
X100292360Y-52775671D01*
X100179844Y-52790484D01*
X100039847Y-52848473D01*
X99919629Y-52940720D01*
X99827382Y-53060938D01*
X99769393Y-53200935D01*
X99749614Y-53351171D01*
X99769393Y-53501407D01*
X99827382Y-53641404D01*
X99919629Y-53761622D01*
X99926179Y-53766648D01*
X100039847Y-53853869D01*
X100037921Y-53856379D01*
X100076590Y-53896932D01*
X100090028Y-53966645D01*
X100063642Y-54032557D01*
X100005811Y-54073740D01*
X99964598Y-54080671D01*
X99207564Y-54080671D01*
X99081760Y-54095895D01*
X98923157Y-54155826D01*
X98916899Y-54160127D01*
X98797473Y-54242207D01*
X98783429Y-54251859D01*
X98778377Y-54257529D01*
X98778376Y-54257530D01*
X98675692Y-54372779D01*
X98675690Y-54372783D01*
X98670640Y-54378450D01*
X98667088Y-54385159D01*
X98667087Y-54385160D01*
X98656231Y-54405664D01*
X98591304Y-54528290D01*
X98549999Y-54692730D01*
X98549959Y-54700328D01*
X98549959Y-54700330D01*
X98549801Y-54730535D01*
X98549111Y-54862276D01*
X97433228Y-54862276D01*
X97427259Y-54849148D01*
X97387064Y-54760743D01*
X97360781Y-54730240D01*
X97299340Y-54658934D01*
X97299337Y-54658931D01*
X97293480Y-54652134D01*
X97173175Y-54574156D01*
X97035819Y-54533078D01*
X97026843Y-54533023D01*
X97026842Y-54533023D01*
X96966635Y-54532655D01*
X96892456Y-54532202D01*
X96754609Y-54571599D01*
X96633360Y-54648101D01*
X96538457Y-54755559D01*
X96477527Y-54885334D01*
X96455471Y-55026994D01*
X69342473Y-55026994D01*
X69342837Y-54391994D01*
X72198471Y-54391994D01*
X72199635Y-54400896D01*
X72199635Y-54400899D01*
X72201617Y-54416052D01*
X72217060Y-54534150D01*
X72220677Y-54542370D01*
X72270161Y-54654830D01*
X72274800Y-54665374D01*
X72280577Y-54672247D01*
X72280578Y-54672248D01*
X72304183Y-54700330D01*
X72367050Y-54775119D01*
X72486393Y-54854561D01*
X72623237Y-54897313D01*
X72632209Y-54897477D01*
X72632212Y-54897478D01*
X72697543Y-54898675D01*
X72766579Y-54899941D01*
X72775613Y-54897478D01*
X72896238Y-54864592D01*
X72896240Y-54864591D01*
X72904897Y-54862231D01*
X73027071Y-54787216D01*
X73123280Y-54680925D01*
X73177443Y-54569133D01*
X73181875Y-54559985D01*
X73181875Y-54559984D01*
X73185790Y-54551904D01*
X73209576Y-54410525D01*
X73209727Y-54398171D01*
X73201553Y-54341095D01*
X73190676Y-54265139D01*
X73190675Y-54265136D01*
X73190655Y-54264994D01*
X79818471Y-54264994D01*
X79819635Y-54273896D01*
X79819635Y-54273899D01*
X79820894Y-54283525D01*
X79837060Y-54407150D01*
X79894800Y-54538374D01*
X79900577Y-54545247D01*
X79900578Y-54545248D01*
X79922715Y-54571583D01*
X79987050Y-54648119D01*
X80106393Y-54727561D01*
X80243237Y-54770313D01*
X80252209Y-54770477D01*
X80252212Y-54770478D01*
X80317543Y-54771675D01*
X80386579Y-54772941D01*
X80395613Y-54770478D01*
X80516238Y-54737592D01*
X80516240Y-54737591D01*
X80524897Y-54735231D01*
X80647071Y-54660216D01*
X80654387Y-54652134D01*
X80727297Y-54571583D01*
X80743280Y-54553925D01*
X80805790Y-54424904D01*
X80811327Y-54391994D01*
X91756471Y-54391994D01*
X91757635Y-54400896D01*
X91757635Y-54400899D01*
X91759617Y-54416052D01*
X91775060Y-54534150D01*
X91778677Y-54542370D01*
X91828161Y-54654830D01*
X91832800Y-54665374D01*
X91838577Y-54672247D01*
X91838578Y-54672248D01*
X91862183Y-54700330D01*
X91925050Y-54775119D01*
X92044393Y-54854561D01*
X92181237Y-54897313D01*
X92190209Y-54897477D01*
X92190212Y-54897478D01*
X92255543Y-54898675D01*
X92324579Y-54899941D01*
X92333613Y-54897478D01*
X92454238Y-54864592D01*
X92454240Y-54864591D01*
X92462897Y-54862231D01*
X92585071Y-54787216D01*
X92681280Y-54680925D01*
X92735443Y-54569133D01*
X92739875Y-54559985D01*
X92739875Y-54559984D01*
X92743790Y-54551904D01*
X92767576Y-54410525D01*
X92767727Y-54398171D01*
X92759553Y-54341095D01*
X92748676Y-54265139D01*
X92748675Y-54265136D01*
X92747403Y-54256253D01*
X92688064Y-54125743D01*
X92643255Y-54073740D01*
X92600340Y-54023934D01*
X92600337Y-54023931D01*
X92594480Y-54017134D01*
X92474175Y-53939156D01*
X92336819Y-53898078D01*
X92327843Y-53898023D01*
X92327842Y-53898023D01*
X92267635Y-53897655D01*
X92193456Y-53897202D01*
X92055609Y-53936599D01*
X91934360Y-54013101D01*
X91839457Y-54120559D01*
X91778527Y-54250334D01*
X91776222Y-54265139D01*
X91758523Y-54378816D01*
X91756471Y-54391994D01*
X80811327Y-54391994D01*
X80829576Y-54283525D01*
X80829727Y-54271171D01*
X80821553Y-54214095D01*
X80810676Y-54138139D01*
X80810675Y-54138136D01*
X80809403Y-54129253D01*
X80795457Y-54098579D01*
X80765438Y-54032557D01*
X80750064Y-53998743D01*
X80731678Y-53977405D01*
X80662340Y-53896934D01*
X80662337Y-53896931D01*
X80656480Y-53890134D01*
X80536175Y-53812156D01*
X80398819Y-53771078D01*
X80389843Y-53771023D01*
X80389842Y-53771023D01*
X80329635Y-53770655D01*
X80255456Y-53770202D01*
X80117609Y-53809599D01*
X79996360Y-53886101D01*
X79901457Y-53993559D01*
X79840527Y-54123334D01*
X79831290Y-54182661D01*
X79820431Y-54252408D01*
X79818471Y-54264994D01*
X73190655Y-54264994D01*
X73189403Y-54256253D01*
X73130064Y-54125743D01*
X73085255Y-54073740D01*
X73042340Y-54023934D01*
X73042337Y-54023931D01*
X73036480Y-54017134D01*
X72916175Y-53939156D01*
X72778819Y-53898078D01*
X72769843Y-53898023D01*
X72769842Y-53898023D01*
X72709635Y-53897655D01*
X72635456Y-53897202D01*
X72497609Y-53936599D01*
X72376360Y-54013101D01*
X72281457Y-54120559D01*
X72220527Y-54250334D01*
X72218222Y-54265139D01*
X72200523Y-54378816D01*
X72198471Y-54391994D01*
X69342837Y-54391994D01*
X69343637Y-52994994D01*
X83120471Y-52994994D01*
X83121635Y-53003896D01*
X83121635Y-53003899D01*
X83122894Y-53013525D01*
X83139060Y-53137150D01*
X83196800Y-53268374D01*
X83202577Y-53275247D01*
X83202578Y-53275248D01*
X83283270Y-53371243D01*
X83289050Y-53378119D01*
X83408393Y-53457561D01*
X83545237Y-53500313D01*
X83554209Y-53500477D01*
X83554212Y-53500478D01*
X83619543Y-53501675D01*
X83688579Y-53502941D01*
X83697613Y-53500478D01*
X83818238Y-53467592D01*
X83818240Y-53467591D01*
X83826897Y-53465231D01*
X83949071Y-53390216D01*
X83984413Y-53351171D01*
X84039258Y-53290578D01*
X84045280Y-53283925D01*
X84085488Y-53200935D01*
X84103875Y-53162985D01*
X84103875Y-53162984D01*
X84107790Y-53154904D01*
X84131576Y-53013525D01*
X84131727Y-53001171D01*
X84130842Y-52994994D01*
X91248471Y-52994994D01*
X91249635Y-53003896D01*
X91249635Y-53003899D01*
X91250894Y-53013525D01*
X91267060Y-53137150D01*
X91324800Y-53268374D01*
X91330577Y-53275247D01*
X91330578Y-53275248D01*
X91411270Y-53371243D01*
X91417050Y-53378119D01*
X91536393Y-53457561D01*
X91673237Y-53500313D01*
X91682209Y-53500477D01*
X91682212Y-53500478D01*
X91747543Y-53501675D01*
X91816579Y-53502941D01*
X91825613Y-53500478D01*
X91946238Y-53467592D01*
X91946240Y-53467591D01*
X91954897Y-53465231D01*
X92077071Y-53390216D01*
X92112413Y-53351171D01*
X92167258Y-53290578D01*
X92173280Y-53283925D01*
X92213488Y-53200935D01*
X92231875Y-53162985D01*
X92231875Y-53162984D01*
X92235790Y-53154904D01*
X92259576Y-53013525D01*
X92259727Y-53001171D01*
X92239403Y-52859253D01*
X92180064Y-52728743D01*
X92161678Y-52707405D01*
X92092340Y-52626934D01*
X92092337Y-52626931D01*
X92086480Y-52620134D01*
X91966175Y-52542156D01*
X91828819Y-52501078D01*
X91819843Y-52501023D01*
X91819842Y-52501023D01*
X91759635Y-52500655D01*
X91685456Y-52500202D01*
X91547609Y-52539599D01*
X91426360Y-52616101D01*
X91331457Y-52723559D01*
X91270527Y-52853334D01*
X91248471Y-52994994D01*
X84130842Y-52994994D01*
X84111403Y-52859253D01*
X84052064Y-52728743D01*
X84033678Y-52707405D01*
X83964340Y-52626934D01*
X83964337Y-52626931D01*
X83958480Y-52620134D01*
X83838175Y-52542156D01*
X83700819Y-52501078D01*
X83691843Y-52501023D01*
X83691842Y-52501023D01*
X83631635Y-52500655D01*
X83557456Y-52500202D01*
X83419609Y-52539599D01*
X83298360Y-52616101D01*
X83203457Y-52723559D01*
X83142527Y-52853334D01*
X83120471Y-52994994D01*
X69343637Y-52994994D01*
X69344801Y-50962994D01*
X76643471Y-50962994D01*
X76644635Y-50971896D01*
X76644635Y-50971899D01*
X76645894Y-50981525D01*
X76662060Y-51105150D01*
X76719800Y-51236374D01*
X76725577Y-51243247D01*
X76725578Y-51243248D01*
X76732872Y-51251925D01*
X76812050Y-51346119D01*
X76931393Y-51425561D01*
X77068237Y-51468313D01*
X77077209Y-51468477D01*
X77077212Y-51468478D01*
X77142543Y-51469675D01*
X77211579Y-51470941D01*
X77220613Y-51468478D01*
X77341238Y-51435592D01*
X77341240Y-51435591D01*
X77349897Y-51433231D01*
X77472071Y-51358216D01*
X77568280Y-51251925D01*
X77630790Y-51122904D01*
X77654576Y-50981525D01*
X77654727Y-50969171D01*
X77636672Y-50843096D01*
X77635676Y-50836139D01*
X77635675Y-50836136D01*
X77634403Y-50827253D01*
X77575064Y-50696743D01*
X77542569Y-50659031D01*
X77949330Y-50659031D01*
X77950494Y-50667933D01*
X77950494Y-50667936D01*
X77954261Y-50696743D01*
X77967919Y-50801187D01*
X78025659Y-50932411D01*
X78031436Y-50939284D01*
X78031437Y-50939285D01*
X78056559Y-50969171D01*
X78117909Y-51042156D01*
X78237252Y-51121598D01*
X78374096Y-51164350D01*
X78383068Y-51164514D01*
X78383071Y-51164515D01*
X78448402Y-51165712D01*
X78517438Y-51166978D01*
X78526472Y-51164515D01*
X78647097Y-51131629D01*
X78647099Y-51131628D01*
X78655756Y-51129268D01*
X78777930Y-51054253D01*
X78874139Y-50947962D01*
X78919221Y-50854912D01*
X78932734Y-50827022D01*
X78932734Y-50827021D01*
X78936649Y-50818941D01*
X78960435Y-50677562D01*
X78960586Y-50665208D01*
X78952017Y-50605370D01*
X78941535Y-50532176D01*
X78941534Y-50532173D01*
X78940262Y-50523290D01*
X78934291Y-50510156D01*
X78915215Y-50468202D01*
X78880923Y-50392780D01*
X78862537Y-50371442D01*
X78793199Y-50290971D01*
X78793196Y-50290968D01*
X78787339Y-50284171D01*
X78667034Y-50206193D01*
X78529678Y-50165115D01*
X78520702Y-50165060D01*
X78520701Y-50165060D01*
X78460494Y-50164692D01*
X78386315Y-50164239D01*
X78248468Y-50203636D01*
X78127219Y-50280138D01*
X78032316Y-50387596D01*
X77971386Y-50517371D01*
X77970005Y-50526243D01*
X77957579Y-50606052D01*
X77949330Y-50659031D01*
X77542569Y-50659031D01*
X77504547Y-50614904D01*
X77487340Y-50594934D01*
X77487337Y-50594931D01*
X77481480Y-50588134D01*
X77361175Y-50510156D01*
X77223819Y-50469078D01*
X77214843Y-50469023D01*
X77214842Y-50469023D01*
X77154635Y-50468655D01*
X77080456Y-50468202D01*
X76942609Y-50507599D01*
X76821360Y-50584101D01*
X76815418Y-50590829D01*
X76815417Y-50590830D01*
X76802576Y-50605370D01*
X76726457Y-50691559D01*
X76665527Y-50821334D01*
X76663222Y-50836139D01*
X76648233Y-50932411D01*
X76643471Y-50962994D01*
X69344801Y-50962994D01*
X69345092Y-50454994D01*
X72138471Y-50454994D01*
X72139635Y-50463896D01*
X72139635Y-50463899D01*
X72140649Y-50471651D01*
X72157060Y-50597150D01*
X72160677Y-50605370D01*
X72202177Y-50699685D01*
X72214800Y-50728374D01*
X72220577Y-50735247D01*
X72220578Y-50735248D01*
X72282915Y-50809407D01*
X72307050Y-50838119D01*
X72426393Y-50917561D01*
X72563237Y-50960313D01*
X72572209Y-50960477D01*
X72572212Y-50960478D01*
X72637543Y-50961675D01*
X72706579Y-50962941D01*
X72715613Y-50960478D01*
X72836238Y-50927592D01*
X72836240Y-50927591D01*
X72844897Y-50925231D01*
X72967071Y-50850216D01*
X72993214Y-50821334D01*
X73057258Y-50750578D01*
X73063280Y-50743925D01*
X73125790Y-50614904D01*
X73149576Y-50473525D01*
X73149727Y-50461171D01*
X73131672Y-50335096D01*
X73130676Y-50328139D01*
X73130675Y-50328136D01*
X73129403Y-50319253D01*
X73070064Y-50188743D01*
X72999547Y-50106904D01*
X72982340Y-50086934D01*
X72982337Y-50086931D01*
X72976480Y-50080134D01*
X72856175Y-50002156D01*
X72718819Y-49961078D01*
X72709843Y-49961023D01*
X72709842Y-49961023D01*
X72649635Y-49960655D01*
X72575456Y-49960202D01*
X72437609Y-49999599D01*
X72316360Y-50076101D01*
X72310418Y-50082829D01*
X72310417Y-50082830D01*
X72297576Y-50097370D01*
X72221457Y-50183559D01*
X72160527Y-50313334D01*
X72158222Y-50328139D01*
X72144351Y-50417231D01*
X72138471Y-50454994D01*
X69345092Y-50454994D01*
X69345383Y-49946994D01*
X94423471Y-49946994D01*
X94424635Y-49955896D01*
X94424635Y-49955899D01*
X94425649Y-49963651D01*
X94442060Y-50089150D01*
X94445677Y-50097370D01*
X94487177Y-50191685D01*
X94499800Y-50220374D01*
X94505577Y-50227247D01*
X94505578Y-50227248D01*
X94512872Y-50235925D01*
X94592050Y-50330119D01*
X94599527Y-50335096D01*
X94675964Y-50385977D01*
X94711393Y-50409561D01*
X94848237Y-50452313D01*
X94857209Y-50452477D01*
X94857212Y-50452478D01*
X94922543Y-50453675D01*
X94991579Y-50454941D01*
X95000613Y-50452478D01*
X95121238Y-50419592D01*
X95121240Y-50419591D01*
X95129897Y-50417231D01*
X95252071Y-50342216D01*
X95278214Y-50313334D01*
X95342258Y-50242578D01*
X95348280Y-50235925D01*
X95410790Y-50106904D01*
X95434576Y-49965525D01*
X95434727Y-49953171D01*
X95414403Y-49811253D01*
X95355064Y-49680743D01*
X95328781Y-49650240D01*
X95267340Y-49578934D01*
X95267337Y-49578931D01*
X95261480Y-49572134D01*
X95141175Y-49494156D01*
X95003819Y-49453078D01*
X94994843Y-49453023D01*
X94994842Y-49453023D01*
X94934635Y-49452655D01*
X94860456Y-49452202D01*
X94722609Y-49491599D01*
X94601360Y-49568101D01*
X94506457Y-49675559D01*
X94445527Y-49805334D01*
X94423471Y-49946994D01*
X69345383Y-49946994D01*
X69345928Y-48995327D01*
X81070484Y-48995327D01*
X81071648Y-49004229D01*
X81071648Y-49004232D01*
X81077922Y-49052206D01*
X81089073Y-49137483D01*
X81146813Y-49268707D01*
X81152590Y-49275580D01*
X81152591Y-49275581D01*
X81159885Y-49284258D01*
X81239063Y-49378452D01*
X81358406Y-49457894D01*
X81495250Y-49500646D01*
X81504222Y-49500810D01*
X81504225Y-49500811D01*
X81569556Y-49502008D01*
X81638592Y-49503274D01*
X81647626Y-49500811D01*
X81768251Y-49467925D01*
X81768253Y-49467924D01*
X81776910Y-49465564D01*
X81899084Y-49390549D01*
X81940400Y-49344904D01*
X81989271Y-49290911D01*
X81995293Y-49284258D01*
X82038039Y-49196030D01*
X82043386Y-49184994D01*
X93280471Y-49184994D01*
X93281635Y-49193896D01*
X93281635Y-49193899D01*
X93282894Y-49203525D01*
X93299060Y-49327150D01*
X93356800Y-49458374D01*
X93362577Y-49465247D01*
X93362578Y-49465248D01*
X93394542Y-49503274D01*
X93449050Y-49568119D01*
X93568393Y-49647561D01*
X93705237Y-49690313D01*
X93714209Y-49690477D01*
X93714212Y-49690478D01*
X93779543Y-49691675D01*
X93848579Y-49692941D01*
X93857613Y-49690478D01*
X93978238Y-49657592D01*
X93978240Y-49657591D01*
X93986897Y-49655231D01*
X94109071Y-49580216D01*
X94116387Y-49572134D01*
X94189297Y-49491583D01*
X94205280Y-49473925D01*
X94267790Y-49344904D01*
X94291576Y-49203525D01*
X94291727Y-49191171D01*
X94271403Y-49049253D01*
X94212064Y-48918743D01*
X94168748Y-48868472D01*
X94124340Y-48816934D01*
X94124337Y-48816931D01*
X94118480Y-48810134D01*
X93998175Y-48732156D01*
X93860819Y-48691078D01*
X93851843Y-48691023D01*
X93851842Y-48691023D01*
X93791635Y-48690655D01*
X93717456Y-48690202D01*
X93579609Y-48729599D01*
X93458360Y-48806101D01*
X93363457Y-48913559D01*
X93302527Y-49043334D01*
X93301146Y-49052206D01*
X93283846Y-49163318D01*
X93280471Y-49184994D01*
X82043386Y-49184994D01*
X82053888Y-49163318D01*
X82053888Y-49163317D01*
X82057803Y-49155237D01*
X82081589Y-49013858D01*
X82081740Y-49001504D01*
X82073566Y-48944428D01*
X82062689Y-48868472D01*
X82062688Y-48868469D01*
X82061416Y-48859586D01*
X82002077Y-48729076D01*
X81968581Y-48690202D01*
X81914353Y-48627267D01*
X81914350Y-48627264D01*
X81908493Y-48620467D01*
X81788188Y-48542489D01*
X81650832Y-48501411D01*
X81641856Y-48501356D01*
X81641855Y-48501356D01*
X81581648Y-48500988D01*
X81507469Y-48500535D01*
X81369622Y-48539932D01*
X81248373Y-48616434D01*
X81153470Y-48723892D01*
X81092540Y-48853667D01*
X81070484Y-48995327D01*
X69345928Y-48995327D01*
X69346148Y-48611644D01*
X69346911Y-47279994D01*
X84263471Y-47279994D01*
X84264635Y-47288896D01*
X84264635Y-47288899D01*
X84265894Y-47298525D01*
X84282060Y-47422150D01*
X84339800Y-47553374D01*
X84345577Y-47560247D01*
X84345578Y-47560248D01*
X84426270Y-47656243D01*
X84432050Y-47663119D01*
X84439527Y-47668096D01*
X84507314Y-47713219D01*
X84551393Y-47742561D01*
X84688237Y-47785313D01*
X84697209Y-47785477D01*
X84697212Y-47785478D01*
X84762543Y-47786675D01*
X84831579Y-47787941D01*
X84840613Y-47785478D01*
X84961238Y-47752592D01*
X84961240Y-47752591D01*
X84969897Y-47750231D01*
X85092071Y-47675216D01*
X85188280Y-47568925D01*
X85250790Y-47439904D01*
X85274576Y-47298525D01*
X85274727Y-47286171D01*
X85266553Y-47229095D01*
X85255676Y-47153139D01*
X85255675Y-47153136D01*
X85254403Y-47144253D01*
X85195064Y-47013743D01*
X85168781Y-46983240D01*
X85107340Y-46911934D01*
X85107337Y-46911931D01*
X85101480Y-46905134D01*
X84981175Y-46827156D01*
X84843819Y-46786078D01*
X84834843Y-46786023D01*
X84834842Y-46786023D01*
X84774635Y-46785655D01*
X84700456Y-46785202D01*
X84562609Y-46824599D01*
X84441360Y-46901101D01*
X84346457Y-47008559D01*
X84285527Y-47138334D01*
X84263471Y-47279994D01*
X69346911Y-47279994D01*
X69347347Y-46517994D01*
X72960471Y-46517994D01*
X72961635Y-46526896D01*
X72961635Y-46526899D01*
X72964599Y-46549563D01*
X72979060Y-46660150D01*
X73036800Y-46791374D01*
X73042577Y-46798247D01*
X73042578Y-46798248D01*
X73079079Y-46841671D01*
X73129050Y-46901119D01*
X73248393Y-46980561D01*
X73385237Y-47023313D01*
X73394209Y-47023477D01*
X73394212Y-47023478D01*
X73459543Y-47024675D01*
X73528579Y-47025941D01*
X73537613Y-47023478D01*
X73658238Y-46990592D01*
X73658240Y-46990591D01*
X73666897Y-46988231D01*
X73789071Y-46913216D01*
X73796387Y-46905134D01*
X73870039Y-46823763D01*
X73885280Y-46806925D01*
X73947790Y-46677904D01*
X73953327Y-46644994D01*
X76770471Y-46644994D01*
X76771635Y-46653896D01*
X76771635Y-46653899D01*
X76774774Y-46677904D01*
X76789060Y-46787150D01*
X76792677Y-46795370D01*
X76842161Y-46907830D01*
X76846800Y-46918374D01*
X76852577Y-46925247D01*
X76852578Y-46925248D01*
X76857953Y-46931642D01*
X76939050Y-47028119D01*
X77058393Y-47107561D01*
X77195237Y-47150313D01*
X77204209Y-47150477D01*
X77204212Y-47150478D01*
X77269543Y-47151675D01*
X77338579Y-47152941D01*
X77347613Y-47150478D01*
X77468238Y-47117592D01*
X77468240Y-47117591D01*
X77476897Y-47115231D01*
X77599071Y-47040216D01*
X77695280Y-46933925D01*
X77749562Y-46821887D01*
X77753875Y-46812985D01*
X77753875Y-46812984D01*
X77757790Y-46804904D01*
X77781576Y-46663525D01*
X77781727Y-46651171D01*
X77766364Y-46543892D01*
X77762676Y-46518139D01*
X77762675Y-46518136D01*
X77761403Y-46509253D01*
X77702064Y-46378743D01*
X77683678Y-46357405D01*
X77614340Y-46276934D01*
X77614337Y-46276931D01*
X77608480Y-46270134D01*
X77534644Y-46222276D01*
X98549111Y-46222276D01*
X98550885Y-46229663D01*
X98550885Y-46229667D01*
X98583816Y-46366830D01*
X98588692Y-46387139D01*
X98592173Y-46393883D01*
X98592174Y-46393886D01*
X98661927Y-46529030D01*
X98666455Y-46537802D01*
X98671447Y-46543524D01*
X98671448Y-46543526D01*
X98733888Y-46615102D01*
X98777911Y-46665567D01*
X98784125Y-46669934D01*
X98910410Y-46758689D01*
X98910412Y-46758690D01*
X98916627Y-46763058D01*
X99074593Y-46824647D01*
X99082126Y-46825639D01*
X99082127Y-46825639D01*
X99199819Y-46841133D01*
X99203906Y-46841671D01*
X99964598Y-46841671D01*
X100032719Y-46861673D01*
X100079212Y-46915329D01*
X100089316Y-46985603D01*
X100059822Y-47050183D01*
X100039003Y-47067373D01*
X100039847Y-47068473D01*
X99919629Y-47160720D01*
X99827382Y-47280938D01*
X99769393Y-47420935D01*
X99749614Y-47571171D01*
X99769393Y-47721407D01*
X99827382Y-47861404D01*
X99919629Y-47981622D01*
X100039847Y-48073869D01*
X100179844Y-48131858D01*
X100292360Y-48146671D01*
X100367800Y-48146671D01*
X100480316Y-48131858D01*
X100620313Y-48073869D01*
X100740531Y-47981622D01*
X100832778Y-47861404D01*
X100890767Y-47721407D01*
X100910546Y-47571171D01*
X100890767Y-47420935D01*
X100832778Y-47280938D01*
X100740531Y-47160720D01*
X100620313Y-47068473D01*
X100560152Y-47043554D01*
X100504873Y-46999005D01*
X100482452Y-46931642D01*
X100500011Y-46862850D01*
X100551973Y-46814472D01*
X100563834Y-46809279D01*
X100669900Y-46769200D01*
X100677003Y-46766516D01*
X100794176Y-46685985D01*
X100810472Y-46674785D01*
X100810473Y-46674784D01*
X100816731Y-46670483D01*
X100821784Y-46664812D01*
X100924468Y-46549563D01*
X100924470Y-46549559D01*
X100929520Y-46543892D01*
X100935995Y-46531664D01*
X101005304Y-46400760D01*
X101008856Y-46394052D01*
X101050161Y-46229612D01*
X101050200Y-46222276D01*
X102979111Y-46222276D01*
X102980885Y-46229663D01*
X102980885Y-46229667D01*
X103013816Y-46366830D01*
X103018692Y-46387139D01*
X103022173Y-46393883D01*
X103022174Y-46393886D01*
X103091927Y-46529030D01*
X103096455Y-46537802D01*
X103101447Y-46543524D01*
X103101448Y-46543526D01*
X103163888Y-46615102D01*
X103207911Y-46665567D01*
X103214125Y-46669934D01*
X103340410Y-46758689D01*
X103340412Y-46758690D01*
X103346627Y-46763058D01*
X103504593Y-46824647D01*
X103512126Y-46825639D01*
X103512127Y-46825639D01*
X103629819Y-46841133D01*
X103633906Y-46841671D01*
X104322596Y-46841671D01*
X104448400Y-46826447D01*
X104607003Y-46766516D01*
X104724176Y-46685985D01*
X104740472Y-46674785D01*
X104740473Y-46674784D01*
X104746731Y-46670483D01*
X104751784Y-46664812D01*
X104854468Y-46549563D01*
X104854470Y-46549559D01*
X104859520Y-46543892D01*
X104865995Y-46531664D01*
X104935304Y-46400760D01*
X104938856Y-46394052D01*
X104980161Y-46229612D01*
X104980346Y-46194388D01*
X104980635Y-46139101D01*
X104981049Y-46060066D01*
X104941468Y-45895203D01*
X104932401Y-45877635D01*
X104867188Y-45751288D01*
X104867188Y-45751287D01*
X104863705Y-45744540D01*
X104858393Y-45738450D01*
X104757243Y-45622500D01*
X104752249Y-45616775D01*
X104693729Y-45575646D01*
X104619750Y-45523653D01*
X104619748Y-45523652D01*
X104613533Y-45519284D01*
X104455567Y-45457695D01*
X104448034Y-45456703D01*
X104448033Y-45456703D01*
X104330341Y-45441209D01*
X104330340Y-45441209D01*
X104326254Y-45440671D01*
X103637564Y-45440671D01*
X103511760Y-45455895D01*
X103353157Y-45515826D01*
X103346899Y-45520127D01*
X103243235Y-45591374D01*
X103213429Y-45611859D01*
X103208377Y-45617529D01*
X103208376Y-45617530D01*
X103105692Y-45732779D01*
X103105690Y-45732783D01*
X103100640Y-45738450D01*
X103097088Y-45745159D01*
X103097087Y-45745160D01*
X103078343Y-45780561D01*
X103021304Y-45888290D01*
X102979999Y-46052730D01*
X102979111Y-46222276D01*
X101050200Y-46222276D01*
X101050346Y-46194388D01*
X101050635Y-46139101D01*
X101051049Y-46060066D01*
X101011468Y-45895203D01*
X101002401Y-45877635D01*
X100937188Y-45751288D01*
X100937188Y-45751287D01*
X100933705Y-45744540D01*
X100928393Y-45738450D01*
X100827243Y-45622500D01*
X100822249Y-45616775D01*
X100763729Y-45575646D01*
X100689750Y-45523653D01*
X100689748Y-45523652D01*
X100683533Y-45519284D01*
X100525567Y-45457695D01*
X100518034Y-45456703D01*
X100518033Y-45456703D01*
X100400341Y-45441209D01*
X100400340Y-45441209D01*
X100396254Y-45440671D01*
X99207564Y-45440671D01*
X99081760Y-45455895D01*
X98923157Y-45515826D01*
X98916899Y-45520127D01*
X98813235Y-45591374D01*
X98783429Y-45611859D01*
X98778377Y-45617529D01*
X98778376Y-45617530D01*
X98675692Y-45732779D01*
X98675690Y-45732783D01*
X98670640Y-45738450D01*
X98667088Y-45745159D01*
X98667087Y-45745160D01*
X98648343Y-45780561D01*
X98591304Y-45888290D01*
X98549999Y-46052730D01*
X98549111Y-46222276D01*
X77534644Y-46222276D01*
X77488175Y-46192156D01*
X77350819Y-46151078D01*
X77341843Y-46151023D01*
X77341842Y-46151023D01*
X77281635Y-46150655D01*
X77207456Y-46150202D01*
X77069609Y-46189599D01*
X76948360Y-46266101D01*
X76853457Y-46373559D01*
X76792527Y-46503334D01*
X76770471Y-46644994D01*
X73953327Y-46644994D01*
X73971576Y-46536525D01*
X73971727Y-46524171D01*
X73963553Y-46467095D01*
X73952676Y-46391139D01*
X73952675Y-46391136D01*
X73951403Y-46382253D01*
X73892064Y-46251743D01*
X73872995Y-46229612D01*
X73804340Y-46149934D01*
X73804337Y-46149931D01*
X73798480Y-46143134D01*
X73678175Y-46065156D01*
X73540819Y-46024078D01*
X73531843Y-46024023D01*
X73531842Y-46024023D01*
X73471635Y-46023655D01*
X73397456Y-46023202D01*
X73259609Y-46062599D01*
X73138360Y-46139101D01*
X73043457Y-46246559D01*
X72982527Y-46376334D01*
X72978724Y-46400760D01*
X72962754Y-46503334D01*
X72960471Y-46517994D01*
X69347347Y-46517994D01*
X69348002Y-45374994D01*
X85393471Y-45374994D01*
X85394635Y-45383896D01*
X85394635Y-45383899D01*
X85395894Y-45393525D01*
X85412060Y-45517150D01*
X85469800Y-45648374D01*
X85475577Y-45655247D01*
X85475578Y-45655248D01*
X85545824Y-45738816D01*
X85562050Y-45758119D01*
X85600232Y-45783535D01*
X85663937Y-45825941D01*
X85681393Y-45837561D01*
X85818237Y-45880313D01*
X85827209Y-45880477D01*
X85827212Y-45880478D01*
X85892543Y-45881675D01*
X85961579Y-45882941D01*
X85970613Y-45880478D01*
X86091238Y-45847592D01*
X86091240Y-45847591D01*
X86099897Y-45845231D01*
X86222071Y-45770216D01*
X86318280Y-45663925D01*
X86380790Y-45534904D01*
X86404576Y-45393525D01*
X86404727Y-45381171D01*
X86395679Y-45317994D01*
X87368471Y-45317994D01*
X87369635Y-45326896D01*
X87369635Y-45326899D01*
X87376732Y-45381171D01*
X87387060Y-45460150D01*
X87444800Y-45591374D01*
X87450577Y-45598247D01*
X87450578Y-45598248D01*
X87498996Y-45655848D01*
X87537050Y-45701119D01*
X87544527Y-45706096D01*
X87647907Y-45774912D01*
X87656393Y-45780561D01*
X87793237Y-45823313D01*
X87802209Y-45823477D01*
X87802212Y-45823478D01*
X87867543Y-45824675D01*
X87936579Y-45825941D01*
X87945613Y-45823478D01*
X88066238Y-45790592D01*
X88066240Y-45790591D01*
X88074897Y-45788231D01*
X88197071Y-45713216D01*
X88248998Y-45655848D01*
X88287258Y-45613578D01*
X88293280Y-45606925D01*
X88355790Y-45477904D01*
X88373104Y-45374994D01*
X89343471Y-45374994D01*
X89344635Y-45383896D01*
X89344635Y-45383899D01*
X89345894Y-45393525D01*
X89362060Y-45517150D01*
X89419800Y-45648374D01*
X89425577Y-45655247D01*
X89425578Y-45655248D01*
X89495824Y-45738816D01*
X89512050Y-45758119D01*
X89550232Y-45783535D01*
X89613937Y-45825941D01*
X89631393Y-45837561D01*
X89768237Y-45880313D01*
X89777209Y-45880477D01*
X89777212Y-45880478D01*
X89842543Y-45881675D01*
X89911579Y-45882941D01*
X89920613Y-45880478D01*
X90041238Y-45847592D01*
X90041240Y-45847591D01*
X90049897Y-45845231D01*
X90172071Y-45770216D01*
X90268280Y-45663925D01*
X90330790Y-45534904D01*
X90354576Y-45393525D01*
X90354727Y-45381171D01*
X90334403Y-45239253D01*
X90275064Y-45108743D01*
X90232993Y-45059917D01*
X90187340Y-45006934D01*
X90187337Y-45006931D01*
X90181480Y-45000134D01*
X90061175Y-44922156D01*
X89923819Y-44881078D01*
X89914843Y-44881023D01*
X89914842Y-44881023D01*
X89854635Y-44880655D01*
X89780456Y-44880202D01*
X89642609Y-44919599D01*
X89521360Y-44996101D01*
X89426457Y-45103559D01*
X89365527Y-45233334D01*
X89343471Y-45374994D01*
X88373104Y-45374994D01*
X88379576Y-45336525D01*
X88379727Y-45324171D01*
X88371553Y-45267095D01*
X88360676Y-45191139D01*
X88360675Y-45191136D01*
X88359403Y-45182253D01*
X88347112Y-45155219D01*
X88321418Y-45098710D01*
X88300064Y-45051743D01*
X88251387Y-44995251D01*
X88212340Y-44949934D01*
X88212337Y-44949931D01*
X88206480Y-44943134D01*
X88086175Y-44865156D01*
X87948819Y-44824078D01*
X87939843Y-44824023D01*
X87939842Y-44824023D01*
X87879635Y-44823655D01*
X87805456Y-44823202D01*
X87667609Y-44862599D01*
X87546360Y-44939101D01*
X87451457Y-45046559D01*
X87390527Y-45176334D01*
X87368471Y-45317994D01*
X86395679Y-45317994D01*
X86384403Y-45239253D01*
X86325064Y-45108743D01*
X86282993Y-45059917D01*
X86237340Y-45006934D01*
X86237337Y-45006931D01*
X86231480Y-45000134D01*
X86111175Y-44922156D01*
X85973819Y-44881078D01*
X85964843Y-44881023D01*
X85964842Y-44881023D01*
X85904635Y-44880655D01*
X85830456Y-44880202D01*
X85692609Y-44919599D01*
X85571360Y-44996101D01*
X85476457Y-45103559D01*
X85415527Y-45233334D01*
X85393471Y-45374994D01*
X69348002Y-45374994D01*
X69348549Y-44420234D01*
X69355548Y-44378897D01*
X69495052Y-43977994D01*
X96963471Y-43977994D01*
X96964635Y-43986896D01*
X96964635Y-43986899D01*
X96965894Y-43996525D01*
X96982060Y-44120150D01*
X97039800Y-44251374D01*
X97045577Y-44258247D01*
X97045578Y-44258248D01*
X97116210Y-44342275D01*
X97132050Y-44361119D01*
X97251393Y-44440561D01*
X97388237Y-44483313D01*
X97397209Y-44483477D01*
X97397212Y-44483478D01*
X97462543Y-44484675D01*
X97531579Y-44485941D01*
X97540613Y-44483478D01*
X97661238Y-44450592D01*
X97661240Y-44450591D01*
X97669897Y-44448231D01*
X97792071Y-44373216D01*
X97888280Y-44266925D01*
X97950790Y-44137904D01*
X97974576Y-43996525D01*
X97974727Y-43984171D01*
X97963472Y-43905579D01*
X97955676Y-43851139D01*
X97955675Y-43851136D01*
X97954403Y-43842253D01*
X97895064Y-43711743D01*
X97854920Y-43665154D01*
X97807340Y-43609934D01*
X97807337Y-43609931D01*
X97801480Y-43603134D01*
X97681175Y-43525156D01*
X97543819Y-43484078D01*
X97534843Y-43484023D01*
X97534842Y-43484023D01*
X97474635Y-43483655D01*
X97400456Y-43483202D01*
X97262609Y-43522599D01*
X97141360Y-43599101D01*
X97135418Y-43605829D01*
X97135417Y-43605830D01*
X97114624Y-43629374D01*
X97046457Y-43706559D01*
X96985527Y-43836334D01*
X96978225Y-43883231D01*
X96972380Y-43920776D01*
X96963471Y-43977994D01*
X69495052Y-43977994D01*
X69617029Y-43627462D01*
X69618940Y-43622332D01*
X69724799Y-43355994D01*
X85393471Y-43355994D01*
X85394635Y-43364896D01*
X85394635Y-43364899D01*
X85401648Y-43418525D01*
X85412060Y-43498150D01*
X85433222Y-43546245D01*
X85456480Y-43599101D01*
X85469800Y-43629374D01*
X85475577Y-43636247D01*
X85475578Y-43636248D01*
X85536378Y-43708578D01*
X85562050Y-43739119D01*
X85569527Y-43744096D01*
X85672907Y-43812912D01*
X85681393Y-43818561D01*
X85818237Y-43861313D01*
X85827209Y-43861477D01*
X85827212Y-43861478D01*
X85892543Y-43862675D01*
X85961579Y-43863941D01*
X85970613Y-43861478D01*
X86091238Y-43828592D01*
X86091240Y-43828591D01*
X86099897Y-43826231D01*
X86222071Y-43751216D01*
X86273998Y-43693848D01*
X86312258Y-43651578D01*
X86318280Y-43644925D01*
X86368074Y-43542150D01*
X86376875Y-43523985D01*
X86376875Y-43523984D01*
X86380790Y-43515904D01*
X86398104Y-43412994D01*
X87368471Y-43412994D01*
X87369635Y-43421896D01*
X87369635Y-43421899D01*
X87370894Y-43431525D01*
X87387060Y-43555150D01*
X87444800Y-43686374D01*
X87450577Y-43693247D01*
X87450578Y-43693248D01*
X87526122Y-43783119D01*
X87537050Y-43796119D01*
X87575232Y-43821535D01*
X87638937Y-43863941D01*
X87656393Y-43875561D01*
X87793237Y-43918313D01*
X87802209Y-43918477D01*
X87802212Y-43918478D01*
X87867543Y-43919675D01*
X87936579Y-43920941D01*
X87945613Y-43918478D01*
X88066238Y-43885592D01*
X88066240Y-43885591D01*
X88074897Y-43883231D01*
X88197071Y-43808216D01*
X88219788Y-43783119D01*
X88287258Y-43708578D01*
X88293280Y-43701925D01*
X88343510Y-43598251D01*
X88351875Y-43580985D01*
X88351875Y-43580984D01*
X88355790Y-43572904D01*
X88379576Y-43431525D01*
X88379727Y-43419171D01*
X88376981Y-43399994D01*
X89343471Y-43399994D01*
X89344635Y-43408896D01*
X89344635Y-43408899D01*
X89347594Y-43431525D01*
X89362060Y-43542150D01*
X89365677Y-43550370D01*
X89410210Y-43651578D01*
X89419800Y-43673374D01*
X89425577Y-43680247D01*
X89425578Y-43680248D01*
X89485233Y-43751216D01*
X89512050Y-43783119D01*
X89537278Y-43799912D01*
X89580363Y-43828592D01*
X89631393Y-43862561D01*
X89768237Y-43905313D01*
X89777209Y-43905477D01*
X89777212Y-43905478D01*
X89842543Y-43906675D01*
X89911579Y-43907941D01*
X89920613Y-43905478D01*
X90041238Y-43872592D01*
X90041240Y-43872591D01*
X90049897Y-43870231D01*
X90172071Y-43795216D01*
X90211898Y-43751216D01*
X90262258Y-43695578D01*
X90268280Y-43688925D01*
X90314120Y-43594311D01*
X90326875Y-43567985D01*
X90326875Y-43567984D01*
X90330790Y-43559904D01*
X90354576Y-43418525D01*
X90354727Y-43406171D01*
X90346270Y-43347121D01*
X90335676Y-43273139D01*
X90335675Y-43273136D01*
X90334403Y-43264253D01*
X90275064Y-43133743D01*
X90189207Y-43034101D01*
X90187340Y-43031934D01*
X90187337Y-43031931D01*
X90181480Y-43025134D01*
X90061175Y-42947156D01*
X89923819Y-42906078D01*
X89914843Y-42906023D01*
X89914842Y-42906023D01*
X89854635Y-42905655D01*
X89780456Y-42905202D01*
X89642609Y-42944599D01*
X89521360Y-43021101D01*
X89515418Y-43027829D01*
X89515417Y-43027830D01*
X89473909Y-43074830D01*
X89426457Y-43128559D01*
X89365527Y-43258334D01*
X89362122Y-43280206D01*
X89346690Y-43379320D01*
X89343471Y-43399994D01*
X88376981Y-43399994D01*
X88359403Y-43277253D01*
X88300064Y-43146743D01*
X88281678Y-43125405D01*
X88212340Y-43044934D01*
X88212337Y-43044931D01*
X88206480Y-43038134D01*
X88086175Y-42960156D01*
X87948819Y-42919078D01*
X87939843Y-42919023D01*
X87939842Y-42919023D01*
X87879635Y-42918655D01*
X87805456Y-42918202D01*
X87667609Y-42957599D01*
X87546360Y-43034101D01*
X87451457Y-43141559D01*
X87390527Y-43271334D01*
X87389146Y-43280206D01*
X87371877Y-43391121D01*
X87368471Y-43412994D01*
X86398104Y-43412994D01*
X86404576Y-43374525D01*
X86404727Y-43362171D01*
X86396553Y-43305095D01*
X86385676Y-43229139D01*
X86385675Y-43229136D01*
X86384403Y-43220253D01*
X86325064Y-43089743D01*
X86276387Y-43033251D01*
X86237340Y-42987934D01*
X86237337Y-42987931D01*
X86231480Y-42981134D01*
X86111175Y-42903156D01*
X85973819Y-42862078D01*
X85964843Y-42862023D01*
X85964842Y-42862023D01*
X85904635Y-42861655D01*
X85830456Y-42861202D01*
X85692609Y-42900599D01*
X85571360Y-42977101D01*
X85476457Y-43084559D01*
X85415527Y-43214334D01*
X85393471Y-43355994D01*
X69724799Y-43355994D01*
X69930577Y-42838262D01*
X69932708Y-42833221D01*
X70278118Y-42063389D01*
X70280467Y-42058445D01*
X70598423Y-41424994D01*
X85393471Y-41424994D01*
X85394635Y-41433896D01*
X85394635Y-41433899D01*
X85395894Y-41443525D01*
X85412060Y-41567150D01*
X85469800Y-41698374D01*
X85475577Y-41705247D01*
X85475578Y-41705248D01*
X85482872Y-41713925D01*
X85562050Y-41808119D01*
X85681393Y-41887561D01*
X85818237Y-41930313D01*
X85827209Y-41930477D01*
X85827212Y-41930478D01*
X85892543Y-41931675D01*
X85961579Y-41932941D01*
X85970613Y-41930478D01*
X86091238Y-41897592D01*
X86091240Y-41897591D01*
X86099897Y-41895231D01*
X86222071Y-41820216D01*
X86318280Y-41713925D01*
X86363711Y-41620156D01*
X86376875Y-41592985D01*
X86376875Y-41592984D01*
X86380790Y-41584904D01*
X86404576Y-41443525D01*
X86404727Y-41431171D01*
X86403842Y-41424994D01*
X87368471Y-41424994D01*
X87369635Y-41433896D01*
X87369635Y-41433899D01*
X87370894Y-41443525D01*
X87387060Y-41567150D01*
X87444800Y-41698374D01*
X87450577Y-41705247D01*
X87450578Y-41705248D01*
X87457872Y-41713925D01*
X87537050Y-41808119D01*
X87656393Y-41887561D01*
X87793237Y-41930313D01*
X87802209Y-41930477D01*
X87802212Y-41930478D01*
X87867543Y-41931675D01*
X87936579Y-41932941D01*
X87945613Y-41930478D01*
X88066238Y-41897592D01*
X88066240Y-41897591D01*
X88074897Y-41895231D01*
X88197071Y-41820216D01*
X88293280Y-41713925D01*
X88338711Y-41620156D01*
X88351875Y-41592985D01*
X88351875Y-41592984D01*
X88355790Y-41584904D01*
X88379576Y-41443525D01*
X88379727Y-41431171D01*
X88378842Y-41424994D01*
X89343471Y-41424994D01*
X89344635Y-41433896D01*
X89344635Y-41433899D01*
X89345894Y-41443525D01*
X89362060Y-41567150D01*
X89419800Y-41698374D01*
X89425577Y-41705247D01*
X89425578Y-41705248D01*
X89432872Y-41713925D01*
X89512050Y-41808119D01*
X89631393Y-41887561D01*
X89768237Y-41930313D01*
X89777209Y-41930477D01*
X89777212Y-41930478D01*
X89842543Y-41931675D01*
X89911579Y-41932941D01*
X89920613Y-41930478D01*
X90041238Y-41897592D01*
X90041240Y-41897591D01*
X90049897Y-41895231D01*
X90172071Y-41820216D01*
X90268280Y-41713925D01*
X90313711Y-41620156D01*
X90326875Y-41592985D01*
X90326875Y-41592984D01*
X90330790Y-41584904D01*
X90354576Y-41443525D01*
X90354727Y-41431171D01*
X90340226Y-41329912D01*
X90335676Y-41298139D01*
X90335675Y-41298136D01*
X90334403Y-41289253D01*
X90275064Y-41158743D01*
X90234871Y-41112097D01*
X90187340Y-41056934D01*
X90187337Y-41056931D01*
X90181480Y-41050134D01*
X90061175Y-40972156D01*
X89923819Y-40931078D01*
X89914843Y-40931023D01*
X89914842Y-40931023D01*
X89854635Y-40930655D01*
X89780456Y-40930202D01*
X89642609Y-40969599D01*
X89521360Y-41046101D01*
X89515418Y-41052829D01*
X89515417Y-41052830D01*
X89488553Y-41083248D01*
X89426457Y-41153559D01*
X89365527Y-41283334D01*
X89361229Y-41310941D01*
X89345082Y-41414649D01*
X89343471Y-41424994D01*
X88378842Y-41424994D01*
X88365226Y-41329912D01*
X88360676Y-41298139D01*
X88360675Y-41298136D01*
X88359403Y-41289253D01*
X88300064Y-41158743D01*
X88259871Y-41112097D01*
X88212340Y-41056934D01*
X88212337Y-41056931D01*
X88206480Y-41050134D01*
X88086175Y-40972156D01*
X87948819Y-40931078D01*
X87939843Y-40931023D01*
X87939842Y-40931023D01*
X87879635Y-40930655D01*
X87805456Y-40930202D01*
X87667609Y-40969599D01*
X87546360Y-41046101D01*
X87540418Y-41052829D01*
X87540417Y-41052830D01*
X87513553Y-41083248D01*
X87451457Y-41153559D01*
X87390527Y-41283334D01*
X87386229Y-41310941D01*
X87370082Y-41414649D01*
X87368471Y-41424994D01*
X86403842Y-41424994D01*
X86390226Y-41329912D01*
X86385676Y-41298139D01*
X86385675Y-41298136D01*
X86384403Y-41289253D01*
X86325064Y-41158743D01*
X86284871Y-41112097D01*
X86237340Y-41056934D01*
X86237337Y-41056931D01*
X86231480Y-41050134D01*
X86111175Y-40972156D01*
X85973819Y-40931078D01*
X85964843Y-40931023D01*
X85964842Y-40931023D01*
X85904635Y-40930655D01*
X85830456Y-40930202D01*
X85692609Y-40969599D01*
X85571360Y-41046101D01*
X85565418Y-41052829D01*
X85565417Y-41052830D01*
X85538553Y-41083248D01*
X85476457Y-41153559D01*
X85415527Y-41283334D01*
X85411229Y-41310941D01*
X85395082Y-41414649D01*
X85393471Y-41424994D01*
X70598423Y-41424994D01*
X70658972Y-41304364D01*
X70661533Y-41299527D01*
X70938389Y-40802994D01*
X92137471Y-40802994D01*
X92138635Y-40811896D01*
X92138635Y-40811899D01*
X92139894Y-40821525D01*
X92156060Y-40945150D01*
X92159677Y-40953370D01*
X92200480Y-41046101D01*
X92213800Y-41076374D01*
X92219577Y-41083247D01*
X92219578Y-41083248D01*
X92283038Y-41158743D01*
X92306050Y-41186119D01*
X92425393Y-41265561D01*
X92562237Y-41308313D01*
X92571209Y-41308477D01*
X92571212Y-41308478D01*
X92636543Y-41309675D01*
X92705579Y-41310941D01*
X92714613Y-41308478D01*
X92835238Y-41275592D01*
X92835240Y-41275591D01*
X92843897Y-41273231D01*
X92966071Y-41198216D01*
X93062280Y-41091925D01*
X93119226Y-40974388D01*
X93120875Y-40970985D01*
X93120875Y-40970984D01*
X93124790Y-40962904D01*
X93130327Y-40929994D01*
X95058471Y-40929994D01*
X95059635Y-40938896D01*
X95059635Y-40938899D01*
X95061617Y-40954052D01*
X95077060Y-41072150D01*
X95080677Y-41080370D01*
X95129603Y-41191562D01*
X95134800Y-41203374D01*
X95140577Y-41210247D01*
X95140578Y-41210248D01*
X95209471Y-41292206D01*
X95227050Y-41313119D01*
X95235227Y-41318562D01*
X95316901Y-41372929D01*
X95346393Y-41392561D01*
X95483237Y-41435313D01*
X95492209Y-41435477D01*
X95492212Y-41435478D01*
X95557543Y-41436675D01*
X95626579Y-41437941D01*
X95635613Y-41435478D01*
X95756238Y-41402592D01*
X95756240Y-41402591D01*
X95764897Y-41400231D01*
X95887071Y-41325216D01*
X95899992Y-41310941D01*
X95914139Y-41295312D01*
X95974682Y-41258230D01*
X96045662Y-41259767D01*
X96104004Y-41298789D01*
X96116050Y-41313119D01*
X96124227Y-41318562D01*
X96205901Y-41372929D01*
X96235393Y-41392561D01*
X96306101Y-41414651D01*
X96365156Y-41454055D01*
X96393533Y-41519133D01*
X96382222Y-41589223D01*
X96335761Y-41641479D01*
X96252360Y-41694101D01*
X96157457Y-41801559D01*
X96096527Y-41931334D01*
X96095146Y-41940206D01*
X96083489Y-42015076D01*
X96074471Y-42072994D01*
X96075635Y-42081896D01*
X96075635Y-42081899D01*
X96076894Y-42091525D01*
X96093060Y-42215150D01*
X96150800Y-42346374D01*
X96156577Y-42353247D01*
X96156578Y-42353248D01*
X96163872Y-42361925D01*
X96243050Y-42456119D01*
X96362393Y-42535561D01*
X96499237Y-42578313D01*
X96508209Y-42578477D01*
X96508212Y-42578478D01*
X96573543Y-42579675D01*
X96642579Y-42580941D01*
X96651613Y-42578478D01*
X96772238Y-42545592D01*
X96772240Y-42545591D01*
X96780897Y-42543231D01*
X96903071Y-42468216D01*
X96999280Y-42361925D01*
X97061790Y-42232904D01*
X97085576Y-42091525D01*
X97085727Y-42079171D01*
X97065403Y-41937253D01*
X97006064Y-41806743D01*
X96987678Y-41785405D01*
X96918340Y-41704934D01*
X96918337Y-41704931D01*
X96912480Y-41698134D01*
X96792175Y-41620156D01*
X96783571Y-41617583D01*
X96783569Y-41617582D01*
X96751868Y-41608102D01*
X96728190Y-41601021D01*
X96668657Y-41562340D01*
X96639487Y-41497613D01*
X96649941Y-41427390D01*
X96698363Y-41372929D01*
X96717289Y-41361308D01*
X96776071Y-41325216D01*
X96799991Y-41298790D01*
X96866258Y-41225578D01*
X96872280Y-41218925D01*
X96924038Y-41112097D01*
X96930875Y-41097985D01*
X96930875Y-41097984D01*
X96934790Y-41089904D01*
X96958576Y-40948525D01*
X96958727Y-40936171D01*
X96950553Y-40879095D01*
X96939676Y-40803139D01*
X96939675Y-40803136D01*
X96938403Y-40794253D01*
X96879064Y-40663743D01*
X96860678Y-40642405D01*
X96791340Y-40561934D01*
X96791337Y-40561931D01*
X96785480Y-40555134D01*
X96665175Y-40477156D01*
X96527819Y-40436078D01*
X96518843Y-40436023D01*
X96518842Y-40436023D01*
X96458635Y-40435655D01*
X96384456Y-40435202D01*
X96246609Y-40474599D01*
X96125360Y-40551101D01*
X96119419Y-40557828D01*
X96119413Y-40557833D01*
X96103362Y-40576008D01*
X96043277Y-40613827D01*
X95972283Y-40613157D01*
X95913469Y-40574850D01*
X95902341Y-40561935D01*
X95902338Y-40561932D01*
X95896480Y-40555134D01*
X95776175Y-40477156D01*
X95638819Y-40436078D01*
X95629843Y-40436023D01*
X95629842Y-40436023D01*
X95569635Y-40435655D01*
X95495456Y-40435202D01*
X95357609Y-40474599D01*
X95236360Y-40551101D01*
X95230418Y-40557829D01*
X95230417Y-40557830D01*
X95230383Y-40557869D01*
X95141457Y-40658559D01*
X95080527Y-40788334D01*
X95058471Y-40929994D01*
X93130327Y-40929994D01*
X93148576Y-40821525D01*
X93148727Y-40809171D01*
X93140553Y-40752095D01*
X93129676Y-40676139D01*
X93129675Y-40676136D01*
X93128403Y-40667253D01*
X93069064Y-40536743D01*
X93050678Y-40515405D01*
X92981340Y-40434934D01*
X92981337Y-40434931D01*
X92975480Y-40428134D01*
X92855175Y-40350156D01*
X92717819Y-40309078D01*
X92708843Y-40309023D01*
X92708842Y-40309023D01*
X92648635Y-40308655D01*
X92574456Y-40308202D01*
X92436609Y-40347599D01*
X92315360Y-40424101D01*
X92220457Y-40531559D01*
X92159527Y-40661334D01*
X92157222Y-40676139D01*
X92139754Y-40788334D01*
X92137471Y-40802994D01*
X70938389Y-40802994D01*
X71072432Y-40562591D01*
X71075201Y-40557869D01*
X71393618Y-40040941D01*
X71517732Y-39839451D01*
X71520693Y-39834870D01*
X71811296Y-39405994D01*
X75627471Y-39405994D01*
X75628635Y-39414896D01*
X75628635Y-39414899D01*
X75629894Y-39424525D01*
X75646060Y-39548150D01*
X75703800Y-39679374D01*
X75709577Y-39686247D01*
X75709578Y-39686248D01*
X75715173Y-39692904D01*
X75796050Y-39789119D01*
X75915393Y-39868561D01*
X76052237Y-39911313D01*
X76061209Y-39911477D01*
X76061212Y-39911478D01*
X76126543Y-39912675D01*
X76195579Y-39913941D01*
X76204613Y-39911478D01*
X76325238Y-39878592D01*
X76325240Y-39878591D01*
X76333897Y-39876231D01*
X76456071Y-39801216D01*
X76552280Y-39694925D01*
X76614790Y-39565904D01*
X76638576Y-39424525D01*
X76638727Y-39412171D01*
X76637842Y-39405994D01*
X80326471Y-39405994D01*
X80327635Y-39414896D01*
X80327635Y-39414899D01*
X80328894Y-39424525D01*
X80345060Y-39548150D01*
X80402800Y-39679374D01*
X80408577Y-39686247D01*
X80408578Y-39686248D01*
X80414173Y-39692904D01*
X80495050Y-39789119D01*
X80614393Y-39868561D01*
X80751237Y-39911313D01*
X80760209Y-39911477D01*
X80760212Y-39911478D01*
X80825543Y-39912675D01*
X80894579Y-39913941D01*
X80903613Y-39911478D01*
X81024238Y-39878592D01*
X81024240Y-39878591D01*
X81032897Y-39876231D01*
X81155071Y-39801216D01*
X81251280Y-39694925D01*
X81313790Y-39565904D01*
X81319327Y-39532994D01*
X83374471Y-39532994D01*
X83375635Y-39541896D01*
X83375635Y-39541899D01*
X83377617Y-39557052D01*
X83393060Y-39675150D01*
X83396677Y-39683370D01*
X83445603Y-39794562D01*
X83450800Y-39806374D01*
X83456577Y-39813247D01*
X83456578Y-39813248D01*
X83498890Y-39863584D01*
X83543050Y-39916119D01*
X83662393Y-39995561D01*
X83799237Y-40038313D01*
X83808209Y-40038477D01*
X83808212Y-40038478D01*
X83873543Y-40039675D01*
X83942579Y-40040941D01*
X83951613Y-40038478D01*
X84072238Y-40005592D01*
X84072240Y-40005591D01*
X84080897Y-40003231D01*
X84203071Y-39928216D01*
X84299280Y-39821925D01*
X84334169Y-39749914D01*
X84357875Y-39700985D01*
X84357875Y-39700984D01*
X84361790Y-39692904D01*
X84385576Y-39551525D01*
X84385727Y-39539171D01*
X84384842Y-39532994D01*
X84898471Y-39532994D01*
X84899635Y-39541896D01*
X84899635Y-39541899D01*
X84901617Y-39557052D01*
X84917060Y-39675150D01*
X84920677Y-39683370D01*
X84969603Y-39794562D01*
X84974800Y-39806374D01*
X84980577Y-39813247D01*
X84980578Y-39813248D01*
X85022890Y-39863584D01*
X85067050Y-39916119D01*
X85186393Y-39995561D01*
X85323237Y-40038313D01*
X85332209Y-40038477D01*
X85332212Y-40038478D01*
X85397543Y-40039675D01*
X85466579Y-40040941D01*
X85475613Y-40038478D01*
X85596238Y-40005592D01*
X85596240Y-40005591D01*
X85604897Y-40003231D01*
X85727071Y-39928216D01*
X85823280Y-39821925D01*
X85858169Y-39749914D01*
X85881875Y-39700985D01*
X85881875Y-39700984D01*
X85885790Y-39692904D01*
X85909576Y-39551525D01*
X85909727Y-39539171D01*
X85908842Y-39532994D01*
X86549471Y-39532994D01*
X86550635Y-39541896D01*
X86550635Y-39541899D01*
X86552617Y-39557052D01*
X86568060Y-39675150D01*
X86571677Y-39683370D01*
X86620603Y-39794562D01*
X86625800Y-39806374D01*
X86631577Y-39813247D01*
X86631578Y-39813248D01*
X86673890Y-39863584D01*
X86718050Y-39916119D01*
X86837393Y-39995561D01*
X86974237Y-40038313D01*
X86983209Y-40038477D01*
X86983212Y-40038478D01*
X87048543Y-40039675D01*
X87117579Y-40040941D01*
X87126613Y-40038478D01*
X87247238Y-40005592D01*
X87247240Y-40005591D01*
X87255897Y-40003231D01*
X87378071Y-39928216D01*
X87474280Y-39821925D01*
X87509169Y-39749914D01*
X87532875Y-39700985D01*
X87532875Y-39700984D01*
X87536790Y-39692904D01*
X87560576Y-39551525D01*
X87560727Y-39539171D01*
X87559842Y-39532994D01*
X88200471Y-39532994D01*
X88201635Y-39541896D01*
X88201635Y-39541899D01*
X88203617Y-39557052D01*
X88219060Y-39675150D01*
X88222677Y-39683370D01*
X88271603Y-39794562D01*
X88276800Y-39806374D01*
X88282577Y-39813247D01*
X88282578Y-39813248D01*
X88324890Y-39863584D01*
X88369050Y-39916119D01*
X88488393Y-39995561D01*
X88625237Y-40038313D01*
X88634209Y-40038477D01*
X88634212Y-40038478D01*
X88699543Y-40039675D01*
X88768579Y-40040941D01*
X88777613Y-40038478D01*
X88898238Y-40005592D01*
X88898240Y-40005591D01*
X88906897Y-40003231D01*
X89029071Y-39928216D01*
X89125280Y-39821925D01*
X89160169Y-39749914D01*
X89183875Y-39700985D01*
X89183875Y-39700984D01*
X89187790Y-39692904D01*
X89211576Y-39551525D01*
X89211727Y-39539171D01*
X89210842Y-39532994D01*
X89724471Y-39532994D01*
X89725635Y-39541896D01*
X89725635Y-39541899D01*
X89727617Y-39557052D01*
X89743060Y-39675150D01*
X89746677Y-39683370D01*
X89795603Y-39794562D01*
X89800800Y-39806374D01*
X89806577Y-39813247D01*
X89806578Y-39813248D01*
X89848890Y-39863584D01*
X89893050Y-39916119D01*
X90012393Y-39995561D01*
X90149237Y-40038313D01*
X90158209Y-40038477D01*
X90158212Y-40038478D01*
X90223543Y-40039675D01*
X90292579Y-40040941D01*
X90301613Y-40038478D01*
X90422238Y-40005592D01*
X90422240Y-40005591D01*
X90430897Y-40003231D01*
X90553071Y-39928216D01*
X90649280Y-39821925D01*
X90684169Y-39749914D01*
X90707875Y-39700985D01*
X90707875Y-39700984D01*
X90711790Y-39692904D01*
X90735576Y-39551525D01*
X90735727Y-39539171D01*
X90734842Y-39532994D01*
X91375471Y-39532994D01*
X91376635Y-39541896D01*
X91376635Y-39541899D01*
X91378617Y-39557052D01*
X91394060Y-39675150D01*
X91397677Y-39683370D01*
X91446603Y-39794562D01*
X91451800Y-39806374D01*
X91457577Y-39813247D01*
X91457578Y-39813248D01*
X91499890Y-39863584D01*
X91544050Y-39916119D01*
X91663393Y-39995561D01*
X91800237Y-40038313D01*
X91809209Y-40038477D01*
X91809212Y-40038478D01*
X91874543Y-40039675D01*
X91943579Y-40040941D01*
X91952613Y-40038478D01*
X92073238Y-40005592D01*
X92073240Y-40005591D01*
X92081897Y-40003231D01*
X92204071Y-39928216D01*
X92300280Y-39821925D01*
X92335169Y-39749914D01*
X92358875Y-39700985D01*
X92358875Y-39700984D01*
X92362790Y-39692904D01*
X92386576Y-39551525D01*
X92386727Y-39539171D01*
X92378553Y-39482095D01*
X92367676Y-39406139D01*
X92367675Y-39406136D01*
X92366403Y-39397253D01*
X92307064Y-39266743D01*
X92288678Y-39245405D01*
X92219340Y-39164934D01*
X92219337Y-39164931D01*
X92213480Y-39158134D01*
X92093175Y-39080156D01*
X91955819Y-39039078D01*
X91946843Y-39039023D01*
X91946842Y-39039023D01*
X91886635Y-39038655D01*
X91812456Y-39038202D01*
X91674609Y-39077599D01*
X91553360Y-39154101D01*
X91458457Y-39261559D01*
X91397527Y-39391334D01*
X91375471Y-39532994D01*
X90734842Y-39532994D01*
X90727553Y-39482095D01*
X90716676Y-39406139D01*
X90716675Y-39406136D01*
X90715403Y-39397253D01*
X90656064Y-39266743D01*
X90637678Y-39245405D01*
X90568340Y-39164934D01*
X90568337Y-39164931D01*
X90562480Y-39158134D01*
X90442175Y-39080156D01*
X90304819Y-39039078D01*
X90295843Y-39039023D01*
X90295842Y-39039023D01*
X90235635Y-39038655D01*
X90161456Y-39038202D01*
X90023609Y-39077599D01*
X89902360Y-39154101D01*
X89807457Y-39261559D01*
X89746527Y-39391334D01*
X89724471Y-39532994D01*
X89210842Y-39532994D01*
X89203553Y-39482095D01*
X89192676Y-39406139D01*
X89192675Y-39406136D01*
X89191403Y-39397253D01*
X89132064Y-39266743D01*
X89113678Y-39245405D01*
X89044340Y-39164934D01*
X89044337Y-39164931D01*
X89038480Y-39158134D01*
X88918175Y-39080156D01*
X88780819Y-39039078D01*
X88771843Y-39039023D01*
X88771842Y-39039023D01*
X88711635Y-39038655D01*
X88637456Y-39038202D01*
X88499609Y-39077599D01*
X88378360Y-39154101D01*
X88283457Y-39261559D01*
X88222527Y-39391334D01*
X88200471Y-39532994D01*
X87559842Y-39532994D01*
X87552553Y-39482095D01*
X87541676Y-39406139D01*
X87541675Y-39406136D01*
X87540403Y-39397253D01*
X87481064Y-39266743D01*
X87462678Y-39245405D01*
X87393340Y-39164934D01*
X87393337Y-39164931D01*
X87387480Y-39158134D01*
X87267175Y-39080156D01*
X87129819Y-39039078D01*
X87120843Y-39039023D01*
X87120842Y-39039023D01*
X87060635Y-39038655D01*
X86986456Y-39038202D01*
X86848609Y-39077599D01*
X86727360Y-39154101D01*
X86632457Y-39261559D01*
X86571527Y-39391334D01*
X86549471Y-39532994D01*
X85908842Y-39532994D01*
X85901553Y-39482095D01*
X85890676Y-39406139D01*
X85890675Y-39406136D01*
X85889403Y-39397253D01*
X85830064Y-39266743D01*
X85811678Y-39245405D01*
X85742340Y-39164934D01*
X85742337Y-39164931D01*
X85736480Y-39158134D01*
X85616175Y-39080156D01*
X85478819Y-39039078D01*
X85469843Y-39039023D01*
X85469842Y-39039023D01*
X85409635Y-39038655D01*
X85335456Y-39038202D01*
X85197609Y-39077599D01*
X85076360Y-39154101D01*
X84981457Y-39261559D01*
X84920527Y-39391334D01*
X84898471Y-39532994D01*
X84384842Y-39532994D01*
X84377553Y-39482095D01*
X84366676Y-39406139D01*
X84366675Y-39406136D01*
X84365403Y-39397253D01*
X84306064Y-39266743D01*
X84287678Y-39245405D01*
X84218340Y-39164934D01*
X84218337Y-39164931D01*
X84212480Y-39158134D01*
X84092175Y-39080156D01*
X83954819Y-39039078D01*
X83945843Y-39039023D01*
X83945842Y-39039023D01*
X83885635Y-39038655D01*
X83811456Y-39038202D01*
X83673609Y-39077599D01*
X83552360Y-39154101D01*
X83457457Y-39261559D01*
X83396527Y-39391334D01*
X83374471Y-39532994D01*
X81319327Y-39532994D01*
X81337576Y-39424525D01*
X81337727Y-39412171D01*
X81317403Y-39270253D01*
X81258064Y-39139743D01*
X81224197Y-39100439D01*
X81170340Y-39037934D01*
X81170337Y-39037931D01*
X81164480Y-39031134D01*
X81044175Y-38953156D01*
X80906819Y-38912078D01*
X80897843Y-38912023D01*
X80897842Y-38912023D01*
X80837635Y-38911655D01*
X80763456Y-38911202D01*
X80625609Y-38950599D01*
X80504360Y-39027101D01*
X80409457Y-39134559D01*
X80348527Y-39264334D01*
X80346222Y-39279139D01*
X80328754Y-39391334D01*
X80326471Y-39405994D01*
X76637842Y-39405994D01*
X76618403Y-39270253D01*
X76559064Y-39139743D01*
X76525197Y-39100439D01*
X76471340Y-39037934D01*
X76471337Y-39037931D01*
X76465480Y-39031134D01*
X76345175Y-38953156D01*
X76207819Y-38912078D01*
X76198843Y-38912023D01*
X76198842Y-38912023D01*
X76138635Y-38911655D01*
X76064456Y-38911202D01*
X75926609Y-38950599D01*
X75805360Y-39027101D01*
X75710457Y-39134559D01*
X75649527Y-39264334D01*
X75647222Y-39279139D01*
X75629754Y-39391334D01*
X75627471Y-39405994D01*
X71811296Y-39405994D01*
X71993995Y-39136365D01*
X71997140Y-39131933D01*
X72500342Y-38454629D01*
X72503699Y-38450309D01*
X72552715Y-38389994D01*
X94423471Y-38389994D01*
X94424635Y-38398896D01*
X94424635Y-38398899D01*
X94428248Y-38426526D01*
X94442060Y-38532150D01*
X94499800Y-38663374D01*
X94505577Y-38670247D01*
X94505578Y-38670248D01*
X94512872Y-38678925D01*
X94592050Y-38773119D01*
X94711393Y-38852561D01*
X94848237Y-38895313D01*
X94857209Y-38895477D01*
X94857212Y-38895478D01*
X94922543Y-38896675D01*
X94991579Y-38897941D01*
X95000613Y-38895478D01*
X95121238Y-38862592D01*
X95121240Y-38862591D01*
X95129897Y-38860231D01*
X95252071Y-38785216D01*
X95348280Y-38678925D01*
X95410790Y-38549904D01*
X95434576Y-38408525D01*
X95434727Y-38396171D01*
X95414403Y-38254253D01*
X95355064Y-38123743D01*
X95336678Y-38102405D01*
X95267340Y-38021934D01*
X95267337Y-38021931D01*
X95261480Y-38015134D01*
X95141175Y-37937156D01*
X95003819Y-37896078D01*
X94994843Y-37896023D01*
X94994842Y-37896023D01*
X94934635Y-37895655D01*
X94860456Y-37895202D01*
X94722609Y-37934599D01*
X94601360Y-38011101D01*
X94506457Y-38118559D01*
X94445527Y-38248334D01*
X94423471Y-38389994D01*
X72552715Y-38389994D01*
X73035835Y-37795503D01*
X73039379Y-37791331D01*
X73599433Y-37160273D01*
X73603154Y-37156259D01*
X74190103Y-36550101D01*
X74193995Y-36546253D01*
X74806693Y-35966178D01*
X74810748Y-35962502D01*
X75448081Y-35409566D01*
X75452292Y-35406070D01*
X75464338Y-35396504D01*
X75743554Y-35174762D01*
X87114002Y-35174762D01*
X87123401Y-35354092D01*
X87171088Y-35527220D01*
X87254840Y-35686069D01*
X87370748Y-35823229D01*
X87376171Y-35827376D01*
X87376173Y-35827377D01*
X87507985Y-35928155D01*
X87507989Y-35928158D01*
X87513406Y-35932299D01*
X87519586Y-35935181D01*
X87519588Y-35935182D01*
X87669980Y-36005311D01*
X87669983Y-36005312D01*
X87676157Y-36008191D01*
X87682805Y-36009677D01*
X87682808Y-36009678D01*
X87846370Y-36046238D01*
X87846371Y-36046238D01*
X87851408Y-36047364D01*
X87856899Y-36047671D01*
X87988946Y-36047671D01*
X88122605Y-36033151D01*
X88205331Y-36005311D01*
X88286337Y-35978050D01*
X88286339Y-35978049D01*
X88292802Y-35975874D01*
X88446728Y-35883385D01*
X88505955Y-35827377D01*
X88572245Y-35764690D01*
X88572247Y-35764688D01*
X88577203Y-35760001D01*
X88678140Y-35611477D01*
X88744828Y-35444744D01*
X88752815Y-35396504D01*
X88773043Y-35274317D01*
X88773043Y-35274314D01*
X88774158Y-35267580D01*
X88764759Y-35088250D01*
X88717072Y-34915122D01*
X88633320Y-34756273D01*
X88517412Y-34619113D01*
X88511987Y-34614965D01*
X88380175Y-34514187D01*
X88380171Y-34514184D01*
X88374754Y-34510043D01*
X88368574Y-34507161D01*
X88368572Y-34507160D01*
X88218180Y-34437031D01*
X88218177Y-34437030D01*
X88212003Y-34434151D01*
X88205355Y-34432665D01*
X88205352Y-34432664D01*
X88041790Y-34396104D01*
X88041789Y-34396104D01*
X88036752Y-34394978D01*
X88031261Y-34394671D01*
X87899214Y-34394671D01*
X87765555Y-34409191D01*
X87695806Y-34432664D01*
X87601823Y-34464292D01*
X87601821Y-34464293D01*
X87595358Y-34466468D01*
X87441432Y-34558957D01*
X87436472Y-34563648D01*
X87436470Y-34563649D01*
X87377819Y-34619113D01*
X87310957Y-34682341D01*
X87210020Y-34830865D01*
X87143332Y-34997598D01*
X87142218Y-35004328D01*
X87142217Y-35004331D01*
X87128324Y-35088250D01*
X87114002Y-35174762D01*
X75743554Y-35174762D01*
X75974619Y-34991260D01*
X76113040Y-34881332D01*
X76117400Y-34878022D01*
X76561949Y-34555441D01*
X76800283Y-34382497D01*
X76804776Y-34379383D01*
X76812538Y-34374250D01*
X77508591Y-33913946D01*
X77513191Y-33911046D01*
X78082252Y-33569284D01*
X78236534Y-33476627D01*
X78241286Y-33473912D01*
X78982785Y-33071331D01*
X78987651Y-33068824D01*
X78992939Y-33066244D01*
X79745962Y-32698813D01*
X79750910Y-32696530D01*
X80468656Y-32384139D01*
X80518940Y-32373671D01*
X95369225Y-32373671D01*
X95419506Y-32384138D01*
G37*
G04 #@! TD.AperFunction*
G04 #@! TD*
M02*
