G04 #@! TF.GenerationSoftware,KiCad,Pcbnew,6.0.0-d3dd2cf0fa~116~ubuntu20.04.1*
G04 #@! TF.CreationDate,2022-05-06T06:53:09+00:00*
G04 #@! TF.ProjectId,PlantBuddy,506c616e-7442-4756-9464-792e6b696361,rev?*
G04 #@! TF.SameCoordinates,Original*
G04 #@! TF.FileFunction,Paste,Top*
G04 #@! TF.FilePolarity,Positive*
%FSLAX46Y46*%
G04 Gerber Fmt 4.6, Leading zero omitted, Abs format (unit mm)*
G04 Created by KiCad (PCBNEW 6.0.0-d3dd2cf0fa~116~ubuntu20.04.1) date 2022-05-06 06:53:09*
%MOMM*%
%LPD*%
G01*
G04 APERTURE LIST*
G04 Aperture macros list*
%AMRoundRect*
0 Rectangle with rounded corners*
0 $1 Rounding radius*
0 $2 $3 $4 $5 $6 $7 $8 $9 X,Y pos of 4 corners*
0 Add a 4 corners polygon primitive as box body*
4,1,4,$2,$3,$4,$5,$6,$7,$8,$9,$2,$3,0*
0 Add four circle primitives for the rounded corners*
1,1,$1+$1,$2,$3*
1,1,$1+$1,$4,$5*
1,1,$1+$1,$6,$7*
1,1,$1+$1,$8,$9*
0 Add four rect primitives between the rounded corners*
20,1,$1+$1,$2,$3,$4,$5,0*
20,1,$1+$1,$4,$5,$6,$7,0*
20,1,$1+$1,$6,$7,$8,$9,0*
20,1,$1+$1,$8,$9,$2,$3,0*%
G04 Aperture macros list end*
%ADD10C,0.010000*%
%ADD11RoundRect,0.200000X-0.200000X-0.275000X0.200000X-0.275000X0.200000X0.275000X-0.200000X0.275000X0*%
%ADD12RoundRect,0.225000X0.250000X-0.225000X0.250000X0.225000X-0.250000X0.225000X-0.250000X-0.225000X0*%
%ADD13RoundRect,0.250000X0.262500X0.450000X-0.262500X0.450000X-0.262500X-0.450000X0.262500X-0.450000X0*%
%ADD14RoundRect,0.200000X-0.275000X0.200000X-0.275000X-0.200000X0.275000X-0.200000X0.275000X0.200000X0*%
%ADD15RoundRect,0.200000X0.200000X0.275000X-0.200000X0.275000X-0.200000X-0.275000X0.200000X-0.275000X0*%
%ADD16RoundRect,0.218750X-0.335378X0.032211X-0.084438X-0.326168X0.335378X-0.032211X0.084438X0.326168X0*%
%ADD17RoundRect,0.160000X-0.160000X-0.160000X0.160000X-0.160000X0.160000X0.160000X-0.160000X0.160000X0*%
%ADD18RoundRect,0.062500X-0.375000X-0.062500X0.375000X-0.062500X0.375000X0.062500X-0.375000X0.062500X0*%
%ADD19RoundRect,0.062500X-0.062500X-0.375000X0.062500X-0.375000X0.062500X0.375000X-0.062500X0.375000X0*%
%ADD20RoundRect,0.150000X0.512500X0.150000X-0.512500X0.150000X-0.512500X-0.150000X0.512500X-0.150000X0*%
%ADD21R,1.450000X0.600000*%
%ADD22R,1.450000X0.300000*%
%ADD23R,1.000000X1.450000*%
%ADD24RoundRect,0.218750X-0.218750X-0.256250X0.218750X-0.256250X0.218750X0.256250X-0.218750X0.256250X0*%
%ADD25R,0.800000X0.400000*%
%ADD26R,0.400000X0.800000*%
%ADD27R,1.450000X1.450000*%
%ADD28R,0.700000X0.700000*%
%ADD29RoundRect,0.225000X-0.250000X0.225000X-0.250000X-0.225000X0.250000X-0.225000X0.250000X0.225000X0*%
%ADD30RoundRect,0.200000X0.275000X-0.200000X0.275000X0.200000X-0.275000X0.200000X-0.275000X-0.200000X0*%
%ADD31R,0.500000X0.500000*%
%ADD32RoundRect,0.225000X-0.225000X-0.250000X0.225000X-0.250000X0.225000X0.250000X-0.225000X0.250000X0*%
%ADD33RoundRect,0.075000X-0.250000X-0.075000X0.250000X-0.075000X0.250000X0.075000X-0.250000X0.075000X0*%
%ADD34RoundRect,0.225000X0.225000X0.250000X-0.225000X0.250000X-0.225000X-0.250000X0.225000X-0.250000X0*%
%ADD35RoundRect,0.014000X-0.161000X0.361000X-0.161000X-0.361000X0.161000X-0.361000X0.161000X0.361000X0*%
%ADD36R,1.600000X0.700000*%
%ADD37RoundRect,0.150000X0.587500X0.150000X-0.587500X0.150000X-0.587500X-0.150000X0.587500X-0.150000X0*%
G04 APERTURE END LIST*
D10*
G04 #@! TO.C,U5*
X86624080Y-42156171D02*
X85174080Y-42156171D01*
X85174080Y-42156171D02*
X85174080Y-41306171D01*
X85174080Y-41306171D02*
X85774080Y-40706171D01*
X85774080Y-40706171D02*
X86624080Y-40706171D01*
X86624080Y-40706171D02*
X86624080Y-42156171D01*
G36*
X86624080Y-42156171D02*
G01*
X85174080Y-42156171D01*
X85174080Y-41306171D01*
X85774080Y-40706171D01*
X86624080Y-40706171D01*
X86624080Y-42156171D01*
G37*
X86624080Y-42156171D02*
X85174080Y-42156171D01*
X85174080Y-41306171D01*
X85774080Y-40706171D01*
X86624080Y-40706171D01*
X86624080Y-42156171D01*
G04 #@! TD*
D11*
G04 #@! TO.C,R6*
X87119080Y-55160171D03*
X88769080Y-55160171D03*
G04 #@! TD*
D12*
G04 #@! TO.C,C9*
X77403080Y-40949171D03*
X77403080Y-39399171D03*
G04 #@! TD*
D13*
G04 #@! TO.C,R16*
X92031580Y-68241171D03*
X90206580Y-68241171D03*
G04 #@! TD*
D12*
G04 #@! TO.C,C12*
X88325080Y-65714171D03*
X88325080Y-64164171D03*
G04 #@! TD*
D14*
G04 #@! TO.C,R9*
X86547080Y-64114171D03*
X86547080Y-65764171D03*
G04 #@! TD*
D12*
G04 #@! TO.C,C11*
X85277080Y-62171171D03*
X85277080Y-60621171D03*
G04 #@! TD*
G04 #@! TO.C,C8*
X79181080Y-40949171D03*
X79181080Y-39399171D03*
G04 #@! TD*
D15*
G04 #@! TO.C,R10*
X88769080Y-56811171D03*
X87119080Y-56811171D03*
G04 #@! TD*
G04 #@! TO.C,R13*
X79371080Y-48429171D03*
X77721080Y-48429171D03*
G04 #@! TD*
D16*
G04 #@! TO.C,D1*
X96128389Y-64548089D03*
X97031771Y-65838253D03*
G04 #@! TD*
D17*
G04 #@! TO.C,U4*
X92116080Y-56284171D03*
X92916080Y-57084171D03*
X92116080Y-57084171D03*
X92916080Y-56284171D03*
D18*
X91078580Y-55934171D03*
X91078580Y-56434171D03*
X91078580Y-56934171D03*
X91078580Y-57434171D03*
D19*
X91766080Y-58121671D03*
X92266080Y-58121671D03*
X92766080Y-58121671D03*
X93266080Y-58121671D03*
D18*
X93953580Y-57434171D03*
X93953580Y-56934171D03*
X93953580Y-56434171D03*
X93953580Y-55934171D03*
D19*
X93266080Y-55246671D03*
X92766080Y-55246671D03*
X92266080Y-55246671D03*
X91766080Y-55246671D03*
G04 #@! TD*
D20*
G04 #@! TO.C,U6*
X89406580Y-62396171D03*
X89406580Y-61446171D03*
X89406580Y-60496171D03*
X87131580Y-60496171D03*
X87131580Y-62396171D03*
G04 #@! TD*
D21*
G04 #@! TO.C,J1*
X98885080Y-53711171D03*
X98885080Y-52911171D03*
D22*
X98885080Y-51711171D03*
X98885080Y-50711171D03*
X98885080Y-50211171D03*
X98885080Y-49211171D03*
D21*
X98885080Y-48011171D03*
X98885080Y-47211171D03*
X98885080Y-47211171D03*
X98885080Y-48011171D03*
D22*
X98885080Y-48711171D03*
X98885080Y-49711171D03*
X98885080Y-51211171D03*
X98885080Y-52211171D03*
D21*
X98885080Y-52911171D03*
X98885080Y-53711171D03*
G04 #@! TD*
D23*
G04 #@! TO.C,SW1*
X70965080Y-47886171D03*
X70965080Y-53036171D03*
X72665080Y-53036171D03*
X72665080Y-47886171D03*
G04 #@! TD*
D14*
G04 #@! TO.C,R3*
X94421080Y-50906171D03*
X94421080Y-52556171D03*
G04 #@! TD*
D15*
G04 #@! TO.C,R8*
X80006080Y-45000171D03*
X78356080Y-45000171D03*
G04 #@! TD*
D24*
G04 #@! TO.C,D4*
X99856580Y-40174171D03*
X101431580Y-40174171D03*
G04 #@! TD*
D14*
G04 #@! TO.C,R17*
X79181080Y-55732171D03*
X79181080Y-57382171D03*
G04 #@! TD*
D15*
G04 #@! TO.C,R15*
X98167080Y-61637171D03*
X96517080Y-61637171D03*
G04 #@! TD*
D25*
G04 #@! TO.C,U5*
X81974080Y-39406171D03*
X81974080Y-40206171D03*
X81974080Y-41006171D03*
X81974080Y-41806171D03*
X81974080Y-42606171D03*
X81974080Y-43406171D03*
X81974080Y-44206171D03*
X81974080Y-45006171D03*
X81974080Y-45806171D03*
X81974080Y-46606171D03*
X81974080Y-47406171D03*
D26*
X83074080Y-48306171D03*
X83874080Y-48306171D03*
X84674080Y-48306171D03*
X85474080Y-48306171D03*
X86274080Y-48306171D03*
X87074080Y-48306171D03*
X87874080Y-48306171D03*
X88674080Y-48306171D03*
X89474080Y-48306171D03*
X90274080Y-48306171D03*
X91074080Y-48306171D03*
X91874080Y-48306171D03*
X92674080Y-48306171D03*
D25*
X93774080Y-47406171D03*
X93774080Y-46606171D03*
X93774080Y-45806171D03*
X93774080Y-45006171D03*
X93774080Y-44206171D03*
X93774080Y-43406171D03*
X93774080Y-42606171D03*
X93774080Y-41806171D03*
X93774080Y-41006171D03*
X93774080Y-40206171D03*
X93774080Y-39406171D03*
D26*
X92674080Y-38506171D03*
X91874080Y-38506171D03*
X91074080Y-38506171D03*
X90274080Y-38506171D03*
X89474080Y-38506171D03*
X88674080Y-38506171D03*
X87874080Y-38506171D03*
X87074080Y-38506171D03*
X86274080Y-38506171D03*
X85474080Y-38506171D03*
X84674080Y-38506171D03*
X83874080Y-38506171D03*
X83074080Y-38506171D03*
D27*
X87874080Y-41431171D03*
X89849080Y-41431171D03*
X89849080Y-43406171D03*
X89849080Y-45381171D03*
X87874080Y-45381171D03*
X85899080Y-45381171D03*
X85899080Y-43406171D03*
X87874080Y-43406171D03*
D28*
X93824080Y-38456171D03*
X93824080Y-48356171D03*
X81924080Y-48356171D03*
X81924080Y-38456171D03*
G04 #@! TD*
D29*
G04 #@! TO.C,C5*
X95945080Y-53496171D03*
X95945080Y-55046171D03*
G04 #@! TD*
D14*
G04 #@! TO.C,R1*
X95945080Y-50017171D03*
X95945080Y-51667171D03*
G04 #@! TD*
D30*
G04 #@! TO.C,R12*
X94167080Y-64240171D03*
X94167080Y-62590171D03*
G04 #@! TD*
D31*
G04 #@! TO.C,D3*
X90019080Y-65955171D03*
X92219080Y-65955171D03*
G04 #@! TD*
D11*
G04 #@! TO.C,R18*
X99819080Y-41825171D03*
X101469080Y-41825171D03*
G04 #@! TD*
D32*
G04 #@! TO.C,C7*
X90979080Y-64177171D03*
X92529080Y-64177171D03*
G04 #@! TD*
D30*
G04 #@! TO.C,R11*
X95945080Y-58652171D03*
X95945080Y-57002171D03*
G04 #@! TD*
D14*
G04 #@! TO.C,R4*
X85277080Y-53319171D03*
X85277080Y-54969171D03*
G04 #@! TD*
D33*
G04 #@! TO.C,U1*
X85139080Y-50573171D03*
X85139080Y-51223171D03*
X85139080Y-51873171D03*
X86939080Y-51873171D03*
X86939080Y-51223171D03*
X86939080Y-50573171D03*
G04 #@! TD*
D34*
G04 #@! TO.C,C3*
X79956080Y-46651171D03*
X78406080Y-46651171D03*
G04 #@! TD*
D15*
G04 #@! TO.C,R14*
X79371080Y-49953171D03*
X77721080Y-49953171D03*
G04 #@! TD*
D14*
G04 #@! TO.C,R7*
X75117080Y-47350171D03*
X75117080Y-49000171D03*
G04 #@! TD*
D29*
G04 #@! TO.C,C2*
X92008080Y-50448171D03*
X92008080Y-51998171D03*
G04 #@! TD*
D16*
G04 #@! TO.C,D2*
X97779389Y-63532089D03*
X98682771Y-64822253D03*
G04 #@! TD*
D29*
G04 #@! TO.C,C1*
X83626080Y-50448171D03*
X83626080Y-51998171D03*
G04 #@! TD*
D15*
G04 #@! TO.C,R5*
X99945080Y-56938171D03*
X98295080Y-56938171D03*
G04 #@! TD*
D12*
G04 #@! TO.C,C10*
X91500080Y-62171171D03*
X91500080Y-60621171D03*
G04 #@! TD*
D14*
G04 #@! TO.C,R2*
X96326080Y-43921171D03*
X96326080Y-45571171D03*
G04 #@! TD*
D35*
G04 #@! TO.C,U2*
X90349080Y-50253171D03*
X89349080Y-50253171D03*
X89349080Y-52193171D03*
X90349080Y-52193171D03*
D36*
X89849080Y-51223171D03*
G04 #@! TD*
D34*
G04 #@! TO.C,C6*
X79194080Y-54017171D03*
X77644080Y-54017171D03*
G04 #@! TD*
D37*
G04 #@! TO.C,Q1*
X77197580Y-57507171D03*
X77197580Y-55607171D03*
X75322580Y-56557171D03*
G04 #@! TD*
M02*
