G04 #@! TF.GenerationSoftware,KiCad,Pcbnew,6.0.5-a6ca702e91~116~ubuntu20.04.1*
G04 #@! TF.CreationDate,2022-07-03T11:06:06+00:00*
G04 #@! TF.ProjectId,PlantBuddy,506c616e-7442-4756-9464-792e6b696361,rev?*
G04 #@! TF.SameCoordinates,Original*
G04 #@! TF.FileFunction,Other,Comment*
%FSLAX46Y46*%
G04 Gerber Fmt 4.6, Leading zero omitted, Abs format (unit mm)*
G04 Created by KiCad (PCBNEW 6.0.5-a6ca702e91~116~ubuntu20.04.1) date 2022-07-03 11:06:06*
%MOMM*%
%LPD*%
G01*
G04 APERTURE LIST*
%ADD10C,0.100000*%
%ADD11C,0.150000*%
G04 APERTURE END LIST*
D10*
X154365080Y-63288171D02*
X154365080Y-39412171D01*
X135569080Y-63288171D02*
X154365080Y-63288171D01*
X135569080Y-39412171D02*
X135569080Y-63288171D01*
X154365080Y-39412171D02*
X135569080Y-39412171D01*
D11*
X135879008Y-26776551D02*
X135307580Y-26776551D01*
X135593294Y-26776551D02*
X135593294Y-25776551D01*
X135498056Y-25919409D01*
X135402818Y-26014647D01*
X135307580Y-26062266D01*
X136307580Y-26681313D02*
X136355199Y-26728932D01*
X136307580Y-26776551D01*
X136259960Y-26728932D01*
X136307580Y-26681313D01*
X136307580Y-26776551D01*
X136736151Y-25871790D02*
X136783770Y-25824171D01*
X136879008Y-25776551D01*
X137117103Y-25776551D01*
X137212341Y-25824171D01*
X137259960Y-25871790D01*
X137307580Y-25967028D01*
X137307580Y-26062266D01*
X137259960Y-26205123D01*
X136688532Y-26776551D01*
X137307580Y-26776551D01*
X138164722Y-26109885D02*
X138164722Y-26776551D01*
X137926627Y-25728932D02*
X137688532Y-26443218D01*
X138307580Y-26443218D01*
X139164722Y-25776551D02*
X138688532Y-25776551D01*
X138640913Y-26252742D01*
X138688532Y-26205123D01*
X138783770Y-26157504D01*
X139021865Y-26157504D01*
X139117103Y-26205123D01*
X139164722Y-26252742D01*
X139212341Y-26347980D01*
X139212341Y-26586075D01*
X139164722Y-26681313D01*
X139117103Y-26728932D01*
X139021865Y-26776551D01*
X138783770Y-26776551D01*
X138688532Y-26728932D01*
X138640913Y-26681313D01*
X139831389Y-25776551D02*
X139926627Y-25776551D01*
X140021865Y-25824171D01*
X140069484Y-25871790D01*
X140117103Y-25967028D01*
X140164722Y-26157504D01*
X140164722Y-26395599D01*
X140117103Y-26586075D01*
X140069484Y-26681313D01*
X140021865Y-26728932D01*
X139926627Y-26776551D01*
X139831389Y-26776551D01*
X139736151Y-26728932D01*
X139688532Y-26681313D01*
X139640913Y-26586075D01*
X139593294Y-26395599D01*
X139593294Y-26157504D01*
X139640913Y-25967028D01*
X139688532Y-25871790D01*
X139736151Y-25824171D01*
X139831389Y-25776551D01*
X141355199Y-26776551D02*
X141355199Y-26109885D01*
X141355199Y-25776551D02*
X141307580Y-25824171D01*
X141355199Y-25871790D01*
X141402818Y-25824171D01*
X141355199Y-25776551D01*
X141355199Y-25871790D01*
X141831389Y-26109885D02*
X141831389Y-26776551D01*
X141831389Y-26205123D02*
X141879008Y-26157504D01*
X141974246Y-26109885D01*
X142117103Y-26109885D01*
X142212341Y-26157504D01*
X142259960Y-26252742D01*
X142259960Y-26776551D01*
D10*
X122996080Y-47802171D02*
X122996080Y-26887751D01*
X154619080Y-47802171D02*
X154619080Y-26887751D01*
X122996080Y-27474171D02*
X154619080Y-27474171D01*
X122996080Y-27474171D02*
X154619080Y-27474171D01*
X122996080Y-27474171D02*
X124122584Y-28060592D01*
X122996080Y-27474171D02*
X124122584Y-26887750D01*
X154619080Y-27474171D02*
X153492576Y-26887750D01*
X154619080Y-27474171D02*
X153492576Y-28060592D01*
D11*
X176273460Y-59358742D02*
X176273460Y-59930171D01*
X176273460Y-59644456D02*
X175273460Y-59644456D01*
X175416318Y-59739694D01*
X175511556Y-59834932D01*
X175559175Y-59930171D01*
X176178222Y-58930171D02*
X176225841Y-58882551D01*
X176273460Y-58930171D01*
X176225841Y-58977790D01*
X176178222Y-58930171D01*
X176273460Y-58930171D01*
X175606794Y-58025409D02*
X176273460Y-58025409D01*
X175225841Y-58263504D02*
X175940127Y-58501599D01*
X175940127Y-57882551D01*
X175368699Y-57549218D02*
X175321080Y-57501599D01*
X175273460Y-57406361D01*
X175273460Y-57168266D01*
X175321080Y-57073028D01*
X175368699Y-57025409D01*
X175463937Y-56977790D01*
X175559175Y-56977790D01*
X175702032Y-57025409D01*
X176273460Y-57596837D01*
X176273460Y-56977790D01*
X175273460Y-56358742D02*
X175273460Y-56263504D01*
X175321080Y-56168266D01*
X175368699Y-56120647D01*
X175463937Y-56073028D01*
X175654413Y-56025409D01*
X175892508Y-56025409D01*
X176082984Y-56073028D01*
X176178222Y-56120647D01*
X176225841Y-56168266D01*
X176273460Y-56263504D01*
X176273460Y-56358742D01*
X176225841Y-56453980D01*
X176178222Y-56501599D01*
X176082984Y-56549218D01*
X175892508Y-56596837D01*
X175654413Y-56596837D01*
X175463937Y-56549218D01*
X175368699Y-56501599D01*
X175321080Y-56453980D01*
X175273460Y-56358742D01*
X175273460Y-55406361D02*
X175273460Y-55311123D01*
X175321080Y-55215885D01*
X175368699Y-55168266D01*
X175463937Y-55120647D01*
X175654413Y-55073028D01*
X175892508Y-55073028D01*
X176082984Y-55120647D01*
X176178222Y-55168266D01*
X176225841Y-55215885D01*
X176273460Y-55311123D01*
X176273460Y-55406361D01*
X176225841Y-55501599D01*
X176178222Y-55549218D01*
X176082984Y-55596837D01*
X175892508Y-55644456D01*
X175654413Y-55644456D01*
X175463937Y-55596837D01*
X175368699Y-55549218D01*
X175321080Y-55501599D01*
X175273460Y-55406361D01*
X176273460Y-53882551D02*
X175606794Y-53882551D01*
X175273460Y-53882551D02*
X175321080Y-53930171D01*
X175368699Y-53882551D01*
X175321080Y-53834932D01*
X175273460Y-53882551D01*
X175368699Y-53882551D01*
X175606794Y-53406361D02*
X176273460Y-53406361D01*
X175702032Y-53406361D02*
X175654413Y-53358742D01*
X175606794Y-53263504D01*
X175606794Y-53120647D01*
X175654413Y-53025409D01*
X175749651Y-52977790D01*
X176273460Y-52977790D01*
D10*
X149023080Y-38396171D02*
X177557500Y-38396171D01*
X149023080Y-74464171D02*
X177557500Y-74464171D01*
X176971080Y-38396171D02*
X176971080Y-74464171D01*
X176971080Y-38396171D02*
X176971080Y-74464171D01*
X176971080Y-38396171D02*
X176384659Y-39522675D01*
X176971080Y-38396171D02*
X177557501Y-39522675D01*
X176971080Y-74464171D02*
X177557501Y-73337667D01*
X176971080Y-74464171D02*
X176384659Y-73337667D01*
M02*
