G04 #@! TF.GenerationSoftware,KiCad,Pcbnew,6.0.0-d3dd2cf0fa~116~ubuntu20.04.1*
G04 #@! TF.CreationDate,2022-04-29T13:41:16+00:00*
G04 #@! TF.ProjectId,PlantBuddy,506c616e-7442-4756-9464-792e6b696361,rev?*
G04 #@! TF.SameCoordinates,Original*
G04 #@! TF.FileFunction,Legend,Top*
G04 #@! TF.FilePolarity,Positive*
%FSLAX46Y46*%
G04 Gerber Fmt 4.6, Leading zero omitted, Abs format (unit mm)*
G04 Created by KiCad (PCBNEW 6.0.0-d3dd2cf0fa~116~ubuntu20.04.1) date 2022-04-29 13:41:16*
%MOMM*%
%LPD*%
G01*
G04 APERTURE LIST*
%ADD10C,0.150000*%
%ADD11C,0.120000*%
%ADD12C,0.127000*%
%ADD13C,0.200000*%
G04 APERTURE END LIST*
D10*
X71792640Y-58850894D02*
X72499746Y-58143787D01*
X72230372Y-58413161D02*
X72331388Y-58446833D01*
X72466075Y-58581520D01*
X72499746Y-58682535D01*
X72499746Y-58749879D01*
X72466075Y-58850894D01*
X72264044Y-59052924D01*
X72163029Y-59086596D01*
X72095685Y-59086596D01*
X71994670Y-59052924D01*
X71859983Y-58918237D01*
X71826311Y-58817222D01*
X72836464Y-58951909D02*
X72533418Y-59591672D01*
X73173181Y-59288627D02*
X72533418Y-59591672D01*
X72297716Y-59692688D01*
X72230372Y-59692688D01*
X72129357Y-59659016D01*
X73678258Y-60332451D02*
X74014975Y-60669169D01*
X73408884Y-60467138D02*
X74351693Y-59995733D01*
X73880288Y-60938543D01*
X74115991Y-61174245D02*
X74587395Y-60702840D01*
X74452708Y-60837527D02*
X74553723Y-60803856D01*
X74621067Y-60803856D01*
X74722082Y-60837527D01*
X74789426Y-60904871D01*
X74856769Y-61915023D02*
X75563876Y-61207917D01*
X74890441Y-61881352D02*
X74789426Y-61847680D01*
X74654739Y-61712993D01*
X74621067Y-61611978D01*
X74621067Y-61544634D01*
X74654739Y-61443619D01*
X74856769Y-61241588D01*
X74957784Y-61207917D01*
X75025128Y-61207917D01*
X75126143Y-61241588D01*
X75260830Y-61376275D01*
X75294502Y-61477291D01*
X75496532Y-62487443D02*
X75395517Y-62453771D01*
X75260830Y-62319084D01*
X75227158Y-62218069D01*
X75260830Y-62117054D01*
X75530204Y-61847680D01*
X75631219Y-61814008D01*
X75732235Y-61847680D01*
X75866922Y-61982367D01*
X75900593Y-62083382D01*
X75866922Y-62184397D01*
X75799578Y-62251741D01*
X75395517Y-61982367D01*
X75900593Y-62958848D02*
X75866922Y-62857832D01*
X75900593Y-62756817D01*
X76506685Y-62150726D01*
X76473013Y-63463924D02*
X76371998Y-63430252D01*
X76237311Y-63295565D01*
X76203639Y-63194550D01*
X76237311Y-63093535D01*
X76506685Y-62824161D01*
X76607700Y-62790489D01*
X76708715Y-62824161D01*
X76843402Y-62958848D01*
X76877074Y-63059863D01*
X76843402Y-63160878D01*
X76776059Y-63228222D01*
X76371998Y-62958848D01*
X77079105Y-64137359D02*
X77449494Y-63766970D01*
X77483166Y-63665954D01*
X77449494Y-63564939D01*
X77314807Y-63430252D01*
X77213792Y-63396580D01*
X77112776Y-64103687D02*
X77011761Y-64070015D01*
X76843402Y-63901657D01*
X76809731Y-63800641D01*
X76843402Y-63699626D01*
X76910746Y-63632283D01*
X77011761Y-63598611D01*
X77112776Y-63632283D01*
X77281135Y-63800641D01*
X77382150Y-63834313D01*
X77887227Y-64002672D02*
X77415822Y-64474076D01*
X77819883Y-64070015D02*
X77887227Y-64070015D01*
X77988242Y-64103687D01*
X78089257Y-64204702D01*
X78122929Y-64305718D01*
X78089257Y-64406733D01*
X77718868Y-64777122D01*
X79065738Y-65989305D02*
X78998394Y-65989305D01*
X78863707Y-65921962D01*
X78796364Y-65854618D01*
X78729020Y-65719931D01*
X78729020Y-65585244D01*
X78762692Y-65484229D01*
X78863707Y-65315870D01*
X78964723Y-65214855D01*
X79133081Y-65113840D01*
X79234097Y-65080168D01*
X79368784Y-65080168D01*
X79503471Y-65147511D01*
X79570814Y-65214855D01*
X79638158Y-65349542D01*
X79638158Y-65416885D01*
X79604486Y-66662740D02*
X79974875Y-66292351D01*
X80008547Y-66191336D01*
X79974875Y-66090321D01*
X79840188Y-65955634D01*
X79739173Y-65921962D01*
X79638158Y-66629069D02*
X79537143Y-66595397D01*
X79368784Y-66427038D01*
X79335112Y-66326023D01*
X79368784Y-66225008D01*
X79436127Y-66157664D01*
X79537143Y-66123992D01*
X79638158Y-66157664D01*
X79806517Y-66326023D01*
X79907532Y-66359695D01*
X80042219Y-67100473D02*
X80008547Y-66999458D01*
X80042219Y-66898443D01*
X80648310Y-66292351D01*
X80311593Y-67369847D02*
X80782997Y-66898443D01*
X81018700Y-66662740D02*
X80951356Y-66662740D01*
X80951356Y-66730084D01*
X81018700Y-66730084D01*
X81018700Y-66662740D01*
X80951356Y-66730084D01*
X81119715Y-67235160D02*
X80648310Y-67706565D01*
X81052371Y-67302504D02*
X81119715Y-67302504D01*
X81220730Y-67336175D01*
X81321745Y-67437191D01*
X81355417Y-67538206D01*
X81321745Y-67639221D01*
X80951356Y-68009610D01*
X98524889Y-43039551D02*
X98524889Y-42039551D01*
X98905841Y-42039551D01*
X99001080Y-42087171D01*
X99048699Y-42134790D01*
X99096318Y-42230028D01*
X99096318Y-42372885D01*
X99048699Y-42468123D01*
X99001080Y-42515742D01*
X98905841Y-42563361D01*
X98524889Y-42563361D01*
X99667746Y-43039551D02*
X99572508Y-42991932D01*
X99524889Y-42944313D01*
X99477270Y-42849075D01*
X99477270Y-42563361D01*
X99524889Y-42468123D01*
X99572508Y-42420504D01*
X99667746Y-42372885D01*
X99810603Y-42372885D01*
X99905841Y-42420504D01*
X99953460Y-42468123D01*
X100001080Y-42563361D01*
X100001080Y-42849075D01*
X99953460Y-42944313D01*
X99905841Y-42991932D01*
X99810603Y-43039551D01*
X99667746Y-43039551D01*
X100572508Y-43039551D02*
X100477270Y-42991932D01*
X100429651Y-42896694D01*
X100429651Y-42039551D01*
X101670398Y-61748504D02*
X102209146Y-62287252D01*
X70037318Y-44393551D02*
X70037318Y-43393551D01*
X70370651Y-44107837D01*
X70703984Y-43393551D01*
X70703984Y-44393551D01*
X71608746Y-44393551D02*
X71608746Y-43869742D01*
X71561127Y-43774504D01*
X71465889Y-43726885D01*
X71275413Y-43726885D01*
X71180175Y-43774504D01*
X71608746Y-44345932D02*
X71513508Y-44393551D01*
X71275413Y-44393551D01*
X71180175Y-44345932D01*
X71132556Y-44250694D01*
X71132556Y-44155456D01*
X71180175Y-44060218D01*
X71275413Y-44012599D01*
X71513508Y-44012599D01*
X71608746Y-43964980D01*
X72513508Y-43726885D02*
X72513508Y-44536409D01*
X72465889Y-44631647D01*
X72418270Y-44679266D01*
X72323032Y-44726885D01*
X72180175Y-44726885D01*
X72084937Y-44679266D01*
X72513508Y-44345932D02*
X72418270Y-44393551D01*
X72227794Y-44393551D01*
X72132556Y-44345932D01*
X72084937Y-44298313D01*
X72037318Y-44203075D01*
X72037318Y-43917361D01*
X72084937Y-43822123D01*
X72132556Y-43774504D01*
X72227794Y-43726885D01*
X72418270Y-43726885D01*
X72513508Y-43774504D01*
X72989699Y-44393551D02*
X72989699Y-43726885D01*
X72989699Y-43393551D02*
X72942080Y-43441171D01*
X72989699Y-43488790D01*
X73037318Y-43441171D01*
X72989699Y-43393551D01*
X72989699Y-43488790D01*
X73894460Y-44345932D02*
X73799222Y-44393551D01*
X73608746Y-44393551D01*
X73513508Y-44345932D01*
X73465889Y-44298313D01*
X73418270Y-44203075D01*
X73418270Y-43917361D01*
X73465889Y-43822123D01*
X73513508Y-43774504D01*
X73608746Y-43726885D01*
X73799222Y-43726885D01*
X73894460Y-43774504D01*
X70084937Y-45479742D02*
X70227794Y-45527361D01*
X70275413Y-45574980D01*
X70323032Y-45670218D01*
X70323032Y-45813075D01*
X70275413Y-45908313D01*
X70227794Y-45955932D01*
X70132556Y-46003551D01*
X69751603Y-46003551D01*
X69751603Y-45003551D01*
X70084937Y-45003551D01*
X70180175Y-45051171D01*
X70227794Y-45098790D01*
X70275413Y-45194028D01*
X70275413Y-45289266D01*
X70227794Y-45384504D01*
X70180175Y-45432123D01*
X70084937Y-45479742D01*
X69751603Y-45479742D01*
X71180175Y-45336885D02*
X71180175Y-46003551D01*
X70751603Y-45336885D02*
X70751603Y-45860694D01*
X70799222Y-45955932D01*
X70894460Y-46003551D01*
X71037318Y-46003551D01*
X71132556Y-45955932D01*
X71180175Y-45908313D01*
X71513508Y-45336885D02*
X71894460Y-45336885D01*
X71656365Y-45003551D02*
X71656365Y-45860694D01*
X71703984Y-45955932D01*
X71799222Y-46003551D01*
X71894460Y-46003551D01*
X72084937Y-45336885D02*
X72465889Y-45336885D01*
X72227794Y-45003551D02*
X72227794Y-45860694D01*
X72275413Y-45955932D01*
X72370651Y-46003551D01*
X72465889Y-46003551D01*
X72942080Y-46003551D02*
X72846841Y-45955932D01*
X72799222Y-45908313D01*
X72751603Y-45813075D01*
X72751603Y-45527361D01*
X72799222Y-45432123D01*
X72846841Y-45384504D01*
X72942080Y-45336885D01*
X73084937Y-45336885D01*
X73180175Y-45384504D01*
X73227794Y-45432123D01*
X73275413Y-45527361D01*
X73275413Y-45813075D01*
X73227794Y-45908313D01*
X73180175Y-45955932D01*
X73084937Y-46003551D01*
X72942080Y-46003551D01*
X73703984Y-45336885D02*
X73703984Y-46003551D01*
X73703984Y-45432123D02*
X73751603Y-45384504D01*
X73846841Y-45336885D01*
X73989699Y-45336885D01*
X74084937Y-45384504D01*
X74132556Y-45479742D01*
X74132556Y-46003551D01*
X93540032Y-68693551D02*
X93206699Y-68217361D01*
X92968603Y-68693551D02*
X92968603Y-67693551D01*
X93349556Y-67693551D01*
X93444794Y-67741171D01*
X93492413Y-67788790D01*
X93540032Y-67884028D01*
X93540032Y-68026885D01*
X93492413Y-68122123D01*
X93444794Y-68169742D01*
X93349556Y-68217361D01*
X92968603Y-68217361D01*
X94397175Y-68645932D02*
X94301937Y-68693551D01*
X94111460Y-68693551D01*
X94016222Y-68645932D01*
X93968603Y-68598313D01*
X93920984Y-68503075D01*
X93920984Y-68217361D01*
X93968603Y-68122123D01*
X94016222Y-68074504D01*
X94111460Y-68026885D01*
X94301937Y-68026885D01*
X94397175Y-68074504D01*
X104205632Y-58238909D02*
X104896153Y-58560904D01*
X104389895Y-58745167D02*
X104711890Y-58054647D01*
X96019914Y-39262354D02*
X96159957Y-39207006D01*
X96342349Y-39053961D01*
X96384697Y-38956265D01*
X96390566Y-38889178D01*
X96365827Y-38785612D01*
X96304609Y-38712656D01*
X96206912Y-38670308D01*
X96139825Y-38664438D01*
X96036260Y-38689178D01*
X95859738Y-38775135D01*
X95756172Y-38799875D01*
X95689085Y-38794006D01*
X95591389Y-38751658D01*
X95530171Y-38678701D01*
X95505431Y-38575136D01*
X95511301Y-38508049D01*
X95553648Y-38410352D01*
X95736040Y-38257308D01*
X95876084Y-38201959D01*
X96388042Y-38145349D02*
X97030830Y-38911393D01*
X96418651Y-38181827D02*
X96460999Y-38084131D01*
X96606912Y-37961695D01*
X96710477Y-37936956D01*
X96777565Y-37942825D01*
X96875261Y-37985173D01*
X97058914Y-38204042D01*
X97083654Y-38307608D01*
X97077785Y-38374695D01*
X97035437Y-38472391D01*
X96889524Y-38594827D01*
X96785958Y-38619567D01*
X97770872Y-37793125D02*
X97728525Y-37890822D01*
X97582611Y-38013257D01*
X97479046Y-38037997D01*
X97381350Y-37995649D01*
X97136478Y-37703823D01*
X97111739Y-37600257D01*
X97154086Y-37502561D01*
X97300000Y-37380125D01*
X97403565Y-37355386D01*
X97501261Y-37397733D01*
X97562479Y-37470690D01*
X97258914Y-37849736D01*
X98494569Y-37248034D02*
X98157871Y-36846773D01*
X98060175Y-36804425D01*
X97956609Y-36829165D01*
X97810696Y-36951600D01*
X97768348Y-37049296D01*
X98463960Y-37211556D02*
X98421613Y-37309252D01*
X98239221Y-37462297D01*
X98135655Y-37487036D01*
X98037959Y-37444688D01*
X97976741Y-37371732D01*
X97952002Y-37268166D01*
X97994350Y-37170470D01*
X98176741Y-37017425D01*
X98219089Y-36919729D01*
X98859352Y-36941945D02*
X98216565Y-36175900D01*
X98687437Y-36588900D02*
X99151179Y-36697073D01*
X98722654Y-36186377D02*
X98675699Y-36723075D01*
X99740701Y-36140243D02*
X99698353Y-36237939D01*
X99552440Y-36360375D01*
X99448874Y-36385114D01*
X99351178Y-36342767D01*
X99106307Y-36050940D01*
X99081567Y-35947375D01*
X99123915Y-35849679D01*
X99269828Y-35727243D01*
X99373394Y-35702503D01*
X99471090Y-35744851D01*
X99532308Y-35817808D01*
X99228743Y-36196854D01*
X100136093Y-35870632D02*
X99707568Y-35359936D01*
X99830004Y-35505849D02*
X99805264Y-35402283D01*
X99811133Y-35335196D01*
X99853481Y-35237500D01*
X99926438Y-35176282D01*
D11*
G04 #@! TO.C,R6*
X87706822Y-55682671D02*
X88181338Y-55682671D01*
X87706822Y-54637671D02*
X88181338Y-54637671D01*
G04 #@! TO.C,C9*
X76893080Y-40314751D02*
X76893080Y-40033591D01*
X77913080Y-40314751D02*
X77913080Y-40033591D01*
G04 #@! TO.C,R16*
X91346144Y-68976171D02*
X90892016Y-68976171D01*
X91346144Y-67506171D02*
X90892016Y-67506171D01*
G04 #@! TO.C,C12*
X88835080Y-65079751D02*
X88835080Y-64798591D01*
X87815080Y-65079751D02*
X87815080Y-64798591D01*
G04 #@! TO.C,R9*
X86024580Y-64701913D02*
X86024580Y-65176429D01*
X87069580Y-64701913D02*
X87069580Y-65176429D01*
G04 #@! TO.C,C11*
X84767080Y-61536751D02*
X84767080Y-61255591D01*
X85787080Y-61536751D02*
X85787080Y-61255591D01*
G04 #@! TO.C,C8*
X78671080Y-40314751D02*
X78671080Y-40033591D01*
X79691080Y-40314751D02*
X79691080Y-40033591D01*
G04 #@! TO.C,R10*
X88181338Y-56288671D02*
X87706822Y-56288671D01*
X88181338Y-57333671D02*
X87706822Y-57333671D01*
G04 #@! TO.C,R13*
X78783338Y-47906671D02*
X78308822Y-47906671D01*
X78783338Y-48951671D02*
X78308822Y-48951671D01*
G04 #@! TO.C,D1*
X96330396Y-63555152D02*
X95126242Y-64398309D01*
X95126242Y-64398309D02*
X96436864Y-66270071D01*
X97641018Y-65426914D02*
X96330396Y-63555152D01*
G04 #@! TO.C,U4*
X93651080Y-55074171D02*
X94126080Y-55074171D01*
X91381080Y-55074171D02*
X90906080Y-55074171D01*
X90906080Y-58294171D02*
X90906080Y-57819171D01*
X91381080Y-58294171D02*
X90906080Y-58294171D01*
X93651080Y-58294171D02*
X94126080Y-58294171D01*
X94126080Y-58294171D02*
X94126080Y-57819171D01*
X94126080Y-55074171D02*
X94126080Y-55549171D01*
G04 #@! TO.C,U6*
X88269080Y-63006171D02*
X87469080Y-63006171D01*
X88269080Y-59886171D02*
X89069080Y-59886171D01*
X88269080Y-63006171D02*
X90069080Y-63006171D01*
X88269080Y-59886171D02*
X87469080Y-59886171D01*
G04 #@! TO.C,J1*
X104930080Y-55161171D02*
X106830080Y-55161171D01*
X106830080Y-55161171D02*
X106830080Y-45761171D01*
X101030080Y-55161171D02*
X103030080Y-55161171D01*
X101030080Y-45761171D02*
X103030080Y-45761171D01*
X104930080Y-45761171D02*
X106830080Y-45761171D01*
G04 #@! TO.C,SW1*
X72090080Y-48011171D02*
X71540080Y-48011171D01*
X72090080Y-52911171D02*
X71540080Y-52911171D01*
X73665080Y-48111171D02*
X73665080Y-52811171D01*
X69965080Y-48111171D02*
X69965080Y-49036171D01*
X69965080Y-51886171D02*
X69965080Y-52811171D01*
G04 #@! TO.C,R3*
X93898580Y-51493913D02*
X93898580Y-51968429D01*
X94943580Y-51493913D02*
X94943580Y-51968429D01*
G04 #@! TO.C,R8*
X79418338Y-45522671D02*
X78943822Y-45522671D01*
X79418338Y-44477671D02*
X78943822Y-44477671D01*
G04 #@! TO.C,R15*
X97579338Y-61114671D02*
X97104822Y-61114671D01*
X97579338Y-62159671D02*
X97104822Y-62159671D01*
G04 #@! TO.C,LS1*
X101971259Y-38768140D02*
X103642507Y-40759855D01*
X99933581Y-40477955D02*
X101971259Y-38768140D01*
X98262333Y-38486239D02*
X99281172Y-37631332D01*
X101604829Y-42469671D02*
X103642507Y-40759855D01*
X99117241Y-39505079D02*
X98262333Y-38486239D01*
X99933581Y-40477955D02*
X101604829Y-42469671D01*
D12*
G04 #@! TO.C,U5*
X81274080Y-32406171D02*
X94474080Y-32406171D01*
X94474080Y-32406171D02*
X94474080Y-37786171D01*
X81274080Y-37786171D02*
X81274080Y-32406171D01*
D13*
X80724080Y-39406171D02*
G75*
G03*
X80724080Y-39406171I-100000J0D01*
G01*
D11*
G04 #@! TO.C,C5*
X95435080Y-54130591D02*
X95435080Y-54411751D01*
X96455080Y-54130591D02*
X96455080Y-54411751D01*
G04 #@! TO.C,D4*
X98270080Y-44846171D02*
X100555080Y-44846171D01*
X100555080Y-43376171D02*
X98270080Y-43376171D01*
X98270080Y-43376171D02*
X98270080Y-44846171D01*
G04 #@! TO.C,J3*
X100517080Y-61964674D02*
X99173577Y-60621171D01*
X101860583Y-60621171D02*
X100517080Y-61964674D01*
X99173577Y-60621171D02*
X100517080Y-59277668D01*
X100517080Y-59277668D02*
X101860583Y-60621171D01*
G04 #@! TO.C,R1*
X95422580Y-50604913D02*
X95422580Y-51079429D01*
X96467580Y-50604913D02*
X96467580Y-51079429D01*
G04 #@! TO.C,R12*
X93644580Y-63652429D02*
X93644580Y-63177913D01*
X94689580Y-63652429D02*
X94689580Y-63177913D01*
G04 #@! TO.C,D3*
X89619080Y-65105171D02*
X92169080Y-65105171D01*
X89619080Y-65105171D02*
X89619080Y-66805171D01*
X89619080Y-66805171D02*
X92169080Y-66805171D01*
G04 #@! TO.C,C7*
X91613500Y-64687171D02*
X91894660Y-64687171D01*
X91613500Y-63667171D02*
X91894660Y-63667171D01*
G04 #@! TO.C,R11*
X96467580Y-58064429D02*
X96467580Y-57589913D01*
X95422580Y-58064429D02*
X95422580Y-57589913D01*
G04 #@! TO.C,R4*
X84754580Y-53906913D02*
X84754580Y-54381429D01*
X85799580Y-53906913D02*
X85799580Y-54381429D01*
G04 #@! TO.C,R17*
X103040338Y-44633671D02*
X102565822Y-44633671D01*
X103040338Y-43588671D02*
X102565822Y-43588671D01*
G04 #@! TO.C,J2*
X101540600Y-58032676D02*
X102343575Y-56310691D01*
X104065560Y-57113666D02*
X103262585Y-58835651D01*
X102343575Y-56310691D02*
X104065560Y-57113666D01*
X103262585Y-58835651D02*
X101540600Y-58032676D01*
G04 #@! TO.C,U1*
X84839080Y-50123171D02*
X87039080Y-50123171D01*
X85059080Y-52323171D02*
X87029080Y-52323171D01*
G04 #@! TO.C,C3*
X79321660Y-47161171D02*
X79040500Y-47161171D01*
X79321660Y-46141171D02*
X79040500Y-46141171D01*
G04 #@! TO.C,R14*
X78783338Y-50475671D02*
X78308822Y-50475671D01*
X78783338Y-49430671D02*
X78308822Y-49430671D01*
G04 #@! TO.C,R7*
X75639580Y-47937913D02*
X75639580Y-48412429D01*
X74594580Y-47937913D02*
X74594580Y-48412429D01*
G04 #@! TO.C,C2*
X91498080Y-51082591D02*
X91498080Y-51363751D01*
X92518080Y-51082591D02*
X92518080Y-51363751D01*
G04 #@! TO.C,D2*
X97981396Y-62539152D02*
X96777242Y-63382309D01*
X96777242Y-63382309D02*
X98087864Y-65254071D01*
X99292018Y-64410914D02*
X97981396Y-62539152D01*
G04 #@! TO.C,C1*
X84136080Y-51082591D02*
X84136080Y-51363751D01*
X83116080Y-51082591D02*
X83116080Y-51363751D01*
G04 #@! TO.C,R5*
X99357338Y-56415671D02*
X98882822Y-56415671D01*
X99357338Y-57460671D02*
X98882822Y-57460671D01*
G04 #@! TO.C,C10*
X90990080Y-61536751D02*
X90990080Y-61255591D01*
X92010080Y-61536751D02*
X92010080Y-61255591D01*
G04 #@! TO.C,R2*
X96848580Y-44508913D02*
X96848580Y-44983429D01*
X95803580Y-44508913D02*
X95803580Y-44983429D01*
D12*
G04 #@! TO.C,U2*
X88729080Y-50223171D02*
X88729080Y-52223171D01*
X90969080Y-50223171D02*
X90969080Y-52223171D01*
D13*
X90449080Y-49263171D02*
G75*
G03*
X90449080Y-49263171I-100000J0D01*
G01*
D11*
G04 #@! TO.C,C6*
X77863110Y-54405390D02*
X77664299Y-54604201D01*
X77141861Y-53684141D02*
X76943050Y-53882952D01*
G04 #@! TD*
M02*
