G04 #@! TF.GenerationSoftware,KiCad,Pcbnew,6.0.5-a6ca702e91~116~ubuntu20.04.1*
G04 #@! TF.CreationDate,2022-06-15T15:16:03+00:00*
G04 #@! TF.ProjectId,PlantBuddy,506c616e-7442-4756-9464-792e6b696361,rev?*
G04 #@! TF.SameCoordinates,Original*
G04 #@! TF.FileFunction,Other,Comment*
%FSLAX46Y46*%
G04 Gerber Fmt 4.6, Leading zero omitted, Abs format (unit mm)*
G04 Created by KiCad (PCBNEW 6.0.5-a6ca702e91~116~ubuntu20.04.1) date 2022-06-15 15:16:03*
%MOMM*%
%LPD*%
G01*
G04 APERTURE LIST*
%ADD10C,0.150000*%
%ADD11C,0.100000*%
G04 APERTURE END LIST*
D10*
X33828699Y-67666313D02*
X33781080Y-67713932D01*
X33638222Y-67761551D01*
X33542984Y-67761551D01*
X33400127Y-67713932D01*
X33304889Y-67618694D01*
X33257270Y-67523456D01*
X33209651Y-67332980D01*
X33209651Y-67190123D01*
X33257270Y-66999647D01*
X33304889Y-66904409D01*
X33400127Y-66809171D01*
X33542984Y-66761551D01*
X33638222Y-66761551D01*
X33781080Y-66809171D01*
X33828699Y-66856790D01*
X34257270Y-67761551D02*
X34257270Y-66761551D01*
X34685841Y-67761551D02*
X34685841Y-67237742D01*
X34638222Y-67142504D01*
X34542984Y-67094885D01*
X34400127Y-67094885D01*
X34304889Y-67142504D01*
X34257270Y-67190123D01*
X35590603Y-67761551D02*
X35590603Y-67237742D01*
X35542984Y-67142504D01*
X35447746Y-67094885D01*
X35257270Y-67094885D01*
X35162032Y-67142504D01*
X35590603Y-67713932D02*
X35495365Y-67761551D01*
X35257270Y-67761551D01*
X35162032Y-67713932D01*
X35114413Y-67618694D01*
X35114413Y-67523456D01*
X35162032Y-67428218D01*
X35257270Y-67380599D01*
X35495365Y-67380599D01*
X35590603Y-67332980D01*
X36066794Y-67094885D02*
X36066794Y-67761551D01*
X36066794Y-67190123D02*
X36114413Y-67142504D01*
X36209651Y-67094885D01*
X36352508Y-67094885D01*
X36447746Y-67142504D01*
X36495365Y-67237742D01*
X36495365Y-67761551D01*
X36971556Y-67094885D02*
X36971556Y-67761551D01*
X36971556Y-67190123D02*
X37019175Y-67142504D01*
X37114413Y-67094885D01*
X37257270Y-67094885D01*
X37352508Y-67142504D01*
X37400127Y-67237742D01*
X37400127Y-67761551D01*
X38257270Y-67713932D02*
X38162032Y-67761551D01*
X37971556Y-67761551D01*
X37876318Y-67713932D01*
X37828699Y-67618694D01*
X37828699Y-67237742D01*
X37876318Y-67142504D01*
X37971556Y-67094885D01*
X38162032Y-67094885D01*
X38257270Y-67142504D01*
X38304889Y-67237742D01*
X38304889Y-67332980D01*
X37828699Y-67428218D01*
X38876318Y-67761551D02*
X38781080Y-67713932D01*
X38733460Y-67618694D01*
X38733460Y-66761551D01*
X40019175Y-67761551D02*
X40019175Y-66761551D01*
X40019175Y-67142504D02*
X40114413Y-67094885D01*
X40304889Y-67094885D01*
X40400127Y-67142504D01*
X40447746Y-67190123D01*
X40495365Y-67285361D01*
X40495365Y-67571075D01*
X40447746Y-67666313D01*
X40400127Y-67713932D01*
X40304889Y-67761551D01*
X40114413Y-67761551D01*
X40019175Y-67713932D01*
X41304889Y-67713932D02*
X41209651Y-67761551D01*
X41019175Y-67761551D01*
X40923937Y-67713932D01*
X40876318Y-67618694D01*
X40876318Y-67237742D01*
X40923937Y-67142504D01*
X41019175Y-67094885D01*
X41209651Y-67094885D01*
X41304889Y-67142504D01*
X41352508Y-67237742D01*
X41352508Y-67332980D01*
X40876318Y-67428218D01*
X41638222Y-67094885D02*
X42019175Y-67094885D01*
X41781080Y-66761551D02*
X41781080Y-67618694D01*
X41828699Y-67713932D01*
X41923937Y-67761551D01*
X42019175Y-67761551D01*
X42257270Y-67094885D02*
X42447746Y-67761551D01*
X42638222Y-67285361D01*
X42828699Y-67761551D01*
X43019175Y-67094885D01*
X43781079Y-67713932D02*
X43685841Y-67761551D01*
X43495365Y-67761551D01*
X43400127Y-67713932D01*
X43352508Y-67618694D01*
X43352508Y-67237742D01*
X43400127Y-67142504D01*
X43495365Y-67094885D01*
X43685841Y-67094885D01*
X43781079Y-67142504D01*
X43828699Y-67237742D01*
X43828699Y-67332980D01*
X43352508Y-67428218D01*
X44638222Y-67713932D02*
X44542984Y-67761551D01*
X44352508Y-67761551D01*
X44257270Y-67713932D01*
X44209651Y-67618694D01*
X44209651Y-67237742D01*
X44257270Y-67142504D01*
X44352508Y-67094885D01*
X44542984Y-67094885D01*
X44638222Y-67142504D01*
X44685841Y-67237742D01*
X44685841Y-67332980D01*
X44209651Y-67428218D01*
X45114413Y-67094885D02*
X45114413Y-67761551D01*
X45114413Y-67190123D02*
X45162032Y-67142504D01*
X45257270Y-67094885D01*
X45400127Y-67094885D01*
X45495365Y-67142504D01*
X45542984Y-67237742D01*
X45542984Y-67761551D01*
X46638222Y-67094885D02*
X47019175Y-67094885D01*
X46781079Y-66761551D02*
X46781079Y-67618694D01*
X46828699Y-67713932D01*
X46923937Y-67761551D01*
X47019175Y-67761551D01*
X47733460Y-67713932D02*
X47638222Y-67761551D01*
X47447746Y-67761551D01*
X47352508Y-67713932D01*
X47304889Y-67618694D01*
X47304889Y-67237742D01*
X47352508Y-67142504D01*
X47447746Y-67094885D01*
X47638222Y-67094885D01*
X47733460Y-67142504D01*
X47781079Y-67237742D01*
X47781079Y-67332980D01*
X47304889Y-67428218D01*
X48209651Y-67761551D02*
X48209651Y-67094885D01*
X48209651Y-67190123D02*
X48257270Y-67142504D01*
X48352508Y-67094885D01*
X48495365Y-67094885D01*
X48590603Y-67142504D01*
X48638222Y-67237742D01*
X48638222Y-67761551D01*
X48638222Y-67237742D02*
X48685841Y-67142504D01*
X48781079Y-67094885D01*
X48923937Y-67094885D01*
X49019175Y-67142504D01*
X49066794Y-67237742D01*
X49066794Y-67761551D01*
X49542984Y-67094885D02*
X49542984Y-68094885D01*
X49542984Y-67142504D02*
X49638222Y-67094885D01*
X49828699Y-67094885D01*
X49923937Y-67142504D01*
X49971556Y-67190123D01*
X50019175Y-67285361D01*
X50019175Y-67571075D01*
X49971556Y-67666313D01*
X49923937Y-67713932D01*
X49828699Y-67761551D01*
X49638222Y-67761551D01*
X49542984Y-67713932D01*
X50828699Y-67713932D02*
X50733460Y-67761551D01*
X50542984Y-67761551D01*
X50447746Y-67713932D01*
X50400127Y-67618694D01*
X50400127Y-67237742D01*
X50447746Y-67142504D01*
X50542984Y-67094885D01*
X50733460Y-67094885D01*
X50828699Y-67142504D01*
X50876318Y-67237742D01*
X50876318Y-67332980D01*
X50400127Y-67428218D01*
X51304889Y-67761551D02*
X51304889Y-67094885D01*
X51304889Y-67285361D02*
X51352508Y-67190123D01*
X51400127Y-67142504D01*
X51495365Y-67094885D01*
X51590603Y-67094885D01*
X52352508Y-67761551D02*
X52352508Y-67237742D01*
X52304889Y-67142504D01*
X52209651Y-67094885D01*
X52019175Y-67094885D01*
X51923937Y-67142504D01*
X52352508Y-67713932D02*
X52257270Y-67761551D01*
X52019175Y-67761551D01*
X51923937Y-67713932D01*
X51876318Y-67618694D01*
X51876318Y-67523456D01*
X51923937Y-67428218D01*
X52019175Y-67380599D01*
X52257270Y-67380599D01*
X52352508Y-67332980D01*
X52685841Y-67094885D02*
X53066794Y-67094885D01*
X52828699Y-66761551D02*
X52828699Y-67618694D01*
X52876318Y-67713932D01*
X52971556Y-67761551D01*
X53066794Y-67761551D01*
X53828699Y-67094885D02*
X53828699Y-67761551D01*
X53400127Y-67094885D02*
X53400127Y-67618694D01*
X53447746Y-67713932D01*
X53542984Y-67761551D01*
X53685841Y-67761551D01*
X53781079Y-67713932D01*
X53828699Y-67666313D01*
X54304889Y-67761551D02*
X54304889Y-67094885D01*
X54304889Y-67285361D02*
X54352508Y-67190123D01*
X54400127Y-67142504D01*
X54495365Y-67094885D01*
X54590603Y-67094885D01*
X55304889Y-67713932D02*
X55209651Y-67761551D01*
X55019175Y-67761551D01*
X54923937Y-67713932D01*
X54876318Y-67618694D01*
X54876318Y-67237742D01*
X54923937Y-67142504D01*
X55019175Y-67094885D01*
X55209651Y-67094885D01*
X55304889Y-67142504D01*
X55352508Y-67237742D01*
X55352508Y-67332980D01*
X54876318Y-67428218D01*
X56495365Y-67713932D02*
X56590603Y-67761551D01*
X56781079Y-67761551D01*
X56876318Y-67713932D01*
X56923937Y-67618694D01*
X56923937Y-67571075D01*
X56876318Y-67475837D01*
X56781079Y-67428218D01*
X56638222Y-67428218D01*
X56542984Y-67380599D01*
X56495365Y-67285361D01*
X56495365Y-67237742D01*
X56542984Y-67142504D01*
X56638222Y-67094885D01*
X56781079Y-67094885D01*
X56876318Y-67142504D01*
X57733460Y-67713932D02*
X57638222Y-67761551D01*
X57447746Y-67761551D01*
X57352508Y-67713932D01*
X57304889Y-67618694D01*
X57304889Y-67237742D01*
X57352508Y-67142504D01*
X57447746Y-67094885D01*
X57638222Y-67094885D01*
X57733460Y-67142504D01*
X57781079Y-67237742D01*
X57781079Y-67332980D01*
X57304889Y-67428218D01*
X58209651Y-67094885D02*
X58209651Y-67761551D01*
X58209651Y-67190123D02*
X58257270Y-67142504D01*
X58352508Y-67094885D01*
X58495365Y-67094885D01*
X58590603Y-67142504D01*
X58638222Y-67237742D01*
X58638222Y-67761551D01*
X59066794Y-67713932D02*
X59162032Y-67761551D01*
X59352508Y-67761551D01*
X59447746Y-67713932D01*
X59495365Y-67618694D01*
X59495365Y-67571075D01*
X59447746Y-67475837D01*
X59352508Y-67428218D01*
X59209651Y-67428218D01*
X59114413Y-67380599D01*
X59066794Y-67285361D01*
X59066794Y-67237742D01*
X59114413Y-67142504D01*
X59209651Y-67094885D01*
X59352508Y-67094885D01*
X59447746Y-67142504D01*
X60066794Y-67761551D02*
X59971556Y-67713932D01*
X59923937Y-67666313D01*
X59876318Y-67571075D01*
X59876318Y-67285361D01*
X59923937Y-67190123D01*
X59971556Y-67142504D01*
X60066794Y-67094885D01*
X60209651Y-67094885D01*
X60304889Y-67142504D01*
X60352508Y-67190123D01*
X60400127Y-67285361D01*
X60400127Y-67571075D01*
X60352508Y-67666313D01*
X60304889Y-67713932D01*
X60209651Y-67761551D01*
X60066794Y-67761551D01*
X60828699Y-67761551D02*
X60828699Y-67094885D01*
X60828699Y-67285361D02*
X60876318Y-67190123D01*
X60923937Y-67142504D01*
X61019175Y-67094885D01*
X61114413Y-67094885D01*
X63019175Y-67761551D02*
X62971556Y-67761551D01*
X62876318Y-67713932D01*
X62733460Y-67571075D01*
X62495365Y-67285361D01*
X62400127Y-67142504D01*
X62352508Y-66999647D01*
X62352508Y-66904409D01*
X62400127Y-66809171D01*
X62495365Y-66761551D01*
X62542984Y-66761551D01*
X62638222Y-66809171D01*
X62685841Y-66904409D01*
X62685841Y-66952028D01*
X62638222Y-67047266D01*
X62590603Y-67094885D01*
X62304889Y-67285361D01*
X62257270Y-67332980D01*
X62209651Y-67428218D01*
X62209651Y-67571075D01*
X62257270Y-67666313D01*
X62304889Y-67713932D01*
X62400127Y-67761551D01*
X62542984Y-67761551D01*
X62638222Y-67713932D01*
X62685841Y-67666313D01*
X62828699Y-67475837D01*
X62876318Y-67332980D01*
X62876318Y-67237742D01*
X64209651Y-67761551D02*
X64209651Y-67094885D01*
X64209651Y-67285361D02*
X64257270Y-67190123D01*
X64304889Y-67142504D01*
X64400127Y-67094885D01*
X64495365Y-67094885D01*
X65209651Y-67713932D02*
X65114413Y-67761551D01*
X64923937Y-67761551D01*
X64828699Y-67713932D01*
X64781079Y-67618694D01*
X64781079Y-67237742D01*
X64828699Y-67142504D01*
X64923937Y-67094885D01*
X65114413Y-67094885D01*
X65209651Y-67142504D01*
X65257270Y-67237742D01*
X65257270Y-67332980D01*
X64781079Y-67428218D01*
X65638222Y-67713932D02*
X65733460Y-67761551D01*
X65923937Y-67761551D01*
X66019175Y-67713932D01*
X66066794Y-67618694D01*
X66066794Y-67571075D01*
X66019175Y-67475837D01*
X65923937Y-67428218D01*
X65781079Y-67428218D01*
X65685841Y-67380599D01*
X65638222Y-67285361D01*
X65638222Y-67237742D01*
X65685841Y-67142504D01*
X65781079Y-67094885D01*
X65923937Y-67094885D01*
X66019175Y-67142504D01*
X66352508Y-67094885D02*
X66733460Y-67094885D01*
X66495365Y-66761551D02*
X66495365Y-67618694D01*
X66542984Y-67713932D01*
X66638222Y-67761551D01*
X66733460Y-67761551D01*
X67971556Y-67761551D02*
X67876318Y-67713932D01*
X67828699Y-67666313D01*
X67781079Y-67571075D01*
X67781079Y-67285361D01*
X67828699Y-67190123D01*
X67876318Y-67142504D01*
X67971556Y-67094885D01*
X68114413Y-67094885D01*
X68209651Y-67142504D01*
X68257270Y-67190123D01*
X68304889Y-67285361D01*
X68304889Y-67571075D01*
X68257270Y-67666313D01*
X68209651Y-67713932D01*
X68114413Y-67761551D01*
X67971556Y-67761551D01*
X68590603Y-67094885D02*
X68971556Y-67094885D01*
X68733460Y-67761551D02*
X68733460Y-66904409D01*
X68781079Y-66809171D01*
X68876318Y-66761551D01*
X68971556Y-66761551D01*
X70066794Y-67761551D02*
X70066794Y-66761551D01*
X70066794Y-67142504D02*
X70162032Y-67094885D01*
X70352508Y-67094885D01*
X70447746Y-67142504D01*
X70495365Y-67190123D01*
X70542984Y-67285361D01*
X70542984Y-67571075D01*
X70495365Y-67666313D01*
X70447746Y-67713932D01*
X70352508Y-67761551D01*
X70162032Y-67761551D01*
X70066794Y-67713932D01*
X71114413Y-67761551D02*
X71019175Y-67713932D01*
X70971556Y-67666313D01*
X70923937Y-67571075D01*
X70923937Y-67285361D01*
X70971556Y-67190123D01*
X71019175Y-67142504D01*
X71114413Y-67094885D01*
X71257270Y-67094885D01*
X71352508Y-67142504D01*
X71400127Y-67190123D01*
X71447746Y-67285361D01*
X71447746Y-67571075D01*
X71400127Y-67666313D01*
X71352508Y-67713932D01*
X71257270Y-67761551D01*
X71114413Y-67761551D01*
X72304889Y-67761551D02*
X72304889Y-67237742D01*
X72257270Y-67142504D01*
X72162032Y-67094885D01*
X71971556Y-67094885D01*
X71876318Y-67142504D01*
X72304889Y-67713932D02*
X72209651Y-67761551D01*
X71971556Y-67761551D01*
X71876318Y-67713932D01*
X71828699Y-67618694D01*
X71828699Y-67523456D01*
X71876318Y-67428218D01*
X71971556Y-67380599D01*
X72209651Y-67380599D01*
X72304889Y-67332980D01*
X72781079Y-67761551D02*
X72781079Y-67094885D01*
X72781079Y-67285361D02*
X72828699Y-67190123D01*
X72876318Y-67142504D01*
X72971556Y-67094885D01*
X73066794Y-67094885D01*
X73828699Y-67761551D02*
X73828699Y-66761551D01*
X73828699Y-67713932D02*
X73733460Y-67761551D01*
X73542984Y-67761551D01*
X73447746Y-67713932D01*
X73400127Y-67666313D01*
X73352508Y-67571075D01*
X73352508Y-67285361D01*
X73400127Y-67190123D01*
X73447746Y-67142504D01*
X73542984Y-67094885D01*
X73733460Y-67094885D01*
X73828699Y-67142504D01*
X74304889Y-67666313D02*
X74352508Y-67713932D01*
X74304889Y-67761551D01*
X74257270Y-67713932D01*
X74304889Y-67666313D01*
X74304889Y-67761551D01*
X34233460Y-68704885D02*
X34423937Y-69371551D01*
X34614413Y-68895361D01*
X34804889Y-69371551D01*
X34995365Y-68704885D01*
X35376318Y-69371551D02*
X35376318Y-68371551D01*
X35804889Y-69371551D02*
X35804889Y-68847742D01*
X35757270Y-68752504D01*
X35662032Y-68704885D01*
X35519175Y-68704885D01*
X35423937Y-68752504D01*
X35376318Y-68800123D01*
X36185841Y-68704885D02*
X36423937Y-69371551D01*
X36662032Y-68704885D02*
X36423937Y-69371551D01*
X36328699Y-69609647D01*
X36281079Y-69657266D01*
X36185841Y-69704885D01*
X37185841Y-69276313D02*
X37233460Y-69323932D01*
X37185841Y-69371551D01*
X37138222Y-69323932D01*
X37185841Y-69276313D01*
X37185841Y-69371551D01*
X36995365Y-68419171D02*
X37090603Y-68371551D01*
X37328699Y-68371551D01*
X37423937Y-68419171D01*
X37471556Y-68514409D01*
X37471556Y-68609647D01*
X37423937Y-68704885D01*
X37376318Y-68752504D01*
X37281079Y-68800123D01*
X37233460Y-68847742D01*
X37185841Y-68942980D01*
X37185841Y-68990599D01*
X38519175Y-68371551D02*
X39090603Y-68371551D01*
X38804889Y-69371551D02*
X38804889Y-68371551D01*
X39804889Y-69323932D02*
X39709651Y-69371551D01*
X39519175Y-69371551D01*
X39423937Y-69323932D01*
X39376318Y-69228694D01*
X39376318Y-68847742D01*
X39423937Y-68752504D01*
X39519175Y-68704885D01*
X39709651Y-68704885D01*
X39804889Y-68752504D01*
X39852508Y-68847742D01*
X39852508Y-68942980D01*
X39376318Y-69038218D01*
X40281080Y-69371551D02*
X40281080Y-68704885D01*
X40281080Y-68800123D02*
X40328699Y-68752504D01*
X40423937Y-68704885D01*
X40566794Y-68704885D01*
X40662032Y-68752504D01*
X40709651Y-68847742D01*
X40709651Y-69371551D01*
X40709651Y-68847742D02*
X40757270Y-68752504D01*
X40852508Y-68704885D01*
X40995365Y-68704885D01*
X41090603Y-68752504D01*
X41138222Y-68847742D01*
X41138222Y-69371551D01*
X41614413Y-68704885D02*
X41614413Y-69704885D01*
X41614413Y-68752504D02*
X41709651Y-68704885D01*
X41900127Y-68704885D01*
X41995365Y-68752504D01*
X42042984Y-68800123D01*
X42090603Y-68895361D01*
X42090603Y-69181075D01*
X42042984Y-69276313D01*
X41995365Y-69323932D01*
X41900127Y-69371551D01*
X41709651Y-69371551D01*
X41614413Y-69323932D01*
X42900127Y-69323932D02*
X42804889Y-69371551D01*
X42614413Y-69371551D01*
X42519175Y-69323932D01*
X42471556Y-69228694D01*
X42471556Y-68847742D01*
X42519175Y-68752504D01*
X42614413Y-68704885D01*
X42804889Y-68704885D01*
X42900127Y-68752504D01*
X42947746Y-68847742D01*
X42947746Y-68942980D01*
X42471556Y-69038218D01*
X43376318Y-69371551D02*
X43376318Y-68704885D01*
X43376318Y-68895361D02*
X43423937Y-68800123D01*
X43471556Y-68752504D01*
X43566794Y-68704885D01*
X43662032Y-68704885D01*
X44423937Y-69371551D02*
X44423937Y-68847742D01*
X44376318Y-68752504D01*
X44281080Y-68704885D01*
X44090603Y-68704885D01*
X43995365Y-68752504D01*
X44423937Y-69323932D02*
X44328699Y-69371551D01*
X44090603Y-69371551D01*
X43995365Y-69323932D01*
X43947746Y-69228694D01*
X43947746Y-69133456D01*
X43995365Y-69038218D01*
X44090603Y-68990599D01*
X44328699Y-68990599D01*
X44423937Y-68942980D01*
X44757270Y-68704885D02*
X45138222Y-68704885D01*
X44900127Y-68371551D02*
X44900127Y-69228694D01*
X44947746Y-69323932D01*
X45042984Y-69371551D01*
X45138222Y-69371551D01*
X45900127Y-68704885D02*
X45900127Y-69371551D01*
X45471556Y-68704885D02*
X45471556Y-69228694D01*
X45519175Y-69323932D01*
X45614413Y-69371551D01*
X45757270Y-69371551D01*
X45852508Y-69323932D01*
X45900127Y-69276313D01*
X46376318Y-69371551D02*
X46376318Y-68704885D01*
X46376318Y-68895361D02*
X46423937Y-68800123D01*
X46471556Y-68752504D01*
X46566794Y-68704885D01*
X46662032Y-68704885D01*
X47376318Y-69323932D02*
X47281080Y-69371551D01*
X47090603Y-69371551D01*
X46995365Y-69323932D01*
X46947746Y-69228694D01*
X46947746Y-68847742D01*
X46995365Y-68752504D01*
X47090603Y-68704885D01*
X47281080Y-68704885D01*
X47376318Y-68752504D01*
X47423937Y-68847742D01*
X47423937Y-68942980D01*
X46947746Y-69038218D01*
X48566794Y-69323932D02*
X48662032Y-69371551D01*
X48852508Y-69371551D01*
X48947746Y-69323932D01*
X48995365Y-69228694D01*
X48995365Y-69181075D01*
X48947746Y-69085837D01*
X48852508Y-69038218D01*
X48709651Y-69038218D01*
X48614413Y-68990599D01*
X48566794Y-68895361D01*
X48566794Y-68847742D01*
X48614413Y-68752504D01*
X48709651Y-68704885D01*
X48852508Y-68704885D01*
X48947746Y-68752504D01*
X49804889Y-69323932D02*
X49709651Y-69371551D01*
X49519175Y-69371551D01*
X49423937Y-69323932D01*
X49376318Y-69228694D01*
X49376318Y-68847742D01*
X49423937Y-68752504D01*
X49519175Y-68704885D01*
X49709651Y-68704885D01*
X49804889Y-68752504D01*
X49852508Y-68847742D01*
X49852508Y-68942980D01*
X49376318Y-69038218D01*
X50281079Y-68704885D02*
X50281079Y-69371551D01*
X50281079Y-68800123D02*
X50328699Y-68752504D01*
X50423937Y-68704885D01*
X50566794Y-68704885D01*
X50662032Y-68752504D01*
X50709651Y-68847742D01*
X50709651Y-69371551D01*
X51138222Y-69323932D02*
X51233460Y-69371551D01*
X51423937Y-69371551D01*
X51519175Y-69323932D01*
X51566794Y-69228694D01*
X51566794Y-69181075D01*
X51519175Y-69085837D01*
X51423937Y-69038218D01*
X51281079Y-69038218D01*
X51185841Y-68990599D01*
X51138222Y-68895361D01*
X51138222Y-68847742D01*
X51185841Y-68752504D01*
X51281079Y-68704885D01*
X51423937Y-68704885D01*
X51519175Y-68752504D01*
X52138222Y-69371551D02*
X52042984Y-69323932D01*
X51995365Y-69276313D01*
X51947746Y-69181075D01*
X51947746Y-68895361D01*
X51995365Y-68800123D01*
X52042984Y-68752504D01*
X52138222Y-68704885D01*
X52281079Y-68704885D01*
X52376318Y-68752504D01*
X52423937Y-68800123D01*
X52471556Y-68895361D01*
X52471556Y-69181075D01*
X52423937Y-69276313D01*
X52376318Y-69323932D01*
X52281079Y-69371551D01*
X52138222Y-69371551D01*
X52900127Y-69371551D02*
X52900127Y-68704885D01*
X52900127Y-68895361D02*
X52947746Y-68800123D01*
X52995365Y-68752504D01*
X53090603Y-68704885D01*
X53185841Y-68704885D01*
X54709651Y-68704885D02*
X54709651Y-69514409D01*
X54662032Y-69609647D01*
X54614413Y-69657266D01*
X54519175Y-69704885D01*
X54376318Y-69704885D01*
X54281079Y-69657266D01*
X54709651Y-69323932D02*
X54614413Y-69371551D01*
X54423937Y-69371551D01*
X54328699Y-69323932D01*
X54281079Y-69276313D01*
X54233460Y-69181075D01*
X54233460Y-68895361D01*
X54281079Y-68800123D01*
X54328699Y-68752504D01*
X54423937Y-68704885D01*
X54614413Y-68704885D01*
X54709651Y-68752504D01*
X55566794Y-69323932D02*
X55471556Y-69371551D01*
X55281079Y-69371551D01*
X55185841Y-69323932D01*
X55138222Y-69228694D01*
X55138222Y-68847742D01*
X55185841Y-68752504D01*
X55281079Y-68704885D01*
X55471556Y-68704885D01*
X55566794Y-68752504D01*
X55614413Y-68847742D01*
X55614413Y-68942980D01*
X55138222Y-69038218D01*
X55900127Y-68704885D02*
X56281079Y-68704885D01*
X56042984Y-68371551D02*
X56042984Y-69228694D01*
X56090603Y-69323932D01*
X56185841Y-69371551D01*
X56281079Y-69371551D01*
X56566794Y-69323932D02*
X56662032Y-69371551D01*
X56852508Y-69371551D01*
X56947746Y-69323932D01*
X56995365Y-69228694D01*
X56995365Y-69181075D01*
X56947746Y-69085837D01*
X56852508Y-69038218D01*
X56709651Y-69038218D01*
X56614413Y-68990599D01*
X56566794Y-68895361D01*
X56566794Y-68847742D01*
X56614413Y-68752504D01*
X56709651Y-68704885D01*
X56852508Y-68704885D01*
X56947746Y-68752504D01*
X58185841Y-69371551D02*
X58185841Y-68371551D01*
X58614413Y-69371551D02*
X58614413Y-68847742D01*
X58566794Y-68752504D01*
X58471556Y-68704885D01*
X58328699Y-68704885D01*
X58233460Y-68752504D01*
X58185841Y-68800123D01*
X59471556Y-69323932D02*
X59376318Y-69371551D01*
X59185841Y-69371551D01*
X59090603Y-69323932D01*
X59042984Y-69228694D01*
X59042984Y-68847742D01*
X59090603Y-68752504D01*
X59185841Y-68704885D01*
X59376318Y-68704885D01*
X59471556Y-68752504D01*
X59519175Y-68847742D01*
X59519175Y-68942980D01*
X59042984Y-69038218D01*
X60376318Y-69371551D02*
X60376318Y-68847742D01*
X60328699Y-68752504D01*
X60233460Y-68704885D01*
X60042984Y-68704885D01*
X59947746Y-68752504D01*
X60376318Y-69323932D02*
X60281079Y-69371551D01*
X60042984Y-69371551D01*
X59947746Y-69323932D01*
X59900127Y-69228694D01*
X59900127Y-69133456D01*
X59947746Y-69038218D01*
X60042984Y-68990599D01*
X60281079Y-68990599D01*
X60376318Y-68942980D01*
X60709651Y-68704885D02*
X61090603Y-68704885D01*
X60852508Y-68371551D02*
X60852508Y-69228694D01*
X60900127Y-69323932D01*
X60995365Y-69371551D01*
X61090603Y-69371551D01*
X61804889Y-69323932D02*
X61709651Y-69371551D01*
X61519175Y-69371551D01*
X61423937Y-69323932D01*
X61376318Y-69228694D01*
X61376318Y-68847742D01*
X61423937Y-68752504D01*
X61519175Y-68704885D01*
X61709651Y-68704885D01*
X61804889Y-68752504D01*
X61852508Y-68847742D01*
X61852508Y-68942980D01*
X61376318Y-69038218D01*
X62709651Y-69371551D02*
X62709651Y-68371551D01*
X62709651Y-69323932D02*
X62614413Y-69371551D01*
X62423937Y-69371551D01*
X62328699Y-69323932D01*
X62281079Y-69276313D01*
X62233460Y-69181075D01*
X62233460Y-68895361D01*
X62281079Y-68800123D01*
X62328699Y-68752504D01*
X62423937Y-68704885D01*
X62614413Y-68704885D01*
X62709651Y-68752504D01*
X64376318Y-68704885D02*
X64376318Y-69371551D01*
X63947746Y-68704885D02*
X63947746Y-69228694D01*
X63995365Y-69323932D01*
X64090603Y-69371551D01*
X64233460Y-69371551D01*
X64328699Y-69323932D01*
X64376318Y-69276313D01*
X64852508Y-68704885D02*
X64852508Y-69704885D01*
X64852508Y-68752504D02*
X64947746Y-68704885D01*
X65138222Y-68704885D01*
X65233460Y-68752504D01*
X65281079Y-68800123D01*
X65328699Y-68895361D01*
X65328699Y-69181075D01*
X65281079Y-69276313D01*
X65233460Y-69323932D01*
X65138222Y-69371551D01*
X64947746Y-69371551D01*
X64852508Y-69323932D01*
X66519175Y-69371551D02*
X66519175Y-68371551D01*
X66519175Y-68752504D02*
X66614413Y-68704885D01*
X66804889Y-68704885D01*
X66900127Y-68752504D01*
X66947746Y-68800123D01*
X66995365Y-68895361D01*
X66995365Y-69181075D01*
X66947746Y-69276313D01*
X66900127Y-69323932D01*
X66804889Y-69371551D01*
X66614413Y-69371551D01*
X66519175Y-69323932D01*
X67328699Y-68704885D02*
X67566794Y-69371551D01*
X67804889Y-68704885D02*
X67566794Y-69371551D01*
X67471556Y-69609647D01*
X67423937Y-69657266D01*
X67328699Y-69704885D01*
X68947746Y-68847742D02*
X69281079Y-68847742D01*
X69423937Y-69371551D02*
X68947746Y-69371551D01*
X68947746Y-68371551D01*
X69423937Y-68371551D01*
X69804889Y-69323932D02*
X69947746Y-69371551D01*
X70185841Y-69371551D01*
X70281079Y-69323932D01*
X70328699Y-69276313D01*
X70376318Y-69181075D01*
X70376318Y-69085837D01*
X70328699Y-68990599D01*
X70281079Y-68942980D01*
X70185841Y-68895361D01*
X69995365Y-68847742D01*
X69900127Y-68800123D01*
X69852508Y-68752504D01*
X69804889Y-68657266D01*
X69804889Y-68562028D01*
X69852508Y-68466790D01*
X69900127Y-68419171D01*
X69995365Y-68371551D01*
X70233460Y-68371551D01*
X70376318Y-68419171D01*
X70804889Y-69371551D02*
X70804889Y-68371551D01*
X71185841Y-68371551D01*
X71281079Y-68419171D01*
X71328699Y-68466790D01*
X71376318Y-68562028D01*
X71376318Y-68704885D01*
X71328699Y-68800123D01*
X71281079Y-68847742D01*
X71185841Y-68895361D01*
X70804889Y-68895361D01*
X71709651Y-68371551D02*
X72328699Y-68371551D01*
X71995365Y-68752504D01*
X72138222Y-68752504D01*
X72233460Y-68800123D01*
X72281079Y-68847742D01*
X72328699Y-68942980D01*
X72328699Y-69181075D01*
X72281079Y-69276313D01*
X72233460Y-69323932D01*
X72138222Y-69371551D01*
X71852508Y-69371551D01*
X71757270Y-69323932D01*
X71709651Y-69276313D01*
X72709651Y-68466790D02*
X72757270Y-68419171D01*
X72852508Y-68371551D01*
X73090603Y-68371551D01*
X73185841Y-68419171D01*
X73233460Y-68466790D01*
X73281079Y-68562028D01*
X73281079Y-68657266D01*
X73233460Y-68800123D01*
X72662032Y-69371551D01*
X73281079Y-69371551D01*
X85312508Y-19791552D02*
X84741080Y-19791552D01*
X85026794Y-19791552D02*
X85026794Y-18791552D01*
X84931556Y-18934410D01*
X84836318Y-19029648D01*
X84741080Y-19077267D01*
X85741080Y-19696314D02*
X85788699Y-19743933D01*
X85741080Y-19791552D01*
X85693460Y-19743933D01*
X85741080Y-19696314D01*
X85741080Y-19791552D01*
X86645841Y-19124886D02*
X86645841Y-19791552D01*
X86407746Y-18743933D02*
X86169651Y-19458219D01*
X86788699Y-19458219D01*
X87312508Y-19220124D02*
X87217270Y-19172505D01*
X87169651Y-19124886D01*
X87122032Y-19029648D01*
X87122032Y-18982029D01*
X87169651Y-18886791D01*
X87217270Y-18839172D01*
X87312508Y-18791552D01*
X87502984Y-18791552D01*
X87598222Y-18839172D01*
X87645841Y-18886791D01*
X87693460Y-18982029D01*
X87693460Y-19029648D01*
X87645841Y-19124886D01*
X87598222Y-19172505D01*
X87502984Y-19220124D01*
X87312508Y-19220124D01*
X87217270Y-19267743D01*
X87169651Y-19315362D01*
X87122032Y-19410600D01*
X87122032Y-19601076D01*
X87169651Y-19696314D01*
X87217270Y-19743933D01*
X87312508Y-19791552D01*
X87502984Y-19791552D01*
X87598222Y-19743933D01*
X87645841Y-19696314D01*
X87693460Y-19601076D01*
X87693460Y-19410600D01*
X87645841Y-19315362D01*
X87598222Y-19267743D01*
X87502984Y-19220124D01*
X88026794Y-18791552D02*
X88645841Y-18791552D01*
X88312508Y-19172505D01*
X88455365Y-19172505D01*
X88550603Y-19220124D01*
X88598222Y-19267743D01*
X88645841Y-19362981D01*
X88645841Y-19601076D01*
X88598222Y-19696314D01*
X88550603Y-19743933D01*
X88455365Y-19791552D01*
X88169651Y-19791552D01*
X88074413Y-19743933D01*
X88026794Y-19696314D01*
X89502984Y-19124886D02*
X89502984Y-19791552D01*
X89264889Y-18743933D02*
X89026794Y-19458219D01*
X89645841Y-19458219D01*
X90788699Y-19791552D02*
X90788699Y-19124886D01*
X90788699Y-18791552D02*
X90741080Y-18839172D01*
X90788699Y-18886791D01*
X90836318Y-18839172D01*
X90788699Y-18791552D01*
X90788699Y-18886791D01*
X91264889Y-19124886D02*
X91264889Y-19791552D01*
X91264889Y-19220124D02*
X91312508Y-19172505D01*
X91407746Y-19124886D01*
X91550603Y-19124886D01*
X91645841Y-19172505D01*
X91693460Y-19267743D01*
X91693460Y-19791552D01*
D11*
X107080080Y-49961171D02*
X107080080Y-19902752D01*
X69402080Y-49961171D02*
X69402080Y-19902752D01*
X107080080Y-20489172D02*
X69402080Y-20489172D01*
X107080080Y-20489172D02*
X69402080Y-20489172D01*
X107080080Y-20489172D02*
X105953576Y-19902751D01*
X107080080Y-20489172D02*
X105953576Y-21075593D01*
X69402080Y-20489172D02*
X70528584Y-21075593D01*
X69402080Y-20489172D02*
X70528584Y-19902751D01*
D10*
X131007929Y-74446573D02*
X131008401Y-75065620D01*
X130627194Y-74732578D01*
X130627303Y-74875435D01*
X130579757Y-74970709D01*
X130532174Y-75018364D01*
X130436972Y-75066056D01*
X130198877Y-75066238D01*
X130103603Y-75018691D01*
X130055948Y-74971109D01*
X130008256Y-74875907D01*
X130008038Y-74590193D01*
X130055584Y-74494918D01*
X130103167Y-74447263D01*
X130103966Y-75494882D02*
X130056384Y-75542537D01*
X130008728Y-75494954D01*
X130056311Y-75447299D01*
X130103966Y-75494882D01*
X130008728Y-75494954D01*
X131009418Y-76398953D02*
X131009273Y-76208477D01*
X130961581Y-76113275D01*
X130913926Y-76065692D01*
X130770996Y-75970563D01*
X130580484Y-75923090D01*
X130199531Y-75923380D01*
X130104330Y-75971072D01*
X130056747Y-76018727D01*
X130009200Y-76114002D01*
X130009346Y-76304478D01*
X130057038Y-76399680D01*
X130104693Y-76447262D01*
X130199967Y-76494809D01*
X130438062Y-76494627D01*
X130533264Y-76446935D01*
X130580847Y-76399280D01*
X130628393Y-76304006D01*
X130628248Y-76113529D01*
X130580556Y-76018328D01*
X130532901Y-75970745D01*
X130437626Y-75923199D01*
X130010218Y-77447335D02*
X130009782Y-76875906D01*
X130010000Y-77161621D02*
X131010000Y-77160858D01*
X130867070Y-77065729D01*
X130771759Y-76970563D01*
X130724067Y-76875361D01*
X130010945Y-78399715D02*
X130010509Y-77828287D01*
X130010727Y-78114001D02*
X131010726Y-78113238D01*
X130867796Y-78018109D01*
X130772486Y-77922944D01*
X130724794Y-77827742D01*
X130011308Y-78875906D02*
X130011453Y-79066382D01*
X130059145Y-79161584D01*
X130106800Y-79209166D01*
X130249730Y-79304295D01*
X130440242Y-79351769D01*
X130821195Y-79351478D01*
X130916397Y-79303787D01*
X130963979Y-79256131D01*
X131011526Y-79160857D01*
X131011380Y-78970381D01*
X130963689Y-78875179D01*
X130916033Y-78827596D01*
X130820759Y-78780050D01*
X130582664Y-78780232D01*
X130487462Y-78827923D01*
X130439879Y-78875579D01*
X130392333Y-78970853D01*
X130392478Y-79161329D01*
X130440170Y-79256531D01*
X130487825Y-79304114D01*
X130583100Y-79351660D01*
X130012580Y-80542572D02*
X130679246Y-80542063D01*
X131012579Y-80541809D02*
X130964924Y-80494226D01*
X130917341Y-80541882D01*
X130964997Y-80589464D01*
X131012579Y-80541809D01*
X130917341Y-80541882D01*
X130679609Y-81018254D02*
X130012943Y-81018762D01*
X130584371Y-81018326D02*
X130632027Y-81065909D01*
X130679718Y-81161111D01*
X130679827Y-81303968D01*
X130632281Y-81399242D01*
X130537079Y-81446934D01*
X130013270Y-81447334D01*
D11*
X88374080Y-32155789D02*
X129864437Y-32124131D01*
X88444080Y-123897604D02*
X129934437Y-123865946D01*
X129278017Y-32124579D02*
X129348017Y-123866394D01*
X129278017Y-32124579D02*
X129348017Y-123866394D01*
X129278017Y-32124579D02*
X128692456Y-33251530D01*
X129278017Y-32124579D02*
X129865297Y-33250635D01*
X129348017Y-123866394D02*
X129933578Y-122739443D01*
X129348017Y-123866394D02*
X128760737Y-122740338D01*
M02*
