M48
; DRILL file {KiCad 6.0.5-a6ca702e91~116~ubuntu20.04.1} date Wed Jun 15 15:16:03 2022
; FORMAT={-:-/ absolute / metric / decimal}
; #@! TF.CreationDate,2022-06-15T15:16:03+00:00
; #@! TF.GenerationSoftware,Kicad,Pcbnew,6.0.5-a6ca702e91~116~ubuntu20.04.1
; #@! TF.FileFunction,MixedPlating,1,4
FMAT,2
METRIC
; #@! TA.AperFunction,Plated,PTH,ViaDrill
T1C0.250
; #@! TA.AperFunction,Plated,PTH,ComponentDrill
T2C0.500
; #@! TA.AperFunction,Plated,PTH,ComponentDrill
T3C0.600
; #@! TA.AperFunction,NonPlated,NPTH,ComponentDrill
T4C0.650
; #@! TA.AperFunction,NonPlated,NPTH,ComponentDrill
T5C1.152
%
G90
G05
T1
X72.577Y-50.461
X72.577Y-51.477
X72.704Y-54.398
X73.466Y-46.524
X75.403Y-63.586
X76.133Y-39.412
X76.133Y-40.936
X76.26Y-48.556
X76.26Y-50.842
X76.895Y-56.659
X77.149Y-45.0
X77.201Y-50.88
X77.203Y-52.18
X77.203Y-53.001
X77.276Y-46.651
X77.276Y-48.429
X77.412Y-61.813
X78.202Y-56.255
X78.281Y-65.918
X78.438Y-50.468
X79.889Y-63.891
X80.324Y-54.271
X80.324Y-55.795
X80.832Y-39.412
X81.576Y-49.002
X83.702Y-60.672
X83.702Y-61.485
X83.88Y-39.539
X84.41Y-61.467
X84.769Y-47.286
X85.15Y-53.636
X85.277Y-59.605
X85.328Y-63.11
X85.404Y-39.539
X85.785Y-67.987
X85.899Y-41.431
X85.899Y-43.362
X85.899Y-45.381
X86.293Y-55.922
X87.055Y-39.539
X87.874Y-41.431
X87.874Y-43.419
X87.874Y-45.324
X88.706Y-39.539
X89.849Y-41.431
X89.849Y-43.406
X89.849Y-45.381
X90.23Y-39.539
X90.992Y-58.081
X91.5Y-59.605
X91.881Y-39.539
X92.262Y-54.49
X92.516Y-56.684
X92.643Y-40.809
X93.786Y-49.191
X94.036Y-58.164
X94.421Y-58.97
X94.548Y-55.033
X94.929Y-38.396
X94.929Y-49.338
X95.564Y-40.936
X96.453Y-40.936
X96.58Y-42.079
X96.821Y-57.917
X97.435Y-54.95
X97.469Y-43.984
X98.11Y-54.521
X98.612Y-41.698
X100.898Y-56.684
T2
X83.952Y-70.545
X91.952Y-70.545
T4
X100.33Y-47.571
X100.33Y-53.351
T5
X87.944Y-35.221
X87.944Y-121.073
T3
X99.25Y-46.141G85X100.35Y-46.141
G05
X99.25Y-54.781G85X100.35Y-54.781
G05
X103.68Y-46.141G85X104.28Y-46.141
G05
X103.68Y-54.781G85X104.28Y-54.781
G05
T0
M30
