G04 #@! TF.GenerationSoftware,KiCad,Pcbnew,6.0.5-a6ca702e91~116~ubuntu20.04.1*
G04 #@! TF.CreationDate,2022-06-28T17:03:59+00:00*
G04 #@! TF.ProjectId,PlantBuddy,506c616e-7442-4756-9464-792e6b696361,rev?*
G04 #@! TF.SameCoordinates,Original*
G04 #@! TF.FileFunction,Copper,L2,Inr*
G04 #@! TF.FilePolarity,Positive*
%FSLAX46Y46*%
G04 Gerber Fmt 4.6, Leading zero omitted, Abs format (unit mm)*
G04 Created by KiCad (PCBNEW 6.0.5-a6ca702e91~116~ubuntu20.04.1) date 2022-06-28 17:03:59*
%MOMM*%
%LPD*%
G01*
G04 APERTURE LIST*
G04 #@! TA.AperFunction,ComponentPad*
%ADD10C,0.400000*%
G04 #@! TD*
G04 #@! TA.AperFunction,ComponentPad*
%ADD11O,2.100000X1.000000*%
G04 #@! TD*
G04 #@! TA.AperFunction,ComponentPad*
%ADD12O,1.600000X1.000000*%
G04 #@! TD*
G04 #@! TA.AperFunction,ViaPad*
%ADD13C,0.600000*%
G04 #@! TD*
G04 APERTURE END LIST*
D10*
G04 #@! TO.N,GND*
G04 #@! TO.C,U3*
X141174580Y-55337171D03*
X141874580Y-53237171D03*
X141874580Y-54637171D03*
X140474580Y-54637171D03*
X142574580Y-52537171D03*
X142574580Y-53937171D03*
X140474580Y-53237171D03*
X143274580Y-53237171D03*
X142574580Y-55337171D03*
X141174580Y-53937171D03*
X143274580Y-54637171D03*
X141174580Y-52537171D03*
G04 #@! TD*
D11*
G04 #@! TO.N,GND*
G04 #@! TO.C,J1*
X129999580Y-60936671D03*
X129999580Y-69576671D03*
D12*
X125819580Y-60936671D03*
X125819580Y-69576671D03*
G04 #@! TD*
D13*
G04 #@! TO.N,+BATT*
X130743080Y-56049171D03*
G04 #@! TO.N,+3V3*
X146364080Y-67479171D03*
X141792080Y-69511171D03*
X141665080Y-73067171D03*
X147888080Y-72051171D03*
X140014080Y-66082171D03*
X130489080Y-52747171D03*
X128203080Y-51477171D03*
X127949080Y-43984171D03*
X129219080Y-50715171D03*
X129219080Y-51477171D03*
X146859080Y-58831171D03*
X125155080Y-43222171D03*
X128203080Y-50715171D03*
G04 #@! TO.N,/SDA*
X127695080Y-40936171D03*
X130870080Y-39920171D03*
G04 #@! TO.N,/SCL*
X127695080Y-41825171D03*
X130743080Y-41952171D03*
X133791080Y-42206171D03*
G04 #@! TO.N,GND*
X126679080Y-43222171D03*
X129854080Y-53636171D03*
X135950080Y-69511171D03*
X150428080Y-69676171D03*
X131632080Y-58208171D03*
X153095080Y-72940171D03*
X130362080Y-43222171D03*
X128673749Y-39630671D03*
X131759080Y-72686171D03*
X135823080Y-46270171D03*
X125980580Y-56112671D03*
X152079080Y-67580605D03*
X150428080Y-71162171D03*
X136077080Y-73067171D03*
X129854080Y-59605171D03*
X129854080Y-46905171D03*
X150428080Y-68622171D03*
X124266080Y-42587171D03*
X152206080Y-72597171D03*
X130122185Y-51512671D03*
X126171080Y-72305171D03*
X150809080Y-46143171D03*
X151190080Y-67606171D03*
X146929080Y-55281171D03*
X126171080Y-47921171D03*
X131632080Y-46905171D03*
X128584080Y-72686171D03*
X123880621Y-49129170D03*
X152972580Y-67563260D03*
X127695080Y-59859171D03*
X152206080Y-73486171D03*
X127695080Y-72305171D03*
X151317080Y-69676171D03*
X151317080Y-68622171D03*
G04 #@! TO.N,VCC*
X126806080Y-51350171D03*
G04 #@! TO.N,/~PGOOD*
X128457080Y-53890171D03*
X125340034Y-53698204D03*
X133156080Y-54779171D03*
X128457080Y-55160169D03*
G04 #@! TO.N,/~CHG*
X133483567Y-51349719D03*
X124543393Y-54266069D03*
G04 #@! TO.N,Net-(J1-PadA5)*
X128330080Y-67733171D03*
X128889218Y-66357777D03*
G04 #@! TO.N,/EXT1*
X138109080Y-62727669D03*
G04 #@! TO.N,Net-(J2-Pad1)*
X123759080Y-54421171D03*
G04 #@! TO.N,/piezo_p*
X150682080Y-55033171D03*
G04 #@! TO.N,/piezo_l*
X150428080Y-52620171D03*
G04 #@! TO.N,Net-(R6-Pad2)*
X128076080Y-57446171D03*
X127314080Y-70273171D03*
G04 #@! TO.N,Net-(D4-Pad2)*
X139252080Y-55414171D03*
X139252080Y-67056671D03*
X126679080Y-39031171D03*
X124647080Y-40428171D03*
X139252080Y-57954171D03*
X139252080Y-62526171D03*
X137728080Y-52493171D03*
X123631080Y-47032171D03*
G04 #@! TO.N,/status*
X135823080Y-50080171D03*
X126042529Y-40638228D03*
G04 #@! TO.N,/EXT2*
X138363080Y-65320171D03*
G04 #@! TO.N,/EXT3*
X138720580Y-67860171D03*
G04 #@! TO.N,/EXT4*
X142681080Y-65574171D03*
G04 #@! TO.N,/EXT5*
X143951080Y-65574171D03*
G04 #@! TO.N,/charge_disable*
X127632080Y-54525171D03*
X133283080Y-53763171D03*
G04 #@! TO.N,/csense*
X145221080Y-65574171D03*
G04 #@! TD*
G04 #@! TA.AperFunction,Conductor*
G04 #@! TO.N,GND*
G36*
X134241201Y-38616673D02*
G01*
X134287694Y-38670329D01*
X134299080Y-38722671D01*
X134299080Y-41707131D01*
X134279078Y-41775252D01*
X134225422Y-41821745D01*
X134155148Y-41831849D01*
X134104550Y-41812864D01*
X134003175Y-41747156D01*
X133865819Y-41706078D01*
X133856843Y-41706023D01*
X133856842Y-41706023D01*
X133796635Y-41705655D01*
X133722456Y-41705202D01*
X133584609Y-41744599D01*
X133463360Y-41821101D01*
X133368457Y-41928559D01*
X133307527Y-42058334D01*
X133300176Y-42105545D01*
X133288305Y-42181793D01*
X133285471Y-42199994D01*
X133286635Y-42208896D01*
X133286635Y-42208899D01*
X133290909Y-42241578D01*
X133304060Y-42342150D01*
X133307677Y-42350370D01*
X133352166Y-42451478D01*
X133361800Y-42473374D01*
X133454050Y-42583119D01*
X133461527Y-42588096D01*
X133564835Y-42656864D01*
X133573393Y-42662561D01*
X133710237Y-42705313D01*
X133719209Y-42705477D01*
X133719212Y-42705478D01*
X133784543Y-42706675D01*
X133853579Y-42707941D01*
X133862613Y-42705478D01*
X133983238Y-42672592D01*
X133983240Y-42672591D01*
X133991897Y-42670231D01*
X133999544Y-42665536D01*
X133999548Y-42665534D01*
X134107152Y-42599465D01*
X134175669Y-42580867D01*
X134243364Y-42602264D01*
X134288745Y-42656864D01*
X134299080Y-42706840D01*
X134299080Y-44746171D01*
X154290040Y-44746171D01*
X154358161Y-44766173D01*
X154404654Y-44819829D01*
X154416040Y-44872159D01*
X154418575Y-71120249D01*
X154417529Y-71128409D01*
X154417105Y-71142067D01*
X154413523Y-71155793D01*
X154416247Y-71169715D01*
X154415807Y-71183897D01*
X154415358Y-71183883D01*
X154415809Y-71191847D01*
X154393091Y-71474607D01*
X154391416Y-71487317D01*
X154334789Y-71795073D01*
X154331830Y-71807548D01*
X154244224Y-72107945D01*
X154240013Y-72120055D01*
X154122332Y-72410001D01*
X154116912Y-72421620D01*
X153970379Y-72698100D01*
X153963807Y-72709108D01*
X153789932Y-72969273D01*
X153782275Y-72979555D01*
X153582864Y-73220703D01*
X153574208Y-73230148D01*
X153461634Y-73341080D01*
X153351320Y-73449784D01*
X153341743Y-73458306D01*
X153097689Y-73654158D01*
X153087294Y-73661663D01*
X152824612Y-73831693D01*
X152813509Y-73838103D01*
X152534906Y-73980559D01*
X152523209Y-73985807D01*
X152231554Y-74099222D01*
X152219383Y-74103255D01*
X151917738Y-74186436D01*
X151905222Y-74189211D01*
X151708463Y-74222435D01*
X151596671Y-74241312D01*
X151583944Y-74242801D01*
X151435358Y-74252544D01*
X151301458Y-74261325D01*
X151293627Y-74260753D01*
X151293634Y-74261328D01*
X151279449Y-74261510D01*
X151265573Y-74258532D01*
X151251779Y-74261866D01*
X151243572Y-74261971D01*
X151229300Y-74263671D01*
X145961616Y-74263671D01*
X145893495Y-74243669D01*
X145882921Y-74236074D01*
X145867667Y-74223875D01*
X145856588Y-74215015D01*
X145816956Y-74205902D01*
X145796807Y-74201268D01*
X145796805Y-74201268D01*
X145789861Y-74199671D01*
X145744477Y-74199671D01*
X145721203Y-74204980D01*
X145691729Y-74211703D01*
X145691728Y-74211704D01*
X145677895Y-74214859D01*
X145666799Y-74223701D01*
X145651100Y-74236211D01*
X145585360Y-74263021D01*
X145572577Y-74263671D01*
X126460722Y-74263671D01*
X126441306Y-74261553D01*
X126437506Y-74261579D01*
X126423650Y-74258520D01*
X126409838Y-74261772D01*
X126395649Y-74261871D01*
X126395646Y-74261397D01*
X126387710Y-74262146D01*
X126099488Y-74249749D01*
X126086535Y-74248518D01*
X125772309Y-74202202D01*
X125759555Y-74199643D01*
X125451771Y-74121147D01*
X125439362Y-74117290D01*
X125141312Y-74007455D01*
X125129351Y-74002330D01*
X125085013Y-73980559D01*
X124844243Y-73862336D01*
X124832887Y-73856013D01*
X124563730Y-73687341D01*
X124553072Y-73679867D01*
X124302782Y-73484344D01*
X124292951Y-73475811D01*
X124064150Y-73255486D01*
X124055252Y-73245984D01*
X123850421Y-73003248D01*
X123842550Y-72992878D01*
X123775098Y-72893762D01*
X132453002Y-72893762D01*
X132453359Y-72900578D01*
X132453359Y-72900582D01*
X132457509Y-72979760D01*
X132462401Y-73073092D01*
X132510088Y-73246220D01*
X132593840Y-73405069D01*
X132709748Y-73542229D01*
X132715171Y-73546376D01*
X132715173Y-73546377D01*
X132846985Y-73647155D01*
X132846989Y-73647158D01*
X132852406Y-73651299D01*
X132858586Y-73654181D01*
X132858588Y-73654182D01*
X133008980Y-73724311D01*
X133008983Y-73724312D01*
X133015157Y-73727191D01*
X133021805Y-73728677D01*
X133021808Y-73728678D01*
X133185370Y-73765238D01*
X133185371Y-73765238D01*
X133190408Y-73766364D01*
X133195899Y-73766671D01*
X133327946Y-73766671D01*
X133461605Y-73752151D01*
X133544331Y-73724311D01*
X133625337Y-73697050D01*
X133625339Y-73697049D01*
X133631802Y-73694874D01*
X133785728Y-73602385D01*
X133844955Y-73546377D01*
X133911245Y-73483690D01*
X133911247Y-73483688D01*
X133916203Y-73479001D01*
X134017140Y-73330477D01*
X134083828Y-73163744D01*
X134091018Y-73120317D01*
X134100839Y-73060994D01*
X141159471Y-73060994D01*
X141160635Y-73069896D01*
X141160635Y-73069899D01*
X141166347Y-73113580D01*
X141178060Y-73203150D01*
X141235800Y-73334374D01*
X141241577Y-73341247D01*
X141241578Y-73341248D01*
X141290155Y-73399037D01*
X141328050Y-73444119D01*
X141447393Y-73523561D01*
X141584237Y-73566313D01*
X141593209Y-73566477D01*
X141593212Y-73566478D01*
X141658543Y-73567675D01*
X141727579Y-73568941D01*
X141736613Y-73566478D01*
X141857238Y-73533592D01*
X141857240Y-73533591D01*
X141865897Y-73531231D01*
X141988071Y-73456216D01*
X142084280Y-73349925D01*
X142134639Y-73245984D01*
X142142875Y-73228985D01*
X142142875Y-73228984D01*
X142146790Y-73220904D01*
X142170576Y-73079525D01*
X142170727Y-73067171D01*
X142164081Y-73020762D01*
X145534002Y-73020762D01*
X145534359Y-73027578D01*
X145534359Y-73027582D01*
X145541143Y-73157011D01*
X145543401Y-73200092D01*
X145591088Y-73373220D01*
X145674840Y-73532069D01*
X145679241Y-73537277D01*
X145705999Y-73568941D01*
X145790748Y-73669229D01*
X145796171Y-73673376D01*
X145796173Y-73673377D01*
X145927985Y-73774155D01*
X145927989Y-73774158D01*
X145933406Y-73778299D01*
X145939586Y-73781181D01*
X145939588Y-73781182D01*
X146089980Y-73851311D01*
X146089983Y-73851312D01*
X146096157Y-73854191D01*
X146102805Y-73855677D01*
X146102808Y-73855678D01*
X146266370Y-73892238D01*
X146266371Y-73892238D01*
X146271408Y-73893364D01*
X146276899Y-73893671D01*
X146408946Y-73893671D01*
X146542605Y-73879151D01*
X146673258Y-73835182D01*
X146706337Y-73824050D01*
X146706339Y-73824049D01*
X146712802Y-73821874D01*
X146866728Y-73729385D01*
X146872094Y-73724311D01*
X146992245Y-73610690D01*
X146992247Y-73610688D01*
X146997203Y-73606001D01*
X147098140Y-73457477D01*
X147164828Y-73290744D01*
X147171200Y-73252259D01*
X147193043Y-73120317D01*
X147193043Y-73120314D01*
X147194158Y-73113580D01*
X147192625Y-73084320D01*
X147185116Y-72941063D01*
X147184759Y-72934250D01*
X147137072Y-72761122D01*
X147053320Y-72602273D01*
X146937412Y-72465113D01*
X146931987Y-72460965D01*
X146800175Y-72360187D01*
X146800171Y-72360184D01*
X146794754Y-72356043D01*
X146788574Y-72353161D01*
X146788572Y-72353160D01*
X146638180Y-72283031D01*
X146638177Y-72283030D01*
X146632003Y-72280151D01*
X146625355Y-72278665D01*
X146625352Y-72278664D01*
X146461790Y-72242104D01*
X146461789Y-72242104D01*
X146456752Y-72240978D01*
X146451261Y-72240671D01*
X146319214Y-72240671D01*
X146185555Y-72255191D01*
X146115806Y-72278664D01*
X146021823Y-72310292D01*
X146021821Y-72310293D01*
X146015358Y-72312468D01*
X145861432Y-72404957D01*
X145856472Y-72409648D01*
X145856470Y-72409649D01*
X145737010Y-72522617D01*
X145730957Y-72528341D01*
X145630020Y-72676865D01*
X145563332Y-72843598D01*
X145562218Y-72850328D01*
X145562217Y-72850331D01*
X145537726Y-72998265D01*
X145534002Y-73020762D01*
X142164081Y-73020762D01*
X142160859Y-72998265D01*
X142151676Y-72934139D01*
X142151675Y-72934136D01*
X142150403Y-72925253D01*
X142091064Y-72794743D01*
X142056891Y-72755083D01*
X142003340Y-72692934D01*
X142003337Y-72692931D01*
X141997480Y-72686134D01*
X141877175Y-72608156D01*
X141739819Y-72567078D01*
X141730843Y-72567023D01*
X141730842Y-72567023D01*
X141670635Y-72566655D01*
X141596456Y-72566202D01*
X141458609Y-72605599D01*
X141337360Y-72682101D01*
X141331418Y-72688829D01*
X141331417Y-72688830D01*
X141300947Y-72723331D01*
X141242457Y-72789559D01*
X141181527Y-72919334D01*
X141159471Y-73060994D01*
X134100839Y-73060994D01*
X134112043Y-72993317D01*
X134112043Y-72993314D01*
X134113158Y-72986580D01*
X134110773Y-72941063D01*
X134104116Y-72814063D01*
X134103759Y-72807250D01*
X134056072Y-72634122D01*
X133972320Y-72475273D01*
X133942130Y-72439547D01*
X133871564Y-72356043D01*
X133856412Y-72338113D01*
X133850987Y-72333965D01*
X133719175Y-72233187D01*
X133719171Y-72233184D01*
X133713754Y-72229043D01*
X133707574Y-72226161D01*
X133707572Y-72226160D01*
X133557180Y-72156031D01*
X133557177Y-72156030D01*
X133551003Y-72153151D01*
X133544355Y-72151665D01*
X133544352Y-72151664D01*
X133380790Y-72115104D01*
X133380789Y-72115104D01*
X133375752Y-72113978D01*
X133370261Y-72113671D01*
X133238214Y-72113671D01*
X133104555Y-72128191D01*
X133034806Y-72151664D01*
X132940823Y-72183292D01*
X132940821Y-72183293D01*
X132934358Y-72185468D01*
X132780432Y-72277957D01*
X132775472Y-72282648D01*
X132775470Y-72282649D01*
X132716819Y-72338113D01*
X132649957Y-72401341D01*
X132549020Y-72549865D01*
X132482332Y-72716598D01*
X132481218Y-72723328D01*
X132481217Y-72723331D01*
X132460192Y-72850331D01*
X132453002Y-72893762D01*
X123775098Y-72893762D01*
X123663850Y-72730291D01*
X123657092Y-72719166D01*
X123639295Y-72686134D01*
X123506433Y-72439533D01*
X123500866Y-72427782D01*
X123379869Y-72134109D01*
X123375541Y-72121839D01*
X123373256Y-72114108D01*
X123352823Y-72044994D01*
X147382471Y-72044994D01*
X147383635Y-72053896D01*
X147383635Y-72053899D01*
X147384894Y-72063525D01*
X147401060Y-72187150D01*
X147458800Y-72318374D01*
X147464577Y-72325247D01*
X147464578Y-72325248D01*
X147490464Y-72356043D01*
X147551050Y-72428119D01*
X147568218Y-72439547D01*
X147630950Y-72481305D01*
X147670393Y-72507561D01*
X147807237Y-72550313D01*
X147816209Y-72550477D01*
X147816212Y-72550478D01*
X147881543Y-72551675D01*
X147950579Y-72552941D01*
X147959613Y-72550478D01*
X148080238Y-72517592D01*
X148080240Y-72517591D01*
X148088897Y-72515231D01*
X148211071Y-72440216D01*
X148307280Y-72333925D01*
X148369790Y-72204904D01*
X148393576Y-72063525D01*
X148393727Y-72051171D01*
X148373403Y-71909253D01*
X148314064Y-71778743D01*
X148295678Y-71757405D01*
X148226340Y-71676934D01*
X148226337Y-71676931D01*
X148220480Y-71670134D01*
X148100175Y-71592156D01*
X147962819Y-71551078D01*
X147953843Y-71551023D01*
X147953842Y-71551023D01*
X147893635Y-71550655D01*
X147819456Y-71550202D01*
X147681609Y-71589599D01*
X147560360Y-71666101D01*
X147465457Y-71773559D01*
X147404527Y-71903334D01*
X147382471Y-72044994D01*
X123352823Y-72044994D01*
X123285491Y-71817247D01*
X123282450Y-71804590D01*
X123224309Y-71492338D01*
X123222590Y-71479433D01*
X123199386Y-71192618D01*
X123199850Y-71184640D01*
X123199271Y-71184656D01*
X123198883Y-71170471D01*
X123201660Y-71156557D01*
X123198128Y-71142814D01*
X123197789Y-71130418D01*
X123196580Y-71120860D01*
X123196580Y-69842439D01*
X124547005Y-69842439D01*
X124578718Y-69950192D01*
X124583311Y-69961560D01*
X124669187Y-70125825D01*
X124675901Y-70136086D01*
X124792048Y-70280544D01*
X124800626Y-70289303D01*
X124942619Y-70408449D01*
X124952739Y-70415379D01*
X125115165Y-70504673D01*
X125126438Y-70509505D01*
X125303118Y-70565551D01*
X125315112Y-70568101D01*
X125459341Y-70584278D01*
X125466365Y-70584671D01*
X125547465Y-70584671D01*
X125562704Y-70580196D01*
X125563909Y-70578806D01*
X125565580Y-70571123D01*
X125565580Y-70566556D01*
X126073580Y-70566556D01*
X126078055Y-70581795D01*
X126079445Y-70583000D01*
X126087128Y-70584671D01*
X126166237Y-70584671D01*
X126172385Y-70584370D01*
X126310183Y-70570859D01*
X126322218Y-70568476D01*
X126499656Y-70514904D01*
X126510996Y-70510230D01*
X126680098Y-70420318D01*
X126680974Y-70421965D01*
X126740458Y-70403519D01*
X126808873Y-70422491D01*
X126857688Y-70478758D01*
X126884800Y-70540374D01*
X126890577Y-70547247D01*
X126890578Y-70547248D01*
X126897872Y-70555925D01*
X126977050Y-70650119D01*
X127096393Y-70729561D01*
X127233237Y-70772313D01*
X127242209Y-70772477D01*
X127242212Y-70772478D01*
X127307543Y-70773675D01*
X127376579Y-70774941D01*
X127385613Y-70772478D01*
X127506238Y-70739592D01*
X127506240Y-70739591D01*
X127514897Y-70737231D01*
X127637071Y-70662216D01*
X127733280Y-70555925D01*
X127795790Y-70426904D01*
X127819576Y-70285525D01*
X127819727Y-70273171D01*
X127799403Y-70131253D01*
X127740064Y-70000743D01*
X127713781Y-69970240D01*
X127652340Y-69898934D01*
X127652337Y-69898931D01*
X127646480Y-69892134D01*
X127569810Y-69842439D01*
X128477005Y-69842439D01*
X128508718Y-69950192D01*
X128513311Y-69961560D01*
X128599187Y-70125825D01*
X128605901Y-70136086D01*
X128722048Y-70280544D01*
X128730626Y-70289303D01*
X128872619Y-70408449D01*
X128882739Y-70415379D01*
X129045165Y-70504673D01*
X129056438Y-70509505D01*
X129233118Y-70565551D01*
X129245112Y-70568101D01*
X129389341Y-70584278D01*
X129396365Y-70584671D01*
X129727465Y-70584671D01*
X129742704Y-70580196D01*
X129743909Y-70578806D01*
X129745580Y-70571123D01*
X129745580Y-70566556D01*
X130253580Y-70566556D01*
X130258055Y-70581795D01*
X130259445Y-70583000D01*
X130267128Y-70584671D01*
X130596237Y-70584671D01*
X130602385Y-70584370D01*
X130740183Y-70570859D01*
X130752218Y-70568476D01*
X130929656Y-70514904D01*
X130940996Y-70510230D01*
X131104657Y-70423211D01*
X131114874Y-70416422D01*
X131258513Y-70299274D01*
X131267217Y-70290630D01*
X131385364Y-70147815D01*
X131392224Y-70137644D01*
X131480384Y-69974595D01*
X131485136Y-69963290D01*
X131520830Y-69847979D01*
X131521036Y-69833876D01*
X131514281Y-69830671D01*
X130271695Y-69830671D01*
X130256456Y-69835146D01*
X130255251Y-69836536D01*
X130253580Y-69844219D01*
X130253580Y-70566556D01*
X129745580Y-70566556D01*
X129745580Y-69848786D01*
X129741105Y-69833547D01*
X129739715Y-69832342D01*
X129732032Y-69830671D01*
X128491656Y-69830671D01*
X128478125Y-69834644D01*
X128477005Y-69842439D01*
X127569810Y-69842439D01*
X127526175Y-69814156D01*
X127388819Y-69773078D01*
X127379843Y-69773023D01*
X127379842Y-69773023D01*
X127319635Y-69772655D01*
X127245456Y-69772202D01*
X127107609Y-69811599D01*
X127100016Y-69816390D01*
X127092643Y-69819688D01*
X127041193Y-69830671D01*
X126091695Y-69830671D01*
X126076456Y-69835146D01*
X126075251Y-69836536D01*
X126073580Y-69844219D01*
X126073580Y-70566556D01*
X125565580Y-70566556D01*
X125565580Y-69848786D01*
X125561105Y-69833547D01*
X125559715Y-69832342D01*
X125552032Y-69830671D01*
X124561656Y-69830671D01*
X124548125Y-69834644D01*
X124547005Y-69842439D01*
X123196580Y-69842439D01*
X123196580Y-69504994D01*
X141286471Y-69504994D01*
X141287635Y-69513896D01*
X141287635Y-69513899D01*
X141288894Y-69523525D01*
X141305060Y-69647150D01*
X141362800Y-69778374D01*
X141368577Y-69785247D01*
X141368578Y-69785248D01*
X141409454Y-69833876D01*
X141455050Y-69888119D01*
X141574393Y-69967561D01*
X141711237Y-70010313D01*
X141720209Y-70010477D01*
X141720212Y-70010478D01*
X141785543Y-70011675D01*
X141854579Y-70012941D01*
X141863613Y-70010478D01*
X141984238Y-69977592D01*
X141984240Y-69977591D01*
X141992897Y-69975231D01*
X142115071Y-69900216D01*
X142122387Y-69892134D01*
X142205258Y-69800578D01*
X142211280Y-69793925D01*
X142273790Y-69664904D01*
X142297576Y-69523525D01*
X142297727Y-69511171D01*
X142277403Y-69369253D01*
X142218064Y-69238743D01*
X142166368Y-69178747D01*
X142130340Y-69136934D01*
X142130337Y-69136931D01*
X142124480Y-69130134D01*
X142004175Y-69052156D01*
X141866819Y-69011078D01*
X141857843Y-69011023D01*
X141857842Y-69011023D01*
X141797635Y-69010655D01*
X141723456Y-69010202D01*
X141585609Y-69049599D01*
X141464360Y-69126101D01*
X141369457Y-69233559D01*
X141308527Y-69363334D01*
X141286471Y-69504994D01*
X123196580Y-69504994D01*
X123196580Y-69319466D01*
X124548124Y-69319466D01*
X124554879Y-69322671D01*
X125547465Y-69322671D01*
X125562704Y-69318196D01*
X125563909Y-69316806D01*
X125565580Y-69309123D01*
X125565580Y-69304556D01*
X126073580Y-69304556D01*
X126078055Y-69319795D01*
X126079445Y-69321000D01*
X126087128Y-69322671D01*
X127077504Y-69322671D01*
X127088419Y-69319466D01*
X128478124Y-69319466D01*
X128484879Y-69322671D01*
X129727465Y-69322671D01*
X129742704Y-69318196D01*
X129743909Y-69316806D01*
X129745580Y-69309123D01*
X129745580Y-69304556D01*
X130253580Y-69304556D01*
X130258055Y-69319795D01*
X130259445Y-69321000D01*
X130267128Y-69322671D01*
X131507504Y-69322671D01*
X131521035Y-69318698D01*
X131522155Y-69310903D01*
X131490442Y-69203150D01*
X131485849Y-69191782D01*
X131399973Y-69027517D01*
X131393259Y-69017256D01*
X131277112Y-68872798D01*
X131268534Y-68864039D01*
X131126541Y-68744893D01*
X131116421Y-68737963D01*
X130953995Y-68648669D01*
X130942722Y-68643837D01*
X130766042Y-68587791D01*
X130754048Y-68585241D01*
X130609819Y-68569064D01*
X130602795Y-68568671D01*
X130271695Y-68568671D01*
X130256456Y-68573146D01*
X130255251Y-68574536D01*
X130253580Y-68582219D01*
X130253580Y-69304556D01*
X129745580Y-69304556D01*
X129745580Y-68586786D01*
X129741105Y-68571547D01*
X129739715Y-68570342D01*
X129732032Y-68568671D01*
X129402923Y-68568671D01*
X129396775Y-68568972D01*
X129258977Y-68582483D01*
X129246942Y-68584866D01*
X129069504Y-68638438D01*
X129058164Y-68643112D01*
X128894503Y-68730131D01*
X128884286Y-68736920D01*
X128740647Y-68854068D01*
X128731943Y-68862712D01*
X128613796Y-69005527D01*
X128606936Y-69015698D01*
X128518776Y-69178747D01*
X128514024Y-69190052D01*
X128478330Y-69305363D01*
X128478124Y-69319466D01*
X127088419Y-69319466D01*
X127091035Y-69318698D01*
X127092155Y-69310903D01*
X127060442Y-69203150D01*
X127055849Y-69191782D01*
X126969973Y-69027517D01*
X126963259Y-69017256D01*
X126847112Y-68872798D01*
X126838534Y-68864039D01*
X126696541Y-68744893D01*
X126686421Y-68737963D01*
X126523995Y-68648669D01*
X126512722Y-68643837D01*
X126336042Y-68587791D01*
X126324048Y-68585241D01*
X126179819Y-68569064D01*
X126172795Y-68568671D01*
X126091695Y-68568671D01*
X126076456Y-68573146D01*
X126075251Y-68574536D01*
X126073580Y-68582219D01*
X126073580Y-69304556D01*
X125565580Y-69304556D01*
X125565580Y-68586786D01*
X125561105Y-68571547D01*
X125559715Y-68570342D01*
X125552032Y-68568671D01*
X125472923Y-68568671D01*
X125466775Y-68568972D01*
X125328977Y-68582483D01*
X125316942Y-68584866D01*
X125139504Y-68638438D01*
X125128164Y-68643112D01*
X124964503Y-68730131D01*
X124954286Y-68736920D01*
X124810647Y-68854068D01*
X124801943Y-68862712D01*
X124683796Y-69005527D01*
X124676936Y-69015698D01*
X124588776Y-69178747D01*
X124584024Y-69190052D01*
X124548330Y-69305363D01*
X124548124Y-69319466D01*
X123196580Y-69319466D01*
X123196580Y-67726994D01*
X127824471Y-67726994D01*
X127825635Y-67735896D01*
X127825635Y-67735899D01*
X127829909Y-67768578D01*
X127843060Y-67869150D01*
X127846677Y-67877370D01*
X127891166Y-67978478D01*
X127900800Y-68000374D01*
X127906577Y-68007247D01*
X127906578Y-68007248D01*
X127912173Y-68013904D01*
X127993050Y-68110119D01*
X128112393Y-68189561D01*
X128249237Y-68232313D01*
X128258209Y-68232477D01*
X128258212Y-68232478D01*
X128323543Y-68233675D01*
X128392579Y-68234941D01*
X128401613Y-68232478D01*
X128522238Y-68199592D01*
X128522240Y-68199591D01*
X128530897Y-68197231D01*
X128653071Y-68122216D01*
X128749280Y-68015925D01*
X128811790Y-67886904D01*
X128817327Y-67853994D01*
X138214971Y-67853994D01*
X138216135Y-67862896D01*
X138216135Y-67862899D01*
X138218117Y-67878052D01*
X138233560Y-67996150D01*
X138237177Y-68004370D01*
X138286103Y-68115562D01*
X138291300Y-68127374D01*
X138297077Y-68134247D01*
X138297078Y-68134248D01*
X138304372Y-68142925D01*
X138383550Y-68237119D01*
X138502893Y-68316561D01*
X138639737Y-68359313D01*
X138648709Y-68359477D01*
X138648712Y-68359478D01*
X138714043Y-68360675D01*
X138783079Y-68361941D01*
X138792113Y-68359478D01*
X138912738Y-68326592D01*
X138912740Y-68326591D01*
X138921397Y-68324231D01*
X139043571Y-68249216D01*
X139139780Y-68142925D01*
X139174669Y-68070914D01*
X139198375Y-68021985D01*
X139198375Y-68021984D01*
X139202290Y-68013904D01*
X139226076Y-67872525D01*
X139226227Y-67860171D01*
X139209809Y-67745525D01*
X139207176Y-67727141D01*
X139207176Y-67727140D01*
X139205903Y-67718253D01*
X139204546Y-67715269D01*
X139204623Y-67647141D01*
X139243074Y-67587458D01*
X139308577Y-67558331D01*
X139314579Y-67558441D01*
X139323235Y-67556081D01*
X139323236Y-67556081D01*
X139444238Y-67523092D01*
X139444240Y-67523091D01*
X139452897Y-67520731D01*
X139530644Y-67472994D01*
X145858471Y-67472994D01*
X145859635Y-67481896D01*
X145859635Y-67481899D01*
X145867765Y-67544072D01*
X145877060Y-67615150D01*
X145880677Y-67623370D01*
X145931129Y-67738030D01*
X145934800Y-67746374D01*
X145940577Y-67753247D01*
X145940578Y-67753248D01*
X145947872Y-67761925D01*
X146027050Y-67856119D01*
X146146393Y-67935561D01*
X146283237Y-67978313D01*
X146292209Y-67978477D01*
X146292212Y-67978478D01*
X146357543Y-67979675D01*
X146426579Y-67980941D01*
X146435613Y-67978478D01*
X146556238Y-67945592D01*
X146556240Y-67945591D01*
X146564897Y-67943231D01*
X146687071Y-67868216D01*
X146783280Y-67761925D01*
X146845790Y-67632904D01*
X146869576Y-67491525D01*
X146869727Y-67479171D01*
X146852672Y-67360078D01*
X146850676Y-67346139D01*
X146850675Y-67346136D01*
X146849403Y-67337253D01*
X146790064Y-67206743D01*
X146770249Y-67183747D01*
X146702340Y-67104934D01*
X146702337Y-67104931D01*
X146696480Y-67098134D01*
X146576175Y-67020156D01*
X146438819Y-66979078D01*
X146429843Y-66979023D01*
X146429842Y-66979023D01*
X146369635Y-66978655D01*
X146295456Y-66978202D01*
X146157609Y-67017599D01*
X146036360Y-67094101D01*
X145941457Y-67201559D01*
X145880527Y-67331334D01*
X145871290Y-67390661D01*
X145861186Y-67455559D01*
X145858471Y-67472994D01*
X139530644Y-67472994D01*
X139575071Y-67445716D01*
X139671280Y-67339425D01*
X139733790Y-67210404D01*
X139757576Y-67069025D01*
X139757727Y-67056671D01*
X139749553Y-66999595D01*
X139738676Y-66923639D01*
X139738675Y-66923636D01*
X139737403Y-66914753D01*
X139678064Y-66784243D01*
X139622902Y-66720224D01*
X139593588Y-66655563D01*
X139599730Y-66613672D01*
X139546894Y-66628330D01*
X139480252Y-66608077D01*
X139464175Y-66597656D01*
X139326819Y-66556578D01*
X139317843Y-66556523D01*
X139317842Y-66556523D01*
X139257635Y-66556155D01*
X139183456Y-66555702D01*
X139045609Y-66595099D01*
X138924360Y-66671601D01*
X138829457Y-66779059D01*
X138768527Y-66908834D01*
X138767146Y-66917706D01*
X138750434Y-67025042D01*
X138746471Y-67050494D01*
X138747635Y-67059396D01*
X138747635Y-67059399D01*
X138753053Y-67100830D01*
X138765060Y-67192650D01*
X138768455Y-67200366D01*
X138767514Y-67271080D01*
X138728338Y-67330290D01*
X138664201Y-67358809D01*
X138660932Y-67359257D01*
X138651956Y-67359202D01*
X138514109Y-67398599D01*
X138392860Y-67475101D01*
X138297957Y-67582559D01*
X138237027Y-67712334D01*
X138214971Y-67853994D01*
X128817327Y-67853994D01*
X128835576Y-67745525D01*
X128835727Y-67733171D01*
X128820100Y-67624052D01*
X128816676Y-67600139D01*
X128816675Y-67600136D01*
X128815403Y-67591253D01*
X128799290Y-67555813D01*
X128783339Y-67520731D01*
X128756064Y-67460743D01*
X128702517Y-67398599D01*
X128668340Y-67358934D01*
X128668337Y-67358931D01*
X128662480Y-67352134D01*
X128542175Y-67274156D01*
X128404819Y-67233078D01*
X128395843Y-67233023D01*
X128395842Y-67233023D01*
X128335635Y-67232655D01*
X128261456Y-67232202D01*
X128123609Y-67271599D01*
X128002360Y-67348101D01*
X127907457Y-67455559D01*
X127846527Y-67585334D01*
X127845146Y-67594206D01*
X127826754Y-67712334D01*
X127824471Y-67726994D01*
X123196580Y-67726994D01*
X123196580Y-66351600D01*
X128383609Y-66351600D01*
X128384773Y-66360502D01*
X128384773Y-66360505D01*
X128386032Y-66370131D01*
X128402198Y-66493756D01*
X128459938Y-66624980D01*
X128465715Y-66631853D01*
X128465716Y-66631854D01*
X128546408Y-66727849D01*
X128552188Y-66734725D01*
X128671531Y-66814167D01*
X128808375Y-66856919D01*
X128817347Y-66857083D01*
X128817350Y-66857084D01*
X128882681Y-66858281D01*
X128951717Y-66859547D01*
X128960751Y-66857084D01*
X129081376Y-66824198D01*
X129081378Y-66824197D01*
X129090035Y-66821837D01*
X129212209Y-66746822D01*
X129308418Y-66640531D01*
X129370928Y-66511510D01*
X129394714Y-66370131D01*
X129394865Y-66357777D01*
X129376144Y-66227052D01*
X129375814Y-66224745D01*
X129375813Y-66224742D01*
X129374541Y-66215859D01*
X129315202Y-66085349D01*
X129307141Y-66075994D01*
X139508471Y-66075994D01*
X139509635Y-66084896D01*
X139509635Y-66084899D01*
X139510763Y-66093523D01*
X139527060Y-66218150D01*
X139584800Y-66349374D01*
X139590577Y-66356247D01*
X139590578Y-66356248D01*
X139645234Y-66421269D01*
X139673755Y-66486284D01*
X139667289Y-66526920D01*
X139718704Y-66511977D01*
X139780345Y-66530711D01*
X139780817Y-66529721D01*
X139787365Y-66532844D01*
X139788174Y-66533090D01*
X139796393Y-66538561D01*
X139933237Y-66581313D01*
X139942209Y-66581477D01*
X139942212Y-66581478D01*
X140007543Y-66582675D01*
X140076579Y-66583941D01*
X140085613Y-66581478D01*
X140206238Y-66548592D01*
X140206240Y-66548591D01*
X140214897Y-66546231D01*
X140337071Y-66471216D01*
X140433280Y-66364925D01*
X140495790Y-66235904D01*
X140519576Y-66094525D01*
X140519727Y-66082171D01*
X140505602Y-65983540D01*
X140500676Y-65949139D01*
X140500675Y-65949136D01*
X140499403Y-65940253D01*
X140440064Y-65809743D01*
X140413781Y-65779240D01*
X140352340Y-65707934D01*
X140352337Y-65707931D01*
X140346480Y-65701134D01*
X140226175Y-65623156D01*
X140088819Y-65582078D01*
X140079843Y-65582023D01*
X140079842Y-65582023D01*
X140019635Y-65581655D01*
X139945456Y-65581202D01*
X139807609Y-65620599D01*
X139686360Y-65697101D01*
X139680418Y-65703829D01*
X139680417Y-65703830D01*
X139671513Y-65713912D01*
X139591457Y-65804559D01*
X139530527Y-65934334D01*
X139523925Y-65976740D01*
X139514351Y-66038231D01*
X139508471Y-66075994D01*
X129307141Y-66075994D01*
X129276637Y-66040592D01*
X129227478Y-65983540D01*
X129227475Y-65983537D01*
X129221618Y-65976740D01*
X129101313Y-65898762D01*
X128963957Y-65857684D01*
X128954981Y-65857629D01*
X128954980Y-65857629D01*
X128894773Y-65857261D01*
X128820594Y-65856808D01*
X128682747Y-65896205D01*
X128561498Y-65972707D01*
X128466595Y-66080165D01*
X128405665Y-66209940D01*
X128383609Y-66351600D01*
X123196580Y-66351600D01*
X123196580Y-65313994D01*
X137857471Y-65313994D01*
X137858635Y-65322896D01*
X137858635Y-65322899D01*
X137859894Y-65332525D01*
X137876060Y-65456150D01*
X137879677Y-65464370D01*
X137930129Y-65579030D01*
X137933800Y-65587374D01*
X137939577Y-65594247D01*
X137939578Y-65594248D01*
X137961715Y-65620583D01*
X138026050Y-65697119D01*
X138145393Y-65776561D01*
X138282237Y-65819313D01*
X138291209Y-65819477D01*
X138291212Y-65819478D01*
X138356543Y-65820675D01*
X138425579Y-65821941D01*
X138434613Y-65819478D01*
X138555238Y-65786592D01*
X138555240Y-65786591D01*
X138563897Y-65784231D01*
X138686071Y-65709216D01*
X138693387Y-65701134D01*
X138766297Y-65620583D01*
X138782280Y-65602925D01*
X138799204Y-65567994D01*
X142175471Y-65567994D01*
X142176635Y-65576896D01*
X142176635Y-65576899D01*
X142180909Y-65609578D01*
X142194060Y-65710150D01*
X142197677Y-65718370D01*
X142242166Y-65819478D01*
X142251800Y-65841374D01*
X142257577Y-65848247D01*
X142257578Y-65848248D01*
X142323109Y-65926207D01*
X142344050Y-65951119D01*
X142463393Y-66030561D01*
X142600237Y-66073313D01*
X142609209Y-66073477D01*
X142609212Y-66073478D01*
X142674543Y-66074675D01*
X142743579Y-66075941D01*
X142752613Y-66073478D01*
X142873238Y-66040592D01*
X142873240Y-66040591D01*
X142881897Y-66038231D01*
X143004071Y-65963216D01*
X143030214Y-65934334D01*
X143094258Y-65863578D01*
X143100280Y-65856925D01*
X143162790Y-65727904D01*
X143186576Y-65586525D01*
X143186727Y-65574171D01*
X143185842Y-65567994D01*
X143445471Y-65567994D01*
X143446635Y-65576896D01*
X143446635Y-65576899D01*
X143450909Y-65609578D01*
X143464060Y-65710150D01*
X143467677Y-65718370D01*
X143512166Y-65819478D01*
X143521800Y-65841374D01*
X143527577Y-65848247D01*
X143527578Y-65848248D01*
X143593109Y-65926207D01*
X143614050Y-65951119D01*
X143733393Y-66030561D01*
X143870237Y-66073313D01*
X143879209Y-66073477D01*
X143879212Y-66073478D01*
X143944543Y-66074675D01*
X144013579Y-66075941D01*
X144022613Y-66073478D01*
X144143238Y-66040592D01*
X144143240Y-66040591D01*
X144151897Y-66038231D01*
X144274071Y-65963216D01*
X144300214Y-65934334D01*
X144364258Y-65863578D01*
X144370280Y-65856925D01*
X144432790Y-65727904D01*
X144456576Y-65586525D01*
X144456727Y-65574171D01*
X144455842Y-65567994D01*
X144715471Y-65567994D01*
X144716635Y-65576896D01*
X144716635Y-65576899D01*
X144720909Y-65609578D01*
X144734060Y-65710150D01*
X144737677Y-65718370D01*
X144782166Y-65819478D01*
X144791800Y-65841374D01*
X144797577Y-65848247D01*
X144797578Y-65848248D01*
X144863109Y-65926207D01*
X144884050Y-65951119D01*
X145003393Y-66030561D01*
X145140237Y-66073313D01*
X145149209Y-66073477D01*
X145149212Y-66073478D01*
X145214543Y-66074675D01*
X145283579Y-66075941D01*
X145292613Y-66073478D01*
X145413238Y-66040592D01*
X145413240Y-66040591D01*
X145421897Y-66038231D01*
X145544071Y-65963216D01*
X145570214Y-65934334D01*
X145634258Y-65863578D01*
X145640280Y-65856925D01*
X145702790Y-65727904D01*
X145726576Y-65586525D01*
X145726727Y-65574171D01*
X145711100Y-65465052D01*
X145707676Y-65441139D01*
X145707675Y-65441136D01*
X145706403Y-65432253D01*
X145647064Y-65301743D01*
X145628678Y-65280405D01*
X145559340Y-65199934D01*
X145559337Y-65199931D01*
X145553480Y-65193134D01*
X145433175Y-65115156D01*
X145295819Y-65074078D01*
X145286843Y-65074023D01*
X145286842Y-65074023D01*
X145226635Y-65073655D01*
X145152456Y-65073202D01*
X145014609Y-65112599D01*
X144893360Y-65189101D01*
X144798457Y-65296559D01*
X144737527Y-65426334D01*
X144715471Y-65567994D01*
X144455842Y-65567994D01*
X144441100Y-65465052D01*
X144437676Y-65441139D01*
X144437675Y-65441136D01*
X144436403Y-65432253D01*
X144377064Y-65301743D01*
X144358678Y-65280405D01*
X144289340Y-65199934D01*
X144289337Y-65199931D01*
X144283480Y-65193134D01*
X144163175Y-65115156D01*
X144025819Y-65074078D01*
X144016843Y-65074023D01*
X144016842Y-65074023D01*
X143956635Y-65073655D01*
X143882456Y-65073202D01*
X143744609Y-65112599D01*
X143623360Y-65189101D01*
X143528457Y-65296559D01*
X143467527Y-65426334D01*
X143445471Y-65567994D01*
X143185842Y-65567994D01*
X143171100Y-65465052D01*
X143167676Y-65441139D01*
X143167675Y-65441136D01*
X143166403Y-65432253D01*
X143107064Y-65301743D01*
X143088678Y-65280405D01*
X143019340Y-65199934D01*
X143019337Y-65199931D01*
X143013480Y-65193134D01*
X142893175Y-65115156D01*
X142755819Y-65074078D01*
X142746843Y-65074023D01*
X142746842Y-65074023D01*
X142686635Y-65073655D01*
X142612456Y-65073202D01*
X142474609Y-65112599D01*
X142353360Y-65189101D01*
X142258457Y-65296559D01*
X142197527Y-65426334D01*
X142175471Y-65567994D01*
X138799204Y-65567994D01*
X138844790Y-65473904D01*
X138868576Y-65332525D01*
X138868727Y-65320171D01*
X138851508Y-65199934D01*
X138849676Y-65187139D01*
X138849675Y-65187136D01*
X138848403Y-65178253D01*
X138789064Y-65047743D01*
X138770678Y-65026405D01*
X138701340Y-64945934D01*
X138701337Y-64945931D01*
X138695480Y-64939134D01*
X138575175Y-64861156D01*
X138437819Y-64820078D01*
X138428843Y-64820023D01*
X138428842Y-64820023D01*
X138368635Y-64819655D01*
X138294456Y-64819202D01*
X138156609Y-64858599D01*
X138035360Y-64935101D01*
X137940457Y-65042559D01*
X137879527Y-65172334D01*
X137876289Y-65193134D01*
X137860186Y-65296559D01*
X137857471Y-65313994D01*
X123196580Y-65313994D01*
X123196580Y-62721492D01*
X137603471Y-62721492D01*
X137604635Y-62730394D01*
X137604635Y-62730397D01*
X137606684Y-62746065D01*
X137622060Y-62863648D01*
X137679800Y-62994872D01*
X137685577Y-63001745D01*
X137685578Y-63001746D01*
X137707597Y-63027941D01*
X137772050Y-63104617D01*
X137891393Y-63184059D01*
X138028237Y-63226811D01*
X138037209Y-63226975D01*
X138037212Y-63226976D01*
X138102543Y-63228173D01*
X138171579Y-63229439D01*
X138180613Y-63226976D01*
X138301238Y-63194090D01*
X138301240Y-63194089D01*
X138309897Y-63191729D01*
X138432071Y-63116714D01*
X138528280Y-63010423D01*
X138590790Y-62881402D01*
X138592279Y-62872553D01*
X138592280Y-62872549D01*
X138596885Y-62845175D01*
X138627912Y-62781316D01*
X138688537Y-62744370D01*
X138759514Y-62746065D01*
X138818306Y-62785864D01*
X138821370Y-62790125D01*
X138822800Y-62793374D01*
X138828575Y-62800244D01*
X138828576Y-62800246D01*
X138841464Y-62815578D01*
X138915050Y-62903119D01*
X139034393Y-62982561D01*
X139171237Y-63025313D01*
X139180209Y-63025477D01*
X139180212Y-63025478D01*
X139245543Y-63026675D01*
X139314579Y-63027941D01*
X139323613Y-63025478D01*
X139444238Y-62992592D01*
X139444240Y-62992591D01*
X139452897Y-62990231D01*
X139575071Y-62915216D01*
X139671280Y-62808925D01*
X139733790Y-62679904D01*
X139757576Y-62538525D01*
X139757727Y-62526171D01*
X139749487Y-62468630D01*
X139738676Y-62393139D01*
X139738675Y-62393136D01*
X139737403Y-62384253D01*
X139678064Y-62253743D01*
X139654762Y-62226700D01*
X139590340Y-62151934D01*
X139590337Y-62151931D01*
X139584480Y-62145134D01*
X139464175Y-62067156D01*
X139326819Y-62026078D01*
X139317843Y-62026023D01*
X139317842Y-62026023D01*
X139257635Y-62025655D01*
X139183456Y-62025202D01*
X139045609Y-62064599D01*
X138924360Y-62141101D01*
X138829457Y-62248559D01*
X138768527Y-62378334D01*
X138767146Y-62387206D01*
X138767145Y-62387208D01*
X138764124Y-62406614D01*
X138733881Y-62470847D01*
X138673712Y-62508533D01*
X138602721Y-62507707D01*
X138543445Y-62468630D01*
X138537469Y-62460530D01*
X138535064Y-62455241D01*
X138493164Y-62406614D01*
X138447340Y-62353432D01*
X138447337Y-62353429D01*
X138441480Y-62346632D01*
X138321175Y-62268654D01*
X138183819Y-62227576D01*
X138174843Y-62227521D01*
X138174842Y-62227521D01*
X138114635Y-62227153D01*
X138040456Y-62226700D01*
X137902609Y-62266097D01*
X137781360Y-62342599D01*
X137686457Y-62450057D01*
X137625527Y-62579832D01*
X137603471Y-62721492D01*
X123196580Y-62721492D01*
X123196580Y-61202439D01*
X124547005Y-61202439D01*
X124578718Y-61310192D01*
X124583311Y-61321560D01*
X124669187Y-61485825D01*
X124675901Y-61496086D01*
X124792048Y-61640544D01*
X124800626Y-61649303D01*
X124942619Y-61768449D01*
X124952739Y-61775379D01*
X125115165Y-61864673D01*
X125126438Y-61869505D01*
X125303118Y-61925551D01*
X125315112Y-61928101D01*
X125459341Y-61944278D01*
X125466365Y-61944671D01*
X125547465Y-61944671D01*
X125562704Y-61940196D01*
X125563909Y-61938806D01*
X125565580Y-61931123D01*
X125565580Y-61926556D01*
X126073580Y-61926556D01*
X126078055Y-61941795D01*
X126079445Y-61943000D01*
X126087128Y-61944671D01*
X126166237Y-61944671D01*
X126172385Y-61944370D01*
X126310183Y-61930859D01*
X126322218Y-61928476D01*
X126499656Y-61874904D01*
X126510996Y-61870230D01*
X126674657Y-61783211D01*
X126684874Y-61776422D01*
X126828513Y-61659274D01*
X126837217Y-61650630D01*
X126955364Y-61507815D01*
X126962224Y-61497644D01*
X127050384Y-61334595D01*
X127055136Y-61323290D01*
X127090830Y-61207979D01*
X127090911Y-61202439D01*
X128477005Y-61202439D01*
X128508718Y-61310192D01*
X128513311Y-61321560D01*
X128599187Y-61485825D01*
X128605901Y-61496086D01*
X128722048Y-61640544D01*
X128730626Y-61649303D01*
X128872619Y-61768449D01*
X128882739Y-61775379D01*
X129045165Y-61864673D01*
X129056438Y-61869505D01*
X129233118Y-61925551D01*
X129245112Y-61928101D01*
X129389341Y-61944278D01*
X129396365Y-61944671D01*
X129727465Y-61944671D01*
X129742704Y-61940196D01*
X129743909Y-61938806D01*
X129745580Y-61931123D01*
X129745580Y-61926556D01*
X130253580Y-61926556D01*
X130258055Y-61941795D01*
X130259445Y-61943000D01*
X130267128Y-61944671D01*
X130596237Y-61944671D01*
X130602385Y-61944370D01*
X130740183Y-61930859D01*
X130752218Y-61928476D01*
X130929656Y-61874904D01*
X130940996Y-61870230D01*
X131104657Y-61783211D01*
X131114874Y-61776422D01*
X131258513Y-61659274D01*
X131267217Y-61650630D01*
X131385364Y-61507815D01*
X131392224Y-61497644D01*
X131480384Y-61334595D01*
X131485136Y-61323290D01*
X131520830Y-61207979D01*
X131521036Y-61193876D01*
X131514281Y-61190671D01*
X130271695Y-61190671D01*
X130256456Y-61195146D01*
X130255251Y-61196536D01*
X130253580Y-61204219D01*
X130253580Y-61926556D01*
X129745580Y-61926556D01*
X129745580Y-61208786D01*
X129741105Y-61193547D01*
X129739715Y-61192342D01*
X129732032Y-61190671D01*
X128491656Y-61190671D01*
X128478125Y-61194644D01*
X128477005Y-61202439D01*
X127090911Y-61202439D01*
X127091036Y-61193876D01*
X127084281Y-61190671D01*
X126091695Y-61190671D01*
X126076456Y-61195146D01*
X126075251Y-61196536D01*
X126073580Y-61204219D01*
X126073580Y-61926556D01*
X125565580Y-61926556D01*
X125565580Y-61208786D01*
X125561105Y-61193547D01*
X125559715Y-61192342D01*
X125552032Y-61190671D01*
X124561656Y-61190671D01*
X124548125Y-61194644D01*
X124547005Y-61202439D01*
X123196580Y-61202439D01*
X123196580Y-60679466D01*
X124548124Y-60679466D01*
X124554879Y-60682671D01*
X125547465Y-60682671D01*
X125562704Y-60678196D01*
X125563909Y-60676806D01*
X125565580Y-60669123D01*
X125565580Y-60664556D01*
X126073580Y-60664556D01*
X126078055Y-60679795D01*
X126079445Y-60681000D01*
X126087128Y-60682671D01*
X127077504Y-60682671D01*
X127088419Y-60679466D01*
X128478124Y-60679466D01*
X128484879Y-60682671D01*
X129727465Y-60682671D01*
X129742704Y-60678196D01*
X129743909Y-60676806D01*
X129745580Y-60669123D01*
X129745580Y-60664556D01*
X130253580Y-60664556D01*
X130258055Y-60679795D01*
X130259445Y-60681000D01*
X130267128Y-60682671D01*
X131507504Y-60682671D01*
X131521035Y-60678698D01*
X131522155Y-60670903D01*
X131490442Y-60563150D01*
X131485849Y-60551782D01*
X131399973Y-60387517D01*
X131393259Y-60377256D01*
X131277112Y-60232798D01*
X131268534Y-60224039D01*
X131126541Y-60104893D01*
X131116421Y-60097963D01*
X130953995Y-60008669D01*
X130942722Y-60003837D01*
X130766042Y-59947791D01*
X130754048Y-59945241D01*
X130609819Y-59929064D01*
X130602795Y-59928671D01*
X130271695Y-59928671D01*
X130256456Y-59933146D01*
X130255251Y-59934536D01*
X130253580Y-59942219D01*
X130253580Y-60664556D01*
X129745580Y-60664556D01*
X129745580Y-59946786D01*
X129741105Y-59931547D01*
X129739715Y-59930342D01*
X129732032Y-59928671D01*
X129402923Y-59928671D01*
X129396775Y-59928972D01*
X129258977Y-59942483D01*
X129246942Y-59944866D01*
X129069504Y-59998438D01*
X129058164Y-60003112D01*
X128894503Y-60090131D01*
X128884286Y-60096920D01*
X128740647Y-60214068D01*
X128731943Y-60222712D01*
X128613796Y-60365527D01*
X128606936Y-60375698D01*
X128518776Y-60538747D01*
X128514024Y-60550052D01*
X128478330Y-60665363D01*
X128478124Y-60679466D01*
X127088419Y-60679466D01*
X127091035Y-60678698D01*
X127092155Y-60670903D01*
X127060442Y-60563150D01*
X127055849Y-60551782D01*
X126969973Y-60387517D01*
X126963259Y-60377256D01*
X126847112Y-60232798D01*
X126838534Y-60224039D01*
X126696541Y-60104893D01*
X126686421Y-60097963D01*
X126523995Y-60008669D01*
X126512722Y-60003837D01*
X126336042Y-59947791D01*
X126324048Y-59945241D01*
X126179819Y-59929064D01*
X126172795Y-59928671D01*
X126091695Y-59928671D01*
X126076456Y-59933146D01*
X126075251Y-59934536D01*
X126073580Y-59942219D01*
X126073580Y-60664556D01*
X125565580Y-60664556D01*
X125565580Y-59946786D01*
X125561105Y-59931547D01*
X125559715Y-59930342D01*
X125552032Y-59928671D01*
X125472923Y-59928671D01*
X125466775Y-59928972D01*
X125328977Y-59942483D01*
X125316942Y-59944866D01*
X125139504Y-59998438D01*
X125128164Y-60003112D01*
X124964503Y-60090131D01*
X124954286Y-60096920D01*
X124810647Y-60214068D01*
X124801943Y-60222712D01*
X124683796Y-60365527D01*
X124676936Y-60375698D01*
X124588776Y-60538747D01*
X124584024Y-60550052D01*
X124548330Y-60665363D01*
X124548124Y-60679466D01*
X123196580Y-60679466D01*
X123196580Y-58824994D01*
X146353471Y-58824994D01*
X146354635Y-58833896D01*
X146354635Y-58833899D01*
X146355894Y-58843525D01*
X146372060Y-58967150D01*
X146429800Y-59098374D01*
X146435577Y-59105247D01*
X146435578Y-59105248D01*
X146442872Y-59113925D01*
X146522050Y-59208119D01*
X146641393Y-59287561D01*
X146778237Y-59330313D01*
X146787209Y-59330477D01*
X146787212Y-59330478D01*
X146852543Y-59331675D01*
X146921579Y-59332941D01*
X146930613Y-59330478D01*
X147051238Y-59297592D01*
X147051240Y-59297591D01*
X147059897Y-59295231D01*
X147182071Y-59220216D01*
X147278280Y-59113925D01*
X147340790Y-58984904D01*
X147364576Y-58843525D01*
X147364727Y-58831171D01*
X147344403Y-58689253D01*
X147285064Y-58558743D01*
X147266678Y-58537405D01*
X147197340Y-58456934D01*
X147197337Y-58456931D01*
X147191480Y-58450134D01*
X147071175Y-58372156D01*
X146933819Y-58331078D01*
X146924843Y-58331023D01*
X146924842Y-58331023D01*
X146864635Y-58330655D01*
X146790456Y-58330202D01*
X146652609Y-58369599D01*
X146531360Y-58446101D01*
X146525418Y-58452829D01*
X146525417Y-58452830D01*
X146521793Y-58456934D01*
X146436457Y-58553559D01*
X146375527Y-58683334D01*
X146353471Y-58824994D01*
X123196580Y-58824994D01*
X123196580Y-57947994D01*
X138746471Y-57947994D01*
X138747635Y-57956896D01*
X138747635Y-57956899D01*
X138748894Y-57966525D01*
X138765060Y-58090150D01*
X138822800Y-58221374D01*
X138828577Y-58228247D01*
X138828578Y-58228248D01*
X138835872Y-58236925D01*
X138915050Y-58331119D01*
X139034393Y-58410561D01*
X139171237Y-58453313D01*
X139180209Y-58453477D01*
X139180212Y-58453478D01*
X139245543Y-58454675D01*
X139314579Y-58455941D01*
X139323613Y-58453478D01*
X139444238Y-58420592D01*
X139444240Y-58420591D01*
X139452897Y-58418231D01*
X139575071Y-58343216D01*
X139586108Y-58331023D01*
X139665258Y-58243578D01*
X139671280Y-58236925D01*
X139733790Y-58107904D01*
X139757576Y-57966525D01*
X139757727Y-57954171D01*
X139739672Y-57828096D01*
X139738676Y-57821139D01*
X139738675Y-57821136D01*
X139737403Y-57812253D01*
X139678064Y-57681743D01*
X139607547Y-57599904D01*
X139590340Y-57579934D01*
X139590337Y-57579931D01*
X139584480Y-57573134D01*
X139464175Y-57495156D01*
X139326819Y-57454078D01*
X139317843Y-57454023D01*
X139317842Y-57454023D01*
X139257635Y-57453655D01*
X139183456Y-57453202D01*
X139045609Y-57492599D01*
X138924360Y-57569101D01*
X138918418Y-57575829D01*
X138918417Y-57575830D01*
X138905576Y-57590370D01*
X138829457Y-57676559D01*
X138768527Y-57806334D01*
X138766222Y-57821139D01*
X138752351Y-57910231D01*
X138746471Y-57947994D01*
X123196580Y-57947994D01*
X123196580Y-57439994D01*
X127570471Y-57439994D01*
X127571635Y-57448896D01*
X127571635Y-57448899D01*
X127572649Y-57456651D01*
X127589060Y-57582150D01*
X127592677Y-57590370D01*
X127634177Y-57684685D01*
X127646800Y-57713374D01*
X127652577Y-57720247D01*
X127652578Y-57720248D01*
X127659872Y-57728925D01*
X127739050Y-57823119D01*
X127858393Y-57902561D01*
X127995237Y-57945313D01*
X128004209Y-57945477D01*
X128004212Y-57945478D01*
X128069543Y-57946675D01*
X128138579Y-57947941D01*
X128147613Y-57945478D01*
X128268238Y-57912592D01*
X128268240Y-57912591D01*
X128276897Y-57910231D01*
X128399071Y-57835216D01*
X128425214Y-57806334D01*
X128489258Y-57735578D01*
X128495280Y-57728925D01*
X128557790Y-57599904D01*
X128581576Y-57458525D01*
X128581727Y-57446171D01*
X128561403Y-57304253D01*
X128502064Y-57173743D01*
X128483678Y-57152405D01*
X128414340Y-57071934D01*
X128414337Y-57071931D01*
X128408480Y-57065134D01*
X128288175Y-56987156D01*
X128150819Y-56946078D01*
X128141843Y-56946023D01*
X128141842Y-56946023D01*
X128081635Y-56945655D01*
X128007456Y-56945202D01*
X127869609Y-56984599D01*
X127748360Y-57061101D01*
X127653457Y-57168559D01*
X127592527Y-57298334D01*
X127570471Y-57439994D01*
X123196580Y-57439994D01*
X123196580Y-56042994D01*
X130237471Y-56042994D01*
X130238635Y-56051896D01*
X130238635Y-56051899D01*
X130239894Y-56061525D01*
X130256060Y-56185150D01*
X130313800Y-56316374D01*
X130319577Y-56323247D01*
X130319578Y-56323248D01*
X130326872Y-56331925D01*
X130406050Y-56426119D01*
X130525393Y-56505561D01*
X130662237Y-56548313D01*
X130671209Y-56548477D01*
X130671212Y-56548478D01*
X130736543Y-56549675D01*
X130805579Y-56550941D01*
X130814613Y-56548478D01*
X130935238Y-56515592D01*
X130935240Y-56515591D01*
X130943897Y-56513231D01*
X131066071Y-56438216D01*
X131162280Y-56331925D01*
X131224790Y-56202904D01*
X131248576Y-56061525D01*
X131248727Y-56049171D01*
X131240553Y-55992095D01*
X131235732Y-55958428D01*
X140841785Y-55958428D01*
X140846474Y-55964692D01*
X140905357Y-55996663D01*
X140919383Y-56002216D01*
X141070438Y-56041844D01*
X141085389Y-56043891D01*
X141241533Y-56046345D01*
X141256534Y-56044768D01*
X141408765Y-56009903D01*
X141422953Y-56004794D01*
X141497529Y-55967287D01*
X141507008Y-55958428D01*
X142241785Y-55958428D01*
X142246474Y-55964692D01*
X142305357Y-55996663D01*
X142319383Y-56002216D01*
X142470438Y-56041844D01*
X142485389Y-56043891D01*
X142641533Y-56046345D01*
X142656534Y-56044768D01*
X142808765Y-56009903D01*
X142822953Y-56004794D01*
X142897529Y-55967287D01*
X142907832Y-55957658D01*
X142905620Y-55951054D01*
X142587392Y-55632826D01*
X142573448Y-55625212D01*
X142571613Y-55625343D01*
X142565003Y-55629591D01*
X142248544Y-55946049D01*
X142241785Y-55958428D01*
X141507008Y-55958428D01*
X141507832Y-55957658D01*
X141505620Y-55951054D01*
X141187392Y-55632826D01*
X141173448Y-55625212D01*
X141171613Y-55625343D01*
X141165003Y-55629591D01*
X140848544Y-55946049D01*
X140841785Y-55958428D01*
X131235732Y-55958428D01*
X131229676Y-55916139D01*
X131229675Y-55916136D01*
X131228403Y-55907253D01*
X131169064Y-55776743D01*
X131106021Y-55703578D01*
X131081340Y-55674934D01*
X131081337Y-55674931D01*
X131075480Y-55668134D01*
X130955175Y-55590156D01*
X130817819Y-55549078D01*
X130808843Y-55549023D01*
X130808842Y-55549023D01*
X130748635Y-55548655D01*
X130674456Y-55548202D01*
X130536609Y-55587599D01*
X130415360Y-55664101D01*
X130320457Y-55771559D01*
X130259527Y-55901334D01*
X130257253Y-55915941D01*
X130243419Y-56004794D01*
X130237471Y-56042994D01*
X123196580Y-56042994D01*
X123196580Y-54875602D01*
X123216582Y-54807481D01*
X123270238Y-54760988D01*
X123340512Y-54750884D01*
X123405092Y-54780378D01*
X123412285Y-54787680D01*
X123416270Y-54791243D01*
X123422050Y-54798119D01*
X123541393Y-54877561D01*
X123678237Y-54920313D01*
X123687209Y-54920477D01*
X123687212Y-54920478D01*
X123752543Y-54921675D01*
X123821579Y-54922941D01*
X123830613Y-54920478D01*
X123951238Y-54887592D01*
X123951240Y-54887591D01*
X123959897Y-54885231D01*
X124082071Y-54810216D01*
X124088092Y-54803564D01*
X124088098Y-54803559D01*
X124150385Y-54734745D01*
X124210928Y-54697663D01*
X124281908Y-54699201D01*
X124313620Y-54714414D01*
X124325706Y-54722459D01*
X124462550Y-54765211D01*
X124471522Y-54765375D01*
X124471525Y-54765376D01*
X124536856Y-54766573D01*
X124605892Y-54767839D01*
X124614926Y-54765376D01*
X124735551Y-54732490D01*
X124735553Y-54732489D01*
X124744210Y-54730129D01*
X124866384Y-54655114D01*
X124877068Y-54643311D01*
X124956571Y-54555476D01*
X124962593Y-54548823D01*
X124977045Y-54518994D01*
X127126471Y-54518994D01*
X127127635Y-54527896D01*
X127127635Y-54527899D01*
X127131460Y-54557150D01*
X127145060Y-54661150D01*
X127164812Y-54706040D01*
X127199129Y-54784030D01*
X127202800Y-54792374D01*
X127208577Y-54799247D01*
X127208578Y-54799248D01*
X127278606Y-54882557D01*
X127295050Y-54902119D01*
X127302527Y-54907096D01*
X127402545Y-54973674D01*
X127414393Y-54981561D01*
X127551237Y-55024313D01*
X127560209Y-55024477D01*
X127560212Y-55024478D01*
X127625543Y-55025675D01*
X127694579Y-55026941D01*
X127703613Y-55024478D01*
X127795969Y-54999299D01*
X127866952Y-55000679D01*
X127925921Y-55040216D01*
X127954153Y-55105358D01*
X127953611Y-55140244D01*
X127953378Y-55141743D01*
X127951471Y-55153992D01*
X127952635Y-55162894D01*
X127952635Y-55162897D01*
X127956831Y-55194985D01*
X127970060Y-55296148D01*
X128027800Y-55427372D01*
X128033577Y-55434245D01*
X128033578Y-55434246D01*
X128082575Y-55492535D01*
X128120050Y-55537117D01*
X128239393Y-55616559D01*
X128376237Y-55659311D01*
X128385209Y-55659475D01*
X128385212Y-55659476D01*
X128450543Y-55660673D01*
X128519579Y-55661939D01*
X128528613Y-55659476D01*
X128649238Y-55626590D01*
X128649240Y-55626589D01*
X128657897Y-55624229D01*
X128780071Y-55549214D01*
X128818133Y-55507164D01*
X128870258Y-55449576D01*
X128876280Y-55442923D01*
X128893203Y-55407994D01*
X138746471Y-55407994D01*
X138747635Y-55416896D01*
X138747635Y-55416899D01*
X138749521Y-55431320D01*
X138765060Y-55550150D01*
X138768677Y-55558370D01*
X138818993Y-55672721D01*
X138822800Y-55681374D01*
X138828577Y-55688247D01*
X138828578Y-55688248D01*
X138835872Y-55696925D01*
X138915050Y-55791119D01*
X139034393Y-55870561D01*
X139171237Y-55913313D01*
X139180209Y-55913477D01*
X139180212Y-55913478D01*
X139245543Y-55914675D01*
X139314579Y-55915941D01*
X139323613Y-55913478D01*
X139444238Y-55880592D01*
X139444240Y-55880591D01*
X139452897Y-55878231D01*
X139575071Y-55803216D01*
X139671280Y-55696925D01*
X139733790Y-55567904D01*
X139757576Y-55426525D01*
X139757727Y-55414171D01*
X139745328Y-55327593D01*
X139738676Y-55281139D01*
X139738675Y-55281136D01*
X139737403Y-55272253D01*
X139731118Y-55258428D01*
X140141785Y-55258428D01*
X140146474Y-55264692D01*
X140205357Y-55296663D01*
X140219383Y-55302216D01*
X140377788Y-55343772D01*
X140377202Y-55346007D01*
X140431596Y-55370410D01*
X140470377Y-55429878D01*
X140474960Y-55452355D01*
X140479390Y-55492481D01*
X140482834Y-55507164D01*
X140536503Y-55653822D01*
X140541755Y-55664129D01*
X140550584Y-55671469D01*
X140564675Y-55664234D01*
X140878929Y-55349979D01*
X140885306Y-55338301D01*
X141462620Y-55338301D01*
X141462752Y-55340137D01*
X141467001Y-55346749D01*
X141787166Y-55666915D01*
X141799545Y-55673674D01*
X141800818Y-55672721D01*
X141867338Y-55647910D01*
X141936712Y-55663001D01*
X141949783Y-55671880D01*
X141964675Y-55664234D01*
X142278929Y-55349979D01*
X142285306Y-55338301D01*
X142862620Y-55338301D01*
X142862752Y-55340137D01*
X142867001Y-55346749D01*
X143187166Y-55666915D01*
X143199545Y-55673674D01*
X143203643Y-55670606D01*
X143260646Y-55528806D01*
X143264548Y-55514243D01*
X143274180Y-55446568D01*
X143303581Y-55381946D01*
X143363253Y-55343477D01*
X143370793Y-55341503D01*
X143508765Y-55309903D01*
X143522953Y-55304794D01*
X143597529Y-55267287D01*
X143607832Y-55257658D01*
X143605620Y-55251054D01*
X143381560Y-55026994D01*
X150176471Y-55026994D01*
X150177635Y-55035896D01*
X150177635Y-55035899D01*
X150181909Y-55068578D01*
X150195060Y-55169150D01*
X150198677Y-55177370D01*
X150243166Y-55278478D01*
X150252800Y-55300374D01*
X150258577Y-55307247D01*
X150258578Y-55307248D01*
X150260810Y-55309903D01*
X150345050Y-55410119D01*
X150464393Y-55489561D01*
X150472968Y-55492240D01*
X150473912Y-55492535D01*
X150601237Y-55532313D01*
X150610209Y-55532477D01*
X150610212Y-55532478D01*
X150675543Y-55533675D01*
X150744579Y-55534941D01*
X150753613Y-55532478D01*
X150874238Y-55499592D01*
X150874240Y-55499591D01*
X150882897Y-55497231D01*
X151005071Y-55422216D01*
X151101280Y-55315925D01*
X151163790Y-55186904D01*
X151187576Y-55045525D01*
X151187727Y-55033171D01*
X151173357Y-54932826D01*
X151168676Y-54900139D01*
X151168675Y-54900136D01*
X151167403Y-54891253D01*
X151108064Y-54760743D01*
X151060929Y-54706040D01*
X151020340Y-54658934D01*
X151020337Y-54658931D01*
X151014480Y-54652134D01*
X150894175Y-54574156D01*
X150756819Y-54533078D01*
X150747843Y-54533023D01*
X150747842Y-54533023D01*
X150687635Y-54532655D01*
X150613456Y-54532202D01*
X150475609Y-54571599D01*
X150354360Y-54648101D01*
X150348418Y-54654829D01*
X150348417Y-54654830D01*
X150342379Y-54661667D01*
X150259457Y-54755559D01*
X150198527Y-54885334D01*
X150192672Y-54922941D01*
X150178754Y-55012332D01*
X150176471Y-55026994D01*
X143381560Y-55026994D01*
X143287392Y-54932826D01*
X143273448Y-54925212D01*
X143271613Y-54925343D01*
X143265003Y-54929591D01*
X143213835Y-54980758D01*
X143213835Y-54980757D01*
X143213834Y-54980758D01*
X142870232Y-55324361D01*
X142862620Y-55338301D01*
X142285306Y-55338301D01*
X142286540Y-55336041D01*
X142286408Y-55334205D01*
X142282159Y-55327593D01*
X141935325Y-54980758D01*
X141887391Y-54932824D01*
X141873449Y-54925212D01*
X141871614Y-54925343D01*
X141864999Y-54929594D01*
X141813835Y-54980758D01*
X141813835Y-54980757D01*
X141813834Y-54980758D01*
X141470232Y-55324361D01*
X141462620Y-55338301D01*
X140885306Y-55338301D01*
X140886540Y-55336041D01*
X140886408Y-55334205D01*
X140882159Y-55327593D01*
X140535325Y-54980758D01*
X140487391Y-54932824D01*
X140473449Y-54925212D01*
X140471614Y-54925343D01*
X140465000Y-54929594D01*
X140148544Y-55246049D01*
X140141785Y-55258428D01*
X139731118Y-55258428D01*
X139727765Y-55251054D01*
X139678064Y-55141743D01*
X139680035Y-55140847D01*
X139671363Y-55111072D01*
X139621545Y-55076150D01*
X139584480Y-55033134D01*
X139464175Y-54955156D01*
X139326819Y-54914078D01*
X139317843Y-54914023D01*
X139317842Y-54914023D01*
X139257635Y-54913655D01*
X139183456Y-54913202D01*
X139045609Y-54952599D01*
X138924360Y-55029101D01*
X138918418Y-55035829D01*
X138918417Y-55035830D01*
X138914148Y-55040664D01*
X138829457Y-55136559D01*
X138768527Y-55266334D01*
X138761121Y-55313902D01*
X138750527Y-55381946D01*
X138746471Y-55407994D01*
X128893203Y-55407994D01*
X128924461Y-55343477D01*
X128934875Y-55321983D01*
X128934875Y-55321982D01*
X128938790Y-55313902D01*
X128962576Y-55172523D01*
X128962727Y-55160169D01*
X128950695Y-55076150D01*
X128943676Y-55027137D01*
X128943675Y-55027134D01*
X128942403Y-55018251D01*
X128929209Y-54989231D01*
X128921712Y-54972743D01*
X128883064Y-54887741D01*
X128832282Y-54828806D01*
X128795340Y-54785932D01*
X128795337Y-54785929D01*
X128789480Y-54779132D01*
X128780010Y-54772994D01*
X132650471Y-54772994D01*
X132651635Y-54781896D01*
X132651635Y-54781899D01*
X132655338Y-54810216D01*
X132669060Y-54915150D01*
X132691837Y-54966915D01*
X132723129Y-55038030D01*
X132726800Y-55046374D01*
X132732577Y-55053247D01*
X132732578Y-55053248D01*
X132806966Y-55141743D01*
X132819050Y-55156119D01*
X132938393Y-55235561D01*
X133075237Y-55278313D01*
X133084209Y-55278477D01*
X133084212Y-55278478D01*
X133149543Y-55279675D01*
X133218579Y-55280941D01*
X133227613Y-55278478D01*
X133348238Y-55245592D01*
X133348240Y-55245591D01*
X133356897Y-55243231D01*
X133479071Y-55168216D01*
X133575280Y-55061925D01*
X133614605Y-54980758D01*
X133633875Y-54940985D01*
X133633875Y-54940984D01*
X133637790Y-54932904D01*
X133661576Y-54791525D01*
X133661727Y-54779171D01*
X133648724Y-54688374D01*
X133642676Y-54646139D01*
X133642675Y-54646136D01*
X133641403Y-54637253D01*
X139762253Y-54637253D01*
X139779390Y-54792481D01*
X139782834Y-54807164D01*
X139835324Y-54950601D01*
X139836678Y-54971339D01*
X139848102Y-54972743D01*
X139864675Y-54964234D01*
X140178929Y-54649979D01*
X140185306Y-54638301D01*
X140762620Y-54638301D01*
X140762752Y-54640137D01*
X140767002Y-54646750D01*
X140818848Y-54698597D01*
X140818847Y-54698597D01*
X140818848Y-54698598D01*
X141161770Y-55041519D01*
X141175710Y-55049131D01*
X141177546Y-55048999D01*
X141184158Y-55044750D01*
X141530312Y-54698597D01*
X141578927Y-54649982D01*
X141585305Y-54638301D01*
X142162620Y-54638301D01*
X142162752Y-54640137D01*
X142167002Y-54646750D01*
X142218848Y-54698597D01*
X142218847Y-54698597D01*
X142218848Y-54698598D01*
X142561770Y-55041519D01*
X142575710Y-55049131D01*
X142577546Y-55048999D01*
X142584158Y-55044750D01*
X142930312Y-54698597D01*
X142978927Y-54649982D01*
X142985305Y-54638301D01*
X143562620Y-54638301D01*
X143562752Y-54640137D01*
X143567001Y-54646749D01*
X143887166Y-54966915D01*
X143899545Y-54973674D01*
X143903643Y-54970606D01*
X143960646Y-54828806D01*
X143964548Y-54814242D01*
X143987043Y-54656187D01*
X143987667Y-54647984D01*
X143987737Y-54641292D01*
X143987285Y-54633077D01*
X143968105Y-54474589D01*
X143964509Y-54459946D01*
X143909306Y-54313857D01*
X143906352Y-54308206D01*
X143898979Y-54302207D01*
X143885242Y-54309351D01*
X143570231Y-54624363D01*
X143562620Y-54638301D01*
X142985305Y-54638301D01*
X142986539Y-54636040D01*
X142986408Y-54634205D01*
X142982157Y-54627591D01*
X142627901Y-54273334D01*
X142587391Y-54232824D01*
X142573449Y-54225212D01*
X142571613Y-54225343D01*
X142565001Y-54229593D01*
X142521259Y-54273334D01*
X142521259Y-54273333D01*
X142521258Y-54273334D01*
X142170232Y-54624361D01*
X142162620Y-54638301D01*
X141585305Y-54638301D01*
X141586539Y-54636040D01*
X141586408Y-54634205D01*
X141582157Y-54627591D01*
X141227901Y-54273334D01*
X141187391Y-54232824D01*
X141173449Y-54225212D01*
X141171613Y-54225343D01*
X141165001Y-54229593D01*
X141121259Y-54273334D01*
X141121259Y-54273333D01*
X141121258Y-54273334D01*
X140770232Y-54624361D01*
X140762620Y-54638301D01*
X140185306Y-54638301D01*
X140186540Y-54636041D01*
X140186408Y-54634205D01*
X140182159Y-54627593D01*
X139862428Y-54307861D01*
X139850620Y-54301413D01*
X139843403Y-54306986D01*
X139843274Y-54307226D01*
X139786546Y-54452725D01*
X139782794Y-54467339D01*
X139762410Y-54622172D01*
X139762253Y-54637253D01*
X133641403Y-54637253D01*
X133635542Y-54624361D01*
X133614936Y-54579042D01*
X133582064Y-54506743D01*
X133488480Y-54398134D01*
X133490971Y-54395988D01*
X133461427Y-54349685D01*
X133461658Y-54278689D01*
X133500237Y-54219089D01*
X133516510Y-54207207D01*
X133598420Y-54156915D01*
X133598426Y-54156910D01*
X133606071Y-54152216D01*
X133613387Y-54144134D01*
X133686282Y-54063599D01*
X133702280Y-54045925D01*
X133717218Y-54015094D01*
X140140914Y-54015094D01*
X140143868Y-54023617D01*
X140461772Y-54341520D01*
X140475710Y-54349131D01*
X140477546Y-54348999D01*
X140484158Y-54344750D01*
X140804707Y-54024202D01*
X140878926Y-53949982D01*
X140885304Y-53938301D01*
X141462620Y-53938301D01*
X141462752Y-53940137D01*
X141467002Y-53946750D01*
X141544453Y-54024202D01*
X141861771Y-54341519D01*
X141875710Y-54349130D01*
X141877547Y-54348999D01*
X141884157Y-54344751D01*
X142204707Y-54024202D01*
X142278926Y-53949982D01*
X142285304Y-53938301D01*
X142862620Y-53938301D01*
X142862752Y-53940137D01*
X142867002Y-53946750D01*
X142944453Y-54024202D01*
X143261771Y-54341519D01*
X143275710Y-54349130D01*
X143277547Y-54348999D01*
X143284157Y-54344751D01*
X143600654Y-54028255D01*
X143607413Y-54015876D01*
X143605595Y-54013447D01*
X143580785Y-53946926D01*
X143595877Y-53877552D01*
X143607625Y-53862400D01*
X143608398Y-53859347D01*
X143605620Y-53851054D01*
X143287392Y-53532826D01*
X143273448Y-53525212D01*
X143271613Y-53525343D01*
X143265003Y-53529591D01*
X143213835Y-53580758D01*
X143213835Y-53580757D01*
X143213834Y-53580758D01*
X142870232Y-53924361D01*
X142862620Y-53938301D01*
X142285304Y-53938301D01*
X142286539Y-53936039D01*
X142286408Y-53934204D01*
X142282160Y-53927594D01*
X141935325Y-53580758D01*
X141887391Y-53532824D01*
X141873449Y-53525212D01*
X141871614Y-53525343D01*
X141864999Y-53529594D01*
X141813835Y-53580758D01*
X141813835Y-53580757D01*
X141813834Y-53580758D01*
X141470232Y-53924361D01*
X141462620Y-53938301D01*
X140885304Y-53938301D01*
X140886539Y-53936039D01*
X140886408Y-53934204D01*
X140882160Y-53927594D01*
X140535325Y-53580758D01*
X140487391Y-53532824D01*
X140473449Y-53525212D01*
X140471614Y-53525343D01*
X140465000Y-53529594D01*
X140148544Y-53846049D01*
X140141785Y-53858427D01*
X140143818Y-53861142D01*
X140168630Y-53927662D01*
X140153540Y-53997037D01*
X140141478Y-54012764D01*
X140140914Y-54015094D01*
X133717218Y-54015094D01*
X133742866Y-53962156D01*
X133760875Y-53924985D01*
X133760875Y-53924984D01*
X133764790Y-53916904D01*
X133788576Y-53775525D01*
X133788727Y-53763171D01*
X133777070Y-53681775D01*
X133769676Y-53630139D01*
X133769675Y-53630136D01*
X133768403Y-53621253D01*
X133709064Y-53490743D01*
X133690678Y-53469405D01*
X133621340Y-53388934D01*
X133621337Y-53388931D01*
X133615480Y-53382134D01*
X133495175Y-53304156D01*
X133357819Y-53263078D01*
X133348843Y-53263023D01*
X133348842Y-53263023D01*
X133288635Y-53262655D01*
X133214456Y-53262202D01*
X133076609Y-53301599D01*
X132955360Y-53378101D01*
X132860457Y-53485559D01*
X132799527Y-53615334D01*
X132794265Y-53649131D01*
X132779754Y-53742334D01*
X132777471Y-53756994D01*
X132778635Y-53765896D01*
X132778635Y-53765899D01*
X132780962Y-53783693D01*
X132796060Y-53899150D01*
X132853800Y-54030374D01*
X132859577Y-54037247D01*
X132859578Y-54037248D01*
X132881728Y-54063599D01*
X132946035Y-54140101D01*
X132946050Y-54140119D01*
X132945119Y-54140902D01*
X132977932Y-54193746D01*
X132976829Y-54264734D01*
X132937523Y-54323857D01*
X132923736Y-54333924D01*
X132828360Y-54394101D01*
X132822418Y-54400829D01*
X132822417Y-54400830D01*
X132809908Y-54414994D01*
X132733457Y-54501559D01*
X132672527Y-54631334D01*
X132666605Y-54669370D01*
X132652100Y-54762533D01*
X132650471Y-54772994D01*
X128780010Y-54772994D01*
X128669175Y-54701154D01*
X128531819Y-54660076D01*
X128522843Y-54660021D01*
X128522842Y-54660021D01*
X128462635Y-54659653D01*
X128388456Y-54659200D01*
X128295409Y-54685793D01*
X128224415Y-54685281D01*
X128164968Y-54646467D01*
X128135941Y-54581675D01*
X128136477Y-54547186D01*
X128136334Y-54547173D01*
X128136507Y-54545248D01*
X128136530Y-54543748D01*
X128136768Y-54542331D01*
X128136769Y-54542324D01*
X128137576Y-54537525D01*
X128137727Y-54525171D01*
X128134498Y-54502624D01*
X128144640Y-54432356D01*
X128191163Y-54378726D01*
X128259295Y-54358762D01*
X128296797Y-54364495D01*
X128376237Y-54389313D01*
X128385209Y-54389477D01*
X128385212Y-54389478D01*
X128450543Y-54390675D01*
X128519579Y-54391941D01*
X128528613Y-54389478D01*
X128649238Y-54356592D01*
X128649240Y-54356591D01*
X128657897Y-54354231D01*
X128780071Y-54279216D01*
X128876280Y-54172925D01*
X128930443Y-54061133D01*
X128934875Y-54051985D01*
X128934875Y-54051984D01*
X128938790Y-54043904D01*
X128962576Y-53902525D01*
X128962727Y-53890171D01*
X128950105Y-53802031D01*
X128943676Y-53757139D01*
X128943675Y-53757136D01*
X128942403Y-53748253D01*
X128883064Y-53617743D01*
X128837766Y-53565172D01*
X128795340Y-53515934D01*
X128795337Y-53515931D01*
X128789480Y-53509134D01*
X128669175Y-53431156D01*
X128531819Y-53390078D01*
X128522843Y-53390023D01*
X128522842Y-53390023D01*
X128462635Y-53389655D01*
X128388456Y-53389202D01*
X128250609Y-53428599D01*
X128129360Y-53505101D01*
X128034457Y-53612559D01*
X127973527Y-53742334D01*
X127969116Y-53770664D01*
X127955452Y-53858427D01*
X127951471Y-53883994D01*
X127954528Y-53907370D01*
X127955423Y-53914214D01*
X127944421Y-53984353D01*
X127897246Y-54037409D01*
X127828875Y-54056539D01*
X127794389Y-54051267D01*
X127706819Y-54025078D01*
X127697843Y-54025023D01*
X127697842Y-54025023D01*
X127637635Y-54024655D01*
X127563456Y-54024202D01*
X127425609Y-54063599D01*
X127304360Y-54140101D01*
X127209457Y-54247559D01*
X127148527Y-54377334D01*
X127141915Y-54419802D01*
X127129020Y-54502624D01*
X127126471Y-54518994D01*
X124977045Y-54518994D01*
X125002072Y-54467339D01*
X125021188Y-54427883D01*
X125021188Y-54427882D01*
X125025103Y-54419802D01*
X125048387Y-54281407D01*
X125079414Y-54217549D01*
X125140040Y-54180603D01*
X125210214Y-54182045D01*
X125259191Y-54197346D01*
X125268163Y-54197510D01*
X125268166Y-54197511D01*
X125333497Y-54198708D01*
X125402533Y-54199974D01*
X125411567Y-54197511D01*
X125532192Y-54164625D01*
X125532194Y-54164624D01*
X125540851Y-54162264D01*
X125663025Y-54087249D01*
X125671008Y-54078430D01*
X125753212Y-53987611D01*
X125759234Y-53980958D01*
X125803220Y-53890171D01*
X125817829Y-53860018D01*
X125817829Y-53860017D01*
X125821744Y-53851937D01*
X125845530Y-53710558D01*
X125845681Y-53698204D01*
X125837507Y-53641128D01*
X125826630Y-53565172D01*
X125826629Y-53565169D01*
X125825357Y-53556286D01*
X125814691Y-53532826D01*
X125796894Y-53493685D01*
X125766018Y-53425776D01*
X125736629Y-53391669D01*
X125678294Y-53323967D01*
X125678291Y-53323964D01*
X125672434Y-53317167D01*
X125552129Y-53239189D01*
X125414773Y-53198111D01*
X125405797Y-53198056D01*
X125405796Y-53198056D01*
X125345589Y-53197688D01*
X125271410Y-53197235D01*
X125133563Y-53236632D01*
X125012314Y-53313134D01*
X124917411Y-53420592D01*
X124856481Y-53550367D01*
X124851749Y-53580758D01*
X124836021Y-53681775D01*
X124805777Y-53746008D01*
X124745607Y-53783693D01*
X124675420Y-53783108D01*
X124626737Y-53768549D01*
X124626734Y-53768549D01*
X124618132Y-53765976D01*
X124609156Y-53765921D01*
X124609155Y-53765921D01*
X124548948Y-53765553D01*
X124474769Y-53765100D01*
X124336922Y-53804497D01*
X124215673Y-53880999D01*
X124209731Y-53887727D01*
X124209730Y-53887728D01*
X124152950Y-53952019D01*
X124092864Y-53989837D01*
X124021871Y-53989167D01*
X123989980Y-53974345D01*
X123971175Y-53962156D01*
X123833819Y-53921078D01*
X123824843Y-53921023D01*
X123824842Y-53921023D01*
X123764635Y-53920655D01*
X123690456Y-53920202D01*
X123552609Y-53959599D01*
X123431360Y-54036101D01*
X123422684Y-54045925D01*
X123417022Y-54052336D01*
X123356937Y-54090155D01*
X123285943Y-54089485D01*
X123226582Y-54050540D01*
X123197699Y-53985684D01*
X123196580Y-53968929D01*
X123196580Y-52740994D01*
X129983471Y-52740994D01*
X129984635Y-52749896D01*
X129984635Y-52749899D01*
X129988831Y-52781985D01*
X130002060Y-52883150D01*
X130005677Y-52891370D01*
X130054603Y-53002562D01*
X130059800Y-53014374D01*
X130065577Y-53021247D01*
X130065578Y-53021248D01*
X130107890Y-53071584D01*
X130152050Y-53124119D01*
X130159527Y-53129096D01*
X130263206Y-53198111D01*
X130271393Y-53203561D01*
X130408237Y-53246313D01*
X130417209Y-53246477D01*
X130417212Y-53246478D01*
X130482543Y-53247675D01*
X130551579Y-53248941D01*
X130560613Y-53246478D01*
X130594450Y-53237253D01*
X139762253Y-53237253D01*
X139779390Y-53392481D01*
X139782834Y-53407164D01*
X139836503Y-53553822D01*
X139841755Y-53564129D01*
X139850584Y-53571469D01*
X139864675Y-53564234D01*
X140178929Y-53249979D01*
X140185306Y-53238301D01*
X140762620Y-53238301D01*
X140762752Y-53240137D01*
X140767002Y-53246750D01*
X140821850Y-53301599D01*
X141161772Y-53641520D01*
X141175710Y-53649131D01*
X141177546Y-53648999D01*
X141184158Y-53644750D01*
X141527310Y-53301599D01*
X141578927Y-53249982D01*
X141585305Y-53238301D01*
X142162620Y-53238301D01*
X142162752Y-53240137D01*
X142167002Y-53246750D01*
X142221850Y-53301599D01*
X142561772Y-53641520D01*
X142575710Y-53649131D01*
X142577546Y-53648999D01*
X142584158Y-53644750D01*
X142927310Y-53301599D01*
X142978927Y-53249982D01*
X142985305Y-53238301D01*
X143562620Y-53238301D01*
X143562752Y-53240137D01*
X143567001Y-53246749D01*
X143887166Y-53566915D01*
X143899545Y-53573674D01*
X143903643Y-53570606D01*
X143960646Y-53428806D01*
X143964548Y-53414242D01*
X143987043Y-53256187D01*
X143987667Y-53247984D01*
X143987737Y-53241292D01*
X143987285Y-53233077D01*
X143968105Y-53074589D01*
X143964509Y-53059946D01*
X143909306Y-52913857D01*
X143906352Y-52908206D01*
X143898979Y-52902207D01*
X143885242Y-52909351D01*
X143570231Y-53224363D01*
X143562620Y-53238301D01*
X142985305Y-53238301D01*
X142986539Y-53236040D01*
X142986408Y-53234205D01*
X142982157Y-53227591D01*
X142636783Y-52882216D01*
X142587391Y-52832824D01*
X142573449Y-52825212D01*
X142571614Y-52825343D01*
X142564999Y-52829594D01*
X142512377Y-52882216D01*
X142512377Y-52882215D01*
X142512376Y-52882216D01*
X142170232Y-53224361D01*
X142162620Y-53238301D01*
X141585305Y-53238301D01*
X141586539Y-53236040D01*
X141586408Y-53234205D01*
X141582157Y-53227591D01*
X141236783Y-52882216D01*
X141187391Y-52832824D01*
X141173449Y-52825212D01*
X141171614Y-52825343D01*
X141164999Y-52829594D01*
X141112377Y-52882216D01*
X141112377Y-52882215D01*
X141112376Y-52882216D01*
X140770232Y-53224361D01*
X140762620Y-53238301D01*
X140185306Y-53238301D01*
X140186540Y-53236041D01*
X140186408Y-53234205D01*
X140182159Y-53227593D01*
X139862428Y-52907861D01*
X139850620Y-52901413D01*
X139843403Y-52906986D01*
X139843274Y-52907226D01*
X139786546Y-53052725D01*
X139782794Y-53067339D01*
X139762410Y-53222172D01*
X139762253Y-53237253D01*
X130594450Y-53237253D01*
X130681238Y-53213592D01*
X130681240Y-53213591D01*
X130689897Y-53211231D01*
X130812071Y-53136216D01*
X130908280Y-53029925D01*
X130951112Y-52941519D01*
X130966875Y-52908985D01*
X130966875Y-52908984D01*
X130970790Y-52900904D01*
X130994576Y-52759525D01*
X130994727Y-52747171D01*
X130979100Y-52638052D01*
X130975676Y-52614139D01*
X130975675Y-52614136D01*
X130974403Y-52605253D01*
X130920634Y-52486994D01*
X137222471Y-52486994D01*
X137223635Y-52495896D01*
X137223635Y-52495899D01*
X137228884Y-52536040D01*
X137241060Y-52629150D01*
X137244677Y-52637370D01*
X137295129Y-52752030D01*
X137298800Y-52760374D01*
X137304577Y-52767247D01*
X137304578Y-52767248D01*
X137310173Y-52773904D01*
X137391050Y-52870119D01*
X137510393Y-52949561D01*
X137647237Y-52992313D01*
X137656209Y-52992477D01*
X137656212Y-52992478D01*
X137721543Y-52993675D01*
X137790579Y-52994941D01*
X137799613Y-52992478D01*
X137920238Y-52959592D01*
X137920240Y-52959591D01*
X137928897Y-52957231D01*
X138051071Y-52882216D01*
X138147280Y-52775925D01*
X138209790Y-52646904D01*
X138214859Y-52616777D01*
X140141497Y-52616777D01*
X140143868Y-52623617D01*
X140461772Y-52941520D01*
X140475710Y-52949131D01*
X140477546Y-52948999D01*
X140484158Y-52944750D01*
X140829575Y-52599334D01*
X140878927Y-52549982D01*
X140885305Y-52538301D01*
X141462620Y-52538301D01*
X141462752Y-52540137D01*
X141467002Y-52546750D01*
X141519585Y-52599334D01*
X141519584Y-52599334D01*
X141519585Y-52599335D01*
X141861770Y-52941519D01*
X141875710Y-52949131D01*
X141877546Y-52948999D01*
X141884158Y-52944750D01*
X142229575Y-52599334D01*
X142278927Y-52549982D01*
X142285305Y-52538301D01*
X142862620Y-52538301D01*
X142862752Y-52540137D01*
X142867002Y-52546750D01*
X142919585Y-52599334D01*
X142919584Y-52599334D01*
X142919585Y-52599335D01*
X143261770Y-52941519D01*
X143275710Y-52949131D01*
X143277546Y-52948999D01*
X143284158Y-52944750D01*
X143600654Y-52628255D01*
X143607413Y-52615876D01*
X143606004Y-52613994D01*
X149922471Y-52613994D01*
X149923635Y-52622896D01*
X149923635Y-52622899D01*
X149925617Y-52638052D01*
X149941060Y-52756150D01*
X149944677Y-52764370D01*
X149993603Y-52875562D01*
X149998800Y-52887374D01*
X150004577Y-52894247D01*
X150004578Y-52894248D01*
X150017464Y-52909578D01*
X150091050Y-52997119D01*
X150210393Y-53076561D01*
X150347237Y-53119313D01*
X150356209Y-53119477D01*
X150356212Y-53119478D01*
X150421543Y-53120675D01*
X150490579Y-53121941D01*
X150499613Y-53119478D01*
X150620238Y-53086592D01*
X150620240Y-53086591D01*
X150628897Y-53084231D01*
X150751071Y-53009216D01*
X150847280Y-52902925D01*
X150884932Y-52825212D01*
X150905875Y-52781985D01*
X150905875Y-52781984D01*
X150909790Y-52773904D01*
X150933576Y-52632525D01*
X150933727Y-52620171D01*
X150923675Y-52549982D01*
X150914676Y-52487139D01*
X150914675Y-52487136D01*
X150913403Y-52478253D01*
X150854064Y-52347743D01*
X150835678Y-52326405D01*
X150766340Y-52245934D01*
X150766337Y-52245931D01*
X150760480Y-52239134D01*
X150640175Y-52161156D01*
X150502819Y-52120078D01*
X150493843Y-52120023D01*
X150493842Y-52120023D01*
X150433635Y-52119655D01*
X150359456Y-52119202D01*
X150221609Y-52158599D01*
X150100360Y-52235101D01*
X150005457Y-52342559D01*
X149944527Y-52472334D01*
X149941283Y-52493171D01*
X149924754Y-52599334D01*
X149922471Y-52613994D01*
X143606004Y-52613994D01*
X143602903Y-52609852D01*
X143536879Y-52574894D01*
X143522802Y-52569491D01*
X143368434Y-52530717D01*
X143307238Y-52494723D01*
X143275217Y-52431357D01*
X143274041Y-52423649D01*
X143268104Y-52374582D01*
X143264509Y-52359946D01*
X143209306Y-52213857D01*
X143206352Y-52208206D01*
X143198979Y-52202207D01*
X143185242Y-52209351D01*
X142870231Y-52524363D01*
X142862620Y-52538301D01*
X142285305Y-52538301D01*
X142286539Y-52536040D01*
X142286408Y-52534205D01*
X142282157Y-52527591D01*
X141962428Y-52207861D01*
X141950311Y-52201245D01*
X141885234Y-52226635D01*
X141815642Y-52212585D01*
X141799514Y-52201928D01*
X141785242Y-52209351D01*
X141470231Y-52524363D01*
X141462620Y-52538301D01*
X140885305Y-52538301D01*
X140886539Y-52536040D01*
X140886408Y-52534205D01*
X140882157Y-52527591D01*
X140562428Y-52207861D01*
X140550620Y-52201413D01*
X140543403Y-52206986D01*
X140543274Y-52207226D01*
X140486546Y-52352725D01*
X140482794Y-52367340D01*
X140475105Y-52425748D01*
X140446383Y-52490675D01*
X140387119Y-52529768D01*
X140379596Y-52531822D01*
X140233364Y-52566928D01*
X140219229Y-52572184D01*
X140151699Y-52607040D01*
X140141497Y-52616777D01*
X138214859Y-52616777D01*
X138233576Y-52505525D01*
X138233727Y-52493171D01*
X138216508Y-52372934D01*
X138214676Y-52360139D01*
X138214675Y-52360136D01*
X138213403Y-52351253D01*
X138154064Y-52220743D01*
X138135678Y-52199405D01*
X138066340Y-52118934D01*
X138066337Y-52118931D01*
X138060480Y-52112134D01*
X137940175Y-52034156D01*
X137802819Y-51993078D01*
X137793843Y-51993023D01*
X137793842Y-51993023D01*
X137733635Y-51992655D01*
X137659456Y-51992202D01*
X137521609Y-52031599D01*
X137400360Y-52108101D01*
X137305457Y-52215559D01*
X137244527Y-52345334D01*
X137241289Y-52366134D01*
X137224754Y-52472334D01*
X137222471Y-52486994D01*
X130920634Y-52486994D01*
X130915064Y-52474743D01*
X130872847Y-52425748D01*
X130827340Y-52372934D01*
X130827337Y-52372931D01*
X130821480Y-52366134D01*
X130701175Y-52288156D01*
X130563819Y-52247078D01*
X130554843Y-52247023D01*
X130554842Y-52247023D01*
X130494635Y-52246655D01*
X130420456Y-52246202D01*
X130282609Y-52285599D01*
X130161360Y-52362101D01*
X130066457Y-52469559D01*
X130005527Y-52599334D01*
X129983471Y-52740994D01*
X123196580Y-52740994D01*
X123196580Y-51343994D01*
X126300471Y-51343994D01*
X126301635Y-51352896D01*
X126301635Y-51352899D01*
X126302835Y-51362073D01*
X126319060Y-51486150D01*
X126376800Y-51617374D01*
X126382577Y-51624247D01*
X126382578Y-51624248D01*
X126388173Y-51630904D01*
X126469050Y-51727119D01*
X126588393Y-51806561D01*
X126725237Y-51849313D01*
X126734209Y-51849477D01*
X126734212Y-51849478D01*
X126799543Y-51850675D01*
X126868579Y-51851941D01*
X126877613Y-51849478D01*
X126998238Y-51816592D01*
X126998240Y-51816591D01*
X127006897Y-51814231D01*
X127129071Y-51739216D01*
X127146654Y-51719791D01*
X127219258Y-51639578D01*
X127225280Y-51632925D01*
X127287790Y-51503904D01*
X127293327Y-51470994D01*
X127697471Y-51470994D01*
X127698635Y-51479896D01*
X127698635Y-51479899D01*
X127700617Y-51495052D01*
X127716060Y-51613150D01*
X127719677Y-51621370D01*
X127768603Y-51732562D01*
X127773800Y-51744374D01*
X127779577Y-51751247D01*
X127779578Y-51751248D01*
X127826073Y-51806561D01*
X127866050Y-51854119D01*
X127985393Y-51933561D01*
X128122237Y-51976313D01*
X128131209Y-51976477D01*
X128131212Y-51976478D01*
X128196543Y-51977675D01*
X128265579Y-51978941D01*
X128274613Y-51976478D01*
X128395238Y-51943592D01*
X128395240Y-51943591D01*
X128403897Y-51941231D01*
X128526071Y-51866216D01*
X128539551Y-51851324D01*
X128618988Y-51763562D01*
X128679532Y-51726481D01*
X128750512Y-51728018D01*
X128808854Y-51767041D01*
X128882050Y-51854119D01*
X129001393Y-51933561D01*
X129138237Y-51976313D01*
X129147209Y-51976477D01*
X129147212Y-51976478D01*
X129212543Y-51977675D01*
X129281579Y-51978941D01*
X129290613Y-51976478D01*
X129411238Y-51943592D01*
X129411240Y-51943591D01*
X129419897Y-51941231D01*
X129459724Y-51916777D01*
X140841497Y-51916777D01*
X140843868Y-51923617D01*
X141161772Y-52241520D01*
X141175710Y-52249131D01*
X141177546Y-52248999D01*
X141184158Y-52244750D01*
X141500654Y-51928255D01*
X141506921Y-51916777D01*
X142241497Y-51916777D01*
X142243868Y-51923617D01*
X142561772Y-52241520D01*
X142575710Y-52249131D01*
X142577546Y-52248999D01*
X142584158Y-52244750D01*
X142900654Y-51928255D01*
X142907413Y-51915876D01*
X142902903Y-51909852D01*
X142836879Y-51874894D01*
X142822802Y-51869491D01*
X142671339Y-51831446D01*
X142656367Y-51829555D01*
X142500203Y-51828738D01*
X142485223Y-51830471D01*
X142333364Y-51866928D01*
X142319229Y-51872184D01*
X142251699Y-51907040D01*
X142241497Y-51916777D01*
X141506921Y-51916777D01*
X141507413Y-51915876D01*
X141502903Y-51909852D01*
X141436879Y-51874894D01*
X141422802Y-51869491D01*
X141271339Y-51831446D01*
X141256367Y-51829555D01*
X141100203Y-51828738D01*
X141085223Y-51830471D01*
X140933364Y-51866928D01*
X140919229Y-51872184D01*
X140851699Y-51907040D01*
X140841497Y-51916777D01*
X129459724Y-51916777D01*
X129542071Y-51866216D01*
X129555551Y-51851324D01*
X129632258Y-51766578D01*
X129638280Y-51759925D01*
X129673169Y-51687914D01*
X129696875Y-51638985D01*
X129696875Y-51638984D01*
X129700790Y-51630904D01*
X129724576Y-51489525D01*
X129724727Y-51477171D01*
X129716553Y-51420095D01*
X129705676Y-51344139D01*
X129705675Y-51344136D01*
X129705590Y-51343542D01*
X132977958Y-51343542D01*
X132979122Y-51352444D01*
X132979122Y-51352447D01*
X132980381Y-51362073D01*
X132996547Y-51485698D01*
X133054287Y-51616922D01*
X133060064Y-51623795D01*
X133060065Y-51623796D01*
X133060949Y-51624848D01*
X133146537Y-51726667D01*
X133265880Y-51806109D01*
X133402724Y-51848861D01*
X133411696Y-51849025D01*
X133411699Y-51849026D01*
X133477030Y-51850223D01*
X133546066Y-51851489D01*
X133555100Y-51849026D01*
X133675725Y-51816140D01*
X133675727Y-51816139D01*
X133684384Y-51813779D01*
X133806558Y-51738764D01*
X133817099Y-51727119D01*
X133896745Y-51639126D01*
X133902767Y-51632473D01*
X133965277Y-51503452D01*
X133989063Y-51362073D01*
X133989214Y-51349719D01*
X133981040Y-51292643D01*
X133970163Y-51216687D01*
X133970162Y-51216684D01*
X133968890Y-51207801D01*
X133909551Y-51077291D01*
X133855364Y-51014404D01*
X133821827Y-50975482D01*
X133821824Y-50975479D01*
X133815967Y-50968682D01*
X133695662Y-50890704D01*
X133558306Y-50849626D01*
X133549330Y-50849571D01*
X133549329Y-50849571D01*
X133488916Y-50849202D01*
X133414943Y-50848750D01*
X133277096Y-50888147D01*
X133155847Y-50964649D01*
X133149905Y-50971377D01*
X133149904Y-50971378D01*
X133146280Y-50975482D01*
X133060944Y-51072107D01*
X133000014Y-51201882D01*
X132977958Y-51343542D01*
X129705590Y-51343542D01*
X129704403Y-51335253D01*
X129645064Y-51204743D01*
X129623097Y-51179249D01*
X129593784Y-51114587D01*
X129604083Y-51044341D01*
X129625134Y-51012449D01*
X129632255Y-51004582D01*
X129632257Y-51004580D01*
X129638280Y-50997925D01*
X129645815Y-50982374D01*
X129696875Y-50876985D01*
X129696875Y-50876984D01*
X129700790Y-50868904D01*
X129724576Y-50727525D01*
X129724727Y-50715171D01*
X129704403Y-50573253D01*
X129645064Y-50442743D01*
X129582021Y-50369578D01*
X129557340Y-50340934D01*
X129557337Y-50340931D01*
X129551480Y-50334134D01*
X129431175Y-50256156D01*
X129293819Y-50215078D01*
X129284843Y-50215023D01*
X129284842Y-50215023D01*
X129224635Y-50214655D01*
X129150456Y-50214202D01*
X129012609Y-50253599D01*
X128891360Y-50330101D01*
X128885419Y-50336828D01*
X128885413Y-50336833D01*
X128805079Y-50427795D01*
X128744994Y-50465614D01*
X128674000Y-50464944D01*
X128615185Y-50426636D01*
X128535480Y-50334134D01*
X128415175Y-50256156D01*
X128277819Y-50215078D01*
X128268843Y-50215023D01*
X128268842Y-50215023D01*
X128208635Y-50214655D01*
X128134456Y-50214202D01*
X127996609Y-50253599D01*
X127875360Y-50330101D01*
X127869418Y-50336829D01*
X127869417Y-50336830D01*
X127867365Y-50339154D01*
X127780457Y-50437559D01*
X127719527Y-50567334D01*
X127697471Y-50708994D01*
X127698635Y-50717896D01*
X127698635Y-50717899D01*
X127699894Y-50727525D01*
X127716060Y-50851150D01*
X127719677Y-50859370D01*
X127769161Y-50971830D01*
X127773800Y-50982374D01*
X127779577Y-50989247D01*
X127779578Y-50989248D01*
X127800724Y-51014404D01*
X127829245Y-51079419D01*
X127818089Y-51149534D01*
X127798715Y-51178886D01*
X127780457Y-51199559D01*
X127719527Y-51329334D01*
X127697471Y-51470994D01*
X127293327Y-51470994D01*
X127311576Y-51362525D01*
X127311727Y-51350171D01*
X127291403Y-51208253D01*
X127286715Y-51197941D01*
X127248816Y-51114587D01*
X127232064Y-51077743D01*
X127203283Y-51044341D01*
X127144340Y-50975934D01*
X127144337Y-50975931D01*
X127138480Y-50969134D01*
X127018175Y-50891156D01*
X126880819Y-50850078D01*
X126871843Y-50850023D01*
X126871842Y-50850023D01*
X126811635Y-50849655D01*
X126737456Y-50849202D01*
X126599609Y-50888599D01*
X126478360Y-50965101D01*
X126383457Y-51072559D01*
X126322527Y-51202334D01*
X126320222Y-51217139D01*
X126301923Y-51334669D01*
X126300471Y-51343994D01*
X123196580Y-51343994D01*
X123196580Y-50073994D01*
X135317471Y-50073994D01*
X135318635Y-50082896D01*
X135318635Y-50082899D01*
X135319894Y-50092525D01*
X135336060Y-50216150D01*
X135339677Y-50224370D01*
X135389161Y-50336830D01*
X135393800Y-50347374D01*
X135399577Y-50354247D01*
X135399578Y-50354248D01*
X135406872Y-50362925D01*
X135486050Y-50457119D01*
X135605393Y-50536561D01*
X135742237Y-50579313D01*
X135751209Y-50579477D01*
X135751212Y-50579478D01*
X135816543Y-50580675D01*
X135885579Y-50581941D01*
X135894613Y-50579478D01*
X136015238Y-50546592D01*
X136015240Y-50546591D01*
X136023897Y-50544231D01*
X136146071Y-50469216D01*
X136242280Y-50362925D01*
X136304790Y-50233904D01*
X136328576Y-50092525D01*
X136328727Y-50080171D01*
X136308403Y-49938253D01*
X136249064Y-49807743D01*
X136230678Y-49786405D01*
X136161340Y-49705934D01*
X136161337Y-49705931D01*
X136155480Y-49699134D01*
X136035175Y-49621156D01*
X135897819Y-49580078D01*
X135888843Y-49580023D01*
X135888842Y-49580023D01*
X135828635Y-49579655D01*
X135754456Y-49579202D01*
X135616609Y-49618599D01*
X135495360Y-49695101D01*
X135400457Y-49802559D01*
X135339527Y-49932334D01*
X135317471Y-50073994D01*
X123196580Y-50073994D01*
X123196580Y-47579473D01*
X123216582Y-47511352D01*
X123270238Y-47464859D01*
X123340512Y-47454755D01*
X123392397Y-47474585D01*
X123413393Y-47488561D01*
X123550237Y-47531313D01*
X123559209Y-47531477D01*
X123559212Y-47531478D01*
X123624543Y-47532675D01*
X123693579Y-47533941D01*
X123702613Y-47531478D01*
X123823238Y-47498592D01*
X123823240Y-47498591D01*
X123831897Y-47496231D01*
X123954071Y-47421216D01*
X124050280Y-47314925D01*
X124112790Y-47185904D01*
X124136576Y-47044525D01*
X124136727Y-47032171D01*
X124116403Y-46890253D01*
X124057064Y-46759743D01*
X124038678Y-46738405D01*
X123969340Y-46657934D01*
X123969337Y-46657931D01*
X123963480Y-46651134D01*
X123843175Y-46573156D01*
X123705819Y-46532078D01*
X123696843Y-46532023D01*
X123696842Y-46532023D01*
X123636635Y-46531655D01*
X123562456Y-46531202D01*
X123424609Y-46570599D01*
X123409810Y-46579936D01*
X123389815Y-46592552D01*
X123321529Y-46611986D01*
X123253578Y-46591416D01*
X123207534Y-46537375D01*
X123196580Y-46485990D01*
X123196580Y-44850390D01*
X124444562Y-44850390D01*
X124446580Y-44850390D01*
X124446580Y-44864262D01*
X124446576Y-44872159D01*
X124446549Y-44918796D01*
X124446580Y-44918861D01*
X124446580Y-45878681D01*
X124446553Y-45934814D01*
X124452701Y-45947603D01*
X124453838Y-45952599D01*
X124456391Y-45959905D01*
X124458612Y-45964521D01*
X124461768Y-45978356D01*
X124470611Y-45989454D01*
X124472918Y-45994247D01*
X124476726Y-46000315D01*
X124480038Y-46004475D01*
X124486183Y-46017259D01*
X124497264Y-46026114D01*
X124500446Y-46030111D01*
X124505941Y-46035613D01*
X124509933Y-46038800D01*
X124518775Y-46049895D01*
X124531555Y-46056059D01*
X124535710Y-46059376D01*
X124541774Y-46063194D01*
X124546562Y-46065506D01*
X124557646Y-46074363D01*
X124571474Y-46077537D01*
X124576084Y-46079763D01*
X124583393Y-46082328D01*
X124588387Y-46083472D01*
X124601167Y-46089636D01*
X124624275Y-46089656D01*
X124624273Y-46091691D01*
X124624379Y-46091715D01*
X124624378Y-46089680D01*
X124624379Y-46089680D01*
X124642964Y-46089673D01*
X124692643Y-46089716D01*
X124692639Y-46094505D01*
X124692777Y-46094514D01*
X124692775Y-46089653D01*
X132097946Y-46086686D01*
X132100304Y-46086819D01*
X132110799Y-46090505D01*
X132138372Y-46087437D01*
X132147231Y-46086944D01*
X132149699Y-46086665D01*
X132156764Y-46086662D01*
X132163650Y-46085088D01*
X132166848Y-46084727D01*
X132174749Y-46083389D01*
X132182907Y-46082481D01*
X132201713Y-46080388D01*
X132211771Y-46074091D01*
X132223340Y-46071447D01*
X132244553Y-46054530D01*
X132251322Y-46049734D01*
X132253704Y-46047838D01*
X132259746Y-46044055D01*
X132264786Y-46039015D01*
X132266895Y-46037336D01*
X132273383Y-46031537D01*
X132283762Y-46023260D01*
X132283763Y-46023259D01*
X132294856Y-46014412D01*
X132299751Y-46004253D01*
X132301462Y-46002339D01*
X132760241Y-45543560D01*
X132761984Y-45542006D01*
X132771991Y-45537209D01*
X132789370Y-45515509D01*
X132795318Y-45508868D01*
X132796835Y-45506966D01*
X132801838Y-45501963D01*
X132805600Y-45495977D01*
X132807658Y-45493397D01*
X132812245Y-45486947D01*
X132820301Y-45476888D01*
X132820302Y-45476885D01*
X132829173Y-45465809D01*
X132831847Y-45454217D01*
X132838179Y-45444143D01*
X132841224Y-45417212D01*
X132842611Y-45409114D01*
X132842962Y-45406037D01*
X132844564Y-45399093D01*
X132844569Y-45391967D01*
X132844866Y-45389366D01*
X132845364Y-45380580D01*
X132846860Y-45367346D01*
X132848454Y-45353247D01*
X132844745Y-45342625D01*
X132844605Y-45340107D01*
X132844794Y-45071682D01*
X132848560Y-39699449D01*
X132848606Y-39647743D01*
X132848613Y-39639796D01*
X132848613Y-39639794D01*
X132848625Y-39625608D01*
X132842484Y-39612820D01*
X132841336Y-39607765D01*
X132838842Y-39600617D01*
X132836600Y-39595950D01*
X132833454Y-39582116D01*
X132824620Y-39571014D01*
X132822343Y-39566275D01*
X132818445Y-39560056D01*
X132815171Y-39555940D01*
X132809028Y-39543147D01*
X132797943Y-39534282D01*
X132794715Y-39530224D01*
X132789385Y-39524881D01*
X132785336Y-39521644D01*
X132776498Y-39510537D01*
X132763720Y-39504363D01*
X132759614Y-39501080D01*
X132753397Y-39497162D01*
X132748668Y-39494876D01*
X132737588Y-39486015D01*
X132723763Y-39482836D01*
X132719099Y-39480581D01*
X132711967Y-39478074D01*
X132706910Y-39476912D01*
X132694134Y-39470739D01*
X132670998Y-39470703D01*
X132671001Y-39468662D01*
X132670861Y-39468630D01*
X132670861Y-39470671D01*
X132650937Y-39470671D01*
X132602658Y-39470595D01*
X132602666Y-39465819D01*
X132602499Y-39465808D01*
X132602499Y-39470671D01*
X131635697Y-39470671D01*
X131600832Y-39470618D01*
X131600830Y-39470618D01*
X131586645Y-39470597D01*
X131573852Y-39476730D01*
X131569075Y-39477812D01*
X131561143Y-39480580D01*
X131556732Y-39482703D01*
X131542895Y-39485859D01*
X131531798Y-39494702D01*
X131526804Y-39497105D01*
X131521289Y-39500563D01*
X131516953Y-39504007D01*
X131504159Y-39510141D01*
X131495290Y-39521216D01*
X131491456Y-39524262D01*
X131485510Y-39530193D01*
X131482452Y-39534024D01*
X131471356Y-39542866D01*
X131465192Y-39555646D01*
X131461729Y-39559984D01*
X131458263Y-39565485D01*
X131458025Y-39565976D01*
X131457790Y-39566235D01*
X131452435Y-39574733D01*
X131446981Y-39581544D01*
X131445201Y-39580119D01*
X131410336Y-39618571D01*
X131341783Y-39637035D01*
X131274130Y-39615505D01*
X131249166Y-39593315D01*
X131208340Y-39545934D01*
X131208337Y-39545931D01*
X131202480Y-39539134D01*
X131082175Y-39461156D01*
X130944819Y-39420078D01*
X130935843Y-39420023D01*
X130935842Y-39420023D01*
X130875635Y-39419655D01*
X130801456Y-39419202D01*
X130663609Y-39458599D01*
X130542360Y-39535101D01*
X130536418Y-39541829D01*
X130536417Y-39541830D01*
X130514828Y-39566275D01*
X130447457Y-39642559D01*
X130386527Y-39772334D01*
X130385146Y-39781206D01*
X130370517Y-39875165D01*
X130364471Y-39913994D01*
X130365635Y-39922896D01*
X130365635Y-39922899D01*
X130366649Y-39930651D01*
X130383060Y-40056150D01*
X130386677Y-40064370D01*
X130428177Y-40158685D01*
X130440800Y-40187374D01*
X130446577Y-40194247D01*
X130446578Y-40194248D01*
X130496026Y-40253074D01*
X130533050Y-40297119D01*
X130652393Y-40376561D01*
X130789237Y-40419313D01*
X130798209Y-40419477D01*
X130798212Y-40419478D01*
X130863543Y-40420675D01*
X130932579Y-40421941D01*
X130941613Y-40419478D01*
X131062238Y-40386592D01*
X131062240Y-40386591D01*
X131070897Y-40384231D01*
X131193071Y-40309216D01*
X131205813Y-40295139D01*
X131211715Y-40288619D01*
X131272258Y-40251537D01*
X131343238Y-40253074D01*
X131402119Y-40292741D01*
X131430207Y-40357945D01*
X131431131Y-40373254D01*
X131430300Y-41672838D01*
X131410254Y-41740946D01*
X131356569Y-41787404D01*
X131286289Y-41797463D01*
X131221727Y-41767929D01*
X131189599Y-41724908D01*
X131186428Y-41717933D01*
X131169064Y-41679743D01*
X131150678Y-41658405D01*
X131081340Y-41577934D01*
X131081337Y-41577931D01*
X131075480Y-41571134D01*
X130955175Y-41493156D01*
X130817819Y-41452078D01*
X130808843Y-41452023D01*
X130808842Y-41452023D01*
X130748635Y-41451655D01*
X130674456Y-41451202D01*
X130536609Y-41490599D01*
X130415360Y-41567101D01*
X130320457Y-41674559D01*
X130259527Y-41804334D01*
X130256816Y-41821745D01*
X130240186Y-41928559D01*
X130237471Y-41945994D01*
X130238635Y-41954896D01*
X130238635Y-41954899D01*
X130240617Y-41970052D01*
X130256060Y-42088150D01*
X130259677Y-42096370D01*
X130308603Y-42207562D01*
X130313800Y-42219374D01*
X130319577Y-42226247D01*
X130319578Y-42226248D01*
X130324071Y-42231593D01*
X130406050Y-42329119D01*
X130525393Y-42408561D01*
X130662237Y-42451313D01*
X130671209Y-42451477D01*
X130671212Y-42451478D01*
X130736543Y-42452675D01*
X130805579Y-42453941D01*
X130814613Y-42451478D01*
X130935238Y-42418592D01*
X130935240Y-42418591D01*
X130943897Y-42416231D01*
X131066071Y-42341216D01*
X131162280Y-42234925D01*
X131166191Y-42226852D01*
X131166194Y-42226848D01*
X131190551Y-42176574D01*
X131238253Y-42123990D01*
X131306812Y-42105545D01*
X131374460Y-42127093D01*
X131419719Y-42181793D01*
X131429943Y-42231592D01*
X131429482Y-42952685D01*
X131428667Y-44225925D01*
X131408621Y-44294033D01*
X131391762Y-44314939D01*
X131072893Y-44633808D01*
X131010581Y-44667834D01*
X130983837Y-44670713D01*
X128232221Y-44671563D01*
X128164094Y-44651582D01*
X128117585Y-44597941D01*
X128107459Y-44527670D01*
X128136932Y-44463080D01*
X128166254Y-44438188D01*
X128264420Y-44377915D01*
X128264426Y-44377910D01*
X128272071Y-44373216D01*
X128368280Y-44266925D01*
X128430790Y-44137904D01*
X128454576Y-43996525D01*
X128454727Y-43984171D01*
X128434403Y-43842253D01*
X128375064Y-43711743D01*
X128348781Y-43681240D01*
X128287340Y-43609934D01*
X128287337Y-43609931D01*
X128281480Y-43603134D01*
X128161175Y-43525156D01*
X128023819Y-43484078D01*
X128014843Y-43484023D01*
X128014842Y-43484023D01*
X127954635Y-43483655D01*
X127880456Y-43483202D01*
X127742609Y-43522599D01*
X127621360Y-43599101D01*
X127526457Y-43706559D01*
X127465527Y-43836334D01*
X127443471Y-43977994D01*
X127444635Y-43986896D01*
X127444635Y-43986899D01*
X127445894Y-43996525D01*
X127462060Y-44120150D01*
X127519800Y-44251374D01*
X127525577Y-44258247D01*
X127525578Y-44258248D01*
X127573232Y-44314939D01*
X127612050Y-44361119D01*
X127619527Y-44366096D01*
X127731393Y-44440561D01*
X127729373Y-44443595D01*
X127769353Y-44479476D01*
X127788166Y-44547934D01*
X127766980Y-44615696D01*
X127712523Y-44661248D01*
X127662226Y-44671740D01*
X124651431Y-44672670D01*
X124601517Y-44672626D01*
X124588725Y-44678769D01*
X124583877Y-44679870D01*
X124576151Y-44682570D01*
X124571673Y-44684727D01*
X124557838Y-44687887D01*
X124546742Y-44696734D01*
X124541812Y-44699109D01*
X124536127Y-44702676D01*
X124531845Y-44706082D01*
X124519056Y-44712223D01*
X124510195Y-44723303D01*
X124506303Y-44726399D01*
X124500512Y-44732181D01*
X124497409Y-44736071D01*
X124486316Y-44744916D01*
X124480156Y-44757698D01*
X124476740Y-44761980D01*
X124473170Y-44767651D01*
X124470787Y-44772581D01*
X124461924Y-44783663D01*
X124458744Y-44797492D01*
X124456582Y-44801965D01*
X124453871Y-44809690D01*
X124452763Y-44814536D01*
X124446601Y-44827320D01*
X124446588Y-44850356D01*
X124444570Y-44850355D01*
X124444562Y-44850390D01*
X123196580Y-44850390D01*
X123196580Y-43215994D01*
X124649471Y-43215994D01*
X124650635Y-43224896D01*
X124650635Y-43224899D01*
X124651894Y-43234525D01*
X124668060Y-43358150D01*
X124725800Y-43489374D01*
X124731577Y-43496247D01*
X124731578Y-43496248D01*
X124753715Y-43522583D01*
X124818050Y-43599119D01*
X124937393Y-43678561D01*
X125074237Y-43721313D01*
X125083209Y-43721477D01*
X125083212Y-43721478D01*
X125148543Y-43722675D01*
X125217579Y-43723941D01*
X125226613Y-43721478D01*
X125347238Y-43688592D01*
X125347240Y-43688591D01*
X125355897Y-43686231D01*
X125478071Y-43611216D01*
X125485387Y-43603134D01*
X125558297Y-43522583D01*
X125574280Y-43504925D01*
X125636790Y-43375904D01*
X125660576Y-43234525D01*
X125660727Y-43222171D01*
X125640403Y-43080253D01*
X125581064Y-42949743D01*
X125562678Y-42928405D01*
X125493340Y-42847934D01*
X125493337Y-42847931D01*
X125487480Y-42841134D01*
X125367175Y-42763156D01*
X125229819Y-42722078D01*
X125220843Y-42722023D01*
X125220842Y-42722023D01*
X125160635Y-42721655D01*
X125086456Y-42721202D01*
X124948609Y-42760599D01*
X124827360Y-42837101D01*
X124732457Y-42944559D01*
X124671527Y-43074334D01*
X124649471Y-43215994D01*
X123196580Y-43215994D01*
X123196580Y-41818994D01*
X127189471Y-41818994D01*
X127190635Y-41827896D01*
X127190635Y-41827899D01*
X127191894Y-41837525D01*
X127208060Y-41961150D01*
X127265800Y-42092374D01*
X127271577Y-42099247D01*
X127271578Y-42099248D01*
X127276871Y-42105545D01*
X127358050Y-42202119D01*
X127477393Y-42281561D01*
X127614237Y-42324313D01*
X127623209Y-42324477D01*
X127623212Y-42324478D01*
X127688543Y-42325675D01*
X127757579Y-42326941D01*
X127766613Y-42324478D01*
X127887238Y-42291592D01*
X127887240Y-42291591D01*
X127895897Y-42289231D01*
X128018071Y-42214216D01*
X128114280Y-42107925D01*
X128176790Y-41978904D01*
X128200576Y-41837525D01*
X128200727Y-41825171D01*
X128187850Y-41735254D01*
X128181676Y-41692139D01*
X128181675Y-41692136D01*
X128180403Y-41683253D01*
X128174607Y-41670504D01*
X128161259Y-41641148D01*
X128121064Y-41552743D01*
X128099324Y-41527513D01*
X128043036Y-41462187D01*
X128013722Y-41397524D01*
X128024021Y-41327279D01*
X128045074Y-41295384D01*
X128108256Y-41225582D01*
X128108261Y-41225575D01*
X128114280Y-41218925D01*
X128176790Y-41089904D01*
X128200576Y-40948525D01*
X128200727Y-40936171D01*
X128182672Y-40810096D01*
X128181676Y-40803139D01*
X128181675Y-40803136D01*
X128180403Y-40794253D01*
X128121064Y-40663743D01*
X128050547Y-40581904D01*
X128033340Y-40561934D01*
X128033337Y-40561931D01*
X128027480Y-40555134D01*
X127907175Y-40477156D01*
X127769819Y-40436078D01*
X127760843Y-40436023D01*
X127760842Y-40436023D01*
X127700635Y-40435655D01*
X127626456Y-40435202D01*
X127488609Y-40474599D01*
X127367360Y-40551101D01*
X127361418Y-40557829D01*
X127361417Y-40557830D01*
X127348576Y-40572370D01*
X127272457Y-40658559D01*
X127211527Y-40788334D01*
X127209704Y-40800042D01*
X127192132Y-40912905D01*
X127189471Y-40929994D01*
X127190635Y-40938896D01*
X127190635Y-40938899D01*
X127191894Y-40948525D01*
X127208060Y-41072150D01*
X127265800Y-41203374D01*
X127271577Y-41210247D01*
X127271578Y-41210248D01*
X127347419Y-41300472D01*
X127375940Y-41365488D01*
X127364784Y-41435602D01*
X127345410Y-41464954D01*
X127292285Y-41525107D01*
X127272457Y-41547559D01*
X127211527Y-41677334D01*
X127207060Y-41706023D01*
X127191754Y-41804334D01*
X127189471Y-41818994D01*
X123196580Y-41818994D01*
X123196580Y-41735254D01*
X123198546Y-41717933D01*
X123198556Y-41712362D01*
X123201736Y-41698532D01*
X123198603Y-41684690D01*
X123198628Y-41670503D01*
X123199125Y-41670504D01*
X123198446Y-41662558D01*
X123203239Y-41571134D01*
X123213227Y-41380578D01*
X123214605Y-41367464D01*
X123238132Y-41218925D01*
X123263329Y-41059847D01*
X123266071Y-41046950D01*
X123270086Y-41031969D01*
X123333783Y-40794253D01*
X123346675Y-40746143D01*
X123350750Y-40733600D01*
X123462360Y-40442850D01*
X123467725Y-40430801D01*
X123472212Y-40421994D01*
X124141471Y-40421994D01*
X124142635Y-40430896D01*
X124142635Y-40430899D01*
X124143649Y-40438651D01*
X124160060Y-40564150D01*
X124163677Y-40572370D01*
X124205177Y-40666685D01*
X124217800Y-40695374D01*
X124223577Y-40702247D01*
X124223578Y-40702248D01*
X124300916Y-40794253D01*
X124310050Y-40805119D01*
X124429393Y-40884561D01*
X124566237Y-40927313D01*
X124575209Y-40927477D01*
X124575212Y-40927478D01*
X124640543Y-40928675D01*
X124709579Y-40929941D01*
X124718613Y-40927478D01*
X124839238Y-40894592D01*
X124839240Y-40894591D01*
X124847897Y-40892231D01*
X124970071Y-40817216D01*
X124992931Y-40791961D01*
X125060258Y-40717578D01*
X125066280Y-40710925D01*
X125104494Y-40632051D01*
X125536920Y-40632051D01*
X125538084Y-40640953D01*
X125538084Y-40640956D01*
X125545200Y-40695374D01*
X125555509Y-40774207D01*
X125565629Y-40797206D01*
X125605375Y-40887535D01*
X125613249Y-40905431D01*
X125619026Y-40912304D01*
X125619027Y-40912305D01*
X125641382Y-40938899D01*
X125705499Y-41015176D01*
X125824842Y-41094618D01*
X125961686Y-41137370D01*
X125970658Y-41137534D01*
X125970661Y-41137535D01*
X126035992Y-41138732D01*
X126105028Y-41139998D01*
X126114062Y-41137535D01*
X126234687Y-41104649D01*
X126234689Y-41104648D01*
X126243346Y-41102288D01*
X126365520Y-41027273D01*
X126461729Y-40920982D01*
X126517864Y-40805119D01*
X126520324Y-40800042D01*
X126520324Y-40800041D01*
X126524239Y-40791961D01*
X126548025Y-40650582D01*
X126548176Y-40638228D01*
X126527852Y-40496310D01*
X126517974Y-40474583D01*
X126499080Y-40433030D01*
X126468513Y-40365800D01*
X126413622Y-40302096D01*
X126380789Y-40263991D01*
X126380786Y-40263988D01*
X126374929Y-40257191D01*
X126254624Y-40179213D01*
X126117268Y-40138135D01*
X126108292Y-40138080D01*
X126108291Y-40138080D01*
X126048084Y-40137712D01*
X125973905Y-40137259D01*
X125836058Y-40176656D01*
X125714809Y-40253158D01*
X125708867Y-40259886D01*
X125708866Y-40259887D01*
X125692795Y-40278084D01*
X125619906Y-40360616D01*
X125558976Y-40490391D01*
X125557595Y-40499263D01*
X125543470Y-40589985D01*
X125536920Y-40632051D01*
X125104494Y-40632051D01*
X125128790Y-40581904D01*
X125152576Y-40440525D01*
X125152727Y-40428171D01*
X125143795Y-40365800D01*
X125133676Y-40295139D01*
X125133675Y-40295136D01*
X125132403Y-40286253D01*
X125117318Y-40253074D01*
X125090571Y-40194248D01*
X125073064Y-40155743D01*
X124987249Y-40056150D01*
X124985340Y-40053934D01*
X124985337Y-40053931D01*
X124979480Y-40047134D01*
X124859175Y-39969156D01*
X124721819Y-39928078D01*
X124712843Y-39928023D01*
X124712842Y-39928023D01*
X124652635Y-39927655D01*
X124578456Y-39927202D01*
X124440609Y-39966599D01*
X124319360Y-40043101D01*
X124313418Y-40049829D01*
X124313417Y-40049830D01*
X124300576Y-40064370D01*
X124224457Y-40150559D01*
X124163527Y-40280334D01*
X124161222Y-40295139D01*
X124147351Y-40384231D01*
X124141471Y-40421994D01*
X123472212Y-40421994D01*
X123609116Y-40153310D01*
X123615710Y-40141889D01*
X123755094Y-39927257D01*
X123785327Y-39880702D01*
X123793077Y-39870035D01*
X123989070Y-39628005D01*
X123997895Y-39618204D01*
X124218115Y-39397985D01*
X124227916Y-39389161D01*
X124331540Y-39305248D01*
X124469940Y-39193174D01*
X124480600Y-39185428D01*
X124741801Y-39015802D01*
X124753217Y-39009211D01*
X125030710Y-38867820D01*
X125042758Y-38862456D01*
X125251179Y-38782450D01*
X125333500Y-38750850D01*
X125346043Y-38746774D01*
X125646870Y-38666167D01*
X125659770Y-38663425D01*
X125967371Y-38614704D01*
X125980487Y-38613326D01*
X125987789Y-38612943D01*
X126120885Y-38605968D01*
X126189959Y-38622377D01*
X126239196Y-38673526D01*
X126252964Y-38743175D01*
X126241534Y-38785343D01*
X126195527Y-38883334D01*
X126194146Y-38892206D01*
X126174902Y-39015805D01*
X126173471Y-39024994D01*
X126174635Y-39033896D01*
X126174635Y-39033899D01*
X126175894Y-39043525D01*
X126192060Y-39167150D01*
X126249800Y-39298374D01*
X126255577Y-39305247D01*
X126255578Y-39305248D01*
X126336270Y-39401243D01*
X126342050Y-39408119D01*
X126349527Y-39413096D01*
X126450906Y-39480580D01*
X126461393Y-39487561D01*
X126598237Y-39530313D01*
X126607209Y-39530477D01*
X126607212Y-39530478D01*
X126672543Y-39531675D01*
X126741579Y-39532941D01*
X126750613Y-39530478D01*
X126871238Y-39497592D01*
X126871240Y-39497591D01*
X126879897Y-39495231D01*
X127002071Y-39420216D01*
X127098280Y-39313925D01*
X127160790Y-39184904D01*
X127184576Y-39043525D01*
X127184727Y-39031171D01*
X127164403Y-38889253D01*
X127154658Y-38867820D01*
X127112375Y-38774822D01*
X127102389Y-38704531D01*
X127131990Y-38640000D01*
X127191780Y-38601716D01*
X127227076Y-38596671D01*
X134173080Y-38596671D01*
X134241201Y-38616673D01*
G37*
G04 #@! TD.AperFunction*
G04 #@! TD*
M02*
