G04 #@! TF.GenerationSoftware,KiCad,Pcbnew,6.0.5-a6ca702e91~116~ubuntu20.04.1*
G04 #@! TF.CreationDate,2022-06-28T17:03:59+00:00*
G04 #@! TF.ProjectId,PlantBuddy,506c616e-7442-4756-9464-792e6b696361,rev?*
G04 #@! TF.SameCoordinates,Original*
G04 #@! TF.FileFunction,Copper,L4,Bot*
G04 #@! TF.FilePolarity,Positive*
%FSLAX46Y46*%
G04 Gerber Fmt 4.6, Leading zero omitted, Abs format (unit mm)*
G04 Created by KiCad (PCBNEW 6.0.5-a6ca702e91~116~ubuntu20.04.1) date 2022-06-28 17:03:59*
%MOMM*%
%LPD*%
G01*
G04 APERTURE LIST*
G04 Aperture macros list*
%AMRoundRect*
0 Rectangle with rounded corners*
0 $1 Rounding radius*
0 $2 $3 $4 $5 $6 $7 $8 $9 X,Y pos of 4 corners*
0 Add a 4 corners polygon primitive as box body*
4,1,4,$2,$3,$4,$5,$6,$7,$8,$9,$2,$3,0*
0 Add four circle primitives for the rounded corners*
1,1,$1+$1,$2,$3*
1,1,$1+$1,$4,$5*
1,1,$1+$1,$6,$7*
1,1,$1+$1,$8,$9*
0 Add four rect primitives between the rounded corners*
20,1,$1+$1,$2,$3,$4,$5,0*
20,1,$1+$1,$4,$5,$6,$7,0*
20,1,$1+$1,$6,$7,$8,$9,0*
20,1,$1+$1,$8,$9,$2,$3,0*%
G04 Aperture macros list end*
G04 #@! TA.AperFunction,ComponentPad*
%ADD10C,0.400000*%
G04 #@! TD*
G04 #@! TA.AperFunction,ComponentPad*
%ADD11O,2.100000X1.000000*%
G04 #@! TD*
G04 #@! TA.AperFunction,ComponentPad*
%ADD12O,1.600000X1.000000*%
G04 #@! TD*
G04 #@! TA.AperFunction,SMDPad,CuDef*
%ADD13C,2.000000*%
G04 #@! TD*
G04 #@! TA.AperFunction,SMDPad,CuDef*
%ADD14RoundRect,0.317500X0.317500X-0.317500X0.317500X0.317500X-0.317500X0.317500X-0.317500X-0.317500X0*%
G04 #@! TD*
G04 #@! TA.AperFunction,SMDPad,CuDef*
%ADD15R,1.500000X1.500000*%
G04 #@! TD*
G04 #@! TA.AperFunction,SMDPad,CuDef*
%ADD16R,0.300000X1.600000*%
G04 #@! TD*
G04 #@! TA.AperFunction,SMDPad,CuDef*
%ADD17R,0.800000X1.800000*%
G04 #@! TD*
G04 #@! TA.AperFunction,SMDPad,CuDef*
%ADD18RoundRect,0.200000X-0.200000X-0.600000X0.200000X-0.600000X0.200000X0.600000X-0.200000X0.600000X0*%
G04 #@! TD*
G04 #@! TA.AperFunction,SMDPad,CuDef*
%ADD19RoundRect,0.250001X-0.799999X-1.249999X0.799999X-1.249999X0.799999X1.249999X-0.799999X1.249999X0*%
G04 #@! TD*
G04 #@! TA.AperFunction,ViaPad*
%ADD20C,0.600000*%
G04 #@! TD*
G04 #@! TA.AperFunction,Conductor*
%ADD21C,1.050000*%
G04 #@! TD*
G04 #@! TA.AperFunction,Conductor*
%ADD22C,0.300000*%
G04 #@! TD*
G04 #@! TA.AperFunction,Conductor*
%ADD23C,0.200000*%
G04 #@! TD*
G04 APERTURE END LIST*
D10*
G04 #@! TO.P,U3,41_1,GND*
G04 #@! TO.N,GND*
X141174580Y-55337171D03*
X141874580Y-53237171D03*
X141874580Y-54637171D03*
X140474580Y-54637171D03*
X142574580Y-52537171D03*
X142574580Y-53937171D03*
X140474580Y-53237171D03*
X143274580Y-53237171D03*
X142574580Y-55337171D03*
X141174580Y-53937171D03*
X143274580Y-54637171D03*
X141174580Y-52537171D03*
G04 #@! TD*
D11*
G04 #@! TO.P,J1,S1,SHIELD*
G04 #@! TO.N,GND*
X129999580Y-60936671D03*
X129999580Y-69576671D03*
D12*
X125819580Y-60936671D03*
X125819580Y-69576671D03*
G04 #@! TD*
D13*
G04 #@! TO.P,TP2,1,1*
G04 #@! TO.N,GND*
X146909080Y-55261171D03*
G04 #@! TD*
D14*
G04 #@! TO.P,LS1,1,1*
G04 #@! TO.N,/piezo_p*
X151952080Y-55795171D03*
G04 #@! TO.P,LS1,2,2*
G04 #@! TO.N,/piezo_l*
X151952080Y-53255171D03*
G04 #@! TD*
D13*
G04 #@! TO.P,TP1,1,1*
G04 #@! TO.N,+3V3*
X146859080Y-58831171D03*
G04 #@! TD*
D15*
G04 #@! TO.P,J2,1,Pin_1*
G04 #@! TO.N,Net-(J2-Pad1)*
X124529080Y-55661171D03*
G04 #@! TD*
D16*
G04 #@! TO.P,J4,1,Pin_1*
G04 #@! TO.N,GND*
X136621080Y-73089171D03*
G04 #@! TO.P,J4,2,Pin_2*
X136621080Y-69489171D03*
G04 #@! TO.P,J4,3,Pin_3*
X137121080Y-73089171D03*
G04 #@! TO.P,J4,4,Pin_4*
X137121080Y-69489171D03*
G04 #@! TO.P,J4,5,Pin_5*
G04 #@! TO.N,/EXT1*
X137621080Y-73089171D03*
G04 #@! TO.P,J4,6,Pin_6*
X137621080Y-69489171D03*
G04 #@! TO.P,J4,7,Pin_7*
G04 #@! TO.N,/EXT2*
X138121080Y-73089171D03*
G04 #@! TO.P,J4,8,Pin_8*
X138121080Y-69489171D03*
G04 #@! TO.P,J4,9,Pin_9*
G04 #@! TO.N,/EXT3*
X138621080Y-73089171D03*
G04 #@! TO.P,J4,10,Pin_10*
X138621080Y-69489171D03*
G04 #@! TO.P,J4,11,Pin_11*
G04 #@! TO.N,/EXT4*
X139121080Y-73089171D03*
G04 #@! TO.P,J4,12,Pin_12*
X139121080Y-69489171D03*
G04 #@! TO.P,J4,13,Pin_13*
G04 #@! TO.N,/EXT5*
X139621080Y-73089171D03*
G04 #@! TO.P,J4,14,Pin_14*
X139621080Y-69489171D03*
G04 #@! TO.P,J4,15,Pin_15*
G04 #@! TO.N,/csense*
X140121080Y-73089171D03*
G04 #@! TO.P,J4,16,Pin_16*
X140121080Y-69489171D03*
G04 #@! TO.P,J4,17,Pin_17*
G04 #@! TO.N,+3V3*
X140621080Y-73089171D03*
G04 #@! TO.P,J4,18,Pin_18*
X140621080Y-69489171D03*
G04 #@! TO.P,J4,19,Pin_19*
X141121080Y-73089171D03*
G04 #@! TO.P,J4,20,Pin_20*
X141121080Y-69489171D03*
D17*
G04 #@! TO.P,J4,S1*
G04 #@! TO.N,N/C*
X134921080Y-71289171D03*
G04 #@! TO.P,J4,S2*
X142821080Y-71289171D03*
G04 #@! TD*
D15*
G04 #@! TO.P,J3,1,Pin_1*
G04 #@! TO.N,VCC*
X124520080Y-50715171D03*
G04 #@! TD*
D18*
G04 #@! TO.P,BT1,1,+*
G04 #@! TO.N,+BATT*
X149168080Y-72538171D03*
G04 #@! TO.P,BT1,2,-*
G04 #@! TO.N,GND*
X150418080Y-72538171D03*
D19*
G04 #@! TO.P,BT1,MP*
G04 #@! TO.N,N/C*
X152968080Y-69638171D03*
X146618080Y-69638171D03*
G04 #@! TD*
D13*
G04 #@! TO.P,TP3,1,1*
G04 #@! TO.N,/csense*
X140739080Y-64331171D03*
G04 #@! TD*
D20*
G04 #@! TO.N,+BATT*
X130743080Y-56049171D03*
G04 #@! TO.N,+3V3*
X146364080Y-67479171D03*
X141792080Y-69511171D03*
X141665080Y-73067171D03*
X147888080Y-72051171D03*
X140014080Y-66082171D03*
X130489080Y-52747171D03*
X128203080Y-51477171D03*
X127949080Y-43984171D03*
X129219080Y-50715171D03*
X129219080Y-51477171D03*
X146859080Y-58831171D03*
X125155080Y-43222171D03*
X128203080Y-50715171D03*
G04 #@! TO.N,/SDA*
X127695080Y-40936171D03*
X130870080Y-39920171D03*
G04 #@! TO.N,/SCL*
X127695080Y-41825171D03*
X130743080Y-41952171D03*
X133791080Y-42206171D03*
G04 #@! TO.N,GND*
X126679080Y-43222171D03*
X129854080Y-53636171D03*
X135950080Y-69511171D03*
X150428080Y-69676171D03*
X131632080Y-58208171D03*
X153095080Y-72940171D03*
X130362080Y-43222171D03*
X128673749Y-39630671D03*
X131759080Y-72686171D03*
X135823080Y-46270171D03*
X125980580Y-56112671D03*
X152079080Y-67580605D03*
X150428080Y-71162171D03*
X136077080Y-73067171D03*
X129854080Y-59605171D03*
X129854080Y-46905171D03*
X150428080Y-68622171D03*
X124266080Y-42587171D03*
X152206080Y-72597171D03*
X130122185Y-51512671D03*
X126171080Y-72305171D03*
X150809080Y-46143171D03*
X151190080Y-67606171D03*
X146929080Y-55281171D03*
X126171080Y-47921171D03*
X131632080Y-46905171D03*
X128584080Y-72686171D03*
X123880621Y-49129170D03*
X152972580Y-67563260D03*
X127695080Y-59859171D03*
X152206080Y-73486171D03*
X127695080Y-72305171D03*
X151317080Y-69676171D03*
X151317080Y-68622171D03*
G04 #@! TO.N,VCC*
X126806080Y-51350171D03*
G04 #@! TO.N,/~PGOOD*
X128457080Y-53890171D03*
X125340034Y-53698204D03*
X133156080Y-54779171D03*
X128457080Y-55160169D03*
G04 #@! TO.N,/~CHG*
X133483567Y-51349719D03*
X124543393Y-54266069D03*
G04 #@! TO.N,Net-(J1-PadA5)*
X128330080Y-67733171D03*
X128889218Y-66357777D03*
G04 #@! TO.N,/EXT1*
X138109080Y-62727669D03*
G04 #@! TO.N,Net-(J2-Pad1)*
X123759080Y-54421171D03*
G04 #@! TO.N,/piezo_p*
X150682080Y-55033171D03*
G04 #@! TO.N,/piezo_l*
X150428080Y-52620171D03*
G04 #@! TO.N,Net-(R6-Pad2)*
X128076080Y-57446171D03*
X127314080Y-70273171D03*
G04 #@! TO.N,Net-(D4-Pad2)*
X139252080Y-55414171D03*
X139252080Y-67056671D03*
X126679080Y-39031171D03*
X124647080Y-40428171D03*
X139252080Y-57954171D03*
X139252080Y-62526171D03*
X137728080Y-52493171D03*
X123631080Y-47032171D03*
G04 #@! TO.N,/status*
X135823080Y-50080171D03*
X126042529Y-40638228D03*
G04 #@! TO.N,/EXT2*
X138363080Y-65320171D03*
G04 #@! TO.N,/EXT3*
X138720580Y-67860171D03*
G04 #@! TO.N,/EXT4*
X142681080Y-65574171D03*
G04 #@! TO.N,/EXT5*
X143951080Y-65574171D03*
G04 #@! TO.N,/charge_disable*
X127632080Y-54525171D03*
X133283080Y-53763171D03*
G04 #@! TO.N,/csense*
X145221080Y-65574171D03*
G04 #@! TD*
D21*
G04 #@! TO.N,+BATT*
X130743080Y-56049171D02*
X130828580Y-56134671D01*
X149168080Y-64695171D02*
X149168080Y-72538171D01*
X135273580Y-56134671D02*
X141538080Y-62399171D01*
X146872080Y-62399171D02*
X149168080Y-64695171D01*
X141538080Y-62399171D02*
X146872080Y-62399171D01*
X130828580Y-56134671D02*
X135273580Y-56134671D01*
D22*
G04 #@! TO.N,+3V3*
X141121080Y-73089171D02*
X140621080Y-73089171D01*
X140621080Y-69489171D02*
X141121080Y-69489171D01*
X141121080Y-73089171D02*
X141643080Y-73089171D01*
X141643080Y-73089171D02*
X141665080Y-73067171D01*
X141121080Y-69489171D02*
X141770080Y-69489171D01*
X141770080Y-69489171D02*
X141792080Y-69511171D01*
D23*
G04 #@! TO.N,/SDA*
X129854080Y-40936171D02*
X127695080Y-40936171D01*
X130870080Y-39920171D02*
X129854080Y-40936171D01*
G04 #@! TO.N,/SCL*
X132775080Y-39031171D02*
X127526902Y-39031171D01*
X127822080Y-41952171D02*
X127695080Y-41825171D01*
X126933080Y-41063171D02*
X127695080Y-41825171D01*
X126933080Y-39624993D02*
X126933080Y-41063171D01*
X133791080Y-42206171D02*
X133791080Y-40047171D01*
X130743080Y-41952171D02*
X127822080Y-41952171D01*
X127526902Y-39031171D02*
X126933080Y-39624993D01*
X133791080Y-40047171D02*
X132775080Y-39031171D01*
D22*
G04 #@! TO.N,GND*
X136621080Y-73089171D02*
X136099080Y-73089171D01*
X137121080Y-73089171D02*
X136621080Y-73089171D01*
X137121080Y-69489171D02*
X136621080Y-69489171D01*
X136621080Y-69489171D02*
X135972080Y-69489171D01*
X136099080Y-73089171D02*
X136077080Y-73067171D01*
X135972080Y-69489171D02*
X135950080Y-69511171D01*
G04 #@! TO.N,VCC*
X126171080Y-50715171D02*
X126806080Y-51350171D01*
X124520080Y-50715171D02*
X126171080Y-50715171D01*
D23*
G04 #@! TO.N,/~PGOOD*
X128457082Y-55160171D02*
X132775080Y-55160171D01*
X132775080Y-55160171D02*
X133156080Y-54779171D01*
X128457080Y-55160169D02*
X128457082Y-55160171D01*
X125532001Y-53890171D02*
X128457080Y-53890171D01*
X125340034Y-53698204D02*
X125532001Y-53890171D01*
G04 #@! TO.N,/~CHG*
X133410080Y-51350171D02*
X132648080Y-52112171D01*
X133483115Y-51350171D02*
X133410080Y-51350171D01*
X132648080Y-52112171D02*
X125155080Y-52112171D01*
X133483567Y-51349719D02*
X133483115Y-51350171D01*
X125155080Y-52112171D02*
X124543393Y-52723858D01*
X124543393Y-52723858D02*
X124543393Y-54266069D01*
G04 #@! TO.N,Net-(J1-PadA5)*
X128330080Y-67733171D02*
X128889218Y-67174033D01*
X128889218Y-67174033D02*
X128889218Y-66357777D01*
G04 #@! TO.N,/EXT1*
X137621080Y-73089171D02*
X137621080Y-69489171D01*
X137621080Y-69489171D02*
X137621080Y-63215669D01*
X137621080Y-63215669D02*
X138109080Y-62727669D01*
D22*
G04 #@! TO.N,Net-(J2-Pad1)*
X123759080Y-55034171D02*
X123759080Y-54421171D01*
X124393080Y-55668171D02*
X123759080Y-55034171D01*
D23*
G04 #@! TO.N,/piezo_p*
X151190080Y-55033171D02*
X151952080Y-55795171D01*
X150682080Y-55033171D02*
X151190080Y-55033171D01*
G04 #@! TO.N,/piezo_l*
X151952080Y-53255171D02*
X151063080Y-53255171D01*
X151063080Y-53255171D02*
X150428080Y-52620171D01*
G04 #@! TO.N,Net-(R6-Pad2)*
X128542902Y-57446171D02*
X128076080Y-57446171D01*
X129056580Y-57959849D02*
X128542902Y-57446171D01*
X128586769Y-62142482D02*
X128586769Y-58926304D01*
X127314080Y-63415171D02*
X128586769Y-62142482D01*
X129056580Y-58456493D02*
X129056580Y-57959849D01*
X128586769Y-58926304D02*
X129056580Y-58456493D01*
X127314080Y-70273171D02*
X127314080Y-63415171D01*
G04 #@! TO.N,Net-(D4-Pad2)*
X125409080Y-40301171D02*
X125282080Y-40428171D01*
X123631080Y-47032171D02*
X126679080Y-50080171D01*
X126679080Y-39031171D02*
X125409080Y-40301171D01*
X134934080Y-50080171D02*
X137347080Y-52493171D01*
X139252080Y-55414171D02*
X139252080Y-57954171D01*
X137347080Y-52493171D02*
X137728080Y-52493171D01*
X126679080Y-50080171D02*
X134934080Y-50080171D01*
X125282080Y-40428171D02*
X124647080Y-40428171D01*
X139252080Y-62526171D02*
X139252080Y-67056671D01*
G04 #@! TO.N,/status*
X124230580Y-46783849D02*
X123631080Y-46184349D01*
X124555580Y-41027671D02*
X125653086Y-41027671D01*
X125653086Y-41027671D02*
X126042529Y-40638228D01*
X123631080Y-46184349D02*
X123631080Y-41952171D01*
X129257559Y-49680670D02*
X126360738Y-46783849D01*
X126360738Y-46783849D02*
X124230580Y-46783849D01*
X123631080Y-41952171D02*
X124555580Y-41027671D01*
X135423579Y-49680670D02*
X129257559Y-49680670D01*
X135823080Y-50080171D02*
X135423579Y-49680670D01*
G04 #@! TO.N,/EXT2*
X138121080Y-65562171D02*
X138363080Y-65320171D01*
X138121080Y-73089171D02*
X138121080Y-69489171D01*
X138121080Y-69489171D02*
X138121080Y-65562171D01*
G04 #@! TO.N,/EXT3*
X138621080Y-67959671D02*
X138720580Y-67860171D01*
X138621080Y-69489171D02*
X138621080Y-67959671D01*
X138621080Y-69489171D02*
X138621080Y-73089171D01*
G04 #@! TO.N,/EXT4*
X139121080Y-68309211D02*
X140205120Y-67225171D01*
X139121080Y-69489171D02*
X139121080Y-68309211D01*
X141538080Y-67225171D02*
X142681080Y-66082171D01*
X141284080Y-67225171D02*
X141538080Y-67225171D01*
X142681080Y-66082171D02*
X142681080Y-65574171D01*
X140205120Y-67225171D02*
X141284080Y-67225171D01*
X139121080Y-73089171D02*
X139121080Y-69489171D01*
G04 #@! TO.N,/EXT5*
X139621080Y-68439171D02*
X140435579Y-67624672D01*
X141900579Y-67624672D02*
X143951080Y-65574171D01*
X139621080Y-69489171D02*
X139621080Y-68439171D01*
X140435579Y-67624672D02*
X141900579Y-67624672D01*
X139621080Y-69489171D02*
X139621080Y-73089171D01*
G04 #@! TO.N,/charge_disable*
X132485582Y-54560669D02*
X127667578Y-54560669D01*
X127667578Y-54560669D02*
X127632080Y-54525171D01*
X133283080Y-53763171D02*
X132485582Y-54560669D01*
G04 #@! TO.N,/csense*
X140121080Y-73089171D02*
X140121080Y-69489171D01*
X140739080Y-64331171D02*
X143978080Y-64331171D01*
X142771078Y-68024173D02*
X142976580Y-67818671D01*
X140601058Y-68024173D02*
X142771078Y-68024173D01*
X143978080Y-64331171D02*
X145221080Y-65574171D01*
X140121080Y-68504151D02*
X140601058Y-68024173D01*
X140121080Y-69489171D02*
X140121080Y-68504151D01*
X142976580Y-67818671D02*
X145221080Y-65574171D01*
G04 #@! TD*
G04 #@! TA.AperFunction,Conductor*
G04 #@! TO.N,GND*
G36*
X154360311Y-67029173D02*
G01*
X154406804Y-67082829D01*
X154418190Y-67135159D01*
X154418287Y-68140889D01*
X154398292Y-68209012D01*
X154344640Y-68255510D01*
X154274367Y-68265620D01*
X154209784Y-68236133D01*
X154179463Y-68191555D01*
X154178243Y-68192201D01*
X154173836Y-68183878D01*
X154170714Y-68174988D01*
X154090230Y-68066021D01*
X153981263Y-67985537D01*
X153972376Y-67982416D01*
X153972374Y-67982415D01*
X153860695Y-67943197D01*
X153853448Y-67940652D01*
X153845802Y-67939929D01*
X153845801Y-67939929D01*
X153839831Y-67939365D01*
X153821913Y-67937671D01*
X152968513Y-67937671D01*
X152114248Y-67937672D01*
X152111298Y-67937951D01*
X152111293Y-67937951D01*
X152100674Y-67938955D01*
X152082712Y-67940652D01*
X152075471Y-67943195D01*
X152075470Y-67943195D01*
X151963786Y-67982415D01*
X151963784Y-67982416D01*
X151954897Y-67985537D01*
X151845930Y-68066021D01*
X151765446Y-68174988D01*
X151762325Y-68183875D01*
X151762324Y-68183877D01*
X151737169Y-68255510D01*
X151720561Y-68302803D01*
X151717580Y-68334338D01*
X151717581Y-70942003D01*
X151720561Y-70973539D01*
X151723104Y-70980780D01*
X151723104Y-70980781D01*
X151743649Y-71039284D01*
X151765446Y-71101354D01*
X151845930Y-71210321D01*
X151954897Y-71290805D01*
X151963784Y-71293926D01*
X151963786Y-71293927D01*
X152062080Y-71328445D01*
X152082712Y-71335690D01*
X152090358Y-71336413D01*
X152090359Y-71336413D01*
X152096329Y-71336977D01*
X152114247Y-71338671D01*
X152967647Y-71338671D01*
X153821912Y-71338670D01*
X153824862Y-71338391D01*
X153824867Y-71338391D01*
X153835486Y-71337387D01*
X153853448Y-71335690D01*
X153860689Y-71333147D01*
X153860690Y-71333147D01*
X153972374Y-71293927D01*
X153972376Y-71293926D01*
X153981263Y-71290805D01*
X154090230Y-71210321D01*
X154170714Y-71101354D01*
X154173836Y-71092464D01*
X154178243Y-71084141D01*
X154180575Y-71085376D01*
X154213713Y-71039284D01*
X154279743Y-71013197D01*
X154349395Y-71026950D01*
X154400554Y-71076176D01*
X154417030Y-71142353D01*
X154413523Y-71155793D01*
X154416247Y-71169715D01*
X154415807Y-71183897D01*
X154415358Y-71183883D01*
X154415809Y-71191846D01*
X154412499Y-71233048D01*
X154393091Y-71474607D01*
X154391416Y-71487317D01*
X154334789Y-71795073D01*
X154331830Y-71807548D01*
X154244224Y-72107945D01*
X154240013Y-72120055D01*
X154122332Y-72410001D01*
X154116912Y-72421620D01*
X153970379Y-72698100D01*
X153963807Y-72709108D01*
X153789932Y-72969273D01*
X153782275Y-72979555D01*
X153582864Y-73220703D01*
X153574208Y-73230148D01*
X153461634Y-73341080D01*
X153351320Y-73449784D01*
X153341743Y-73458306D01*
X153097689Y-73654158D01*
X153087294Y-73661663D01*
X152824612Y-73831693D01*
X152813515Y-73838100D01*
X152783678Y-73853357D01*
X152726316Y-73867171D01*
X151194582Y-73867171D01*
X151126461Y-73847169D01*
X151079968Y-73793513D01*
X151069864Y-73723239D01*
X151099358Y-73658659D01*
X151105487Y-73652076D01*
X151173949Y-73583614D01*
X151183256Y-73571745D01*
X151264159Y-73438159D01*
X151270365Y-73424414D01*
X151317336Y-73274527D01*
X151319949Y-73261477D01*
X151325814Y-73197650D01*
X151326080Y-73191862D01*
X151326080Y-72810286D01*
X151321605Y-72795047D01*
X151320215Y-72793842D01*
X151312532Y-72792171D01*
X150290080Y-72792171D01*
X150221959Y-72772169D01*
X150175466Y-72718513D01*
X150164080Y-72666171D01*
X150164080Y-72266056D01*
X150672080Y-72266056D01*
X150676555Y-72281295D01*
X150677945Y-72282500D01*
X150685628Y-72284171D01*
X151307964Y-72284171D01*
X151323203Y-72279696D01*
X151324408Y-72278306D01*
X151326079Y-72270623D01*
X151326079Y-71884466D01*
X151325816Y-71878717D01*
X151319948Y-71814856D01*
X151317337Y-71801820D01*
X151270365Y-71651928D01*
X151264159Y-71638183D01*
X151183256Y-71504597D01*
X151173949Y-71492728D01*
X151063523Y-71382302D01*
X151051654Y-71372995D01*
X150918068Y-71292092D01*
X150904323Y-71285886D01*
X150754436Y-71238915D01*
X150741386Y-71236302D01*
X150686494Y-71231258D01*
X150674956Y-71234646D01*
X150673751Y-71236036D01*
X150672080Y-71243719D01*
X150672080Y-72266056D01*
X150164080Y-72266056D01*
X150164080Y-71248287D01*
X150159605Y-71233048D01*
X150158215Y-71231843D01*
X150153786Y-71230880D01*
X150094765Y-71236303D01*
X150081729Y-71238914D01*
X150057259Y-71246582D01*
X149986274Y-71247866D01*
X149925863Y-71210569D01*
X149895207Y-71146532D01*
X149893580Y-71126348D01*
X149893580Y-67135171D01*
X149913582Y-67067050D01*
X149967238Y-67020557D01*
X150019580Y-67009171D01*
X154292190Y-67009171D01*
X154360311Y-67029173D01*
G37*
G04 #@! TD.AperFunction*
G04 #@! TD*
M02*
