G04 #@! TF.GenerationSoftware,KiCad,Pcbnew,6.0.5-a6ca702e91~116~ubuntu20.04.1*
G04 #@! TF.CreationDate,2022-06-15T15:16:03+00:00*
G04 #@! TF.ProjectId,PlantBuddy,506c616e-7442-4756-9464-792e6b696361,rev?*
G04 #@! TF.SameCoordinates,Original*
G04 #@! TF.FileFunction,Copper,L1,Top*
G04 #@! TF.FilePolarity,Positive*
%FSLAX46Y46*%
G04 Gerber Fmt 4.6, Leading zero omitted, Abs format (unit mm)*
G04 Created by KiCad (PCBNEW 6.0.5-a6ca702e91~116~ubuntu20.04.1) date 2022-06-15 15:16:03*
%MOMM*%
%LPD*%
G01*
G04 APERTURE LIST*
G04 Aperture macros list*
%AMRoundRect*
0 Rectangle with rounded corners*
0 $1 Rounding radius*
0 $2 $3 $4 $5 $6 $7 $8 $9 X,Y pos of 4 corners*
0 Add a 4 corners polygon primitive as box body*
4,1,4,$2,$3,$4,$5,$6,$7,$8,$9,$2,$3,0*
0 Add four circle primitives for the rounded corners*
1,1,$1+$1,$2,$3*
1,1,$1+$1,$4,$5*
1,1,$1+$1,$6,$7*
1,1,$1+$1,$8,$9*
0 Add four rect primitives between the rounded corners*
20,1,$1+$1,$2,$3,$4,$5,0*
20,1,$1+$1,$4,$5,$6,$7,0*
20,1,$1+$1,$6,$7,$8,$9,0*
20,1,$1+$1,$8,$9,$2,$3,0*%
%AMRotRect*
0 Rectangle, with rotation*
0 The origin of the aperture is its center*
0 $1 length*
0 $2 width*
0 $3 Rotation angle, in degrees counterclockwise*
0 Add horizontal line*
21,1,$1,$2,0,0,$3*%
%AMFreePoly0*
4,1,15,-0.124998,0.730000,0.725000,0.730000,0.728536,0.728536,0.730000,0.725000,0.730000,-0.725000,0.728536,-0.728536,0.725000,-0.730000,-0.725000,-0.730000,-0.728536,-0.728536,-0.730000,-0.725000,-0.730001,0.125000,-0.728536,0.128536,-0.128536,0.728536,-0.125000,0.730001,-0.124998,0.730000,-0.124998,0.730000,$1*%
%AMFreePoly1*
4,1,113,0.499682,0.503916,0.501146,0.500380,0.501146,-47.971286,0.499682,-47.974822,0.496146,-47.976286,-0.502921,-47.976286,-0.506457,-47.974822,-0.507921,-47.971286,-0.507921,-45.774953,-7.098454,-45.774953,-7.101990,-45.773489,-7.103454,-45.769953,-7.103454,-43.763353,-7.101990,-43.759817,-7.098454,-43.758353,-0.507871,-43.758353,-0.512145,-41.368050,-7.098457,-41.363798,-7.101992,-41.362332,-7.103454,-41.358798,
-7.103454,-39.360686,-7.101990,-39.357150,-7.098454,-39.355686,-0.507921,-39.355686,-0.507921,-36.961153,-7.098523,-36.961153,-7.098528,-36.961151,-7.098534,-36.961153,-7.100275,-36.960428,-7.102059,-36.959689,-7.102061,-36.959683,-7.102067,-36.959681,-7.102806,-36.957886,-7.103523,-36.956153,-7.103521,-36.956148,-7.103523,-36.956142,-7.099220,-34.953776,-7.098541,-34.952147,-7.097758,-34.950252,-7.097750,-34.950249,
-7.097748,-34.950243,-7.096019,-34.949531,-7.094223,-34.948786,-0.507921,-34.944534,-0.507921,-32.558486,-7.098454,-32.558486,-7.101990,-32.557022,-7.103454,-32.553486,-7.103454,-30.546886,-7.101990,-30.543350,-7.098454,-30.541886,-0.507921,-30.541886,-0.507921,-28.147353,-7.098454,-28.147353,-7.101990,-28.145889,-7.103454,-28.142353,-7.103454,-26.144241,-7.101990,-26.140705,-7.098457,-26.139241,-0.512145,-26.134989,
-0.507871,-23.744686,-7.098454,-23.744686,-7.101990,-23.743222,-7.103454,-23.739686,-7.103454,-21.733086,-7.101990,-21.729550,-7.098454,-21.728086,-0.507921,-21.728086,-0.507921,-19.333553,-7.098454,-19.333553,-7.101990,-19.332089,-7.103454,-19.328553,-7.103454,-17.330420,-7.101990,-17.326884,-7.098454,-17.325420,-0.507921,-17.325420,-0.507921,-14.930886,-7.098454,-14.930886,-7.101990,-14.929422,-7.103454,-14.925886,
-7.103454,-12.919286,-7.101990,-12.915750,-7.098454,-12.914286,-0.507921,-12.914286,-0.507921,-10.519753,-7.098454,-10.519753,-7.101990,-10.518289,-7.103454,-10.514753,-7.103454,-8.516620,-7.101990,-8.513084,-7.098454,-8.511620,-0.507921,-8.511620,-0.507921,-6.117086,-7.098454,-6.117086,-7.101990,-6.115622,-7.103454,-6.112086,-7.103454,-4.105486,-7.101990,-4.101950,-7.098454,-4.100486,-0.507921,-4.100486,
-0.507921,-1.705953,-7.098454,-1.705953,-7.101990,-1.704489,-7.103454,-1.700953,-7.103454,0.297180,-7.101990,0.300716,-7.098454,0.302180,-0.507921,0.302180,-0.507921,0.500380,-0.506457,0.503916,-0.502921,0.505380,0.496146,0.505380,0.499682,0.503916,0.499682,0.503916,$1*%
%AMFreePoly2*
4,1,113,0.498682,0.503916,0.500146,0.500380,0.500146,-1.899153,7.090679,-1.899153,7.094215,-1.900617,7.095679,-1.904153,7.095679,-3.910753,7.094215,-3.914289,7.090679,-3.915753,0.500097,-3.915753,0.504370,-6.306056,7.090684,-6.310308,7.094219,-6.311774,7.095148,-6.314024,7.095680,-6.315308,7.095679,-8.313420,7.094215,-8.316956,7.090679,-8.318420,0.500146,-8.318420,0.500146,-10.712953,
7.090749,-10.712953,7.090754,-10.712955,7.090760,-10.712953,7.092501,-10.713678,7.094285,-10.714417,7.094287,-10.714423,7.094293,-10.714425,7.095032,-10.716220,7.095749,-10.717953,7.095747,-10.717958,7.095749,-10.717964,7.091446,-12.720330,7.090773,-12.721945,7.089985,-12.723853,7.089977,-12.723856,7.089974,-12.723863,7.088323,-12.724542,7.086450,-12.725319,0.500146,-12.729571,0.500146,-15.115619,
7.090679,-15.115619,7.094215,-15.117083,7.095679,-15.120619,7.095679,-17.127220,7.094215,-17.130756,7.090679,-17.132220,0.500146,-17.132220,0.500146,-19.526753,7.090679,-19.526753,7.094215,-19.528217,7.095679,-19.531753,7.095680,-21.529865,7.095148,-21.531149,7.094219,-21.533399,7.094216,-21.533401,7.093109,-21.533859,7.090684,-21.534865,0.504370,-21.539117,0.500097,-23.929420,7.090679,-23.929420,
7.094215,-23.930884,7.095679,-23.934420,7.095679,-25.941019,7.094215,-25.944555,7.090679,-25.946019,0.500146,-25.946019,0.500146,-28.340553,7.090679,-28.340553,7.094215,-28.342017,7.095679,-28.345553,7.095679,-30.343686,7.094215,-30.347222,7.090679,-30.348686,0.500146,-30.348686,0.500146,-32.743219,7.090679,-32.743219,7.094215,-32.744683,7.095679,-32.748219,7.095679,-34.754820,7.094215,-34.758356,
7.090679,-34.759820,0.500146,-34.759820,0.500146,-37.154353,7.090679,-37.154353,7.094215,-37.155817,7.095679,-37.159353,7.095679,-39.157486,7.094215,-39.161022,7.090679,-39.162486,0.500146,-39.162486,0.500146,-41.557020,7.090679,-41.557020,7.094215,-41.558484,7.095679,-41.562020,7.095679,-43.568620,7.094215,-43.572156,7.090679,-43.573620,0.500146,-43.573620,0.500146,-45.968153,7.090679,-45.968153,
7.094215,-45.969617,7.095679,-45.973153,7.095679,-47.971286,7.094215,-47.974822,7.090679,-47.976286,-0.503920,-47.976286,-0.507456,-47.974822,-0.508920,-47.971286,-0.508920,0.500380,-0.507456,0.503916,-0.503920,0.505380,0.495146,0.505380,0.498682,0.503916,0.498682,0.503916,$1*%
G04 Aperture macros list end*
G04 #@! TA.AperFunction,SMDPad,CuDef*
%ADD10RoundRect,0.200000X-0.200000X-0.275000X0.200000X-0.275000X0.200000X0.275000X-0.200000X0.275000X0*%
G04 #@! TD*
G04 #@! TA.AperFunction,SMDPad,CuDef*
%ADD11RoundRect,0.225000X0.250000X-0.225000X0.250000X0.225000X-0.250000X0.225000X-0.250000X-0.225000X0*%
G04 #@! TD*
G04 #@! TA.AperFunction,SMDPad,CuDef*
%ADD12RoundRect,0.200000X0.200000X0.275000X-0.200000X0.275000X-0.200000X-0.275000X0.200000X-0.275000X0*%
G04 #@! TD*
G04 #@! TA.AperFunction,SMDPad,CuDef*
%ADD13RoundRect,0.200000X-0.275000X0.200000X-0.275000X-0.200000X0.275000X-0.200000X0.275000X0.200000X0*%
G04 #@! TD*
G04 #@! TA.AperFunction,SMDPad,CuDef*
%ADD14RoundRect,0.062500X-0.375000X-0.062500X0.375000X-0.062500X0.375000X0.062500X-0.375000X0.062500X0*%
G04 #@! TD*
G04 #@! TA.AperFunction,SMDPad,CuDef*
%ADD15RoundRect,0.062500X-0.062500X-0.375000X0.062500X-0.375000X0.062500X0.375000X-0.062500X0.375000X0*%
G04 #@! TD*
G04 #@! TA.AperFunction,SMDPad,CuDef*
%ADD16R,1.600000X1.600000*%
G04 #@! TD*
G04 #@! TA.AperFunction,SMDPad,CuDef*
%ADD17RoundRect,0.150000X0.512500X0.150000X-0.512500X0.150000X-0.512500X-0.150000X0.512500X-0.150000X0*%
G04 #@! TD*
G04 #@! TA.AperFunction,SMDPad,CuDef*
%ADD18R,1.450000X0.600000*%
G04 #@! TD*
G04 #@! TA.AperFunction,SMDPad,CuDef*
%ADD19R,1.450000X0.300000*%
G04 #@! TD*
G04 #@! TA.AperFunction,ComponentPad*
%ADD20O,2.100000X1.000000*%
G04 #@! TD*
G04 #@! TA.AperFunction,ComponentPad*
%ADD21O,1.600000X1.000000*%
G04 #@! TD*
G04 #@! TA.AperFunction,SMDPad,CuDef*
%ADD22R,1.000000X1.450000*%
G04 #@! TD*
G04 #@! TA.AperFunction,SMDPad,CuDef*
%ADD23RoundRect,0.218750X-0.218750X-0.256250X0.218750X-0.256250X0.218750X0.256250X-0.218750X0.256250X0*%
G04 #@! TD*
G04 #@! TA.AperFunction,SMDPad,CuDef*
%ADD24R,0.800000X0.400000*%
G04 #@! TD*
G04 #@! TA.AperFunction,SMDPad,CuDef*
%ADD25R,0.400000X0.800000*%
G04 #@! TD*
G04 #@! TA.AperFunction,SMDPad,CuDef*
%ADD26FreePoly0,0.000000*%
G04 #@! TD*
G04 #@! TA.AperFunction,SMDPad,CuDef*
%ADD27R,1.450000X1.450000*%
G04 #@! TD*
G04 #@! TA.AperFunction,SMDPad,CuDef*
%ADD28R,0.700000X0.700000*%
G04 #@! TD*
G04 #@! TA.AperFunction,SMDPad,CuDef*
%ADD29RoundRect,0.225000X-0.250000X0.225000X-0.250000X-0.225000X0.250000X-0.225000X0.250000X0.225000X0*%
G04 #@! TD*
G04 #@! TA.AperFunction,SMDPad,CuDef*
%ADD30RotRect,1.500000X1.500000X315.000000*%
G04 #@! TD*
G04 #@! TA.AperFunction,SMDPad,CuDef*
%ADD31RoundRect,0.150000X-0.825000X-0.150000X0.825000X-0.150000X0.825000X0.150000X-0.825000X0.150000X0*%
G04 #@! TD*
G04 #@! TA.AperFunction,SMDPad,CuDef*
%ADD32RoundRect,0.200000X0.275000X-0.200000X0.275000X0.200000X-0.275000X0.200000X-0.275000X-0.200000X0*%
G04 #@! TD*
G04 #@! TA.AperFunction,SMDPad,CuDef*
%ADD33RoundRect,0.075000X-0.250000X-0.075000X0.250000X-0.075000X0.250000X0.075000X-0.250000X0.075000X0*%
G04 #@! TD*
G04 #@! TA.AperFunction,SMDPad,CuDef*
%ADD34RoundRect,0.225000X0.225000X0.250000X-0.225000X0.250000X-0.225000X-0.250000X0.225000X-0.250000X0*%
G04 #@! TD*
G04 #@! TA.AperFunction,ComponentPad*
%ADD35FreePoly1,0.000000*%
G04 #@! TD*
G04 #@! TA.AperFunction,ComponentPad*
%ADD36FreePoly2,0.000000*%
G04 #@! TD*
G04 #@! TA.AperFunction,SMDPad,CuDef*
%ADD37RoundRect,0.225000X-0.333057X-0.046884X0.011663X-0.336138X0.333057X0.046884X-0.011663X0.336138X0*%
G04 #@! TD*
G04 #@! TA.AperFunction,SMDPad,CuDef*
%ADD38RoundRect,0.150000X-0.587500X-0.150000X0.587500X-0.150000X0.587500X0.150000X-0.587500X0.150000X0*%
G04 #@! TD*
G04 #@! TA.AperFunction,SMDPad,CuDef*
%ADD39RoundRect,0.014000X-0.380031X0.108713X0.173053X-0.355379X0.380031X-0.108713X-0.173053X0.355379X0*%
G04 #@! TD*
G04 #@! TA.AperFunction,SMDPad,CuDef*
%ADD40RotRect,0.700000X1.600000X320.000000*%
G04 #@! TD*
G04 #@! TA.AperFunction,SMDPad,CuDef*
%ADD41RoundRect,0.150000X0.587500X0.150000X-0.587500X0.150000X-0.587500X-0.150000X0.587500X-0.150000X0*%
G04 #@! TD*
G04 #@! TA.AperFunction,ViaPad*
%ADD42C,0.600000*%
G04 #@! TD*
G04 #@! TA.AperFunction,Conductor*
%ADD43C,0.200000*%
G04 #@! TD*
G04 #@! TA.AperFunction,Conductor*
%ADD44C,0.300000*%
G04 #@! TD*
G04 #@! TA.AperFunction,Conductor*
%ADD45C,0.500000*%
G04 #@! TD*
G04 #@! TA.AperFunction,Conductor*
%ADD46C,0.250000*%
G04 #@! TD*
G04 APERTURE END LIST*
D10*
G04 #@! TO.P,R6,1*
G04 #@! TO.N,GND*
X87119080Y-55160171D03*
G04 #@! TO.P,R6,2*
G04 #@! TO.N,Net-(R6-Pad2)*
X88769080Y-55160171D03*
G04 #@! TD*
D11*
G04 #@! TO.P,C9,1*
G04 #@! TO.N,+3V3*
X77403080Y-40949171D03*
G04 #@! TO.P,C9,2*
G04 #@! TO.N,GND*
X77403080Y-39399171D03*
G04 #@! TD*
G04 #@! TO.P,C11,1*
G04 #@! TO.N,+3V3*
X85277080Y-62171171D03*
G04 #@! TO.P,C11,2*
G04 #@! TO.N,GND*
X85277080Y-60621171D03*
G04 #@! TD*
G04 #@! TO.P,C8,1*
G04 #@! TO.N,+3V3*
X79181080Y-40949171D03*
G04 #@! TO.P,C8,2*
G04 #@! TO.N,GND*
X79181080Y-39399171D03*
G04 #@! TD*
D12*
G04 #@! TO.P,R10,1*
G04 #@! TO.N,Net-(R10-Pad1)*
X88769080Y-56811171D03*
G04 #@! TO.P,R10,2*
G04 #@! TO.N,GND*
X87119080Y-56811171D03*
G04 #@! TD*
D13*
G04 #@! TO.P,R13,1*
G04 #@! TO.N,/batsense*
X75117080Y-50525171D03*
G04 #@! TO.P,R13,2*
G04 #@! TO.N,+BATT*
X75117080Y-52175171D03*
G04 #@! TD*
D14*
G04 #@! TO.P,U4,1,TS*
G04 #@! TO.N,Net-(R10-Pad1)*
X91078580Y-55934171D03*
G04 #@! TO.P,U4,2,BAT*
G04 #@! TO.N,+BATT*
X91078580Y-56434171D03*
G04 #@! TO.P,U4,3,BAT*
X91078580Y-56934171D03*
G04 #@! TO.P,U4,4,~{CE}*
G04 #@! TO.N,GND*
X91078580Y-57434171D03*
D15*
G04 #@! TO.P,U4,5,EN2*
X91766080Y-58121671D03*
G04 #@! TO.P,U4,6,EN1*
G04 #@! TO.N,VCC*
X92266080Y-58121671D03*
G04 #@! TO.P,U4,7,~{PGOOD}*
G04 #@! TO.N,/~PGOOD*
X92766080Y-58121671D03*
G04 #@! TO.P,U4,8,VSS*
G04 #@! TO.N,GND*
X93266080Y-58121671D03*
D14*
G04 #@! TO.P,U4,9,~{CHG}*
G04 #@! TO.N,/~CHG*
X93953580Y-57434171D03*
G04 #@! TO.P,U4,10,OUT*
G04 #@! TO.N,Net-(J2-Pad1)*
X93953580Y-56934171D03*
G04 #@! TO.P,U4,11,OUT*
X93953580Y-56434171D03*
G04 #@! TO.P,U4,12,ILIM*
G04 #@! TO.N,Net-(R5-Pad2)*
X93953580Y-55934171D03*
D15*
G04 #@! TO.P,U4,13,IN*
G04 #@! TO.N,VBUS*
X93266080Y-55246671D03*
G04 #@! TO.P,U4,14,TMR*
G04 #@! TO.N,unconnected-(U4-Pad14)*
X92766080Y-55246671D03*
G04 #@! TO.P,U4,15,TD*
G04 #@! TO.N,GND*
X92266080Y-55246671D03*
G04 #@! TO.P,U4,16,ISET*
G04 #@! TO.N,Net-(R6-Pad2)*
X91766080Y-55246671D03*
D16*
G04 #@! TO.P,U4,17,VSS*
G04 #@! TO.N,GND*
X92516080Y-56684171D03*
G04 #@! TD*
D17*
G04 #@! TO.P,U6,1,VIN*
G04 #@! TO.N,VCC*
X89406580Y-62396171D03*
G04 #@! TO.P,U6,2,GND*
G04 #@! TO.N,GND*
X89406580Y-61446171D03*
G04 #@! TO.P,U6,3,EN*
G04 #@! TO.N,VCC*
X89406580Y-60496171D03*
G04 #@! TO.P,U6,4*
G04 #@! TO.N,N/C*
X87131580Y-60496171D03*
G04 #@! TO.P,U6,5,VOUT*
G04 #@! TO.N,+3V3*
X87131580Y-62396171D03*
G04 #@! TD*
D18*
G04 #@! TO.P,J1,A1,GND*
G04 #@! TO.N,GND*
X98885080Y-53711171D03*
G04 #@! TO.P,J1,A4,VBUS*
G04 #@! TO.N,VBUS*
X98885080Y-52911171D03*
D19*
G04 #@! TO.P,J1,A5,CC1*
G04 #@! TO.N,Net-(J1-PadA5)*
X98885080Y-51711171D03*
G04 #@! TO.P,J1,A6,D+*
G04 #@! TO.N,/D+*
X98885080Y-50711171D03*
G04 #@! TO.P,J1,A7,D-*
G04 #@! TO.N,/D-*
X98885080Y-50211171D03*
G04 #@! TO.P,J1,A8,SBU1*
G04 #@! TO.N,unconnected-(J1-PadA8)*
X98885080Y-49211171D03*
D18*
G04 #@! TO.P,J1,A9,VBUS*
G04 #@! TO.N,VBUS*
X98885080Y-48011171D03*
G04 #@! TO.P,J1,A12,GND*
G04 #@! TO.N,GND*
X98885080Y-47211171D03*
G04 #@! TO.P,J1,B1,GND*
X98885080Y-47211171D03*
G04 #@! TO.P,J1,B4,VBUS*
G04 #@! TO.N,VBUS*
X98885080Y-48011171D03*
D19*
G04 #@! TO.P,J1,B5,CC2*
G04 #@! TO.N,Net-(J1-PadB5)*
X98885080Y-48711171D03*
G04 #@! TO.P,J1,B6,D+*
G04 #@! TO.N,/D+*
X98885080Y-49711171D03*
G04 #@! TO.P,J1,B7,D-*
G04 #@! TO.N,/D-*
X98885080Y-51211171D03*
G04 #@! TO.P,J1,B8,SBU2*
G04 #@! TO.N,unconnected-(J1-PadB8)*
X98885080Y-52211171D03*
D18*
G04 #@! TO.P,J1,B9,VBUS*
G04 #@! TO.N,VBUS*
X98885080Y-52911171D03*
G04 #@! TO.P,J1,B12,GND*
G04 #@! TO.N,GND*
X98885080Y-53711171D03*
D20*
G04 #@! TO.P,J1,S1,SHIELD*
X99800080Y-54781171D03*
X99800080Y-46141171D03*
D21*
X103980080Y-54781171D03*
X103980080Y-46141171D03*
G04 #@! TD*
D22*
G04 #@! TO.P,SW1,1,1*
G04 #@! TO.N,/btn*
X70965080Y-47886171D03*
X70965080Y-53036171D03*
G04 #@! TO.P,SW1,2,2*
G04 #@! TO.N,GND*
X72665080Y-53036171D03*
X72665080Y-47886171D03*
G04 #@! TD*
D13*
G04 #@! TO.P,R3,1*
G04 #@! TO.N,/SCL*
X92262080Y-51541171D03*
G04 #@! TO.P,R3,2*
G04 #@! TO.N,+3V3*
X92262080Y-53191171D03*
G04 #@! TD*
D12*
G04 #@! TO.P,R8,1*
G04 #@! TO.N,/~{RST}*
X80006080Y-45000171D03*
G04 #@! TO.P,R8,2*
G04 #@! TO.N,+3V3*
X78356080Y-45000171D03*
G04 #@! TD*
D23*
G04 #@! TO.P,D4,1,K*
G04 #@! TO.N,/status*
X99856580Y-40174171D03*
G04 #@! TO.P,D4,2,A*
G04 #@! TO.N,Net-(D4-Pad2)*
X101431580Y-40174171D03*
G04 #@! TD*
D13*
G04 #@! TO.P,R17,1*
G04 #@! TO.N,GND*
X79181080Y-55732171D03*
G04 #@! TO.P,R17,2*
G04 #@! TO.N,Net-(Q1-Pad1)*
X79181080Y-57382171D03*
G04 #@! TD*
G04 #@! TO.P,R12,1*
G04 #@! TO.N,Net-(R12-Pad1)*
X95183080Y-64114171D03*
G04 #@! TO.P,R12,2*
G04 #@! TO.N,/capsense*
X95183080Y-65764171D03*
G04 #@! TD*
D24*
G04 #@! TO.P,U5,1,GND*
G04 #@! TO.N,GND*
X81974080Y-39406171D03*
G04 #@! TO.P,U5,2,GND*
X81974080Y-40206171D03*
G04 #@! TO.P,U5,3,3V3*
G04 #@! TO.N,+3V3*
X81974080Y-41006171D03*
G04 #@! TO.P,U5,4,NC*
G04 #@! TO.N,unconnected-(U5-Pad4)*
X81974080Y-41806171D03*
G04 #@! TO.P,U5,5,IO2*
G04 #@! TO.N,/capsense*
X81974080Y-42606171D03*
G04 #@! TO.P,U5,6,IO3*
G04 #@! TO.N,/btn*
X81974080Y-43406171D03*
G04 #@! TO.P,U5,7,NC*
G04 #@! TO.N,unconnected-(U5-Pad7)*
X81974080Y-44206171D03*
G04 #@! TO.P,U5,8,EN*
G04 #@! TO.N,/~{RST}*
X81974080Y-45006171D03*
G04 #@! TO.P,U5,9,NC*
G04 #@! TO.N,unconnected-(U5-Pad9)*
X81974080Y-45806171D03*
G04 #@! TO.P,U5,10,NC*
G04 #@! TO.N,unconnected-(U5-Pad10)*
X81974080Y-46606171D03*
G04 #@! TO.P,U5,11,GND*
G04 #@! TO.N,GND*
X81974080Y-47406171D03*
D25*
G04 #@! TO.P,U5,12,IO0*
G04 #@! TO.N,/batsense*
X83074080Y-48306171D03*
G04 #@! TO.P,U5,13,IO1*
G04 #@! TO.N,/pulse*
X83874080Y-48306171D03*
G04 #@! TO.P,U5,14,GND*
G04 #@! TO.N,GND*
X84674080Y-48306171D03*
G04 #@! TO.P,U5,15,NC*
G04 #@! TO.N,unconnected-(U5-Pad15)*
X85474080Y-48306171D03*
G04 #@! TO.P,U5,16,IO10*
G04 #@! TO.N,/status*
X86274080Y-48306171D03*
G04 #@! TO.P,U5,17,NC*
G04 #@! TO.N,unconnected-(U5-Pad17)*
X87074080Y-48306171D03*
G04 #@! TO.P,U5,18,IO4*
G04 #@! TO.N,/SDA*
X87874080Y-48306171D03*
G04 #@! TO.P,U5,19,IO5*
G04 #@! TO.N,/LUX_INT*
X88674080Y-48306171D03*
G04 #@! TO.P,U5,20,IO6*
G04 #@! TO.N,/SCL*
X89474080Y-48306171D03*
G04 #@! TO.P,U5,21,IO7*
G04 #@! TO.N,unconnected-(U5-Pad21)*
X90274080Y-48306171D03*
G04 #@! TO.P,U5,22,IO8*
G04 #@! TO.N,/~PGOOD*
X91074080Y-48306171D03*
G04 #@! TO.P,U5,23,IO9*
G04 #@! TO.N,/~CHG*
X91874080Y-48306171D03*
G04 #@! TO.P,U5,24,NC*
G04 #@! TO.N,unconnected-(U5-Pad24)*
X92674080Y-48306171D03*
D24*
G04 #@! TO.P,U5,25,NC*
G04 #@! TO.N,unconnected-(U5-Pad25)*
X93774080Y-47406171D03*
G04 #@! TO.P,U5,26,IO18*
G04 #@! TO.N,/D-*
X93774080Y-46606171D03*
G04 #@! TO.P,U5,27,IO19*
G04 #@! TO.N,/D+*
X93774080Y-45806171D03*
G04 #@! TO.P,U5,28,NC*
G04 #@! TO.N,unconnected-(U5-Pad28)*
X93774080Y-45006171D03*
G04 #@! TO.P,U5,29,NC*
G04 #@! TO.N,unconnected-(U5-Pad29)*
X93774080Y-44206171D03*
G04 #@! TO.P,U5,30,RXD0*
G04 #@! TO.N,/piezo_p*
X93774080Y-43406171D03*
G04 #@! TO.P,U5,31,TXD0*
G04 #@! TO.N,/piezo_l*
X93774080Y-42606171D03*
G04 #@! TO.P,U5,32,NC*
G04 #@! TO.N,unconnected-(U5-Pad32)*
X93774080Y-41806171D03*
G04 #@! TO.P,U5,33,NC*
G04 #@! TO.N,unconnected-(U5-Pad33)*
X93774080Y-41006171D03*
G04 #@! TO.P,U5,34,NC*
G04 #@! TO.N,unconnected-(U5-Pad34)*
X93774080Y-40206171D03*
G04 #@! TO.P,U5,35,NC*
G04 #@! TO.N,unconnected-(U5-Pad35)*
X93774080Y-39406171D03*
D25*
G04 #@! TO.P,U5,36,GND*
G04 #@! TO.N,GND*
X92674080Y-38506171D03*
G04 #@! TO.P,U5,37,GND*
X91874080Y-38506171D03*
G04 #@! TO.P,U5,38,GND*
X91074080Y-38506171D03*
G04 #@! TO.P,U5,39,GND*
X90274080Y-38506171D03*
G04 #@! TO.P,U5,40,GND*
X89474080Y-38506171D03*
G04 #@! TO.P,U5,41,GND*
X88674080Y-38506171D03*
G04 #@! TO.P,U5,42,GND*
X87874080Y-38506171D03*
G04 #@! TO.P,U5,43,GND*
X87074080Y-38506171D03*
G04 #@! TO.P,U5,44,GND*
X86274080Y-38506171D03*
G04 #@! TO.P,U5,45,GND*
X85474080Y-38506171D03*
G04 #@! TO.P,U5,46,GND*
X84674080Y-38506171D03*
G04 #@! TO.P,U5,47,GND*
X83874080Y-38506171D03*
G04 #@! TO.P,U5,48,GND*
X83074080Y-38506171D03*
D26*
G04 #@! TO.P,U5,49_1,GND*
X85899080Y-41431171D03*
D27*
G04 #@! TO.P,U5,49_2,GND*
X87874080Y-41431171D03*
G04 #@! TO.P,U5,49_3,GND*
X89849080Y-41431171D03*
G04 #@! TO.P,U5,49_4,GND*
X89849080Y-43406171D03*
G04 #@! TO.P,U5,49_5,GND*
X89849080Y-45381171D03*
G04 #@! TO.P,U5,49_6,GND*
X87874080Y-45381171D03*
G04 #@! TO.P,U5,49_7,GND*
X85899080Y-45381171D03*
G04 #@! TO.P,U5,49_8,GND*
X85899080Y-43406171D03*
G04 #@! TO.P,U5,49_9,GND*
X87874080Y-43406171D03*
D28*
G04 #@! TO.P,U5,50,GND*
X93824080Y-38456171D03*
G04 #@! TO.P,U5,51,GND*
X93824080Y-48356171D03*
G04 #@! TO.P,U5,52,GND*
X81924080Y-48356171D03*
G04 #@! TO.P,U5,53,GND*
X81924080Y-38456171D03*
G04 #@! TD*
D29*
G04 #@! TO.P,C5,1*
G04 #@! TO.N,VBUS*
X95437080Y-53496171D03*
G04 #@! TO.P,C5,2*
G04 #@! TO.N,GND*
X95437080Y-55046171D03*
G04 #@! TD*
D30*
G04 #@! TO.P,J3,1,Pin_1*
G04 #@! TO.N,VCC*
X99120080Y-64050171D03*
G04 #@! TD*
D13*
G04 #@! TO.P,R1,1*
G04 #@! TO.N,GND*
X95945080Y-49402171D03*
G04 #@! TO.P,R1,2*
G04 #@! TO.N,Net-(J1-PadA5)*
X95945080Y-51052171D03*
G04 #@! TD*
D10*
G04 #@! TO.P,R18,1*
G04 #@! TO.N,+3V3*
X99819080Y-41825171D03*
G04 #@! TO.P,R18,2*
G04 #@! TO.N,Net-(D4-Pad2)*
X101469080Y-41825171D03*
G04 #@! TD*
D12*
G04 #@! TO.P,R9,1*
G04 #@! TO.N,Net-(R12-Pad1)*
X93468080Y-64177171D03*
G04 #@! TO.P,R9,2*
G04 #@! TO.N,Net-(Q2-Pad1)*
X91818080Y-64177171D03*
G04 #@! TD*
D31*
G04 #@! TO.P,U3,1*
G04 #@! TO.N,Net-(R12-Pad1)*
X83818080Y-64304171D03*
G04 #@! TO.P,U3,2*
G04 #@! TO.N,Net-(Q2-Pad1)*
X83818080Y-65574171D03*
G04 #@! TO.P,U3,3*
X83818080Y-66844171D03*
G04 #@! TO.P,U3,4*
G04 #@! TO.N,Net-(JP1-Pad1)*
X83818080Y-68114171D03*
G04 #@! TO.P,U3,5*
G04 #@! TO.N,N/C*
X88768080Y-68114171D03*
G04 #@! TO.P,U3,6*
G04 #@! TO.N,Net-(Q2-Pad1)*
X88768080Y-66844171D03*
G04 #@! TO.P,U3,7*
X88768080Y-65574171D03*
G04 #@! TO.P,U3,8*
G04 #@! TO.N,N/C*
X88768080Y-64304171D03*
G04 #@! TD*
D32*
G04 #@! TO.P,R11,1*
G04 #@! TO.N,VCC*
X95945080Y-58652171D03*
G04 #@! TO.P,R11,2*
G04 #@! TO.N,Net-(J2-Pad1)*
X95945080Y-57002171D03*
G04 #@! TD*
D13*
G04 #@! TO.P,R4,1*
G04 #@! TO.N,/SDA*
X84134080Y-51414171D03*
G04 #@! TO.P,R4,2*
G04 #@! TO.N,+3V3*
X84134080Y-53064171D03*
G04 #@! TD*
D30*
G04 #@! TO.P,J2,1,Pin_1*
G04 #@! TO.N,Net-(J2-Pad1)*
X101279080Y-61891171D03*
G04 #@! TD*
D33*
G04 #@! TO.P,U1,1,VDD*
G04 #@! TO.N,+3V3*
X87690080Y-52097171D03*
G04 #@! TO.P,U1,2,NC*
G04 #@! TO.N,unconnected-(U1-Pad2)*
X87690080Y-52747171D03*
G04 #@! TO.P,U1,3,GND*
G04 #@! TO.N,GND*
X87690080Y-53397171D03*
G04 #@! TO.P,U1,4,SCL*
G04 #@! TO.N,/SCL*
X89490080Y-53397171D03*
G04 #@! TO.P,U1,5,INT*
G04 #@! TO.N,/LUX_INT*
X89490080Y-52747171D03*
G04 #@! TO.P,U1,6,SDA*
G04 #@! TO.N,/SDA*
X89490080Y-52097171D03*
G04 #@! TD*
D34*
G04 #@! TO.P,C3,1*
G04 #@! TO.N,/~{RST}*
X79956080Y-46651171D03*
G04 #@! TO.P,C3,2*
G04 #@! TO.N,GND*
X78406080Y-46651171D03*
G04 #@! TD*
D12*
G04 #@! TO.P,R14,1*
G04 #@! TO.N,/batsense*
X80006080Y-48429171D03*
G04 #@! TO.P,R14,2*
G04 #@! TO.N,GND*
X78356080Y-48429171D03*
G04 #@! TD*
D13*
G04 #@! TO.P,R7,1*
G04 #@! TO.N,/btn*
X75117080Y-47350171D03*
G04 #@! TO.P,R7,2*
G04 #@! TO.N,+3V3*
X75117080Y-49000171D03*
G04 #@! TD*
D35*
G04 #@! TO.P,C4,1*
G04 #@! TO.N,/capsense*
X91952200Y-70544951D03*
D36*
G04 #@! TO.P,C4,2*
G04 #@! TO.N,GND*
X83952200Y-70544951D03*
G04 #@! TD*
D37*
G04 #@! TO.P,C2,1*
G04 #@! TO.N,+3V3*
X78013383Y-62317251D03*
G04 #@! TO.P,C2,2*
G04 #@! TO.N,GND*
X79200751Y-63313571D03*
G04 #@! TD*
D29*
G04 #@! TO.P,C1,1*
G04 #@! TO.N,+3V3*
X86177080Y-51972171D03*
G04 #@! TO.P,C1,2*
G04 #@! TO.N,GND*
X86177080Y-53522171D03*
G04 #@! TD*
D12*
G04 #@! TO.P,R5,1*
G04 #@! TO.N,GND*
X99945080Y-56938171D03*
G04 #@! TO.P,R5,2*
G04 #@! TO.N,Net-(R5-Pad2)*
X98295080Y-56938171D03*
G04 #@! TD*
D38*
G04 #@! TO.P,Q2,1,B*
G04 #@! TO.N,Net-(Q2-Pad1)*
X91197580Y-66275171D03*
G04 #@! TO.P,Q2,2,E*
G04 #@! TO.N,/capsense*
X91197580Y-68175171D03*
G04 #@! TO.P,Q2,3,C*
G04 #@! TO.N,Net-(Q2-Pad1)*
X93072580Y-67225171D03*
G04 #@! TD*
D11*
G04 #@! TO.P,C10,1*
G04 #@! TO.N,VCC*
X91500080Y-62171171D03*
G04 #@! TO.P,C10,2*
G04 #@! TO.N,GND*
X91500080Y-60621171D03*
G04 #@! TD*
D13*
G04 #@! TO.P,R2,1*
G04 #@! TO.N,GND*
X96326080Y-43921171D03*
G04 #@! TO.P,R2,2*
G04 #@! TO.N,Net-(J1-PadB5)*
X96326080Y-45571171D03*
G04 #@! TD*
D39*
G04 #@! TO.P,U2,1,VDD*
G04 #@! TO.N,+3V3*
X76797618Y-63462773D03*
G04 #@! TO.P,U2,2,SCL*
G04 #@! TO.N,/SCL*
X76154830Y-64228817D03*
G04 #@! TO.P,U2,3,SDA*
G04 #@! TO.N,/SDA*
X77640956Y-65475825D03*
G04 #@! TO.P,U2,4,VSS*
G04 #@! TO.N,GND*
X78283744Y-64709781D03*
D40*
G04 #@! TO.P,U2,5,NC*
G04 #@! TO.N,unconnected-(U2-Pad5)*
X77219287Y-64469299D03*
G04 #@! TD*
D34*
G04 #@! TO.P,C6,1*
G04 #@! TO.N,GND*
X79194080Y-54017171D03*
G04 #@! TO.P,C6,2*
G04 #@! TO.N,+BATT*
X77644080Y-54017171D03*
G04 #@! TD*
D41*
G04 #@! TO.P,Q1,1,G*
G04 #@! TO.N,Net-(Q1-Pad1)*
X77197580Y-57507171D03*
G04 #@! TO.P,Q1,2,S*
G04 #@! TO.N,+BATT*
X77197580Y-55607171D03*
G04 #@! TO.P,Q1,3,D*
G04 #@! TO.N,/vbat*
X75322580Y-56557171D03*
G04 #@! TD*
D42*
G04 #@! TO.N,+3V3*
X98612080Y-41698171D03*
X77412140Y-61812749D03*
X76133080Y-40936171D03*
X76260080Y-48556171D03*
X84409655Y-61466570D03*
X85327880Y-63110371D03*
X83702280Y-61484771D03*
X83702280Y-60671971D03*
X77149080Y-45000171D03*
X77203166Y-52180060D03*
G04 #@! TO.N,/pulse*
X77200880Y-50879913D03*
G04 #@! TO.N,/SDA*
X76260080Y-50842171D03*
X78281263Y-65918222D03*
G04 #@! TO.N,/SCL*
X78201776Y-56255383D03*
X77203166Y-53001171D03*
X76895080Y-56658771D03*
X75402576Y-63585927D03*
G04 #@! TO.N,GND*
X89849080Y-45381171D03*
X77276080Y-48429171D03*
X87874080Y-43419171D03*
X78437715Y-50468139D03*
X80832080Y-39412171D03*
X91881080Y-39539171D03*
X92262080Y-54490191D03*
X94548080Y-55033171D03*
X94035957Y-58164174D03*
X84769080Y-47286171D03*
X80324080Y-55795171D03*
X93786080Y-49191171D03*
X85899080Y-45381171D03*
X88706080Y-39539171D03*
X94929080Y-38396171D03*
X85899080Y-43362171D03*
X85404080Y-39539171D03*
X86293080Y-55922171D03*
X76133080Y-39412171D03*
X91500080Y-59605171D03*
X83880080Y-39539171D03*
X92516080Y-56684171D03*
X85277080Y-59605171D03*
X90992080Y-58081171D03*
X87874080Y-41431171D03*
X81576093Y-49001504D03*
X89849080Y-41431171D03*
X80324080Y-54271171D03*
X87874080Y-45324171D03*
X73466080Y-46524171D03*
X97469080Y-43984171D03*
X77276080Y-46651171D03*
X89849080Y-43406171D03*
X90230080Y-39539171D03*
X94929080Y-49338171D03*
X87055080Y-39539171D03*
X85899080Y-41431171D03*
X85150080Y-53636171D03*
X72704080Y-54398171D03*
X100898080Y-56684171D03*
X79888679Y-63890812D03*
G04 #@! TO.N,/~PGOOD*
X97435488Y-54950350D03*
X94421080Y-58970171D03*
G04 #@! TO.N,/~CHG*
X98110129Y-54521324D03*
X96820544Y-57916663D03*
G04 #@! TO.N,/piezo_p*
X96453080Y-40936171D03*
G04 #@! TO.N,/piezo_l*
X95564080Y-40936171D03*
G04 #@! TO.N,/vbat*
X72577080Y-51477171D03*
X72577080Y-50461171D03*
G04 #@! TO.N,/status*
X92643080Y-40809171D03*
X96580080Y-42079171D03*
G04 #@! TO.N,Net-(JP1-Pad1)*
X85785080Y-67987171D03*
G04 #@! TD*
D43*
G04 #@! TO.N,+BATT*
X75434080Y-52175171D02*
X77276080Y-54017171D01*
D44*
X91078580Y-56618271D02*
X90214980Y-56618271D01*
D45*
X77644080Y-53928571D02*
X78317480Y-53255171D01*
X77197580Y-55607171D02*
X77197580Y-54463671D01*
D43*
X77644080Y-54017171D02*
X77644080Y-53928571D01*
X77276080Y-54017171D02*
X77644080Y-54017171D01*
D44*
X90214980Y-56618271D02*
X90204680Y-56607971D01*
D45*
X77197580Y-54463671D02*
X77644080Y-54017171D01*
D44*
X91078580Y-56934171D02*
X91078580Y-56618271D01*
D43*
X75117080Y-52175171D02*
X75434080Y-52175171D01*
D44*
X91078580Y-56618271D02*
X91078580Y-56434171D01*
G04 #@! TO.N,+3V3*
X99819080Y-41825171D02*
X98739080Y-41825171D01*
X85502080Y-62396171D02*
X85277080Y-62171171D01*
X76146080Y-40949171D02*
X76133080Y-40936171D01*
D43*
X84134080Y-53064171D02*
X83113569Y-52043660D01*
D44*
X81917080Y-40949171D02*
X81974080Y-41006171D01*
X75117080Y-49000171D02*
X75816080Y-49000171D01*
X78013382Y-62317251D02*
X77412140Y-61812749D01*
X76797618Y-63462774D02*
X77738661Y-62341285D01*
X77403080Y-40949171D02*
X76146080Y-40949171D01*
D43*
X77339566Y-52043660D02*
X77203166Y-52180060D01*
D44*
X79181080Y-40949171D02*
X81917080Y-40949171D01*
D43*
X83113569Y-52043660D02*
X77339566Y-52043660D01*
D44*
X75816080Y-49000171D02*
X76260080Y-48556171D01*
X87131580Y-62396171D02*
X85502080Y-62396171D01*
X77403080Y-40949171D02*
X79181080Y-40949171D01*
X98739080Y-41825171D02*
X98612080Y-41698171D01*
X78356080Y-45000171D02*
X77149080Y-45000171D01*
D43*
G04 #@! TO.N,/pulse*
X83874080Y-48906171D02*
X81712612Y-51067639D01*
X77388606Y-51067639D02*
X77200880Y-50879913D01*
X81712612Y-51067639D02*
X77388606Y-51067639D01*
X83874080Y-48306171D02*
X83874080Y-48906171D01*
G04 #@! TO.N,/SDA*
X76998468Y-51580559D02*
X77424777Y-51580559D01*
X87874080Y-50481171D02*
X87874080Y-48306171D01*
X76260080Y-50842171D02*
X76998468Y-51580559D01*
X77424777Y-51580559D02*
X77438367Y-51594149D01*
X77743358Y-65466866D02*
X78281263Y-65918222D01*
X89490080Y-51683177D02*
X88288074Y-50481171D01*
X88288074Y-50481171D02*
X87874080Y-50481171D01*
X83954102Y-51594149D02*
X84134080Y-51414171D01*
X84134080Y-51414171D02*
X85067080Y-50481171D01*
X89490080Y-52097171D02*
X89490080Y-51683177D01*
X77438367Y-51594149D02*
X83954102Y-51594149D01*
X85067080Y-50481171D02*
X87874080Y-50481171D01*
G04 #@! TO.N,/SCL*
X90414086Y-51477171D02*
X90738080Y-51477171D01*
X90738080Y-52493171D02*
X89834080Y-53397171D01*
X93532080Y-53255171D02*
X92896560Y-53890691D01*
X89474080Y-48306171D02*
X89474080Y-50537165D01*
X77737879Y-52493171D02*
X77229879Y-53001171D01*
X92198080Y-51477171D02*
X90738080Y-51477171D01*
X77229879Y-53001171D02*
X77203166Y-53001171D01*
X92961080Y-51541171D02*
X93532080Y-52112171D01*
X77798388Y-56658771D02*
X78201776Y-56255383D01*
X76895080Y-56658771D02*
X77798388Y-56658771D01*
X92262080Y-51541171D02*
X92961080Y-51541171D01*
X90738080Y-51477171D02*
X90738080Y-52493171D01*
X93532080Y-52112171D02*
X93532080Y-53255171D01*
X89474080Y-50537165D02*
X90414086Y-51477171D01*
X76153728Y-64216219D02*
X75402576Y-63585927D01*
X82178280Y-52493171D02*
X77737879Y-52493171D01*
X89834080Y-53397171D02*
X89490080Y-53397171D01*
X92262080Y-51541171D02*
X92198080Y-51477171D01*
X92896560Y-53890691D02*
X92007560Y-53890691D01*
X92007560Y-53890691D02*
X91512600Y-54385651D01*
X91512600Y-54385651D02*
X84070760Y-54385651D01*
X84070760Y-54385651D02*
X82178280Y-52493171D01*
D44*
G04 #@! TO.N,GND*
X87874080Y-43406171D02*
X87874080Y-41431171D01*
X91766080Y-58121671D02*
X91032580Y-58121671D01*
X81924080Y-38456171D02*
X93824080Y-38456171D01*
X87874080Y-43406171D02*
X89849080Y-43406171D01*
X81974080Y-40206171D02*
X81974080Y-39406171D01*
X81924080Y-47456171D02*
X81974080Y-47406171D01*
X94561080Y-55046171D02*
X94548080Y-55033171D01*
X77403080Y-39399171D02*
X76146080Y-39399171D01*
X88674080Y-38506171D02*
X88674080Y-39507171D01*
X72665080Y-54359171D02*
X72704080Y-54398171D01*
X90274080Y-38506171D02*
X90274080Y-39495171D01*
X81974080Y-39406171D02*
X81974080Y-38506171D01*
X78406080Y-46651171D02*
X77276080Y-46651171D01*
X85474080Y-39469171D02*
X85404080Y-39539171D01*
X91500080Y-59605171D02*
X91500080Y-60621171D01*
X98885080Y-47056171D02*
X99800080Y-46141171D01*
X87957080Y-41431171D02*
X89849080Y-41431171D01*
X96326080Y-43921171D02*
X97406080Y-43921171D01*
X78356080Y-48429171D02*
X77276080Y-48429171D01*
X93266080Y-58121671D02*
X93993454Y-58121671D01*
X91500080Y-60621171D02*
X90675080Y-61446171D01*
X85899080Y-45381171D02*
X85899080Y-43406171D01*
X85277080Y-60621171D02*
X85277080Y-59605171D01*
X86177080Y-53522171D02*
X86063080Y-53636171D01*
X87056080Y-55922171D02*
X87119080Y-55859171D01*
X80838080Y-39406171D02*
X80832080Y-39412171D01*
X79181080Y-55732171D02*
X80261080Y-55732171D01*
X81924080Y-48653517D02*
X81576093Y-49001504D01*
X90274080Y-39495171D02*
X90230080Y-39539171D01*
X95945080Y-49402171D02*
X94993080Y-49402171D01*
X87874080Y-45324171D02*
X87874080Y-43419171D01*
X72665080Y-47886171D02*
X72665080Y-47325171D01*
X85474080Y-38506171D02*
X85474080Y-39469171D01*
X85899080Y-43362171D02*
X85899080Y-43406171D01*
X93824080Y-49153171D02*
X93786080Y-49191171D01*
X85899080Y-45381171D02*
X87874080Y-45381171D01*
X91078580Y-57434171D02*
X91078580Y-57994671D01*
X87874080Y-41431171D02*
X87957080Y-41431171D01*
X91078580Y-57994671D02*
X90992080Y-58081171D01*
X79194080Y-54017171D02*
X80070080Y-54017171D01*
X88674080Y-39507171D02*
X88706080Y-39539171D01*
X87874080Y-43419171D02*
X87874080Y-43406171D01*
X79181080Y-54030171D02*
X79194080Y-54017171D01*
X97406080Y-43921171D02*
X97469080Y-43984171D01*
X85899080Y-41431171D02*
X87874080Y-41431171D01*
X87119080Y-55859171D02*
X87119080Y-56811171D01*
X87074080Y-39520171D02*
X87055080Y-39539171D01*
X87874080Y-45381171D02*
X87874080Y-45324171D01*
X85899080Y-41431171D02*
X85899080Y-43362171D01*
X100644080Y-56938171D02*
X100898080Y-56684171D01*
X87074080Y-38506171D02*
X87074080Y-39520171D01*
X86302080Y-53397171D02*
X86177080Y-53522171D01*
X84674080Y-48306171D02*
X84674080Y-47381171D01*
X92266080Y-55246671D02*
X92262080Y-55242671D01*
X89849080Y-41431171D02*
X89849080Y-43406171D01*
X80070080Y-54017171D02*
X80324080Y-54271171D01*
X81974080Y-38506171D02*
X81924080Y-38456171D01*
X80261080Y-55732171D02*
X80324080Y-55795171D01*
X72665080Y-47325171D02*
X73466080Y-46524171D01*
X87874080Y-45381171D02*
X89849080Y-45381171D01*
X81924080Y-48356171D02*
X81924080Y-47456171D01*
X79200752Y-63313572D02*
X79888679Y-63890812D01*
X91766080Y-57434171D02*
X92516080Y-56684171D01*
X87690080Y-53397171D02*
X86302080Y-53397171D01*
X81974080Y-39406171D02*
X80838080Y-39406171D01*
X91874080Y-39532171D02*
X91881080Y-39539171D01*
X84674080Y-47381171D02*
X84769080Y-47286171D01*
X93824080Y-38456171D02*
X94869080Y-38456171D01*
X86293080Y-55922171D02*
X87056080Y-55922171D01*
X72665080Y-53036171D02*
X72665080Y-54359171D01*
X98885080Y-53711171D02*
X98885080Y-53866171D01*
X83874080Y-39533171D02*
X83880080Y-39539171D01*
X83874080Y-38506171D02*
X83874080Y-39533171D01*
X86063080Y-53636171D02*
X85150080Y-53636171D01*
X87119080Y-55160171D02*
X87119080Y-55859171D01*
X91766080Y-58121671D02*
X91766080Y-57434171D01*
X94993080Y-49402171D02*
X94929080Y-49338171D01*
X85899080Y-43406171D02*
X87874080Y-43406171D01*
X91874080Y-38506171D02*
X91874080Y-39532171D01*
X90675080Y-61446171D02*
X89406580Y-61446171D01*
X79181080Y-55732171D02*
X79181080Y-54030171D01*
X98885080Y-47211171D02*
X98885080Y-47056171D01*
X99945080Y-56938171D02*
X100644080Y-56938171D01*
X81924080Y-48356171D02*
X81924080Y-48653517D01*
X77403080Y-39399171D02*
X79181080Y-39399171D01*
X76146080Y-39399171D02*
X76133080Y-39412171D01*
X95437080Y-55046171D02*
X94561080Y-55046171D01*
X89849080Y-45381171D02*
X89849080Y-43406171D01*
X98885080Y-53866171D02*
X99800080Y-54781171D01*
X92262080Y-55242671D02*
X92262080Y-54490191D01*
X93824080Y-48356171D02*
X93824080Y-49153171D01*
X94869080Y-38456171D02*
X94929080Y-38396171D01*
X91032580Y-58121671D02*
X90992080Y-58081171D01*
X93993454Y-58121671D02*
X94035957Y-58164174D01*
X79224786Y-63588290D02*
X78283744Y-64709781D01*
D43*
G04 #@! TO.N,/LUX_INT*
X90230080Y-52211822D02*
X90230080Y-51858171D01*
X89490080Y-52747171D02*
X89694731Y-52747171D01*
X90230080Y-51858171D02*
X88674080Y-50302171D01*
X89694731Y-52747171D02*
X90230080Y-52211822D01*
X88674080Y-50302171D02*
X88674080Y-48306171D01*
D44*
G04 #@! TO.N,VBUS*
X101279080Y-55668171D02*
X101787080Y-55160171D01*
X94053080Y-53496171D02*
X95437080Y-53496171D01*
X99745451Y-48011171D02*
X100359111Y-48624831D01*
X99591080Y-52911171D02*
X98885080Y-52911171D01*
X95437080Y-53496171D02*
X96580080Y-54639171D01*
X98885080Y-48011171D02*
X99745451Y-48011171D01*
X96580080Y-55414171D02*
X96834080Y-55668171D01*
X100359111Y-48624831D02*
X100359111Y-52143140D01*
X100390080Y-52112171D02*
X100359111Y-52143140D01*
X96580080Y-54639171D02*
X96580080Y-55414171D01*
X93278080Y-55234671D02*
X93278080Y-54271171D01*
X93278080Y-54271171D02*
X94053080Y-53496171D01*
X93266080Y-55246671D02*
X93278080Y-55234671D01*
X100359111Y-52143140D02*
X99591080Y-52911171D01*
X96834080Y-55668171D02*
X101279080Y-55668171D01*
X101787080Y-55160171D02*
X101787080Y-52620171D01*
X101787080Y-52620171D02*
X101279080Y-52112171D01*
X101279080Y-52112171D02*
X100390080Y-52112171D01*
G04 #@! TO.N,VCC*
X88944080Y-62396171D02*
X89406580Y-62396171D01*
D45*
X89406580Y-62396171D02*
X91275080Y-62396171D01*
D44*
X89406580Y-60496171D02*
X88987653Y-60496171D01*
D45*
X88198080Y-61144322D02*
X88198080Y-61748020D01*
D43*
X92266080Y-58974171D02*
X92338280Y-59046371D01*
D45*
X88987653Y-60496171D02*
X88846231Y-60496171D01*
D43*
X92266080Y-58121671D02*
X92266080Y-58974171D01*
D45*
X88846231Y-60496171D02*
X88198080Y-61144322D01*
X88846231Y-62396171D02*
X88944080Y-62396171D01*
X88198080Y-61748020D02*
X88846231Y-62396171D01*
D44*
X91275080Y-62396171D02*
X91500080Y-62171171D01*
D43*
G04 #@! TO.N,/~PGOOD*
X97323570Y-54838432D02*
X97323570Y-53617662D01*
X91074080Y-48638183D02*
X91074080Y-48306171D01*
X96090600Y-52384691D02*
X94820587Y-52384690D01*
X94820587Y-52384690D02*
X91074080Y-48638183D01*
X93165107Y-58970171D02*
X94421080Y-58970171D01*
X92766080Y-58121671D02*
X92766080Y-58571144D01*
X97435488Y-54950350D02*
X97323570Y-54838432D01*
X92766080Y-58571144D02*
X93165107Y-58970171D01*
X97323570Y-53617662D02*
X96090600Y-52384691D01*
G04 #@! TO.N,/~CHG*
X97723080Y-54134275D02*
X97723080Y-53452178D01*
X93953580Y-57434171D02*
X95195653Y-57434171D01*
X91874080Y-48873177D02*
X91874080Y-48306171D01*
X98110129Y-54521324D02*
X97723080Y-54134275D01*
X94986074Y-51985171D02*
X91874080Y-48873177D01*
X95195653Y-57434171D02*
X95678145Y-57916663D01*
X97723080Y-53452178D02*
X96256073Y-51985171D01*
X95678145Y-57916663D02*
X96820544Y-57916663D01*
X96256073Y-51985171D02*
X94986074Y-51985171D01*
G04 #@! TO.N,Net-(J1-PadA5)*
X96604080Y-51711171D02*
X98885080Y-51711171D01*
X95945080Y-51052171D02*
X96604080Y-51711171D01*
G04 #@! TO.N,/~{RST}*
X81968080Y-45000171D02*
X81974080Y-45006171D01*
X79956080Y-46651171D02*
X79956080Y-45050171D01*
X79956080Y-45050171D02*
X80006080Y-45000171D01*
X80006080Y-45000171D02*
X81968080Y-45000171D01*
G04 #@! TO.N,Net-(J1-PadB5)*
X96326080Y-45571171D02*
X96326080Y-46909269D01*
X96326080Y-46909269D02*
X98127982Y-48711171D01*
X98127982Y-48711171D02*
X98885080Y-48711171D01*
D44*
G04 #@! TO.N,Net-(J2-Pad1)*
X96896658Y-57002171D02*
X101279080Y-61384593D01*
X95877080Y-56934171D02*
X95945080Y-57002171D01*
X95945080Y-57002171D02*
X96896658Y-57002171D01*
X93953580Y-56934171D02*
X93953580Y-56434171D01*
X93953580Y-56934171D02*
X95877080Y-56934171D01*
X101279080Y-61384593D02*
X101279080Y-61891171D01*
D43*
G04 #@! TO.N,/piezo_p*
X96453080Y-40936171D02*
X96453080Y-41126193D01*
X96453080Y-41126193D02*
X94173102Y-43406171D01*
X94173102Y-43406171D02*
X93774080Y-43406171D01*
G04 #@! TO.N,/piezo_l*
X94374080Y-42606171D02*
X95564080Y-41416171D01*
X95564080Y-41416171D02*
X95564080Y-40936171D01*
X93774080Y-42606171D02*
X94374080Y-42606171D01*
G04 #@! TO.N,Net-(R5-Pad2)*
X97468376Y-56938171D02*
X98295080Y-56938171D01*
X93953580Y-55934171D02*
X96464376Y-55934171D01*
X96464376Y-55934171D02*
X97468376Y-56938171D01*
G04 #@! TO.N,Net-(R6-Pad2)*
X91679580Y-55160171D02*
X91766080Y-55246671D01*
X88769080Y-55160171D02*
X91679580Y-55160171D01*
G04 #@! TO.N,/btn*
X70965080Y-47886171D02*
X73722080Y-45129171D01*
X75117080Y-46524171D02*
X73722080Y-45129171D01*
X75445080Y-43406171D02*
X81974080Y-43406171D01*
X70965080Y-53036171D02*
X70965080Y-47886171D01*
X75117080Y-47350171D02*
X75117080Y-46524171D01*
X73722080Y-45129171D02*
X75445080Y-43406171D01*
G04 #@! TO.N,/capsense*
X91952200Y-68175171D02*
X91952200Y-69074291D01*
X95183080Y-65764171D02*
X95183080Y-66487888D01*
X93495797Y-68175171D02*
X91197580Y-68175171D01*
X91197580Y-68175171D02*
X91952200Y-68175171D01*
X82483080Y-68389888D02*
X83096363Y-69003171D01*
X82483080Y-60875171D02*
X82483080Y-68389888D01*
X70037080Y-46990149D02*
X70037080Y-55160171D01*
X81974080Y-42606171D02*
X74421058Y-42606171D01*
X70037080Y-55160171D02*
X74101080Y-59224171D01*
X74421058Y-42606171D02*
X70037080Y-46990149D01*
X80832080Y-59224171D02*
X82483080Y-60875171D01*
X83096363Y-69003171D02*
X91881080Y-69003171D01*
X91952200Y-69074291D02*
X91952200Y-70544951D01*
X91881080Y-69003171D02*
X91952200Y-69074291D01*
X74101080Y-59224171D02*
X80832080Y-59224171D01*
X95183080Y-66487888D02*
X93495797Y-68175171D01*
G04 #@! TO.N,Net-(R10-Pad1)*
X88769080Y-56811171D02*
X89646080Y-55934171D01*
X89646080Y-55934171D02*
X91078580Y-55934171D01*
G04 #@! TO.N,/batsense*
X75434080Y-50525171D02*
X76260080Y-49699171D01*
X79943080Y-48492171D02*
X79943080Y-49699171D01*
X75117080Y-50525171D02*
X75434080Y-50525171D01*
X76260080Y-49699171D02*
X79943080Y-49699171D01*
X82356080Y-49699171D02*
X83074080Y-48981171D01*
X79943080Y-49699171D02*
X82356080Y-49699171D01*
X80006080Y-48429171D02*
X79943080Y-48492171D01*
X83074080Y-48981171D02*
X83074080Y-48306171D01*
G04 #@! TO.N,/D+*
X99909591Y-50560660D02*
X99759080Y-50711171D01*
D46*
X97835569Y-49685682D02*
X98502131Y-49685682D01*
X94821420Y-46004971D02*
X97835569Y-49019120D01*
D43*
X99859102Y-49711171D02*
X99909591Y-49761660D01*
X99909591Y-49761660D02*
X99909591Y-50560660D01*
D46*
X98502131Y-49685682D02*
X98576420Y-49759971D01*
X97835569Y-49019120D02*
X97835569Y-49685682D01*
D43*
X99759080Y-50711171D02*
X98885080Y-50711171D01*
X98885080Y-49711171D02*
X99859102Y-49711171D01*
D46*
X94374081Y-45806171D02*
X94572881Y-46004971D01*
X94572881Y-46004971D02*
X94821420Y-46004971D01*
X98576420Y-49759971D02*
X98836280Y-49759971D01*
X93774080Y-45806171D02*
X94374081Y-45806171D01*
X98836280Y-49759971D02*
X98885080Y-49711171D01*
G04 #@! TO.N,/D-*
X93774080Y-46606171D02*
X94374081Y-46606171D01*
D43*
X97850080Y-51150193D02*
X97911058Y-51211171D01*
D46*
X97433178Y-49185809D02*
X97433178Y-49852357D01*
X94654740Y-46407371D02*
X97433178Y-49185809D01*
X98836280Y-50162371D02*
X98885080Y-50211171D01*
D43*
X98885080Y-50211171D02*
X97911058Y-50211171D01*
D46*
X94374081Y-46606171D02*
X94572881Y-46407371D01*
D43*
X97911058Y-50211171D02*
X97850080Y-50272149D01*
D46*
X97433178Y-49852357D02*
X97743192Y-50162371D01*
D43*
X97850080Y-50272149D02*
X97850080Y-51150193D01*
X97911058Y-51211171D02*
X98885080Y-51211171D01*
D46*
X97743192Y-50162371D02*
X98836280Y-50162371D01*
X94572881Y-46407371D02*
X94654740Y-46407371D01*
D43*
G04 #@! TO.N,Net-(D4-Pad2)*
X101469080Y-41825171D02*
X101469080Y-40211671D01*
X101469080Y-40211671D02*
X101431580Y-40174171D01*
G04 #@! TO.N,/status*
X86274080Y-47706171D02*
X86694080Y-47286171D01*
X98485080Y-40174171D02*
X99856580Y-40174171D01*
X92643080Y-45000171D02*
X92643080Y-40809171D01*
X86694080Y-47286171D02*
X90357080Y-47286171D01*
X86274080Y-48306171D02*
X86274080Y-47706171D01*
X96580080Y-42079171D02*
X98485080Y-40174171D01*
X90357080Y-47286171D02*
X92643080Y-45000171D01*
G04 #@! TO.N,Net-(Q1-Pad1)*
X77322580Y-57382171D02*
X77197580Y-57507171D01*
X79181080Y-57382171D02*
X77322580Y-57382171D01*
G04 #@! TO.N,Net-(JP1-Pad1)*
X85785080Y-67987171D02*
X83945080Y-67987171D01*
X83945080Y-67987171D02*
X83818080Y-68114171D01*
G04 #@! TO.N,Net-(Q2-Pad1)*
X92122580Y-66275171D02*
X93072580Y-67225171D01*
X91197580Y-66275171D02*
X92122580Y-66275171D01*
X83818080Y-66844171D02*
X83818080Y-65574171D01*
X88768080Y-65574171D02*
X90496580Y-65574171D01*
X90496580Y-65574171D02*
X91197580Y-66275171D01*
X83818080Y-65574171D02*
X88768080Y-65574171D01*
X88768080Y-66844171D02*
X88768080Y-65574171D01*
X91197580Y-66275171D02*
X91818080Y-66275171D01*
X91818080Y-66275171D02*
X91818080Y-64177171D01*
G04 #@! TO.N,Net-(R12-Pad1)*
X95120080Y-64177171D02*
X95183080Y-64114171D01*
X93468080Y-64177171D02*
X95120080Y-64177171D01*
X83818080Y-64304171D02*
X87157363Y-64304171D01*
X92693560Y-63402651D02*
X93468080Y-64177171D01*
X87157363Y-64304171D02*
X88058883Y-63402651D01*
X88058883Y-63402651D02*
X92693560Y-63402651D01*
G04 #@! TD*
G04 #@! TA.AperFunction,Conductor*
G04 #@! TO.N,/vbat*
G36*
X74734117Y-49719173D02*
G01*
X74780610Y-49772829D01*
X74790714Y-49843103D01*
X74761220Y-49907683D01*
X74715872Y-49937751D01*
X74716776Y-49939525D01*
X74603738Y-49997121D01*
X74514030Y-50086829D01*
X74456434Y-50199867D01*
X74441580Y-50293652D01*
X74441581Y-50756689D01*
X74456434Y-50850475D01*
X74514030Y-50963513D01*
X74603738Y-51053221D01*
X74716776Y-51110817D01*
X74726565Y-51112367D01*
X74726567Y-51112368D01*
X74751066Y-51116248D01*
X74810561Y-51125671D01*
X75117018Y-51125671D01*
X75423598Y-51125670D01*
X75428492Y-51124895D01*
X75507586Y-51112369D01*
X75507588Y-51112368D01*
X75517384Y-51110817D01*
X75558130Y-51090056D01*
X75621589Y-51057722D01*
X75621591Y-51057721D01*
X75630422Y-51053221D01*
X75636870Y-51046773D01*
X75703320Y-51023063D01*
X75772472Y-51039142D01*
X75821953Y-51090056D01*
X75825841Y-51098103D01*
X75830800Y-51109374D01*
X75836577Y-51116247D01*
X75836578Y-51116248D01*
X75844498Y-51125670D01*
X75923050Y-51219119D01*
X76042393Y-51298561D01*
X76179237Y-51341313D01*
X76188209Y-51341477D01*
X76188212Y-51341478D01*
X76270248Y-51342982D01*
X76286312Y-51343276D01*
X76354054Y-51364524D01*
X76373097Y-51380160D01*
X76748952Y-51756015D01*
X76750706Y-51758046D01*
X76753043Y-51762828D01*
X76761572Y-51770739D01*
X76766162Y-51776920D01*
X76790722Y-51843533D01*
X76779066Y-51905595D01*
X76719613Y-52032223D01*
X76718232Y-52041095D01*
X76699761Y-52159728D01*
X76697557Y-52173883D01*
X76698721Y-52182785D01*
X76698721Y-52182788D01*
X76706851Y-52244961D01*
X76716146Y-52316039D01*
X76773886Y-52447263D01*
X76779663Y-52454136D01*
X76779664Y-52454137D01*
X76826267Y-52509578D01*
X76854788Y-52574594D01*
X76843632Y-52644708D01*
X76824258Y-52674060D01*
X76798505Y-52703221D01*
X76780543Y-52723559D01*
X76756441Y-52774895D01*
X76737600Y-52815024D01*
X76690543Y-52868186D01*
X76622215Y-52887468D01*
X76554309Y-52866748D01*
X76534450Y-52850570D01*
X75829484Y-52145604D01*
X75795458Y-52083292D01*
X75792579Y-52056509D01*
X75792579Y-51943653D01*
X75777726Y-51849867D01*
X75720130Y-51736829D01*
X75630422Y-51647121D01*
X75517384Y-51589525D01*
X75507595Y-51587975D01*
X75507593Y-51587974D01*
X75480231Y-51583641D01*
X75423599Y-51574671D01*
X75117142Y-51574671D01*
X74810562Y-51574672D01*
X74805669Y-51575447D01*
X74805668Y-51575447D01*
X74726574Y-51587973D01*
X74726572Y-51587974D01*
X74716776Y-51589525D01*
X74603738Y-51647121D01*
X74514030Y-51736829D01*
X74456434Y-51849867D01*
X74441580Y-51943652D01*
X74441581Y-52406689D01*
X74456434Y-52500475D01*
X74514030Y-52613513D01*
X74603738Y-52703221D01*
X74716776Y-52760817D01*
X74726565Y-52762367D01*
X74726567Y-52762368D01*
X74753929Y-52766701D01*
X74810561Y-52775671D01*
X75117018Y-52775671D01*
X75423598Y-52775670D01*
X75517384Y-52760817D01*
X75517887Y-52763995D01*
X75572063Y-52762438D01*
X75629147Y-52795209D01*
X76840324Y-54006386D01*
X76874350Y-54068698D01*
X76869285Y-54139513D01*
X76854883Y-54167118D01*
X76845514Y-54180674D01*
X76832125Y-54200046D01*
X76829823Y-54203268D01*
X76801060Y-54242210D01*
X76794946Y-54250487D01*
X76792553Y-54257303D01*
X76788449Y-54263240D01*
X76771244Y-54317643D01*
X76770762Y-54319166D01*
X76769509Y-54322921D01*
X76755860Y-54361790D01*
X76750061Y-54378302D01*
X76749779Y-54385490D01*
X76749768Y-54385549D01*
X76747600Y-54392401D01*
X76747080Y-54399008D01*
X76747080Y-54451687D01*
X76746983Y-54456633D01*
X76744742Y-54513665D01*
X76746626Y-54520771D01*
X76747080Y-54529018D01*
X76747080Y-54634550D01*
X76741731Y-54670872D01*
X76735206Y-54692546D01*
X76726488Y-54750384D01*
X76726457Y-54754876D01*
X76726457Y-54754881D01*
X76725600Y-54880679D01*
X76725298Y-54924912D01*
X76729691Y-54967848D01*
X76716727Y-55037648D01*
X76668083Y-55089361D01*
X76604346Y-55106671D01*
X76576862Y-55106671D01*
X76572312Y-55107341D01*
X76572309Y-55107341D01*
X76517654Y-55115387D01*
X76517653Y-55115387D01*
X76507968Y-55116813D01*
X76458072Y-55141311D01*
X76412573Y-55163649D01*
X76412571Y-55163650D01*
X76403225Y-55168239D01*
X76320787Y-55250821D01*
X76269544Y-55355653D01*
X76259580Y-55423953D01*
X76259580Y-55655686D01*
X76239578Y-55723807D01*
X76185922Y-55770300D01*
X76115648Y-55780404D01*
X76098427Y-55776683D01*
X76020018Y-55753903D01*
X76007413Y-55751601D01*
X75978996Y-55749364D01*
X75974066Y-55749171D01*
X75594695Y-55749171D01*
X75579456Y-55753646D01*
X75578251Y-55755036D01*
X75576580Y-55762719D01*
X75576580Y-56685171D01*
X75556578Y-56753292D01*
X75502922Y-56799785D01*
X75450580Y-56811171D01*
X74098202Y-56811171D01*
X74084671Y-56815144D01*
X74083536Y-56823042D01*
X74124187Y-56962961D01*
X74130435Y-56977398D01*
X74145003Y-57002032D01*
X74162463Y-57070848D01*
X74139946Y-57138179D01*
X74084602Y-57182649D01*
X74036550Y-57192171D01*
X72546241Y-57192171D01*
X72478120Y-57172169D01*
X72457146Y-57155266D01*
X71587656Y-56285776D01*
X74085141Y-56285776D01*
X74085181Y-56299877D01*
X74092450Y-56303171D01*
X75050465Y-56303171D01*
X75065704Y-56298696D01*
X75066909Y-56297306D01*
X75068580Y-56289623D01*
X75068580Y-55767287D01*
X75064105Y-55752048D01*
X75062715Y-55750843D01*
X75055032Y-55749172D01*
X74671097Y-55749172D01*
X74666160Y-55749366D01*
X74637744Y-55751601D01*
X74625149Y-55753901D01*
X74479290Y-55796278D01*
X74464859Y-55802523D01*
X74335402Y-55879082D01*
X74322976Y-55888722D01*
X74216631Y-55995067D01*
X74206991Y-56007493D01*
X74130432Y-56136950D01*
X74124187Y-56151381D01*
X74085141Y-56285776D01*
X71587656Y-56285776D01*
X71470985Y-56169105D01*
X71436959Y-56106793D01*
X71434080Y-56080010D01*
X71434080Y-54075171D01*
X71454082Y-54007050D01*
X71507738Y-53960557D01*
X71525222Y-53954910D01*
X71531139Y-53952459D01*
X71543311Y-53950038D01*
X71609632Y-53905723D01*
X71653947Y-53839402D01*
X71662785Y-53794973D01*
X71664373Y-53786987D01*
X71665580Y-53780919D01*
X71964580Y-53780919D01*
X71965787Y-53786987D01*
X71967376Y-53794973D01*
X71976213Y-53839402D01*
X72020528Y-53905723D01*
X72086849Y-53950038D01*
X72099018Y-53952459D01*
X72099019Y-53952459D01*
X72139264Y-53960464D01*
X72145332Y-53961671D01*
X72157702Y-53961671D01*
X72225823Y-53981673D01*
X72272316Y-54035329D01*
X72282420Y-54105603D01*
X72271759Y-54141216D01*
X72220527Y-54250334D01*
X72219146Y-54259206D01*
X72200603Y-54378302D01*
X72198471Y-54391994D01*
X72199635Y-54400896D01*
X72199635Y-54400899D01*
X72200894Y-54410525D01*
X72217060Y-54534150D01*
X72274800Y-54665374D01*
X72280577Y-54672247D01*
X72280578Y-54672248D01*
X72346258Y-54750384D01*
X72367050Y-54775119D01*
X72486393Y-54854561D01*
X72623237Y-54897313D01*
X72632209Y-54897477D01*
X72632212Y-54897478D01*
X72697543Y-54898675D01*
X72766579Y-54899941D01*
X72775613Y-54897478D01*
X72896238Y-54864592D01*
X72896240Y-54864591D01*
X72904897Y-54862231D01*
X73027071Y-54787216D01*
X73059522Y-54751365D01*
X73099934Y-54706717D01*
X73123280Y-54680925D01*
X73185790Y-54551904D01*
X73209576Y-54410525D01*
X73209727Y-54398171D01*
X73200182Y-54331517D01*
X73190676Y-54265139D01*
X73190675Y-54265136D01*
X73189403Y-54256253D01*
X73183018Y-54242210D01*
X73131993Y-54129985D01*
X73122007Y-54059694D01*
X73151607Y-53995163D01*
X73211398Y-53956879D01*
X73222110Y-53954256D01*
X73231138Y-53952460D01*
X73231141Y-53952459D01*
X73243311Y-53950038D01*
X73309632Y-53905723D01*
X73353947Y-53839402D01*
X73362785Y-53794973D01*
X73364373Y-53786987D01*
X73365580Y-53780919D01*
X73365580Y-52291423D01*
X73353947Y-52232940D01*
X73309632Y-52166619D01*
X73243311Y-52122304D01*
X73231142Y-52119883D01*
X73231141Y-52119883D01*
X73190896Y-52111878D01*
X73184828Y-52110671D01*
X72145332Y-52110671D01*
X72139264Y-52111878D01*
X72099019Y-52119883D01*
X72099018Y-52119883D01*
X72086849Y-52122304D01*
X72020528Y-52166619D01*
X71976213Y-52232940D01*
X71964580Y-52291423D01*
X71964580Y-53780919D01*
X71665580Y-53780919D01*
X71665580Y-52291423D01*
X71653947Y-52232940D01*
X71609632Y-52166619D01*
X71543311Y-52122304D01*
X71531141Y-52119883D01*
X71519675Y-52115134D01*
X71520581Y-52112947D01*
X71472588Y-52087841D01*
X71437457Y-52026146D01*
X71434080Y-51997171D01*
X71434080Y-49825171D01*
X71454082Y-49757050D01*
X71507738Y-49710557D01*
X71560080Y-49699171D01*
X74665996Y-49699171D01*
X74734117Y-49719173D01*
G37*
G04 #@! TD.AperFunction*
G04 #@! TD*
G04 #@! TA.AperFunction,Conductor*
G04 #@! TO.N,+3V3*
G36*
X87833263Y-50782236D02*
G01*
X87844248Y-50785417D01*
X87882074Y-50782141D01*
X87892946Y-50781671D01*
X88111413Y-50781671D01*
X88179534Y-50801673D01*
X88200508Y-50818576D01*
X89036084Y-51654152D01*
X89070110Y-51716464D01*
X89065045Y-51787279D01*
X89041947Y-51823219D01*
X89041456Y-51823547D01*
X88980565Y-51914676D01*
X88964580Y-51995038D01*
X88964581Y-52199303D01*
X88965788Y-52205370D01*
X88965788Y-52205373D01*
X88978120Y-52267372D01*
X88980565Y-52279666D01*
X88987458Y-52289983D01*
X88987459Y-52289984D01*
X89029010Y-52352169D01*
X89050225Y-52419922D01*
X89029010Y-52492173D01*
X88993888Y-52544737D01*
X88980565Y-52564676D01*
X88964580Y-52645038D01*
X88964581Y-52849303D01*
X88965788Y-52855370D01*
X88965788Y-52855373D01*
X88974906Y-52901213D01*
X88980565Y-52929666D01*
X88987458Y-52939983D01*
X88987459Y-52939984D01*
X89029010Y-53002169D01*
X89050225Y-53069922D01*
X89029010Y-53142173D01*
X89007354Y-53174584D01*
X88980565Y-53214676D01*
X88964580Y-53295038D01*
X88964581Y-53499303D01*
X88965788Y-53505370D01*
X88965788Y-53505373D01*
X88978144Y-53567493D01*
X88980565Y-53579666D01*
X88987458Y-53589983D01*
X88987459Y-53589984D01*
X89028368Y-53651207D01*
X89041456Y-53670795D01*
X89132585Y-53731686D01*
X89212947Y-53747671D01*
X89490057Y-53747671D01*
X89767212Y-53747670D01*
X89773278Y-53746463D01*
X89773283Y-53746463D01*
X89835404Y-53734107D01*
X89835405Y-53734107D01*
X89847575Y-53731686D01*
X89891064Y-53702628D01*
X89922310Y-53689908D01*
X89921843Y-53688698D01*
X89932696Y-53684510D01*
X89944133Y-53682380D01*
X89965121Y-53669443D01*
X89981491Y-53660940D01*
X89995968Y-53654720D01*
X89995972Y-53654718D01*
X90004143Y-53651207D01*
X90009029Y-53647193D01*
X90011214Y-53645008D01*
X90013477Y-53642956D01*
X90013622Y-53643116D01*
X90022629Y-53635996D01*
X90029524Y-53629744D01*
X90039428Y-53623639D01*
X90055996Y-53601851D01*
X90067190Y-53589032D01*
X90610166Y-53046056D01*
X91533080Y-53046056D01*
X91537555Y-53061295D01*
X91538945Y-53062500D01*
X91546628Y-53064171D01*
X92116965Y-53064171D01*
X92132204Y-53059696D01*
X92133409Y-53058306D01*
X92135080Y-53050623D01*
X92135080Y-52555287D01*
X92130605Y-52540048D01*
X92129215Y-52538843D01*
X92121532Y-52537172D01*
X91935797Y-52537172D01*
X91929873Y-52537451D01*
X91908698Y-52539452D01*
X91893800Y-52542720D01*
X91781129Y-52582287D01*
X91764660Y-52591008D01*
X91670002Y-52660923D01*
X91656832Y-52674093D01*
X91586917Y-52768751D01*
X91578196Y-52785220D01*
X91538628Y-52897894D01*
X91535361Y-52912785D01*
X91533359Y-52933970D01*
X91533080Y-52939884D01*
X91533080Y-53046056D01*
X90610166Y-53046056D01*
X90913532Y-52742690D01*
X90915566Y-52740934D01*
X90920349Y-52738596D01*
X90953653Y-52702694D01*
X90956933Y-52699289D01*
X90970328Y-52685894D01*
X90973052Y-52681924D01*
X90975377Y-52679276D01*
X90988572Y-52665052D01*
X90988574Y-52665049D01*
X90996481Y-52656525D01*
X91000791Y-52645721D01*
X91003313Y-52641732D01*
X91009074Y-52630944D01*
X91010991Y-52626619D01*
X91017572Y-52617025D01*
X91023263Y-52593044D01*
X91028828Y-52575447D01*
X91034668Y-52560809D01*
X91034669Y-52560806D01*
X91037963Y-52552549D01*
X91038580Y-52546256D01*
X91038580Y-52543177D01*
X91038730Y-52540104D01*
X91038946Y-52540115D01*
X91040278Y-52528740D01*
X91040734Y-52519425D01*
X91043420Y-52508105D01*
X91039731Y-52480998D01*
X91038580Y-52464007D01*
X91038580Y-51903671D01*
X91058582Y-51835550D01*
X91112238Y-51789057D01*
X91164580Y-51777671D01*
X91482667Y-51777671D01*
X91550788Y-51797673D01*
X91597281Y-51851329D01*
X91600238Y-51858926D01*
X91601434Y-51866475D01*
X91659030Y-51979513D01*
X91748738Y-52069221D01*
X91861776Y-52126817D01*
X91871565Y-52128367D01*
X91871567Y-52128368D01*
X91898929Y-52132701D01*
X91955561Y-52141671D01*
X92262018Y-52141671D01*
X92568598Y-52141670D01*
X92573492Y-52140895D01*
X92652586Y-52128369D01*
X92652588Y-52128368D01*
X92662384Y-52126817D01*
X92775422Y-52069221D01*
X92830696Y-52013947D01*
X92893009Y-51979922D01*
X92963825Y-51984988D01*
X93008886Y-52013948D01*
X93194675Y-52199737D01*
X93228701Y-52262049D01*
X93231580Y-52288832D01*
X93231580Y-52859464D01*
X93211578Y-52927585D01*
X93157922Y-52974078D01*
X93087648Y-52984182D01*
X93023068Y-52954688D01*
X92986697Y-52901213D01*
X92945963Y-52785218D01*
X92937243Y-52768751D01*
X92867328Y-52674093D01*
X92854158Y-52660923D01*
X92759500Y-52591008D01*
X92743031Y-52582287D01*
X92630357Y-52542719D01*
X92615466Y-52539452D01*
X92594281Y-52537450D01*
X92588367Y-52537171D01*
X92407195Y-52537171D01*
X92391956Y-52541646D01*
X92390751Y-52543036D01*
X92389080Y-52550719D01*
X92389080Y-53192171D01*
X92369078Y-53260292D01*
X92315422Y-53306785D01*
X92263080Y-53318171D01*
X91551196Y-53318171D01*
X91535957Y-53322646D01*
X91534752Y-53324036D01*
X91533081Y-53331719D01*
X91533081Y-53442454D01*
X91533360Y-53448378D01*
X91535361Y-53469553D01*
X91538629Y-53484451D01*
X91578196Y-53597122D01*
X91586914Y-53613587D01*
X91638353Y-53683230D01*
X91662735Y-53749909D01*
X91647198Y-53819185D01*
X91626096Y-53847184D01*
X91425034Y-54048246D01*
X91362722Y-54082272D01*
X91335939Y-54085151D01*
X86938034Y-54085151D01*
X86869913Y-54065149D01*
X86823420Y-54011493D01*
X86813316Y-53941219D01*
X86825768Y-53901947D01*
X86832298Y-53889132D01*
X86832299Y-53889128D01*
X86836799Y-53880297D01*
X86840970Y-53853962D01*
X86871381Y-53789808D01*
X86931649Y-53752281D01*
X86965419Y-53747671D01*
X87719195Y-53747671D01*
X87719197Y-53747670D01*
X87967212Y-53747670D01*
X87973278Y-53746463D01*
X87973283Y-53746463D01*
X88035404Y-53734107D01*
X88035405Y-53734107D01*
X88047575Y-53731686D01*
X88062513Y-53721705D01*
X88128388Y-53677688D01*
X88138704Y-53670795D01*
X88199595Y-53579666D01*
X88215580Y-53499304D01*
X88215579Y-53295039D01*
X88210276Y-53268374D01*
X88202016Y-53226847D01*
X88202016Y-53226846D01*
X88199595Y-53214676D01*
X88192700Y-53204357D01*
X88151150Y-53142173D01*
X88129935Y-53074420D01*
X88151150Y-53002169D01*
X88192700Y-52939985D01*
X88199595Y-52929666D01*
X88215580Y-52849304D01*
X88215579Y-52645039D01*
X88207756Y-52605704D01*
X88202016Y-52576847D01*
X88202016Y-52576846D01*
X88199595Y-52564676D01*
X88192700Y-52554357D01*
X88192700Y-52554356D01*
X88182244Y-52538707D01*
X88161030Y-52470954D01*
X88179814Y-52402487D01*
X88197915Y-52379612D01*
X88205940Y-52371587D01*
X88218398Y-52353796D01*
X88258698Y-52267372D01*
X88264030Y-52249078D01*
X88264945Y-52242132D01*
X88262733Y-52227949D01*
X88249577Y-52224171D01*
X87689080Y-52224171D01*
X87620959Y-52204169D01*
X87574466Y-52150513D01*
X87563080Y-52098171D01*
X87563080Y-51952056D01*
X87817080Y-51952056D01*
X87821555Y-51967295D01*
X87822945Y-51968500D01*
X87830628Y-51970171D01*
X88249194Y-51970171D01*
X88262965Y-51966127D01*
X88264994Y-51952588D01*
X88264030Y-51945264D01*
X88258698Y-51926970D01*
X88218398Y-51840546D01*
X88205940Y-51822755D01*
X88139496Y-51756311D01*
X88121705Y-51743853D01*
X88035282Y-51703553D01*
X88016986Y-51698221D01*
X87982717Y-51693709D01*
X87974508Y-51693171D01*
X87835195Y-51693171D01*
X87819956Y-51697646D01*
X87818751Y-51699036D01*
X87817080Y-51706719D01*
X87817080Y-51952056D01*
X87563080Y-51952056D01*
X87563080Y-51711286D01*
X87558605Y-51696047D01*
X87557215Y-51694842D01*
X87549532Y-51693171D01*
X87405652Y-51693171D01*
X87397443Y-51693709D01*
X87363174Y-51698221D01*
X87344878Y-51703553D01*
X87258455Y-51743853D01*
X87240664Y-51756311D01*
X87174220Y-51822755D01*
X87161762Y-51840546D01*
X87146275Y-51873758D01*
X87099357Y-51927043D01*
X87031080Y-51946504D01*
X86963120Y-51925962D01*
X86917055Y-51871939D01*
X86906080Y-51820508D01*
X86906080Y-51705244D01*
X86905711Y-51698430D01*
X86900570Y-51651105D01*
X86896945Y-51635860D01*
X86854705Y-51523183D01*
X86846172Y-51507596D01*
X86774646Y-51412161D01*
X86762090Y-51399605D01*
X86666655Y-51328079D01*
X86651068Y-51319546D01*
X86538391Y-51277306D01*
X86523146Y-51273681D01*
X86475821Y-51268540D01*
X86469007Y-51268171D01*
X86322195Y-51268171D01*
X86306956Y-51272646D01*
X86305751Y-51274036D01*
X86304080Y-51281719D01*
X86304080Y-51973171D01*
X86284078Y-52041292D01*
X86230422Y-52087785D01*
X86178080Y-52099171D01*
X85466195Y-52099171D01*
X85450956Y-52103646D01*
X85449751Y-52105036D01*
X85448080Y-52112719D01*
X85448080Y-52239098D01*
X85448449Y-52245912D01*
X85453590Y-52293237D01*
X85457215Y-52308482D01*
X85499455Y-52421159D01*
X85507988Y-52436746D01*
X85579514Y-52532181D01*
X85592070Y-52544737D01*
X85687505Y-52616263D01*
X85703092Y-52624796D01*
X85785565Y-52655713D01*
X85842330Y-52698354D01*
X85867030Y-52764915D01*
X85851823Y-52834264D01*
X85801537Y-52884383D01*
X85794662Y-52887340D01*
X85793954Y-52887452D01*
X85673860Y-52948643D01*
X85578552Y-53043951D01*
X85549866Y-53100251D01*
X85536849Y-53125797D01*
X85488100Y-53177412D01*
X85419185Y-53194478D01*
X85371730Y-53182973D01*
X85369708Y-53182039D01*
X85362175Y-53177156D01*
X85353578Y-53174585D01*
X85353576Y-53174584D01*
X85242009Y-53141219D01*
X85224819Y-53136078D01*
X85215843Y-53136023D01*
X85215842Y-53136023D01*
X85155635Y-53135655D01*
X85081456Y-53135202D01*
X84943609Y-53174599D01*
X84936019Y-53179388D01*
X84927823Y-53183054D01*
X84926243Y-53179521D01*
X84875509Y-53194053D01*
X84849564Y-53191177D01*
X84849536Y-53191171D01*
X84279195Y-53191171D01*
X84263956Y-53195646D01*
X84262751Y-53197036D01*
X84261080Y-53204719D01*
X84261080Y-53700055D01*
X84265555Y-53715294D01*
X84266945Y-53716499D01*
X84274628Y-53718170D01*
X84460363Y-53718170D01*
X84466287Y-53717891D01*
X84487462Y-53715890D01*
X84502362Y-53712621D01*
X84508775Y-53710369D01*
X84579675Y-53706668D01*
X84641321Y-53741886D01*
X84665856Y-53778503D01*
X84707053Y-53872132D01*
X84720800Y-53903374D01*
X84718820Y-53904245D01*
X84734589Y-53960980D01*
X84713600Y-54028803D01*
X84659275Y-54074512D01*
X84608602Y-54085151D01*
X84247421Y-54085151D01*
X84179300Y-54065149D01*
X84158326Y-54048246D01*
X84003393Y-53893313D01*
X83969367Y-53831001D01*
X83974432Y-53760186D01*
X83997264Y-53721705D01*
X84005409Y-53712306D01*
X84007080Y-53704623D01*
X84007080Y-52919056D01*
X84261080Y-52919056D01*
X84265555Y-52934295D01*
X84266945Y-52935500D01*
X84274628Y-52937171D01*
X84844964Y-52937171D01*
X84860203Y-52932696D01*
X84861408Y-52931306D01*
X84863079Y-52923623D01*
X84863079Y-52812888D01*
X84862800Y-52806964D01*
X84860799Y-52785789D01*
X84857531Y-52770891D01*
X84817964Y-52658220D01*
X84809243Y-52641751D01*
X84739328Y-52547093D01*
X84726158Y-52533923D01*
X84631499Y-52464007D01*
X84615031Y-52455287D01*
X84502357Y-52415719D01*
X84487466Y-52412452D01*
X84466281Y-52410450D01*
X84460367Y-52410171D01*
X84279195Y-52410171D01*
X84263956Y-52414646D01*
X84262751Y-52416036D01*
X84261080Y-52423719D01*
X84261080Y-52919056D01*
X84007080Y-52919056D01*
X84007080Y-52428287D01*
X84002605Y-52413048D01*
X84001215Y-52411843D01*
X83993532Y-52410172D01*
X83807797Y-52410172D01*
X83801873Y-52410451D01*
X83780698Y-52412452D01*
X83765800Y-52415720D01*
X83653129Y-52455287D01*
X83636661Y-52464007D01*
X83542002Y-52533923D01*
X83528832Y-52547093D01*
X83472431Y-52623454D01*
X83415870Y-52666365D01*
X83345089Y-52671885D01*
X83282559Y-52638261D01*
X83248134Y-52576169D01*
X83245080Y-52548595D01*
X83245080Y-52020649D01*
X83265082Y-51952528D01*
X83318738Y-51906035D01*
X83371080Y-51894649D01*
X83520976Y-51894649D01*
X83589097Y-51914651D01*
X83610071Y-51931554D01*
X83620738Y-51942221D01*
X83733776Y-51999817D01*
X83743565Y-52001367D01*
X83743567Y-52001368D01*
X83770929Y-52005701D01*
X83827561Y-52014671D01*
X84134018Y-52014671D01*
X84440598Y-52014670D01*
X84445492Y-52013895D01*
X84524586Y-52001369D01*
X84524588Y-52001368D01*
X84534384Y-51999817D01*
X84543764Y-51995038D01*
X84574233Y-51979513D01*
X84647422Y-51942221D01*
X84737130Y-51852513D01*
X84750101Y-51827056D01*
X85448080Y-51827056D01*
X85452555Y-51842295D01*
X85453945Y-51843500D01*
X85461628Y-51845171D01*
X86031965Y-51845171D01*
X86047204Y-51840696D01*
X86048409Y-51839306D01*
X86050080Y-51831623D01*
X86050080Y-51286286D01*
X86045605Y-51271047D01*
X86044215Y-51269842D01*
X86036532Y-51268171D01*
X85885153Y-51268171D01*
X85878339Y-51268540D01*
X85831014Y-51273681D01*
X85815769Y-51277306D01*
X85703092Y-51319546D01*
X85687505Y-51328079D01*
X85592070Y-51399605D01*
X85579514Y-51412161D01*
X85507988Y-51507596D01*
X85499455Y-51523183D01*
X85457215Y-51635860D01*
X85453590Y-51651105D01*
X85448449Y-51698430D01*
X85448080Y-51705244D01*
X85448080Y-51827056D01*
X84750101Y-51827056D01*
X84794726Y-51739475D01*
X84809580Y-51645690D01*
X84809579Y-51215834D01*
X84829581Y-51147714D01*
X84846484Y-51126738D01*
X85154648Y-50818575D01*
X85216960Y-50784550D01*
X85243743Y-50781671D01*
X87821706Y-50781671D01*
X87833263Y-50782236D01*
G37*
G04 #@! TD.AperFunction*
G04 #@! TD*
G04 #@! TA.AperFunction,Conductor*
G04 #@! TO.N,VCC*
G36*
X106513120Y-56287377D02*
G01*
X106560008Y-56340687D01*
X106570631Y-56410885D01*
X106566354Y-56430465D01*
X106549891Y-56484702D01*
X106528364Y-56555618D01*
X106526651Y-56560847D01*
X106244998Y-57361170D01*
X106243058Y-57366320D01*
X106198517Y-57477171D01*
X105926720Y-58153599D01*
X105924577Y-58158613D01*
X105651730Y-58760282D01*
X105574165Y-58931325D01*
X105571783Y-58936286D01*
X105428251Y-59219251D01*
X105232496Y-59605171D01*
X105187978Y-59692935D01*
X105185397Y-59697759D01*
X104810751Y-60362683D01*
X104768910Y-60436943D01*
X104766105Y-60441677D01*
X104317730Y-61161984D01*
X104314720Y-61166591D01*
X103835346Y-61866593D01*
X103832138Y-61871065D01*
X103322642Y-62549485D01*
X103319255Y-62553797D01*
X102780602Y-63209347D01*
X102777031Y-63213504D01*
X102453332Y-63574121D01*
X102263843Y-63785222D01*
X102210284Y-63844889D01*
X102206522Y-63848900D01*
X101997398Y-64062342D01*
X101612760Y-64454921D01*
X101608824Y-64458767D01*
X100989157Y-65038292D01*
X100985056Y-65041963D01*
X100714418Y-65273766D01*
X100412158Y-65532653D01*
X100340674Y-65593879D01*
X100336424Y-65597361D01*
X99695226Y-66099719D01*
X99668562Y-66120609D01*
X99664164Y-66123903D01*
X98974074Y-66617501D01*
X98969530Y-66620603D01*
X98315474Y-67046526D01*
X98258568Y-67083583D01*
X98253892Y-67086485D01*
X97523360Y-67517997D01*
X97518561Y-67520691D01*
X96769939Y-67919864D01*
X96765028Y-67922347D01*
X96174258Y-68204945D01*
X96003435Y-68286659D01*
X95999653Y-68288468D01*
X95994643Y-68290732D01*
X95825034Y-68362942D01*
X95213998Y-68623088D01*
X95208889Y-68625132D01*
X95099328Y-68666224D01*
X95028521Y-68671418D01*
X94966147Y-68637507D01*
X94932009Y-68575257D01*
X94929080Y-68548249D01*
X94929080Y-68495171D01*
X93904958Y-68495171D01*
X93836837Y-68475169D01*
X93790344Y-68421513D01*
X93780240Y-68351239D01*
X93809734Y-68286659D01*
X93815863Y-68280076D01*
X95358532Y-66737407D01*
X95360566Y-66735651D01*
X95365349Y-66733313D01*
X95382574Y-66714745D01*
X95398653Y-66697411D01*
X95401933Y-66694006D01*
X95415328Y-66680611D01*
X95418052Y-66676641D01*
X95420377Y-66673993D01*
X95433570Y-66659770D01*
X95441481Y-66651242D01*
X95445793Y-66640435D01*
X95448312Y-66636450D01*
X95454084Y-66625641D01*
X95455991Y-66621336D01*
X95462573Y-66611742D01*
X95468266Y-66587752D01*
X95473831Y-66570156D01*
X95479666Y-66555530D01*
X95482963Y-66547266D01*
X95483580Y-66540973D01*
X95483580Y-66537891D01*
X95483730Y-66534821D01*
X95483946Y-66534832D01*
X95485278Y-66523457D01*
X95485733Y-66514143D01*
X95488420Y-66502822D01*
X95486851Y-66491292D01*
X95486851Y-66491289D01*
X95486482Y-66488578D01*
X95487223Y-66483689D01*
X95487419Y-66479675D01*
X95487828Y-66479695D01*
X95497116Y-66418382D01*
X95544013Y-66365080D01*
X95572398Y-66351755D01*
X95573588Y-66351368D01*
X95583384Y-66349817D01*
X95696422Y-66292221D01*
X95786130Y-66202513D01*
X95843726Y-66089475D01*
X95858580Y-65995690D01*
X95858579Y-65532653D01*
X95843726Y-65438867D01*
X95786130Y-65325829D01*
X95696422Y-65236121D01*
X95583384Y-65178525D01*
X95573595Y-65176975D01*
X95573593Y-65176974D01*
X95546231Y-65172641D01*
X95489599Y-65163671D01*
X95183142Y-65163671D01*
X94876562Y-65163672D01*
X94871669Y-65164447D01*
X94871668Y-65164447D01*
X94792574Y-65176973D01*
X94792572Y-65176974D01*
X94782776Y-65178525D01*
X94669738Y-65236121D01*
X94580030Y-65325829D01*
X94522434Y-65438867D01*
X94507580Y-65532652D01*
X94507581Y-65995689D01*
X94508356Y-66000580D01*
X94508356Y-66000583D01*
X94517449Y-66057996D01*
X94522434Y-66089475D01*
X94526935Y-66098308D01*
X94526937Y-66098313D01*
X94538298Y-66120609D01*
X94580030Y-66202513D01*
X94669738Y-66292221D01*
X94678570Y-66296721D01*
X94678573Y-66296723D01*
X94703381Y-66309364D01*
X94754996Y-66358113D01*
X94772061Y-66427028D01*
X94749159Y-66494229D01*
X94735272Y-66510725D01*
X94211346Y-67034651D01*
X94149034Y-67068677D01*
X94078219Y-67063612D01*
X94021383Y-67021065D01*
X94001927Y-66982948D01*
X94001864Y-66982745D01*
X94000438Y-66973059D01*
X93949012Y-66868316D01*
X93866430Y-66785878D01*
X93844199Y-66775011D01*
X93774793Y-66741085D01*
X93761598Y-66734635D01*
X93731107Y-66730187D01*
X93697824Y-66725331D01*
X93697820Y-66725331D01*
X93693298Y-66724671D01*
X93049241Y-66724671D01*
X92981120Y-66704669D01*
X92960146Y-66687766D01*
X92372099Y-66099719D01*
X92370343Y-66097685D01*
X92368005Y-66092902D01*
X92353749Y-66079677D01*
X92332103Y-66059598D01*
X92328698Y-66056318D01*
X92315303Y-66042923D01*
X92311333Y-66040199D01*
X92308685Y-66037874D01*
X92294461Y-66024679D01*
X92294458Y-66024677D01*
X92285934Y-66016770D01*
X92275130Y-66012460D01*
X92271141Y-66009938D01*
X92260353Y-66004177D01*
X92256028Y-66002260D01*
X92246434Y-65995679D01*
X92235115Y-65992993D01*
X92235113Y-65992992D01*
X92222453Y-65989988D01*
X92204858Y-65984424D01*
X92197892Y-65981645D01*
X92142032Y-65937825D01*
X92118580Y-65864614D01*
X92118580Y-64927668D01*
X92138582Y-64859547D01*
X92187376Y-64815402D01*
X92256422Y-64780221D01*
X92346130Y-64690513D01*
X92403726Y-64577475D01*
X92407083Y-64556283D01*
X92417805Y-64488583D01*
X92418580Y-64483690D01*
X92418579Y-63870653D01*
X92417804Y-63865759D01*
X92417787Y-63865538D01*
X92432381Y-63796058D01*
X92482223Y-63745497D01*
X92551487Y-63729910D01*
X92618183Y-63754244D01*
X92632493Y-63766555D01*
X92830675Y-63964737D01*
X92864701Y-64027049D01*
X92867580Y-64053832D01*
X92867581Y-64483689D01*
X92868356Y-64488580D01*
X92868356Y-64488583D01*
X92879383Y-64558207D01*
X92882434Y-64577475D01*
X92940030Y-64690513D01*
X93029738Y-64780221D01*
X93142776Y-64837817D01*
X93152565Y-64839367D01*
X93152567Y-64839368D01*
X93179929Y-64843701D01*
X93236561Y-64852671D01*
X93468033Y-64852671D01*
X93699598Y-64852670D01*
X93704492Y-64851895D01*
X93709891Y-64851040D01*
X98505146Y-64851040D01*
X98505277Y-64852873D01*
X98509528Y-64859488D01*
X98953785Y-65303745D01*
X98963314Y-65311566D01*
X99010655Y-65343199D01*
X99033145Y-65352515D01*
X99107909Y-65367387D01*
X99132251Y-65367387D01*
X99207017Y-65352515D01*
X99229502Y-65343201D01*
X99276853Y-65311562D01*
X99286368Y-65303753D01*
X99727404Y-64862716D01*
X99735015Y-64848778D01*
X99734883Y-64846942D01*
X99730634Y-64840330D01*
X99132892Y-64242588D01*
X99118948Y-64234974D01*
X99117115Y-64235105D01*
X99110500Y-64239356D01*
X98512760Y-64837096D01*
X98505146Y-64851040D01*
X93709891Y-64851040D01*
X93783586Y-64839369D01*
X93783588Y-64839368D01*
X93793384Y-64837817D01*
X93906422Y-64780221D01*
X93996130Y-64690513D01*
X94053726Y-64577475D01*
X94055277Y-64567682D01*
X94056235Y-64564734D01*
X94096309Y-64506129D01*
X94161706Y-64478492D01*
X94176068Y-64477671D01*
X94464683Y-64477671D01*
X94532804Y-64497673D01*
X94568169Y-64536763D01*
X94569697Y-64535653D01*
X94575529Y-64543680D01*
X94580030Y-64552513D01*
X94669738Y-64642221D01*
X94782776Y-64699817D01*
X94792565Y-64701367D01*
X94792567Y-64701368D01*
X94819929Y-64705701D01*
X94876561Y-64714671D01*
X95183018Y-64714671D01*
X95489598Y-64714670D01*
X95494492Y-64713895D01*
X95573586Y-64701369D01*
X95573588Y-64701368D01*
X95583384Y-64699817D01*
X95696422Y-64642221D01*
X95786130Y-64552513D01*
X95843726Y-64439475D01*
X95858580Y-64345690D01*
X95858579Y-64062342D01*
X97802864Y-64062342D01*
X97817736Y-64137108D01*
X97827050Y-64159593D01*
X97858689Y-64206944D01*
X97866498Y-64216459D01*
X98307535Y-64657495D01*
X98321473Y-64665106D01*
X98323309Y-64664974D01*
X98329921Y-64660725D01*
X98927663Y-64062983D01*
X98934041Y-64051303D01*
X99304883Y-64051303D01*
X99305014Y-64053136D01*
X99309265Y-64059751D01*
X99907005Y-64657491D01*
X99920949Y-64665105D01*
X99922782Y-64664974D01*
X99929397Y-64660723D01*
X100373654Y-64216466D01*
X100381475Y-64206937D01*
X100413108Y-64159596D01*
X100422424Y-64137106D01*
X100437296Y-64062342D01*
X100437296Y-64038000D01*
X100422424Y-63963234D01*
X100413110Y-63940749D01*
X100381471Y-63893398D01*
X100373662Y-63883883D01*
X99932625Y-63442847D01*
X99918687Y-63435236D01*
X99916851Y-63435368D01*
X99910239Y-63439617D01*
X99312497Y-64037359D01*
X99304883Y-64051303D01*
X98934041Y-64051303D01*
X98935277Y-64049039D01*
X98935146Y-64047206D01*
X98930895Y-64040591D01*
X98333155Y-63442851D01*
X98319211Y-63435237D01*
X98317378Y-63435368D01*
X98310763Y-63439619D01*
X97866506Y-63883876D01*
X97858685Y-63893405D01*
X97827052Y-63940746D01*
X97817736Y-63963236D01*
X97802864Y-64038000D01*
X97802864Y-64062342D01*
X95858579Y-64062342D01*
X95858579Y-63882653D01*
X95856678Y-63870652D01*
X95845278Y-63798665D01*
X95845277Y-63798663D01*
X95843726Y-63788867D01*
X95832358Y-63766555D01*
X95810243Y-63723153D01*
X95786130Y-63675829D01*
X95696422Y-63586121D01*
X95583384Y-63528525D01*
X95573595Y-63526975D01*
X95573593Y-63526974D01*
X95546231Y-63522641D01*
X95489599Y-63513671D01*
X95183142Y-63513671D01*
X94876562Y-63513672D01*
X94871669Y-63514447D01*
X94871668Y-63514447D01*
X94792574Y-63526973D01*
X94792572Y-63526974D01*
X94782776Y-63528525D01*
X94669738Y-63586121D01*
X94580030Y-63675829D01*
X94522434Y-63788867D01*
X94521862Y-63792478D01*
X94483749Y-63848214D01*
X94418352Y-63875850D01*
X94403991Y-63876671D01*
X94176067Y-63876671D01*
X94107946Y-63856669D01*
X94061453Y-63803013D01*
X94056233Y-63789604D01*
X94055277Y-63786663D01*
X94053726Y-63776867D01*
X93996130Y-63663829D01*
X93906422Y-63574121D01*
X93793384Y-63516525D01*
X93783595Y-63514975D01*
X93783593Y-63514974D01*
X93756231Y-63510641D01*
X93699599Y-63501671D01*
X93639456Y-63501671D01*
X93269742Y-63501672D01*
X93201622Y-63481670D01*
X93180647Y-63464767D01*
X92967444Y-63251564D01*
X98505145Y-63251564D01*
X98505277Y-63253400D01*
X98509526Y-63260012D01*
X99107268Y-63857754D01*
X99121212Y-63865368D01*
X99123045Y-63865237D01*
X99129660Y-63860986D01*
X99727400Y-63263246D01*
X99735014Y-63249302D01*
X99734883Y-63247469D01*
X99730632Y-63240854D01*
X99286375Y-62796597D01*
X99276846Y-62788776D01*
X99229505Y-62757143D01*
X99207015Y-62747827D01*
X99132251Y-62732955D01*
X99107909Y-62732955D01*
X99033143Y-62747827D01*
X99010658Y-62757141D01*
X98963307Y-62788780D01*
X98953792Y-62796589D01*
X98512756Y-63237626D01*
X98505145Y-63251564D01*
X92967444Y-63251564D01*
X92943079Y-63227199D01*
X92941323Y-63225165D01*
X92938985Y-63220382D01*
X92903083Y-63187078D01*
X92899678Y-63183798D01*
X92886283Y-63170403D01*
X92882313Y-63167679D01*
X92879665Y-63165354D01*
X92865441Y-63152159D01*
X92865438Y-63152157D01*
X92856914Y-63144250D01*
X92846110Y-63139940D01*
X92842121Y-63137418D01*
X92831333Y-63131657D01*
X92827008Y-63129740D01*
X92817414Y-63123159D01*
X92806095Y-63120473D01*
X92806093Y-63120472D01*
X92793433Y-63117468D01*
X92775836Y-63111903D01*
X92761198Y-63106063D01*
X92761195Y-63106062D01*
X92752938Y-63102768D01*
X92746645Y-63102151D01*
X92743566Y-63102151D01*
X92740493Y-63102001D01*
X92740504Y-63101785D01*
X92729129Y-63100453D01*
X92719814Y-63099997D01*
X92708494Y-63097311D01*
X92696965Y-63098880D01*
X92696964Y-63098880D01*
X92681387Y-63101000D01*
X92664396Y-63102151D01*
X91926605Y-63102151D01*
X91858484Y-63082149D01*
X91811991Y-63028493D01*
X91801887Y-62958219D01*
X91831381Y-62893639D01*
X91882376Y-62858169D01*
X91974068Y-62823796D01*
X91989655Y-62815263D01*
X92085090Y-62743737D01*
X92097646Y-62731181D01*
X92169172Y-62635746D01*
X92177705Y-62620159D01*
X92219945Y-62507482D01*
X92223570Y-62492237D01*
X92228711Y-62444912D01*
X92229080Y-62438098D01*
X92229080Y-62316286D01*
X92224605Y-62301047D01*
X92223215Y-62299842D01*
X92215532Y-62298171D01*
X90789195Y-62298171D01*
X90773956Y-62302646D01*
X90772751Y-62304036D01*
X90771080Y-62311719D01*
X90771080Y-62438098D01*
X90771449Y-62444912D01*
X90776590Y-62492237D01*
X90780215Y-62507482D01*
X90822455Y-62620159D01*
X90830988Y-62635746D01*
X90902514Y-62731181D01*
X90915070Y-62743737D01*
X91010505Y-62815263D01*
X91026092Y-62823796D01*
X91117784Y-62858169D01*
X91174549Y-62900810D01*
X91199249Y-62967371D01*
X91184042Y-63036720D01*
X91133756Y-63086839D01*
X91073555Y-63102151D01*
X90234881Y-63102151D01*
X90166760Y-63082149D01*
X90120267Y-63028493D01*
X90110163Y-62958219D01*
X90139657Y-62893639D01*
X90160817Y-62874217D01*
X90166519Y-62870074D01*
X90242986Y-62793607D01*
X90254497Y-62777764D01*
X90303595Y-62681403D01*
X90309647Y-62662779D01*
X90322305Y-62582856D01*
X90323080Y-62573013D01*
X90323080Y-62541286D01*
X90318605Y-62526047D01*
X90317215Y-62524842D01*
X90309532Y-62523171D01*
X88508196Y-62523171D01*
X88492957Y-62527646D01*
X88491752Y-62529036D01*
X88490081Y-62536719D01*
X88490081Y-62573011D01*
X88490856Y-62582858D01*
X88503513Y-62662778D01*
X88509565Y-62681404D01*
X88558663Y-62777764D01*
X88570174Y-62793607D01*
X88646641Y-62870074D01*
X88652343Y-62874217D01*
X88695695Y-62930440D01*
X88701769Y-63001177D01*
X88668635Y-63063968D01*
X88606814Y-63098877D01*
X88578279Y-63102151D01*
X88111249Y-63102151D01*
X88108576Y-63101955D01*
X88103541Y-63100226D01*
X88091917Y-63100662D01*
X88080409Y-63098963D01*
X88080925Y-63095469D01*
X88031377Y-63082915D01*
X87982907Y-63031038D01*
X87969480Y-62974440D01*
X87969480Y-62707801D01*
X87979075Y-62666323D01*
X87977434Y-62665816D01*
X87980320Y-62656477D01*
X87984616Y-62647689D01*
X87994580Y-62579389D01*
X87994580Y-62251056D01*
X88490080Y-62251056D01*
X88494555Y-62266295D01*
X88495945Y-62267500D01*
X88503628Y-62269171D01*
X90304964Y-62269171D01*
X90320203Y-62264696D01*
X90321408Y-62263306D01*
X90323079Y-62255623D01*
X90323079Y-62219331D01*
X90322304Y-62209484D01*
X90309647Y-62129564D01*
X90303595Y-62110938D01*
X90254497Y-62014578D01*
X90241532Y-61996734D01*
X90217672Y-61929867D01*
X90233751Y-61860715D01*
X90284663Y-61811234D01*
X90343466Y-61796671D01*
X90624256Y-61796671D01*
X90643355Y-61798704D01*
X90648163Y-61798931D01*
X90654693Y-61800337D01*
X90654697Y-61800338D01*
X90658343Y-61801123D01*
X90658248Y-61801565D01*
X90718117Y-61822252D01*
X90762031Y-61878038D01*
X90771080Y-61924925D01*
X90771080Y-62026056D01*
X90775555Y-62041295D01*
X90776945Y-62042500D01*
X90784628Y-62044171D01*
X92210965Y-62044171D01*
X92226204Y-62039696D01*
X92227409Y-62038306D01*
X92229080Y-62030623D01*
X92229080Y-61904244D01*
X92228711Y-61897430D01*
X92223570Y-61850105D01*
X92219945Y-61834860D01*
X92177705Y-61722183D01*
X92169172Y-61706596D01*
X92097646Y-61611161D01*
X92085090Y-61598605D01*
X91989655Y-61527079D01*
X91974068Y-61518546D01*
X91891595Y-61487629D01*
X91834830Y-61444988D01*
X91810130Y-61378427D01*
X91825337Y-61309078D01*
X91875623Y-61258959D01*
X91882498Y-61256002D01*
X91883206Y-61255890D01*
X92003300Y-61194699D01*
X92098608Y-61099391D01*
X92159799Y-60979297D01*
X92163519Y-60955813D01*
X92173054Y-60895608D01*
X92175580Y-60879659D01*
X92175580Y-60362683D01*
X92159799Y-60263045D01*
X92098608Y-60142951D01*
X92003300Y-60047643D01*
X91983888Y-60037752D01*
X91932273Y-59989003D01*
X91915207Y-59920088D01*
X91927698Y-59870549D01*
X91981790Y-59758904D01*
X92005576Y-59617525D01*
X92005727Y-59605171D01*
X91985403Y-59463253D01*
X91926064Y-59332743D01*
X91899312Y-59301696D01*
X91838340Y-59230934D01*
X91838337Y-59230931D01*
X91832480Y-59224134D01*
X91712175Y-59146156D01*
X91574819Y-59105078D01*
X91565843Y-59105023D01*
X91565842Y-59105023D01*
X91505635Y-59104655D01*
X91431456Y-59104202D01*
X91293609Y-59143599D01*
X91172360Y-59220101D01*
X91166418Y-59226829D01*
X91166417Y-59226830D01*
X91137495Y-59259578D01*
X91077457Y-59327559D01*
X91016527Y-59457334D01*
X90994471Y-59598994D01*
X90995635Y-59607896D01*
X90995635Y-59607899D01*
X90996894Y-59617525D01*
X91013060Y-59741150D01*
X91016677Y-59749370D01*
X91070800Y-59872374D01*
X91068252Y-59873495D01*
X91083442Y-59928119D01*
X91062463Y-59995945D01*
X91014660Y-60038573D01*
X91005693Y-60043142D01*
X91005691Y-60043143D01*
X90996860Y-60047643D01*
X90901552Y-60142951D01*
X90840361Y-60263045D01*
X90824580Y-60362683D01*
X90824580Y-60748799D01*
X90804578Y-60816920D01*
X90787675Y-60837894D01*
X90566803Y-61058766D01*
X90504491Y-61092792D01*
X90477708Y-61095671D01*
X90343466Y-61095671D01*
X90275345Y-61075669D01*
X90228852Y-61022013D01*
X90218748Y-60951739D01*
X90241532Y-60895608D01*
X90254497Y-60877764D01*
X90303595Y-60781403D01*
X90309647Y-60762779D01*
X90322305Y-60682856D01*
X90323080Y-60673013D01*
X90323080Y-60641286D01*
X90318605Y-60626047D01*
X90317215Y-60624842D01*
X90309532Y-60623171D01*
X88508196Y-60623171D01*
X88492957Y-60627646D01*
X88491752Y-60629036D01*
X88490081Y-60636719D01*
X88490081Y-60673011D01*
X88490856Y-60682858D01*
X88503513Y-60762778D01*
X88509565Y-60781404D01*
X88558663Y-60877764D01*
X88570174Y-60893607D01*
X88597867Y-60921300D01*
X88631893Y-60983612D01*
X88626828Y-61054427D01*
X88611711Y-61082884D01*
X88604787Y-61089821D01*
X88553544Y-61194653D01*
X88552132Y-61204333D01*
X88544354Y-61257650D01*
X88543580Y-61262953D01*
X88543580Y-61629389D01*
X88553722Y-61698283D01*
X88605148Y-61803026D01*
X88611507Y-61809374D01*
X88634625Y-61875620D01*
X88618062Y-61944658D01*
X88597878Y-61971031D01*
X88570174Y-61998735D01*
X88558663Y-62014578D01*
X88509565Y-62110939D01*
X88503513Y-62129563D01*
X88490855Y-62209486D01*
X88490080Y-62219329D01*
X88490080Y-62251056D01*
X87994580Y-62251056D01*
X87994580Y-62212953D01*
X87984438Y-62144059D01*
X87980122Y-62135269D01*
X87977217Y-62125920D01*
X87979010Y-62125363D01*
X87969480Y-62084330D01*
X87969480Y-60807801D01*
X87979075Y-60766323D01*
X87977434Y-60765816D01*
X87980320Y-60756477D01*
X87984616Y-60747689D01*
X87994580Y-60679389D01*
X87994580Y-60351056D01*
X88490080Y-60351056D01*
X88494555Y-60366295D01*
X88495945Y-60367500D01*
X88503628Y-60369171D01*
X89261465Y-60369171D01*
X89276704Y-60364696D01*
X89277909Y-60363306D01*
X89279580Y-60355623D01*
X89279580Y-60351056D01*
X89533580Y-60351056D01*
X89538055Y-60366295D01*
X89539445Y-60367500D01*
X89547128Y-60369171D01*
X90304964Y-60369171D01*
X90320203Y-60364696D01*
X90321408Y-60363306D01*
X90323079Y-60355623D01*
X90323079Y-60319331D01*
X90322304Y-60309484D01*
X90309647Y-60229564D01*
X90303595Y-60210938D01*
X90254497Y-60114578D01*
X90242986Y-60098735D01*
X90166516Y-60022265D01*
X90150673Y-60010754D01*
X90054312Y-59961656D01*
X90035688Y-59955604D01*
X89955765Y-59942946D01*
X89945922Y-59942171D01*
X89551695Y-59942171D01*
X89536456Y-59946646D01*
X89535251Y-59948036D01*
X89533580Y-59955719D01*
X89533580Y-60351056D01*
X89279580Y-60351056D01*
X89279580Y-59960287D01*
X89275105Y-59945048D01*
X89273715Y-59943843D01*
X89266032Y-59942172D01*
X88867240Y-59942172D01*
X88857393Y-59942947D01*
X88777473Y-59955604D01*
X88758847Y-59961656D01*
X88662487Y-60010754D01*
X88646644Y-60022265D01*
X88570174Y-60098735D01*
X88558663Y-60114578D01*
X88509565Y-60210939D01*
X88503513Y-60229563D01*
X88490855Y-60309486D01*
X88490080Y-60319329D01*
X88490080Y-60351056D01*
X87994580Y-60351056D01*
X87994580Y-60312953D01*
X87984438Y-60244059D01*
X87980122Y-60235269D01*
X87977217Y-60225920D01*
X87979010Y-60225363D01*
X87969480Y-60184330D01*
X87969480Y-59015029D01*
X87989482Y-58946908D01*
X88043138Y-58900415D01*
X88095777Y-58889029D01*
X90582898Y-58894888D01*
X90582899Y-58894888D01*
X90585033Y-58894893D01*
X90587161Y-58894753D01*
X90587166Y-58894753D01*
X90595485Y-58894206D01*
X90612895Y-58893062D01*
X90624721Y-58891472D01*
X90640161Y-58889397D01*
X90640163Y-58889396D01*
X90646750Y-58888511D01*
X90653006Y-58886267D01*
X90653010Y-58886266D01*
X90721435Y-58861722D01*
X90727691Y-58859478D01*
X90788024Y-58822056D01*
X90808537Y-58807523D01*
X90865244Y-58735769D01*
X90895767Y-58671668D01*
X90900004Y-58661159D01*
X90944023Y-58605460D01*
X91011170Y-58582400D01*
X91019173Y-58582292D01*
X91023542Y-58582372D01*
X91054579Y-58582941D01*
X91089718Y-58573361D01*
X91184235Y-58547593D01*
X91184238Y-58547592D01*
X91192897Y-58545231D01*
X91200547Y-58540534D01*
X91200549Y-58540533D01*
X91263435Y-58501921D01*
X91331952Y-58483323D01*
X91399648Y-58504720D01*
X91445028Y-58559320D01*
X91452941Y-58584712D01*
X91455840Y-58599288D01*
X91462734Y-58609605D01*
X91462734Y-58609606D01*
X91504203Y-58671668D01*
X91513968Y-58686283D01*
X91524284Y-58693176D01*
X91590646Y-58737518D01*
X91590648Y-58737519D01*
X91600963Y-58744411D01*
X91613130Y-58746831D01*
X91613132Y-58746832D01*
X91643082Y-58752789D01*
X91677679Y-58759671D01*
X91766065Y-58759671D01*
X91854480Y-58759670D01*
X91860547Y-58758463D01*
X91860550Y-58758463D01*
X91931197Y-58744411D01*
X91932043Y-58748666D01*
X91979100Y-58743622D01*
X92019079Y-58760282D01*
X92019242Y-58759933D01*
X92027660Y-58763859D01*
X92028955Y-58764398D01*
X92029229Y-58764590D01*
X92111664Y-58803029D01*
X92129956Y-58808361D01*
X92162404Y-58812633D01*
X92170612Y-58813171D01*
X92361548Y-58813171D01*
X92369756Y-58812633D01*
X92402204Y-58808361D01*
X92420496Y-58803029D01*
X92444536Y-58791819D01*
X92514728Y-58781157D01*
X92579541Y-58810136D01*
X92586882Y-58816917D01*
X92752489Y-58982525D01*
X92915595Y-59145631D01*
X92917344Y-59147657D01*
X92919682Y-59152440D01*
X92955597Y-59185756D01*
X92958976Y-59189012D01*
X92972383Y-59202419D01*
X92976362Y-59205149D01*
X92978991Y-59207457D01*
X93001753Y-59228572D01*
X93012560Y-59232883D01*
X93016555Y-59235409D01*
X93027349Y-59241172D01*
X93031661Y-59243083D01*
X93041253Y-59249663D01*
X93052570Y-59252349D01*
X93052571Y-59252349D01*
X93065234Y-59255354D01*
X93082831Y-59260919D01*
X93097469Y-59266759D01*
X93097472Y-59266760D01*
X93105729Y-59270054D01*
X93112022Y-59270671D01*
X93115101Y-59270671D01*
X93118174Y-59270821D01*
X93118163Y-59271037D01*
X93129538Y-59272369D01*
X93138853Y-59272825D01*
X93150173Y-59275511D01*
X93161702Y-59273942D01*
X93161703Y-59273942D01*
X93177280Y-59271822D01*
X93194271Y-59270671D01*
X93961101Y-59270671D01*
X94029222Y-59290673D01*
X94057550Y-59315593D01*
X94084050Y-59347119D01*
X94203393Y-59426561D01*
X94340237Y-59469313D01*
X94349209Y-59469477D01*
X94349212Y-59469478D01*
X94414543Y-59470675D01*
X94483579Y-59471941D01*
X94492613Y-59469478D01*
X94613238Y-59436592D01*
X94613240Y-59436591D01*
X94621897Y-59434231D01*
X94744071Y-59359216D01*
X94840280Y-59252925D01*
X94885132Y-59160350D01*
X94898875Y-59131985D01*
X94898875Y-59131984D01*
X94902790Y-59123904D01*
X94926576Y-58982525D01*
X94926727Y-58970171D01*
X94917173Y-58903458D01*
X94917172Y-58903454D01*
X95216081Y-58903454D01*
X95216360Y-58909378D01*
X95218361Y-58930553D01*
X95221629Y-58945451D01*
X95261196Y-59058122D01*
X95269917Y-59074591D01*
X95339832Y-59169249D01*
X95353002Y-59182419D01*
X95447660Y-59252334D01*
X95464129Y-59261055D01*
X95576803Y-59300623D01*
X95591694Y-59303890D01*
X95612879Y-59305892D01*
X95618793Y-59306171D01*
X95799965Y-59306171D01*
X95815204Y-59301696D01*
X95816409Y-59300306D01*
X95818080Y-59292623D01*
X95818080Y-59288055D01*
X96072080Y-59288055D01*
X96076555Y-59303294D01*
X96077945Y-59304499D01*
X96085628Y-59306170D01*
X96271363Y-59306170D01*
X96277287Y-59305891D01*
X96298462Y-59303890D01*
X96313360Y-59300622D01*
X96426031Y-59261055D01*
X96442500Y-59252334D01*
X96537158Y-59182419D01*
X96550328Y-59169249D01*
X96620243Y-59074591D01*
X96628964Y-59058122D01*
X96668532Y-58945448D01*
X96671799Y-58930557D01*
X96673801Y-58909372D01*
X96674080Y-58903458D01*
X96674080Y-58797286D01*
X96669605Y-58782047D01*
X96668215Y-58780842D01*
X96660532Y-58779171D01*
X96090195Y-58779171D01*
X96074956Y-58783646D01*
X96073751Y-58785036D01*
X96072080Y-58792719D01*
X96072080Y-59288055D01*
X95818080Y-59288055D01*
X95818080Y-58797286D01*
X95813605Y-58782047D01*
X95812215Y-58780842D01*
X95804532Y-58779171D01*
X95234196Y-58779171D01*
X95218957Y-58783646D01*
X95217752Y-58785036D01*
X95216081Y-58792719D01*
X95216081Y-58903454D01*
X94917172Y-58903454D01*
X94907676Y-58837139D01*
X94907675Y-58837136D01*
X94906403Y-58828253D01*
X94894935Y-58803029D01*
X94886122Y-58783646D01*
X94847064Y-58697743D01*
X94828678Y-58676405D01*
X94759340Y-58595934D01*
X94759337Y-58595931D01*
X94753480Y-58589134D01*
X94633175Y-58511156D01*
X94624573Y-58508584D01*
X94624570Y-58508582D01*
X94592348Y-58498946D01*
X94532814Y-58460264D01*
X94503644Y-58395537D01*
X94513175Y-58335222D01*
X94511024Y-58334535D01*
X94513752Y-58325988D01*
X94517667Y-58317907D01*
X94541453Y-58176528D01*
X94541604Y-58164174D01*
X94532261Y-58098932D01*
X94522553Y-58031142D01*
X94522552Y-58031139D01*
X94521280Y-58022256D01*
X94517566Y-58014087D01*
X94471524Y-57912822D01*
X94461538Y-57842531D01*
X94491139Y-57778000D01*
X94550929Y-57739716D01*
X94586225Y-57734671D01*
X95018992Y-57734671D01*
X95087113Y-57754673D01*
X95108087Y-57771576D01*
X95319111Y-57982600D01*
X95353137Y-58044912D01*
X95348072Y-58115727D01*
X95331367Y-58146554D01*
X95269917Y-58229751D01*
X95261196Y-58246220D01*
X95221628Y-58358894D01*
X95218361Y-58373785D01*
X95216359Y-58394970D01*
X95216080Y-58400884D01*
X95216080Y-58507056D01*
X95220555Y-58522295D01*
X95221945Y-58523500D01*
X95229628Y-58525171D01*
X96655964Y-58525171D01*
X96671203Y-58520696D01*
X96672408Y-58519306D01*
X96673109Y-58516082D01*
X96707133Y-58453769D01*
X96769445Y-58419743D01*
X96798539Y-58416884D01*
X96828676Y-58417436D01*
X96883043Y-58418433D01*
X96891707Y-58416071D01*
X97012702Y-58383084D01*
X97012704Y-58383083D01*
X97021361Y-58380723D01*
X97143535Y-58305708D01*
X97193229Y-58250807D01*
X97233722Y-58206070D01*
X97239744Y-58199417D01*
X97279507Y-58117346D01*
X97327209Y-58064763D01*
X97395768Y-58046317D01*
X97463415Y-58067864D01*
X97481994Y-58083189D01*
X100523328Y-61124523D01*
X100557354Y-61186835D01*
X100552289Y-61257650D01*
X100523328Y-61302713D01*
X100062681Y-61763360D01*
X100029553Y-61812940D01*
X100013992Y-61891171D01*
X100016413Y-61903342D01*
X100025032Y-61946671D01*
X100029553Y-61969402D01*
X100062681Y-62018982D01*
X101151269Y-63107570D01*
X101200849Y-63140698D01*
X101213018Y-63143119D01*
X101213019Y-63143119D01*
X101266909Y-63153838D01*
X101279080Y-63156259D01*
X101291251Y-63153838D01*
X101345141Y-63143119D01*
X101345142Y-63143119D01*
X101357311Y-63140698D01*
X101406891Y-63107570D01*
X102495479Y-62018982D01*
X102528607Y-61969402D01*
X102533129Y-61946671D01*
X102541747Y-61903342D01*
X102544168Y-61891171D01*
X102528607Y-61812940D01*
X102495479Y-61763360D01*
X101406891Y-60674772D01*
X101357311Y-60641644D01*
X101345142Y-60639223D01*
X101345141Y-60639223D01*
X101291251Y-60628504D01*
X101279080Y-60626083D01*
X101266909Y-60628504D01*
X101213019Y-60639223D01*
X101213018Y-60639223D01*
X101200849Y-60641644D01*
X101185496Y-60651903D01*
X101117746Y-60673117D01*
X101049279Y-60654334D01*
X101026401Y-60636232D01*
X98218934Y-57828765D01*
X98184908Y-57766453D01*
X98189973Y-57695638D01*
X98232520Y-57638802D01*
X98299040Y-57613991D01*
X98308016Y-57613670D01*
X98526598Y-57613670D01*
X98531492Y-57612895D01*
X98610586Y-57600369D01*
X98610588Y-57600368D01*
X98620384Y-57598817D01*
X98733422Y-57541221D01*
X98823130Y-57451513D01*
X98880726Y-57338475D01*
X98895580Y-57244690D01*
X98895579Y-56631653D01*
X98887980Y-56583671D01*
X98882278Y-56547665D01*
X98882277Y-56547663D01*
X98880726Y-56537867D01*
X98864625Y-56506267D01*
X98851521Y-56436490D01*
X98878221Y-56370705D01*
X98936249Y-56329799D01*
X98975961Y-56323067D01*
X99263419Y-56320943D01*
X99331686Y-56340442D01*
X99378574Y-56393752D01*
X99389197Y-56463950D01*
X99376617Y-56504142D01*
X99370429Y-56516288D01*
X99359434Y-56537867D01*
X99357884Y-56547656D01*
X99357883Y-56547658D01*
X99356205Y-56558254D01*
X99344580Y-56631652D01*
X99344581Y-57244689D01*
X99345356Y-57249580D01*
X99345356Y-57249583D01*
X99354757Y-57308940D01*
X99359434Y-57338475D01*
X99417030Y-57451513D01*
X99506738Y-57541221D01*
X99619776Y-57598817D01*
X99629565Y-57600367D01*
X99629567Y-57600368D01*
X99644109Y-57602671D01*
X99713561Y-57613671D01*
X99945033Y-57613671D01*
X100176598Y-57613670D01*
X100181492Y-57612895D01*
X100260586Y-57600369D01*
X100260588Y-57600368D01*
X100270384Y-57598817D01*
X100383422Y-57541221D01*
X100473130Y-57451513D01*
X100491381Y-57415694D01*
X100519476Y-57360555D01*
X100568225Y-57308940D01*
X100627492Y-57294398D01*
X100627341Y-57293122D01*
X100637678Y-57291899D01*
X100637679Y-57291898D01*
X100637682Y-57291898D01*
X100657571Y-57289544D01*
X100662826Y-57289234D01*
X100662815Y-57289099D01*
X100667994Y-57288671D01*
X100673195Y-57288671D01*
X100678323Y-57287817D01*
X100678329Y-57287817D01*
X100690553Y-57285782D01*
X100696429Y-57284945D01*
X100732879Y-57280631D01*
X100732881Y-57280631D01*
X100743218Y-57279407D01*
X100750838Y-57275748D01*
X100759183Y-57274359D01*
X100800664Y-57251977D01*
X100805950Y-57249284D01*
X100848406Y-57228897D01*
X100852354Y-57225579D01*
X100854287Y-57223646D01*
X100855884Y-57222181D01*
X100856374Y-57221917D01*
X100856394Y-57221938D01*
X100856488Y-57221855D01*
X100861874Y-57218949D01*
X100868361Y-57211931D01*
X100933985Y-57186172D01*
X100947424Y-57185700D01*
X100951602Y-57185777D01*
X100951606Y-57185777D01*
X100960579Y-57185941D01*
X101030703Y-57166823D01*
X101090238Y-57150592D01*
X101090240Y-57150591D01*
X101098897Y-57148231D01*
X101221071Y-57073216D01*
X101317280Y-56966925D01*
X101379790Y-56837904D01*
X101403576Y-56696525D01*
X101403727Y-56684171D01*
X101393413Y-56612149D01*
X101384676Y-56551139D01*
X101384675Y-56551136D01*
X101383403Y-56542253D01*
X101379690Y-56534087D01*
X101379689Y-56534083D01*
X101356365Y-56482785D01*
X101346379Y-56412494D01*
X101375980Y-56347962D01*
X101435770Y-56309679D01*
X101470135Y-56304637D01*
X106444853Y-56267878D01*
X106513120Y-56287377D01*
G37*
G04 #@! TD.AperFunction*
G04 #@! TD*
G04 #@! TA.AperFunction,Conductor*
G04 #@! TO.N,+BATT*
G36*
X82069740Y-52813673D02*
G01*
X82090714Y-52830576D01*
X83209357Y-53949219D01*
X83243383Y-54011531D01*
X83246262Y-54038199D01*
X83246677Y-54491159D01*
X83246708Y-54525181D01*
X83471147Y-54526620D01*
X83736011Y-54528318D01*
X83804002Y-54548756D01*
X83824889Y-54568401D01*
X83825335Y-54567920D01*
X83861237Y-54601224D01*
X83864642Y-54604504D01*
X83878037Y-54617899D01*
X83882007Y-54620623D01*
X83884655Y-54622948D01*
X83892188Y-54629936D01*
X83907406Y-54644052D01*
X83918213Y-54648364D01*
X83922198Y-54650883D01*
X83933007Y-54656655D01*
X83937312Y-54658562D01*
X83946906Y-54665144D01*
X83970859Y-54670828D01*
X83970896Y-54670837D01*
X83988492Y-54676402D01*
X84011382Y-54685534D01*
X84017675Y-54686151D01*
X84020757Y-54686151D01*
X84023827Y-54686301D01*
X84023816Y-54686517D01*
X84035191Y-54687849D01*
X84044505Y-54688304D01*
X84055826Y-54690991D01*
X84067355Y-54689422D01*
X84067356Y-54689422D01*
X84082933Y-54687302D01*
X84099924Y-54686151D01*
X86397582Y-54686151D01*
X86465703Y-54706153D01*
X86512196Y-54759809D01*
X86522031Y-54831861D01*
X86518580Y-54853652D01*
X86518581Y-55156201D01*
X86518581Y-55299666D01*
X86498579Y-55367787D01*
X86444924Y-55414280D01*
X86374794Y-55424164D01*
X86367819Y-55422078D01*
X86358843Y-55422023D01*
X86358842Y-55422023D01*
X86298635Y-55421655D01*
X86224456Y-55421202D01*
X86086609Y-55460599D01*
X85965360Y-55537101D01*
X85959418Y-55543829D01*
X85959417Y-55543830D01*
X85917908Y-55590830D01*
X85870457Y-55644559D01*
X85809527Y-55774334D01*
X85805526Y-55800030D01*
X85789384Y-55903708D01*
X85787471Y-55915994D01*
X85806060Y-56058150D01*
X85824161Y-56099288D01*
X85858603Y-56177562D01*
X85863800Y-56189374D01*
X85869577Y-56196247D01*
X85869578Y-56196248D01*
X85949072Y-56290818D01*
X85956050Y-56299119D01*
X86075393Y-56378561D01*
X86083968Y-56381240D01*
X86099944Y-56386231D01*
X86212237Y-56421313D01*
X86221209Y-56421477D01*
X86221212Y-56421478D01*
X86286543Y-56422675D01*
X86355579Y-56423941D01*
X86364243Y-56421579D01*
X86373146Y-56420470D01*
X86373481Y-56423161D01*
X86430424Y-56424269D01*
X86489392Y-56463808D01*
X86517623Y-56528950D01*
X86518580Y-56544452D01*
X86518581Y-57117689D01*
X86519356Y-57122580D01*
X86519356Y-57122583D01*
X86527070Y-57171289D01*
X86533434Y-57211475D01*
X86591030Y-57324513D01*
X86680738Y-57414221D01*
X86793776Y-57471817D01*
X86803565Y-57473367D01*
X86803567Y-57473368D01*
X86830929Y-57477701D01*
X86887561Y-57486671D01*
X87119033Y-57486671D01*
X87350598Y-57486670D01*
X87355492Y-57485895D01*
X87434586Y-57473369D01*
X87434588Y-57473368D01*
X87444384Y-57471817D01*
X87557422Y-57414221D01*
X87647130Y-57324513D01*
X87704726Y-57211475D01*
X87709476Y-57181488D01*
X87713574Y-57155608D01*
X87719580Y-57117690D01*
X87719579Y-56504653D01*
X87710217Y-56445536D01*
X87706278Y-56420665D01*
X87706277Y-56420663D01*
X87704726Y-56410867D01*
X87647130Y-56297829D01*
X87557422Y-56208121D01*
X87538377Y-56198417D01*
X87486762Y-56149668D01*
X87469580Y-56086150D01*
X87469580Y-55914167D01*
X87469869Y-55909574D01*
X87471623Y-55903708D01*
X87471062Y-55889433D01*
X87472349Y-55884314D01*
X87472519Y-55882971D01*
X87472682Y-55882992D01*
X87488374Y-55820580D01*
X87539763Y-55772219D01*
X87548588Y-55767723D01*
X87548592Y-55767720D01*
X87557422Y-55763221D01*
X87647130Y-55673513D01*
X87704726Y-55560475D01*
X87719580Y-55466690D01*
X87719579Y-54853653D01*
X87718804Y-54848759D01*
X87718804Y-54848754D01*
X87716128Y-54831858D01*
X87725229Y-54761447D01*
X87770953Y-54707134D01*
X87840577Y-54686151D01*
X88047582Y-54686151D01*
X88115703Y-54706153D01*
X88162196Y-54759809D01*
X88172031Y-54831861D01*
X88168580Y-54853652D01*
X88168581Y-55466689D01*
X88169356Y-55471580D01*
X88169356Y-55471583D01*
X88178974Y-55532311D01*
X88183434Y-55560475D01*
X88241030Y-55673513D01*
X88330738Y-55763221D01*
X88443776Y-55820817D01*
X88453565Y-55822367D01*
X88453567Y-55822368D01*
X88480929Y-55826701D01*
X88537561Y-55835671D01*
X88769033Y-55835671D01*
X89000598Y-55835670D01*
X89005491Y-55834895D01*
X89006801Y-55834792D01*
X89076281Y-55849389D01*
X89126840Y-55899232D01*
X89142426Y-55968496D01*
X89118090Y-56035192D01*
X89105781Y-56049499D01*
X89056514Y-56098766D01*
X88994202Y-56132792D01*
X88967419Y-56135671D01*
X88597726Y-56135672D01*
X88537562Y-56135672D01*
X88532669Y-56136447D01*
X88532668Y-56136447D01*
X88453574Y-56148973D01*
X88453572Y-56148974D01*
X88443776Y-56150525D01*
X88330738Y-56208121D01*
X88241030Y-56297829D01*
X88183434Y-56410867D01*
X88181884Y-56420656D01*
X88181883Y-56420658D01*
X88181753Y-56421478D01*
X88168580Y-56504652D01*
X88168581Y-57117689D01*
X88169356Y-57122580D01*
X88169356Y-57122583D01*
X88177070Y-57171289D01*
X88183434Y-57211475D01*
X88241030Y-57324513D01*
X88330738Y-57414221D01*
X88443776Y-57471817D01*
X88453565Y-57473367D01*
X88453567Y-57473368D01*
X88480929Y-57477701D01*
X88537561Y-57486671D01*
X88769033Y-57486671D01*
X89000598Y-57486670D01*
X89005492Y-57485895D01*
X89084586Y-57473369D01*
X89084588Y-57473368D01*
X89094384Y-57471817D01*
X89207422Y-57414221D01*
X89297130Y-57324513D01*
X89354726Y-57211475D01*
X89359476Y-57181488D01*
X89363574Y-57155608D01*
X89369580Y-57117690D01*
X89369579Y-56687834D01*
X89389581Y-56619714D01*
X89406484Y-56598738D01*
X89733648Y-56271575D01*
X89795960Y-56237550D01*
X89822743Y-56234671D01*
X90261080Y-56234671D01*
X90329201Y-56254673D01*
X90375694Y-56308329D01*
X90387080Y-56360671D01*
X90387080Y-56529639D01*
X90387618Y-56537847D01*
X90391890Y-56570295D01*
X90397223Y-56588590D01*
X90416962Y-56630923D01*
X90427623Y-56701114D01*
X90416962Y-56737419D01*
X90397223Y-56779752D01*
X90391890Y-56798047D01*
X90387618Y-56830495D01*
X90387080Y-56838703D01*
X90387080Y-57029639D01*
X90387618Y-57037847D01*
X90391890Y-57070295D01*
X90397222Y-57088587D01*
X90435657Y-57171014D01*
X90435850Y-57171289D01*
X90436018Y-57171788D01*
X90440318Y-57181009D01*
X90439290Y-57181488D01*
X90458539Y-57238563D01*
X90453193Y-57268528D01*
X90455840Y-57269054D01*
X90440580Y-57345770D01*
X90440581Y-57522571D01*
X90455840Y-57599288D01*
X90513968Y-57686283D01*
X90524284Y-57693176D01*
X90527732Y-57696624D01*
X90561758Y-57758936D01*
X90556693Y-57829751D01*
X90552691Y-57839269D01*
X90508527Y-57933334D01*
X90501176Y-57980546D01*
X90488054Y-58064829D01*
X90486471Y-58074994D01*
X90487635Y-58083896D01*
X90487635Y-58083899D01*
X90495765Y-58146072D01*
X90505060Y-58217150D01*
X90562800Y-58348374D01*
X90568577Y-58355247D01*
X90568578Y-58355248D01*
X90649270Y-58451243D01*
X90655050Y-58458119D01*
X90662527Y-58463096D01*
X90669215Y-58469076D01*
X90666780Y-58471800D01*
X90701251Y-58512894D01*
X90710228Y-58583320D01*
X90679705Y-58647421D01*
X90619372Y-58684843D01*
X90585517Y-58689394D01*
X77031918Y-58657461D01*
X76963845Y-58637298D01*
X76917478Y-58583533D01*
X76906218Y-58530602D01*
X76908930Y-58132812D01*
X76929396Y-58064829D01*
X76983367Y-58018703D01*
X77034927Y-58007671D01*
X77818298Y-58007671D01*
X77822848Y-58007001D01*
X77822851Y-58007001D01*
X77877506Y-57998955D01*
X77877507Y-57998955D01*
X77887192Y-57997529D01*
X77937088Y-57973031D01*
X77982587Y-57950693D01*
X77982589Y-57950692D01*
X77991935Y-57946103D01*
X78074373Y-57863521D01*
X78099714Y-57811680D01*
X78125616Y-57758689D01*
X78127837Y-57759775D01*
X78159317Y-57712286D01*
X78224309Y-57683712D01*
X78240470Y-57682671D01*
X78430583Y-57682671D01*
X78498704Y-57702673D01*
X78542849Y-57751467D01*
X78578030Y-57820513D01*
X78667738Y-57910221D01*
X78780776Y-57967817D01*
X78790565Y-57969367D01*
X78790567Y-57969368D01*
X78817929Y-57973701D01*
X78874561Y-57982671D01*
X79181018Y-57982671D01*
X79487598Y-57982670D01*
X79501010Y-57980546D01*
X79571586Y-57969369D01*
X79571588Y-57969368D01*
X79581384Y-57967817D01*
X79694422Y-57910221D01*
X79784130Y-57820513D01*
X79841726Y-57707475D01*
X79845083Y-57686283D01*
X79847610Y-57670322D01*
X79856580Y-57613690D01*
X79856579Y-57150653D01*
X79851359Y-57117690D01*
X79843278Y-57066665D01*
X79843277Y-57066663D01*
X79841726Y-57056867D01*
X79784130Y-56943829D01*
X79694422Y-56854121D01*
X79581384Y-56796525D01*
X79571595Y-56794975D01*
X79571593Y-56794974D01*
X79544231Y-56790641D01*
X79487599Y-56781671D01*
X79181142Y-56781671D01*
X78874562Y-56781672D01*
X78869669Y-56782447D01*
X78869668Y-56782447D01*
X78790574Y-56794973D01*
X78790572Y-56794974D01*
X78780776Y-56796525D01*
X78667738Y-56854121D01*
X78578030Y-56943829D01*
X78545327Y-57008013D01*
X78542850Y-57012874D01*
X78494102Y-57064489D01*
X78430583Y-57081671D01*
X78108469Y-57081671D01*
X78040348Y-57061669D01*
X77993855Y-57008013D01*
X77983751Y-56937739D01*
X78008171Y-56879407D01*
X78020304Y-56863451D01*
X78031498Y-56850632D01*
X78089619Y-56792511D01*
X78151931Y-56758485D01*
X78181023Y-56755627D01*
X78218487Y-56756313D01*
X78264275Y-56757153D01*
X78272939Y-56754791D01*
X78393934Y-56721804D01*
X78393936Y-56721803D01*
X78402593Y-56719443D01*
X78524767Y-56644428D01*
X78544269Y-56622883D01*
X78614954Y-56544790D01*
X78620976Y-56538137D01*
X78683486Y-56409116D01*
X78683776Y-56407392D01*
X78721507Y-56351589D01*
X78786759Y-56323612D01*
X78821484Y-56324265D01*
X78867107Y-56331490D01*
X78874561Y-56332671D01*
X79181018Y-56332671D01*
X79487598Y-56332670D01*
X79492492Y-56331895D01*
X79571586Y-56319369D01*
X79571588Y-56319368D01*
X79581384Y-56317817D01*
X79694422Y-56260221D01*
X79784130Y-56170513D01*
X79785184Y-56168445D01*
X79838067Y-56127667D01*
X79908803Y-56121592D01*
X79971594Y-56154724D01*
X79980228Y-56164004D01*
X79981273Y-56165247D01*
X79987050Y-56172119D01*
X79994521Y-56177092D01*
X79994522Y-56177093D01*
X80085345Y-56237550D01*
X80106393Y-56251561D01*
X80243237Y-56294313D01*
X80252209Y-56294477D01*
X80252212Y-56294478D01*
X80317543Y-56295675D01*
X80386579Y-56296941D01*
X80395613Y-56294478D01*
X80516238Y-56261592D01*
X80516240Y-56261591D01*
X80524897Y-56259231D01*
X80647071Y-56184216D01*
X80653127Y-56177526D01*
X80737258Y-56084578D01*
X80743280Y-56077925D01*
X80805790Y-55948904D01*
X80829576Y-55807525D01*
X80829727Y-55795171D01*
X80817201Y-55707703D01*
X80810676Y-55662139D01*
X80810675Y-55662136D01*
X80809403Y-55653253D01*
X80799625Y-55631746D01*
X80771238Y-55569313D01*
X80750064Y-55522743D01*
X80726816Y-55495762D01*
X80662340Y-55420934D01*
X80662337Y-55420931D01*
X80656480Y-55414134D01*
X80536175Y-55336156D01*
X80398819Y-55295078D01*
X80389843Y-55295023D01*
X80389842Y-55295023D01*
X80329635Y-55294655D01*
X80255456Y-55294202D01*
X80117609Y-55333599D01*
X80072225Y-55362234D01*
X80004992Y-55381671D01*
X79906101Y-55381671D01*
X79837980Y-55361669D01*
X79793834Y-55312874D01*
X79793608Y-55312430D01*
X79784130Y-55293829D01*
X79694422Y-55204121D01*
X79685591Y-55199621D01*
X79685585Y-55199617D01*
X79600377Y-55156201D01*
X79548762Y-55107453D01*
X79531580Y-55043935D01*
X79531580Y-54764613D01*
X79551582Y-54696492D01*
X79600377Y-54652346D01*
X79663467Y-54620200D01*
X79663469Y-54620199D01*
X79672300Y-54615699D01*
X79731354Y-54556645D01*
X79793666Y-54522619D01*
X79864481Y-54527684D01*
X79916900Y-54564665D01*
X79947631Y-54601224D01*
X79961648Y-54617899D01*
X79987050Y-54648119D01*
X80106393Y-54727561D01*
X80243237Y-54770313D01*
X80252209Y-54770477D01*
X80252212Y-54770478D01*
X80317543Y-54771675D01*
X80386579Y-54772941D01*
X80395613Y-54770478D01*
X80516238Y-54737592D01*
X80516240Y-54737591D01*
X80524897Y-54735231D01*
X80647071Y-54660216D01*
X80654673Y-54651818D01*
X80737258Y-54560578D01*
X80743280Y-54553925D01*
X80805790Y-54424904D01*
X80829576Y-54283525D01*
X80829727Y-54271171D01*
X80809403Y-54129253D01*
X80750064Y-53998743D01*
X80673747Y-53910173D01*
X80662340Y-53896934D01*
X80662337Y-53896931D01*
X80656480Y-53890134D01*
X80536175Y-53812156D01*
X80398819Y-53771078D01*
X80389842Y-53771023D01*
X80389841Y-53771023D01*
X80367951Y-53770889D01*
X80295465Y-53747406D01*
X80283002Y-53738500D01*
X80278253Y-53734935D01*
X80267798Y-53726693D01*
X80241269Y-53705779D01*
X80233293Y-53702978D01*
X80226411Y-53698060D01*
X80181244Y-53684552D01*
X80175638Y-53682730D01*
X80138657Y-53669743D01*
X80138651Y-53669742D01*
X80131174Y-53667116D01*
X80126036Y-53666671D01*
X80123317Y-53666671D01*
X80121135Y-53666576D01*
X80120600Y-53666416D01*
X80120601Y-53666389D01*
X80120483Y-53666382D01*
X80114616Y-53664627D01*
X80065061Y-53666574D01*
X80060114Y-53666671D01*
X79922636Y-53666671D01*
X79854515Y-53646669D01*
X79810369Y-53597874D01*
X79772108Y-53522783D01*
X79767608Y-53513951D01*
X79672300Y-53418643D01*
X79552206Y-53357452D01*
X79542417Y-53355902D01*
X79542415Y-53355901D01*
X79512931Y-53351231D01*
X79452568Y-53341671D01*
X78935592Y-53341671D01*
X78875229Y-53351231D01*
X78845745Y-53355901D01*
X78845743Y-53355902D01*
X78835954Y-53357452D01*
X78715860Y-53418643D01*
X78620552Y-53513951D01*
X78559361Y-53634045D01*
X78556930Y-53632806D01*
X78525359Y-53678973D01*
X78459961Y-53706606D01*
X78390005Y-53694497D01*
X78337701Y-53646488D01*
X78327622Y-53625656D01*
X78296705Y-53543183D01*
X78288172Y-53527596D01*
X78216646Y-53432161D01*
X78204090Y-53419605D01*
X78108655Y-53348079D01*
X78093068Y-53339546D01*
X77980391Y-53297306D01*
X77965146Y-53293681D01*
X77917821Y-53288540D01*
X77911007Y-53288171D01*
X77811424Y-53288171D01*
X77743303Y-53268169D01*
X77696810Y-53214513D01*
X77687170Y-53141266D01*
X77687863Y-53137150D01*
X77708662Y-53013525D01*
X77708813Y-53001171D01*
X77710349Y-53001190D01*
X77724401Y-52938520D01*
X77745507Y-52910514D01*
X77825445Y-52830576D01*
X77887757Y-52796550D01*
X77914540Y-52793671D01*
X82001619Y-52793671D01*
X82069740Y-52813673D01*
G37*
G04 #@! TD.AperFunction*
G04 #@! TA.AperFunction,Conductor*
G36*
X77713201Y-53910173D02*
G01*
X77759694Y-53963829D01*
X77771080Y-54016171D01*
X77771080Y-54728056D01*
X77775555Y-54743295D01*
X77776945Y-54744500D01*
X77784628Y-54746171D01*
X77911007Y-54746171D01*
X77917821Y-54745802D01*
X77965146Y-54740661D01*
X77980391Y-54737036D01*
X78093068Y-54694796D01*
X78108655Y-54686263D01*
X78204090Y-54614737D01*
X78216646Y-54602181D01*
X78288172Y-54506746D01*
X78296705Y-54491159D01*
X78327622Y-54408686D01*
X78370263Y-54351921D01*
X78436824Y-54327221D01*
X78506173Y-54342428D01*
X78556292Y-54392714D01*
X78559249Y-54399589D01*
X78559361Y-54400297D01*
X78620552Y-54520391D01*
X78715860Y-54615699D01*
X78724693Y-54620199D01*
X78724692Y-54620199D01*
X78761783Y-54639098D01*
X78813398Y-54687846D01*
X78830580Y-54751365D01*
X78830580Y-55043935D01*
X78810578Y-55112056D01*
X78761783Y-55156201D01*
X78676575Y-55199617D01*
X78676569Y-55199621D01*
X78667738Y-55204121D01*
X78578030Y-55293829D01*
X78520434Y-55406867D01*
X78518884Y-55416656D01*
X78518883Y-55416658D01*
X78518025Y-55422078D01*
X78505580Y-55500652D01*
X78505580Y-55654599D01*
X78485578Y-55722720D01*
X78431922Y-55769213D01*
X78361648Y-55779317D01*
X78343478Y-55775316D01*
X78313019Y-55766207D01*
X78276515Y-55755290D01*
X78267540Y-55755235D01*
X78267539Y-55755235D01*
X78264023Y-55755214D01*
X78251713Y-55755138D01*
X78198579Y-55739184D01*
X78175532Y-55734171D01*
X77196580Y-55734171D01*
X77128459Y-55714169D01*
X77081966Y-55660513D01*
X77070580Y-55608171D01*
X77070580Y-55462056D01*
X77324580Y-55462056D01*
X77329055Y-55477295D01*
X77330445Y-55478500D01*
X77338128Y-55480171D01*
X78170964Y-55480171D01*
X78186203Y-55475696D01*
X78187408Y-55474306D01*
X78189079Y-55466623D01*
X78189079Y-55430331D01*
X78188304Y-55420484D01*
X78175647Y-55340564D01*
X78169595Y-55321938D01*
X78120497Y-55225578D01*
X78108986Y-55209735D01*
X78032516Y-55133265D01*
X78016673Y-55121754D01*
X77920312Y-55072656D01*
X77901688Y-55066604D01*
X77821765Y-55053946D01*
X77811922Y-55053171D01*
X77342695Y-55053172D01*
X77327456Y-55057647D01*
X77326251Y-55059037D01*
X77324580Y-55066720D01*
X77324580Y-55462056D01*
X77070580Y-55462056D01*
X77070580Y-55071287D01*
X77066105Y-55056048D01*
X77064715Y-55054843D01*
X77057032Y-55053172D01*
X77056790Y-55053172D01*
X77056098Y-55052969D01*
X77043797Y-55050293D01*
X77043988Y-55049413D01*
X76988669Y-55033170D01*
X76942176Y-54979514D01*
X76930793Y-54926313D01*
X76931983Y-54751785D01*
X76952449Y-54683802D01*
X77006420Y-54637676D01*
X77076762Y-54628052D01*
X77133545Y-54651818D01*
X77179501Y-54686260D01*
X77195092Y-54694796D01*
X77307769Y-54737036D01*
X77323014Y-54740661D01*
X77370339Y-54745802D01*
X77377153Y-54746171D01*
X77498965Y-54746171D01*
X77514204Y-54741696D01*
X77515409Y-54740306D01*
X77517080Y-54732623D01*
X77517080Y-54016171D01*
X77537082Y-53948050D01*
X77590738Y-53901557D01*
X77643080Y-53890171D01*
X77645080Y-53890171D01*
X77713201Y-53910173D01*
G37*
G04 #@! TD.AperFunction*
G04 #@! TD*
G04 #@! TA.AperFunction,Conductor*
G04 #@! TO.N,+3V3*
G36*
X83862490Y-59753684D02*
G01*
X84720281Y-59765488D01*
X84788120Y-59786425D01*
X84833876Y-59840729D01*
X84838746Y-59851796D01*
X84847800Y-59872373D01*
X84845252Y-59873494D01*
X84860442Y-59928119D01*
X84839463Y-59995945D01*
X84791660Y-60038573D01*
X84782693Y-60043142D01*
X84782691Y-60043143D01*
X84773860Y-60047643D01*
X84678552Y-60142951D01*
X84617361Y-60263045D01*
X84601580Y-60362683D01*
X84601580Y-60879659D01*
X84617361Y-60979297D01*
X84678552Y-61099391D01*
X84773860Y-61194699D01*
X84782693Y-61199199D01*
X84782692Y-61199199D01*
X84893954Y-61255890D01*
X84892715Y-61258321D01*
X84938882Y-61289892D01*
X84966515Y-61355290D01*
X84954406Y-61425246D01*
X84906397Y-61477550D01*
X84885565Y-61487629D01*
X84803092Y-61518546D01*
X84787505Y-61527079D01*
X84692070Y-61598605D01*
X84679514Y-61611161D01*
X84607988Y-61706596D01*
X84599455Y-61722183D01*
X84557215Y-61834860D01*
X84553590Y-61850105D01*
X84548449Y-61897430D01*
X84548080Y-61904244D01*
X84548080Y-62026056D01*
X84552555Y-62041295D01*
X84553945Y-62042500D01*
X84561628Y-62044171D01*
X85278080Y-62044171D01*
X85346201Y-62064173D01*
X85392694Y-62117829D01*
X85404080Y-62170171D01*
X85404080Y-62857056D01*
X85408555Y-62872295D01*
X85409945Y-62873500D01*
X85417628Y-62875171D01*
X85569007Y-62875171D01*
X85575821Y-62874802D01*
X85623146Y-62869661D01*
X85638391Y-62866036D01*
X85751068Y-62823796D01*
X85766655Y-62815263D01*
X85862090Y-62743737D01*
X85874646Y-62731181D01*
X85946172Y-62635746D01*
X85954705Y-62620159D01*
X85974748Y-62566693D01*
X86017389Y-62509928D01*
X86083950Y-62485228D01*
X86153299Y-62500435D01*
X86203418Y-62550721D01*
X86217179Y-62591213D01*
X86228513Y-62662777D01*
X86234565Y-62681404D01*
X86283663Y-62777764D01*
X86295174Y-62793607D01*
X86371644Y-62870077D01*
X86387487Y-62881588D01*
X86483848Y-62930686D01*
X86502472Y-62936738D01*
X86582395Y-62949396D01*
X86592238Y-62950171D01*
X86986465Y-62950171D01*
X87001704Y-62945696D01*
X87002909Y-62944306D01*
X87004580Y-62936623D01*
X87004580Y-61860287D01*
X87000105Y-61845048D01*
X86998715Y-61843843D01*
X86991032Y-61842172D01*
X86592240Y-61842172D01*
X86582393Y-61842947D01*
X86502473Y-61855604D01*
X86483847Y-61861656D01*
X86387487Y-61910754D01*
X86371644Y-61922265D01*
X86295174Y-61998735D01*
X86283663Y-62014578D01*
X86244347Y-62091740D01*
X86195599Y-62143355D01*
X86126684Y-62160421D01*
X86059482Y-62137520D01*
X86015330Y-62081923D01*
X86006080Y-62034537D01*
X86006080Y-61904244D01*
X86005711Y-61897430D01*
X86000570Y-61850105D01*
X85996945Y-61834860D01*
X85954705Y-61722183D01*
X85946172Y-61706596D01*
X85874646Y-61611161D01*
X85862090Y-61598605D01*
X85766655Y-61527079D01*
X85751068Y-61518546D01*
X85668595Y-61487629D01*
X85611830Y-61444988D01*
X85587130Y-61378427D01*
X85602337Y-61309078D01*
X85652623Y-61258959D01*
X85659498Y-61256002D01*
X85660206Y-61255890D01*
X85780300Y-61194699D01*
X85875608Y-61099391D01*
X85936799Y-60979297D01*
X85952580Y-60879659D01*
X85952580Y-60362683D01*
X85936799Y-60263045D01*
X85875608Y-60142951D01*
X85780300Y-60047643D01*
X85760890Y-60037753D01*
X85709275Y-59989006D01*
X85692208Y-59920092D01*
X85704698Y-59870551D01*
X85713784Y-59851796D01*
X85761485Y-59799212D01*
X85828910Y-59780744D01*
X86418100Y-59788851D01*
X86485938Y-59809788D01*
X86531688Y-59864079D01*
X86540824Y-59934485D01*
X86510445Y-59998654D01*
X86471896Y-60027942D01*
X86421573Y-60052649D01*
X86421571Y-60052650D01*
X86412225Y-60057239D01*
X86329787Y-60139821D01*
X86278544Y-60244653D01*
X86268580Y-60312953D01*
X86268580Y-60679389D01*
X86278722Y-60748283D01*
X86330148Y-60853026D01*
X86412730Y-60935464D01*
X86517562Y-60986707D01*
X86548053Y-60991155D01*
X86581336Y-60996011D01*
X86581340Y-60996011D01*
X86585862Y-60996671D01*
X87621580Y-60996671D01*
X87689701Y-61016673D01*
X87736194Y-61070329D01*
X87747580Y-61122671D01*
X87747580Y-61132338D01*
X87747483Y-61137284D01*
X87745242Y-61194316D01*
X87747126Y-61201422D01*
X87747580Y-61209669D01*
X87747580Y-61713800D01*
X87746704Y-61728629D01*
X87746423Y-61731000D01*
X87718543Y-61796293D01*
X87659788Y-61836148D01*
X87621299Y-61842171D01*
X87276695Y-61842171D01*
X87261456Y-61846646D01*
X87260251Y-61848036D01*
X87258580Y-61855719D01*
X87258580Y-62932055D01*
X87263055Y-62947294D01*
X87264445Y-62948499D01*
X87272128Y-62950170D01*
X87652914Y-62950170D01*
X87721035Y-62970172D01*
X87767528Y-63023828D01*
X87775511Y-63047085D01*
X87782957Y-63078473D01*
X87786748Y-63092289D01*
X87790863Y-63099361D01*
X87791162Y-63100072D01*
X87799086Y-63170625D01*
X87767608Y-63234262D01*
X87706722Y-63270779D01*
X87674636Y-63274842D01*
X83421219Y-63263117D01*
X83353155Y-63242927D01*
X83306811Y-63189143D01*
X83295568Y-63137431D01*
X83293826Y-62438098D01*
X84548080Y-62438098D01*
X84548449Y-62444912D01*
X84553590Y-62492237D01*
X84557215Y-62507482D01*
X84599455Y-62620159D01*
X84607988Y-62635746D01*
X84679514Y-62731181D01*
X84692070Y-62743737D01*
X84787505Y-62815263D01*
X84803092Y-62823796D01*
X84915769Y-62866036D01*
X84931014Y-62869661D01*
X84978339Y-62874802D01*
X84985153Y-62875171D01*
X85131965Y-62875171D01*
X85147204Y-62870696D01*
X85148409Y-62869306D01*
X85150080Y-62861623D01*
X85150080Y-62316286D01*
X85145605Y-62301047D01*
X85144215Y-62299842D01*
X85136532Y-62298171D01*
X84566195Y-62298171D01*
X84550956Y-62302646D01*
X84549751Y-62304036D01*
X84548080Y-62311719D01*
X84548080Y-62438098D01*
X83293826Y-62438098D01*
X83287439Y-59873830D01*
X83307272Y-59805659D01*
X83360811Y-59759033D01*
X83415172Y-59747528D01*
X83862490Y-59753684D01*
G37*
G04 #@! TD.AperFunction*
G04 #@! TD*
M02*
